<svg width="16" height="16" viewBox="0 0 16 16" xmlns="http://www.w3.org/2000/svg" fill="currentColor"><path fill-rule="evenodd" clip-rule="evenodd" d="M15 8C15 11.866 11.866 15 8 15C4.13401 15 1 11.866 1 8C1 4.13401 4.13401 1 8 1C11.866 1 15 4.13401 15 8ZM10.9932 13.2012C10.1123 13.7093 9.09007 14 8 14C6.90993 14 5.88775 13.7093 5.00676 13.2012C4.97876 12.7848 5.03797 12.3671 5.1806 11.9748C5.3233 11.5824 5.54637 11.224 5.83553 10.9227C6.12468 10.6214 6.47356 10.3838 6.85983 10.2251C7.22266 10.076 7.61099 9.99964 8.00277 10C8.02807 10 8.05338 10.0004 8.0787 10.001C8.49616 10.012 8.90673 10.11 9.28414 10.2887C9.66155 10.4675 9.99748 10.7231 10.2704 11.0391C10.5434 11.3552 10.7474 11.7247 10.8693 12.1241C10.9758 12.4731 11.0177 12.8381 10.9932 13.2012ZM11.9686 12.5001C11.9674 12.4901 11.9661 12.4801 11.9647 12.4701C11.9359 12.2546 11.8895 12.0412 11.8257 11.8322C11.6632 11.2996 11.3912 10.8069 11.0273 10.3855C10.6792 9.98247 10.2543 9.65322 9.77776 9.41677C10.5191 8.87056 11 7.99144 11 7C11 5.34315 9.65685 4 8 4C6.34315 4 5 5.34315 5 7C5 7.99144 5.48094 8.87056 6.22224 9.41677C5.8093 9.62164 5.43421 9.89669 5.11403 10.2303C4.72849 10.632 4.43107 11.1098 4.2408 11.6331C4.1661 11.8385 4.10857 12.0492 4.0685 12.2629C4.05375 12.3416 4.04137 12.4207 4.03136 12.5001C2.78567 11.4007 2 9.79209 2 8C2 4.68629 4.68629 2 8 2C11.3137 2 14 4.68629 14 8C14 9.79209 13.2143 11.4007 11.9686 12.5001ZM10 7C10 8.10457 9.10457 9 8 9C6.89543 9 6 8.10457 6 7C6 5.89543 6.89543 5 8 5C9.10457 5 10 5.89543 10 7Z"/></svg>