<svg width="16" height="16" viewBox="0 0 16 16" fill="none" xmlns="http://www.w3.org/2000/svg">
<path d="M10.2168 9.22363C10.8366 9.43783 11.3949 9.73633 11.8916 10.1191C12.3883 10.502 12.8122 10.9486 13.1631 11.459C13.514 11.9694 13.7829 12.5231 13.9697 13.1201C14.1566 13.7171 14.25 14.3438 14.25 15H13.375C13.375 14.2526 13.2428 13.5599 12.9785 12.9219C12.7142 12.2839 12.3451 11.7279 11.8711 11.2539C11.3971 10.7799 10.8434 10.4131 10.21 10.1533C9.5765 9.89355 8.88151 9.75911 8.125 9.75C7.63737 9.75 7.16797 9.81152 6.7168 9.93457C6.26562 10.0576 5.84635 10.2308 5.45898 10.4541C5.07161 10.6774 4.71842 10.9486 4.39941 11.2676C4.0804 11.5866 3.80924 11.9398 3.58594 12.3271C3.36263 12.7145 3.18717 13.1361 3.05957 13.5918C2.93197 14.0475 2.87044 14.5169 2.875 15H2C2 14.3438 2.0957 13.7171 2.28711 13.1201C2.47852 12.5231 2.74967 11.9717 3.10059 11.4658C3.4515 10.96 3.87533 10.5179 4.37207 10.1396C4.86882 9.76139 5.42708 9.45833 6.04688 9.23047C5.69141 9.03906 5.3724 8.80664 5.08984 8.5332C4.80729 8.25977 4.56803 7.95671 4.37207 7.62402C4.17611 7.29134 4.02344 6.93359 3.91406 6.55078C3.80469 6.16797 3.75 5.77604 3.75 5.375C3.75 4.76888 3.86393 4.2015 4.0918 3.67285C4.31966 3.14421 4.63184 2.67936 5.02832 2.27832C5.4248 1.87728 5.88737 1.5651 6.41602 1.3418C6.94466 1.11849 7.51432 1.00456 8.125 1C8.73112 1 9.2985 1.11393 9.82715 1.3418C10.3558 1.56966 10.8206 1.88184 11.2217 2.27832C11.6227 2.6748 11.9349 3.13737 12.1582 3.66602C12.3815 4.19466 12.4954 4.76432 12.5 5.375C12.5 5.77604 12.4476 6.16569 12.3428 6.54395C12.238 6.9222 12.0853 7.27767 11.8848 7.61035C11.6842 7.94303 11.445 8.24609 11.167 8.51953C10.889 8.79297 10.5723 9.02767 10.2168 9.22363ZM4.625 5.375C4.625 5.85807 4.71615 6.31152 4.89844 6.73535C5.08073 7.15918 5.33138 7.52832 5.65039 7.84277C5.9694 8.15723 6.34082 8.40788 6.76465 8.59473C7.18848 8.78158 7.64193 8.875 8.125 8.875C8.60807 8.875 9.06152 8.78385 9.48535 8.60156C9.90918 8.41927 10.2783 8.16862 10.5928 7.84961C10.9072 7.5306 11.1579 7.15918 11.3447 6.73535C11.5316 6.31152 11.625 5.85807 11.625 5.375C11.625 4.89193 11.5339 4.43848 11.3516 4.01465C11.1693 3.59082 10.9186 3.22168 10.5996 2.90723C10.2806 2.59277 9.90918 2.34212 9.48535 2.15527C9.06152 1.96842 8.60807 1.875 8.125 1.875C7.64193 1.875 7.18848 1.96615 6.76465 2.14844C6.34082 2.33073 5.97168 2.58138 5.65723 2.90039C5.34277 3.2194 5.09212 3.59082 4.90527 4.01465C4.71842 4.43848 4.625 4.89193 4.625 5.375Z" fill="#C5C5C5"/>
</svg>
