<svg width="16" height="16" viewBox="0 0 16 16" xmlns="http://www.w3.org/2000/svg" fill="currentColor"><path d="M6 5C6 3.89543 6.89543 3 8 3C9.10457 3 10 3.89543 10 5C10 6.10457 9.10457 7 8 7C6.89543 7 6 6.10457 6 5ZM5.49998 8L10.5 8C11.3284 8 12 8.67157 12 9.5C12 10.6161 11.541 11.5103 10.7879 12.1148C10.0466 12.7098 9.05308 13 8 13C6.94692 13 5.95342 12.7098 5.21215 12.1148C4.45897 11.5103 4 10.6161 4 9.5C4 8.67161 4.67156 8 5.49998 8ZM8 0C3.58172 0 0 3.58172 0 8C0 12.4183 3.58172 16 8 16C12.4183 16 16 12.4183 16 8C16 3.58172 12.4183 0 8 0ZM1 8C1 4.13401 4.13401 1 8 1C11.866 1 15 4.13401 15 8C15 11.866 11.866 15 8 15C4.13401 15 1 11.866 1 8Z"/></svg>