<svg width="16" height="16" viewBox="0 0 16 16" fill="none" xmlns="http://www.w3.org/2000/svg">
<path d="M14.9991 5.5009C15.0304 6.61917 14.634 7.70727 13.8907 8.54341C13.1475 9.37954 12.1134 9.90079 10.9991 10.0009C10.9909 9.65849 10.9232 9.32013 10.7991 9.00089C11.6689 8.91145 12.4755 8.50547 13.0655 7.86015C13.6555 7.21484 13.9878 6.3752 13.9991 5.5009C13.9959 4.599 13.6452 3.73303 13.0201 3.08292C12.395 2.4328 11.5434 2.04852 10.6423 2.0099C9.74125 1.97128 8.85994 2.2813 8.18148 2.87555C7.50302 3.4698 7.07959 4.30258 6.99915 5.20089C6.67717 5.08647 6.34037 5.01911 5.99915 5.0009C6.14761 3.90649 6.68305 2.90142 7.50851 2.16768C8.33397 1.43393 9.39488 1.02002 10.4991 1.00089C11.0908 0.998381 11.6771 1.11306 12.2242 1.33832C12.7713 1.56357 13.2684 1.89494 13.6867 2.31331C14.1051 2.73167 14.4365 3.22875 14.6617 3.77585C14.887 4.32295 15.0017 4.90924 14.9991 5.5009ZM5.49915 6.0009C4.60913 6.0009 3.7391 6.26482 2.99908 6.75928C2.25906 7.25375 1.68228 7.95655 1.34169 8.77882C1.0011 9.60109 0.91198 10.5059 1.08561 11.3788C1.25925 12.2517 1.68783 13.0535 2.31717 13.6829C2.9465 14.3122 3.74833 14.7408 4.62124 14.9144C5.49416 15.0881 6.39896 14.9989 7.22122 14.6584C8.04349 14.3178 8.74629 13.741 9.24076 13.001C9.73523 12.2609 9.99915 11.3909 9.99915 10.5009C9.99915 9.90995 9.88275 9.32478 9.65661 8.77882C9.43046 8.23285 9.09899 7.73678 8.68113 7.31891C8.26326 6.90105 7.76719 6.56958 7.22122 6.34344C6.67526 6.11729 6.0901 6.0009 5.49915 6.0009Z" fill="#C5C5C5"/>
</svg>
