<svg width="16" height="16" viewBox="0 0 16 16" xmlns="http://www.w3.org/2000/svg" fill="currentColor"><path d="M6.5 15C9.53757 15 12 12.5376 12 9.5C12 6.46243 9.53757 4 6.5 4C3.46243 4 1 6.46243 1 9.5C1 12.5376 3.46243 15 6.5 15Z"/><path d="M9.5 1C7.73 1 6.16 1.84 5.16 3.14C5.59 3.05 6.04 3 6.5 3C6.56 3 6.62 3 6.67 3.01C7.45 2.37 8.43 2 9.5 2C11.98 2 14 4.02 14 6.5C14 7.57 13.63 8.55 12.99 9.33C13 9.38 13 9.44 13 9.5C13 9.96 12.95 10.41 12.86 10.84C14.16 9.84 15 8.27 15 6.5C15 3.47 12.53 1 9.5 1Z"/></svg>