<svg width="16" height="16" viewBox="0 0 16 16" xmlns="http://www.w3.org/2000/svg" fill="currentColor"><path d="M6.14601 9.85398L4.14601 7.85398C3.95101 7.65898 3.95101 7.34198 4.14601 7.14698L6.14601 5.14698C6.34101 4.95198 6.65801 4.95198 6.85301 5.14698C7.04801 5.34198 7.04801 5.65898 6.85301 5.85398L5.70701 6.99998H10.5C10.776 6.99998 11 7.22398 11 7.49998C11 7.77598 10.776 7.99998 10.5 7.99998H5.70701L6.85301 9.14598C6.95101 9.24398 6.99901 9.37198 6.99901 9.49998C6.99901 9.62798 6.95001 9.75598 6.85301 9.85398C6.65801 10.049 6.34101 10.049 6.14601 9.85398Z"/></svg>