<svg width="16" height="16" viewBox="0 0 16 16" xmlns="http://www.w3.org/2000/svg" fill="currentColor"><path d="M9.85398 6.14601L7.85398 4.14601C7.65898 3.95101 7.34198 3.95101 7.14698 4.14601L5.14698 6.14601C4.95198 6.34101 4.95198 6.65801 5.14698 6.85301C5.34198 7.04801 5.65898 7.04801 5.85398 6.85301L6.99998 5.70701V10.5C6.99998 10.776 7.22398 11 7.49998 11C7.77598 11 7.99998 10.776 7.99998 10.5V5.70701L9.14598 6.85301C9.24398 6.95101 9.37198 6.99901 9.49998 6.99901C9.62798 6.99901 9.75598 6.95001 9.85398 6.85301C10.049 6.65801 10.049 6.34101 9.85398 6.14601Z"/></svg>