<svg width="16" height="16" viewBox="0 0 16 16" xmlns="http://www.w3.org/2000/svg" fill="currentColor"><path d="M2.14645 8.85355C1.95118 8.65829 1.95118 8.34171 2.14645 8.14645L5.14645 5.14645C5.34171 4.95118 5.65829 4.95118 5.85355 5.14645C6.04882 5.34171 6.04882 5.65829 5.85355 5.85355L3.70711 8L12.2929 8L10.1464 5.85355C9.95118 5.65829 9.95118 5.34171 10.1464 5.14645C10.3417 4.95118 10.6583 4.95118 10.8536 5.14645L13.8536 8.14645C14.0488 8.34171 14.0488 8.65829 13.8536 8.85355L10.8536 11.8536C10.6583 12.0488 10.3417 12.0488 10.1464 11.8536C9.95118 11.6583 9.95118 11.3417 10.1464 11.1464L12.2929 9L3.70711 9L5.85355 11.1464C6.04882 11.3417 6.04882 11.6583 5.85355 11.8536C5.65829 12.0488 5.34171 12.0488 5.14645 11.8536L2.14645 8.85355Z"/></svg>