<svg width="18" height="18" viewBox="0 0 18 18" xmlns="http://www.w3.org/2000/svg" fill="currentColor"><path d="M2.14645 9.85355C1.95118 9.65829 1.95118 9.34171 2.14645 9.14645L5.14645 6.14645C5.34171 5.95118 5.65829 5.95118 5.85355 6.14645C6.04882 6.34171 6.04882 6.65829 5.85355 6.85355L3.70711 9L14.2929 9L12.1464 6.85355C11.9512 6.65829 11.9512 6.34171 12.1464 6.14645C12.3417 5.95118 12.6583 5.95118 12.8536 6.14645L15.8536 9.14645C16.0488 9.34171 16.0488 9.65829 15.8536 9.85355L12.8536 12.8536C12.6583 13.0488 12.3417 13.0488 12.1464 12.8536C11.9512 12.6583 11.9512 12.3417 12.1464 12.1464L14.2929 10L3.70711 10L5.85355 12.1464C6.04882 12.3417 6.04882 12.6583 5.85355 12.8536C5.65829 13.0488 5.34171 13.0488 5.14645 12.8536L2.14645 9.85355Z"/></svg>