<svg width="18" height="18" viewBox="0 0 18 18" xmlns="http://www.w3.org/2000/svg" fill="currentColor"><path d="M12.3536 2.64645C12.1583 2.45118 11.8417 2.45118 11.6464 2.64645C11.4512 2.84171 11.4512 3.15829 11.6464 3.35355L13.2929 5H3.5C3.22386 5 3 5.22386 3 5.5C3 5.77614 3.22386 6 3.5 6H13.2929L11.6464 7.64645C11.4512 7.84171 11.4512 8.15829 11.6464 8.35355C11.8417 8.54882 12.1583 8.54882 12.3536 8.35355L14.8536 5.85355C15.0488 5.65829 15.0488 5.34171 14.8536 5.14645L12.3536 2.64645ZM6.35355 10.3536C6.54882 10.1583 6.54882 9.84171 6.35355 9.64645C6.15829 9.45118 5.84171 9.45118 5.64645 9.64645L3.14645 12.1464C2.95118 12.3417 2.95118 12.6583 3.14645 12.8536L5.64645 15.3536C5.84171 15.5488 6.15829 15.5488 6.35355 15.3536C6.54882 15.1583 6.54882 14.8417 6.35355 14.6464L4.70711 13H14.5C14.7761 13 15 12.7761 15 12.5C15 12.2239 14.7761 12 14.5 12H4.70711L6.35355 10.3536Z"/></svg>