<svg xmlns="http://www.w3.org/2000/svg" width="12" height="12" viewBox="0 0 12 12" fill="currentColor"><path d="M6 1C3.24 1 1 3.24 1 6C1 6.87 1.22 7.69 1.61 8.4L1.02 10.35C0.97 10.53 1.02 10.72 1.14 10.85C1.27 10.98 1.46 11.03 1.64 10.97L3.59 10.38C4.3 10.77 5.13 11 6 11C8.76 11 11 8.76 11 6C11 3.24 8.76 1 6 1ZM6 10C5.23 10 4.52 9.79 3.91 9.41C3.79 9.34 3.64 9.32 3.5 9.36L2.24 9.74L2.62 8.48C2.66 8.34 2.64 8.2 2.57 8.07C2.2 7.46 1.99 6.75 1.99 5.99C1.99 3.78 3.78 1.99 5.99 1.99C8.2 1.99 9.99 3.78 9.99 5.99C9.99 8.2 8.2 9.99 5.99 9.99L6 10ZM6.62 8.5C6.62 8.84 6.34 9.12 6 9.12C5.66 9.12 5.38 8.84 5.38 8.5C5.38 8.16 5.66 7.88 6 7.88C6.34 7.88 6.62 8.16 6.62 8.5ZM7.85 4.95C7.85 5.54 7.64 5.86 7.12 6.27L6.84 6.48C6.59 6.67 6.51 6.78 6.49 6.93V7.09C6.44 7.32 6.23 7.5 5.99 7.5C5.71 7.5 5.49 7.28 5.49 7C5.49 6.43 5.7 6.12 6.21 5.71L6.49 5.49C6.78 5.26 6.85 5.15 6.85 4.95C6.85 4.39 6.47 4 6 4C5.53 4 5.14 4.37 5.15 4.94C5.15 5.22 4.93 5.44 4.65 5.44C4.37 5.44 4.15 5.22 4.15 4.94C4.14 3.8 4.96 2.99 6 2.99C7.04 2.99 7.85 3.84 7.85 4.94V4.95Z"/></svg>