<svg width="16" height="16" viewBox="0 0 16 16" xmlns="http://www.w3.org/2000/svg" fill="currentColor"><path d="M3 7.97549C3 8.25149 3.224 8.47549 3.5 8.47549C3.628 8.47549 3.756 8.42649 3.854 8.32949L8.449 3.73249C8.937 3.24449 9.577 3.00049 10.217 3.00049C11.598 3.00049 12.717 4.11949 12.717 5.50049C12.717 6.14049 12.473 6.78049 11.985 7.26849L6.682 12.5715C6.487 12.7665 6.231 12.8645 5.975 12.8645C5.423 12.8645 4.975 12.4165 4.975 11.8645C4.975 11.6085 5.073 11.3525 5.268 11.1575L10.571 5.85449C10.669 5.75649 10.717 5.62849 10.717 5.50049C10.717 5.22449 10.493 5.00049 10.217 5.00049C10.089 5.00049 9.961 5.04949 9.863 5.14649L4.56 10.4505C4.169 10.8415 3.974 11.3525 3.974 11.8645C3.974 12.9695 4.869 13.8645 5.974 13.8645C6.486 13.8645 6.998 13.6695 7.388 13.2785L12.691 7.97549C13.374 7.29249 13.716 6.39649 13.716 5.50049C13.716 3.56749 12.149 2.00049 10.216 2.00049C9.32 2.00049 8.425 2.34249 7.741 3.02549L3.146 7.62149C3.048 7.71949 3 7.84749 3 7.97549Z"/></svg>