<svg width="16" height="16" viewBox="0 0 16 16" xmlns="http://www.w3.org/2000/svg" fill="currentColor"><path d="M2.77708 8.62109L7.92708 3.65069C8.99371 2.6213 10.723 2.6213 11.7896 3.65069C12.8562 4.68009 12.8562 6.34907 11.7896 7.37846L5.67396 13.2808C5.14067 13.7954 4.27601 13.7954 3.74271 13.2808C3.20941 12.7661 3.20941 11.9316 3.74271 11.4168L9.21457 6.13588C9.39238 5.9643 9.39238 5.68614 9.21457 5.51458C9.03686 5.34301 8.74863 5.34301 8.57083 5.51458L3.09896 10.7956C2.21012 11.6534 2.21012 13.0443 3.09896 13.9021C3.98779 14.7599 5.42888 14.7599 6.31772 13.9021L12.4334 7.99976C13.8555 6.62723 13.8555 4.40193 12.4334 3.0294C11.0113 1.65687 8.70548 1.65687 7.28334 3.0294L2.13333 7.99976C1.95556 8.17132 1.95556 8.44949 2.13333 8.62109C2.3111 8.7926 2.59931 8.7926 2.77708 8.62109Z"/></svg>