<svg width="18" height="18" viewBox="0 0 18 18" xmlns="http://www.w3.org/2000/svg" fill="currentColor"><path d="M13 1.99899C13.276 1.99899 13.5 2.22299 13.5 2.49899C13.5 2.77499 13.276 2.99899 13 2.99899H12.004V7.68299C12.004 8.26299 12.148 8.83299 12.423 9.34299L14.819 13.789C15.358 14.788 14.634 16.001 13.499 16.001H4.50101C3.36501 16.001 2.64301 14.788 3.18101 13.789L5.57501 9.34499C5.85001 8.83499 5.99401 8.26399 5.99401 7.68499V2.99899H5.00001C4.72401 2.99899 4.50001 2.77499 4.50001 2.49899C4.50001 2.22299 4.72401 1.99899 5.00001 1.99899H13ZM6.99401 2.99899V7.68599C6.99401 8.43099 6.80901 9.16399 6.45601 9.81999L5.82101 10.999H12.18L11.543 9.81699C11.19 9.16099 11.005 8.42799 11.005 7.68199V2.99899H6.99401ZM12.718 11.999H5.28201L4.06201 14.263C3.88201 14.597 4.12401 15 4.50201 15H13.499C13.877 15 14.119 14.596 13.939 14.263L12.718 11.999Z"/></svg>