<svg width="16" height="16" viewBox="0 0 16 16" xmlns="http://www.w3.org/2000/svg" fill="currentColor"><path d="M12 0.998993C12.276 0.998993 12.5 1.22299 12.5 1.49899C12.5 1.77499 12.276 1.99899 12 1.99899H11.004V6.68299C11.004 7.26299 11.148 7.83299 11.423 8.34299L13.819 12.789C14.358 13.788 13.634 15.001 12.499 15.001H3.50101C2.36501 15.001 1.64301 13.788 2.18101 12.789L4.57501 8.34499C4.85001 7.83499 4.99401 7.26399 4.99401 6.68499V1.99899H4.00001C3.72401 1.99899 3.50001 1.77499 3.50001 1.49899C3.50001 1.22299 3.72401 0.998993 4.00001 0.998993H12ZM5.99401 1.99899V6.68599C5.99401 7.43099 5.80901 8.16399 5.45601 8.81999L4.82101 9.99899H11.18L10.543 8.81699C10.19 8.16099 10.005 7.42799 10.005 6.68199V1.99899H5.99401ZM11.718 10.999H4.28201L3.06201 13.263C2.88201 13.597 3.12401 14 3.50201 14H12.499C12.877 14 13.119 13.596 12.939 13.263L11.718 10.999Z"/></svg>