<svg xmlns="http://www.w3.org/2000/svg" width="12" height="12" viewBox="0 0 12 12" fill="currentColor"><path d="M3.49999 1H3.99999V4.69C3.99999 5.13 3.87999 5.57 3.65999 5.95L1.44999 9.75C0.869987 10.75 1.58999 12.01 2.74999 12.01H9.26999C10.43 12.01 11.15 10.75 10.57 9.75L8.35999 5.95C8.13999 5.57 8.01999 5.13 8.01999 4.69V1H8.51999C8.79999 1 9.01999 0.78 9.01999 0.5C9.01999 0.22 8.77999 0 8.49999 0H3.49999C3.21999 0 2.99999 0.22 2.99999 0.5C2.99999 0.78 3.21999 1 3.49999 1ZM4.99999 4.69V1H6.99999V4.69C6.99999 5.31 7.15999 5.92 7.47999 6.45L7.79999 7H4.20999L4.52999 6.45C4.83999 5.91 5.00999 5.31 5.00999 4.69H4.99999ZM3.61999 8H8.37999L9.68999 10.25C9.87999 10.58 9.63999 11 9.25999 11H2.73999C2.34999 11 2.10999 10.58 2.30999 10.25L3.61999 8Z"/></svg>