<svg width="16" height="16" viewBox="0 0 16 16" xmlns="http://www.w3.org/2000/svg" fill="currentColor"><path d="M5.5 3H6.00001V6.68895C6.00001 7.13159 5.88249 7.56629 5.65946 7.94863L3.44539 11.7441C2.86206 12.7441 3.58337 13.9999 4.74106 13.9999H11.259C12.4167 13.9999 13.138 12.7441 12.5546 11.7441L10.3406 7.94863C10.1175 7.56629 10 7.13159 10 6.68895V3H10.5C10.7761 3 11 2.77614 11 2.5C11 2.22386 10.7761 2 10.5 2H5.5C5.22386 2 5 2.22386 5 2.5C5 2.77614 5.22386 3 5.5 3ZM7.00001 6.68895V3H9.00001V6.68895C9.00001 7.30864 9.16455 7.91723 9.47679 8.45251L9.79617 9H6.20386L6.52323 8.45251C6.83548 7.91723 7.00001 7.30864 7.00001 6.68895ZM5.62052 10H10.3795L11.6909 12.248C11.8853 12.5813 11.6449 12.9999 11.259 12.9999H4.74106C4.35516 12.9999 4.11473 12.5813 4.30917 12.248L5.62052 10Z"/></svg>