<svg width="18" height="18" viewBox="0 0 18 18" xmlns="http://www.w3.org/2000/svg" fill="currentColor"><path fill-rule="evenodd" clip-rule="evenodd" d="M12.5002 8C14.9851 8.00011 17.0002 10.0151 17.0002 12.5C17.0002 14.9849 14.9851 16.9999 12.5002 17C10.0152 17 8.0002 14.985 8.0002 12.5C8.0002 10.015 10.0152 8 12.5002 8ZM10.4035 15.3027C10.9875 15.7407 11.7142 16 12.5002 16C14.4331 15.9999 16.0002 14.4329 16.0002 12.5C16.0002 11.7141 15.7409 10.9883 15.3029 10.4043L10.4035 15.3027ZM12.5002 9C10.5672 9 9.0002 10.567 9.0002 12.5C9.0002 13.286 9.25947 14.0117 9.69747 14.5957L14.5959 9.69727C14.012 9.2593 13.2861 9.00005 12.5002 9Z"/><path d="M13.0002 1.99902C13.2761 1.99914 13.5002 2.22309 13.5002 2.49902C13.5002 2.77494 13.2761 2.99891 13.0002 2.99902H12.0041V7.02539C11.6602 7.05639 11.3271 7.12093 11.0041 7.21191V2.99902H6.99434V7.68652C6.99434 8.43152 6.80926 9.16529 6.45626 9.82129L5.82051 11H7.21407C7.12207 11.323 7.05659 11.656 7.02559 12H5.28243L4.06172 14.2637C3.88272 14.5967 4.12415 15.001 4.50215 15.001H7.60762C7.79062 15.358 8.00695 15.694 8.26094 16.001H4.50118C3.36521 16.001 2.64295 14.789 3.18087 13.79L5.5754 9.3457C5.85026 8.8358 5.99434 8.2644 5.99434 7.68555V2.99902H5.0002C4.72421 2.99902 4.50022 2.77501 4.5002 2.49902C4.5002 2.22302 4.7242 1.99902 5.0002 1.99902H13.0002Z"/></svg>