<svg width="16" height="16" viewBox="0 0 16 16" xmlns="http://www.w3.org/2000/svg" fill="currentColor"><path d="M9 3V6.59971C8.65812 6.77448 8.33694 6.98398 8.04111 7.22355C8.01385 7.04731 8 6.86862 8 6.689V3H6V6.689C6 7.309 5.835 7.917 5.523 8.453L5.20381 9H6.59971C6.43777 9.31679 6.30564 9.65136 6.20703 10H4.61997L3.30897 12.248C3.11497 12.581 3.35497 13 3.74097 13H6.20703C6.30564 13.3486 6.43777 13.6832 6.59971 14H3.74097C2.58297 14 1.86197 12.744 2.44497 11.744L4.659 7.95C4.882 7.568 5 7.133 5 6.69V3H4.5C4.224 3 4 2.776 4 2.5C4 2.224 4.224 2 4.5 2H9.5C9.776 2 10 2.224 10 2.5C10 2.776 9.776 3 9.5 3H9Z"/><path fill-rule="evenodd" clip-rule="evenodd" d="M7 11.5C7 13.9853 9.01472 16 11.5 16C13.9853 16 16 13.9853 16 11.5C16 9.01472 13.9853 7 11.5 7C9.01472 7 7 9.01472 7 11.5ZM8 11.5C8 12.2862 8.25919 13.0118 8.69679 13.5961L13.5961 8.69679C13.0118 8.25919 12.2862 8 11.5 8C9.567 8 8 9.567 8 11.5ZM11.5 15C10.7138 15 9.98818 14.7408 9.40389 14.3032L14.3032 9.40389C14.7408 9.98818 15 10.7138 15 11.5C15 13.433 13.433 15 11.5 15Z"/></svg>