<svg width="18" height="18" viewBox="0 0 18 18" xmlns="http://www.w3.org/2000/svg" fill="currentColor"><path d="M2.85398 2.14601C2.65898 1.95101 2.34198 1.95101 2.14698 2.14601C1.95198 2.34101 1.95198 2.65801 2.14698 2.85301L4.39598 5.10201C4.14698 5.68701 3.99998 6.32401 3.99998 6.99901V10.9L3.03598 13.313C2.97398 13.467 2.99298 13.641 3.08598 13.779C3.17898 13.916 3.33398 13.999 3.49998 13.999H6.99998C6.99998 15.107 7.89198 15.999 8.99998 15.999C10.108 15.999 11 15.107 11 13.999H13.293L15.147 15.853C15.245 15.951 15.373 15.999 15.501 15.999C15.629 15.999 15.757 15.95 15.855 15.853C16.05 15.658 16.05 15.341 15.855 15.146L2.85398 2.14601ZM8.99998 15C8.44398 15 7.99998 14.556 7.99998 14H9.99998C9.99998 14.556 9.55598 15 8.99998 15ZM4.23798 13L4.96398 11.183C4.98798 11.124 4.99998 11.061 4.99998 10.997V6.99901C4.99998 6.60701 5.05698 6.22801 5.16298 5.86901L12.293 12.999H4.23798V13ZM14 8.85801V10.901L14.651 12.529L13 10.878V8.99901C13.347 8.99901 13.678 8.94201 14 8.85801ZM6.23898 4.11801L5.53198 3.41101C6.43198 2.54101 7.65198 2.00001 8.99898 2.00001C9.41098 2.00001 9.80498 2.06401 10.189 2.15901C9.92398 2.42101 9.70998 2.72701 9.52698 3.05401C9.35298 3.03101 9.17998 3.00101 8.99998 3.00101C7.92798 3.00101 6.95798 3.42901 6.23898 4.11801ZM9.99998 5.00001C9.99998 3.34301 11.343 2.00001 13 2.00001C14.657 2.00001 16 3.34301 16 5.00001C16 6.65701 14.657 8.00001 13 8.00001C11.343 8.00001 9.99998 6.65701 9.99998 5.00001Z"/></svg>