<svg width="16" height="16" viewBox="0 0 16 16" fill="none" xmlns="http://www.w3.org/2000/svg">
<path d="M13.4 10.6C13.1 9.79997 13 8.99997 13 8.19997V6.19997C13 4.89997 12.6 3.69997 11.7 2.79997C10.9 1.79997 9.7 1.19997 8.5 1.09997C7.8 0.999969 7.1 0.999969 6.4 1.29997C5.7 1.59997 5.1 1.79997 4.6 2.29997C4.1 2.79997 3.7 3.29997 3.4 3.99997C3.1 4.59997 3 5.29997 3 5.99997V8.19997C3 8.99997 2.8 9.79997 2.6 10.6L2 12.3L2.5 13H6C6 13.5 6.2 14 6.6 14.4C6.9 14.8 7.4 15 8 15C8.6 15 9 14.8 9.4 14.4C9.8 14 10 13.5 10 13H13.5L14 12.3L13.4 10.6ZM8.7 13.7C8.5 13.9 8.2 14 8 14C7.8 14 7.5 13.9 7.3 13.7C7.1 13.5 7 13.3 7 13H8H9C9 13.3 8.9 13.5 8.7 13.7ZM9.4 12H9H7H6.6H3.2L3.6 10.9C3.8 9.99997 4 9.09997 4 8.19997V5.99997C4 5.39997 4.1 4.89997 4.3 4.39997C4.5 3.89997 4.9 3.39997 5.3 3.09997C5.7 2.69997 6.2 2.39997 6.7 2.29997C7.3 1.99997 7.8 1.99997 8.4 1.99997C9.4 2.09997 10.3 2.59997 11 3.39997C11.7 4.19997 12 5.19997 12 6.19997V8.19997C12 9.09997 12.1 9.99997 12.4 10.9L12.8 12H9.4Z" fill="white"/>
</svg>
