<svg width="18" height="18" viewBox="0 0 18 18" xmlns="http://www.w3.org/2000/svg" fill="currentColor"><path d="M6.23901 4.118L5.53201 3.411C6.43201 2.541 7.65201 2 8.99901 2C11.756 2 13.999 4.243 13.999 7V10.901L14.65 12.529L12.999 10.878V6.999C12.999 4.793 11.205 2.999 8.99901 2.999C7.92701 2.999 6.95701 3.428 6.23801 4.117L6.23901 4.118ZM15.854 15.854C15.756 15.952 15.628 16 15.5 16C15.372 16 15.244 15.951 15.146 15.854L13.292 14H10.999C10.999 15.108 10.107 16 8.99901 16C7.89101 16 6.99901 15.108 6.99901 14H3.49901C3.33301 14 3.17801 13.918 3.08501 13.78C2.99201 13.643 2.97301 13.468 3.03501 13.314L3.99901 10.901V7C3.99901 6.325 4.14601 5.688 4.39501 5.103L2.14601 2.854C1.95101 2.659 1.95101 2.342 2.14601 2.147C2.34101 1.952 2.65801 1.952 2.85301 2.147L15.853 15.147C16.048 15.342 16.048 15.659 15.853 15.854H15.854ZM10 14H8.00001C8.00001 14.556 8.44401 15 9.00001 15C9.55601 15 10 14.556 10 14ZM12.293 13L5.16301 5.87C5.05701 6.228 5.00001 6.607 5.00001 7V10.998C5.00001 11.062 4.98801 11.125 4.96401 11.184L4.23801 13.001H12.293V13Z"/></svg>