<svg width="16" height="16" viewBox="0 0 16 16" xmlns="http://www.w3.org/2000/svg" fill="currentColor"><path d="M12 7C13.6568 7 15 5.65685 15 4C15 2.34315 13.6568 1 12 1C10.3431 1 8.99997 2.34315 8.99997 4C8.99997 5.65685 10.3431 7 12 7Z"/><path d="M12.5 8.901V7.949C12.334 7.97 12.171 8 12 8C11.829 8 11.666 7.97 11.5 7.949V8.997C11.5 9.061 11.512 9.124 11.536 9.183L12.262 11H3.73797L4.46397 9.183C4.48797 9.124 4.49997 9.061 4.49997 8.997V6.499C4.49997 4.566 6.06697 2.999 7.99997 2.999C8.04697 2.999 8.09097 3.011 8.13797 3.013C8.22497 2.672 8.35897 2.352 8.52797 2.052C8.35297 2.031 8.18097 1.999 8.00097 1.999C5.51597 1.999 3.50097 4.014 3.50097 6.499V8.9L2.53697 11.313C2.47497 11.467 2.49397 11.641 2.58697 11.779C2.67997 11.916 2.83497 11.999 3.00097 11.999H6.00097C6.00097 13.107 6.89297 13.999 8.00097 13.999C9.10897 13.999 10.001 13.107 10.001 11.999H13.001C13.167 11.999 13.322 11.917 13.415 11.779C13.508 11.642 13.527 11.467 13.465 11.313L12.501 8.9L12.5 8.901ZM7.99997 13C7.44397 13 6.99997 12.556 6.99997 12H8.99997C8.99997 12.556 8.55597 13 7.99997 13Z"/></svg>