<svg width="16" height="16" viewBox="0 0 16 16" xmlns="http://www.w3.org/2000/svg" fill="currentColor"><path d="M11.2929 12L14.1464 14.8535C14.3417 15.0488 14.6583 15.0488 14.8536 14.8535C15.0488 14.6582 15.0488 14.3417 14.8536 14.1464L1.85355 1.1464C1.65829 0.951139 1.34171 0.951139 1.14645 1.1464C0.951184 1.34166 0.951184 1.65825 1.14645 1.85351L3.91116 4.61822C3.64722 5.19076 3.50001 5.82819 3.50001 6.5V8.9014L2.5357 11.3145C2.47415 11.4685 2.49299 11.643 2.58601 11.7804C2.67904 11.9177 2.83412 12 3 12H6C6 13.1084 6.89164 14 8 14C9.10835 14 10 13.1084 10 12H11.2929ZM10.2929 11H3.73826L4.46431 9.18315C4.48789 9.12413 4.50001 9.06116 4.50001 8.9976V6.5C4.50001 6.11111 4.56343 5.73704 4.6805 5.38756L10.2929 11ZM8 13C7.44393 13 7 12.5561 7 12H9C9 12.5561 8.55607 13 8 13ZM11.6896 9.56827L11.5357 9.18315C11.5121 9.12413 11.5 9.06116 11.5 8.9976V6.5C11.5 4.567 9.933 3 8.00001 3C7.19186 3 6.44769 3.2739 5.85526 3.73392L5.1438 3.02246C5.92076 2.38358 6.91559 2 8.00001 2C10.4853 2 12.5 4.01472 12.5 6.5V8.9014L13.4643 11.3145C13.4701 11.3288 13.4751 11.3434 13.4795 11.3581L11.6896 9.56827Z"/></svg>