<svg width="16" height="16" viewBox="0 0 16 16" fill="none" xmlns="http://www.w3.org/2000/svg">
<path fill-rule="evenodd" clip-rule="evenodd" d="M13 8.9C13.1 9.5 13.2 10 13.4 10.6L14 12.3L13.5 13H10C10 13.5 9.8 14 9.4 14.4C9 14.8 8.5 15 8 15C7.5 15 6.9 14.8 6.6 14.4C6.2 14 6 13.5 6 13H2.5L2 12.3L2.6 10.6C2.8 9.8 3 9 3 8.2V6C3 5.3 3.1 4.6 3.4 4C3.7 3.3 4.1 2.8 4.6 2.3C5.1 1.8 5.7 1.5 6.4 1.3C6.9 1.1 7.5 1 8 1C7.8 1.3 7.6 1.7 7.4 2.1C7.2 2.1 7 2.1 6.7 2.3C6.2 2.4 5.7 2.7 5.3 3.1C4.9 3.4 4.5 3.9 4.3 4.4C4.1 4.9 4 5.4 4 6V8.2C4 9.1 3.8 10 3.6 10.9L3.2 12H12.8L12.4 10.9C12.2246 10.3739 12.1261 9.77084 12.0371 9.22577C12.0246 9.14925 12.0123 9.07387 12 9C12.4 9 12.7 9 13 8.9ZM8 14C8.2 14 8.5 13.9 8.7 13.7C8.9 13.5 9 13.3 9 13H7C7 13.3 7.1 13.5 7.3 13.7C7.5 13.9 7.8 14 8 14ZM14.0792 5.38869L14.4947 5.66685C14.8139 5.19011 15 4.61679 15 4C15 3.38321 14.8139 2.80989 14.4947 2.33315L14.0792 2.61131L13.6637 2.88947C13.8761 3.20674 14 3.58739 14 4C14 4.41261 13.8761 4.79326 13.6637 5.11053L14.0792 5.38869ZM13.3887 1.92079L13.6668 1.5053C13.1901 1.18614 12.6168 1 12 1C11.3832 1 10.8099 1.18614 10.3332 1.5053L10.6113 1.92079L10.8895 2.33627C11.2067 2.12387 11.5874 2 12 2C12.4126 2 12.7933 2.12387 13.1105 2.33627L13.3887 1.92079ZM9 4C9 3.38321 9.18614 2.80989 9.5053 2.33315L9.92079 2.61131L10.3363 2.88947C10.1239 3.20674 10 3.58739 10 4C10 4.41261 10.1239 4.79326 10.3363 5.11053L9.92079 5.38869L9.5053 5.66685C9.18614 5.19011 9 4.61679 9 4ZM10.6113 6.07921L10.3332 6.4947C10.8099 6.81386 11.3832 7 12 7C12.6168 7 13.1901 6.81386 13.6668 6.4947L13.3887 6.07921L13.1105 5.66373C12.7933 5.87613 12.4126 6 12 6C11.5874 6 11.2067 5.87613 10.8895 5.66373L10.6113 6.07921Z" fill="#C5C5C5"/>
</svg>
