<svg width="16" height="16" viewBox="0 0 16 16" xmlns="http://www.w3.org/2000/svg" fill="currentColor"><path d="M12 7.00001C13.6568 7.00001 15 5.65686 15 4.00001C15 2.34315 13.6568 1.00001 12 1.00001C10.3431 1.00001 8.99998 2.34315 8.99998 4.00001C8.99998 5.65686 10.3431 7.00001 12 7.00001Z"/><path d="M7.99998 3.00001C8.04698 3.00001 8.09098 3.01201 8.13798 3.01401C8.22498 2.67301 8.35898 2.35301 8.52798 2.05301C8.35298 2.03201 8.18098 2.00001 8.00098 2.00001C6.91698 2.00001 5.92198 2.38401 5.14498 3.02201L5.85598 3.73301C6.44798 3.27301 7.19298 2.99901 8.00098 2.99901L7.99998 3.00001Z"/><path d="M1.85398 1.14601C1.65898 0.951006 1.34198 0.951006 1.14698 1.14601C0.951982 1.34101 0.951982 1.65801 1.14698 1.85301L3.91198 4.61801C3.64798 5.19101 3.50098 5.82801 3.50098 6.50001V8.90101L2.53698 11.314C2.47498 11.468 2.49398 11.642 2.58698 11.78C2.67998 11.917 2.83498 12 3.00098 12H6.00098C6.00098 13.108 6.89298 14 8.00098 14C9.10898 14 10.001 13.108 10.001 12H11.294L14.148 14.854C14.343 15.049 14.66 15.049 14.855 14.854C15.05 14.659 15.05 14.342 14.855 14.147L1.85398 1.14601ZM7.99998 13C7.44398 13 6.99998 12.556 6.99998 12H8.99998C8.99998 12.556 8.55598 13 7.99998 13ZM3.73798 11L4.46398 9.18301C4.48798 9.12401 4.49998 9.06101 4.49998 8.99701V6.49901C4.49998 6.11001 4.56298 5.73601 4.67998 5.38701L10.292 10.999H3.73798V11Z"/><path d="M12 8.00001C11.829 8.00001 11.666 7.97001 11.5 7.94901V8.99701C11.5 9.06101 11.512 9.12401 11.536 9.18301L11.69 9.56801L13.48 11.358C13.476 11.343 13.471 11.329 13.465 11.314L12.501 8.90101V7.94901C12.335 7.97001 12.172 8.00001 12.001 8.00001H12Z"/></svg>