<svg width="18" height="18" viewBox="0 0 18 18" xmlns="http://www.w3.org/2000/svg" fill="currentColor"><path d="M14.964 13.315L14 10.902V7.00101C14 4.24401 11.757 2.00101 9 2.00101C6.243 2.00101 4 4.24301 4 7.00001V10.901L3.036 13.314C2.974 13.468 2.993 13.642 3.086 13.78C3.179 13.917 3.334 14 3.5 14H6.99999C6.99999 15.108 7.892 16 9 16C10.108 16 11 15.108 11 14H14.5C14.666 14 14.821 13.918 14.914 13.78C15.007 13.643 15.026 13.469 14.964 13.315ZM9 15C8.444 15 8 14.556 8 14H10C10 14.556 9.55599 15 9 15ZM4.238 13L4.964 11.183C4.988 11.124 5 11.061 5 10.997V6.99901C5 4.79301 6.794 2.99901 9 2.99901C11.206 2.99901 13 4.79301 13 6.99901V10.997C13 11.061 13.012 11.124 13.036 11.183L13.762 13H4.238Z"/></svg>