<svg width="18" height="18" viewBox="0 0 18 18" xmlns="http://www.w3.org/2000/svg" fill="currentColor"><path d="M14 10.901V8.87299C13.68 8.95599 13.345 8.99899 13 8.99899V10.997C13 11.061 13.012 11.124 13.036 11.183L13.762 13H4.238L4.964 11.183C4.988 11.124 5 11.061 5 10.997V6.99899C5 4.79299 6.794 2.99899 9 2.99899C9.175 2.99899 9.34799 3.00999 9.51799 3.03199C9.70299 2.70499 9.934 2.40599 10.2 2.14499C9.81499 2.04999 9.413 1.99899 9 1.99899C6.243 1.99899 4 4.24199 4 6.99899V10.9L3.036 13.313C2.974 13.467 2.993 13.641 3.086 13.779C3.179 13.916 3.334 13.999 3.5 13.999H6.99999C6.99999 15.107 7.892 15.999 9 15.999C10.108 15.999 11 15.107 11 13.999H14.5C14.666 13.999 14.821 13.917 14.914 13.779C15.007 13.642 15.026 13.467 14.964 13.313L14 10.9V10.901ZM9 15C8.444 15 8 14.556 8 14H10C10 14.556 9.55599 15 9 15ZM16 4.99999C16 6.65699 14.657 7.99999 13 7.99999C11.343 7.99999 10 6.65699 10 4.99999C10 3.34299 11.343 1.99999 13 1.99999C14.657 1.99999 16 3.34299 16 4.99999Z"/></svg>