<svg width="16" height="16" viewBox="0 0 16 16" fill="none" xmlns="http://www.w3.org/2000/svg">
<path fill-rule="evenodd" clip-rule="evenodd" d="M13 8.9C13.1 9.5 13.2 10 13.4 10.6L14 12.3L13.5 13H10C10 13.5 9.8 14 9.4 14.4C9 14.8 8.5 15 8 15C7.5 15 6.9 14.8 6.6 14.4C6.2 14 6 13.5 6 13H2.5L2 12.3L2.6 10.6C2.8 9.8 3 9 3 8.2V6C3 5.3 3.1 4.6 3.4 4C3.7 3.3 4.1 2.8 4.6 2.3C5.1 1.8 5.7 1.5 6.4 1.3C6.9 1.1 7.5 1 8 1C7.8 1.3 7.6 1.7 7.4 2.1C7.2 2.1 7 2.1 6.7 2.3C6.2 2.4 5.7 2.7 5.3 3.1C4.9 3.4 4.5 3.9 4.3 4.4C4.1 4.9 4 5.4 4 6V8.2C4 9.1 3.8 10 3.6 10.9L3.2 12H12.8L12.4 10.9C12.2246 10.3739 12.1261 9.77084 12.0371 9.22577C12.0246 9.14925 12.0123 9.07387 12 9C12.4 9 12.7 9 13 8.9ZM8 14C8.2 14 8.5 13.9 8.7 13.7C8.9 13.5 9 13.3 9 13H7C7 13.3 7.1 13.5 7.3 13.7C7.5 13.9 7.8 14 8 14ZM15 4C15 5.65685 13.6569 7 12 7C10.3431 7 9 5.65685 9 4C9 2.34315 10.3431 1 12 1C13.6569 1 15 2.34315 15 4Z" fill="#C5C5C5"/>
</svg>
