<svg width="16" height="16" viewBox="0 0 16 16" fill="none" xmlns="http://www.w3.org/2000/svg">
<path d="M13.3772 10.5735C13.126 9.80788 12.9944 9.00633 12.9944 8.19282V6.19493C13.0063 4.92681 12.5637 3.69457 11.7263 2.74946C10.8888 1.79239 9.74033 1.18226 8.48417 1.02673C7.79029 0.954953 7.08445 1.02673 6.4145 1.25404C5.74455 1.46938 5.13441 1.82828 4.61999 2.30682C4.10556 2.77339 3.68684 3.34764 3.41168 3.9817C3.13652 4.61576 2.981 5.29767 2.981 6.00351V8.20478C2.981 9.00633 2.8494 9.80788 2.59817 10.5735L2 12.3441L2.47854 13.0021H5.98382C5.98382 13.5285 6.19916 14.0429 6.57002 14.4138C6.94089 14.7847 7.45532 15 7.98171 15C8.5081 15 9.02252 14.7847 9.39339 14.4138C9.76425 14.0429 9.9796 13.5285 9.9796 13.0021H13.4849L13.9634 12.3441L13.3772 10.5735ZM8.68755 13.7199C8.49613 13.9113 8.2449 14.019 7.98171 14.019C7.71851 14.019 7.46728 13.9113 7.27586 13.7199C7.08445 13.5285 6.97678 13.2773 6.97678 13.0141H8.97467C8.98663 13.2773 8.87896 13.5285 8.68755 13.7199ZM3.17241 12.0091L3.54328 10.8965C3.8304 10.0232 3.98593 9.114 3.98593 8.20478V6.00351C3.98593 5.44123 4.10556 4.89092 4.33287 4.38845C4.56017 3.87403 4.88318 3.41942 5.3019 3.04855C5.72062 2.66572 6.21112 2.3786 6.73751 2.21111C7.27586 2.03166 7.83815 1.97184 8.38846 2.03166C9.39339 2.16326 10.3265 2.66572 10.9845 3.43138C11.6545 4.19704 12.0014 5.19 11.9894 6.20689V8.21675C11.9894 9.12596 12.133 10.0352 12.4321 10.9085L12.803 12.0211H3.17241V12.0091Z" fill="#C5C5C5"/>
</svg>
