<svg width="16" height="16" viewBox="0 0 16 16" fill="none" xmlns="http://www.w3.org/2000/svg">
<path d="M5 13V3H8.36226C9.4783 3 10.3165 3.22436 10.8769 3.67308C11.442 4.12179 11.7245 4.78571 11.7245 5.66484C11.7245 6.13187 11.588 6.54625 11.3148 6.90797C11.0417 7.26511 10.6697 7.54212 10.1988 7.73901C10.7545 7.89011 11.1924 8.17857 11.5126 8.6044C11.8375 9.02564 12 9.5293 12 10.1154C12 11.0128 11.701 11.7179 11.1029 12.2308C10.5049 12.7436 9.6596 13 8.5671 13H5ZM6.35621 8.3228V11.9217H8.59536C9.22637 11.9217 9.72318 11.7637 10.0858 11.4478C10.4531 11.1273 10.6367 10.6877 10.6367 10.1291C10.6367 8.92491 9.96334 8.3228 8.61655 8.3228H6.35621ZM6.35621 7.26511H8.40464C8.99798 7.26511 9.47124 7.12088 9.82442 6.83242C10.1823 6.54396 10.3613 6.15247 10.3613 5.65797C10.3613 5.10852 10.1964 4.71016 9.8668 4.46291C9.53717 4.21108 9.03565 4.08516 8.36226 4.08516H6.35621V7.26511Z" fill="white"/>
</svg>
