<svg width="18" height="18" viewBox="0 0 18 18" xmlns="http://www.w3.org/2000/svg" fill="currentColor"><path d="M11.5 3.5C11.5 3.224 11.724 3 12 3C13.105 3 14 3.895 14 5V7.005C14 7.535 14.008 7.799 14.089 8.002C14.152 8.158 14.284 8.333 14.723 8.553C14.892 8.638 14.999 8.811 14.999 9C14.999 9.189 14.892 9.363 14.723 9.447C14.284 9.667 14.151 9.841 14.089 9.998C14.072 10.041 14.058 10.088 14.046 10.139C13.729 10.053 13.397 10.005 13.055 10.001C13.079 9.872 13.112 9.747 13.16 9.627C13.257 9.384 13.403 9.18 13.598 9C13.402 8.821 13.257 8.616 13.16 8.374C12.998 7.971 12.999 7.51 12.999 7.063V5C12.999 4.448 12.551 4 11.999 4C11.723 4 11.499 3.776 11.499 3.5H11.5ZM4.83898 8.374C5.00098 7.971 4.99998 7.51 4.99998 7.063V5C4.99998 4.448 5.44798 4 5.99998 4C6.27598 4 6.49998 3.776 6.49998 3.5C6.49998 3.224 6.27598 3 5.99998 3C4.89498 3 3.99998 3.895 3.99998 5V7.005C3.99998 7.535 3.99198 7.799 3.91098 8.002C3.84798 8.158 3.71598 8.333 3.27698 8.553C3.10798 8.638 3.00098 8.811 3.00098 9C3.00098 9.189 3.10798 9.363 3.27698 9.447C3.71598 9.667 3.84898 9.841 3.91098 9.998C3.99298 10.202 3.99998 10.467 3.99998 11V13C3.99998 14.105 4.89498 15 5.99998 15C6.27598 15 6.49998 14.776 6.49998 14.5C6.49998 14.224 6.27598 14 5.99998 14C5.44798 14 4.99998 13.552 4.99998 13V10.941C4.99998 10.492 4.99998 10.03 4.83898 9.626C4.74198 9.383 4.59598 9.179 4.39998 8.999C4.59598 8.82 4.74098 8.615 4.83798 8.373L4.83898 8.374ZM13 11C11.343 11 9.99998 12.343 9.99998 14C9.99998 15.657 11.343 17 13 17C14.657 17 16 15.657 16 14C16 12.343 14.657 11 13 11Z"/></svg>