<svg width="18" height="18" viewBox="0 0 18 18" xmlns="http://www.w3.org/2000/svg" fill="currentColor"><path d="M13 11C11.343 11 9.99995 12.343 9.99995 14C9.99995 15.657 11.343 17 13 17C14.657 17 16 15.657 16 14C16 12.343 14.657 11 13 11ZM14.479 14.771C14.674 14.966 14.674 15.283 14.479 15.478C14.381 15.576 14.253 15.624 14.125 15.624C13.997 15.624 13.869 15.575 13.771 15.478L13 14.707L12.229 15.478C12.131 15.576 12.003 15.624 11.875 15.624C11.747 15.624 11.619 15.575 11.521 15.478C11.326 15.283 11.326 14.966 11.521 14.771L12.292 14L11.521 13.229C11.326 13.034 11.326 12.717 11.521 12.522C11.716 12.327 12.033 12.327 12.228 12.522L12.999 13.293L13.77 12.522C13.965 12.327 14.282 12.327 14.477 12.522C14.672 12.717 14.672 13.034 14.477 13.229L13.706 14L14.477 14.771H14.479ZM11.5 3.5C11.5 3.224 11.724 3 12 3C13.105 3 14 3.895 14 5V7.005C14 7.535 14.008 7.799 14.089 8.002C14.152 8.158 14.284 8.333 14.723 8.553C14.892 8.638 14.999 8.811 14.999 9C14.999 9.189 14.892 9.363 14.723 9.447C14.284 9.667 14.151 9.841 14.089 9.998C14.072 10.041 14.058 10.088 14.046 10.139C13.729 10.053 13.397 10.005 13.055 10.001C13.079 9.872 13.112 9.747 13.16 9.627C13.257 9.384 13.403 9.18 13.598 9C13.402 8.821 13.257 8.616 13.16 8.374C12.998 7.971 12.999 7.51 12.999 7.063V5C12.999 4.448 12.551 4 11.999 4C11.723 4 11.5 3.776 11.5 3.5ZM4.40095 9C4.59695 9.18 4.74195 9.384 4.83995 9.627C5.00095 10.031 5.00095 10.493 5.00095 10.942V13.001C5.00095 13.553 5.44895 14.001 6.00095 14.001C6.27695 14.001 6.50095 14.225 6.50095 14.501C6.50095 14.777 6.27695 15.001 6.00095 15.001C4.89595 15.001 4.00095 14.106 4.00095 13.001V11.001C4.00095 10.468 3.99295 10.203 3.91195 9.999C3.84895 9.842 3.71695 9.668 3.27795 9.448C3.10895 9.363 3.00195 9.19 3.00195 9.001C3.00195 8.812 3.10895 8.639 3.27795 8.554C3.71695 8.334 3.84995 8.16 3.91195 8.003C3.99295 7.8 4.00095 7.536 4.00095 7.006V5.001C4.00095 3.896 4.89595 3.001 6.00095 3.001C6.27695 3.001 6.50095 3.225 6.50095 3.501C6.50095 3.777 6.27695 4.001 6.00095 4.001C5.44895 4.001 5.00095 4.449 5.00095 5.001V7.064C5.00095 7.511 5.00095 7.972 4.83995 8.375C4.74295 8.617 4.59695 8.821 4.40195 9.001L4.40095 9Z"/></svg>