<svg width="16" height="16" viewBox="0 0 16 16" xmlns="http://www.w3.org/2000/svg" fill="currentColor"><path d="M8.457 6.92204C8.173 6.51804 8 6.03104 8 5.50004C8 4.12104 9.121 3.00004 10.5 3.00004C11.879 3.00004 13 4.12104 13 5.50004C13 5.73904 12.957 5.96704 12.894 6.18604C12.573 6.10204 12.242 6.04504 11.901 6.02004C11.962 5.85704 11.999 5.68304 11.999 5.50004C11.999 4.67304 11.326 4.00004 10.499 4.00004C9.672 4.00004 8.999 4.67304 8.999 5.50004C8.999 5.85904 9.131 6.18404 9.341 6.44204C9.03 6.57504 8.734 6.73704 8.456 6.92204H8.457ZM5.5 9.00004H6.607C6.444 9.31704 6.312 9.65104 6.213 10H5.5C4.823 10 4.256 10.454 4.07 11.072C5.174 11.331 6 12.318 6 13.5C6 14.879 4.879 16 3.5 16C2.121 16 1 14.879 1 13.5C1 12.292 1.86 11.283 3 11.051V4.95004C1.86 4.71804 1 3.70804 1 2.50104C1 1.12204 2.121 0.0010376 3.5 0.0010376C4.879 0.0010376 6 1.12204 6 2.50104C6 3.70904 5.14 4.71804 4 4.95004V9.51304C4.419 9.19604 4.935 9.00004 5.5 9.00004ZM3.5 4.00004C4.327 4.00004 5 3.32704 5 2.50004C5 1.67304 4.327 1.00004 3.5 1.00004C2.673 1.00004 2 1.67304 2 2.50004C2 3.32704 2.673 4.00004 3.5 4.00004ZM3.5 12C2.673 12 2 12.673 2 13.5C2 14.327 2.673 15 3.5 15C4.327 15 5 14.327 5 13.5C5 12.673 4.327 12 3.5 12ZM16 11.5C16 13.985 13.985 16 11.5 16C9.015 16 7 13.985 7 11.5C7 9.01504 9.015 7.00004 11.5 7.00004C13.985 7.00004 16 9.01504 16 11.5ZM14 11.5C14 11.224 13.776 11 13.5 11H12V9.50004C12 9.22404 11.776 9.00004 11.5 9.00004C11.224 9.00004 11 9.22404 11 9.50004V11H9.5C9.224 11 9 11.224 9 11.5C9 11.776 9.224 12 9.5 12H11V13.5C11 13.776 11.224 14 11.5 14C11.776 14 12 13.776 12 13.5V12H13.5C13.776 12 14 11.776 14 11.5Z"/></svg>