<svg width="18" height="18" viewBox="0 0 18 18" xmlns="http://www.w3.org/2000/svg" fill="currentColor"><path d="M6 5V3.5C6 2.67157 6.67157 2 7.5 2H10.5C11.3284 2 12 2.67157 12 3.5V5H14C15.1046 5 16 5.89543 16 7V14C16 15.1046 15.1046 16 14 16H4C2.89543 16 2 15.1046 2 14V7C2 5.89543 2.89543 5 4 5H6ZM7 3.5V5H11V3.5C11 3.22386 10.7761 3 10.5 3H7.5C7.22386 3 7 3.22386 7 3.5ZM3 10.5002V14C3 14.5523 3.44772 15 4 15H14C14.5523 15 15 14.5523 15 14V10.5002C14.5822 10.814 14.0628 11 13.5 11H10V11.5C10 11.7761 9.77614 12 9.5 12H8.5C8.22386 12 8 11.7761 8 11.5V11H4.5C3.9372 11 3.41783 10.814 3 10.5002ZM8 10V9.5C8 9.22386 8.22386 9 8.5 9H9.5C9.77614 9 10 9.22386 10 9.5V10H13.5C14.3284 10 15 9.32843 15 8.5V7C15 6.44772 14.5523 6 14 6H4C3.44772 6 3 6.44772 3 7V8.5C3 9.32843 3.67157 10 4.5 10H8Z"/></svg>