<svg width="16" height="16" viewBox="0 0 16 16" fill="none" xmlns="http://www.w3.org/2000/svg">
<path d="M4.66658 2.01118C5.65328 1.35189 6.81331 1 8 1C9.59075 1.00178 11.1158 1.63449 12.2407 2.75932C13.3655 3.88416 13.9982 5.40925 14 7C14 8.18669 13.6481 9.34672 12.9888 10.3334C12.3295 11.3201 11.3925 12.0891 10.2961 12.5433C10.1995 12.5833 10.102 12.6207 10.0037 12.6555V12.6109C10.0195 12.5965 10.035 12.5816 10.0502 12.5664C10.3278 12.2888 10.4837 11.9124 10.4837 11.5199V11.3831C10.8751 11.1611 11.2384 10.8859 11.5621 10.5621C12.507 9.61728 13.0385 8.33622 13.04 7C13.04 6.00318 12.7444 5.02875 12.1906 4.19993C11.6368 3.3711 10.8497 2.72511 9.92873 2.34365C9.00779 1.96218 7.99441 1.86237 7.01675 2.05684C6.03908 2.25131 5.14104 2.73132 4.43618 3.43618C3.73133 4.14104 3.25131 5.03908 3.05684 6.01674C2.86238 6.99441 2.96218 8.00778 3.34365 8.92872C3.72512 9.84966 4.3711 10.6368 5.19993 11.1906C5.29798 11.2561 5.39807 11.318 5.5 11.3763V11.5199C5.5 11.9124 5.65592 12.2888 5.93348 12.5664C5.94869 12.5816 5.9642 12.5965 5.98 12.6109V12.6497C5.14757 12.3521 4.3876 11.8729 3.75736 11.2426C2.91825 10.4035 2.3468 9.33443 2.11529 8.17054C1.88378 7.00665 2.0026 5.80025 2.45673 4.7039C2.91085 3.60754 3.67989 2.67047 4.66658 2.01118Z" fill="white"/>
<path d="M9.34313 11.8593C9.25311 11.9493 9.13102 11.9999 9.00372 11.9999V14.5199C9.00372 14.6472 8.95315 14.7693 8.86313 14.8593C8.77311 14.9493 8.65102 14.9999 8.52372 14.9999H7.46C7.47148 14.9999 7.4559 14.9957 7.42571 14.9877C7.35052 14.9676 7.1848 14.9235 7.12059 14.8593C7.03057 14.7693 6.98 14.6472 6.98 14.5199V11.9999C6.8527 11.9999 6.73061 11.9493 6.64059 11.8593C6.63782 11.8565 6.6351 11.8537 6.63241 11.8509C6.54752 11.7618 6.5 11.6433 6.5 11.5199V9.5C6.5 9.3965 6.51572 9.29667 6.54491 9.20278C6.67148 8.79563 7.05121 8.5 7.5 8.5H8.48372C8.93548 8.5 9.31728 8.79957 9.44129 9.2109C9.46888 9.30242 9.48372 9.39948 9.48372 9.5V11.5199C9.48372 11.6453 9.43463 11.7657 9.34709 11.8553L9.34313 11.8593Z" fill="white"/>
<path d="M10.64 6.99995C10.6396 7.52524 10.4828 8.03431 10.1953 8.46487C10.3784 8.76684 10.4837 9.12111 10.4837 9.5V9.60589C10.6744 9.42419 10.8454 9.22121 10.9932 9C11.3888 8.40799 11.6 7.71196 11.6 6.99995C11.5987 6.04556 11.219 5.13063 10.5441 4.45577C9.86928 3.78091 8.95434 3.40122 7.99995 3.39995C7.28794 3.39995 6.59192 3.61109 5.9999 4.00666C5.40788 4.40223 4.94646 4.96448 4.67399 5.62229C4.40151 6.2801 4.33022 7.00394 4.46913 7.70228C4.60803 8.40061 4.9509 9.04207 5.45437 9.54554C5.46946 9.56062 5.48467 9.57557 5.5 9.59036V9.5C5.5 9.11608 5.60818 8.75742 5.79571 8.45285C5.70402 8.31375 5.62528 8.16563 5.56091 8.01024C5.3611 7.52784 5.30882 6.99702 5.41068 6.48491C5.51255 5.9728 5.76398 5.5024 6.13319 5.13319C6.5024 4.76398 6.9728 4.51254 7.48491 4.41068C7.99702 4.30881 8.52784 4.36109 9.01024 4.56091C9.49263 4.76072 9.90494 5.0991 10.195 5.53325C10.4851 5.96739 10.64 6.47781 10.64 6.99995Z" fill="white"/>
<path d="M9 7C9 7.55228 8.55229 8 8 8C7.44772 8 7 7.55228 7 7C7 6.44772 7.44772 6 8 6C8.55229 6 9 6.44772 9 7Z" fill="white"/>
</svg>
