<svg width="16" height="16" viewBox="0 0 16 16" xmlns="http://www.w3.org/2000/svg" fill="currentColor"><path d="M14.5 8H13V6C13 5.63 12.898 5.283 12.722 4.985L13.853 3.854C14.048 3.659 14.048 3.342 13.853 3.147C13.658 2.952 13.341 2.952 13.146 3.147L12.015 4.278C11.717 4.102 11.37 4 11 4C11 2.346 9.654 1 8 1C6.346 1 5 2.346 5 4C4.63 4 4.283 4.102 3.985 4.278L2.854 3.147C2.659 2.952 2.342 2.952 2.147 3.147C1.952 3.342 1.952 3.659 2.147 3.854L3.278 4.985C3.102 5.283 3 5.63 3 6V8H1.5C1.224 8 1 8.224 1 8.5C1 8.776 1.224 9 1.5 9H3C3 10.199 3.424 11.3 4.13 12.163L2.396 13.897C2.201 14.092 2.201 14.409 2.396 14.604C2.494 14.702 2.622 14.75 2.75 14.75C2.878 14.75 3.006 14.701 3.104 14.604L4.838 12.87C5.7 13.576 6.802 14 8.001 14C9.2 14 10.301 13.576 11.164 12.87L12.898 14.604C12.996 14.702 13.124 14.75 13.252 14.75C13.38 14.75 13.508 14.701 13.606 14.604C13.801 14.409 13.801 14.092 13.606 13.897L11.872 12.163C12.578 11.301 13.002 10.199 13.002 9H14.502C14.778 9 15.002 8.776 15.002 8.5C15.002 8.224 14.778 8 14.502 8H14.5ZM8 2C9.103 2 10 2.897 10 4H6C6 2.897 6.897 2 8 2ZM12 9C12 11.206 10.206 13 8 13C5.794 13 4 11.206 4 9V6C4 5.449 4.448 5 5 5H11C11.552 5 12 5.449 12 6V9Z"/></svg>