<svg width="18" height="18" viewBox="0 0 18 18" xmlns="http://www.w3.org/2000/svg" fill="currentColor"><path d="M9.354 6.854L11.354 4.854C11.549 4.659 11.549 4.342 11.354 4.147C11.256 4.05 11.128 4.001 11 4.001C10.872 4.001 10.744 4.049 10.646 4.147L9.5 5.293V1.5C9.5 1.224 9.276 1 9 1C8.724 1 8.5 1.224 8.5 1.5V5.293L7.354 4.147C7.159 3.952 6.842 3.952 6.647 4.147C6.452 4.342 6.452 4.659 6.647 4.854L8.647 6.854C8.842 7.049 9.159 7.049 9.354 6.854Z"/><path d="M16 13.5C16 14.879 14.879 16 13.5 16H4.5C3.121 16 2 14.879 2 13.5V7.49999C2 7.22399 2.224 6.99999 2.5 6.99999C2.776 6.99999 3 7.22399 3 7.49999V13.5C3 14.327 3.673 15 4.5 15H13.5C14.327 15 15 14.327 15 13.5V7.49999C15 7.22399 15.224 6.99999 15.5 6.99999C15.776 6.99999 16 7.22399 16 7.49999V13.5Z"/><path d="M5 11C5.55228 11 6 10.5523 6 9.99999C6 9.44771 5.55228 8.99999 5 8.99999C4.44772 8.99999 4 9.44771 4 9.99999C4 10.5523 4.44772 11 5 11Z"/><path d="M9 11C9.55228 11 10 10.5523 10 9.99999C10 9.44771 9.55228 8.99999 9 8.99999C8.44772 8.99999 8 9.44771 8 9.99999C8 10.5523 8.44772 11 9 11Z"/><path d="M7 14C7.55228 14 8 13.5523 8 13C8 12.4477 7.55228 12 7 12C6.44772 12 6 12.4477 6 13C6 13.5523 6.44772 14 7 14Z"/><path d="M11 14C11.5523 14 12 13.5523 12 13C12 12.4477 11.5523 12 11 12C10.4477 12 10 12.4477 10 13C10 13.5523 10.4477 14 11 14Z"/><path d="M13 11C13.5523 11 14 10.5523 14 9.99999C14 9.44771 13.5523 8.99999 13 8.99999C12.4477 8.99999 12 9.44771 12 9.99999C12 10.5523 12.4477 11 13 11Z"/></svg>