<svg width="18" height="18" viewBox="0 0 18 18" xmlns="http://www.w3.org/2000/svg" fill="currentColor"><path d="M13 2H5C3.343 2 2 3.343 2 5V13C2 14.657 3.343 16 5 16H13C14.657 16 16 14.657 16 13V5C16 3.343 14.657 2 13 2ZM15 13C15 14.105 14.105 15 13 15H5C3.895 15 3 14.105 3 13V6H15V13ZM3 5C3 3.895 3.895 3 5 3H13C14.105 3 15 3.895 15 5H3ZM5 12C5 11.448 5.448 11 6 11C6.552 11 7 11.448 7 12C7 12.552 6.552 13 6 13C5.448 13 5 12.552 5 12ZM8 12C8 11.448 8.448 11 9 11C9.552 11 10 11.448 10 12C10 12.552 9.552 13 9 13C8.448 13 8 12.552 8 12ZM5 9C5 8.448 5.448 8 6 8C6.552 8 7 8.448 7 9C7 9.552 6.552 10 6 10C5.448 10 5 9.552 5 9ZM8 9C8 8.448 8.448 8 9 8C9.552 8 10 8.448 10 9C10 9.552 9.552 10 9 10C8.448 10 8 9.552 8 9ZM11 9C11 8.448 11.448 8 12 8C12.552 8 13 8.448 13 9C13 9.552 12.552 10 12 10C11.448 10 11 9.552 11 9Z"/></svg>