<svg width="16" height="16" viewBox="0 0 16 16" xmlns="http://www.w3.org/2000/svg" fill="currentColor"><path d="M9.18652 11.7021H7.78467L7.0918 9.7417H4.0625L3.39648 11.7021H2L4.88428 4H6.32373L9.18652 11.7021ZM6.75342 8.69971L5.68457 5.62744C5.65234 5.52718 5.61833 5.36605 5.58252 5.14404H5.56104C5.52881 5.34814 5.493 5.50928 5.45361 5.62744L4.39551 8.69971H6.75342Z"/><path d="M14.277 11.7021H13.0685V10.8428H13.0471C12.6675 11.5016 12.1107 11.8311 11.3766 11.8311C10.836 11.8311 10.4116 11.6842 10.1037 11.3906C9.79933 11.097 9.64715 10.7085 9.64715 10.2251C9.64715 9.18669 10.2451 8.58154 11.4411 8.40967L13.0739 8.17871C13.0739 7.39453 12.7015 7.00244 11.9567 7.00244C11.3014 7.00244 10.7106 7.22803 10.1843 7.6792V6.58887C10.7643 6.24512 11.4339 6.07324 12.193 6.07324C13.5824 6.07324 14.277 6.75716 14.277 8.125V11.7021ZM13.0739 9.00049L11.9191 9.16162C11.561 9.20817 11.2907 9.2959 11.1081 9.4248C10.929 9.55013 10.8395 9.77214 10.8395 10.0908C10.8395 10.3236 10.9219 10.5151 11.0866 10.6655C11.2549 10.8123 11.4787 10.8857 11.758 10.8857C12.1375 10.8857 12.4509 10.7533 12.6979 10.4883C12.9486 10.2197 13.0739 9.88314 13.0739 9.47852V9.00049Z"/></svg>