<svg width="18" height="18" viewBox="0 0 18 18" xmlns="http://www.w3.org/2000/svg" fill="currentColor"><path d="M6.97099 5.33201C6.82899 4.93401 6.17099 4.93401 6.02999 5.33201L3.52999 12.332C3.43699 12.592 3.57199 12.878 3.83299 12.971C4.09099 13.064 4.37899 12.928 4.47199 12.668L5.06799 11H7.93499L8.53099 12.668C8.60399 12.873 8.79599 13 9.00199 13C9.05799 13 9.11499 12.991 9.16999 12.971C9.42999 12.878 9.56599 12.592 9.47299 12.332L6.97299 5.33201H6.97099ZM5.42399 10L6.49999 6.98701L7.57599 10H5.42399ZM12.75 7.00001C11.906 7.00001 11.338 7.27201 11.276 7.30301C11.03 7.42601 10.931 7.72301 11.052 7.97001C11.174 8.21801 11.475 8.31901 11.719 8.19901C11.723 8.19701 12.138 8.00001 12.749 8.00001C13.216 8.00001 13.999 8.13001 13.999 9.00001V9.12601C13.676 9.04401 13.336 9.00001 12.999 9.00001C11.55 9.00001 10.499 9.84101 10.499 11C10.499 11.967 11.09 13 12.749 13C13.14 13 13.568 12.887 14.028 12.665C14.096 12.86 14.281 13 14.499 13C14.775 13 14.999 12.776 14.999 12.5V9.00001C14.999 7.78501 14.116 7.00001 12.749 7.00001H12.75ZM14 11.54C13.519 11.838 13.082 12 12.75 12C11.92 12 11.5 11.664 11.5 11C11.5 10.411 12.117 10 13 10C13.345 10 13.691 10.06 14 10.17V11.54Z"/></svg>