<svg width="16" height="16" viewBox="0 0 16 16" xmlns="http://www.w3.org/2000/svg" fill="currentColor"><path fill-rule="evenodd" clip-rule="evenodd" d="M4.02602 3.34176C4.16218 2.93404 4.83818 2.93398 4.97426 3.34176L6.97426 9.34274C6.97526 9.34674 6.97817 9.35544 6.97817 9.35544L7.97426 12.3427C8.06126 12.6047 7.91984 12.8875 7.65786 12.9756C7.60486 12.9926 7.55165 13.0009 7.49965 13.0009C7.29082 13.0008 7.09602 12.868 7.02602 12.6591L6.14028 10.0009H2.86L1.97426 12.6591C1.88728 12.919 1.60634 13.0634 1.34243 12.9746C1.08043 12.8866 0.93902 12.6038 1.02602 12.3418L2.02211 9.35544C2.02311 9.35144 2.02602 9.34274 2.02602 9.34274L4.02602 3.34176ZM3.19399 8.99997H5.80629L4.49965 5.08102L3.19399 8.99997Z"/><path fill-rule="evenodd" clip-rule="evenodd" d="M11.8581 6.66794C13.165 6.73296 13.9427 7.48427 13.9967 8.69626L13.9997 8.83297V12.5078C13.9957 12.7568 13.809 12.9621 13.568 12.9951L13.4997 13C13.2469 12.9998 13.0376 12.8121 13.0045 12.5683L12.9997 12.5V12.4297C12.3407 12.8066 11.7316 13 11.1666 13C9.94081 12.9998 8.99965 12.1369 8.99965 10.833C8.99967 9.68299 9.79211 8.82889 11.1061 8.66989C11.7279 8.59493 12.3589 8.64164 12.9987 8.80954C12.9915 8.07194 12.6279 7.70704 11.8082 7.66598C11.1672 7.63398 10.7158 7.72415 10.4518 7.90915C10.2258 8.06799 9.91347 8.01301 9.75551 7.78708C9.59671 7.56115 9.65178 7.24878 9.87758 7.09079C10.3165 6.78283 10.9138 6.64715 11.6666 6.6611L11.8581 6.66794ZM12.7965 9.8154C12.2587 9.66749 11.7361 9.62551 11.2262 9.68747C10.4042 9.78747 9.99868 10.2244 9.99868 10.8574C9.99884 11.5881 10.474 12.0242 11.1657 12.0244C11.6196 12.0244 12.1777 11.8137 12.8336 11.3818L12.9987 11.2695V9.87594L12.7965 9.8154Z"/></svg>