<svg width="16" height="16" viewBox="0 0 16 16" xmlns="http://www.w3.org/2000/svg" fill="currentColor"><path d="M13.997 8.69601C13.943 7.48401 13.165 6.73301 11.858 6.66801L11.667 6.66101C10.914 6.64701 10.317 6.78301 9.878 7.09101C9.652 7.24901 9.597 7.56101 9.756 7.78701C9.914 8.01301 10.226 8.06801 10.452 7.90901C10.716 7.72401 11.167 7.63401 11.808 7.66601C12.628 7.70701 12.992 8.07201 12.999 8.81001C12.359 8.64201 11.728 8.59501 11.106 8.67001C9.792 8.82901 9 9.68301 9 10.833C9 12.137 9.941 13 11.167 13C11.732 13 12.341 12.807 13 12.43V12.5L13.005 12.568C13.038 12.812 13.247 13 13.5 13L13.568 12.995C13.809 12.962 13.996 12.757 14 12.508V8.83301L13.997 8.69601ZM12.999 11.269L12.834 11.382C12.178 11.814 11.62 12.024 11.166 12.024C10.474 12.024 9.999 11.588 9.999 10.857C9.999 10.224 10.404 9.78701 11.226 9.68701C11.736 9.62501 12.259 9.66701 12.797 9.81501L12.999 9.87601V11.269Z"/><path d="M6.978 9.35501C6.978 9.35501 6.975 9.34701 6.974 9.34301L4.974 3.34201C4.838 2.93401 4.162 2.93401 4.026 3.34201L2.026 9.34301C2.026 9.34301 2.023 9.35101 2.022 9.35501L1.026 12.342C0.939001 12.604 1.08 12.887 1.342 12.975C1.606 13.064 1.887 12.919 1.974 12.659L2.86 10.001H6.14L7.026 12.659C7.096 12.868 7.291 13.001 7.5 13.001C7.552 13.001 7.605 12.993 7.658 12.976C7.92 12.888 8.061 12.605 7.974 12.343L6.978 9.35601V9.35501ZM3.194 9.00001L4.5 5.08101L5.806 9.00001H3.194Z"/></svg>