<svg width="18" height="18" viewBox="0 0 18 18" xmlns="http://www.w3.org/2000/svg" fill="currentColor"><path fill-rule="evenodd" clip-rule="evenodd" d="M8.768 12L7.938 13.658L5.63 15.679C4.99 16.229 4 15.779 4 14.94V13H2.5C1.67 13 1 12.33 1 11.5V4.50002C1 3.67002 1.67 3.00002 2.5 3.00002H9.099C9.034 3.15602 9 3.32402 9 3.49702C9 3.67302 9.035 3.84502 9.1 4.00002H2.5C2.22 4.00002 2 4.22002 2 4.50002V11.5C2 11.78 2.22 12 2.5 12H5V14.9L8.31 12H8.768ZM14.851 5.04602C14.811 5.07502 14.78 5.11602 14.763 5.16302L14.565 5.77502C14.504 5.95902 14.401 6.12602 14.264 6.26502C14.128 6.40302 13.962 6.51002 13.778 6.57302L13.166 6.77202C13.119 6.78802 13.077 6.81902 13.049 6.86002C13.021 6.90102 13.005 6.95002 13.005 7.00002C13.005 7.02302 13.01 7.04502 13.016 7.06602C13.206 7.11602 13.388 7.19402 13.557 7.29802C13.609 7.33002 13.66 7.36602 13.708 7.40202L13.749 7.41602V7.41902L13.774 7.42702C13.961 7.48902 14.129 7.59402 14.268 7.73302C14.406 7.87202 14.512 8.04102 14.574 8.22702L14.774 8.83902C14.79 8.88602 14.821 8.92702 14.862 8.95602C14.902 8.98402 14.949 9.00002 14.998 9.00002H15.005C15.055 9.00002 15.104 8.98502 15.145 8.95602C15.186 8.92702 15.217 8.88602 15.234 8.83902L15.432 8.22702C15.494 8.04102 15.599 7.87302 15.738 7.73402C15.877 7.59502 16.046 7.49002 16.232 7.42802L16.843 7.23002C16.89 7.21402 16.932 7.18202 16.96 7.14102C16.988 7.10002 17.004 7.05102 17.004 7.00102C17.004 6.95102 16.989 6.90202 16.96 6.86102C16.931 6.82102 16.89 6.79002 16.843 6.77302L16.831 6.77002L16.219 6.57102V6.57302C16.033 6.51102 15.864 6.40602 15.725 6.26702C15.586 6.12802 15.482 5.96002 15.42 5.77402L15.221 5.16202C15.205 5.11502 15.174 5.07402 15.133 5.04502C15.092 5.01702 15.043 5.00102 14.993 5.00102C14.943 5.00102 14.893 5.01602 14.852 5.04502L14.851 5.04602ZM10.201 3.78202L10.968 4.03102L11.051 4.06002C11.051 4.06002 11.056 4.06302 11.058 4.06402C11.121 4.08902 11.184 4.11902 11.243 4.15202C11.369 4.22302 11.484 4.31102 11.587 4.41302C11.741 4.56602 11.862 4.75002 11.94 4.95202C11.95 4.97902 11.959 5.00602 11.968 5.03302L12.217 5.79802C12.238 5.85702 12.276 5.90802 12.328 5.94402C12.379 5.98002 12.44 6.00002 12.503 6.00002H12.507C12.568 6.00002 12.628 5.98002 12.678 5.94402C12.712 5.92002 12.74 5.88802 12.762 5.85302C12.773 5.83502 12.782 5.81602 12.789 5.79702L13.038 5.03202C13.115 4.79902 13.246 4.58802 13.419 4.41502C13.592 4.24202 13.804 4.11102 14.037 4.03402L14.802 3.78502C14.861 3.76402 14.912 3.72602 14.948 3.67502C14.984 3.62402 15.004 3.56302 15.004 3.50002C15.004 3.43702 14.985 3.37702 14.948 3.32502C14.912 3.27402 14.86 3.23602 14.802 3.21602L14.787 3.21202L14.022 2.96302C13.863 2.91002 13.714 2.83302 13.58 2.73402C13.518 2.68802 13.459 2.63702 13.404 2.58202C13.231 2.40902 13.1 2.19702 13.023 1.96502L12.774 1.20002C12.753 1.14102 12.715 1.09002 12.663 1.05402C12.616 1.02102 12.561 1.00202 12.504 0.999023H12.489C12.426 0.999023 12.365 1.01802 12.314 1.05402C12.263 1.09002 12.224 1.14102 12.204 1.20002L11.955 1.96502C11.879 2.19602 11.751 2.40602 11.58 2.57902C11.555 2.60402 11.53 2.62802 11.504 2.65102C11.349 2.78902 11.168 2.89502 10.971 2.96302L10.376 3.15602H10.374L10.202 3.21102C10.143 3.23202 10.092 3.27102 10.056 3.32202C10.02 3.37302 10 3.43402 10 3.49702C10 3.56002 10.02 3.62102 10.056 3.67102C10.092 3.72202 10.144 3.76002 10.202 3.78102L10.201 3.78202ZM16.893 15.552C16.969 15.704 17.005 15.874 16.998 16.044C16.99 16.214 16.94 16.38 16.85 16.525C16.761 16.67 16.636 16.79 16.487 16.873C16.338 16.956 16.171 17 16 17H9C8.829 17 8.661 16.958 8.511 16.875C8.362 16.792 8.236 16.673 8.146 16.527C8.056 16.382 8.005 16.216 7.997 16.045C7.989 15.874 8.025 15.704 8.102 15.552L11.602 8.55202C11.685 8.38502 11.813 8.24502 11.971 8.14702C12.129 8.04902 12.312 7.99702 12.498 7.99702C12.684 7.99702 12.866 8.04902 13.025 8.14702C13.184 8.24502 13.311 8.38502 13.394 8.55202L16.894 15.552H16.893ZM13 15.5C13 15.367 12.947 15.24 12.854 15.146C12.76 15.052 12.633 15 12.5 15C12.401 15 12.304 15.029 12.222 15.084C12.14 15.139 12.076 15.217 12.038 15.308C12 15.399 11.99 15.5 12.01 15.597C12.029 15.694 12.077 15.783 12.147 15.853C12.217 15.923 12.306 15.971 12.403 15.99C12.5 16.009 12.601 15.999 12.692 15.962C12.783 15.924 12.861 15.86 12.916 15.778C12.971 15.696 13 15.599 13 15.5ZM13 10.495C13 10.362 12.947 10.235 12.854 10.141C12.76 10.047 12.633 9.99502 12.5 9.99502C12.367 9.99502 12.24 10.048 12.146 10.141C12.052 10.235 12 10.362 12 10.495V13.495C12 13.628 12.053 13.755 12.146 13.849C12.24 13.943 12.367 13.995 12.5 13.995C12.633 13.995 12.76 13.942 12.854 13.849C12.948 13.755 13 13.628 13 13.495V10.495Z"/></svg>