<svg width="16" height="16" viewBox="0 0 16 16" xmlns="http://www.w3.org/2000/svg" fill="currentColor"><path d="M8.09863 2.00049C8.03373 2.15653 8 2.32455 8 2.49756C8.00001 2.67393 8.03478 2.84547 8.09961 3.00049H1.5C1.22 3.00049 1 3.22049 1 3.50049V10.5005C1 10.7805 1.22 11.0005 1.5 11.0005H4V13.9009L7.30957 11.0005H7.76758L6.9375 12.6587L4.62988 14.6802C3.98999 15.2301 3.00034 14.7806 3 13.9409V12.0005H1.5C0.67 12.0005 0 11.3305 0 10.5005V3.50049C0 2.67049 0.67 2.00049 1.5 2.00049H8.09863Z"/><path d="M13.9912 4.00244C14.0411 4.00248 14.0899 4.01849 14.1309 4.04639C14.1719 4.07539 14.2027 4.11658 14.2188 4.16357L14.418 4.77588C14.4799 4.96157 14.5839 5.1302 14.7227 5.26904C14.8616 5.40801 15.0309 5.5127 15.2168 5.57471V5.57275L15.8291 5.77197L15.8408 5.7749C15.8878 5.7919 15.929 5.82279 15.958 5.86279C15.9869 5.90374 16.0019 5.95254 16.002 6.00244C16.002 6.05233 15.9859 6.10114 15.958 6.14209C15.93 6.18309 15.8878 6.21496 15.8408 6.23096L15.2295 6.4292C15.0435 6.4912 14.8744 6.59586 14.7354 6.73486C14.5964 6.87378 14.4917 7.04216 14.4297 7.22803L14.2314 7.84033C14.2144 7.88733 14.1836 7.92852 14.1426 7.95752C14.1016 7.98637 14.0528 8.00146 14.0029 8.00146H13.9961C13.9472 8.00146 13.9003 7.98542 13.8604 7.95752C13.8194 7.92852 13.7885 7.88733 13.7725 7.84033L13.5723 7.22803C13.5103 7.04216 13.4045 6.8728 13.2666 6.73389C13.1277 6.59497 12.9593 6.49023 12.7725 6.42822L12.748 6.42041V6.41748L12.707 6.40381C12.6583 6.36704 12.6079 6.33163 12.5557 6.29932C12.387 6.19497 12.2046 6.11711 12.0146 6.06689C12.0086 6.04527 12.0039 6.02318 12.0039 6.00049C12.0039 5.95062 12.02 5.90177 12.0479 5.86084C12.0758 5.81988 12.1181 5.78896 12.165 5.77295L12.7773 5.57373C12.9613 5.51072 13.1277 5.40406 13.2637 5.26611C13.4006 5.12717 13.5034 4.95978 13.5645 4.77588L13.7627 4.16357C13.7797 4.11667 13.8107 4.07538 13.8506 4.04639C13.8916 4.01739 13.9412 4.00244 13.9912 4.00244Z"/><path d="M11.5029 0.000488281C11.5599 0.00348638 11.6151 0.0222144 11.6621 0.0551758C11.7141 0.0911758 11.7524 0.14266 11.7734 0.20166L12.0225 0.966309C12.0995 1.19831 12.2303 1.4105 12.4033 1.5835C12.4583 1.63844 12.5172 1.68988 12.5791 1.73584C12.713 1.83476 12.8626 1.91138 13.0215 1.96436L13.7861 2.21338L13.8008 2.21729C13.8598 2.23729 13.9113 2.27566 13.9473 2.32666C13.9842 2.3786 14.0029 2.43857 14.0029 2.50146C14.0029 2.56436 13.9832 2.62532 13.9473 2.67627C13.9113 2.72727 13.8598 2.76562 13.8008 2.78662L13.0361 3.03564C12.8031 3.11264 12.591 3.2435 12.418 3.4165C12.245 3.5895 12.1141 3.80071 12.0371 4.03369L11.7881 4.79834C11.7811 4.81726 11.7717 4.83607 11.7607 4.854C11.7387 4.889 11.7108 4.92082 11.6768 4.94482C11.6268 4.98067 11.5667 5.00049 11.5059 5.00049H11.502C11.4391 5.00047 11.3781 4.9807 11.3271 4.94482C11.2751 4.90882 11.2368 4.85734 11.2158 4.79834L10.9668 4.03369C10.9578 4.00678 10.9484 3.97954 10.9385 3.95264C10.8605 3.75064 10.7399 3.56657 10.5859 3.41357C10.483 3.31165 10.3681 3.22381 10.2422 3.15283C10.1832 3.11983 10.1206 3.08994 10.0576 3.06494C10.0555 3.06392 10.0508 3.06104 10.0508 3.06104L9.96777 3.03174L9.20117 2.78271C9.14217 2.76171 9.09069 2.72336 9.05469 2.67236C9.01881 2.62242 8.99903 2.56142 8.99902 2.49854C8.99902 2.43567 9.01883 2.37467 9.05469 2.32373C9.09069 2.27273 9.14217 2.2334 9.20117 2.2124L9.37305 2.15771H9.375L9.96973 1.96436C10.1666 1.89639 10.348 1.79074 10.5029 1.65283C10.5289 1.62983 10.5541 1.60557 10.5791 1.58057C10.7501 1.40757 10.8781 1.19731 10.9541 0.966309L11.2031 0.20166C11.2231 0.14266 11.2625 0.0911758 11.3135 0.0551758C11.3644 0.0193812 11.4255 0.000488281 11.4883 0.000488281H11.5029Z"/><path fill-rule="evenodd" clip-rule="evenodd" d="M12.3931 7.55201L15.8931 14.552C15.9694 14.7044 16.0056 14.8738 15.9981 15.044C15.9906 15.2143 15.9397 15.3799 15.8502 15.5249C15.7607 15.67 15.6357 15.7898 15.4869 15.8729C15.3381 15.9561 15.1705 15.9998 15.0001 16H8.00006C7.8292 16.0007 7.66101 15.9576 7.51154 15.8748C7.36207 15.792 7.23631 15.6723 7.14625 15.5271C7.0562 15.3818 7.00486 15.216 6.99712 15.0453C6.98938 14.8746 7.02551 14.7048 7.10206 14.552L10.6021 7.55201C10.6849 7.38534 10.8126 7.24509 10.9708 7.14705C11.129 7.04901 11.3114 6.99707 11.4976 6.99707C11.6837 6.99707 11.8661 7.04901 12.0243 7.14705C12.1825 7.24509 12.3102 7.38534 12.3931 7.55201ZM12 12.495V9.495C12 9.36239 11.9473 9.23521 11.8536 9.14144C11.7598 9.04767 11.6326 8.995 11.5 8.995C11.3674 8.995 11.2402 9.04767 11.1464 9.14144C11.0527 9.23521 11 9.36239 11 9.495V12.495C11 12.6276 11.0527 12.7548 11.1464 12.8485C11.2402 12.9423 11.3674 12.995 11.5 12.995C11.6326 12.995 11.7598 12.9423 11.8536 12.8485C11.9473 12.7548 12 12.6276 12 12.495ZM11.2222 14.0843C11.3044 14.0293 11.4011 14 11.5 14C11.6326 14 11.7598 14.0527 11.8536 14.1464C11.9473 14.2402 12 14.3674 12 14.5C12 14.5989 11.9707 14.6956 11.9157 14.7778C11.8608 14.86 11.7827 14.9241 11.6913 14.9619C11.6 14.9998 11.4994 15.0097 11.4025 14.9904C11.3055 14.9711 11.2164 14.9235 11.1464 14.8535C11.0765 14.7836 11.0289 14.6945 11.0096 14.5975C10.9903 14.5006 11.0002 14.4 11.0381 14.3087C11.0759 14.2173 11.14 14.1392 11.2222 14.0843Z"/></svg>