<svg width="16" height="16" viewBox="0 0 16 16" xmlns="http://www.w3.org/2000/svg" fill="currentColor"><path d="M13.99 4.002C14.04 4.002 14.089 4.018 14.13 4.046C14.171 4.075 14.202 4.116 14.218 4.163L14.417 4.775C14.479 4.961 14.583 5.129 14.722 5.268C14.861 5.407 15.03 5.512 15.216 5.574V5.572L15.828 5.771L15.84 5.774C15.887 5.791 15.928 5.822 15.957 5.862C15.986 5.903 16.001 5.952 16.001 6.002C16.001 6.052 15.985 6.101 15.957 6.142C15.929 6.183 15.887 6.215 15.84 6.231L15.229 6.429C15.043 6.491 14.874 6.596 14.735 6.735C14.673 6.797 14.618 6.864 14.571 6.937C13.825 6.434 12.95 6.11 12.006 6.024C12.006 6.017 12.003 6.009 12.003 6.001C12.003 5.951 12.019 5.902 12.047 5.861C12.075 5.82 12.117 5.789 12.164 5.773L12.776 5.574C12.96 5.511 13.126 5.404 13.262 5.266C13.399 5.127 13.502 4.96 13.563 4.776L13.761 4.164C13.778 4.117 13.809 4.076 13.849 4.047C13.89 4.018 13.94 4.002 13.99 4.002ZM9.2 2.782L9.966 3.032L10.049 3.061C10.049 3.061 10.054 3.064 10.056 3.065C10.119 3.09 10.182 3.12 10.241 3.153C10.367 3.224 10.482 3.312 10.585 3.414C10.739 3.567 10.86 3.751 10.938 3.953C10.948 3.98 10.957 4.007 10.966 4.034L11.215 4.799C11.236 4.858 11.274 4.909 11.326 4.945C11.377 4.981 11.438 5.001 11.501 5.001H11.505C11.566 5.001 11.626 4.981 11.676 4.945C11.71 4.921 11.738 4.889 11.76 4.854C11.771 4.836 11.78 4.817 11.787 4.798L12.036 4.033C12.113 3.8 12.244 3.589 12.417 3.416C12.59 3.243 12.802 3.112 13.035 3.035L13.8 2.786C13.859 2.765 13.911 2.727 13.947 2.676C13.983 2.625 14.003 2.564 14.003 2.501C14.003 2.438 13.984 2.378 13.947 2.326C13.911 2.275 13.859 2.237 13.8 2.217L13.785 2.213L13.02 1.964C12.861 1.911 12.712 1.834 12.578 1.735C12.516 1.689 12.457 1.638 12.402 1.583C12.229 1.41 12.098 1.198 12.021 0.966L11.772 0.201C11.751 0.142 11.713 0.091 11.661 0.055C11.614 0.022 11.559 0.003 11.502 0H11.487C11.424 0 11.363 0.019 11.312 0.055C11.261 0.091 11.222 0.142 11.202 0.201L10.953 0.966C10.877 1.197 10.749 1.407 10.578 1.58C10.553 1.605 10.528 1.629 10.502 1.652C10.347 1.79 10.166 1.896 9.969 1.964L9.374 2.157H9.372L9.2 2.212C9.141 2.233 9.09 2.272 9.054 2.323C9.018 2.374 8.998 2.435 8.998 2.498C8.998 2.561 9.018 2.622 9.054 2.672C9.09 2.723 9.141 2.761 9.2 2.782ZM15.998 11.501C15.998 13.986 13.983 16.001 11.498 16.001C9.013 16.001 6.998 13.986 6.998 11.501C6.998 9.016 9.013 7.001 11.498 7.001C13.983 7.001 15.998 9.016 15.998 11.501ZM13.498 12.794L12.205 11.5L13.436 10.208C13.631 10.013 13.631 9.696 13.436 9.501C13.241 9.306 12.924 9.306 12.729 9.501L11.498 10.793L10.206 9.501C10.011 9.306 9.694 9.306 9.499 9.501C9.304 9.696 9.304 10.013 9.499 10.208L10.792 11.5L9.498 12.794C9.303 12.989 9.303 13.306 9.498 13.501C9.693 13.696 10.01 13.696 10.205 13.501L11.498 12.207L12.792 13.501C12.987 13.696 13.304 13.696 13.499 13.501C13.694 13.306 13.693 12.989 13.498 12.794ZM4 13.9V11.002H2.5C1.672 11.002 1 10.33 1 9.502V4.502C1 3.674 1.672 3.002 2.5 3.002H8V2.002H2.5C1.119 2.002 0 3.121 0 4.502V9.502C0 10.883 1.119 12.002 2.5 12.002H3V13.944C3 14.786 3.992 15.236 4.625 14.681L6.281 13.232C6.162 12.875 6.078 12.503 6.035 12.119L4 13.9Z"/></svg>