<svg width="16" height="16" viewBox="0 0 16 16" xmlns="http://www.w3.org/2000/svg" fill="currentColor"><path fill-rule="evenodd" clip-rule="evenodd" d="M7.768 10.9995L6.938 12.6575L4.63 14.6785C3.99 15.2285 3 14.7785 3 13.9395V11.9995H1.5C0.67 11.9995 0 11.3295 0 10.4995V3.49954C0 2.66954 0.67 1.99954 1.5 1.99954H8.099C8.034 2.15553 8 2.32353 8 2.49654C8 2.67253 8.035 2.84454 8.1 2.99954H1.5C1.22 2.99954 1 3.21954 1 3.49954V10.4995C1 10.7795 1.22 10.9995 1.5 10.9995H4V13.8995L7.31 10.9995H7.768ZM13.851 4.04554C13.811 4.07453 13.78 4.11554 13.763 4.16254L13.565 4.77454C13.504 4.95854 13.401 5.12554 13.264 5.26453C13.128 5.40253 12.962 5.50953 12.778 5.57254L12.166 5.77153C12.119 5.78753 12.077 5.81854 12.049 5.85954C12.021 5.90054 12.005 5.94953 12.005 5.99954C12.005 6.02253 12.01 6.04454 12.016 6.06554C12.206 6.11554 12.388 6.19353 12.557 6.29753C12.609 6.32954 12.66 6.36554 12.708 6.40154L12.749 6.41553V6.41854L12.774 6.42654C12.961 6.48853 13.129 6.59353 13.268 6.73253C13.406 6.87153 13.512 7.04054 13.574 7.22654L13.774 7.83854C13.79 7.88554 13.821 7.92654 13.862 7.95553C13.902 7.98353 13.949 7.99954 13.998 7.99954H14.005C14.055 7.99954 14.104 7.98453 14.145 7.95553C14.186 7.92654 14.217 7.88554 14.234 7.83854L14.432 7.22654C14.494 7.04054 14.599 6.87254 14.738 6.73354C14.877 6.59454 15.046 6.48953 15.232 6.42754L15.843 6.22954C15.89 6.21354 15.932 6.18153 15.96 6.14053C15.988 6.09953 16.004 6.05054 16.004 6.00054C16.004 5.95053 15.989 5.90154 15.96 5.86054C15.931 5.82054 15.89 5.78954 15.843 5.77253L15.831 5.76954L15.219 5.57054V5.57254C15.033 5.51054 14.864 5.40554 14.725 5.26654C14.586 5.12754 14.482 4.95954 14.42 4.77354L14.221 4.16154C14.205 4.11454 14.174 4.07353 14.133 4.04454C14.092 4.01654 14.043 4.00054 13.993 4.00054C13.943 4.00054 13.893 4.01554 13.852 4.04454L13.851 4.04554ZM9.201 2.78154L9.968 3.03053L10.051 3.05954C10.051 3.05954 10.056 3.06254 10.058 3.06353C10.121 3.08854 10.184 3.11854 10.243 3.15154C10.369 3.22254 10.484 3.31054 10.587 3.41254C10.741 3.56554 10.862 3.74954 10.94 3.95153C10.95 3.97853 10.959 4.00554 10.968 4.03254L11.217 4.79753C11.238 4.85653 11.276 4.90754 11.328 4.94353C11.379 4.97953 11.44 4.99954 11.503 4.99954H11.507C11.568 4.99954 11.628 4.97953 11.678 4.94353C11.712 4.91953 11.74 4.88754 11.762 4.85254C11.773 4.83454 11.782 4.81554 11.789 4.79654L12.038 4.03154C12.115 3.79854 12.246 3.58754 12.419 3.41454C12.592 3.24153 12.804 3.11053 13.037 3.03354L13.802 2.78454C13.861 2.76354 13.912 2.72553 13.948 2.67454C13.984 2.62354 14.004 2.56254 14.004 2.49954C14.004 2.43654 13.985 2.37654 13.948 2.32454C13.912 2.27354 13.86 2.23554 13.802 2.21554L13.787 2.21153L13.022 1.96254C12.863 1.90954 12.714 1.83254 12.58 1.73354C12.518 1.68754 12.459 1.63654 12.404 1.58154C12.231 1.40854 12.1 1.19654 12.023 0.964535L11.774 0.199535C11.753 0.140535 11.715 0.0895352 11.663 0.0535352C11.616 0.0205352 11.561 0.00153516 11.504 -0.00146484H11.489C11.426 -0.00146484 11.365 0.0175352 11.314 0.0535352C11.263 0.0895352 11.224 0.140535 11.204 0.199535L10.955 0.964535C10.879 1.19554 10.751 1.40554 10.58 1.57854C10.555 1.60354 10.53 1.62754 10.504 1.65054C10.349 1.78854 10.168 1.89454 9.971 1.96254L9.376 2.15553H9.374L9.202 2.21054C9.143 2.23153 9.092 2.27053 9.056 2.32154C9.02 2.37254 9 2.43354 9 2.49654C9 2.55954 9.02 2.62054 9.056 2.67054C9.092 2.72154 9.144 2.75954 9.202 2.78053L9.201 2.78154ZM15.893 14.5515C15.969 14.7035 16.005 14.8735 15.998 15.0435C15.99 15.2135 15.94 15.3795 15.85 15.5245C15.761 15.6695 15.636 15.7895 15.487 15.8725C15.338 15.9555 15.171 15.9995 15 15.9995H8C7.829 15.9995 7.661 15.9575 7.511 15.8745C7.362 15.7915 7.236 15.6725 7.146 15.5265C7.056 15.3815 7.005 15.2155 6.997 15.0445C6.989 14.8735 7.025 14.7035 7.102 14.5515L10.602 7.55154C10.685 7.38454 10.813 7.24453 10.971 7.14653C11.129 7.04853 11.312 6.99654 11.498 6.99654C11.684 6.99654 11.866 7.04853 12.025 7.14653C12.184 7.24453 12.311 7.38454 12.394 7.55154L15.894 14.5515H15.893ZM12 14.4995C12 14.3665 11.947 14.2395 11.854 14.1455C11.76 14.0515 11.633 13.9995 11.5 13.9995C11.401 13.9995 11.304 14.0285 11.222 14.0835C11.14 14.1385 11.076 14.2165 11.038 14.3075C11 14.3985 10.99 14.4995 11.01 14.5965C11.029 14.6935 11.077 14.7825 11.147 14.8525C11.217 14.9225 11.306 14.9705 11.403 14.9895C11.5 15.0085 11.601 14.9985 11.692 14.9615C11.783 14.9235 11.861 14.8595 11.916 14.7775C11.971 14.6955 12 14.5985 12 14.4995ZM12 9.49454C12 9.36154 11.947 9.23454 11.854 9.14054C11.76 9.04654 11.633 8.99454 11.5 8.99454C11.367 8.99454 11.24 9.04753 11.146 9.14054C11.052 9.23454 11 9.36154 11 9.49454V12.4945C11 12.6275 11.053 12.7545 11.146 12.8485C11.24 12.9425 11.367 12.9945 11.5 12.9945C11.633 12.9945 11.76 12.9415 11.854 12.8485C11.948 12.7545 12 12.6275 12 12.4945V9.49454Z"/></svg>