<svg width="16" height="16" viewBox="0 0 16 16" xmlns="http://www.w3.org/2000/svg" fill="currentColor"><path d="M13.786 2.21349L13.801 2.21749C13.86 2.23749 13.911 2.27549 13.947 2.32649C13.984 2.37849 14.003 2.43849 14.003 2.50149C14.003 2.56449 13.983 2.62549 13.947 2.67649C13.911 2.72749 13.86 2.76549 13.801 2.78649L13.036 3.03549C12.803 3.11249 12.591 3.24349 12.418 3.41649C12.245 3.58949 12.114 3.80049 12.037 4.03349L11.788 4.79849C11.781 4.81749 11.772 4.83649 11.761 4.85449C11.739 4.88949 11.711 4.92049 11.677 4.94449C11.627 4.98049 11.567 5.00049 11.506 5.00049H11.502C11.439 5.00049 11.378 4.98049 11.327 4.94449C11.275 4.90849 11.237 4.85749 11.216 4.79849L10.967 4.03349C10.958 4.00649 10.948 3.97949 10.938 3.95249C10.86 3.75049 10.74 3.56649 10.586 3.41349C10.483 3.31149 10.368 3.22349 10.242 3.15249C10.183 3.11949 10.121 3.08949 10.058 3.06449C10.056 3.06349 10.051 3.06149 10.051 3.06149L9.96802 3.03149L9.20102 2.78249C9.14202 2.76149 9.09102 2.72349 9.05502 2.67249C9.01902 2.62249 8.99902 2.56149 8.99902 2.49849C8.99902 2.43549 9.01902 2.37449 9.05502 2.32349C9.09102 2.27249 9.14202 2.23349 9.20102 2.21249L9.37302 2.15749H9.37502L9.97002 1.96449C10.167 1.89649 10.348 1.79049 10.503 1.65249C10.529 1.62949 10.554 1.60549 10.579 1.58049C10.75 1.40749 10.878 1.19749 10.954 0.966488L11.203 0.201488C11.223 0.142488 11.262 0.0914883 11.313 0.0554883C11.364 0.0194883 11.425 0.000488281 11.488 0.000488281H11.503C11.56 0.00348828 11.615 0.0224883 11.662 0.0554883C11.714 0.0914883 11.752 0.142488 11.773 0.201488L12.022 0.966488C12.099 1.19849 12.23 1.41049 12.403 1.58349C12.458 1.63849 12.517 1.68949 12.579 1.73549C12.713 1.83449 12.862 1.91149 13.021 1.96449L13.786 2.21349Z"/><path d="M15.829 5.77149L15.217 5.57249V5.57449C15.031 5.51249 14.862 5.40849 14.723 5.26949C14.584 5.13049 14.48 4.96149 14.418 4.77549L14.219 4.16349C14.203 4.11649 14.172 4.07549 14.131 4.04649C14.09 4.01849 14.041 4.00249 13.991 4.00249C13.941 4.00249 13.892 4.01749 13.851 4.04649C13.811 4.07549 13.78 4.11649 13.763 4.16349L13.564 4.77549C13.503 4.95949 13.401 5.12749 13.264 5.26649C13.128 5.40449 12.961 5.51049 12.777 5.57349L12.165 5.77249C12.118 5.78849 12.076 5.81949 12.048 5.86049C12.02 5.90149 12.004 5.95049 12.004 6.00049C12.004 6.05049 12.019 6.09949 12.048 6.14049C12.077 6.18049 12.118 6.21149 12.165 6.22849L12.748 6.41749V6.42049L12.772 6.42849C12.959 6.49049 13.128 6.59449 13.267 6.73349C13.405 6.87249 13.51 7.04249 13.572 7.22849L13.772 7.84049C13.788 7.88749 13.819 7.92849 13.86 7.95749C13.9 7.98549 13.947 8.00149 13.996 8.00149H14.003C14.053 8.00149 14.102 7.98649 14.143 7.95749C14.184 7.92849 14.214 7.88749 14.231 7.84049L14.43 7.22849C14.492 7.04249 14.596 6.87349 14.735 6.73449C14.874 6.59549 15.043 6.49149 15.229 6.42949L15.841 6.23049C15.888 6.21449 15.93 6.18349 15.958 6.14249C15.986 6.10149 16.002 6.05249 16.002 6.00249C16.002 5.95249 15.987 5.90349 15.958 5.86249C15.929 5.82249 15.888 5.79149 15.841 5.77449L15.829 5.77149Z"/><path d="M8.09846 2.00049H1.5C0.67 2.00049 0 2.67049 0 3.50049V10.5005C0 11.3305 0.67 12.0005 1.5 12.0005H3V13.9405C3 14.7805 3.99 15.2305 4.63 14.6805L7.69 12.0005H12.5C13.33 12.0005 14 11.3305 14 10.5005V8.99949H13.996C13.729 8.99449 13.492 8.91749 13.289 8.77649C13.1762 8.69762 13.0792 8.60292 13 8.49525V10.5005C13 10.7805 12.78 11.0005 12.5 11.0005H7.31L4 13.9005V11.0005H1.5C1.22 11.0005 1 10.7805 1 10.5005V3.50049C1 3.22049 1.22 3.00049 1.5 3.00049H8.09973C8.03488 2.84544 8 2.6739 8 2.49749C8 2.32448 8.03355 2.15653 8.09846 2.00049Z"/></svg>