<svg width="16" height="16" viewBox="0 0 16 16" xmlns="http://www.w3.org/2000/svg" fill="currentColor"><path d="M13.993 4.002C14.043 4.002 14.092 4.018 14.133 4.046C14.174 4.075 14.205 4.116 14.221 4.163L14.42 4.775C14.482 4.961 14.586 5.129 14.725 5.268C14.864 5.407 15.033 5.512 15.219 5.574V5.572L15.831 5.771L15.843 5.774C15.89 5.791 15.931 5.822 15.96 5.862C15.989 5.903 16.004 5.952 16.004 6.002C16.004 6.052 15.988 6.101 15.96 6.142C15.932 6.183 15.89 6.215 15.843 6.231L15.232 6.429C15.046 6.491 14.877 6.596 14.738 6.735C14.599 6.874 14.494 7.042 14.432 7.228L14.234 7.84C14.217 7.887 14.186 7.928 14.145 7.957C14.104 7.986 14.055 8.001 14.005 8.001H13.998C13.949 8.001 13.902 7.985 13.862 7.957C13.821 7.928 13.79 7.887 13.774 7.84L13.574 7.228C13.512 7.042 13.406 6.873 13.268 6.734C13.129 6.595 12.961 6.49 12.774 6.428L12.749 6.42V6.417L12.708 6.403C12.66 6.367 12.609 6.331 12.557 6.299C12.388 6.195 12.206 6.117 12.016 6.067C12.01 6.046 12.005 6.024 12.005 6.001C12.005 5.951 12.021 5.902 12.049 5.861C12.077 5.82 12.119 5.789 12.166 5.773L12.778 5.574C12.962 5.511 13.128 5.404 13.264 5.266C13.401 5.127 13.504 4.96 13.565 4.776L13.763 4.164C13.78 4.117 13.811 4.076 13.851 4.047H13.852C13.893 4.017 13.943 4.002 13.993 4.002ZM9.20198 2.782L9.96898 3.032L10.052 3.061C10.052 3.061 10.057 3.064 10.059 3.065C10.122 3.09 10.185 3.12 10.244 3.153C10.37 3.224 10.485 3.312 10.588 3.414C10.742 3.567 10.863 3.751 10.941 3.953C10.951 3.98 10.96 4.007 10.969 4.034L11.218 4.799C11.239 4.858 11.277 4.909 11.329 4.945C11.38 4.981 11.441 5.001 11.504 5.001H11.508C11.569 5.001 11.629 4.981 11.679 4.945C11.713 4.921 11.741 4.889 11.763 4.854C11.774 4.836 11.783 4.817 11.79 4.798L12.039 4.033C12.116 3.8 12.247 3.589 12.42 3.416C12.593 3.243 12.805 3.112 13.038 3.035L13.803 2.786C13.862 2.765 13.913 2.727 13.949 2.676C13.985 2.625 14.005 2.564 14.005 2.501C14.005 2.438 13.986 2.378 13.949 2.326C13.913 2.275 13.861 2.237 13.803 2.217L13.788 2.213L13.023 1.964C12.864 1.911 12.715 1.834 12.581 1.735C12.519 1.689 12.46 1.638 12.405 1.583C12.232 1.41 12.101 1.198 12.024 0.966L11.775 0.201C11.754 0.142 11.716 0.091 11.664 0.055C11.617 0.022 11.562 0.003 11.505 0H11.49C11.427 0 11.366 0.019 11.315 0.055C11.264 0.091 11.225 0.142 11.205 0.201L10.956 0.966C10.88 1.197 10.752 1.407 10.581 1.58C10.556 1.605 10.531 1.629 10.505 1.652C10.35 1.79 10.169 1.896 9.97198 1.964L9.37698 2.157H9.37498L9.20298 2.212C9.14398 2.233 9.09298 2.272 9.05698 2.323C9.02098 2.374 9.00098 2.435 9.00098 2.498C9.00098 2.561 9.02098 2.622 9.05698 2.672C9.09298 2.723 9.14398 2.761 9.20198 2.782ZM15.893 14.553C15.969 14.705 16.005 14.875 15.998 15.045C15.99 15.215 15.94 15.381 15.85 15.526C15.761 15.671 15.636 15.791 15.487 15.874C15.338 15.957 15.171 16.001 15 16.001H7.99998C7.82898 16.001 7.66097 15.959 7.51097 15.876C7.36197 15.793 7.23598 15.674 7.14598 15.528C7.05598 15.383 7.00497 15.217 6.99697 15.046C6.98898 14.875 7.02498 14.705 7.10198 14.553L10.602 7.553C10.685 7.386 10.813 7.246 10.971 7.148C11.129 7.05 11.312 6.998 11.498 6.998C11.684 6.998 11.866 7.05 12.025 7.148C12.184 7.246 12.311 7.386 12.394 7.553L15.894 14.553H15.893ZM12 14.501C12 14.368 11.947 14.241 11.854 14.147C11.76 14.053 11.633 14.001 11.5 14.001C11.401 14.001 11.304 14.03 11.222 14.085C11.14 14.14 11.076 14.218 11.038 14.309C11 14.4 10.99 14.501 11.01 14.598C11.029 14.695 11.077 14.784 11.147 14.854C11.217 14.924 11.306 14.972 11.403 14.991C11.5 15.01 11.601 15 11.692 14.963C11.783 14.925 11.861 14.861 11.916 14.779C11.971 14.697 12 14.6 12 14.501ZM12 9.496C12 9.363 11.947 9.236 11.854 9.142C11.76 9.048 11.633 8.996 11.5 8.996C11.367 8.996 11.24 9.049 11.146 9.142C11.052 9.236 11 9.363 11 9.496V12.496C11 12.629 11.053 12.756 11.146 12.85C11.24 12.944 11.367 12.996 11.5 12.996C11.633 12.996 11.76 12.943 11.854 12.85C11.948 12.756 12 12.629 12 12.496V9.496ZM7.31298 11.002L4.00098 13.9V11.002H2.50098C1.67298 11.002 1.00098 10.33 1.00098 9.502V4.502C1.00098 3.674 1.67298 3.002 2.50098 3.002H8.00098V2.002H2.50098C1.11998 2.002 0.000976562 3.121 0.000976562 4.502V9.502C0.000976562 10.883 1.11998 12.002 2.50098 12.002H3.00098V13.944C3.00098 14.786 3.99298 15.236 4.62598 14.681L6.92398 12.67L7.75798 11.001H7.31198L7.31298 11.002Z"/></svg>