<svg width="18" height="18" viewBox="0 0 18 18" xmlns="http://www.w3.org/2000/svg" fill="currentColor"><path fill-rule="evenodd" clip-rule="evenodd" d="M7.035 13.116C7.078 13.502 7.161 13.876 7.28 14.233L5.63 15.679C4.99 16.229 4 15.779 4 14.94V13H2.5C1.67 13 1 12.33 1 11.5V4.50002C1 3.67002 1.67 3.00002 2.5 3.00002H9.099C9.034 3.15602 9 3.32402 9 3.49702C9 3.67302 9.035 3.84502 9.1 4.00002H2.5C2.22 4.00002 2 4.22002 2 4.50002V11.5C2 11.78 2.22 12 2.5 12H5V14.9L7.035 13.116ZM14.851 5.04602C14.811 5.07502 14.78 5.11602 14.763 5.16302L14.565 5.77502C14.504 5.95902 14.401 6.12602 14.264 6.26502C14.128 6.40302 13.962 6.51002 13.778 6.57302L13.166 6.77202C13.119 6.78802 13.077 6.81902 13.049 6.86002C13.021 6.90102 13.005 6.95002 13.005 7.00002C13.005 7.00802 13.007 7.01602 13.008 7.02302C13.952 7.10902 14.827 7.43302 15.573 7.93602C15.62 7.86302 15.675 7.79602 15.737 7.73402C15.876 7.59502 16.045 7.49002 16.231 7.42802L16.842 7.23002C16.889 7.21402 16.931 7.18202 16.959 7.14102C16.987 7.10002 17.003 7.05102 17.003 7.00102C17.003 6.95102 16.988 6.90202 16.959 6.86102C16.93 6.82102 16.889 6.79002 16.842 6.77302L16.83 6.77002L16.218 6.57102V6.57302C16.032 6.51102 15.863 6.40602 15.724 6.26702C15.585 6.12802 15.481 5.96002 15.419 5.77402L15.22 5.16202C15.204 5.11502 15.173 5.07402 15.132 5.04502C15.091 5.01702 15.042 5.00102 14.992 5.00102C14.942 5.00102 14.892 5.01702 14.851 5.04602ZM10.201 3.78202L10.968 4.03102L11.051 4.06002C11.051 4.06002 11.056 4.06302 11.058 4.06402C11.121 4.08902 11.184 4.11902 11.243 4.15202C11.369 4.22302 11.484 4.31102 11.587 4.41302C11.741 4.56602 11.862 4.75002 11.94 4.95202C11.95 4.97902 11.959 5.00602 11.968 5.03302L12.217 5.79802C12.238 5.85702 12.276 5.90802 12.328 5.94402C12.379 5.98002 12.44 6.00002 12.503 6.00002H12.507C12.568 6.00002 12.628 5.98002 12.678 5.94402C12.712 5.92002 12.74 5.88802 12.762 5.85302C12.773 5.83502 12.782 5.81602 12.789 5.79702L13.038 5.03202C13.115 4.79902 13.246 4.58802 13.419 4.41502C13.592 4.24202 13.804 4.11102 14.037 4.03402L14.802 3.78502C14.861 3.76402 14.913 3.72602 14.949 3.67502C14.985 3.62402 15.005 3.56302 15.005 3.50002C15.005 3.43702 14.986 3.37702 14.949 3.32502C14.913 3.27402 14.861 3.23602 14.802 3.21602L14.787 3.21202L14.022 2.96302C13.863 2.91002 13.714 2.83302 13.58 2.73402C13.518 2.68802 13.459 2.63702 13.404 2.58202C13.231 2.40902 13.1 2.19702 13.023 1.96502L12.774 1.20002C12.753 1.14102 12.715 1.09002 12.663 1.05402C12.616 1.02102 12.561 1.00202 12.504 0.999023H12.489C12.426 0.999023 12.365 1.01802 12.314 1.05402C12.263 1.09002 12.224 1.14102 12.204 1.20002L11.955 1.96502C11.879 2.19602 11.751 2.40602 11.58 2.57902C11.555 2.60402 11.53 2.62802 11.504 2.65102C11.349 2.78902 11.168 2.89502 10.971 2.96302L10.376 3.15602H10.374L10.202 3.21102C10.143 3.23202 10.092 3.27102 10.056 3.32202C10.02 3.37302 10 3.43402 10 3.49702C10 3.56002 10.02 3.62102 10.056 3.67102C10.092 3.72202 10.143 3.76002 10.202 3.78102L10.201 3.78202ZM17 12.5C17 14.985 14.985 17 12.5 17C10.015 17 8 14.985 8 12.5C8 10.015 10.015 8.00002 12.5 8.00002C14.985 8.00002 17 10.015 17 12.5ZM13.207 12.5L14.353 11.354C14.548 11.159 14.548 10.842 14.353 10.647C14.158 10.452 13.841 10.452 13.646 10.647L12.5 11.793L11.354 10.647C11.159 10.452 10.842 10.452 10.647 10.647C10.452 10.842 10.452 11.159 10.647 11.354L11.793 12.5L10.647 13.646C10.452 13.841 10.452 14.158 10.647 14.353C10.842 14.548 11.159 14.548 11.354 14.353L12.5 13.207L13.646 14.353C13.841 14.548 14.158 14.548 14.353 14.353C14.548 14.158 14.548 13.841 14.353 13.646L13.207 12.5Z"/></svg>