<svg width="16" height="16" viewBox="0 0 16 16" xmlns="http://www.w3.org/2000/svg" fill="currentColor"><path fill-rule="evenodd" clip-rule="evenodd" d="M6.035 12.1155C6.078 12.5015 6.161 12.8755 6.28 13.2325L4.63 14.6785C3.99 15.2285 3 14.7785 3 13.9395V11.9995H1.5C0.67 11.9995 0 11.3295 0 10.4995V3.49954C0 2.66954 0.67 1.99954 1.5 1.99954H8.099C8.034 2.15554 8 2.32354 8 2.49654C8 2.67254 8.035 2.84454 8.1 2.99954H1.5C1.22 2.99954 1 3.21954 1 3.49954V10.4995C1 10.7795 1.22 10.9995 1.5 10.9995H4V13.8995L6.035 12.1155ZM13.851 4.04554C13.811 4.07454 13.78 4.11554 13.763 4.16254L13.565 4.77454C13.504 4.95854 13.401 5.12553 13.264 5.26453C13.128 5.40253 12.962 5.50954 12.778 5.57254L12.166 5.77153C12.119 5.78753 12.077 5.81854 12.049 5.85954C12.021 5.90054 12.005 5.94954 12.005 5.99954C12.005 6.00754 12.007 6.01553 12.008 6.02253C12.952 6.10853 13.827 6.43253 14.573 6.93553C14.62 6.86253 14.675 6.79554 14.737 6.73354C14.876 6.59454 15.045 6.48954 15.231 6.42754L15.842 6.22954C15.889 6.21354 15.931 6.18153 15.959 6.14053C15.987 6.09953 16.003 6.05054 16.003 6.00054C16.003 5.95054 15.988 5.90154 15.959 5.86054C15.93 5.82054 15.889 5.78953 15.842 5.77253L15.83 5.76954L15.218 5.57054V5.57254C15.032 5.51054 14.863 5.40554 14.724 5.26654C14.585 5.12754 14.481 4.95954 14.419 4.77354L14.22 4.16154C14.204 4.11454 14.173 4.07354 14.132 4.04454C14.091 4.01654 14.042 4.00054 13.992 4.00054C13.942 4.00054 13.892 4.01654 13.851 4.04554ZM9.201 2.78154L9.968 3.03053L10.051 3.05954C10.051 3.05954 10.056 3.06253 10.058 3.06353C10.121 3.08853 10.184 3.11854 10.243 3.15154C10.369 3.22254 10.484 3.31054 10.587 3.41254C10.741 3.56554 10.862 3.74953 10.94 3.95153C10.95 3.97853 10.959 4.00554 10.968 4.03254L11.217 4.79753C11.238 4.85653 11.276 4.90753 11.328 4.94353C11.379 4.97953 11.44 4.99954 11.503 4.99954H11.507C11.568 4.99954 11.628 4.97953 11.678 4.94353C11.712 4.91953 11.74 4.88754 11.762 4.85254C11.773 4.83454 11.782 4.81554 11.789 4.79654L12.038 4.03154C12.115 3.79854 12.246 3.58754 12.419 3.41454C12.592 3.24154 12.804 3.11054 13.037 3.03354L13.802 2.78454C13.861 2.76354 13.913 2.72554 13.949 2.67454C13.985 2.62354 14.005 2.56254 14.005 2.49954C14.005 2.43654 13.986 2.37654 13.949 2.32454C13.913 2.27354 13.861 2.23554 13.802 2.21554L13.787 2.21153L13.022 1.96254C12.863 1.90954 12.714 1.83254 12.58 1.73354C12.518 1.68754 12.459 1.63654 12.404 1.58154C12.231 1.40854 12.1 1.19654 12.023 0.964535L11.774 0.199535C11.753 0.140535 11.715 0.0895352 11.663 0.0535352C11.616 0.0205352 11.561 0.00153516 11.504 -0.00146484H11.489C11.426 -0.00146484 11.365 0.0175352 11.314 0.0535352C11.263 0.0895352 11.224 0.140535 11.204 0.199535L10.955 0.964535C10.879 1.19554 10.751 1.40554 10.58 1.57854C10.555 1.60354 10.53 1.62754 10.504 1.65054C10.349 1.78854 10.168 1.89454 9.971 1.96254L9.376 2.15553H9.374L9.202 2.21054C9.143 2.23154 9.092 2.27054 9.056 2.32154C9.02 2.37254 9 2.43354 9 2.49654C9 2.55954 9.02 2.62054 9.056 2.67054C9.092 2.72154 9.143 2.75953 9.202 2.78053L9.201 2.78154ZM16 11.4995C16 13.9845 13.985 15.9995 11.5 15.9995C9.015 15.9995 7 13.9845 7 11.4995C7 9.01454 9.015 6.99954 11.5 6.99954C13.985 6.99954 16 9.01454 16 11.4995ZM12.207 11.4995L13.4376 10.207C13.6326 10.012 13.6326 9.695 13.4376 9.5C13.2426 9.305 12.9256 9.305 12.7306 9.5L11.5 10.7925L10.2075 9.5C10.0125 9.305 9.69546 9.305 9.50046 9.5C9.30546 9.695 9.30546 10.012 9.50046 10.207L10.793 11.4995L9.49954 12.793C9.30454 12.988 9.30454 13.305 9.49954 13.5C9.69454 13.695 10.0115 13.695 10.2065 13.5L11.5 12.2065L12.7935 13.5C12.9885 13.695 13.3055 13.695 13.5005 13.5C13.6955 13.305 13.6955 12.988 13.5005 12.793L12.207 11.4995Z"/></svg>