<svg width="16" height="16" viewBox="0 0 16 16" xmlns="http://www.w3.org/2000/svg" fill="currentColor"><path d="M9.055 2.672C9.019 2.622 8.999 2.561 8.999 2.498C8.999 2.435 9.019 2.374 9.055 2.323C9.091 2.272 9.142 2.233 9.201 2.212L9.373 2.157H9.375L9.97 1.964C10.167 1.896 10.348 1.79 10.503 1.652C10.529 1.629 10.554 1.605 10.579 1.58C10.75 1.407 10.878 1.197 10.954 0.966L11.203 0.201C11.223 0.142 11.262 0.091 11.313 0.055C11.364 0.019 11.425 0 11.488 0H11.503C11.56 0.003 11.615 0.022 11.662 0.055C11.714 0.091 11.752 0.142 11.773 0.201L12.022 0.966C12.099 1.198 12.23 1.41 12.403 1.583C12.458 1.638 12.517 1.689 12.579 1.735C12.713 1.834 12.862 1.911 13.021 1.964L13.786 2.213L13.801 2.217C13.86 2.237 13.911 2.275 13.947 2.326C13.984 2.378 14.003 2.438 14.003 2.501C14.003 2.564 13.983 2.625 13.947 2.676C13.911 2.727 13.86 2.765 13.801 2.786L13.036 3.035C12.803 3.112 12.591 3.243 12.418 3.416C12.245 3.589 12.114 3.8 12.037 4.033L11.788 4.798C11.781 4.817 11.772 4.836 11.761 4.854C11.739 4.889 11.711 4.92 11.677 4.944C11.627 4.98 11.567 5 11.506 5H11.502C11.439 5 11.378 4.98 11.327 4.944C11.275 4.908 11.237 4.857 11.216 4.798L10.967 4.033C10.958 4.006 10.948 3.979 10.938 3.952C10.86 3.75 10.74 3.566 10.586 3.413C10.483 3.311 10.368 3.223 10.242 3.152C10.183 3.119 10.121 3.089 10.058 3.064C10.056 3.064 10.051 3.061 10.051 3.061L9.968 3.031L9.201 2.782C9.142 2.761 9.091 2.723 9.055 2.672ZM15.958 5.862C15.929 5.822 15.888 5.791 15.841 5.774L15.829 5.771L15.217 5.572V5.574C15.031 5.512 14.862 5.408 14.723 5.269C14.584 5.13 14.48 4.961 14.418 4.775L14.219 4.163C14.203 4.116 14.172 4.075 14.131 4.046C14.09 4.018 14.041 4.002 13.991 4.002C13.941 4.002 13.892 4.017 13.851 4.046C13.811 4.075 13.78 4.116 13.763 4.163L13.564 4.775C13.503 4.959 13.401 5.127 13.264 5.266C13.128 5.404 12.961 5.51 12.777 5.573L12.165 5.772C12.118 5.788 12.076 5.819 12.048 5.86C12.02 5.901 12.004 5.95 12.004 6C12.004 6.05 12.019 6.099 12.048 6.14C12.077 6.18 12.118 6.211 12.165 6.228L12.748 6.417V6.42L12.772 6.428C12.959 6.49 13.128 6.594 13.267 6.733C13.405 6.872 13.51 7.042 13.572 7.228L13.772 7.84C13.788 7.887 13.819 7.928 13.86 7.957C13.9 7.985 13.947 8.001 13.996 8.001H14.003C14.053 8.001 14.102 7.986 14.143 7.957C14.184 7.928 14.214 7.887 14.231 7.84L14.43 7.228C14.492 7.042 14.596 6.873 14.735 6.734C14.874 6.595 15.043 6.491 15.229 6.429L15.841 6.23C15.888 6.214 15.93 6.183 15.958 6.142C15.986 6.101 16.002 6.052 16.002 6.002C16.002 5.952 15.987 5.903 15.958 5.862ZM13 9.5C13 10.328 12.328 11 11.5 11H7.312L4 13.898V11H2.5C1.672 11 1 10.328 1 9.5V4.5C1 3.672 1.672 3 2.5 3H8V2H2.5C1.119 2 0 3.119 0 4.5V9.5C0 10.881 1.119 12 2.5 12H3V13.942C3 14.784 3.992 15.234 4.625 14.679L7.688 11.999H11.5C12.881 11.999 14 10.88 14 9.499V8.999H13V9.5Z"/></svg>