<svg xmlns="http://www.w3.org/2000/svg" width="12" height="12" viewBox="0 0 12 12" fill="currentColor"><path d="M3.15947 8.14013C3.35936 7.94024 3.66942 7.94046 3.86943 8.14013C4.06943 8.34013 4.06943 8.65009 3.86943 8.85009L1.86943 10.8501C1.76944 10.95 1.63977 11.0005 1.51982 11.0005H1.50029C1.37029 11.0005 1.2397 10.9501 1.1497 10.8501L0.149702 9.85009C-0.0500832 9.65008 -0.0502264 9.34006 0.149702 9.14013C0.34963 8.9402 0.659656 8.94034 0.859663 9.14013L1.51005 9.79052L3.15947 8.14013Z"/><path d="M11.5003 9.00048C11.7801 9.00068 12.0003 9.22061 12.0003 9.50048C12.0001 9.78016 11.78 10.0003 11.5003 10.0005H5.50029C5.22042 10.0005 5.00049 9.78029 5.00029 9.50048C5.00029 9.22048 5.22029 9.00048 5.50029 9.00048H11.5003Z"/><path d="M3.15947 4.14013C3.35936 3.94024 3.66942 3.94046 3.86943 4.14013C4.06943 4.34013 4.06943 4.65009 3.86943 4.85009L1.86943 6.85009C1.76944 6.95001 1.63977 7.00048 1.51982 7.00048H1.50029C1.37029 7.00048 1.2397 6.95009 1.1497 6.85009L0.149702 5.85009C-0.0500832 5.65008 -0.0502264 5.34006 0.149702 5.14013C0.34963 4.9402 0.659656 4.94034 0.859663 5.14013L1.51005 5.79052L3.15947 4.14013Z"/><path d="M11.5003 5.00048C11.7801 5.00068 12.0003 5.22061 12.0003 5.50048C12.0001 5.78016 11.78 6.00027 11.5003 6.00048H5.50029C5.22042 6.00048 5.00049 5.78029 5.00029 5.50048C5.00029 5.22048 5.22029 5.00048 5.50029 5.00048H11.5003Z"/><path d="M3.1497 0.149893C3.34963 -0.0500358 3.65966 -0.0498926 3.85966 0.149893C4.05966 0.349893 4.05966 0.659854 3.85966 0.859854L1.8499 2.85009C1.75001 2.94998 1.62018 3.00037 1.50029 3.00048C1.37029 3.00048 1.2397 2.95009 1.1497 2.85009L0.149702 1.85009C-0.0501937 1.66008 -0.0502587 1.33986 0.149702 1.14989C0.34963 0.959961 0.659656 0.950115 0.859663 1.14989L1.51005 1.80028L3.1497 0.149893Z"/><path d="M11.5003 1.00048C11.7801 1.00068 12.0003 1.22061 12.0003 1.50048C12.0001 1.78016 11.78 2.00027 11.5003 2.00048H5.50029C5.22042 2.00048 5.00049 1.78029 5.00029 1.50048C5.00029 1.22048 5.22029 1.00048 5.50029 1.00048H11.5003Z"/></svg>