<svg width="16" height="16" viewBox="0 0 16 16" fill="none" xmlns="http://www.w3.org/2000/svg">
<path fill-rule="evenodd" clip-rule="evenodd" d="M3.75 4.48H3.04L2 3.43L2.71 2.73L3.4 3.41L4.81 2L5.52 2.71L3.75 4.48ZM6.98999 3H14.99V4H6.98999V3ZM6.98999 6H14.99V7H6.98999V6ZM14.99 9H6.98999V10H14.99V9ZM6.98999 12H14.99V13H6.98999V12ZM3.04 7.48001H3.75L5.52 5.71001L4.81 5.01001L3.4 6.42001L2.71 5.73001L2 6.44001L3.04 7.48001ZM3.75 10.49H3.04L2 9.45001L2.71 8.74001L3.4 9.43001L4.81 8.01001L5.52 8.72001L3.75 10.49ZM3.04 13.5H3.75L5.52 11.73L4.81 11.02L3.4 12.44L2.71 11.75L2 12.45L3.04 13.5Z" fill="white"/>
</svg>
