<svg width="16" height="16" viewBox="0 0 16 16" xmlns="http://www.w3.org/2000/svg" fill="currentColor"><path d="M4.85401 2.146C5.04901 2.341 5.04901 2.658 4.85401 2.853L2.85401 4.853C2.65901 5.048 2.34201 5.048 2.14701 4.853L1.14701 3.853C0.952013 3.658 0.952013 3.341 1.14701 3.146C1.34201 2.951 1.65901 2.951 1.85401 3.146L2.50001 3.792L4.14601 2.146C4.34101 1.951 4.65901 1.951 4.85401 2.146ZM14.5 4H6.50001C6.22401 4 6.00001 3.776 6.00001 3.5C6.00001 3.224 6.22401 3 6.50001 3H14.5C14.776 3 15 3.224 15 3.5C15 3.776 14.776 4 14.5 4ZM4.85401 11.146C5.04901 11.341 5.04901 11.658 4.85401 11.853L2.85401 13.853C2.65901 14.048 2.34201 14.048 2.14701 13.853L1.14701 12.853C0.952013 12.658 0.952013 12.341 1.14701 12.146C1.34201 11.951 1.65901 11.951 1.85401 12.146L2.50001 12.792L4.14601 11.146C4.34101 10.951 4.65901 10.951 4.85401 11.146ZM14.5 13H6.50001C6.22401 13 6.00001 12.776 6.00001 12.5C6.00001 12.224 6.22401 12 6.50001 12H14.5C14.776 12 15 12.224 15 12.5C15 12.776 14.776 13 14.5 13ZM4.85401 6.646C5.04901 6.841 5.04901 7.158 4.85401 7.353L2.85401 9.353C2.65901 9.548 2.34201 9.548 2.14701 9.353L1.14701 8.353C0.952013 8.158 0.952013 7.841 1.14701 7.646C1.34201 7.451 1.65901 7.451 1.85401 7.646L2.50001 8.292L4.14601 6.646C4.34101 6.451 4.65901 6.451 4.85401 6.646ZM14.5 8.5H6.50001C6.22401 8.5 6.00001 8.276 6.00001 8C6.00001 7.724 6.22401 7.5 6.50001 7.5H14.5C14.776 7.5 15 7.724 15 8C15 8.276 14.776 8.5 14.5 8.5Z"/></svg>