<svg width="16" height="16" viewBox="0 0 16 16" xmlns="http://www.w3.org/2000/svg" fill="currentColor"><path d="M7.999 1c.642 0 1.262.084 1.859.253a6.9 6.9 0 0 1 3.083 1.805 6.9 6.9 0 0 1 1.805 3.083c.168.597.253 1.216.253 1.859a6.84 6.84 0 0 1-.253 1.86 6.891 6.891 0 0 1-.704 1.674 7.153 7.153 0 0 1-2.516 2.509 6.967 6.967 0 0 1-1.668.71 6.977 6.977 0 0 1-1.86.247 6.981 6.981 0 0 1-1.859-.246 7.095 7.095 0 0 1-1.675-.711 7.295 7.295 0 0 1-1.415-1.094 7.293 7.293 0 0 1-1.093-1.415 7.096 7.096 0 0 1-.711-1.675A6.985 6.985 0 0 1 .999 8c0-.643.082-1.262.246-1.86a6.967 6.967 0 0 1 .71-1.667 7.155 7.155 0 0 1 2.509-2.516 6.895 6.895 0 0 1 1.675-.704A6.808 6.808 0 0 1 8 1h-.001z"/></svg>