<svg width="16" height="16" viewBox="0 0 16 16" xmlns="http://www.w3.org/2000/svg" fill="currentColor"><path fill-rule="evenodd" clip-rule="evenodd" d="M9.322 3.18l-.007-.002A4.809 4.809 0 0 0 7.999 3c-.465 0-.902.06-1.316.178l-.007.002-.006.001a4.896 4.896 0 0 0-1.188.498A5.156 5.156 0 0 0 3.68 5.486l-.004.007a4.966 4.966 0 0 0-.504 1.184A4.988 4.988 0 0 0 2.999 8c0 .468.06.907.173 1.323.123.433.292.83.506 1.194.22.37.48.708.786 1.018.31.305.648.566 1.018.786a5.1 5.1 0 0 0 1.194.506c.416.114.855.173 1.323.173.468 0 .907-.06 1.323-.173a4.962 4.962 0 0 0 1.184-.504l.007-.004a5.158 5.158 0 0 0 1.807-1.801 4.9 4.9 0 0 0 .498-1.189l.002-.006.001-.007C12.938 8.902 13 8.466 13 8c0-.465-.06-.902-.178-1.316l-.002-.007-.001-.006a4.777 4.777 0 0 0-.496-1.178l-.004-.007a4.9 4.9 0 0 0-.783-1.007l-.008-.007-.007-.008a4.904 4.904 0 0 0-1.007-.783l-.007-.004a4.772 4.772 0 0 0-1.178-.496l-.006-.001zm4.72 8.354a7.153 7.153 0 0 1-2.516 2.509 6.97 6.97 0 0 1-1.668.71A6.984 6.984 0 0 1 8 15a6.983 6.983 0 0 1-1.86-.246 7.098 7.098 0 0 1-1.674-.711 7.3 7.3 0 0 1-1.415-1.094 7.295 7.295 0 0 1-1.094-1.415 7.098 7.098 0 0 1-.71-1.675A6.985 6.985 0 0 1 .998 8c0-.643.082-1.262.246-1.86a6.968 6.968 0 0 1 .711-1.667 7.156 7.156 0 0 1 2.509-2.516 6.895 6.895 0 0 1 1.675-.704A6.808 6.808 0 0 1 7.999 1a6.8 6.8 0 0 1 1.86.253 6.9 6.9 0 0 1 3.083 1.805 6.9 6.9 0 0 1 1.804 3.083C14.915 6.738 15 7.357 15 8s-.084 1.262-.253 1.86a6.9 6.9 0 0 1-.704 1.674z"/></svg>