<svg width="16" height="16" viewBox="0 0 16 16" xmlns="http://www.w3.org/2000/svg" fill="currentColor"><path d="M11.5 2H4.5C3.121 2 2 3.121 2 4.5V11.5C2 12.879 3.121 14 4.5 14H11.5C12.879 14 14 12.879 14 11.5V4.5C14 3.121 12.879 2 11.5 2ZM6 6.5C6 6.775 5.775 7 5.5 7C5.225 7 5 6.775 5 6.5C5 6.225 5.225 6 5.5 6C5.775 6 6 6.225 6 6.5ZM11.5 13H6V11.5C6 11.225 6.225 11 6.5 11H9.092C9.299 11.581 9.849 12 10.5 12C11.327 12 12 11.327 12 10.5C12 9.673 11.327 9 10.5 9C9.849 9 9.299 9.419 9.092 10H6.5C5.673 10 5 10.673 5 11.5V13H4.5C3.673 13 3 12.327 3 11.5V4.5C3 3.673 3.673 3 4.5 3H5V5.092C4.419 5.299 4 5.849 4 6.5C4 7.327 4.673 8 5.5 8C6.327 8 7 7.327 7 6.5C7 5.849 6.581 5.299 6 5.092V3H11.5C12.327 3 13 3.673 13 4.5V6H10.908C10.701 5.419 10.151 5 9.5 5C8.673 5 8 5.673 8 6.5C8 7.327 8.673 8 9.5 8C10.151 8 10.701 7.581 10.908 7H13V11.5C13 12.327 12.327 13 11.5 13ZM10 10.5C10 10.225 10.225 10 10.5 10C10.775 10 11 10.225 11 10.5C11 10.775 10.775 11 10.5 11C10.225 11 10 10.775 10 10.5ZM10 6.5C10 6.775 9.775 7 9.5 7C9.225 7 9 6.775 9 6.5C9 6.225 9.225 6 9.5 6C9.775 6 10 6.225 10 6.5Z"/></svg>