<svg width="16" height="16" viewBox="0 0 16 16" fill="none" xmlns="http://www.w3.org/2000/svg">
<path fill-rule="evenodd" clip-rule="evenodd" d="M14.5 1H1.5L1 1.53846V14.4615L1.5 15H14.5L15 14.4615V1.53846L14.5 1ZM14 5.30769V13.9231H2V5.30769V4.23077V2.07692H14V4.23077V5.30769Z" fill="white"/>
<path d="M12 7.511C12.2652 7.511 12.5196 7.40564 12.7071 7.21811C12.8946 7.03057 13 6.77622 13 6.511C13 6.24578 12.8946 5.99143 12.7071 5.80389C12.5196 5.61636 12.2652 5.511 12 5.511C11.8297 5.5131 11.6628 5.55924 11.5156 5.64493C11.3684 5.73062 11.2459 5.85294 11.16 6H10V2H9V7H11.146C11.2303 7.15319 11.3538 7.28123 11.5039 7.37102C11.6539 7.4608 11.8251 7.50911 12 7.511Z" fill="white"/>
<path d="M4.979 3.51099C4.71379 3.51099 4.45943 3.61634 4.2719 3.80388C4.08436 3.99142 3.979 4.24577 3.979 4.51099C3.979 4.7762 4.08436 5.03056 4.2719 5.21809C4.45943 5.40563 4.71379 5.51099 4.979 5.51099C5.14932 5.509 5.3162 5.46279 5.46328 5.37689C5.61036 5.29099 5.73259 5.16835 5.818 5.02099H7V14H8V4.02099H5.833C5.74839 3.86812 5.62479 3.74039 5.47479 3.65081C5.32478 3.56123 5.15371 3.51298 4.979 3.51099Z" fill="white"/>
<path d="M5 10.182V7H1V8H4V10.167C3.84688 10.2514 3.7189 10.3749 3.62912 10.525C3.53935 10.675 3.49099 10.8462 3.489 11.021C3.489 11.2862 3.59436 11.5406 3.78189 11.7281C3.96943 11.9156 4.22378 12.021 4.489 12.021C4.75422 12.021 5.00857 11.9156 5.19611 11.7281C5.38364 11.5406 5.489 11.2862 5.489 11.021C5.48702 10.8508 5.44092 10.684 5.35521 10.537C5.2695 10.3899 5.14711 10.2676 5 10.182Z" fill="white"/>
<path d="M12 8.48901C11.8251 8.4909 11.6539 8.53921 11.5039 8.629C11.3538 8.71878 11.2303 8.84682 11.146 9.00001H9V14H10V10H11.16C11.2459 10.1471 11.3684 10.2694 11.5156 10.3551C11.6628 10.4408 11.8297 10.4869 12 10.489C12.2652 10.489 12.5196 10.3837 12.7071 10.1961C12.8946 10.0086 13 9.75423 13 9.48901C13 9.2238 12.8946 8.96944 12.7071 8.78191C12.5196 8.59437 12.2652 8.48901 12 8.48901Z" fill="white"/>
</svg>
