<svg xmlns="http://www.w3.org/2000/svg" width="12" height="12" viewBox="0 0 12 12" fill="currentColor"><path d="M8.00097 5.99805C8.00097 6.39361 7.88369 6.78023 7.66393 7.10913C7.44417 7.43803 7.1318 7.69445 6.76635 7.84583C6.40089 7.9972 5.99879 8.03677 5.61083 7.95959C5.22287 7.88242 4.86649 7.69194 4.58678 7.41223C4.30708 7.13253 4.11659 6.77615 4.03942 6.38818C3.96225 6.00022 4.00181 5.59812 4.15319 5.23267C4.30456 4.86721 4.56098 4.55485 4.88988 4.33508C5.21878 4.11532 5.6054 3.99805 6.00097 3.99805C6.5314 3.99805 7.04008 4.20879 7.41515 4.58386C7.79022 4.95894 8.00097 5.46761 8.00097 5.99805Z"/></svg>