<svg width="18" height="18" viewBox="0 0 18 18" xmlns="http://www.w3.org/2000/svg" fill="currentColor"><path d="M13.5 2H4.5C3.121 2 2 3.121 2 4.5V13.5C2 14.879 3.121 16 4.5 16H13.5C14.879 16 16 14.879 16 13.5V4.5C16 3.121 14.879 2 13.5 2ZM7 7.5C7 7.775 6.775 8 6.5 8C6.225 8 6 7.775 6 7.5C6 7.225 6.225 7 6.5 7C6.775 7 7 7.225 7 7.5ZM13.5 15H7V12.5C7 12.225 7.225 12 7.5 12H10.092C10.299 12.581 10.849 13 11.5 13C12.327 13 13 12.327 13 11.5C13 10.673 12.327 10 11.5 10C10.849 10 10.299 10.419 10.092 11H7.5C6.673 11 6 11.673 6 12.5V15H4.5C3.673 15 3 14.327 3 13.5V4.5C3 3.673 3.673 3 4.5 3H6V6.092C5.419 6.299 5 6.849 5 7.5C5 8.327 5.673 9 6.5 9C7.327 9 8 8.327 8 7.5C8 6.849 7.581 6.299 7 6.092V3H13.5C14.327 3 15 3.673 15 4.5V7H11.908C11.701 6.419 11.151 6 10.5 6C9.673 6 9 6.673 9 7.5C9 8.327 9.673 9 10.5 9C11.151 9 11.701 8.581 11.908 8H15V13.5C15 14.327 14.327 15 13.5 15ZM11 11.5C11 11.225 11.225 11 11.5 11C11.775 11 12 11.225 12 11.5C12 11.775 11.775 12 11.5 12C11.225 12 11 11.775 11 11.5ZM11 7.5C11 7.775 10.775 8 10.5 8C10.225 8 10 7.775 10 7.5C10 7.225 10.225 7 10.5 7C10.775 7 11 7.225 11 7.5Z"/></svg>