<svg width="18" height="18" viewBox="0 0 18 18" xmlns="http://www.w3.org/2000/svg" fill="currentColor"><path d="M14.5004 13.0004C14.7762 13.0006 15.0004 13.2245 15.0004 13.5004C15.0002 13.7761 14.7761 14.0002 14.5004 14.0004H3.50037C3.22449 14.0004 3.00056 13.7762 3.00037 13.5004C3.00037 13.2244 3.22437 13.0004 3.50037 13.0004H14.5004Z"/><path d="M14.5004 10.0004C14.7762 10.0006 15.0004 10.2245 15.0004 10.5004C15.0002 10.7761 14.7761 11.0002 14.5004 11.0004H3.50037C3.22449 11.0004 3.00056 10.7762 3.00037 10.5004C3.00037 10.2244 3.22437 10.0004 3.50037 10.0004H14.5004Z"/><path d="M14.5004 7.00037C14.7762 7.00056 15.0004 7.22449 15.0004 7.50037C15.0002 7.77608 14.7761 8.00017 14.5004 8.00037H8.50037C8.22449 8.00037 8.00056 7.7762 8.00037 7.50037C8.00037 7.22437 8.22437 7.00037 8.50037 7.00037H14.5004Z"/><path d="M6.50037 1.99902C6.63295 1.99911 6.76009 2.05179 6.85388 2.14551C6.94777 2.23939 7.00037 2.36722 7.00037 2.5C7.00027 2.63265 6.94769 2.75971 6.85388 2.85352L4.7074 5L6.85388 7.14551C6.94777 7.23939 7.00037 7.36722 7.00037 7.5C7.00027 7.63265 6.94769 7.75971 6.85388 7.85352C6.76008 7.94732 6.63302 7.99991 6.50037 8C6.36759 8 6.23976 7.9474 6.14587 7.85352L4.00037 5.70703L1.85388 7.85352C1.76008 7.94732 1.63302 7.99991 1.50037 8C1.36759 8 1.23976 7.9474 1.14587 7.85352C1.05216 7.75972 0.999481 7.63258 0.99939 7.5C0.99939 7.36722 1.05199 7.23939 1.14587 7.14551L3.29333 5L1.14587 2.85352C1.05216 2.75972 0.999481 2.63258 0.99939 2.5C0.99939 2.36722 1.05199 2.23939 1.14587 2.14551C1.23976 2.05162 1.36759 1.99902 1.50037 1.99902C1.63295 1.99911 1.76009 2.05179 1.85388 2.14551L4.00037 4.29297L6.14587 2.14551C6.23976 2.05162 6.36759 1.99902 6.50037 1.99902Z"/><path d="M14.5004 4.00037C14.7762 4.00056 15.0004 4.22449 15.0004 4.50037C15.0002 4.77608 14.7761 5.00017 14.5004 5.00037H8.50037C8.22449 5.00037 8.00056 4.7762 8.00037 4.50037C8.00037 4.22437 8.22437 4.00037 8.50037 4.00037H14.5004Z"/></svg>