<svg width="16" height="16" viewBox="0 0 16 16" xmlns="http://www.w3.org/2000/svg" fill="currentColor"><path d="M13.5004 12.0004C13.7762 12.0006 14.0004 12.2245 14.0004 12.5004C14.0002 12.7761 13.7761 13.0002 13.5004 13.0004H2.50037C2.22449 13.0004 2.00056 12.7762 2.00037 12.5004C2.00037 12.2244 2.22437 12.0004 2.50037 12.0004H13.5004Z"/><path d="M13.5004 9.00037C13.7762 9.00056 14.0004 9.22449 14.0004 9.50037C14.0002 9.77608 13.7761 10.0002 13.5004 10.0004H2.50037C2.22449 10.0004 2.00056 9.7762 2.00037 9.50037C2.00037 9.22437 2.22437 9.00037 2.50037 9.00037H13.5004Z"/><path d="M13.5004 6.00037C13.7762 6.00056 14.0004 6.22449 14.0004 6.50037C14.0002 6.77608 13.7761 7.00017 13.5004 7.00037H7.50037C7.22449 7.00037 7.00056 6.7762 7.00037 6.50037C7.00037 6.22437 7.22437 6.00037 7.50037 6.00037H13.5004Z"/><path d="M5.50037 0.999023C5.63295 0.999115 5.76009 1.05179 5.85388 1.14551C5.94777 1.23939 6.00037 1.36722 6.00037 1.5C6.00027 1.63265 5.94769 1.75971 5.85388 1.85352L3.7074 4L5.85388 6.14551C5.94777 6.23939 6.00037 6.36722 6.00037 6.5C6.00027 6.63265 5.94769 6.75971 5.85388 6.85352C5.76008 6.94732 5.63302 6.99991 5.50037 7C5.36759 7 5.23976 6.9474 5.14587 6.85352L3.00037 4.70703L0.853882 6.85352C0.760077 6.94732 0.633017 6.99991 0.500366 7C0.36759 7 0.239761 6.9474 0.145874 6.85352C0.0521583 6.75972 -0.000519052 6.63258 -0.000610352 6.5C-0.000610354 6.36722 0.0519875 6.23939 0.145874 6.14551L2.29333 4L0.145874 1.85352C0.0521583 1.75972 -0.000519119 1.63258 -0.000610352 1.5C-0.000610351 1.36722 0.0519874 1.23939 0.145874 1.14551C0.239761 1.05162 0.36759 0.999023 0.500366 0.999023C0.63295 0.999115 0.76009 1.05179 0.853882 1.14551L3.00037 3.29297L5.14587 1.14551C5.23976 1.05162 5.36759 0.999023 5.50037 0.999023Z"/><path d="M13.5004 3.00037C13.7762 3.00056 14.0004 3.22449 14.0004 3.50037C14.0002 3.77608 13.7761 4.00017 13.5004 4.00037H7.50037C7.22449 4.00037 7.00056 3.7762 7.00037 3.50037C7.00037 3.22437 7.22437 3.00037 7.50037 3.00037H13.5004Z"/></svg>