<svg width="16" height="16" viewBox="0 0 16 16" xmlns="http://www.w3.org/2000/svg" fill="currentColor"><path d="M13.5004 12.0004C13.7762 12.0006 14.0004 12.2245 14.0004 12.5004C14.0002 12.7761 13.7761 13.0002 13.5004 13.0004H2.50037C2.22449 13.0004 2.00056 12.7762 2.00037 12.5004C2.00037 12.2244 2.22437 12.0004 2.50037 12.0004H13.5004Z"/><path d="M13.5004 9.00037C13.7762 9.00056 14.0004 9.22449 14.0004 9.50037C14.0002 9.77608 13.7761 10.0002 13.5004 10.0004H2.50037C2.22449 10.0004 2.00056 9.7762 2.00037 9.50037C2.00037 9.22437 2.22437 9.00037 2.50037 9.00037H13.5004Z"/><path d="M13.5004 6.00037C13.7762 6.00056 14.0004 6.22449 14.0004 6.50037C14.0002 6.77608 13.7761 7.00017 13.5004 7.00037H7.50037C7.22449 7.00037 7.00056 6.7762 7.00037 6.50037C7.00037 6.22437 7.22437 6.00037 7.50037 6.00037H13.5004Z"/><path d="M5.50037 -0.000610352C5.63295 -0.000519052 5.76009 0.0521583 5.85388 0.145874C5.94777 0.239761 6.00037 0.36759 6.00037 0.500366C6.00027 0.633017 5.94769 0.760077 5.85388 0.853882L3.7074 3.00037L5.85388 5.14587C5.94777 5.23976 6.00037 5.36759 6.00037 5.50037C6.00027 5.63302 5.94769 5.76008 5.85388 5.85388C5.76008 5.94769 5.63302 6.00027 5.50037 6.00037C5.36759 6.00037 5.23976 5.94777 5.14587 5.85388L3.00037 3.7074L0.853882 5.85388C0.760077 5.94769 0.633017 6.00027 0.500366 6.00037C0.36759 6.00037 0.239761 5.94777 0.145874 5.85388C0.0521583 5.76009 -0.000519052 5.63295 -0.000610352 5.50037C-0.000610354 5.36759 0.0519875 5.23976 0.145874 5.14587L2.29333 3.00037L0.145874 0.853882C0.0521583 0.76009 -0.000519119 0.63295 -0.000610352 0.500366C-0.000610351 0.36759 0.0519874 0.239761 0.145874 0.145874C0.239761 0.0519874 0.36759 -0.000610351 0.500366 -0.000610352C0.63295 -0.000519119 0.76009 0.0521583 0.853882 0.145874L3.00037 2.29333L5.14587 0.145874C5.23976 0.0519875 5.36759 -0.000610354 5.50037 -0.000610352Z"/><path d="M13.5004 3.00037C13.7762 3.00056 14.0004 3.22449 14.0004 3.50037C14.0002 3.77608 13.7761 4.00017 13.5004 4.00037H7.50037C7.22449 4.00037 7.00056 3.7762 7.00037 3.50037C7.00037 3.22437 7.22437 3.00037 7.50037 3.00037H13.5004Z"/></svg>