<svg width="16" height="16" viewBox="0 0 16 16" fill="none" xmlns="http://www.w3.org/2000/svg">
<path fill-rule="evenodd" clip-rule="evenodd" d="M7 13.9916H4V4.99159H12V6.99159H13V4.49159L12.5 3.99159H11V2.99159H10C9.99777 2.46201 9.78559 1.95494 9.41 1.58159C9.03527 1.20908 8.52837 1 8 1C7.47163 1 6.96473 1.20908 6.59 1.58159C6.21441 1.95494 6.00223 2.46201 6 2.99159H4.94V3.99159H3.5L3 4.49159V14.4916L3.5 14.9916H7V13.9916ZM7 2.79159C7.03697 2.59305 7.13319 2.41037 7.27599 2.26757C7.41879 2.12478 7.60147 2.02856 7.8 1.99159C7.995 1.95352 8.19692 1.97441 8.38 2.05159C8.56399 2.12151 8.72139 2.24743 8.83 2.41159C8.96101 2.60413 9.02071 2.83635 8.9988 3.0682C8.9769 3.30006 8.87475 3.51699 8.71 3.68159C8.54541 3.84634 8.32847 3.94848 8.09662 3.97039C7.86477 3.9923 7.63254 3.93259 7.44 3.80159C7.27585 3.69298 7.14993 3.53558 7.08 3.35159C6.99999 3.17651 6.97221 2.98206 7 2.79159ZM14.08 12.2516L13 13.3416V7.99158H12V13.3316L10.92 12.2516L10.21 12.9616L12.15 14.8916H12.86L14.79 12.9616L14.08 12.2516ZM8.16 8.09155H8.87L10.8 10.0216L10.09 10.7316L9.01 9.65155V14.9916H8.01V9.64155L6.93 10.7316L6.22 10.0216L8.16 8.09155Z" fill="white"/>
</svg>
