<svg width="16" height="16" viewBox="0 0 16 16" xmlns="http://www.w3.org/2000/svg" fill="currentColor"><path fill-rule="evenodd" clip-rule="evenodd" d="M5.08535 2.00049C5.29127 1.41789 5.84689 1.00049 6.5 1.00049H9.5C10.1531 1.00049 10.7087 1.41789 10.9146 2.00049H11.5C12.3284 2.00049 13 2.67206 13 3.50049V8.10026C12.919 8.12889 12.8402 8.16457 12.7646 8.20715C12.4603 8.37833 12.2253 8.65027 12.1 8.97611L12 8.87618V3.50049C12 3.22435 11.7761 3.00049 11.5 3.00049H10.9146C10.7087 3.58308 10.1531 4.00049 9.5 4.00049H6.5C5.84689 4.00049 5.29127 3.58308 5.08535 3.00049H4.5C4.22386 3.00049 4 3.22435 4 3.50049V13.5005C4 13.7766 4.22386 14.0005 4.5 14.0005H8V14.5001C8.00164 14.6722 8.03284 14.8413 8.09101 15.0005H4.5C3.67157 15.0005 3 14.3289 3 13.5005V3.50049C3 2.67206 3.67157 2.00049 4.5 2.00049H5.08535ZM6.5 2.00049C6.22386 2.00049 6 2.22435 6 2.50049C6 2.77663 6.22386 3.00049 6.5 3.00049H9.5C9.77614 3.00049 10 2.77663 10 2.50049C10 2.22435 9.77614 2.00049 9.5 2.00049H6.5Z"/><path d="M11.916 10.7783C11.971 10.6959 12.0002 10.599 12 10.5C11.9998 10.4345 11.9869 10.3696 11.962 10.309C11.937 10.2484 11.9003 10.1934 11.854 10.147L9.85401 8.147C9.80801 8.09999 9.75288 8.0629 9.69201 8.038C9.63109 8.01296 9.56587 8.00005 9.50001 8C9.36766 8.00003 9.24071 8.05253 9.14701 8.146L7.14701 10.146C7.10043 10.1924 7.06346 10.2476 7.03824 10.3084C7.01301 10.3691 7.00002 10.4342 7.00001 10.5C6.99943 10.5993 7.02844 10.6965 7.08334 10.7793C7.13824 10.8621 7.21655 10.9266 7.30827 10.9647C7.39999 11.0028 7.50098 11.0127 7.59835 10.9931C7.69572 10.9736 7.78507 10.9255 7.85501 10.855L9.00001 9.708L9.00001 14.5C9.00001 14.6326 9.05269 14.7598 9.14645 14.8536C9.24022 14.9473 9.3674 15 9.50001 15C9.63262 15 9.75979 14.9473 9.85356 14.8536C9.94733 14.7598 10 14.6326 10 14.5L10 9.708L11.146 10.854C11.2159 10.9241 11.3051 10.9719 11.4022 10.9912C11.4993 11.0106 11.6 11.0007 11.6915 10.9628C11.7829 10.9249 11.8611 10.8606 11.916 10.7783Z"/><path d="M11.084 13.2217C11.0291 13.3041 10.9998 13.401 11 13.5C11.0002 13.5655 11.0131 13.6304 11.038 13.691C11.063 13.7516 11.0997 13.8066 11.146 13.853L13.146 15.853C13.192 15.9 13.2471 15.9371 13.308 15.962C13.3689 15.987 13.4341 16 13.5 16C13.6324 16 13.7593 15.9475 13.853 15.854L15.853 13.854C15.8996 13.8076 15.9365 13.7524 15.9618 13.6916C15.987 13.6309 16 13.5658 16 13.5C16.0006 13.4007 15.9716 13.3035 15.9167 13.2207C15.8618 13.1379 15.7835 13.0734 15.6917 13.0353C15.6 12.9972 15.499 12.9873 15.4017 13.0069C15.3043 13.0264 15.2149 13.0745 15.145 13.145L14 14.292V9.5C14 9.36739 13.9473 9.24021 13.8536 9.14645C13.7598 9.05268 13.6326 9 13.5 9C13.3674 9 13.2402 9.05268 13.1464 9.14645C13.0527 9.24021 13 9.36739 13 9.5V14.292L11.854 13.146C11.7841 13.0759 11.6949 13.0281 11.5978 13.0088C11.5007 12.9894 11.4 12.9993 11.3085 13.0372C11.2171 13.0751 11.1389 13.1394 11.084 13.2217Z"/></svg>