<svg width="18" height="18" viewBox="0 0 18 18" xmlns="http://www.w3.org/2000/svg" fill="currentColor"><path d="M10.853 5.853L8.707 7.999L10.853 10.145C11.048 10.34 11.048 10.657 10.853 10.852C10.658 11.047 10.341 11.047 10.146 10.852L8 8.706L5.854 10.852C5.659 11.047 5.342 11.047 5.147 10.852C4.952 10.657 4.952 10.34 5.147 10.145L7.293 7.999L5.147 5.853C4.952 5.658 4.952 5.341 5.147 5.146C5.342 4.951 5.659 4.951 5.854 5.146L8 7.292L10.146 5.146C10.341 4.951 10.658 4.951 10.853 5.146C11.048 5.341 11.048 5.658 10.853 5.853ZM15 4.268V12C15 13.657 13.657 15 12 15H4.268C4.614 15.598 5.26 16 6 16H12C14.209 16 16 14.209 16 12V6C16 5.26 15.598 4.613 15 4.268ZM12 14H4C2.895 14 2 13.105 2 12V4C2 2.895 2.895 2 4 2H12C13.105 2 14 2.895 14 4V12C14 13.105 13.105 14 12 14ZM4 13H12C12.552 13 13 12.552 13 12V4C13 3.448 12.552 3 12 3H4C3.448 3 3 3.448 3 4V12C3 12.552 3.448 13 4 13Z"/></svg>