<svg width="16" height="16" viewBox="0 0 16 16" xmlns="http://www.w3.org/2000/svg" fill="currentColor"><path d="M10 12C11.105 12 12 11.105 12 10V4C12 2.895 11.105 2 10 2H4C2.895 2 2 2.895 2 4V10C2 11.105 2.895 12 4 12H10ZM3 10V4C3 3.448 3.448 3 4 3H10C10.552 3 11 3.448 11 4V10C11 10.552 10.552 11 10 11H4C3.448 11 3 10.552 3 10ZM14 5V10.5C14 12.433 12.433 14 10.5 14H5C4.26 14 3.613 13.598 3.268 13H10.5C11.881 13 13 11.881 13 10.5V3.268C13.598 3.614 14 4.26 14 5ZM4.646 8.646L6.292 7L4.646 5.354C4.451 5.159 4.451 4.842 4.646 4.647C4.841 4.452 5.158 4.452 5.353 4.647L6.999 6.293L8.645 4.647C8.84 4.452 9.157 4.452 9.352 4.647C9.547 4.842 9.547 5.159 9.352 5.354L7.706 7L9.352 8.646C9.547 8.841 9.547 9.158 9.352 9.353C9.254 9.451 9.126 9.499 8.998 9.499C8.87 9.499 8.742 9.45 8.644 9.353L6.998 7.707L5.352 9.353C5.254 9.451 5.126 9.499 4.998 9.499C4.87 9.499 4.742 9.45 4.644 9.353C4.449 9.158 4.449 8.841 4.644 8.646H4.646Z"/></svg>