<svg xmlns="http://www.w3.org/2000/svg" width="12" height="12" viewBox="0 0 12 12" fill="currentColor"><path d="M10.1499 1.14013C10.3498 0.940199 10.6598 0.940342 10.8599 1.14013C11.0599 1.34013 11.0599 1.65009 10.8599 1.85009L6.71239 5.99267L10.8599 10.1401C11.0599 10.3401 11.0599 10.6501 10.8599 10.8501C10.7599 10.95 10.6302 11.0004 10.5102 11.0005H10.5005C10.3705 11.0005 10.2399 10.9501 10.1499 10.8501L6.00146 6.70165L1.85009 10.8501C1.7502 10.95 1.62037 11.0004 1.50048 11.0005C1.37048 11.0005 1.23989 10.9501 1.14989 10.8501C0.950107 10.6501 0.949965 10.3401 1.14989 10.1401L5.29442 5.99462L1.14989 1.85009C0.950107 1.65008 0.949964 1.34006 1.14989 1.14013C1.34982 0.940199 1.65985 0.940342 1.85985 1.14013L6.00438 5.28466L10.1499 1.14013Z"/></svg>