<svg width="16" height="16" viewBox="0 0 16 16" xmlns="http://www.w3.org/2000/svg" fill="currentColor"><path d="M9.853 4.853L7.707 6.999L9.853 9.145C10.048 9.34 10.048 9.657 9.853 9.852C9.658 10.047 9.341 10.047 9.146 9.852L7 7.706L4.854 9.852C4.659 10.047 4.342 10.047 4.147 9.852C3.952 9.657 3.952 9.34 4.147 9.145L6.293 6.999L4.147 4.853C3.952 4.658 3.952 4.341 4.147 4.146C4.342 3.951 4.659 3.951 4.854 4.146L7 6.292L9.146 4.146C9.341 3.951 9.658 3.951 9.853 4.146C10.048 4.341 10.048 4.658 9.853 4.853ZM14 3.268V11C14 12.657 12.657 14 11 14H3.268C3.614 14.598 4.26 15 5 15H11C13.209 15 15 13.209 15 11V5C15 4.26 14.598 3.613 14 3.268ZM11 13H3C1.895 13 1 12.105 1 11V3C1 1.895 1.895 1 3 1H11C12.105 1 13 1.895 13 3V11C13 12.105 12.105 13 11 13ZM3 12H11C11.552 12 12 11.552 12 11V3C12 2.448 11.552 2 11 2H3C2.448 2 2 2.448 2 3V11C2 11.552 2.448 12 3 12Z"/></svg>