<svg width="18" height="18" viewBox="0 0 18 18" xmlns="http://www.w3.org/2000/svg" fill="currentColor"><path d="M12.793 4.50001C12.9882 4.30476 13.3047 4.30475 13.5 4.50001C13.6952 4.69528 13.6952 5.0118 13.5 5.20704L9.70701 9.00004L13.4999 12.793C13.6951 12.9882 13.6952 13.3047 13.4999 13.5C13.3047 13.6952 12.9881 13.6952 12.7929 13.5L8.99998 9.70707L5.2071 13.5C5.01186 13.6952 4.69534 13.6952 4.50007 13.5C4.30481 13.3047 4.30481 12.9882 4.50007 12.793L8.29294 9.00004L4.5 5.20708C4.30474 5.01182 4.30476 4.69531 4.5 4.50005C4.69526 4.30478 5.01177 4.30478 5.20703 4.50005L8.99998 8.29301L12.793 4.50001Z"/></svg>