<svg width="16" height="16" viewBox="0 0 16 16" xmlns="http://www.w3.org/2000/svg" fill="currentColor"><path d="M11.5 2H4.5C3.121 2 2 3.122 2 4.5V11.5C2 12.879 3.121 14 4.5 14H11.5C12.879 14 14 12.879 14 11.5V4.5C14 3.122 12.879 2 11.5 2ZM3 11.5V4.5C3 3.673 3.673 3 4.5 3H5V13H4.5C3.673 13 3 12.327 3 11.5ZM13 11.5C13 12.327 12.327 13 11.5 13H6V3H11.5C12.327 3 13 3.673 13 4.5V11.5Z"/><path d="M7.5 5H10.5C10.776 5 11 4.776 11 4.5C11 4.224 10.776 4 10.5 4H7.5C7.224 4 7 4.224 7 4.5C7 4.776 7.224 5 7.5 5Z"/><path d="M11.5 6H8.5C8.224 6 8 6.224 8 6.5C8 6.776 8.224 7 8.5 7H11.5C11.776 7 12 6.776 12 6.5C12 6.224 11.776 6 11.5 6Z"/><path d="M10.5 10H7.5C7.224 10 7 10.224 7 10.5C7 10.776 7.224 11 7.5 11H10.5C10.776 11 11 10.776 11 10.5C11 10.224 10.776 10 10.5 10Z"/><path d="M11.5 8H8.5C8.224 8 8 8.224 8 8.5C8 8.776 8.224 9 8.5 9H11.5C11.776 9 12 8.776 12 8.5C12 8.224 11.776 8 11.5 8Z"/></svg>