<svg width="18" height="18" viewBox="0 0 18 18" xmlns="http://www.w3.org/2000/svg" fill="currentColor"><path d="M13.5 2H4.5C3.121 2 2 3.122 2 4.5V13.5C2 14.879 3.121 16 4.5 16H13.5C14.879 16 16 14.879 16 13.5V4.5C16 3.122 14.879 2 13.5 2ZM3 13.5V4.5C3 3.673 3.673 3 4.5 3H6V15H4.5C3.673 15 3 14.327 3 13.5ZM15 13.5C15 14.327 14.327 15 13.5 15H7V3H13.5C14.327 3 15 3.673 15 4.5V13.5Z"/><path d="M8.5 5H11.5C11.776 5 12 4.776 12 4.5C12 4.224 11.776 4 11.5 4H8.5C8.224 4 8 4.224 8 4.5C8 4.776 8.224 5 8.5 5Z"/><path d="M13.5 6H10.5C10.224 6 10 6.224 10 6.5C10 6.776 10.224 7 10.5 7H13.5C13.776 7 14 6.776 14 6.5C14 6.224 13.776 6 13.5 6Z"/><path d="M11.5 12H8.5C8.224 12 8 12.224 8 12.5C8 12.776 8.224 13 8.5 13H11.5C11.776 13 12 12.776 12 12.5C12 12.224 11.776 12 11.5 12Z"/><path d="M13.5 8H10.5C10.224 8 10 8.224 10 8.5C10 8.776 10.224 9 10.5 9H13.5C13.776 9 14 8.776 14 8.5C14 8.224 13.776 8 13.5 8Z"/><path d="M13.5 10H10.5C10.224 10 10 10.224 10 10.5C10 10.776 10.224 11 10.5 11H13.5C13.776 11 14 10.776 14 10.5C14 10.224 13.776 10 13.5 10Z"/></svg>