<svg width="16" height="16" viewBox="0 0 16 16" xmlns="http://www.w3.org/2000/svg" fill="currentColor"><path d="M14 4.27051C14.5999 4.62053 15 5.26009 15 6V11C15 13.21 13.21 15 11 15H6C5.26009 15 4.62053 14.5999 4.27051 14H11C12.65 14 14 12.65 14 11V4.27051Z"/><path d="M9.5 7C9.776 7 10 7.224 10 7.5C10 7.776 9.776 8 9.5 8H5.5C5.224 8 5 7.776 5 7.5C5 7.224 5.224 7 5.5 7H9.5Z"/><path fill-rule="evenodd" clip-rule="evenodd" d="M11 2C12.103 2 13 2.897 13 4V11C13 12.103 12.103 13 11 13H4C2.897 13 2 12.103 2 11V4C2 2.897 2.897 2 4 2H11ZM4 3C3.449 3 3 3.449 3 4V11C3 11.552 3.449 12 4 12H11C11.551 12 12 11.552 12 11V4C12 3.449 11.551 3 11 3H4Z"/></svg>