<svg xmlns="http://www.w3.org/2000/svg" width="12" height="12" viewBox="0 0 12 12" fill="currentColor"><path d="M11 2.08984C11.58 2.28984 12 2.85 12 3.5V8.5C11.9999 10.4299 10.4299 12 8.5 12H3.5C2.85006 12 2.28985 11.5799 2.08984 11H8.5C9.87995 11 10.9999 9.87993 11 8.5V2.08984Z"/><path d="M7.5 4.5C7.78 4.5 8 4.72 8 5C8 5.28 7.78 5.5 7.5 5.5H2.5C2.22 5.5 2 5.28 2 5C2 4.72 2.22 4.5 2.5 4.5H7.5Z"/><path fill-rule="evenodd" clip-rule="evenodd" d="M8.5 0C9.33 0 10 0.67 10 1.5V8.5C10 9.33 9.33 10 8.5 10H1.5C0.67 10 0 9.33 0 8.5V1.5C0 0.67 0.67 0 1.5 0H8.5ZM1.5 1C1.22 1 1 1.22 1 1.5V8.5C1 8.78 1.22 9 1.5 9H8.5C8.78 9 9 8.78 9 8.5V1.5C9 1.22 8.78 1 8.5 1H1.5Z"/></svg>