<svg width="18" height="18" viewBox="0 0 18 18" xmlns="http://www.w3.org/2000/svg" fill="currentColor"><path d="M15 4.268V12C15 13.657 13.657 15 12 15H4.268C4.614 15.598 5.26 16 6 16H12C14.209 16 16 14.209 16 12V6C16 5.26 15.598 4.613 15 4.268ZM10.5 8.5C10.776 8.5 11 8.276 11 8C11 7.724 10.776 7.5 10.5 7.5H5.5C5.224 7.5 5 7.724 5 8C5 8.276 5.224 8.5 5.5 8.5H10.5ZM12 2C13.105 2 14 2.895 14 4V12C14 13.105 13.105 14 12 14H4C2.895 14 2 13.105 2 12V4C2 2.895 2.895 2 4 2H12ZM13 4C13 3.448 12.552 3 12 3H4C3.448 3 3 3.448 3 4V12C3 12.552 3.448 13 4 13H12C12.552 13 13 12.552 13 12V4Z"/></svg>