<svg width="16" height="16" viewBox="0 0 16 16" xmlns="http://www.w3.org/2000/svg" fill="currentColor"><path d="M14 3.268V11C14 12.657 12.657 14 11 14H3.268C3.614 14.598 4.26 15 5 15H11C13.209 15 15 13.209 15 11V5C15 4.26 14.598 3.613 14 3.268ZM9.5 7.5C9.776 7.5 10 7.276 10 7C10 6.724 9.776 6.5 9.5 6.5H4.5C4.224 6.5 4 6.724 4 7C4 7.276 4.224 7.5 4.5 7.5H9.5ZM11 1C12.105 1 13 1.895 13 3V11C13 12.105 12.105 13 11 13H3C1.895 13 1 12.105 1 11V3C1 1.895 1.895 1 3 1H11ZM12 3C12 2.448 11.552 2 11 2H3C2.448 2 2 2.448 2 3V11C2 11.552 2.448 12 3 12H11C11.552 12 12 11.552 12 11V3Z"/></svg>