<svg width="16" height="16" viewBox="0 0 16 16" xmlns="http://www.w3.org/2000/svg" fill="currentColor"><path d="M8 1.00195C6.61553 1.00195 5.26216 1.4125 4.11101 2.18167C2.95987 2.95084 2.06266 4.04409 1.53285 5.32317C1.00303 6.60225 0.86441 8.00972 1.13451 9.36759C1.4046 10.7255 2.07129 11.9727 3.05026 12.9517C4.02922 13.9307 5.27651 14.5974 6.63437 14.8675C7.99224 15.1375 9.3997 14.9989 10.6788 14.4691C11.9579 13.9393 13.0511 13.0421 13.8203 11.8909C14.5895 10.7398 15 9.38642 15 8.00195C15 6.14544 14.2625 4.36496 12.9498 3.05221C11.637 1.73945 9.85652 1.00195 8 1.00195ZM8 14.002V2.00195C9.5913 2.00195 11.1174 2.63409 12.2426 3.75931C13.3679 4.88453 14 6.41065 14 8.00195C14 9.59325 13.3679 11.1194 12.2426 12.2446C11.1174 13.3698 9.5913 14.002 8 14.002Z"/></svg>