<svg width="18" height="18" viewBox="0 0 18 18" xmlns="http://www.w3.org/2000/svg" fill="currentColor"><path d="M9 2.00244C7.61553 2.00244 6.26216 2.41298 5.11101 3.18215C3.95987 3.95132 3.06266 5.04457 2.53285 6.32366C2.00303 7.60274 1.86441 9.01021 2.13451 10.3681C2.4046 11.7259 3.07129 12.9732 4.05026 13.9522C5.02922 14.9312 6.2765 15.5978 7.63437 15.8679C8.99224 16.138 10.3997 15.9994 11.6788 15.4696C12.9579 14.9398 14.0511 14.0426 14.8203 12.8914C15.5895 11.7403 16 10.3869 16 9.00244C16 7.14593 15.2625 5.36545 13.9497 4.05269C12.637 2.73994 10.8565 2.00244 9 2.00244ZM9 15.0024V3.00244C10.5913 3.00244 12.1174 3.63458 13.2426 4.7598C14.3679 5.88502 15 7.41114 15 9.00244C15 10.5937 14.3679 12.1199 13.2426 13.2451C12.1174 14.3703 10.5913 15.0024 9 15.0024Z"/></svg>