<svg width="18" height="18" viewBox="0 0 18 18" xmlns="http://www.w3.org/2000/svg" fill="currentColor"><path d="M10.055 3.672C10.019 3.622 9.999 3.561 9.999 3.498C9.999 3.435 10.019 3.374 10.055 3.323C10.091 3.272 10.142 3.233 10.201 3.212L10.373 3.157H10.375L10.97 2.964C11.167 2.896 11.348 2.79 11.503 2.652C11.529 2.629 11.554 2.605 11.579 2.58C11.75 2.407 11.878 2.197 11.954 1.966L12.203 1.201C12.223 1.142 12.262 1.091 12.313 1.055C12.364 1.019 12.425 1 12.488 1H12.503C12.56 1.003 12.615 1.022 12.662 1.055C12.714 1.091 12.752 1.142 12.773 1.201L13.022 1.966C13.099 2.198 13.23 2.41 13.403 2.583C13.458 2.638 13.517 2.689 13.579 2.735C13.713 2.834 13.862 2.911 14.021 2.964L14.786 3.213L14.801 3.217C14.86 3.237 14.911 3.275 14.947 3.326C14.984 3.378 15.003 3.438 15.003 3.501C15.003 3.564 14.983 3.625 14.947 3.676C14.911 3.727 14.86 3.765 14.801 3.786L14.036 4.035C13.803 4.112 13.591 4.243 13.418 4.416C13.245 4.589 13.114 4.8 13.037 5.033L12.788 5.798C12.781 5.817 12.772 5.836 12.761 5.854C12.739 5.889 12.711 5.92 12.677 5.944C12.627 5.98 12.567 6 12.506 6H12.502C12.439 6 12.378 5.98 12.327 5.944C12.275 5.908 12.237 5.857 12.216 5.798L11.967 5.033C11.958 5.006 11.948 4.979 11.938 4.952C11.86 4.75 11.74 4.566 11.586 4.413C11.483 4.311 11.368 4.223 11.242 4.152C11.183 4.119 11.121 4.089 11.058 4.064C11.056 4.064 11.051 4.061 11.051 4.061L10.968 4.031L10.201 3.782C10.142 3.761 10.091 3.723 10.055 3.672ZM15.718 9.775C15.508 9.922 15.26 10.001 15.003 10.001H15V12.5C15 12.63 14.95 12.76 14.85 12.85C14.76 12.95 14.63 13 14.5 13H13.5C13.37 13 13.24 13.05 13.15 13.15C13.05 13.24 13 13.37 13 13.5V14.29L11.85 13.15C11.81 13.1 11.75 13.06 11.69 13.04C11.63 13.01 11.57 13 11.5 13H9.5C9.37 13 9.24 12.95 9.15 12.85C9.05 12.76 9 12.63 9 12.5V9.5C9 9.37 9.05 9.24 9.15 9.15C9.24 9.05 9.37 9 9.5 9H13.772L13.621 8.539C13.609 8.504 13.586 8.467 13.556 8.436C13.532 8.412 13.497 8.39 13.457 8.377L12.772 8.15V8.146C12.679 8.106 12.6 8.054 12.523 8H9.5C9.1 8 8.72 8.16 8.44 8.44C8.16 8.72 8 9.1 8 9.5V11H7.75L5 13V11H4C3.45 11 3 10.55 3 10V5C3 4.45 3.45 4 4 4H9.112C9.046 3.844 8.999 3.677 8.999 3.498C8.999 3.324 9.045 3.158 9.112 3H4C2.9 3 2 3.9 2 5V10C2 11.1 2.9 12 4 12V13C4 13.82 4.93 14.29 5.59 13.81L8 12.05V12.5C8 12.9 8.16 13.28 8.44 13.56C8.72 13.84 9.1 14 9.5 14H11.29L13.15 15.85C13.19 15.9 13.25 15.94 13.31 15.96C13.37 15.99 13.43 16 13.5 16C13.57 16 13.63 15.99 13.69 15.96C13.78 15.92 13.86 15.86 13.92 15.78C13.97 15.7 14 15.6 14 15.5V14H14.5C14.9 14 15.28 13.84 15.56 13.56C15.84 13.28 16 12.9 16 12.5V9.5C16 9.5 16 9.497 16 9.495C15.92 9.605 15.827 9.699 15.718 9.776V9.775ZM16.958 6.862C16.929 6.822 16.888 6.791 16.841 6.774L16.829 6.771L16.217 6.572V6.574C16.031 6.512 15.862 6.408 15.723 6.269C15.584 6.13 15.48 5.961 15.418 5.775L15.219 5.163C15.203 5.116 15.172 5.075 15.131 5.046C15.09 5.018 15.041 5.002 14.991 5.002C14.941 5.002 14.892 5.017 14.851 5.046C14.811 5.075 14.78 5.116 14.763 5.163L14.564 5.775C14.503 5.959 14.401 6.127 14.264 6.266C14.128 6.404 13.961 6.51 13.777 6.573L13.165 6.772C13.118 6.788 13.076 6.819 13.048 6.86C13.02 6.901 13.004 6.95 13.004 7C13.004 7.05 13.019 7.099 13.048 7.14C13.077 7.18 13.118 7.211 13.165 7.228L13.748 7.417V7.42L13.772 7.428C13.959 7.49 14.128 7.594 14.267 7.733C14.405 7.872 14.51 8.042 14.572 8.228L14.772 8.84C14.788 8.887 14.819 8.928 14.86 8.957C14.9 8.985 14.947 9.001 14.996 9.001H15.003C15.053 9.001 15.102 8.986 15.143 8.957C15.184 8.928 15.214 8.887 15.231 8.84L15.43 8.228C15.492 8.042 15.596 7.873 15.735 7.734C15.874 7.595 16.043 7.491 16.229 7.429L16.841 7.23C16.888 7.214 16.93 7.183 16.958 7.142C16.986 7.101 17.002 7.052 17.002 7.002C17.002 6.952 16.987 6.903 16.958 6.862Z"/></svg>