<svg width="16" height="16" viewBox="0 0 16 16" xmlns="http://www.w3.org/2000/svg" fill="currentColor"><path d="M14.56 7.44049C14.28 7.16049 13.9 7.00049 13.5 7.00049H13V4.00049C13 2.90049 12.1 2.00049 11 2.00049H3C1.9 2.00049 1 2.90049 1 4.00049V9.00049C1 10.1005 1.9 11.0005 3 11.0005V12.0005C3 12.8205 3.93 13.2905 4.59 12.8105L7 11.0505V11.5005C7 11.9005 7.16 12.2805 7.44 12.5605C7.72 12.8405 8.1 13.0005 8.5 13.0005H10.29L12.15 14.8505C12.19 14.9005 12.25 14.9405 12.31 14.9605C12.37 14.9905 12.43 15.0005 12.5 15.0005C12.57 15.0005 12.63 14.9905 12.69 14.9605C12.78 14.9205 12.86 14.8605 12.92 14.7805C12.97 14.7005 13 14.6005 13 14.5005V13.0005H13.5C13.9 13.0005 14.28 12.8405 14.56 12.5605C14.84 12.2805 15 11.9005 15 11.5005V8.50049C15 8.10049 14.84 7.72049 14.56 7.44049ZM6.75 10.0005L4 12.0005V10.0005H3C2.45 10.0005 2 9.55049 2 9.00049V4.00049C2 3.45049 2.45 3.00049 3 3.00049H11C11.55 3.00049 12 3.45049 12 4.00049V7.00049H8.5C8.1 7.00049 7.72 7.16049 7.44 7.44049C7.16 7.72049 7 8.10049 7 8.50049V10.0005H6.75ZM14 11.5005C14 11.6305 13.95 11.7605 13.85 11.8505C13.76 11.9505 13.63 12.0005 13.5 12.0005H12.5C12.37 12.0005 12.24 12.0505 12.15 12.1505C12.05 12.2405 12 12.3705 12 12.5005V13.2905L10.85 12.1505C10.81 12.1005 10.75 12.0605 10.69 12.0405C10.63 12.0105 10.57 12.0005 10.5 12.0005H8.5C8.37 12.0005 8.24 11.9505 8.15 11.8505C8.05 11.7605 8 11.6305 8 11.5005V8.50049C8 8.37049 8.05 8.24049 8.15 8.15049C8.24 8.05049 8.37 8.00049 8.5 8.00049H13.5C13.63 8.00049 13.76 8.05049 13.85 8.15049C13.95 8.24049 14 8.37049 14 8.50049V11.5005Z"/></svg>