<svg width="16" height="16" viewBox="0 0 16 16" xmlns="http://www.w3.org/2000/svg" fill="currentColor"><path d="M9.053 2.672C9.017 2.622 8.997 2.561 8.997 2.498C8.997 2.435 9.017 2.374 9.053 2.323C9.089 2.272 9.14 2.233 9.199 2.212L9.371 2.157H9.373L9.968 1.964C10.165 1.896 10.346 1.79 10.501 1.652C10.527 1.629 10.552 1.605 10.577 1.58C10.748 1.407 10.876 1.197 10.952 0.966L11.201 0.201C11.221 0.142 11.26 0.091 11.311 0.055C11.362 0.019 11.423 0 11.486 0H11.501C11.558 0.003 11.613 0.022 11.66 0.055C11.712 0.091 11.75 0.142 11.771 0.201L12.02 0.966C12.097 1.198 12.228 1.41 12.401 1.583C12.456 1.638 12.515 1.689 12.577 1.735C12.711 1.834 12.86 1.911 13.019 1.964L13.784 2.213L13.799 2.217C13.858 2.237 13.909 2.275 13.945 2.326C13.982 2.378 14.001 2.438 14.001 2.501C14.001 2.564 13.981 2.625 13.945 2.676C13.909 2.727 13.858 2.765 13.799 2.786L13.034 3.035C12.801 3.112 12.589 3.243 12.416 3.416C12.243 3.589 12.112 3.8 12.035 4.033L11.786 4.798C11.779 4.817 11.77 4.836 11.759 4.854C11.737 4.889 11.709 4.92 11.675 4.944C11.625 4.98 11.565 5 11.504 5H11.5C11.437 5 11.376 4.98 11.325 4.944C11.273 4.908 11.235 4.857 11.214 4.798L10.965 4.033C10.956 4.006 10.946 3.979 10.936 3.952C10.858 3.75 10.738 3.566 10.584 3.413C10.481 3.311 10.366 3.223 10.24 3.152C10.181 3.119 10.119 3.089 10.056 3.064C10.054 3.064 10.049 3.061 10.049 3.061L9.966 3.031L9.199 2.782C9.14 2.761 9.089 2.723 9.053 2.672ZM14.775 8.719C14.915 8.947 15 9.213 15 9.5V12.5C15 13.327 14.327 14 13.5 14H13V15.5C13 15.702 12.878 15.885 12.691 15.962C12.629 15.987 12.564 16 12.5 16C12.37 16 12.242 15.949 12.146 15.854L10.292 14H8.499C7.672 14 6.999 13.327 6.999 12.5V9.5C6.999 8.673 7.672 8 8.499 8H12.769L12.823 8.165C12.907 8.41 13.064 8.619 13.279 8.773C13.489 8.921 13.737 9.001 13.993 9.001H14C14.261 9.001 14.511 8.921 14.722 8.771C14.742 8.757 14.755 8.735 14.774 8.72L14.775 8.719ZM14 9.5C14 9.225 13.776 9 13.5 9H8.5C8.224 9 8 9.225 8 9.5V12.5C8 12.775 8.224 13 8.5 13H10.5C10.633 13 10.76 13.053 10.854 13.146L12 14.292V13.499C12 13.223 12.224 12.999 12.5 12.999H13.5C13.776 12.999 14 12.774 14 12.499V9.499V9.5ZM3 9H2C1.449 9 1 8.552 1 8V4C1 3.448 1.449 3 2 3H8.112C8.045 2.84 7.997 2.672 7.997 2.498C7.997 2.324 8.043 2.158 8.11 2H2C0.897 2 0 2.897 0 4V8C0 9.103 0.897 10 2 10V12C2 12.552 2.449 13 3 13C3.198 13 3.389 12.942 3.612 12.787L6 10.626V9.499C6 9.416 6.017 9.337 6.025 9.256L3 11.999V8.999V9ZM15.956 5.862C15.927 5.822 15.886 5.791 15.839 5.774L15.827 5.771L15.215 5.572V5.574C15.029 5.512 14.86 5.408 14.721 5.269C14.582 5.13 14.478 4.961 14.416 4.775L14.217 4.163C14.201 4.116 14.17 4.075 14.129 4.046C14.088 4.018 14.039 4.002 13.989 4.002C13.939 4.002 13.89 4.017 13.849 4.046C13.809 4.075 13.778 4.116 13.761 4.163L13.562 4.775C13.501 4.959 13.399 5.127 13.262 5.266C13.126 5.404 12.959 5.51 12.775 5.573L12.163 5.772C12.116 5.788 12.074 5.819 12.046 5.86C12.018 5.901 12.002 5.95 12.002 6C12.002 6.05 12.017 6.099 12.046 6.14C12.075 6.18 12.116 6.211 12.163 6.228L12.746 6.417V6.42L12.77 6.428C12.957 6.49 13.126 6.594 13.265 6.733C13.403 6.872 13.508 7.042 13.57 7.228L13.77 7.84C13.786 7.887 13.817 7.928 13.858 7.957C13.898 7.985 13.945 8.001 13.994 8.001H14.001C14.051 8.001 14.1 7.986 14.141 7.957C14.182 7.928 14.212 7.887 14.229 7.84L14.428 7.228C14.49 7.042 14.594 6.873 14.733 6.734C14.872 6.595 15.041 6.491 15.227 6.429L15.839 6.23C15.886 6.214 15.928 6.183 15.956 6.142C15.984 6.101 16 6.052 16 6.002C16 5.952 15.985 5.903 15.956 5.862Z"/></svg>