<svg width="16" height="16" viewBox="0 0 16 16" xmlns="http://www.w3.org/2000/svg" fill="currentColor"><path d="M7.282 3.09851L8.354 2.75051C8.676 2.63951 8.968 2.45551 9.206 2.21351C9.444 1.97151 9.624 1.67651 9.731 1.35351L10.079 0.282512C10.108 0.199512 10.162 0.128512 10.234 0.0775117C10.305 0.0265117 10.391 -0.000488281 10.478 -0.000488281C10.565 -0.000488281 10.651 0.0265117 10.723 0.0775117C10.795 0.128512 10.848 0.199512 10.878 0.282512L11.226 1.35351C11.334 1.67951 11.517 1.97451 11.76 2.21751C12.003 2.46051 12.299 2.64251 12.625 2.75051L13.697 3.09851L13.718 3.10351C13.801 3.13251 13.872 3.18651 13.923 3.25851C13.974 3.32951 14.001 3.41551 14.001 3.50251C14.001 3.58951 13.974 3.67551 13.923 3.74651C13.872 3.81751 13.801 3.87151 13.718 3.90151L12.646 4.24951C12.32 4.35751 12.024 4.54051 11.781 4.78251C11.538 5.02551 11.355 5.32051 11.247 5.64651L10.899 6.71751C10.87 6.80051 10.816 6.87151 10.744 6.92251C10.672 6.97351 10.587 7.00051 10.499 7.00051C10.411 7.00051 10.326 6.97351 10.254 6.92251C10.247 6.91751 10.24 6.91251 10.233 6.90651C10.172 6.85751 10.125 6.79151 10.099 6.71751L9.751 5.64651C9.732 5.58951 9.711 5.53351 9.688 5.47851C9.578 5.21751 9.419 4.98051 9.218 4.77951C9.18 4.74151 9.14 4.70451 9.1 4.66951C8.882 4.48051 8.628 4.33551 8.353 4.24351L7.281 3.89551C7.198 3.86651 7.127 3.81251 7.076 3.74051C7.025 3.66951 6.998 3.58351 6.998 3.49651C6.998 3.40951 7.025 3.32351 7.076 3.25251C7.127 3.18151 7.198 3.12751 7.281 3.09751L7.282 3.09851ZM14.736 11.1085C14.639 11.3835 14.475 11.6015 14.255 11.7585C14.033 11.9165 13.773 11.9995 13.5 11.9995H12.5C12.37 11.9995 12.24 12.0495 12.15 12.1495C12.05 12.2395 12 12.3695 12 12.4995V13.2895L10.85 12.1495C10.81 12.0995 10.75 12.0595 10.69 12.0395C10.63 12.0095 10.57 11.9995 10.5 11.9995H8.5C8.37 11.9995 8.24 11.9495 8.15 11.8495C8.05 11.7595 8 11.6295 8 11.4995V8.49951C8 8.36951 8.05 8.23951 8.15 8.14951C8.24 8.04951 8.37 7.99951 8.5 7.99951H10.12C10.128 7.98151 10.132 7.96151 10.141 7.94351C9.978 7.90051 9.821 7.83751 9.68 7.73851L9.627 7.70151L9.56 7.64251C9.404 7.51951 9.248 7.30051 9.159 7.05051L9.142 6.99851H8.501C8.101 6.99851 7.721 7.15851 7.441 7.43851C7.161 7.71851 7.001 8.09851 7.001 8.49851V9.99851H6.751L4.001 11.9985V9.99851H3.001C2.451 9.99851 2.001 9.54851 2.001 8.99851V3.99851C2.001 3.44851 2.451 2.99851 3.001 2.99851H6.101C6.143 2.88551 6.191 2.77451 6.262 2.67451C6.436 2.42951 6.675 2.25051 6.954 2.15251L7.429 1.99851H3C1.9 1.99851 1 2.89851 1 3.99851V8.99851C1 10.0985 1.9 10.9985 3 10.9985V11.9985C3 12.8185 3.93 13.2885 4.59 12.8085L7 11.0485V11.4985C7 11.8985 7.16 12.2785 7.44 12.5585C7.72 12.8385 8.1 12.9985 8.5 12.9985H10.29L12.15 14.8485C12.19 14.8985 12.25 14.9385 12.31 14.9585C12.37 14.9885 12.43 14.9985 12.5 14.9985C12.57 14.9985 12.63 14.9885 12.69 14.9585C12.78 14.9185 12.86 14.8585 12.92 14.7785C12.97 14.6985 13 14.5985 13 14.4985V12.9985H13.5C13.9 12.9985 14.28 12.8385 14.56 12.5585C14.84 12.2785 15 11.8985 15 11.4985V10.3195C14.996 10.3295 14.987 10.3365 14.983 10.3465L14.736 11.1065V11.1085ZM15.945 8.32751C15.909 8.27651 15.858 8.23751 15.799 8.21751L15.784 8.21351L15.019 7.96451C14.786 7.88751 14.575 7.75651 14.401 7.58351C14.227 7.41051 14.097 7.19851 14.02 6.96651L13.771 6.20151C13.75 6.14251 13.712 6.09151 13.661 6.05551C13.61 6.01951 13.549 6.00051 13.486 6.00051C13.423 6.00051 13.362 6.01951 13.311 6.05551C13.26 6.09151 13.221 6.14251 13.201 6.20151L12.952 6.96651C12.876 7.19751 12.748 7.40751 12.577 7.58051C12.406 7.75351 12.198 7.88551 11.968 7.96451L11.203 8.21351C11.144 8.23451 11.093 8.27251 11.057 8.32351C11.021 8.37451 11.002 8.43551 11.002 8.49851C11.002 8.56151 11.021 8.62151 11.057 8.67251C11.093 8.72351 11.144 8.76251 11.203 8.78251L11.968 9.03151C12.201 9.10951 12.413 9.24051 12.586 9.41451C12.759 9.58851 12.89 9.80051 12.967 10.0335L13.216 10.7985C13.237 10.8575 13.275 10.9085 13.326 10.9445C13.377 10.9805 13.438 10.9995 13.501 10.9995C13.564 10.9995 13.625 10.9805 13.676 10.9445C13.727 10.9085 13.766 10.8575 13.786 10.7985L14.035 10.0335C14.112 9.80151 14.243 9.58951 14.416 9.41651C14.589 9.24351 14.801 9.11251 15.034 9.03551L15.799 8.78651C15.858 8.76551 15.909 8.72751 15.945 8.67651C15.981 8.62551 16 8.56451 16 8.50251C16 8.44051 15.981 8.37951 15.945 8.32851V8.32751Z"/></svg>