<svg width="18" height="18" viewBox="0 0 18 18" xmlns="http://www.w3.org/2000/svg" fill="currentColor"><path d="M9.00001 12C7.89701 12 7.00001 12.897 7.00001 14C7.00001 15.103 7.89701 16 9.00001 16C10.103 16 11 15.103 11 14C11 12.897 10.103 12 9.00001 12ZM9.00001 15C8.44901 15 8.00001 14.552 8.00001 14C8.00001 13.448 8.44901 13 9.00001 13C9.55101 13 10 13.448 10 14C10 14.552 9.55101 15 9.00001 15ZM12.354 7.854L9.35401 10.854C9.25601 10.952 9.12801 11 9.00001 11C8.87201 11 8.74401 10.951 8.64601 10.854L5.64601 7.854C5.45101 7.659 5.45101 7.342 5.64601 7.147C5.84101 6.952 6.15801 6.952 6.35301 7.147L8.49901 9.293V2.5C8.49901 2.224 8.72301 2 8.99901 2C9.27501 2 9.49901 2.224 9.49901 2.5V9.293L11.645 7.147C11.84 6.952 12.157 6.952 12.352 7.147C12.547 7.342 12.547 7.659 12.352 7.854H12.354Z"/></svg>