<svg width="16" height="16" viewBox="0 0 16 16" xmlns="http://www.w3.org/2000/svg" fill="currentColor"><path d="M14 8C14 8.81 13.842 9.596 13.528 10.336C13.224 11.053 12.791 11.694 12.241 12.243C11.694 12.791 11.053 13.224 10.337 13.528C9.59602 13.841 8.81002 14 8.00002 14C7.19002 14 6.40402 13.842 5.66402 13.528C4.94702 13.224 4.30602 12.791 3.75702 12.242C3.20802 11.693 2.77602 11.053 2.47202 10.337C2.31002 9.956 2.48802 9.516 2.86902 9.354C3.25102 9.19 3.69002 9.37 3.85202 9.751C4.08102 10.288 4.40502 10.77 4.81802 11.181C5.23002 11.595 5.71202 11.919 6.24902 12.148C7.35602 12.615 8.64302 12.615 9.75202 12.148C10.288 11.919 10.77 11.595 11.181 11.183C11.595 10.77 11.919 10.288 12.148 9.751C12.381 9.197 12.501 8.608 12.501 8C12.501 7.392 12.382 6.803 12.148 6.248C11.919 5.712 11.595 5.23 11.182 4.819C10.77 4.405 10.288 4.081 9.75102 3.852C8.64402 3.385 7.35702 3.385 6.24802 3.852C5.71202 4.081 5.23002 4.405 4.81902 4.817C4.60802 5.027 4.42002 5.256 4.25702 5.5H6.24902C6.66302 5.5 6.99902 5.836 6.99902 6.25C6.99902 6.664 6.66302 7 6.24902 7H2.74902C2.33502 7 1.99902 6.664 1.99902 6.25V2.75C1.99902 2.336 2.33502 2 2.74902 2C3.16302 2 3.49902 2.336 3.49902 2.75V4.032C3.58202 3.938 3.66802 3.845 3.75802 3.757C4.30502 3.209 4.94602 2.776 5.66202 2.472C7.14402 1.845 8.85402 1.845 10.335 2.472C11.052 2.776 11.693 3.209 12.242 3.758C12.791 4.307 13.223 4.947 13.527 5.663C13.84 6.404 13.999 7.19 13.999 8H14Z"/></svg>