<svg width="24" height="24" viewBox="0 0 24 24" xmlns="http://www.w3.org/2000/svg" fill="currentColor"><path d="M10.95 2.25C10.95 2.05109 10.871 1.86032 10.7303 1.71967C10.5897 1.57902 10.3989 1.5 10.2 1.5C10.0011 1.5 9.81032 1.57902 9.66967 1.71967C9.52902 1.86032 9.45 2.05109 9.45 2.25V3.45C9.44951 3.86862 9.55257 4.28086 9.75 4.65C9.1081 4.83808 8.52798 5.19396 8.06946 5.68096C7.61094 6.16796 7.29061 6.76844 7.1415 7.4205C6.80965 7.313 6.5204 7.10309 6.31531 6.82091C6.11022 6.53874 5.99983 6.19883 6 5.85V3.75C6 3.55109 5.92098 3.36032 5.78033 3.21967C5.63968 3.07902 5.44891 3 5.25 3C5.05109 3 4.86032 3.07902 4.71967 3.21967C4.57902 3.36032 4.5 3.55109 4.5 3.75V5.85C4.49984 6.58143 4.75423 7.29011 5.21951 7.85447C5.68479 8.41883 6.33196 8.80368 7.05 8.943V10.5H3.75C3.55109 10.5 3.36032 10.579 3.21967 10.7197C3.07902 10.8603 3 11.0511 3 11.25C3 11.4489 3.07902 11.6397 3.21967 11.7803C3.36032 11.921 3.55109 12 3.75 12H7.05V14.55C7.05 14.712 7.05 14.8725 7.0725 15.03C6.35818 15.1328 5.70486 15.4897 5.23237 16.0352C4.75987 16.5808 4.49985 17.2783 4.5 18V20.25C4.5 20.4489 4.57902 20.6397 4.71967 20.7803C4.86032 20.921 5.05109 21 5.25 21C5.44891 21 5.63968 20.921 5.78033 20.7803C5.92098 20.6397 6 20.4489 6 20.25V18C5.99977 17.6109 6.15079 17.2369 6.42116 16.957C6.69152 16.6771 7.06008 16.5132 7.449 16.5C7.83025 17.3911 8.46474 18.1507 9.27376 18.6846C10.0828 19.2184 11.0307 19.503 12 19.503C12.9693 19.503 13.9172 19.2184 14.7262 18.6846C15.5353 18.1507 16.1697 17.3911 16.551 16.5C16.9399 16.5132 17.3085 16.6771 17.5788 16.957C17.8492 17.2369 18.0002 17.6109 18 18V20.25C18 20.4489 18.079 20.6397 18.2197 20.7803C18.3603 20.921 18.5511 21 18.75 21C18.9489 21 19.1397 20.921 19.2803 20.7803C19.421 20.6397 19.5 20.4489 19.5 20.25V18C19.5001 17.2783 19.2401 16.5808 18.7676 16.0352C18.2951 15.4897 17.6418 15.1328 16.9275 15.03C16.9425 14.8725 16.95 14.712 16.95 14.55V12H20.25C20.4489 12 20.6397 11.921 20.7803 11.7803C20.921 11.6397 21 11.4489 21 11.25C21 11.0511 20.921 10.8603 20.7803 10.7197C20.6397 10.579 20.4489 10.5 20.25 10.5H16.95V8.943C17.668 8.80368 18.3152 8.41883 18.7805 7.85447C19.2458 7.29011 19.5002 6.58143 19.5 5.85V3.75C19.5 3.55109 19.421 3.36032 19.2803 3.21967C19.1397 3.07902 18.9489 3 18.75 3C18.5511 3 18.3603 3.07902 18.2197 3.21967C18.079 3.36032 18 3.55109 18 3.75V5.85C18.0002 6.19883 17.8898 6.53874 17.6847 6.82091C17.4796 7.10309 17.1904 7.313 16.8585 7.4205C16.7104 6.76798 16.3904 6.16697 15.9318 5.67981C15.4731 5.19265 14.8924 4.83708 14.25 4.65C14.447 4.28068 14.55 3.86856 14.55 3.45V2.25C14.55 2.05109 14.471 1.86032 14.3303 1.71967C14.1897 1.57902 13.9989 1.5 13.8 1.5C13.6011 1.5 13.4103 1.57902 13.2697 1.71967C13.129 1.86032 13.05 2.05109 13.05 2.25V3.45C13.05 3.72848 12.9394 3.99555 12.7425 4.19246C12.5455 4.38938 12.2785 4.5 12 4.5C11.7215 4.5 11.4545 4.38938 11.2575 4.19246C11.0606 3.99555 10.95 3.72848 10.95 3.45V2.25ZM8.55 8.2365C8.55357 7.64211 8.79219 7.07327 9.21376 6.65423C9.63533 6.23519 10.2056 5.99999 10.8 6H13.2C13.7967 6 14.369 6.23705 14.791 6.65901C15.2129 7.08097 15.45 7.65326 15.45 8.25V14.55C15.45 15.465 15.0865 16.3425 14.4395 16.9895C13.7925 17.6365 12.915 18 12 18C11.085 18 10.2075 17.6365 9.56048 16.9895C8.91348 16.3425 8.55 15.465 8.55 14.55V8.2365Z"/><path d="M14.4 13.35C14.5083 13.4944 14.5609 13.6731 14.5481 13.8532C14.5353 14.0332 14.458 14.2027 14.3303 14.3303C14.2027 14.458 14.0332 14.5353 13.8532 14.5481C13.6731 14.5609 13.4944 14.5083 13.35 14.4L12 13.05L10.65 14.4C10.5056 14.5083 10.3269 14.5609 10.1468 14.5481C9.96675 14.5353 9.79733 14.458 9.66967 14.3303C9.54201 14.2027 9.46468 14.0332 9.45189 13.8532C9.43909 13.6731 9.49168 13.4944 9.6 13.35L10.95 12L9.6 10.65C9.49168 10.5056 9.43909 10.3269 9.45189 10.1468C9.46468 9.96675 9.54201 9.79733 9.66967 9.66967C9.79733 9.54201 9.96675 9.46468 10.1468 9.45189C10.3269 9.43909 10.5056 9.49168 10.65 9.6L12 10.95L13.35 9.6C13.4944 9.49168 13.6731 9.43909 13.8532 9.45189C14.0332 9.46468 14.2027 9.54201 14.3303 9.66967C14.458 9.79733 14.5353 9.96675 14.5481 10.1468C14.5609 10.3269 14.5083 10.5056 14.4 10.65L13.05 12L14.4 13.35Z"/></svg>