<svg width="16" height="16" viewBox="0 0 16 16" xmlns="http://www.w3.org/2000/svg" fill="currentColor"><path fill-rule="evenodd" clip-rule="evenodd" d="M4.5 0C3.60999 0 2.73996 0.26392 1.99994 0.758387C1.25991 1.25285 0.683138 1.95566 0.342544 2.77792C0.00194976 3.60019 -0.0871652 4.50499 0.0864683 5.37791C0.260102 6.25082 0.688685 7.05264 1.31802 7.68198C1.94736 8.31132 2.74918 8.7399 3.6221 8.91353C4.49501 9.08717 5.39981 8.99805 6.22208 8.65746C7.04434 8.31686 7.74715 7.74009 8.24162 7.00007C8.73608 6.26004 9 5.39002 9 4.5C9 3.30653 8.5259 2.16193 7.68198 1.31802C6.83807 0.474106 5.69348 0 4.5 0ZM3.743 6.587L6.713 4.937C6.79091 4.89368 6.85582 4.83033 6.90101 4.75349C6.94621 4.67666 6.97004 4.58914 6.97004 4.5C6.97004 4.41086 6.94621 4.32334 6.90101 4.2465C6.85582 4.16967 6.79091 4.10631 6.713 4.063L3.743 2.413C3.66689 2.37067 3.58104 2.34896 3.49396 2.35001C3.40688 2.35106 3.32158 2.37484 3.24652 2.41899C3.17145 2.46315 3.10922 2.52614 3.06598 2.60173C3.02274 2.67733 3 2.76291 3 2.85V6.15C3 6.23708 3.02274 6.32266 3.06598 6.39826C3.10922 6.47386 3.17145 6.53685 3.24652 6.581C3.32158 6.62515 3.40688 6.64893 3.49396 6.64998C3.58104 6.65103 3.66689 6.62932 3.743 6.587Z"/><path d="M14.5 8H8.74284C8.99647 7.69289 9.21739 7.35778 9.40029 7H14.5C14.7761 7 15 7.22386 15 7.5C15 7.77614 14.7761 8 14.5 8Z"/><path d="M9.79297 3C9.88412 3.32228 9.94663 3.65659 9.97758 4H14.5C14.7761 4 15 3.77614 15 3.5C15 3.22386 14.7761 3 14.5 3H9.79297Z"/><path d="M1 11.5C1 11.2239 1.22386 11 1.5 11H14.5C14.7761 11 15 11.2239 15 11.5C15 11.7761 14.7761 12 14.5 12H1.5C1.22386 12 1 11.7761 1 11.5Z"/></svg>