<svg width="18" height="18" viewBox="0 0 18 18" xmlns="http://www.w3.org/2000/svg" fill="currentColor"><path d="M7.01298 7.77501C6.52698 7.28801 5.73198 7.28801 5.24498 7.77501L5.02498 7.99501C4.34898 8.67001 3.98498 9.56901 3.99998 10.524C4.01198 11.28 4.25998 11.994 4.70998 12.583L2.64698 14.646C2.45198 14.841 2.45198 15.158 2.64698 15.353C2.74498 15.451 2.87298 15.499 3.00098 15.499C3.12898 15.499 3.25698 15.45 3.35498 15.353L5.42498 13.283C6.02198 13.718 6.73698 13.935 7.46098 13.935C8.39898 13.935 9.34898 13.572 10.065 12.855L10.196 12.724C10.683 12.237 10.683 11.444 10.196 10.956L7.01398 7.77401L7.01298 7.77501ZM9.48798 12.018L9.35698 12.149C8.36298 13.144 6.76098 13.208 5.78898 12.291C5.29098 11.823 5.01198 11.19 5.00098 10.508C4.99098 9.82601 5.25098 9.18401 5.73298 8.70201L5.95298 8.48201C6.00198 8.43301 6.06498 8.40901 6.12998 8.40901C6.19498 8.40901 6.25798 8.43301 6.30698 8.48201L9.48898 11.664C9.58698 11.762 9.58698 11.92 9.48898 12.018H9.48798ZM15.354 2.64601C15.159 2.45101 14.842 2.45101 14.647 2.64601L12.577 4.71601C11.207 3.71701 9.20698 3.87301 7.93698 5.14401L7.80598 5.27501C7.31898 5.76201 7.31898 6.55501 7.80598 7.04301L10.988 10.225C11.231 10.469 11.551 10.591 11.872 10.591C12.193 10.591 12.513 10.469 12.756 10.225L12.976 10.005C13.652 9.33001 14.016 8.43101 14.001 7.47601C13.989 6.72001 13.741 6.00601 13.291 5.41701L15.354 3.35401C15.549 3.15901 15.549 2.84101 15.354 2.64601ZM12.268 9.29701L12.048 9.51701C11.95 9.61501 11.792 9.61501 11.694 9.51701L8.51198 6.33501C8.41398 6.23701 8.41398 6.07901 8.51198 5.98101L8.64298 5.85001C9.16698 5.32601 9.85998 5.06001 10.54 5.06001C11.15 5.06001 11.751 5.27401 12.211 5.70801C12.709 6.17601 12.988 6.80901 12.999 7.49101C13.009 8.17301 12.75 8.81501 12.268 9.29701Z"/></svg>