<svg width="16" height="16" viewBox="0 0 16 16" xmlns="http://www.w3.org/2000/svg" fill="currentColor"><path fill-rule="evenodd" clip-rule="evenodd" d="M3.99976 8.00138C5.10276 8.00138 5.99976 8.89838 5.99976 10.0014H6.29272L7.14722 9.14689C7.34223 8.95206 7.6593 8.95195 7.85425 9.14689C8.04914 9.34184 8.04906 9.65893 7.85425 9.85392L6.99976 10.7084V12.0014H7.49976C7.77576 12.0014 7.99976 12.2254 7.99976 12.5014C7.99956 12.7772 7.77563 13.0014 7.49976 13.0014H6.99976C6.99971 13.3853 6.92664 13.7514 6.79468 14.0893L7.85425 15.1479C8.04914 15.3428 8.04905 15.6599 7.85425 15.8549C7.75625 15.9519 7.62776 16.0014 7.49976 16.0014C7.37186 16.0013 7.24417 15.9528 7.14624 15.8549L6.26147 14.9701C5.71147 15.6021 4.90076 16.0024 3.99976 16.0024C3.09889 16.0023 2.28896 15.601 1.73901 14.9701L0.854248 15.8549C0.756248 15.9519 0.627756 16.0014 0.499756 16.0014C0.371864 16.0013 0.244169 15.9528 0.14624 15.8549C-0.0487598 15.6599 -0.0487598 15.3429 0.14624 15.1479L1.20483 14.0893C1.07288 13.7514 0.999802 13.3853 0.999756 13.0014H0.499756C0.223991 13.0012 -4.80617e-05 12.7771 -0.000244141 12.5014C-0.000244141 12.2255 0.223871 12.0015 0.499756 12.0014H0.999756V10.7084L0.14624 9.85392C-0.0487598 9.65892 -0.0487598 9.34189 0.14624 9.14689C0.341255 8.95207 0.658332 8.95195 0.853271 9.14689L1.70679 10.0014H1.99976C1.99976 8.89847 2.89687 8.00152 3.99976 8.00138ZM1.99976 11.0004V13.0004C1.99997 14.1031 2.897 15.0003 3.99976 15.0004C5.10263 15.0004 5.99955 14.1032 5.99976 13.0004V11.0004H1.99976ZM3.99976 9.00041C3.44787 9.00054 2.99976 9.44849 2.99976 10.0004H4.99976C4.99976 9.44841 4.55176 9.00041 3.99976 9.00041Z"/><path d="M11.9802 11.1557C11.9922 11.2386 11.9987 11.3218 11.9998 11.4057C11.9998 11.6717 11.9297 11.9335 11.7957 12.1635C11.6617 12.3933 11.4708 12.5843 11.24 12.7162L8.42261 14.3022L8.02612 13.9047C8.48302 13.7327 8.82213 13.3407 8.94312 12.8617L10.7498 11.8461C10.7526 11.8461 10.7547 11.845 10.7566 11.8432C10.7582 11.8415 10.7595 11.8363 10.7595 11.8363L11.9802 11.1557Z"/><path d="M4.4812 2.01017C4.74013 2.00421 4.9964 2.06403 5.22534 2.184L13.2351 6.68986C13.466 6.82079 13.6578 7.01083 13.7917 7.23966C13.9257 7.46953 13.9948 7.72969 13.9949 7.99552C13.9949 8.26152 13.9248 8.52336 13.7908 8.75236C13.6568 8.98218 13.465 9.17123 13.2341 9.30216L8.80444 11.7944C8.63347 11.4784 8.36505 11.2232 8.02612 11.0951L8.04761 11.0727L12.7449 8.43107C12.8208 8.3881 12.8854 8.32538 12.9304 8.24845C12.9754 8.17145 12.9978 8.08452 12.9978 7.99552C12.9977 7.90669 12.9743 7.81943 12.9304 7.74357C12.8864 7.66763 12.8218 7.60493 12.7449 7.56095L4.74487 3.06095C4.6699 3.019 4.58571 2.99552 4.49976 2.99552C4.3669 2.99559 4.24017 3.04814 4.14624 3.14201C4.05335 3.23589 3.99988 3.3627 3.99976 3.49552V7.00041C3.64585 7.00044 3.31568 7.08079 2.99976 7.19377V3.49552C3.00583 3.23677 3.07692 2.98396 3.20776 2.76115C3.33873 2.53821 3.52391 2.35113 3.74683 2.22013C3.96983 2.08913 4.2222 2.01617 4.4812 2.01017Z"/><path d="M1.99976 7.77384C1.80388 7.94974 1.62808 8.14676 1.48413 8.36759C1.34116 8.24265 1.1757 8.15223 0.999756 8.09025V6.90568C1.00182 6.59883 1.10015 6.30106 1.27905 6.05216C1.45801 5.80323 1.70985 5.61605 1.99976 5.51603V7.77384Z"/></svg>