<svg width="16" height="16" viewBox="0 0 16 16" fill="none" xmlns="http://www.w3.org/2000/svg">
<path fill-rule="evenodd" clip-rule="evenodd" d="M1 10V9H6.20703C6.11588 9.32228 6.05337 9.65659 6.02242 10H1ZM7.25716 7C7.57052 6.62057 7.93379 6.28389 8.33692 6H1V7H7.25716ZM6.59971 13C6.43777 12.6832 6.30564 12.3486 6.20703 12H1V13H6.59971ZM15 3V4H1V3H15ZM11.6406 13.0312C13.0386 13.0312 14.1719 11.898 14.1719 10.5C14.1719 9.10203 13.0386 7.96875 11.6406 7.96875C10.7037 7.96875 9.88568 8.47778 9.44802 9.23438H10.5156V10.0781H8.54688L8.125 9.65625V7.40625H8.96875V8.43777C9.58599 7.63923 10.5533 7.125 11.6406 7.125C13.5046 7.125 15.0156 8.63604 15.0156 10.5C15.0156 12.364 13.5046 13.875 11.6406 13.875C10.2565 13.875 9.06689 13.0417 8.54622 11.8495L9.32849 11.5317C9.72342 12.4154 10.6101 13.0312 11.6406 13.0312Z" fill="#89D185"/>
</svg>
