<svg width="16" height="16" viewBox="0 0 16 16" xmlns="http://www.w3.org/2000/svg" fill="currentColor"><path d="M7.99996 11C6.89696 11 5.99996 11.897 5.99996 13C5.99996 14.103 6.89696 15 7.99996 15C9.10296 15 9.99996 14.103 9.99996 13C9.99996 11.897 9.10296 11 7.99996 11ZM7.99996 14C7.44896 14 6.99996 13.552 6.99996 13C6.99996 12.448 7.44896 12 7.99996 12C8.55096 12 8.99996 12.448 8.99996 13C8.99996 13.552 8.55096 14 7.99996 14ZM11.354 4.854C11.159 5.049 10.842 5.049 10.647 4.854L8.50096 2.708V9.501C8.50096 9.777 8.27696 10.001 8.00096 10.001C7.72496 10.001 7.50096 9.777 7.50096 9.501V2.707L5.35496 4.853C5.15996 5.048 4.84296 5.048 4.64796 4.853C4.45296 4.658 4.45296 4.341 4.64796 4.146L7.64796 1.146C7.74596 1.048 7.87396 1 8.00196 1C8.12996 1 8.25796 1.049 8.35596 1.146L11.356 4.146C11.551 4.341 11.551 4.658 11.356 4.853L11.354 4.854Z"/></svg>