<svg width="18" height="18" viewBox="0 0 18 18" xmlns="http://www.w3.org/2000/svg" fill="currentColor"><path d="M8.99996 12C7.89696 12 6.99996 12.897 6.99996 14C6.99996 15.103 7.89696 16 8.99996 16C10.103 16 11 15.103 11 14C11 12.897 10.103 12 8.99996 12ZM8.99996 15C8.44896 15 7.99996 14.552 7.99996 14C7.99996 13.448 8.44896 13 8.99996 13C9.55096 13 9.99996 13.448 9.99996 14C9.99996 14.552 9.55096 15 8.99996 15ZM12.354 5.854C12.159 6.049 11.842 6.049 11.647 5.854L9.50096 3.708V10.501C9.50096 10.777 9.27696 11.001 9.00096 11.001C8.72496 11.001 8.50096 10.777 8.50096 10.501V3.707L6.35496 5.853C6.15996 6.048 5.84296 6.048 5.64796 5.853C5.45296 5.658 5.45296 5.341 5.64796 5.146L8.64796 2.146C8.74596 2.048 8.87396 2 9.00196 2C9.12996 2 9.25796 2.049 9.35596 2.146L12.356 5.146C12.551 5.341 12.551 5.658 12.356 5.853L12.354 5.854Z"/></svg>