<svg width="16" height="16" viewBox="0 0 16 16" xmlns="http://www.w3.org/2000/svg" fill="currentColor"><path d="M12.9999 2.5C12.9999 2.224 13.2239 2 13.4999 2C13.7759 2 13.9999 2.224 13.9999 2.5V13.5C13.9999 13.776 13.7759 14 13.4999 14C13.2239 14 12.9999 13.776 12.9999 13.5V2.5ZM10.9999 3.002C10.9999 2.19 10.0839 1.717 9.42188 2.186L2.42188 7.149C1.86188 7.546 1.85888 8.376 2.41588 8.776L9.41588 13.814C10.0769 14.29 10.9999 13.817 10.9999 13.002V3.002ZM2.99988 7.965L9.99988 3.002V13.003L2.99988 7.965Z"/></svg>