<svg width="16" height="16" viewBox="0 0 16 16" xmlns="http://www.w3.org/2000/svg" fill="currentColor"><path d="M5 3.49993C5 3.11751 5.41183 2.87665 5.74514 3.06414L13.7454 7.56443C14.0852 7.75559 14.0852 8.24486 13.7454 8.43601L7.92914 11.7075C7.99516 12.0768 8.01443 12.4511 7.9878 12.8219L14.2356 9.30759C15.2551 8.73415 15.2551 7.26633 14.2357 6.69286L6.23541 2.19257C5.2355 1.63011 4 2.35268 4 3.49993V8.05802C4.34224 8.09398 4.67764 8.16881 5 8.28001V3.49993Z"/><path d="M-0.000671387 11.4994V9.49939C-0.000671387 9.36678 0.0520072 9.2396 0.145775 9.14584C0.239543 9.05207 0.36672 8.99939 0.499329 8.99939C0.631937 8.99939 0.759114 9.05207 0.852882 9.14584C0.94665 9.2396 0.999329 9.36678 0.999329 9.49939V10.0514L1.02433 10.0254C1.69119 9.38902 2.57755 9.03396 3.49933 9.03396C4.42111 9.03396 5.30747 9.38902 5.97433 10.0254C6.63074 10.6818 6.99951 11.5721 6.99951 12.5004C6.99951 13.4287 6.63074 14.319 5.97433 14.9754C5.31792 15.6318 4.42763 16.0006 3.49933 16.0006C2.57102 16.0006 1.68074 15.6318 1.02433 14.9754C0.933249 14.8811 0.882853 14.7548 0.883992 14.6237C0.885131 14.4926 0.937716 14.3672 1.03042 14.2745C1.12312 14.1818 1.24853 14.1292 1.37963 14.1281C1.51073 14.1269 1.63703 14.1773 1.73133 14.2684C2.20782 14.7227 2.84094 14.9762 3.49933 14.9762C4.15772 14.9762 4.79083 14.7227 5.26733 14.2684C5.49954 14.0362 5.68375 13.7606 5.80943 13.4573C5.93511 13.1539 5.99979 12.8287 5.99979 12.5004C5.99979 12.172 5.93511 11.8469 5.80943 11.5435C5.68375 11.2402 5.49954 10.9645 5.26733 10.7324C4.79095 10.2778 4.15779 10.0242 3.49933 10.0242C2.84087 10.0242 2.20771 10.2778 1.73133 10.7324C1.64763 10.8157 1.5701 10.9049 1.49933 10.9994H2.49933C2.63194 10.9994 2.75911 11.0521 2.85288 11.1458C2.94665 11.2396 2.99933 11.3668 2.99933 11.4994C2.99933 11.632 2.94665 11.7592 2.85288 11.8529C2.75911 11.9467 2.63194 11.9994 2.49933 11.9994H0.499329C0.36672 11.9994 0.239543 11.9467 0.145775 11.8529C0.0520072 11.7592 -0.000671387 11.632 -0.000671387 11.4994Z"/></svg>