<svg width="18" height="18" viewBox="0 0 18 18" xmlns="http://www.w3.org/2000/svg" fill="currentColor"><path d="M14.976 9.455C14.696 6.345 12.127 4 9 4C6.959 4 5.092 5.047 4 6.686V4.5C4 4.224 3.776 4 3.5 4C3.224 4 3 4.224 3 4.5V8.5C3 8.776 3.224 9 3.5 9H7.5C7.776 9 8 8.776 8 8.5C8 8.224 7.776 8 7.5 8H4.416C5.202 6.205 7.001 5 9 5C11.605 5 13.746 6.954 13.979 9.545C14.002 9.805 14.221 10 14.477 10C14.492 10 14.507 10 14.522 9.998C14.797 9.974 15 9.73 14.975 9.455H14.976Z"/><path d="M9 12C7.897 12 7 12.897 7 14C7 15.103 7.897 16 9 16C10.103 16 11 15.103 11 14C11 12.897 10.103 12 9 12ZM9 15C8.449 15 8 14.552 8 14C8 13.448 8.449 13 9 13C9.551 13 10 13.448 10 14C10 14.552 9.551 15 9 15Z"/></svg>