<svg width="24" height="25" viewBox="0 0 24 25" xmlns="http://www.w3.org/2000/svg" fill="currentColor"><path d="M2.99805 19.3177V8.06775H20.998V13.2957C20.998 13.3027 21 13.3097 21 13.3177V13.4457C21.234 13.3627 21.488 13.3177 21.75 13.3177C22.012 13.3177 22.263 13.3717 22.498 13.4557V8.06775H22.502V6.56775H22.498V5.81775C22.498 3.74675 20.819 2.06775 18.748 2.06775H5.24805C3.17705 2.06775 1.49805 3.74675 1.49805 5.81775V19.3177C1.49805 21.3887 3.17705 23.0677 5.24805 23.0677H10.622C10.734 22.5157 10.944 22.0027 11.274 21.5677H5.24805C4.00505 21.5677 2.99805 20.5607 2.99805 19.3177ZM2.99805 5.81775C2.99805 4.57475 4.00505 3.56775 5.24805 3.56775H18.748C19.991 3.56775 20.998 4.57475 20.998 5.81775V6.56775H2.99805V5.81775ZM5.47305 17.2877L7.94305 14.8177L5.47305 12.3477C5.18005 12.0547 5.18005 11.5797 5.47305 11.2867C5.76605 10.9937 6.24105 10.9937 6.53405 11.2867L9.53405 14.2867C9.67505 14.4277 9.75405 14.6187 9.75405 14.8167C9.75405 15.0147 9.67505 15.2067 9.53405 15.3467L6.53405 18.3467C6.24105 18.6397 5.76605 18.6397 5.47305 18.3467C5.18005 18.0537 5.18005 17.5787 5.47305 17.2857V17.2877ZM22.5 18.5677H21V18.4327C21.87 18.1177 22.5 17.2927 22.5 16.3177V15.5677C22.5 15.1477 22.17 14.8177 21.75 14.8177C21.33 14.8177 21 15.1477 21 15.5677V16.3177C21 16.4077 20.985 16.4827 20.955 16.5727C20.805 15.6727 20.25 14.9227 19.5 14.4877V13.3177C19.5 12.8977 19.17 12.5677 18.75 12.5677C18.33 12.5677 18 12.8977 18 13.3177V14.0677H16.5V13.3177C16.5 12.8977 16.17 12.5677 15.75 12.5677C15.33 12.5677 15 12.8977 15 13.3177V14.4877C14.25 14.9227 13.695 15.6727 13.545 16.5727C13.515 16.4827 13.5 16.4077 13.5 16.3177V15.5677C13.5 15.1477 13.17 14.8177 12.75 14.8177C12.33 14.8177 12 15.1477 12 15.5677V16.3177C12 17.2927 12.63 18.1177 13.5 18.4327V18.5677H12C11.58 18.5677 11.25 18.8977 11.25 19.3177C11.25 19.7377 11.58 20.0677 12 20.0677H13.5V20.8177C13.5 21.1177 13.545 21.4027 13.605 21.6727C12.72 21.9427 12.075 22.7078 12.015 23.6677C12 23.7127 12 23.7577 12 23.8177C12 24.2377 12.33 24.5677 12.75 24.5677C13.17 24.5677 13.5 24.2377 13.5 23.8177C13.5 23.3977 13.83 23.0677 14.25 23.0677H14.265C14.955 23.9677 16.035 24.5677 17.25 24.5677C18.465 24.5677 19.545 23.9677 20.235 23.0677H20.25C20.67 23.0677 21 23.3977 21 23.8177C21 24.2377 21.33 24.5677 21.75 24.5677C22.17 24.5677 22.5 24.2377 22.5 23.8177C22.5 23.7577 22.5 23.7127 22.485 23.6677C22.425 22.7078 21.78 21.9427 20.895 21.6727C20.955 21.4027 21 21.1177 21 20.8177V20.0677H22.5C22.92 20.0677 23.25 19.7377 23.25 19.3177C23.25 18.8977 22.92 18.5677 22.5 18.5677ZM19.5 20.8177C19.5 22.0627 18.495 23.0677 17.25 23.0677C16.005 23.0677 15 22.0627 15 20.8177V17.0677C15 16.2427 15.675 15.5677 16.5 15.5677H18C18.825 15.5677 19.5 16.2427 19.5 17.0677V20.8177Z"/></svg>