<svg width="24" height="24" viewBox="0 0 24 24" xmlns="http://www.w3.org/2000/svg" fill="currentColor"><path d="M10.6335 19.5H6.75C5.508 19.5 4.5 18.492 4.5 17.25V9H19.5V10.5C20.079 10.5 20.601 10.725 21 11.085V6.75C21 4.6785 19.3215 3 17.25 3H6.75C4.6785 3 3 4.6785 3 6.75V17.25C3 19.3215 4.6785 21 6.75 21H12.0225C12.0465 20.9685 12.057 20.9295 12.0825 20.8995C11.406 20.688 10.8705 20.1645 10.6335 19.5ZM4.5 6.75C4.5 5.508 5.508 4.5 6.75 4.5H17.25C18.492 4.5 19.5 5.508 19.5 6.75V7.5H4.5V6.75ZM6.219 15.219L7.938 13.5L6.219 11.781C5.9265 11.4885 5.9265 11.013 6.219 10.7205C6.5115 10.428 6.987 10.428 7.2795 10.7205L9.5295 12.9705C9.822 13.263 9.822 13.7385 9.5295 14.031L7.2795 16.281C6.987 16.5735 6.5115 16.5735 6.219 16.281C5.9265 15.9885 5.9265 15.513 6.219 15.2205V15.219ZM23.25 18H21.75V17.865C22.62 17.55 23.25 16.725 23.25 15.75V15C23.25 14.58 22.92 14.25 22.5 14.25C22.08 14.25 21.75 14.58 21.75 15V15.75C21.75 15.84 21.735 15.915 21.705 16.005C21.555 15.105 21 14.355 20.25 13.92V12.75C20.25 12.33 19.92 12 19.5 12C19.08 12 18.75 12.33 18.75 12.75V13.5H17.25V12.75C17.25 12.33 16.92 12 16.5 12C16.08 12 15.75 12.33 15.75 12.75V13.92C15 14.355 14.445 15.105 14.295 16.005C14.265 15.915 14.25 15.84 14.25 15.75V15C14.25 14.58 13.92 14.25 13.5 14.25C13.08 14.25 12.75 14.58 12.75 15V15.75C12.75 16.725 13.38 17.55 14.25 17.865V18H12.75C12.33 18 12 18.33 12 18.75C12 19.17 12.33 19.5 12.75 19.5H14.25V20.25C14.25 20.55 14.295 20.835 14.355 21.105C13.47 21.375 12.825 22.14 12.765 23.1C12.75 23.145 12.75 23.19 12.75 23.25C12.75 23.67 13.08 24 13.5 24C13.92 24 14.25 23.67 14.25 23.25C14.25 22.83 14.58 22.5 15 22.5H15.015C15.705 23.4 16.785 24 18 24C19.215 24 20.295 23.4 20.985 22.5H21C21.42 22.5 21.75 22.83 21.75 23.25C21.75 23.67 22.08 24 22.5 24C22.92 24 23.25 23.67 23.25 23.25C23.25 23.19 23.25 23.145 23.235 23.1C23.175 22.14 22.53 21.375 21.645 21.105C21.705 20.835 21.75 20.55 21.75 20.25V19.5H23.25C23.67 19.5 24 19.17 24 18.75C24 18.33 23.67 18 23.25 18ZM20.25 20.25C20.25 21.495 19.245 22.5 18 22.5C16.755 22.5 15.75 21.495 15.75 20.25V16.5C15.75 15.675 16.425 15 17.25 15H18.75C19.575 15 20.25 15.675 20.25 16.5V20.25Z"/></svg>