<svg width="16" height="16" viewBox="0 0 16 16" xmlns="http://www.w3.org/2000/svg" fill="currentColor"><path d="M13.976 8.455C13.696 5.345 11.127 3 8 3C5.959 3 4.092 4.047 3 5.686V3.5C3 3.224 2.776 3 2.5 3C2.224 3 2 3.224 2 3.5V7.5C2 7.776 2.224 8 2.5 8H6.5C6.776 8 7 7.776 7 7.5C7 7.224 6.776 7 6.5 7H3.416C4.202 5.205 6.001 4 8 4C10.605 4 12.746 5.954 12.979 8.545C13.002 8.805 13.221 9 13.477 9C13.492 9 13.507 9 13.522 8.998C13.797 8.974 14 8.73 13.975 8.455H13.976Z"/><path d="M8 11C6.897 11 6 11.897 6 13C6 14.103 6.897 15 8 15C9.103 15 10 14.103 10 13C10 11.897 9.103 11 8 11ZM8 14C7.449 14 7 13.552 7 13C7 12.448 7.449 12 8 12C8.551 12 9 12.448 9 13C9 13.552 8.551 14 8 14Z"/></svg>