<svg width="16" height="16" viewBox="0 0 16 16" xmlns="http://www.w3.org/2000/svg" fill="currentColor"><path d="M14.236 9.307L9.412 12.021C9.31 11.722 9.125 11.462 8.874 11.281C8.887 11.242 8.893 11.2 8.904 11.159L13.746 8.435C14.086 8.244 14.086 7.755 13.746 7.563L5.745 3.064C5.412 2.876 5 3.117 5 3.5V7.094C4.815 7.16 4.644 7.25399 4.5 7.383C4.356 7.25399 4.185 7.16 4 7.094V3.5C4 2.353 5.235 1.63 6.235 2.193L14.235 6.693C15.254 7.266 15.254 8.73399 14.235 9.30799L14.236 9.307ZM8.5 12.5C8.5 12.78 8.28 13 8 13H7V13.5C7 13.7 6.97 13.89 6.93 14.07C7.52 14.25 7.95 14.76 7.99 15.4C8 15.43 8 15.46 8 15.5C8 15.78 7.78 16 7.5 16C7.22 16 7 15.78 7 15.5C7 15.22 6.78 15 6.5 15H6.49C6.03 15.6 5.31 16 4.5 16C3.69 16 2.97 15.6 2.51 15H2.5C2.22 15 2 15.22 2 15.5C2 15.78 1.78 16 1.5 16C1.22 16 1 15.78 1 15.5C1 15.46 1 15.43 1.01 15.4C1.05 14.76 1.48 14.25 2.07 14.07C2.03 13.89 2 13.7 2 13.5V13H1C0.72 13 0.5 12.78 0.5 12.5C0.5 12.22 0.72 12 1 12H2V11.91C1.42 11.7 1 11.15 1 10.5V10C1 9.72 1.22 9.5 1.5 9.5C1.78 9.5 2 9.72 2 10V10.5C2 10.56 2.01 10.61 2.03 10.67C2.13 10.07 2.5 9.56999 3 9.27999V8.5C3 8.22 3.22 8 3.5 8C3.78 8 4 8.22 4 8.5V9H5V8.5C5 8.22 5.22 8 5.5 8C5.78 8 6 8.22 6 8.5V9.27999C6.5 9.56999 6.87 10.07 6.97 10.67C6.99 10.61 7 10.56 7 10.5V10C7 9.72 7.22 9.5 7.5 9.5C7.78 9.5 8 9.72 8 10V10.5C8 11.15 7.58 11.7 7 11.91V12H8C8.28 12 8.5 12.22 8.5 12.5ZM6 11C6 10.45 5.55 10 5 10H4C3.45 10 3 10.45 3 11V13.5C3 14.33 3.67 15 4.5 15C5.33 15 6 14.33 6 13.5V11Z"/></svg>