<svg width="18" height="18" viewBox="0 0 18 18" xmlns="http://www.w3.org/2000/svg" fill="currentColor"><path d="M3.024 9.455C3.304 6.345 5.873 4 9 4C11.041 4 12.908 5.047 14 6.686V4.5C14 4.224 14.224 4 14.5 4C14.776 4 15 4.224 15 4.5V8.5C15 8.776 14.776 9 14.5 9H10.5C10.224 9 10 8.776 10 8.5C10 8.224 10.224 8 10.5 8H13.584C12.798 6.205 10.999 5 9 5C6.395 5 4.254 6.954 4.021 9.545C3.998 9.805 3.779 10 3.523 10C3.508 10 3.493 10 3.478 9.998C3.203 9.974 3 9.73 3.025 9.455H3.024Z"/><path d="M7 14C7 15.103 7.897 16 9 16C10.103 16 11 15.103 11 14C11 12.897 10.103 12 9 12C7.897 12 7 12.897 7 14ZM8 14C8 13.448 8.449 13 9 13C9.551 13 10 13.448 10 14C10 14.552 9.551 15 9 15C8.449 15 8 14.552 8 14Z"/></svg>