<svg width="16" height="16" viewBox="0 0 16 16" xmlns="http://www.w3.org/2000/svg" fill="currentColor"><path d="M6 10C6 11.023 5.488 11.926 4.706 12.468L4.6 13H1.4L1.294 12.468C0.512 11.926 0 11.023 0 10C0 8.34301 1.344 7.00001 3.001 7.00001C4.658 7.00001 6 8.34301 6 10ZM1.839 15.196C1.933 15.663 2.343 16 2.82 16H3.18C3.657 16 4.067 15.663 4.161 15.196L4.4 14H1.6L1.839 15.196ZM14.236 6.69301L6.235 2.19301C5.235 1.63101 4 2.35301 4 3.50001V6.14201C4.356 6.23401 4.69 6.37501 5 6.55601V3.50001C5 3.11801 5.412 2.87701 5.745 3.06401L13.745 7.56401C14.085 7.75501 14.085 8.24401 13.745 8.43601L5.745 12.936C5.726 12.947 5.705 12.943 5.686 12.951C5.66 12.975 5.641 13.005 5.614 13.028L5.421 13.995C5.691 14.01 5.971 13.956 6.236 13.807L14.236 9.30701C15.256 8.73401 15.256 7.26701 14.236 6.69301Z"/></svg>