<svg width="16" height="16" viewBox="0 0 16 16" xmlns="http://www.w3.org/2000/svg" fill="currentColor"><path d="M8.00001 11C6.89701 11 6.00001 11.897 6.00001 13C6.00001 14.103 6.89701 15 8.00001 15C9.10301 15 10 14.103 10 13C10 11.897 9.10301 11 8.00001 11ZM8.00001 14C7.44901 14 7.00001 13.552 7.00001 13C7.00001 12.448 7.44901 12 8.00001 12C8.55101 12 9.00001 12.448 9.00001 13C9.00001 13.552 8.55101 14 8.00001 14ZM11.354 6.854L8.35401 9.854C8.25601 9.952 8.12801 10 8.00001 10C7.87201 10 7.74401 9.951 7.64601 9.854L4.64601 6.854C4.45101 6.659 4.45101 6.342 4.64601 6.147C4.84101 5.952 5.15801 5.952 5.35301 6.147L7.49901 8.293V1.5C7.49901 1.224 7.72301 1 7.99901 1C8.27501 1 8.49901 1.224 8.49901 1.5V8.293L10.645 6.147C10.84 5.952 11.157 5.952 11.352 6.147C11.547 6.342 11.547 6.659 11.352 6.854H11.354Z"/></svg>