<svg width="24" height="25" viewBox="0 0 24 25" xmlns="http://www.w3.org/2000/svg" fill="currentColor"><path d="M23.25 11.8177H18V9.56775H18.75C20.821 9.56775 22.5 7.88875 22.5 5.81775V2.81775C22.5 2.40375 22.164 2.06775 21.75 2.06775C21.336 2.06775 21 2.40375 21 2.81775V5.81775C21 7.06075 19.993 8.06775 18.75 8.06775H18C18 5.93575 16.517 4.14975 14.527 3.68575C14.826 3.21875 15 2.66375 15 2.06775V1.31775C15 0.903749 14.664 0.567749 14.25 0.567749C13.836 0.567749 13.5 0.903749 13.5 1.31775V2.06775C13.5 2.89575 12.828 3.56775 12 3.56775C11.172 3.56775 10.5 2.89575 10.5 2.06775V1.31775C10.5 0.903749 10.164 0.567749 9.75 0.567749C9.336 0.567749 9 0.903749 9 1.31775V2.06775C9 2.66375 9.174 3.21875 9.473 3.68575C7.482 4.15075 6 5.93575 6 8.06775H5.25C4.007 8.06775 3 7.06075 3 5.81775V2.81775C3 2.40375 2.664 2.06775 2.25 2.06775C1.836 2.06775 1.5 2.40375 1.5 2.81775V5.81775C1.5 7.88875 3.179 9.56775 5.25 9.56775H6V11.8177H0.75C0.336 11.8177 0 12.1537 0 12.5677C0 12.9817 0.336 13.3177 0.75 13.3177H6V15.5677H5.25C3.179 15.5677 1.5 17.2467 1.5 19.3177V22.3177C1.5 22.7317 1.836 23.0677 2.25 23.0677C2.664 23.0677 3 22.7317 3 22.3177V19.3177C3 18.0747 4.007 17.0677 5.25 17.0677H6C6 20.3817 8.686 23.0677 12 23.0677C15.314 23.0677 18 20.3817 18 17.0677H18.75C19.993 17.0677 21 18.0747 21 19.3177V22.3177C21 22.7317 21.336 23.0677 21.75 23.0677C22.164 23.0677 22.5 22.7317 22.5 22.3177V19.3177C22.5 17.2467 20.821 15.5677 18.75 15.5677H18V13.3177H23.25C23.664 13.3177 24 12.9817 24 12.5677C24 12.1537 23.664 11.8177 23.25 11.8177ZM16.5 17.0677C16.5 19.5527 14.485 21.5677 12 21.5677C9.515 21.5677 7.5 19.5527 7.5 17.0677V8.06775C7.5 6.41075 8.843 5.06775 10.5 5.06775H13.5C15.157 5.06775 16.5 6.41075 16.5 8.06775V17.0677ZM14.78 10.8477L13.06 12.5677L14.78 14.2877C15.073 14.5807 15.073 15.0557 14.78 15.3487C14.634 15.4947 14.442 15.5687 14.25 15.5687C14.058 15.5687 13.866 15.4957 13.72 15.3487L12 13.6287L10.28 15.3487C10.134 15.4947 9.942 15.5687 9.75 15.5687C9.558 15.5687 9.366 15.4957 9.22 15.3487C8.927 15.0557 8.927 14.5807 9.22 14.2877L10.94 12.5677L9.22 10.8477C8.927 10.5547 8.927 10.0797 9.22 9.78675C9.513 9.49375 9.988 9.49375 10.281 9.78675L12.001 11.5067L13.721 9.78675C14.014 9.49375 14.489 9.49375 14.782 9.78675C15.075 10.0797 15.075 10.5547 14.782 10.8477H14.78Z"/></svg>