<svg width="16" height="16" viewBox="0 0 16 16" xmlns="http://www.w3.org/2000/svg" fill="currentColor"><path d="M2 8.5V5.903C2.003 5.596 2.1 5.298 2.279 5.049C2.458 4.8 2.71 4.613 3 4.513V7.092C2.419 7.299 2 7.849 2 8.5ZM14.792 6.237C14.658 6.008 14.466 5.818 14.235 5.687L6.225 1.181C5.996 1.061 5.74 1.001 5.481 1.007C5.222 1.013 4.97 1.086 4.747 1.217C4.524 1.348 4.339 1.535 4.208 1.758C4.077 1.981 4.006 2.234 4 2.493V7.094C4.185 7.16 4.356 7.254 4.5 7.383C4.644 7.254 4.815 7.16 5 7.094V2.493C5 2.36 5.053 2.233 5.146 2.139C5.239 2.045 5.367 1.993 5.5 1.993C5.586 1.994 5.67 2.016 5.745 2.058L13.745 6.558C13.822 6.602 13.886 6.665 13.93 6.741C13.974 6.817 13.998 6.904 13.998 6.993C13.998 7.082 13.975 7.168 13.93 7.245C13.885 7.322 13.821 7.385 13.745 7.428L9 10.097V10.5C9 10.77 8.956 11.033 8.873 11.281C8.881 11.287 8.887 11.295 8.895 11.301L14.235 8.297C14.466 8.166 14.658 7.977 14.792 7.747C14.926 7.518 14.996 7.257 14.996 6.991C14.996 6.725 14.926 6.465 14.792 6.235V6.237ZM11.76 10.833C11.76 10.833 11.759 10.838 11.757 10.84C11.755 10.842 11.753 10.843 11.75 10.843L9.455 12.134C9.484 12.251 9.5 12.374 9.5 12.5C9.5 12.869 9.358 13.199 9.136 13.46L12.24 11.713C12.471 11.581 12.662 11.39 12.796 11.16C12.93 10.93 13 10.669 13 10.403C12.999 10.319 12.992 10.236 12.98 10.153L11.76 10.833ZM8.5 12.5C8.5 12.78 8.28 13 8 13H7V13.5C7 13.7 6.97 13.89 6.93 14.07C7.52 14.25 7.95 14.76 7.99 15.4C8 15.43 8 15.46 8 15.5C8 15.78 7.78 16 7.5 16C7.22 16 7 15.78 7 15.5C7 15.22 6.78 15 6.5 15H6.49C6.03 15.6 5.31 16 4.5 16C3.69 16 2.97 15.6 2.51 15H2.5C2.22 15 2 15.22 2 15.5C2 15.78 1.78 16 1.5 16C1.22 16 1 15.78 1 15.5C1 15.46 1 15.43 1.01 15.4C1.05 14.76 1.48 14.25 2.07 14.07C2.03 13.89 2 13.7 2 13.5V13H1C0.72 13 0.5 12.78 0.5 12.5C0.5 12.22 0.72 12 1 12H2V11.91C1.42 11.7 1 11.15 1 10.5V10C1 9.72 1.22 9.5 1.5 9.5C1.78 9.5 2 9.72 2 10V10.5C2 10.56 2.01 10.61 2.03 10.67C2.13 10.07 2.5 9.57 3 9.28V8.5C3 8.22 3.22 8 3.5 8C3.78 8 4 8.22 4 8.5V9H5V8.5C5 8.22 5.22 8 5.5 8C5.78 8 6 8.22 6 8.5V9.28C6.5 9.57 6.87 10.07 6.97 10.67C6.99 10.61 7 10.56 7 10.5V10C7 9.72 7.22 9.5 7.5 9.5C7.78 9.5 8 9.72 8 10V10.5C8 11.15 7.58 11.7 7 11.91V12H8C8.28 12 8.5 12.22 8.5 12.5ZM6 11C6 10.45 5.55 10 5 10H4C3.45 10 3 10.45 3 11V13.5C3 14.33 3.67 15 4.5 15C5.33 15 6 14.33 6 13.5V11Z"/></svg>