<svg width="24" height="24" viewBox="0 0 24 24" xmlns="http://www.w3.org/2000/svg" fill="currentColor"><path d="M21.75 12H19.5V9C19.5 8.445 19.347 7.9245 19.083 7.4775L20.7795 5.781C21.072 5.4885 21.072 5.013 20.7795 4.7205C20.487 4.428 20.0115 4.428 19.719 4.7205L18.0225 6.417C17.5755 6.153 17.055 6 16.5 6C16.5 3.519 14.481 1.5 12 1.5C9.519 1.5 7.5 3.519 7.5 6C6.945 6 6.4245 6.153 5.9775 6.417L4.281 4.7205C3.9885 4.428 3.513 4.428 3.2205 4.7205C2.928 5.013 2.928 5.4885 3.2205 5.781L4.917 7.4775C4.653 7.9245 4.5 8.445 4.5 9V12H2.25C1.836 12 1.5 12.336 1.5 12.75C1.5 13.164 1.836 13.5 2.25 13.5H4.5C4.5 15.2985 5.136 16.95 6.195 18.2445L3.594 20.8455C3.3015 21.138 3.3015 21.6135 3.594 21.906C3.741 22.053 3.933 22.125 4.125 22.125C4.317 22.125 4.509 22.0515 4.656 21.906L7.257 19.305C8.55 20.364 10.203 21 12.0015 21C13.8 21 15.4515 20.364 16.746 19.305L19.347 21.906C19.494 22.053 19.686 22.125 19.878 22.125C20.07 22.125 20.262 22.0515 20.409 21.906C20.7015 21.6135 20.7015 21.138 20.409 20.8455L17.808 18.2445C18.867 16.9515 19.503 15.2985 19.503 13.5H21.753C22.167 13.5 22.503 13.164 22.503 12.75C22.503 12.336 22.167 12 21.753 12H21.75ZM12 3C13.6545 3 15 4.3455 15 6H9C9 4.3455 10.3455 3 12 3ZM18 13.5C18 16.809 15.309 19.5 12 19.5C8.691 19.5 6 16.809 6 13.5V9C6 8.172 6.672 7.5 7.5 7.5H16.5C17.328 7.5 18 8.172 18 9V13.5ZM14.781 11.031L13.062 12.75L14.781 14.469C15.0735 14.7615 15.0735 15.237 14.781 15.5295C14.634 15.6765 14.442 15.7485 14.25 15.7485C14.058 15.7485 13.866 15.675 13.719 15.5295L12 13.8105L10.281 15.5295C10.134 15.6765 9.942 15.7485 9.75 15.7485C9.558 15.7485 9.366 15.675 9.219 15.5295C8.9265 15.237 8.9265 14.7615 9.219 14.469L10.938 12.75L9.219 11.031C8.9265 10.7385 8.9265 10.263 9.219 9.9705C9.5115 9.678 9.987 9.678 10.2795 9.9705L11.9985 11.6895L13.7175 9.9705C14.01 9.678 14.4855 9.678 14.778 9.9705C15.0705 10.263 15.0705 10.7385 14.778 11.031H14.781Z"/></svg>