<svg width="24" height="24" viewBox="0 0 24 24" xmlns="http://www.w3.org/2000/svg" fill="currentColor"><path d="M21.354 13.9605L14.118 18.0315C13.965 17.583 13.6875 17.193 13.311 16.9215C13.3305 16.863 13.3395 16.8 13.356 16.7385L20.619 12.6525C21.129 12.366 21.129 11.6325 20.619 11.3445L8.6175 4.59599C8.118 4.31399 7.5 4.67549 7.5 5.24999V10.641C7.2225 10.74 6.966 10.881 6.75 11.0745C6.534 10.881 6.2775 10.74 6 10.641V5.24999C6 3.52949 7.8525 2.44499 9.3525 3.28949L21.3525 10.0395C22.881 10.899 22.881 13.101 21.3525 13.962L21.354 13.9605ZM12.75 18.75C12.75 19.17 12.42 19.5 12 19.5H10.5V20.25C10.5 20.55 10.455 20.835 10.395 21.105C11.28 21.375 11.925 22.14 11.985 23.1C12 23.145 12 23.19 12 23.25C12 23.67 11.67 24 11.25 24C10.83 24 10.5 23.67 10.5 23.25C10.5 22.83 10.17 22.5 9.75 22.5H9.735C9.045 23.4 7.965 24 6.75 24C5.535 24 4.455 23.4 3.765 22.5H3.75C3.33 22.5 3 22.83 3 23.25C3 23.67 2.67 24 2.25 24C1.83 24 1.5 23.67 1.5 23.25C1.5 23.19 1.5 23.145 1.515 23.1C1.575 22.14 2.22 21.375 3.105 21.105C3.045 20.835 3 20.55 3 20.25V19.5H1.5C1.08 19.5 0.75 19.17 0.75 18.75C0.75 18.33 1.08 18 1.5 18H3V17.865C2.13 17.55 1.5 16.725 1.5 15.75V15C1.5 14.58 1.83 14.25 2.25 14.25C2.67 14.25 3 14.58 3 15V15.75C3 15.84 3.015 15.915 3.045 16.005C3.195 15.105 3.75 14.355 4.5 13.92V12.75C4.5 12.33 4.83 12 5.25 12C5.67 12 6 12.33 6 12.75V13.5H7.5V12.75C7.5 12.33 7.83 12 8.25 12C8.67 12 9 12.33 9 12.75V13.92C9.75 14.355 10.305 15.105 10.455 16.005C10.485 15.915 10.5 15.84 10.5 15.75V15C10.5 14.58 10.83 14.25 11.25 14.25C11.67 14.25 12 14.58 12 15V15.75C12 16.725 11.37 17.55 10.5 17.865V18H12C12.42 18 12.75 18.33 12.75 18.75ZM9 16.5C9 15.675 8.325 15 7.5 15H6C5.175 15 4.5 15.675 4.5 16.5V20.25C4.5 21.495 5.505 22.5 6.75 22.5C7.995 22.5 9 21.495 9 20.25V16.5Z"/></svg>