<svg width="24" height="25" viewBox="0 0 24 25" xmlns="http://www.w3.org/2000/svg" fill="currentColor"><path d="M12 18.5677H10.5V18.4327C11.37 18.1177 12 17.2927 12 16.3177V15.5677C12 15.1477 11.67 14.8177 11.25 14.8177C10.83 14.8177 10.5 15.1477 10.5 15.5677V16.3177C10.5 16.4077 10.485 16.4827 10.455 16.5727C10.305 15.6727 9.75 14.9227 9 14.4877V13.3177C9 12.8977 8.67 12.5677 8.25 12.5677C7.83 12.5677 7.5 12.8977 7.5 13.3177V14.0677H6V13.3177C6 12.8977 5.67 12.5677 5.25 12.5677C4.83 12.5677 4.5 12.8977 4.5 13.3177V14.4877C3.75 14.9227 3.195 15.6727 3.045 16.5727C3.015 16.4827 3 16.4077 3 16.3177V15.5677C3 15.1477 2.67 14.8177 2.25 14.8177C1.83 14.8177 1.5 15.1477 1.5 15.5677V16.3177C1.5 17.2927 2.13 18.1177 3 18.4327V18.5677H1.5C1.08 18.5677 0.75 18.8977 0.75 19.3177C0.75 19.7377 1.08 20.0677 1.5 20.0677H3V20.8177C3 21.1177 3.045 21.4027 3.105 21.6727C2.22 21.9427 1.575 22.7078 1.515 23.6677C1.5 23.7127 1.5 23.7577 1.5 23.8177C1.5 24.2377 1.83 24.5677 2.25 24.5677C2.67 24.5677 3 24.2377 3 23.8177C3 23.3977 3.33 23.0677 3.75 23.0677H3.765C4.455 23.9677 5.535 24.5677 6.75 24.5677C7.965 24.5677 9.045 23.9677 9.735 23.0677H9.75C10.17 23.0677 10.5 23.3977 10.5 23.8177C10.5 24.2377 10.83 24.5677 11.25 24.5677C11.67 24.5677 12 24.2377 12 23.8177C12 23.7577 12 23.7127 11.985 23.6677C11.925 22.7078 11.28 21.9427 10.395 21.6727C10.455 21.4027 10.5 21.1177 10.5 20.8177V20.0677H12C12.42 20.0677 12.75 19.7377 12.75 19.3177C12.75 18.8977 12.42 18.5677 12 18.5677ZM9 20.8177C9 22.0627 7.995 23.0677 6.75 23.0677C5.505 23.0677 4.5 22.0627 4.5 20.8177V17.0677C4.5 16.2427 5.175 15.5677 6 15.5677H7.5C8.325 15.5677 9 16.2427 9 17.0677V20.8177ZM24 10.3177C24 11.1347 23.556 11.8877 22.842 12.2857L13.5 17.4757V15.7597L22.113 10.9747C22.351 10.8417 22.5 10.5897 22.5 10.3177C22.5 10.0457 22.352 9.79375 22.113 9.66075L8.613 2.16075C8.503 2.09975 8.377 2.06775 8.25 2.06775C7.836 2.06775 7.5 2.40375 7.5 2.81775V11.0677H6V2.81775C6 1.57675 7.009 0.567749 8.25 0.567749C8.632 0.567749 9.009 0.664749 9.341 0.848749L22.842 8.34975C23.556 8.74775 24 9.50075 24 10.3177Z"/></svg>