<svg width="24" height="24" viewBox="0 0 24 24" xmlns="http://www.w3.org/2000/svg" fill="currentColor"><path d="M4.71897 17.781C4.86597 17.928 5.05797 18 5.24997 18C5.44197 18 5.63397 17.9265 5.78097 17.781L10.281 13.281C10.5735 12.9885 10.5735 12.513 10.281 12.2205L5.78097 7.72047C5.48847 7.42797 5.01297 7.42797 4.72047 7.72047C4.42797 8.01297 4.42797 8.48847 4.72047 8.78097L8.68947 12.75L4.72047 16.719C4.42797 17.0115 4.42797 17.487 4.72047 17.7795L4.71897 17.781Z"/><path d="M3 18.75V5.25C3 4.0095 4.0095 3 5.25 3H18.75C19.9905 3 21 4.0095 21 5.25V12.8775C21.234 12.795 21.4875 12.75 21.75 12.75C22.014 12.75 22.2645 12.804 22.5 12.888V5.25C22.5 3.183 20.8185 1.5 18.75 1.5H5.25C3.1815 1.5 1.5 3.183 1.5 5.25V18.75C1.5 20.8185 3.1815 22.5 5.25 22.5H10.6215C10.734 21.948 10.944 21.435 11.2725 21H5.25C4.0095 21 3 19.9905 3 18.75Z"/><path d="M22.5 18H21V17.865C21.87 17.55 22.5 16.725 22.5 15.75V15C22.5 14.58 22.17 14.25 21.75 14.25C21.33 14.25 21 14.58 21 15V15.75C21 15.84 20.985 15.915 20.955 16.005C20.805 15.105 20.25 14.355 19.5 13.92V12.75C19.5 12.33 19.17 12 18.75 12C18.33 12 18 12.33 18 12.75V13.5H16.5V12.75C16.5 12.33 16.17 12 15.75 12C15.33 12 15 12.33 15 12.75V13.92C14.25 14.355 13.695 15.105 13.545 16.005C13.515 15.915 13.5 15.84 13.5 15.75V15C13.5 14.58 13.17 14.25 12.75 14.25C12.33 14.25 12 14.58 12 15V15.75C12 16.725 12.63 17.55 13.5 17.865V18H12C11.58 18 11.25 18.33 11.25 18.75C11.25 19.17 11.58 19.5 12 19.5H13.5V20.25C13.5 20.55 13.545 20.835 13.605 21.105C12.72 21.375 12.075 22.14 12.015 23.1C12 23.145 12 23.19 12 23.25C12 23.67 12.33 24 12.75 24C13.17 24 13.5 23.67 13.5 23.25C13.5 22.83 13.83 22.5 14.25 22.5H14.265C14.955 23.4 16.035 24 17.25 24C18.465 24 19.545 23.4 20.235 22.5H20.25C20.67 22.5 21 22.83 21 23.25C21 23.67 21.33 24 21.75 24C22.17 24 22.5 23.67 22.5 23.25C22.5 23.19 22.5 23.145 22.485 23.1C22.425 22.14 21.78 21.375 20.895 21.105C20.955 20.835 21 20.55 21 20.25V19.5H22.5C22.92 19.5 23.25 19.17 23.25 18.75C23.25 18.33 22.92 18 22.5 18ZM19.5 20.25C19.5 21.495 18.495 22.5 17.25 22.5C16.005 22.5 15 21.495 15 20.25V16.5C15 15.675 15.675 15 16.5 15H18C18.825 15 19.5 15.675 19.5 16.5V20.25Z"/></svg>