<svg width="16" height="16" viewBox="0 0 16 16" xmlns="http://www.w3.org/2000/svg" fill="currentColor"><path d="M11.98 11.146C11.992 11.229 11.999 11.312 12 11.396C12 11.662 11.929 11.923 11.796 12.153C11.663 12.383 11.471 12.574 11.24 12.706L8.599 14.193C8.546 14.107 8.509 14.011 8.445 13.933C9.042 13.747 9.474 13.195 9.493 12.543L10.75 11.836C10.75 11.836 10.755 11.835 10.757 11.833C10.759 11.831 10.76 11.829 10.76 11.826L11.98 11.146ZM2 8.58601V5.50601C1.71 5.60601 1.458 5.79301 1.279 6.04201C1.1 6.29101 1.002 6.58901 1 6.89601V8.59201C1.157 8.53601 1.324 8.50001 1.5 8.50001C1.676 8.50001 1.844 8.53001 2 8.58601ZM13.792 7.23001C13.658 7.00101 13.466 6.81101 13.235 6.68001L5.225 2.17401C4.996 2.05401 4.74 1.99401 4.481 2.00001C4.222 2.00601 3.97 2.07901 3.747 2.21001C3.524 2.34101 3.339 2.52801 3.208 2.75101C3.077 2.97401 3.006 3.22701 3 3.48601V7.09201C3.157 7.03601 3.324 7.00001 3.5 7.00001C3.676 7.00001 3.843 7.03801 4 7.09401V3.48601C4 3.35301 4.053 3.22601 4.146 3.13201C4.24 3.03801 4.367 2.98601 4.5 2.98601C4.586 2.98601 4.67 3.00901 4.745 3.05101L12.745 7.55101C12.822 7.59501 12.886 7.65801 12.93 7.73401C12.974 7.81001 12.998 7.89701 12.998 7.98601C12.998 8.07501 12.975 8.16101 12.93 8.23801C12.885 8.31501 12.821 8.37801 12.745 8.42101L8.998 10.529C8.995 10.789 8.953 11.043 8.873 11.282C8.988 11.364 9.085 11.466 9.172 11.577L13.235 9.29201C13.466 9.16101 13.658 8.97101 13.792 8.74201C13.926 8.51301 13.996 8.25201 13.996 7.98601C13.996 7.72001 13.926 7.46001 13.792 7.23001ZM8.5 12.5C8.5 12.78 8.28 13 8 13H7V13.5C7 13.7 6.97 13.89 6.93 14.07C7.52 14.25 7.95 14.76 7.99 15.4C8 15.43 8 15.46 8 15.5C8 15.78 7.78 16 7.5 16C7.22 16 7 15.78 7 15.5C7 15.22 6.78 15 6.5 15H6.49C6.03 15.6 5.31 16 4.5 16C3.69 16 2.97 15.6 2.51 15H2.5C2.22 15 2 15.22 2 15.5C2 15.78 1.78 16 1.5 16C1.22 16 1 15.78 1 15.5C1 15.46 1 15.43 1.01 15.4C1.05 14.76 1.48 14.25 2.07 14.07C2.03 13.89 2 13.7 2 13.5V13H1C0.72 13 0.5 12.78 0.5 12.5C0.5 12.22 0.72 12 1 12H2V11.91C1.42 11.7 1 11.15 1 10.5V10C1 9.72001 1.22 9.50001 1.5 9.50001C1.78 9.50001 2 9.72001 2 10V10.5C2 10.56 2.01 10.61 2.03 10.67C2.13 10.07 2.5 9.57001 3 9.28001V8.50001C3 8.22001 3.22 8.00001 3.5 8.00001C3.78 8.00001 4 8.22001 4 8.50001V9.00001H5V8.50001C5 8.22001 5.22 8.00001 5.5 8.00001C5.78 8.00001 6 8.22001 6 8.50001V9.28001C6.5 9.57001 6.87 10.07 6.97 10.67C6.99 10.61 7 10.56 7 10.5V10C7 9.72001 7.22 9.50001 7.5 9.50001C7.78 9.50001 8 9.72001 8 10V10.5C8 11.15 7.58 11.7 7 11.91V12H8C8.28 12 8.5 12.22 8.5 12.5ZM6 11C6 10.45 5.55 10 5 10H4C3.45 10 3 10.45 3 11V13.5C3 14.33 3.67 15 4.5 15C5.33 15 6 14.33 6 13.5V11Z"/></svg>