<svg xmlns="http://www.w3.org/2000/svg" width="12" height="12" viewBox="0 0 12 12" fill="currentColor"><path fill-rule="evenodd" clip-rule="evenodd" d="M3.51953 4.61035C3.75952 4.61035 3.98993 4.6999 4.16992 4.87988L7.12012 7.83008C7.29991 8.00996 7.38955 8.24968 7.38965 8.47949L7.37988 8.46973C7.37988 9.29966 6.06019 9.99013 4.99023 9.99023C4.36023 9.99023 3.75 9.79945 3.25 9.43945L1.33984 11.3496C1.2499 11.4495 1.12015 11.4999 0.990234 11.5C0.71028 11.5 0.490306 11.2799 0.490234 11C0.490234 10.88 0.539648 10.7494 0.639648 10.6494L2.5498 8.74023C2.19983 8.24027 2.00003 7.61995 2 7C2 5.93019 2.67974 4.61083 3.51953 4.61035ZM3.51953 5.64941C3.18953 6.00941 3 6.5 3 7C3.00004 7.52995 3.21011 8.04995 3.58008 8.41992C4.30009 9.14984 5.59963 9.16945 6.34961 8.47949L3.51953 5.64941Z"/><path fill-rule="evenodd" clip-rule="evenodd" d="M11 0.5C11.28 0.5 11.5 0.72 11.5 1H11.5098C11.5098 1.11987 11.4601 1.24965 11.3604 1.34961L9.4502 3.25977C9.8002 3.75977 10 4.38 10 5C10 6.06985 9.31031 7.38927 8.48047 7.38965C8.24049 7.38965 8.01007 7.30009 7.83008 7.12012L4.87988 4.16992C4.69998 3.98994 4.61035 3.74947 4.61035 3.51953C4.61083 2.67979 5.89023 2.04008 7 2.04004C7.61995 2.04004 8.24025 2.21962 8.74023 2.55957L10.6504 0.650391C10.7404 0.550418 10.87 0.500027 11 0.5ZM7 3.01953C6.51021 3.01956 6.01034 3.18979 5.65039 3.51953L8.48047 6.34961C8.81025 5.98965 9 5.49982 9 5C9 4.47 8.78992 3.95008 8.41992 3.58008C8.04992 3.21011 7.51998 3.01953 7 3.01953Z"/></svg>