<svg width="16" height="16" viewBox="0 0 16 16" xmlns="http://www.w3.org/2000/svg" fill="currentColor"><path d="M9.99802 13C9.99802 14.103 9.10102 15 7.99802 15C6.89502 15 5.99802 14.103 5.99802 13C5.99802 11.897 6.89502 11 7.99802 11C9.10102 11 9.99802 11.897 9.99802 13ZM12.03 4.71999L8.53002 1.21999C8.23702 0.926994 7.76202 0.926994 7.46902 1.21999L3.96902 4.71999C3.67602 5.01299 3.67602 5.48799 3.96902 5.78099C4.26202 6.07399 4.73702 6.07399 5.03002 5.78099L7.25002 3.56099V9.24999C7.25002 9.66399 7.58602 9.99999 8.00002 9.99999C8.41402 9.99999 8.75002 9.66399 8.75002 9.24999V3.56099L10.97 5.78099C11.116 5.92699 11.308 6.00099 11.5 6.00099C11.692 6.00099 11.884 5.92799 12.03 5.78099C12.323 5.48799 12.323 5.01299 12.03 4.71999Z"/></svg>