<svg width="16" height="16" viewBox="0 0 16 16" xmlns="http://www.w3.org/2000/svg" fill="currentColor"><path d="M1 3.5C1 3.22386 1.22386 3 1.5 3H14.5C14.7761 3 15 3.22386 15 3.5C15 3.77614 14.7761 4 14.5 4H1.5C1.22386 4 1 3.77614 1 3.5Z"/><path d="M1 7.5C1 7.22386 1.22386 7 1.5 7H14.5C14.7761 7 15 7.22386 15 7.5C15 7.77614 14.7761 8 14.5 8H1.5C1.22386 8 1 7.77614 1 7.5Z"/><path d="M1 11.5C1 11.2239 1.22386 11 1.5 11H7.99939V11.4994C7.99939 11.6716 8.02899 11.8407 8.08538 12H1.5C1.22386 12 1 11.7761 1 11.5Z"/><path d="M8.99939 9.49939V11.4994C8.99939 11.632 9.05207 11.7592 9.14584 11.8529C9.2396 11.9467 9.36678 11.9994 9.49939 11.9994H11.4994C11.632 11.9994 11.7592 11.9467 11.8529 11.8529C11.9467 11.7592 11.9994 11.632 11.9994 11.4994C11.9994 11.3668 11.9467 11.2396 11.8529 11.1458C11.7592 11.0521 11.632 10.9994 11.4994 10.9994H10.4994C10.5702 10.9049 10.6477 10.8157 10.7314 10.7324C11.2078 10.2778 11.8409 10.0242 12.4994 10.0242C13.1579 10.0242 13.791 10.2778 14.2674 10.7324C14.4996 10.9645 14.6838 11.2402 14.8095 11.5435C14.9352 11.8469 14.9999 12.172 14.9999 12.5004C14.9999 12.8287 14.9352 13.1539 14.8095 13.4573C14.6838 13.7606 14.4996 14.0362 14.2674 14.2684C13.7909 14.7227 13.1578 14.9762 12.4994 14.9762C11.841 14.9762 11.2079 14.7227 10.7314 14.2684C10.6371 14.1773 10.5108 14.1269 10.3797 14.1281C10.2486 14.1292 10.1232 14.1818 10.0305 14.2745C9.93778 14.3672 9.88519 14.4926 9.88405 14.6237C9.88291 14.7548 9.93331 14.8811 10.0244 14.9754C10.6808 15.6318 11.5711 16.0006 12.4994 16.0006C13.4277 16.0006 14.318 15.6318 14.9744 14.9754C15.6308 14.319 15.9996 13.4287 15.9996 12.5004C15.9996 11.5721 15.6308 10.6818 14.9744 10.0254C14.3075 9.38902 13.4212 9.03396 12.4994 9.03396C11.5776 9.03396 10.6912 9.38902 10.0244 10.0254L9.99939 10.0514V9.49939C9.99939 9.36678 9.94671 9.2396 9.85294 9.14584C9.75918 9.05207 9.632 8.99939 9.49939 8.99939C9.36678 8.99939 9.2396 9.05207 9.14584 9.14584C9.05207 9.2396 8.99939 9.36678 8.99939 9.49939Z"/></svg>