<svg width="16" height="16" viewBox="0 0 16 16" xmlns="http://www.w3.org/2000/svg" fill="currentColor"><path d="M2.99997 2.5C2.99997 2.22386 2.77611 2 2.49997 2C2.22383 2 1.99997 2.22386 1.99997 2.5V13.5C1.99997 13.7761 2.22383 14 2.49997 14C2.77611 14 2.99997 13.7761 2.99997 13.5V2.5ZM4.99997 3.00176C4.99997 2.19 5.91612 1.71648 6.57833 2.18598L13.5787 7.14908C14.1385 7.54593 14.1414 8.37575 13.5845 8.77653L6.58408 13.8142C5.92257 14.2903 4.99997 13.8175 4.99997 13.0026V3.00176ZM13.0004 7.96486L5.99997 3.00175L5.99997 13.0026L13.0004 7.96486Z"/></svg>