<svg width="24" height="24" viewBox="0 0 24 24" fill="none" xmlns="http://www.w3.org/2000/svg">
<path fill-rule="evenodd" clip-rule="evenodd" d="M7.03966 1.36109L7.17856 1.30356H21.3214L21.4603 1.36109L22.6389 2.53966L22.6964 2.67856V16.8214L22.6389 16.9603L21.4603 18.1389L21.3214 18.1964H14V18C14 17.4674 13.7918 16.9834 13.4524 16.625H21.125V2.87499H7.37499V10.1566C6.92794 10.0461 6.46642 9.98917 6 9.98917C5.93441 9.98917 5.86892 9.99029 5.80356 9.99253V2.67856L5.86109 2.53966L7.03966 1.36109ZM16.571 10.8132L13.7622 13.6131C13.6719 13.4452 13.5559 13.2875 13.4142 13.1458L12.9953 12.7269L15.231 10.4912L11.6246 6.79677L12.4381 5.9643L16.571 10.0972V10.8132ZM9.62 14.82L10.94 13.5L12 14.56L10.28 16.28L10.5 16.5V18H12V19.45H10.5V19.55C10.426 20.0489 10.2882 20.5362 10.09 21L12 22.94L10.94 24L9.29 22.35C8.89743 22.8509 8.39882 23.2586 7.82998 23.5438C7.26115 23.8291 6.63619 23.9849 6 24C5.36381 23.9849 4.73885 23.8291 4.17002 23.5438C3.60118 23.2586 3.10257 22.8509 2.71 22.35L1.06 24L0 22.94L1.91 21C1.71425 20.5458 1.5765 20.0687 1.5 19.58V19.5H0V18H1.5V16.5L1.72 16.28L0 14.56L1.06 13.5L2.38 14.82C2.58076 14.0117 3.04624 13.2939 3.70228 12.7809C4.35832 12.2679 5.16718 11.9892 6 11.9892C6.83282 11.9892 7.64168 12.2679 8.29772 12.7809C8.95376 13.2939 9.41924 14.0117 9.62 14.82ZM7.59099 14.159C7.16903 13.7371 6.59674 13.5 6 13.5C5.40326 13.5 4.83097 13.7371 4.40901 14.159C3.98705 14.581 3.75 15.1533 3.75 15.75H8.25C8.25 15.1533 8.01295 14.581 7.59099 14.159ZM8.0396 21.5396C8.58713 20.9921 8.92674 20.2709 9 19.5V17.25H3V19.5C3.07326 20.2709 3.41287 20.9921 3.9604 21.5396C4.50793 22.0871 5.22915 22.4267 6 22.5C6.77085 22.4267 7.49207 22.0871 8.0396 21.5396Z" fill="#C5C5C5"/>
</svg>
