<svg width="16" height="16" viewBox="0 0 16 16" xmlns="http://www.w3.org/2000/svg" fill="currentColor"><path d="M2.024 8.455C2.304 5.345 4.873 3 8 3C10.041 3 11.908 4.047 13 5.686V3.5C13 3.224 13.224 3 13.5 3C13.776 3 14 3.224 14 3.5V7.5C14 7.776 13.776 8 13.5 8H9.5C9.224 8 9 7.776 9 7.5C9 7.224 9.224 7 9.5 7H12.584C11.798 5.205 9.999 4 8 4C5.395 4 3.254 5.954 3.021 8.545C2.998 8.805 2.779 9 2.523 9C2.508 9 2.493 9 2.478 8.998C2.203 8.974 2 8.73 2.025 8.455H2.024Z"/><path d="M6 13C6 14.103 6.897 15 8 15C9.103 15 10 14.103 10 13C10 11.897 9.103 11 8 11C6.897 11 6 11.897 6 13ZM7 13C7 12.448 7.449 12 8 12C8.551 12 9 12.448 9 13C9 13.552 8.551 14 8 14C7.449 14 7 13.552 7 13Z"/></svg>