<svg width="16" height="16" viewBox="0 0 16 16" fill="none" xmlns="http://www.w3.org/2000/svg">
<path d="M9.99999 8C9.99999 8.39556 9.88272 8.78219 9.66295 9.11108C9.44319 9.43998 9.13082 9.6964 8.76537 9.84778C8.39992 9.99915 7.99781 10.0387 7.60985 9.96155C7.22189 9.88438 6.86551 9.69389 6.5858 9.41418C6.3061 9.13448 6.11561 8.7781 6.03844 8.39014C5.96127 8.00217 6.00084 7.60007 6.15221 7.23462C6.30359 6.86917 6.56001 6.5568 6.88891 6.33704C7.2178 6.11727 7.60443 6 7.99999 6C8.53042 6 9.0391 6.21074 9.41417 6.58582C9.78925 6.96089 9.99999 7.46957 9.99999 8Z" fill="#E51400"/>
<path d="M14.5 7.15002L10.24 2.41003L9.31006 2H4.25L3 3.25V12.73L4.25 13.98H9.31006L10.24 13.5601L14.5 8.81995V7.15002ZM9.31006 12.73H4.25V3.25H9.31006L13.5699 7.97998L9.31006 12.73Z" fill="#FFCC00"/>
</svg>
