<svg width="18" height="18" viewBox="0 0 18 18" xmlns="http://www.w3.org/2000/svg" fill="currentColor"><path d="M17 14.5C17 14.565 16.987 14.63 16.961 14.69C16.935 14.751 16.897 14.805 16.85 14.85L14.85 16.85C14.804 16.897 14.75 16.935 14.69 16.961C14.63 16.987 14.565 17 14.5 17C14.435 17 14.371 16.987 14.31 16.961C14.249 16.935 14.195 16.897 14.15 16.85L12.15 14.85C12.103 14.804 12.065 14.75 12.039 14.69C12.013 14.63 12 14.565 12 14.5C12 14.435 12.013 14.37 12.039 14.31C12.065 14.249 12.103 14.195 12.15 14.15C12.196 14.103 12.25 14.065 12.31 14.039C12.37 14.013 12.435 14 12.5 14C12.565 14 12.629 14.013 12.69 14.039C12.751 14.065 12.805 14.103 12.85 14.15L14 15.29V10.5C14 10.367 14.052 10.24 14.146 10.146C14.24 10.053 14.367 10 14.5 10C14.633 10 14.76 10.052 14.854 10.146C14.947 10.24 15 10.367 15 10.5V15.29L16.15 14.15C16.196 14.103 16.25 14.065 16.31 14.039C16.37 14.013 16.435 14 16.5 14C16.565 14 16.629 14.013 16.69 14.039C16.751 14.065 16.805 14.103 16.85 14.15C16.897 14.196 16.935 14.25 16.961 14.31C16.987 14.37 17 14.435 17 14.5ZM12 13H13V12H4C3.448 12 3 11.552 3 11V4C3 3.448 3.448 3 4 3H14C14.552 3 15 3.448 15 4V9H16V4C16 2.895 15.105 2 14 2H4C2.895 2 2 2.895 2 4V11C2 12.105 2.895 13 4 13H6V15H4.5C4.224 15 4 15.224 4 15.5C4 15.776 4.224 16 4.5 16H11V15H7V13H11V14.5C11 14.295 11.041 14.097 11.122 13.91C11.203 13.723 11.319 13.559 11.466 13.421C11.565 13.317 11.725 13.204 11.905 13.125C11.936 13.111 11.968 13.106 12 13.095V13Z"/></svg>