<svg width="16" height="16" viewBox="0 0 16 16" xmlns="http://www.w3.org/2000/svg" fill="currentColor"><path d="M16 13.5C16 13.565 15.987 13.63 15.961 13.69C15.935 13.751 15.897 13.805 15.85 13.85L13.85 15.85C13.804 15.897 13.75 15.935 13.69 15.961C13.63 15.987 13.565 16 13.5 16C13.435 16 13.371 15.987 13.31 15.961C13.249 15.935 13.195 15.897 13.15 15.85L11.15 13.85C11.103 13.804 11.065 13.75 11.039 13.69C11.013 13.63 11 13.565 11 13.5C11 13.435 11.013 13.37 11.039 13.31C11.065 13.249 11.103 13.195 11.15 13.15C11.196 13.103 11.25 13.065 11.31 13.039C11.37 13.013 11.435 13 11.5 13C11.565 13 11.629 13.013 11.69 13.039C11.751 13.065 11.805 13.103 11.85 13.15L13 14.29V9.5C13 9.367 13.052 9.24 13.146 9.146C13.24 9.053 13.367 9 13.5 9C13.633 9 13.76 9.052 13.854 9.146C13.947 9.24 14 9.367 14 9.5V14.29L15.15 13.15C15.196 13.103 15.25 13.065 15.31 13.039C15.37 13.013 15.435 13 15.5 13C15.565 13 15.629 13.013 15.69 13.039C15.751 13.065 15.805 13.103 15.85 13.15C15.897 13.196 15.935 13.25 15.961 13.31C15.987 13.37 16 13.435 16 13.5ZM11 12H12V11H3C2.448 11 2 10.552 2 10V3C2 2.448 2.448 2 3 2H13C13.552 2 14 2.448 14 3V8H15V3C15 1.895 14.105 1 13 1H3C1.895 1 1 1.895 1 3V10C1 11.105 1.895 12 3 12H5V14H3.5C3.224 14 3 14.224 3 14.5C3 14.776 3.224 15 3.5 15H10V14H6V12H10V13.5C10 13.295 10.041 13.097 10.122 12.91C10.203 12.723 10.319 12.559 10.466 12.421C10.565 12.317 10.725 12.204 10.905 12.125C10.936 12.111 10.968 12.106 11 12.095V12Z"/></svg>