<svg width="16" height="16" viewBox="0 0 16 16" xmlns="http://www.w3.org/2000/svg" fill="currentColor"><path d="M10.085 13.008H10.003V11.997H12V10.997H4C3.448 10.997 3 10.549 3 9.997V4C3 3.448 3.448 3 4 3H12C12.552 3 13 3.448 13 4V8.085C13.159 8.029 13.327 8 13.5 8C13.673 8 13.841 8.029 14 8.085V4C14 2.895 13.105 2 12 2H4C2.895 2 2 2.895 2 4V9.997C2 11.102 2.895 11.997 4 11.997H6.005V13.008H4.506C4.23 13.008 4.006 13.232 4.006 13.508C4.006 13.784 4.23 14.008 4.506 14.008H10.09C10.03 13.845 10 13.674 10 13.5C10 13.331 10.029 13.166 10.085 13.008ZM9.003 13.008H7.005V11.997H9.003V13.008Z"/><path d="M15.961 13.31C15.935 13.25 15.897 13.196 15.85 13.15C15.805 13.103 15.751 13.065 15.69 13.039C15.629 13.013 15.565 13 15.5 13C15.435 13 15.37 13.013 15.31 13.039C15.25 13.065 15.196 13.103 15.15 13.15L14 14.29V9.5C14 9.367 13.947 9.24 13.854 9.146C13.76 9.052 13.633 9 13.5 9C13.367 9 13.24 9.053 13.146 9.146C13.052 9.24 13 9.367 13 9.5V14.29L11.85 13.15C11.805 13.103 11.751 13.065 11.69 13.039C11.629 13.013 11.565 13 11.5 13C11.435 13 11.37 13.013 11.31 13.039C11.25 13.065 11.196 13.103 11.15 13.15C11.103 13.195 11.065 13.249 11.039 13.31C11.013 13.37 11 13.435 11 13.5C11 13.565 11.013 13.63 11.039 13.69C11.065 13.75 11.103 13.804 11.15 13.85L13.15 15.85C13.195 15.897 13.249 15.935 13.31 15.961C13.371 15.987 13.435 16 13.5 16C13.565 16 13.63 15.987 13.69 15.961C13.75 15.935 13.804 15.897 13.85 15.85L15.85 13.85C15.897 13.805 15.935 13.751 15.961 13.69C15.987 13.63 16 13.565 16 13.5C16 13.435 15.987 13.37 15.961 13.31Z"/></svg>