<svg xmlns="http://www.w3.org/2000/svg" width="16" height="16" viewBox="0 0 16 16" fill="currentColor"><path d="M1 3.5C1 2.12 2.12 1 3.5 1H10.5C11.88 1 13 2.12 13 3.5V5.03C12.67 4.99 12.33 4.99 12 5.03V5H2V10.5C2 11.33 2.67 12 3.5 12H6.45L5.73 12.72C5.64 12.81 5.56 12.9 5.49 13H3.5C2.12 13 1 11.88 1 10.5V3.5ZM8.93 6.72L8.35 6.14C8.15 5.94 7.84 5.94 7.64 6.14C7.44 6.34 7.44 6.65 7.64 6.85L8.38 7.59C8.52 7.28 8.7 6.99 8.92 6.72H8.93ZM2 4H12V3.5C12 2.67 11.33 2 10.5 2H3.5C2.67 2 2 2.67 2 3.5V4ZM6.35 6.85C6.55 6.65 6.55 6.34 6.35 6.14C6.15 5.94 5.84 5.94 5.64 6.14L3.64 8.14C3.44 8.34 3.44 8.65 3.64 8.85L5.64 10.85C5.84 11.05 6.15 11.05 6.35 10.85C6.55 10.65 6.55 10.34 6.35 10.14L4.7 8.49L6.35 6.84V6.85ZM12.89 6.02C13.26 6.06 13.36 6.5 13.1 6.76L12.12 7.74C11.53 8.33 11.53 9.28 12.12 9.87C12.71 10.46 13.66 10.46 14.25 9.87L15.23 8.89C15.49 8.63 15.93 8.73 15.97 9.1C16.09 10.13 15.75 11.21 14.96 12C13.97 12.99 12.53 13.27 11.29 12.83L8.56 15.56C7.97 16.15 7.02 16.15 6.43 15.56C5.84 14.97 5.84 14.02 6.43 13.43L9.16 10.7C8.72 9.46 8.99 8.02 9.99 7.03C10.78 6.24 11.86 5.9 12.89 6.02Z"/></svg>