<svg width="16" height="16" viewBox="0 0 16 16" fill="none" xmlns="http://www.w3.org/2000/svg">
<path fill-rule="evenodd" clip-rule="evenodd" d="M10.707 3H14.5L15 3.5V12.5L14.5 13H1.5L1 12.5V3.5L1.5 3H5.293L6.146 2.146L6.5 2H9.5L9.854 2.146L10.707 3ZM2 12H14V4H10.5L10.146 3.854L9.293 3H6.707L5.854 3.854L5.5 4H2V12ZM3.5 5C3.40111 5 3.30444 5.02932 3.22222 5.08427C3.13999 5.13921 3.0759 5.2173 3.03806 5.30866C3.00022 5.40002 2.99031 5.50055 3.00961 5.59755C3.0289 5.69454 3.07652 5.78363 3.14645 5.85355C3.21637 5.92348 3.30546 5.9711 3.40246 5.99039C3.49945 6.00969 3.59998 5.99978 3.69134 5.96194C3.78271 5.9241 3.86079 5.86001 3.91574 5.77779C3.97068 5.69556 4 5.59889 4 5.5C4 5.36739 3.94732 5.24021 3.85355 5.14645C3.75979 5.05268 3.63261 5 3.5 5ZM8 6C8.39556 6 8.78224 6.1173 9.11114 6.33706C9.44004 6.55682 9.69639 6.86918 9.84776 7.23463C9.99914 7.60009 10.0387 8.00222 9.96157 8.39018C9.8844 8.77814 9.69392 9.13451 9.41421 9.41421C9.13451 9.69392 8.77814 9.8844 8.39018 9.96157C8.00222 10.0387 7.60009 9.99913 7.23463 9.84776C6.86918 9.69638 6.55683 9.44004 6.33706 9.11114C6.1173 8.78224 6 8.39556 6 8C6 7.46957 6.21071 6.96086 6.58579 6.58579C6.96086 6.21071 7.46957 6 8 6ZM8 5C7.40666 5 6.82664 5.17595 6.33329 5.50559C5.83994 5.83524 5.45543 6.30377 5.22836 6.85195C5.0013 7.40013 4.94189 8.00333 5.05765 8.58527C5.1734 9.16721 5.45912 9.70176 5.87868 10.1213C6.29824 10.5409 6.83279 10.8266 7.41473 10.9424C7.99667 11.0581 8.59987 10.9987 9.14805 10.7716C9.69623 10.5446 10.1648 10.1601 10.4944 9.66671C10.8241 9.17336 11 8.59334 11 8C11 7.20435 10.6839 6.44129 10.1213 5.87868C9.55871 5.31607 8.79565 5 8 5Z" fill="white"/>
</svg>
