<svg width="16" height="16" viewBox="0 0 16 16" xmlns="http://www.w3.org/2000/svg" fill="currentColor"><path d="M4.5 2H11.5C12.881 2 14 3.119 14 4.5V11.5C14 12.881 12.881 14 11.5 14H4.5C3.119 14 2 12.881 2 11.5V4.5C2 3.119 3.119 2 4.5 2ZM3 11.5C3 12.328 3.672 13 4.5 13H11.5C12.328 13 13 12.328 13 11.5V4.5C13 3.672 12.328 3 11.5 3H4.5C3.672 3 3 3.672 3 4.5V11.5Z"/><path d="M10.146 5.14601C10.341 4.95101 10.658 4.95101 10.853 5.14601C11.048 5.34101 11.048 5.65801 10.853 5.85301L5.85302 10.853C5.75502 10.951 5.62702 10.999 5.49902 10.999C5.37102 10.999 5.24302 10.95 5.14502 10.853C4.95002 10.658 4.95002 10.341 5.14502 10.146L10.146 5.14601Z"/></svg>