<svg width="16" height="16" viewBox="0 0 16 16" xmlns="http://www.w3.org/2000/svg" fill="currentColor"><path d="M11.5 2H4.5C3.119 2 2 3.119 2 4.5V11.5C2 12.881 3.119 14 4.5 14H11.5C12.881 14 14 12.881 14 11.5V4.5C14 3.119 12.881 2 11.5 2ZM13 11.5C13 12.328 12.328 13 11.5 13H4.5C3.672 13 3 12.328 3 11.5V4.5C3 3.672 3.672 3 4.5 3H11.5C12.328 3 13 3.672 13 4.5V11.5ZM10.854 7.646C11.049 7.841 11.049 8.158 10.854 8.353L8.854 10.353C8.756 10.451 8.628 10.499 8.5 10.499C8.372 10.499 8.244 10.45 8.146 10.353C7.951 10.158 7.951 9.841 8.146 9.646L9.292 8.5H5.499C5.223 8.5 4.999 8.276 4.999 8C4.999 7.724 5.223 7.5 5.499 7.5H9.292L8.146 6.354C7.951 6.159 7.951 5.842 8.146 5.647C8.341 5.452 8.658 5.452 8.853 5.647L10.853 7.647L10.854 7.646Z"/></svg>