<svg width="16" height="16" viewBox="0 0 16 16" fill="none" xmlns="http://www.w3.org/2000/svg"><path d="M10.647 2.43802C10.363 2.15502 9.986 1.99902 9.586 1.99902H4C2.897 1.99902 2 2.89602 2 3.99902V14C2 15.103 2.897 16 4 16H11C12.103 16 13 15.103 13 14V5.41402C13 5.01302 12.844 4.63602 12.561 4.35302L10.647 2.43802ZM12 14C12 14.552 11.551 15 11 15H4C3.449 15 3 14.552 3 14V4.00002C3 3.44902 3.449 3.00002 4 3.00002H9.586C9.718 3.00002 9.847 3.05302 9.94 3.14602L11.854 5.06002C11.947 5.15402 12 5.28302 12 5.41402V14ZM15 5.40902V11.999C15 12.739 14.6 13.379 14 13.729V5.40902C14 4.74902 13.74 4.11902 13.27 3.64902L11.35 1.72902C10.89 1.26902 10.24 0.999023 9.59 0.999023H4.27C4.62 0.399023 5.26 -0.000976562 6 -0.000976562H9.59C10.51 -0.000976562 11.41 0.369023 12.06 1.02902L13.97 2.93902C14.64 3.59902 15 4.47902 15 5.40902ZM10 11.5C10 11.776 9.776 12 9.5 12H5.5C5.224 12 5 11.776 5 11.5C5 11.224 5.224 11 5.5 11H9.5C9.776 11 10 11.224 10 11.5ZM10 7.50002C10 7.77602 9.776 8.00002 9.5 8.00002H8V9.50002C8 9.77602 7.776 10 7.5 10C7.224 10 7 9.77602 7 9.50002V8.00002H5.5C5.224 8.00002 5 7.77602 5 7.50002C5 7.22402 5.224 7.00002 5.5 7.00002H7V5.50002C7 5.22402 7.224 5.00002 7.5 5.00002C7.776 5.00002 8 5.22402 8 5.50002V7.00002H9.5C9.776 7.00002 10 7.22402 10 7.50002Z" fill="currentColor"/></svg>