<svg width="18" height="18" viewBox="0 0 18 18" xmlns="http://www.w3.org/2000/svg" fill="currentColor"><path d="M5.5 3H12.5C13.881 3 15 4.119 15 5.5V12.5C15 13.881 13.881 15 12.5 15H5.5C4.119 15 3 13.881 3 12.5V5.5C3 4.119 4.119 3 5.5 3ZM4 12.5C4 13.328 4.672 14 5.5 14H12.5C13.328 14 14 13.328 14 12.5V5.5C14 4.672 13.328 4 12.5 4H5.5C4.672 4 4 4.672 4 5.5V12.5Z"/><path d="M11.146 6.14601C11.341 5.95101 11.658 5.95101 11.853 6.14601C12.048 6.34101 12.048 6.65801 11.853 6.85301L6.85302 11.853C6.75502 11.951 6.62702 11.999 6.49902 11.999C6.37102 11.999 6.24302 11.95 6.14502 11.853C5.95002 11.658 5.95002 11.341 6.14502 11.146L11.146 6.14601Z"/></svg>