<svg width="16" height="16" viewBox="0 0 16 16" xmlns="http://www.w3.org/2000/svg" fill="currentColor"><path d="M11.5 2H4.5C3.119 2 2 3.119 2 4.5V11.5C2 12.881 3.119 14 4.5 14H11.5C12.881 14 14 12.881 14 11.5V4.5C14 3.119 12.881 2 11.5 2ZM13 11.5C13 12.328 12.328 13 11.5 13H4.5C3.672 13 3 12.328 3 11.5V4.5C3 3.672 3.672 3 4.5 3H11.5C12.328 3 13 3.672 13 4.5V11.5Z"/><path d="M5.85398 5.14601C5.65898 4.95101 5.34198 4.95101 5.14698 5.14601C4.95198 5.34101 4.95198 5.65801 5.14698 5.85301L10.147 10.853C10.245 10.951 10.373 10.999 10.501 10.999C10.629 10.999 10.757 10.95 10.855 10.853C11.05 10.658 11.05 10.341 10.855 10.146L5.85398 5.14601Z"/></svg>