<svg width="18" height="18" viewBox="0 0 18 18" xmlns="http://www.w3.org/2000/svg" fill="currentColor"><path d="M10.647 4.43802C10.363 4.15502 9.986 3.99902 9.586 3.99902H6C4.897 3.99902 4 4.89602 4 5.99902V14C4 15.103 4.897 16 6 16H11C12.103 16 13 15.103 13 14V7.41402C13 7.01302 12.844 6.63602 12.561 6.35302L10.647 4.43802ZM12 14C12 14.552 11.551 15 11 15H6C5.449 15 5 14.552 5 14V6.00002C5 5.44902 5.449 5.00002 6 5.00002H9.586C9.718 5.00002 9.847 5.05302 9.94 5.14602L11.854 7.06002C11.947 7.15402 12 7.28302 12 7.41402V14ZM15 7.40902V11.999C15 12.739 14.6 13.379 14 13.729V7.40902C14 6.74902 13.74 6.11902 13.27 5.64902L11.35 3.72902C10.89 3.26902 10.24 2.99902 9.59 2.99902H6.27C6.62 2.39902 7.26 1.99902 8 1.99902H9.59C10.51 1.99902 11.41 2.36902 12.06 3.02902L13.97 4.93902C14.64 5.59902 15 6.47902 15 7.40902ZM11 12.5C11 12.776 10.776 13 10.5 13H6.5C6.224 13 6 12.776 6 12.5C6 12.224 6.224 12 6.5 12H10.5C10.776 12 11 12.224 11 12.5ZM11 8.50002C11 8.77602 10.776 9.00002 10.5 9.00002H9V10.5C9 10.776 8.776 11 8.5 11C8.224 11 8 10.776 8 10.5V9.00002H6.5C6.224 9.00002 6 8.77602 6 8.50002C6 8.22402 6.224 8.00002 6.5 8.00002H8V6.50002C8 6.22402 8.224 6.00002 8.5 6.00002C8.776 6.00002 9 6.22402 9 6.50002V8.00002H10.5C10.776 8.00002 11 8.22402 11 8.50002Z"/></svg>