<svg width="16" height="16" viewBox="0 0 16 16" xmlns="http://www.w3.org/2000/svg" fill="currentColor"><path d="M5.5 2H2.5C1.673 2 1 2.673 1 3.5V12.5C1 13.327 1.673 14 2.5 14H5.5C6.327 14 7 13.327 7 12.5V3.5C7 2.673 6.327 2 5.5 2ZM2.5 3H5.5C5.775 3 6 3.224 6 3.5V5H2V3.5C2 3.224 2.225 3 2.5 3ZM5.5 13H2.5C2.225 13 2 12.776 2 12.5V6H6V12.5C6 12.776 5.775 13 5.5 13ZM13.5 2H10.5C9.673 2 9 2.673 9 3.5V12.5C9 13.327 9.673 14 10.5 14H13.5C14.327 14 15 13.327 15 12.5V3.5C15 2.673 14.327 2 13.5 2ZM10.5 3H13.5C13.775 3 14 3.224 14 3.5V8H10V3.5C10 3.224 10.225 3 10.5 3ZM13.5 13H10.5C10.225 13 10 12.776 10 12.5V10H14V12.5C14 12.776 13.775 13 13.5 13Z"/></svg>