<svg width="16" height="16" viewBox="0 0 16 16" xmlns="http://www.w3.org/2000/svg" fill="currentColor"><path d="M14 6.41V11C14 11.74 13.6 12.38 13 12.73V6.41C13 5.75 12.74 5.12 12.27 4.65L10.35 2.73C9.89 2.27 9.24 2 8.59 2H5.27C5.62 1.4 6.26 1 7 1H8.59C9.51 1 10.41 1.37 11.06 2.03L12.97 3.94C13.64 4.6 14 5.48 14 6.41ZM11.561 5.354C11.844 5.637 12 6.014 12 6.415V13.001C12 14.104 11.103 15.001 10 15.001H5C3.897 15.001 3 14.104 3 13.001V5C3 3.897 3.897 3 5 3H8.586C8.986 3 9.363 3.156 9.647 3.439L11.561 5.354ZM11 6.414C11 6.283 10.947 6.154 10.854 6.06L8.94 4.146C8.847 4.053 8.718 4 8.586 4H5C4.449 4 4 4.449 4 5V13C4 13.552 4.449 14 5 14H10C10.551 14 11 13.552 11 13V6.414ZM8.5 7H8V6.5C8 6.224 7.776 6 7.5 6C7.224 6 7 6.224 7 6.5V7H6.5C6.224 7 6 7.224 6 7.5C6 7.776 6.224 8 6.5 8H7V8.5C7 8.776 7.224 9 7.5 9C7.776 9 8 8.776 8 8.5V8H8.5C8.776 8 9 7.776 9 7.5C9 7.224 8.776 7 8.5 7ZM8.5 11H6.5C6.224 11 6 11.224 6 11.5C6 11.776 6.224 12 6.5 12H8.5C8.776 12 9 11.776 9 11.5C9 11.224 8.776 11 8.5 11Z"/></svg>