<svg width="18" height="18" viewBox="0 0 18 18" xmlns="http://www.w3.org/2000/svg" fill="currentColor"><path d="M14 13V5.414C14 5.014 13.844 4.637 13.561 4.353L10.646 1.439C10.363 1.156 9.98602 1 9.58502 1H4.99902C3.89602 1 2.99902 1.897 2.99902 3V13C2.99902 14.103 3.89602 15 4.99902 15H11.999C13.102 15 13.999 14.103 13.999 13H14ZM4.00002 13V3C4.00002 2.449 4.44902 2 5.00002 2H9.58602C9.71702 2 9.84602 2.053 9.94002 2.146L12.854 5.06C12.947 5.153 13 5.282 13 5.414V13C13 13.551 12.551 14 12 14H5.00002C4.44902 14 4.00002 13.551 4.00002 13ZM16 7.41V13C16 15.21 14.21 17 12 17H7.00002C6.26002 17 5.62002 16.6 5.27002 16H12C13.65 16 15 14.65 15 13V5.79L15.56 6.35C15.84 6.64 16 7.01 16 7.41ZM11 6.499C11 6.775 10.776 6.999 10.5 6.999H9.00002V8.499C9.00002 8.775 8.77602 8.999 8.50002 8.999C8.22402 8.999 8.00002 8.775 8.00002 8.499V6.999H6.50002C6.22402 6.999 6.00002 6.775 6.00002 6.499C6.00002 6.223 6.22402 5.999 6.50002 5.999H8.00002V4.499C8.00002 4.223 8.22402 3.999 8.50002 3.999C8.77602 3.999 9.00002 4.223 9.00002 4.499V5.999H10.5C10.776 5.999 11 6.223 11 6.499ZM11 11.499C11 11.775 10.776 11.999 10.5 11.999H6.50002C6.22402 11.999 6.00002 11.775 6.00002 11.499C6.00002 11.223 6.22402 10.999 6.50002 10.999H10.5C10.776 10.999 11 11.223 11 11.499Z"/></svg>