<svg width="18" height="18" viewBox="0 0 18 18" xmlns="http://www.w3.org/2000/svg" fill="currentColor"><path d="M10.854 6.146L12.824 8.116L12.117 8.823L10.147 6.853C9.952 6.658 9.952 6.341 10.147 6.146C10.342 5.951 10.659 5.951 10.854 6.146ZM3 13V5C3 3.895 3.895 3 5 3H13C14.105 3 15 3.895 15 5V7.011C15.044 7.009 15.086 6.998 15.13 6.998C15.431 6.998 15.721 7.057 16 7.146V5C16 3.343 14.657 2 13 2H5C3.343 2 2 3.343 2 5V13C2 14.657 3.343 16 5 16H7.009C7.016 15.884 7.027 15.767 7.055 15.651L7.218 15H5C3.895 15 3 14.105 3 13ZM7.854 11.146L5.708 9L7.854 6.854C8.049 6.659 8.049 6.342 7.854 6.147C7.659 5.952 7.342 5.952 7.147 6.147L4.647 8.647C4.452 8.842 4.452 9.159 4.647 9.354L7.147 11.854C7.342 12.049 7.659 12.049 7.854 11.854C8.049 11.659 8.049 11.342 7.854 11.147V11.146ZM16.452 8.546C15.722 7.816 14.538 7.816 13.807 8.546L8.978 13.375C8.696 13.657 8.497 14.009 8.4 14.396L8.026 15.894C7.863 16.545 8.453 17.135 9.105 16.973L10.603 16.598C10.989 16.501 11.342 16.302 11.624 16.02L16.453 11.191C17.183 10.461 17.183 9.277 16.453 8.546H16.452Z"/></svg>