<svg width="16" height="16" viewBox="0 0 16 16" xmlns="http://www.w3.org/2000/svg" fill="currentColor"><path d="M12 14V6.5H13V14L12 15H3L2 14V2L3 1H8V2H3V14H12Z"/><path d="M7.00006 4H8V6H10.0001V7H8.00006V9H7.00006V7H5.00006V6H7.00006V4Z"/><path d="M10.0001 11H5.00006V12H10.0001V11Z"/><path d="M13.8867 0.596993V2.28996H12.1938V1.72564H12.7493C12.5964 1.57868 12.4245 1.46405 12.2334 1.38175C12.0424 1.29946 11.8411 1.25831 11.6294 1.25831C11.4737 1.25831 11.3252 1.28035 11.1841 1.32444C11.0431 1.36853 10.9079 1.43025 10.7785 1.50961C10.6492 1.58896 10.5346 1.68449 10.4347 1.79618C10.3347 1.90787 10.2524 2.03278 10.1878 2.17092L9.5 1.84467C9.59993 1.63599 9.72338 1.45082 9.87034 1.28917C10.0173 1.12751 10.1848 0.986434 10.3729 0.865927C10.561 0.745421 10.7609 0.654307 10.9725 0.592584C11.1841 0.530861 11.4031 0.5 11.6294 0.5C11.9498 0.5 12.2569 0.563192 12.5509 0.689577C12.8448 0.815961 13.102 0.993781 13.3224 1.22304V0.596993H13.8867Z"/><path d="M9.5 5.13714V3.44418H11.193V4.0085H10.6375C10.7903 4.15546 10.9622 4.27008 11.1533 4.35238C11.3443 4.43468 11.5457 4.47583 11.7573 4.47583C11.9131 4.47583 12.0615 4.45378 12.2026 4.40969C12.3437 4.36561 12.4789 4.30388 12.6082 4.22453C12.7375 4.14517 12.8521 4.04965 12.9521 3.93796C13.052 3.82627 13.1343 3.70135 13.199 3.56321L13.8867 3.88946C13.7868 4.09814 13.6633 4.28331 13.5164 4.44496C13.3694 4.60662 13.2019 4.7477 13.0138 4.86821C12.8257 4.98871 12.6258 5.07983 12.4142 5.14155C12.2026 5.20327 11.9836 5.23413 11.7573 5.23413C11.4369 5.23413 11.1298 5.17094 10.8359 5.04456C10.5419 4.91817 10.2848 4.74035 10.0643 4.5111V5.13714H9.5Z"/></svg>