<svg xmlns="http://www.w3.org/2000/svg" width="12" height="12" viewBox="0 0 12 12" fill="currentColor"><path fill-rule="evenodd" clip-rule="evenodd" d="M9.62999 0C10.9399 9.73611e-05 12.0098 1.07 12.0099 2.37988C12.0099 3.00987 11.7594 3.60957 11.3194 4.05957L10.6896 4.67969L4.50988 10.8604C4.2899 11.0803 3.99948 11.2396 3.68956 11.3096L0.620227 11.9902C0.620227 11.9902 0.549888 12 0.509876 12H0.50011C0.37011 12 0.239524 11.9496 0.149524 11.8496C0.0297368 11.7296 -0.0203258 11.5595 0.0196415 11.3896L0.699329 8.32031C0.769311 8.01039 0.919624 7.72997 1.14952 7.5L7.94933 0.700195C8.39933 0.250195 8.99999 0 9.62999 0ZM1.83995 8.20996C1.74995 8.29996 1.69027 8.41004 1.66027 8.54004L1.14952 10.8398L3.44933 10.3301C3.56914 10.3001 3.68946 10.2402 3.77941 10.1504L9.60949 4.32031L7.67003 2.37988L1.83995 8.20996ZM9.62023 1C9.25023 1 8.90952 1.14039 8.64952 1.40039L8.38488 1.66504L10.3341 3.61426L10.5997 3.34961C10.8596 3.08962 11.0001 2.73981 11.0001 2.37988C11 1.62007 10.38 1.00022 9.62023 1Z"/></svg>