<svg width="16" height="16" viewBox="0 0 16 16" xmlns="http://www.w3.org/2000/svg" fill="currentColor"><path fill-rule="evenodd" clip-rule="evenodd" d="M4.5 9C6.98528 9 9 6.98528 9 4.5C9 2.01472 6.98528 0 4.5 0C2.01472 0 0 2.01472 0 4.5C0 6.98528 2.01472 9 4.5 9ZM5 2.5C5 2.22386 4.77614 2 4.5 2C4.22386 2 4 2.22386 4 2.5V4H2.5C2.22386 4 2 4.22386 2 4.5C2 4.77614 2.22386 5 2.5 5H4V6.5C4 6.77614 4.22386 7 4.5 7C4.77614 7 5 6.77614 5 6.5V5H6.5C6.77614 5 7 4.77614 7 4.5C7 4.22386 6.77614 4 6.5 4H5V2.5Z"/><path d="M14 6H9.79297C9.88412 5.67772 9.94663 5.34341 9.97758 5H14V4.5C14 3.67157 13.3284 3 12.5 3H9.79297C9.69436 2.65136 9.56223 2.31679 9.40029 2H12.5C13.8807 2 15 3.11929 15 4.5V11.5C15 12.8807 13.8807 14 12.5 14H5.5C4.11929 14 3 12.8807 3 11.5V9.79297C3.32228 9.88412 3.65659 9.94663 4 9.97758V11.5C4 12.3284 4.67157 13 5.5 13H12.5C13.3284 13 14 12.3284 14 11.5V6Z"/></svg>