<svg width="16" height="16" viewBox="0 0 16 16" xmlns="http://www.w3.org/2000/svg" fill="currentColor"><path fill-rule="evenodd" clip-rule="evenodd" d="M15 4V12C15 13.657 13.657 15 12 15H4C2.343 15 1 13.657 1 12V8.739C1.307 8.992 1.643 9.209 2 9.393V12C2 13.105 2.895 14 4 14H12C13.105 14 14 13.105 14 12V5H9.975C9.99 4.835 10 4.669 10 4.5C10 4.331 9.99 4.165 9.975 4H14C14 2.895 13.105 2 12 2H9.393C9.21 1.643 8.993 1.307 8.739 1H12C13.657 1 15 2.343 15 4ZM0 4.5C0 2.015 2.015 0 4.5 0C6.985 0 9 2.015 9 4.5C9 6.985 6.985 9 4.5 9C2.015 9 0 6.985 0 4.5ZM2 4.5C2 4.776 2.224 5 2.5 5H4V6.5C4 6.776 4.224 7 4.5 7C4.776 7 5 6.776 5 6.5V5H6.5C6.776 5 7 4.776 7 4.5C7 4.224 6.776 4 6.5 4H5V2.5C5 2.224 4.776 2 4.5 2C4.224 2 4 2.224 4 2.5V4H2.5C2.224 4 2 4.224 2 4.5Z"/></svg>