<svg width="18" height="18" viewBox="0 0 18 18" xmlns="http://www.w3.org/2000/svg" fill="currentColor"><path fill-rule="evenodd" clip-rule="evenodd" d="M16 5V13C16 14.657 14.657 16 13 16H5C3.343 16 2 14.657 2 13V9.739C2.307 9.992 2.643 10.209 3 10.393V13C3 14.105 3.895 15 5 15H13C14.105 15 15 14.105 15 13V6H10.975C10.99 5.835 11 5.669 11 5.5C11 5.331 10.99 5.165 10.975 5H15C15 3.895 14.105 3 13 3H10.393C10.21 2.643 9.993 2.307 9.739 2H13C14.657 2 16 3.343 16 5ZM1 5.5C1 3.015 3.015 1 5.5 1C7.985 1 10 3.015 10 5.5C10 7.985 7.985 10 5.5 10C3.015 10 1 7.985 1 5.5ZM3 5.5C3 5.776 3.224 6 3.5 6H5V7.5C5 7.776 5.224 8 5.5 8C5.776 8 6 7.776 6 7.5V6H7.5C7.776 6 8 5.776 8 5.5C8 5.224 7.776 5 7.5 5H6V3.5C6 3.224 5.776 3 5.5 3C5.224 3 5 3.224 5 3.5V5H3.5C3.224 5 3 5.224 3 5.5Z"/></svg>