<svg width="16" height="16" viewBox="0 0 16 16" xmlns="http://www.w3.org/2000/svg" fill="currentColor"><path d="M14.5 6C14.5 5.6 14.344 5.223 14.061 4.939L11.062 1.939C10.496 1.372 9.504 1.372 8.94 1.939L1.439 9.439C1.156 9.722 1 10.099 1 10.5C1 10.901 1.156 11.277 1.439 11.561L3.439 13.561C3.722 13.844 4.099 14 4.5 14H11.5C11.776 14 12 13.776 12 13.5C12 13.224 11.776 13 11.5 13H8.121L14.06 7.061C14.343 6.778 14.499 6.401 14.499 6H14.5ZM4.146 12.854L2.146 10.854C2.051 10.759 2 10.634 2 10.5C2 10.366 2.052 10.241 2.146 10.146L4.293 8L8 11.707L6.707 13H4.5C4.366 13 4.241 12.948 4.146 12.854ZM13.354 6.354L8.708 11L5.001 7.293L9.648 2.646C9.742 2.552 9.867 2.5 10.001 2.5C10.135 2.5 10.26 2.552 10.355 2.646L13.355 5.646C13.45 5.741 13.501 5.866 13.501 6C13.501 6.134 13.448 6.259 13.354 6.354Z"/></svg>