<svg width="16" height="16" viewBox="0 0 16 16" xmlns="http://www.w3.org/2000/svg" fill="currentColor"><path d="M14 6.4999C14 6.0999 13.844 5.7229 13.561 5.4389L10.561 2.4389C9.99498 1.8729 9.00598 1.8729 8.43998 2.4389L2.43998 8.4389C2.15698 8.7219 2.00098 9.0989 2.00098 9.4999C2.00098 9.9009 2.15698 10.2769 2.43998 10.5609L5.43998 13.5609C5.72298 13.8439 6.09998 13.9999 6.50098 13.9999H11.501C11.777 13.9999 12.001 13.7759 12.001 13.4999C12.001 13.2239 11.777 12.9999 11.501 12.9999H8.12198L13.561 7.5609C13.844 7.2779 14 6.9009 14 6.4999ZM3.14598 9.8539C3.05098 9.7589 2.99998 9.6339 2.99998 9.4999C2.99998 9.3659 3.05198 9.2409 3.14598 9.1459L4.29198 7.9999L7.99898 11.7069L6.85298 12.8529C6.66398 13.0419 6.33498 13.0419 6.14598 12.8529L3.14598 9.8529V9.8539ZM12.853 6.8539L8.70698 10.9999L4.99998 7.2929L9.14598 3.1469C9.24098 3.0519 9.36598 3.0009 9.49998 3.0009C9.63398 3.0009 9.75898 3.0529 9.85398 3.1469L12.854 6.1469C12.949 6.2419 13 6.3669 13 6.5009C13 6.6349 12.948 6.7599 12.854 6.8549L12.853 6.8539Z"/></svg>