<svg width="18" height="18" viewBox="0 0 18 18" xmlns="http://www.w3.org/2000/svg" fill="currentColor"><path d="M15.5 7C15.5 6.6 15.344 6.223 15.061 5.939L12.062 2.939C11.496 2.372 10.504 2.372 9.94 2.939L2.439 10.439C2.156 10.722 2 11.099 2 11.5C2 11.901 2.156 12.277 2.439 12.561L4.439 14.561C4.722 14.844 5.099 15 5.5 15H12.5C12.776 15 13 14.776 13 14.5C13 14.224 12.776 14 12.5 14H9.121L15.06 8.061C15.343 7.778 15.499 7.401 15.499 7H15.5ZM5.146 13.854L3.146 11.854C3.051 11.759 3 11.634 3 11.5C3 11.366 3.052 11.241 3.146 11.146L5.293 9L9 12.707L7.707 14H5.5C5.366 14 5.241 13.948 5.146 13.854ZM14.354 7.354L9.708 12L6.001 8.293L10.648 3.646C10.742 3.552 10.867 3.5 11.001 3.5C11.135 3.5 11.26 3.552 11.355 3.646L14.355 6.646C14.45 6.741 14.501 6.866 14.501 7C14.501 7.134 14.448 7.259 14.354 7.354Z"/></svg>