<svg width="18" height="18" viewBox="0 0 18 18" xmlns="http://www.w3.org/2000/svg" fill="currentColor"><path d="M15.682 9.31802C14.838 8.47402 13.693 8.00002 12.5 8.00002C11.61 8.00002 10.74 8.26402 10 8.75802C9.26 9.25202 8.683 9.95502 8.343 10.778C8.002 11.6 7.913 12.505 8.087 13.378C8.26099 14.251 8.689 15.053 9.319 15.682C9.948 16.311 10.75 16.74 11.623 16.914C12.496 17.088 13.401 16.999 14.223 16.658C15.045 16.317 15.748 15.741 16.242 15.001C16.736 14.261 17 13.391 17 12.501C17 11.307 16.526 10.163 15.682 9.31902V9.31802ZM14.854 12.854C14.76 12.948 14.633 13 14.5 13H10.5C10.367 13 10.24 12.947 10.146 12.854C10.052 12.76 10 12.633 10 12.5C10 12.367 10.053 12.24 10.146 12.146C10.24 12.052 10.367 12 10.5 12H14.5C14.633 12 14.76 12.053 14.854 12.146C14.948 12.24 15 12.367 15 12.5C15 12.633 14.947 12.76 14.854 12.854ZM6.095 12.188C6.423 12.188 6.732 12.277 7 12.431V13.5H6.724C6.57 13.313 6.345 13.191 6.094 13.191C6.045 13.191 5.995 13.195 5.945 13.204C5.901 13.212 5.857 13.224 5.815 13.239L4.228 13.804C4.183 13.82 4.136 13.828 4.089 13.828C3.974 13.828 3.862 13.78 3.782 13.692C3.118 12.96 2.614 12.097 2.309 11.156C2.258 10.997 2.307 10.823 2.435 10.715L3.721 9.62802C4.06899 9.33302 4.112 8.81402 3.816 8.46702C3.787 8.43302 3.755 8.40102 3.721 8.37202L2.435 7.28502C2.307 7.17702 2.257 7.00302 2.309 6.84402C2.615 5.90302 3.118 5.04002 3.782 4.30802C3.862 4.22002 3.974 4.17202 4.089 4.17202C4.135 4.17202 4.183 4.18002 4.228 4.19602L5.815 4.76102C5.907 4.79302 6.001 4.80902 6.093 4.80902C6.433 4.80902 6.751 4.59902 6.872 4.26202C6.887 4.22002 6.899 4.17702 6.907 4.13302L7.209 2.48102C7.239 2.31702 7.366 2.18702 7.53 2.15202C8.01 2.05102 8.502 1.99902 9 1.99902C9.498 1.99902 9.989 2.05002 10.469 2.15202C10.633 2.18702 10.76 2.31702 10.79 2.48102L11.093 4.13302C11.166 4.53102 11.514 4.80902 11.906 4.80902C11.955 4.80902 12.005 4.80402 12.055 4.79502C12.099 4.78702 12.143 4.77502 12.185 4.76002L13.772 4.19502C13.817 4.17902 13.864 4.17102 13.911 4.17102C14.026 4.17102 14.138 4.21902 14.218 4.30702C14.881 5.03902 15.385 5.90202 15.69 6.84302C15.741 7.00202 15.692 7.17602 15.564 7.28402L15.097 7.67902C14.764 7.49902 14.418 7.35602 14.055 7.24902L14.606 6.78302C14.389 6.23802 14.095 5.73202 13.727 5.27202L12.52 5.70202C12.426 5.73502 12.33 5.76002 12.233 5.77802C12.123 5.79802 12.013 5.80802 11.905 5.80802C11.023 5.80802 10.268 5.17902 10.109 4.31202L9.88 3.06102C9.59 3.01902 9.295 2.99802 9 2.99802C8.705 2.99802 8.41 3.02002 8.119 3.06202L7.89 4.31302C7.87199 4.41002 7.847 4.50602 7.813 4.60002C7.554 5.32302 6.862 5.80902 6.093 5.80902C5.883 5.80902 5.677 5.77302 5.479 5.70302L4.272 5.27302C3.904 5.73302 3.61 6.23902 3.39299 6.78402L4.367 7.60702C4.442 7.67102 4.513 7.74202 4.577 7.81702C4.894 8.18902 5.047 8.66102 5.007 9.14702C4.967 9.63302 4.74 10.075 4.367 10.39L3.39299 11.213C3.61 11.758 3.904 12.263 4.272 12.724L5.479 12.294C5.573 12.261 5.66799 12.236 5.765 12.218C5.876 12.198 5.98699 12.188 6.095 12.188ZM8.057 9.28102C7.831 9.59302 7.634 9.92402 7.476 10.281C7.18299 9.93302 6.999 9.49002 6.999 8.99902C6.999 7.89402 7.894 6.99902 8.999 6.99902C9.49 6.99902 9.934 7.18302 10.281 7.47602C9.992 7.60402 9.71 7.74902 9.443 7.92702C9.38499 7.96602 9.335 8.01502 9.278 8.05602C9.18799 8.02902 9.098 7.99902 8.998 7.99902C8.446 7.99902 7.998 8.44702 7.998 8.99902C7.998 9.09902 8.028 9.19002 8.055 9.28202L8.057 9.28102Z"/></svg>