<svg width="16" height="16" viewBox="0 0 16 16" xmlns="http://www.w3.org/2000/svg" fill="currentColor"><path d="M6.99994 6C5.89537 6 4.99994 6.89543 4.99994 8C4.99994 8.83948 5.51715 9.55816 6.2503 9.85477C6.35094 9.5333 6.48029 9.22453 6.63536 8.93146C6.26337 8.78575 5.99994 8.42364 5.99994 8C5.99994 7.44772 6.44765 7 6.99994 7C7.33527 7 7.63204 7.16505 7.81347 7.41834C8.06068 7.19492 8.32829 6.99363 8.61317 6.81762C8.24918 6.32183 7.66215 6 6.99994 6Z"/><path d="M4.2033 10.6176C4.93798 10.4842 5.65249 10.842 6.00013 11.4615L6 11.5C6 12.394 6.21329 13.2381 6.59174 13.9844C6.30408 13.9652 6.0197 13.9257 5.74013 13.8665C5.5996 13.8367 5.49104 13.7254 5.46529 13.5846L5.2063 12.1691C5.13608 11.7857 4.76701 11.5316 4.38196 11.6015C4.3441 11.6084 4.30687 11.6184 4.27068 11.6312L2.91115 12.1153C2.77603 12.1634 2.62511 12.1256 2.52891 12.0196C1.96005 11.3926 1.52892 10.6528 1.2672 9.84685C1.22305 9.71089 1.26562 9.56183 1.37502 9.46935L2.47693 8.53783C2.77528 8.28558 2.81177 7.84027 2.55843 7.5432C2.53352 7.51399 2.50626 7.48685 2.47694 7.46206L1.37502 6.53053C1.26562 6.43805 1.22305 6.28899 1.2672 6.15302C1.52892 5.34708 1.96005 4.60729 2.52891 3.98033C2.62511 3.87431 2.77603 3.83652 2.91115 3.88463L4.27062 4.36863C4.6392 4.49978 5.04476 4.30859 5.17647 3.9416C5.18942 3.90551 5.1994 3.86844 5.20629 3.8308L5.46529 2.41527C5.49104 2.27452 5.5996 2.1632 5.74013 2.13341C6.1513 2.04627 6.57289 2.00195 7 2.00195C7.42685 2.00195 7.84818 2.04621 8.25912 2.13325C8.39961 2.16301 8.50816 2.27427 8.53397 2.41496L8.7937 3.83074C8.86392 4.21413 9.23299 4.46825 9.61803 4.39833C9.6559 4.39146 9.69313 4.38152 9.72932 4.36865L11.0888 3.88463C11.224 3.83652 11.3749 3.87431 11.4711 3.98033C12.0363 4.60327 12.4656 5.33761 12.7277 6.13755C12.3661 6.0551 11.991 6.00829 11.6061 6.001C11.4464 5.63724 11.2433 5.2936 11.0014 4.97726L10.0647 5.31073C9.9775 5.34176 9.88773 5.36572 9.7967 5.38225C8.87266 5.55003 7.98053 4.9408 7.81011 4.01117L7.63214 3.04107C7.42397 3.0151 7.213 3.00195 7 3.00195C6.78684 3.00195 6.5757 3.01512 6.36738 3.04113L6.18996 4.01078C6.17324 4.1021 6.14903 4.19207 6.11769 4.2794C5.79872 5.16815 4.82017 5.62559 3.93522 5.3107L2.99863 4.97726C2.74357 5.31084 2.53161 5.67476 2.36814 6.06064L3.12254 6.69838C3.19332 6.75822 3.25917 6.82378 3.31933 6.89433C3.93254 7.61339 3.84343 8.69201 3.12257 9.30148L2.36814 9.93924C2.53161 10.3251 2.74357 10.689 2.99863 11.0226L3.93528 10.6892C4.0225 10.6581 4.11227 10.6342 4.2033 10.6176Z"/><path fill-rule="evenodd" clip-rule="evenodd" d="M11.5 7C10.61 7 9.73996 7.26392 8.99994 7.75839C8.25991 8.25285 7.68314 8.95566 7.34254 9.77792C7.00195 10.6002 6.91283 11.505 7.08647 12.3779C7.2601 13.2508 7.68868 14.0526 8.31802 14.682C8.94736 15.3113 9.74918 15.7399 10.6221 15.9135C11.495 16.0872 12.3998 15.9981 13.2221 15.6575C14.0443 15.3169 14.7471 14.7401 15.2416 14.0001C15.7361 13.26 16 12.39 16 11.5C16 10.3065 15.5259 9.16193 14.682 8.31802C13.8381 7.47411 12.6935 7 11.5 7ZM13.5 12H9.5C9.36739 12 9.24021 11.9473 9.14645 11.8536C9.05268 11.7598 9 11.6326 9 11.5C9 11.3674 9.05268 11.2402 9.14645 11.1464C9.24021 11.0527 9.36739 11 9.5 11H13.5C13.6326 11 13.7598 11.0527 13.8536 11.1464C13.9473 11.2402 14 11.3674 14 11.5C14 11.6326 13.9473 11.7598 13.8536 11.8536C13.7598 11.9473 13.6326 12 13.5 12Z"/></svg>