<svg width="16" height="16" viewBox="0 0 16 16" xmlns="http://www.w3.org/2000/svg" fill="currentColor"><path d="M14.682 8.31802C13.838 7.47402 12.693 7.00002 11.5 7.00002C10.61 7.00002 9.74 7.26402 9 7.75802C8.26 8.25202 7.683 8.95502 7.343 9.77802C7.002 10.6 6.913 11.505 7.087 12.378C7.261 13.251 7.689 14.053 8.319 14.682C8.948 15.311 9.75 15.74 10.623 15.914C11.496 16.088 12.401 15.999 13.223 15.658C14.045 15.317 14.748 14.741 15.242 14.001C15.736 13.261 16 12.391 16 11.501C16 10.307 15.526 9.16302 14.682 8.31902V8.31802ZM14.354 11.854C14.26 11.948 14.133 12 14 12H9C8.867 12 8.74 11.947 8.646 11.854C8.552 11.76 8.5 11.633 8.5 11.5C8.5 11.367 8.553 11.24 8.646 11.146C8.74 11.052 8.867 11 9 11H14C14.133 11 14.26 11.053 14.354 11.146C14.448 11.24 14.5 11.367 14.5 11.5C14.5 11.633 14.447 11.76 14.354 11.854ZM5.095 11.188C5.423 11.188 5.732 11.277 6 11.431V12.5H5.724C5.57 12.313 5.345 12.191 5.094 12.191C5.045 12.191 4.995 12.195 4.945 12.204C4.901 12.212 4.857 12.224 4.815 12.239L3.228 12.804C3.183 12.82 3.136 12.828 3.089 12.828C2.974 12.828 2.862 12.78 2.782 12.692C2.118 11.96 1.614 11.097 1.309 10.156C1.258 9.99702 1.307 9.82302 1.435 9.71502L2.721 8.62802C3.069 8.33302 3.112 7.81402 2.816 7.46702C2.787 7.43302 2.755 7.40102 2.721 7.37202L1.435 6.28502C1.307 6.17702 1.257 6.00302 1.309 5.84402C1.615 4.90302 2.118 4.04002 2.782 3.30802C2.862 3.22002 2.974 3.17202 3.089 3.17202C3.135 3.17202 3.183 3.18002 3.228 3.19602L4.815 3.76102C4.907 3.79302 5.001 3.80902 5.093 3.80902C5.433 3.80902 5.751 3.59902 5.872 3.26202C5.887 3.22002 5.899 3.17702 5.907 3.13302L6.209 1.48102C6.239 1.31702 6.366 1.18702 6.53 1.15202C7.01 1.05102 7.502 0.999023 8 0.999023C8.498 0.999023 8.989 1.05002 9.469 1.15202C9.633 1.18702 9.76 1.31702 9.79 1.48102L10.093 3.13302C10.166 3.53102 10.514 3.80902 10.906 3.80902C10.955 3.80902 11.005 3.80402 11.055 3.79502C11.099 3.78702 11.143 3.77502 11.185 3.76002L12.772 3.19502C12.817 3.17902 12.864 3.17102 12.911 3.17102C13.026 3.17102 13.138 3.21902 13.218 3.30702C13.881 4.03902 14.385 4.90202 14.69 5.84302C14.741 6.00202 14.692 6.17602 14.564 6.28402L14.097 6.67902C13.764 6.49902 13.418 6.35602 13.055 6.24902L13.606 5.78302C13.389 5.23802 13.095 4.73202 12.727 4.27202L11.52 4.70202C11.426 4.73502 11.33 4.76002 11.233 4.77802C11.123 4.79802 11.013 4.80802 10.905 4.80802C10.023 4.80802 9.268 4.17902 9.109 3.31202L8.88 2.06102C8.59 2.01902 8.295 1.99802 8 1.99802C7.705 1.99802 7.41 2.02002 7.119 2.06202L6.89 3.31302C6.872 3.41002 6.847 3.50602 6.813 3.60002C6.554 4.32302 5.862 4.80902 5.093 4.80902C4.883 4.80902 4.677 4.77302 4.479 4.70302L3.272 4.27302C2.904 4.73302 2.60999 5.23902 2.39299 5.78402L3.367 6.60702C3.442 6.67102 3.513 6.74202 3.577 6.81702C3.894 7.18902 4.047 7.66102 4.007 8.14702C3.967 8.63302 3.74 9.07502 3.367 9.39002L2.39299 10.213C2.60999 10.758 2.904 11.263 3.272 11.724L4.479 11.294C4.573 11.261 4.668 11.236 4.765 11.218C4.876 11.198 4.987 11.188 5.095 11.188ZM7.057 8.28102C6.831 8.59302 6.634 8.92402 6.476 9.28102C6.183 8.93302 5.999 8.49002 5.999 7.99902C5.999 6.89402 6.894 5.99902 7.999 5.99902C8.49 5.99902 8.934 6.18302 9.281 6.47602C8.992 6.60402 8.71 6.74902 8.443 6.92702C8.385 6.96602 8.335 7.01502 8.278 7.05602C8.188 7.02902 8.098 6.99902 7.998 6.99902C7.446 6.99902 6.998 7.44702 6.998 7.99902C6.998 8.09902 7.028 8.19002 7.055 8.28202L7.057 8.28102Z"/></svg>