<svg width="16" height="16" viewBox="0 0 16 16" xmlns="http://www.w3.org/2000/svg" fill="currentColor"><path d="M15 6V11C15 13.21 13.21 15 11 15H6C5.26 15 4.62 14.6 4.27 14H11C12.65 14 14 12.65 14 11V4.27C14.6 4.62 15 5.26 15 6ZM11 13H4C2.897 13 2 12.103 2 11V4C2 2.897 2.897 2 4 2H11C12.103 2 13 2.897 13 4V11C13 12.103 12.103 13 11 13ZM4 12H11C11.551 12 12 11.552 12 11V4C12 3.449 11.551 3 11 3H4C3.449 3 3 3.449 3 4V11C3 11.552 3.449 12 4 12ZM9.5 7H8V5.5C8 5.224 7.776 5 7.5 5C7.224 5 7 5.224 7 5.5V7H5.5C5.224 7 5 7.224 5 7.5C5 7.776 5.224 8 5.5 8H7V9.5C7 9.776 7.224 10 7.5 10C7.776 10 8 9.776 8 9.5V8H9.5C9.776 8 10 7.776 10 7.5C10 7.224 9.776 7 9.5 7Z"/></svg>