<svg width="16" height="16" viewBox="0 0 16 16" xmlns="http://www.w3.org/2000/svg" fill="currentColor"><path d="M1.5 2.99976C1.776 2.99976 2 3.22376 2 3.49976V11.4998C2 11.7758 1.776 11.9998 1.5 11.9998C1.224 11.9998 1 11.7758 1 11.4998V3.49976C1 3.22376 1.224 2.99976 1.5 2.99976ZM10.146 3.14576C10.341 2.95076 10.658 2.95076 10.853 3.14576L14.853 7.14576C15.048 7.34076 15.048 7.65776 14.853 7.85276L10.853 11.8528C10.658 12.0478 10.341 12.0478 10.146 11.8528C9.951 11.6578 9.951 11.3408 10.146 11.1458L13.293 7.99976H4.5C4.224 7.99976 4 7.77576 4 7.49976C4 7.22376 4.224 6.99976 4.5 6.99976H13.293L10.147 3.85376C9.952 3.65876 9.952 3.34176 10.147 3.14676L10.146 3.14576Z"/></svg>