<svg width="16" height="16" viewBox="0 0 16 16" xmlns="http://www.w3.org/2000/svg" fill="currentColor"><path d="M1.5 2.9999C1.77614 2.9999 2 3.22376 2 3.4999V11.9999C2 12.276 1.77614 12.4999 1.5 12.4999C1.22386 12.4999 1 12.276 1 11.9999V3.4999C1 3.22376 1.22386 2.9999 1.5 2.9999ZM10.6464 3.64635C10.8417 3.45109 11.1583 3.45109 11.3536 3.64635L14.8536 7.14635C15.0488 7.34161 15.0488 7.65819 14.8536 7.85345L11.3536 11.3535C11.1583 11.5487 10.8417 11.5487 10.6464 11.3535C10.4512 11.1582 10.4512 10.8416 10.6464 10.6463L13.2929 7.9999H4.5C4.22386 7.9999 4 7.77604 4 7.4999C4 7.22376 4.22386 6.9999 4.5 6.9999H13.2929L10.6464 4.35345C10.4512 4.15819 10.4512 3.84161 10.6464 3.64635Z"/></svg>