<svg width="16" height="16" viewBox="0 0 16 16" xmlns="http://www.w3.org/2000/svg" fill="currentColor"><path d="M16 4.24998C16 3.85398 15.846 3.48298 15.566 3.20398L12.796 0.433977C12.237 -0.126023 11.263 -0.126023 10.704 0.433977L8.5 2.63798V2.50098C8.5 1.67398 7.827 1.00098 7 1.00098H2.5C1.673 1.00098 1 1.67398 1 2.50098V13.501C1 14.328 1.673 15.001 2.5 15.001H13.5C14.327 15.001 15 14.328 15 13.501V9.00098C15 8.17398 14.327 7.50098 13.5 7.50098H13.362L15.566 5.29698C15.845 5.01798 16 4.64498 16 4.24998ZM2.5 1.99998H7C7.275 1.99998 7.5 2.22398 7.5 2.49998V7.49998H2V2.49998C2 2.22398 2.225 1.99998 2.5 1.99998ZM2 13.5V8.49998H7.5V14H2.5C2.225 14 2 13.775 2 13.5ZM14 8.99998V13.5C14 13.775 13.775 14 13.5 14H8.5V8.49998H13.5C13.775 8.49998 14 8.72398 14 8.99998ZM8.5 7.49998V5.86198L10.138 7.49998H8.5ZM14.859 4.58898L12.088 7.35998C11.906 7.54198 11.592 7.54198 11.41 7.35998L8.639 4.58898C8.548 4.49898 8.498 4.37898 8.498 4.25098C8.498 4.12298 8.548 4.00298 8.639 3.91198L11.41 1.14098C11.501 1.04998 11.621 0.999977 11.749 0.999977C11.877 0.999977 11.997 1.04998 12.088 1.14098L14.859 3.91198C14.95 4.00198 15 4.12198 15 4.24998C15 4.37798 14.95 4.49798 14.859 4.58898Z"/></svg>