<svg width="24" height="24" viewBox="0 0 24 24" xmlns="http://www.w3.org/2000/svg" fill="currentColor"><path d="M18.4923 2.33034L21.671 5.50911C22.5497 6.38779 22.5497 7.81241 21.671 8.69109L19.0866 11.275C20.1696 11.4375 21 12.3718 21 13.5V18.75C21 19.9926 19.9926 21 18.75 21H5.25C4.00736 21 3 19.9926 3 18.75V5.25001C3 4.00736 4.00736 3.00001 5.25 3.00001H10.5C11.6289 3.00001 12.5637 3.83146 12.7253 4.91541L15.3103 2.33034C16.189 1.45166 17.6136 1.45166 18.4923 2.33034ZM4.5 18.75C4.5 19.1642 4.83579 19.5 5.25 19.5L11.249 19.4993L11.25 12.75L4.5 12.7493V18.75ZM12.749 19.4993L18.75 19.5C19.1642 19.5 19.5 19.1642 19.5 18.75V13.5C19.5 13.0858 19.1642 12.75 18.75 12.75L12.749 12.7493V19.4993ZM10.5 4.50001H5.25C4.83579 4.50001 4.5 4.83579 4.5 5.25001V11.2493H11.25V5.25001C11.25 4.83579 10.9142 4.50001 10.5 4.50001ZM12.75 9.30933V11.25L14.69 11.2493L12.75 9.30933ZM16.3709 3.391L13.1922 6.56977C12.8993 6.86266 12.8993 7.33753 13.1922 7.63043L16.3709 10.8092C16.6638 11.1021 17.1387 11.1021 17.4316 10.8092L20.6104 7.63043C20.9033 7.33753 20.9033 6.86266 20.6104 6.56977L17.4316 3.391C17.1387 3.0981 16.6638 3.0981 16.3709 3.391Z"/></svg>