<svg width="16" height="16" viewBox="0 0 16 16" xmlns="http://www.w3.org/2000/svg" fill="currentColor"><path d="M11.8107 2.44862C11.2249 1.86283 10.2751 1.86283 9.68934 2.44862L7.96209 4.17587C7.81395 3.50323 7.21434 2.99996 6.49719 2.99996H3.49719C2.66877 2.99996 1.99719 3.67153 1.99719 4.49995V12.498C1.99719 13.0083 2.252 13.4591 2.64133 13.73C2.88458 13.9001 3.18064 14 3.5 14H11.5C12.3284 14 13 13.3284 13 12.5V9.49996C13 8.80093 12.5218 8.21359 11.8748 8.04715L13.5813 6.3406C14.1671 5.75481 14.1671 4.80506 13.5813 4.21928L11.8107 2.44862ZM9.57803 7.99996H7.99719V6.41911L9.57803 7.99996ZM10.3964 3.15572C10.5917 2.96046 10.9083 2.96046 11.1036 3.15572L12.8742 4.92639C13.0695 5.12165 13.0695 5.43823 12.8742 5.63349L11.1036 7.40415C10.9083 7.59942 10.5917 7.59942 10.3964 7.40416L8.62578 5.63349C8.43052 5.43823 8.43052 5.12165 8.62578 4.92639L10.3964 3.15572ZM6.99719 4.49996V7.99996L2.99719 7.99996V4.49995C2.99719 4.22381 3.22105 3.99996 3.49719 3.99996H6.49719C6.77333 3.99996 6.99719 4.22381 6.99719 4.49996ZM3 12.5L3 8.99996H6.99719V12.998H3.49719C3.39102 12.998 3.29257 12.9649 3.21161 12.9085C3.08358 12.8179 3 12.6687 3 12.5ZM7.99719 8.99996H11.5C11.7761 8.99996 12 9.22381 12 9.49996V12.5C12 12.7761 11.7761 13 11.5 13H7.99719V8.99996Z"/></svg>