<svg width="24" height="25" viewBox="0 0 24 25" xmlns="http://www.w3.org/2000/svg" fill="currentColor"><path d="M24 6.94275C24 6.34975 23.769 5.79175 23.35 5.37375L19.194 1.21775C18.356 0.378751 16.894 0.378751 16.056 1.21775L12.75 4.52375V4.31775C12.75 3.07675 11.741 2.06775 10.5 2.06775H3.75C2.509 2.06775 1.5 3.07675 1.5 4.31775V20.8178C1.5 22.0588 2.509 23.0678 3.75 23.0678H20.25C21.491 23.0678 22.5 22.0588 22.5 20.8178V14.0678C22.5 12.8268 21.491 11.8178 20.25 11.8178H20.044L23.35 8.51275C23.769 8.09375 24 7.53675 24 6.94275ZM3.75 3.56775H10.5C10.913 3.56775 11.25 3.90375 11.25 4.31775V11.8178H3V4.31775C3 3.90375 3.337 3.56775 3.75 3.56775ZM3 20.8178V13.3178H11.25V21.5678H3.75C3.337 21.5678 3 21.2308 3 20.8178ZM21 14.0678V20.8178C21 21.2308 20.663 21.5678 20.25 21.5678H12.75V13.3178H20.25C20.663 13.3178 21 13.6538 21 14.0678ZM12.75 11.8178V9.36075L15.207 11.8178H12.75ZM22.289 7.45075L18.133 11.6068C17.861 11.8788 17.389 11.8788 17.116 11.6068L12.96 7.45075C12.824 7.31575 12.749 7.13475 12.749 6.94275C12.749 6.75075 12.824 6.57075 12.96 6.43475L17.116 2.27875C17.252 2.14275 17.432 2.06775 17.624 2.06775C17.816 2.06775 17.996 2.14275 18.132 2.27875L22.288 6.43475C22.424 6.56975 22.499 6.75075 22.499 6.94275C22.499 7.13475 22.425 7.31475 22.289 7.45075Z"/></svg>