<svg width="18" height="18" viewBox="0 0 18 18" xmlns="http://www.w3.org/2000/svg" fill="currentColor"><path d="M17 5.24998C17 4.85398 16.846 4.48298 16.566 4.20398L13.796 1.43398C13.237 0.873977 12.263 0.873977 11.704 1.43398L9.5 3.63798V3.50098C9.5 2.67398 8.827 2.00098 8 2.00098H3.5C2.673 2.00098 2 2.67398 2 3.50098V14.501C2 15.328 2.673 16.001 3.5 16.001H14.5C15.327 16.001 16 15.328 16 14.501V10.001C16 9.17398 15.327 8.50098 14.5 8.50098H14.362L16.566 6.29698C16.845 6.01798 17 5.64498 17 5.24998ZM3.5 2.99998H8C8.275 2.99998 8.5 3.22398 8.5 3.49998V8.49998H3V3.49998C3 3.22398 3.225 2.99998 3.5 2.99998ZM3 14.5V9.49998H8.5V15H3.5C3.225 15 3 14.775 3 14.5ZM15 9.99998V14.5C15 14.775 14.775 15 14.5 15H9.5V9.49998H14.5C14.775 9.49998 15 9.72398 15 9.99998ZM9.5 8.49998V6.86198L11.138 8.49998H9.5ZM15.859 5.58898L13.088 8.35998C12.906 8.54198 12.592 8.54198 12.41 8.35998L9.639 5.58898C9.548 5.49898 9.498 5.37898 9.498 5.25098C9.498 5.12298 9.548 5.00298 9.639 4.91198L12.41 2.14098C12.501 2.04998 12.621 1.99998 12.749 1.99998C12.877 1.99998 12.997 2.04998 13.088 2.14098L15.859 4.91198C15.95 5.00198 16 5.12198 16 5.24998C16 5.37798 15.95 5.49798 15.859 5.58898Z"/></svg>