<svg width="16" height="16" viewBox="0 0 16 16" xmlns="http://www.w3.org/2000/svg" fill="currentColor"><path fill-rule="evenodd" clip-rule="evenodd" d="M8 2.50073C6.5 2.50073 5.2 2.90073 4.1 3.70073L4.9 4.40073C5.8 3.80073 6.8 3.50073 8 3.50073C11.3 3.50073 14 6.20073 14 9.50073H15C15 5.60073 11.9 2.50073 8 2.50073ZM1 3.50078L2.6 5.00078C1.6 6.20078 1 7.80078 1 9.50078H2C2 8.00078 2.5 6.70078 3.4 5.70078L5.6 7.70078C5.2 8.20078 5 8.80078 5 9.50078C5 11.2008 6.3 12.5008 8 12.5008C8.8 12.5008 9.5 12.2008 10 11.7008L13 14.5008L13.7 13.8008L1.7 2.80078L1 3.50078ZM6.3 8.40078L9.2 11.1008C8.9 11.3008 8.5 11.5008 8 11.5008C6.9 11.5008 6 10.6008 6 9.50078C6 9.10078 6.1 8.70078 6.3 8.40078ZM11 10.0007L10 9.10073C9.8 8.30073 9.1 7.60073 8.2 7.50073L7.2 6.60073C7.5 6.50073 7.7 6.50073 8 6.50073C9.7 6.50073 11 7.80073 11 9.50073V10.0007Z"/></svg>