<svg width="16" height="16" viewBox="0 0 16 16" xmlns="http://www.w3.org/2000/svg" fill="currentColor"><path fill-rule="evenodd" clip-rule="evenodd" d="M8 3.00073C6.5 3.00073 5.2 3.40073 4.1 4.20073L4.9 4.90073C5.8 4.30073 6.8 4.00073 8 4.00073C11.3 4.00073 14 6.70073 14 10.0007H15C15 6.10073 11.9 3.00073 8 3.00073ZM1 4.00078L2.6 5.50078C1.6 6.70078 1 8.30078 1 10.0008H2C2 8.50078 2.5 7.20078 3.4 6.20078L5.6 8.20078C5.2 8.70078 5 9.30078 5 10.0008C5 11.7008 6.3 13.0008 8 13.0008C8.8 13.0008 9.5 12.7008 10 12.2008L13 15.0008L13.7 14.3008L1.7 3.30078L1 4.00078ZM6.3 8.90078L9.2 11.6008C8.9 11.8008 8.5 12.0008 8 12.0008C6.9 12.0008 6 11.1008 6 10.0008C6 9.60078 6.1 9.20078 6.3 8.90078ZM11 10.5007L10 9.60073C9.8 8.80073 9.1 8.10073 8.2 8.00073L7.2 7.10073C7.5 7.00073 7.7 7.00073 8 7.00073C9.7 7.00073 11 8.30073 11 10.0007V10.5007Z"/></svg>