<svg width="16" height="16" viewBox="0 0 16 16" xmlns="http://www.w3.org/2000/svg" fill="currentColor"><path fill-rule="evenodd" clip-rule="evenodd" d="M1 9.50073C1 5.60073 4.1 2.50073 8 2.50073C11.9 2.50073 15 5.60073 15 9.50073H14C14 6.20073 11.3 3.50073 8 3.50073C4.7 3.50073 2 6.20073 2 9.50073H1ZM5 9.50073C5 7.80073 6.3 6.50073 8 6.50073C9.7 6.50073 11 7.80073 11 9.50073C11 11.2007 9.7 12.5007 8 12.5007C6.3 12.5007 5 11.2007 5 9.50073ZM6 9.50073C6 10.6007 6.9 11.5007 8 11.5007C9.1 11.5007 10 10.6007 10 9.50073C10 8.40073 9.1 7.50073 8 7.50073C6.9 7.50073 6 8.40073 6 9.50073Z"/></svg>