<svg width="16" height="16" viewBox="0 0 16 16" xmlns="http://www.w3.org/2000/svg" fill="currentColor"><path d="M5.5 1L5 1.5V3.02746C5.34673 3.06579 5.68159 3.14352 6 3.25606V2H14V7H12.2929L11 8.29289V7H8.97254C8.99068 7.16417 9 7.331 9 7.5C9 7.669 8.99068 7.83583 8.97254 8H10V9.5L10.8536 9.85355L12.7071 8H14.5L15 7.5V1.5L14.5 1H5.5Z"/><path fill-rule="evenodd" clip-rule="evenodd" d="M6.41705 10.4288C7.37039 9.80348 8 8.72527 8 7.5C8 5.567 6.433 4 4.5 4C2.567 4 1 5.567 1 7.5C1 8.72527 1.62961 9.80348 2.58295 10.4288C2.11364 10.6498 1.68557 10.9505 1.31802 11.318C0.900156 11.7359 0.568688 12.232 0.342542 12.7779C0.245471 13.0123 0.168621 13.2538 0.112518 13.5C0.0379178 13.8273 0 14.1627 0 14.5H1.12489C1.12489 14.0568 1.21219 13.6179 1.3818 13.2084C1.55142 12.7989 1.80003 12.4268 2.11343 12.1134C2.42684 11.8 2.79891 11.5514 3.2084 11.3818C3.61789 11.2122 4.05677 11.1249 4.5 11.1249C4.94323 11.1249 5.38211 11.2122 5.7916 11.3818C6.20109 11.5514 6.57316 11.8 6.88657 12.1134C7.19997 12.4268 7.44858 12.7989 7.6182 13.2084C7.78781 13.6179 7.87511 14.0568 7.87511 14.5H9C9 14.1627 8.96208 13.8273 8.88748 13.5C8.83138 13.2538 8.75453 13.0123 8.65746 12.7779C8.43131 12.232 8.09984 11.7359 7.68198 11.318C7.31443 10.9505 6.88636 10.6498 6.41705 10.4288ZM4.5 10C3.11929 10 2 8.88071 2 7.5C2 6.11929 3.11929 5 4.5 5C5.88071 5 7 6.11929 7 7.5C7 8.88071 5.88071 10 4.5 10Z"/></svg>