<svg xmlns="http://www.w3.org/2000/svg" width="12" height="12" viewBox="0 0 12 12" fill="currentColor"><path d="M3.33008 9.07031C3.43008 8.97031 3.57969 8.97031 3.67969 9.07031L6.26953 11.6602C5.97961 11.86 5.62983 11.9902 5.25 11.9902H1.75C1.37017 11.9902 1.02039 11.87 0.730469 11.6602L3.32031 9.07031H3.33008Z"/><path fill-rule="evenodd" clip-rule="evenodd" d="M7.33984 0C7.72984 0 8.12039 0.16043 8.40039 0.44043L10.5596 2.59961C10.8396 2.87961 11 3.27016 11 3.66016V9.5C11 10.33 10.33 11 9.5 11H7.87988C7.94988 10.76 8 10.51 8 10.25V10H9.5C9.78 10 10 9.78 10 9.5V4H8C7.45 4 7 3.55 7 3V1H3.5C3.22 1 3 1.22 3 1.5V4H2V1.5C2 0.67 2.67 0 3.5 0H7.33984ZM8 3H9.54004L8 1.45996V3Z"/><path fill-rule="evenodd" clip-rule="evenodd" d="M5.25977 5C6.22977 5 7.00977 5.78 7.00977 6.75V10.25C7.00977 10.47 6.95965 10.6801 6.88965 10.8701L4.38965 8.37012C3.90963 7.89023 3.10008 7.89016 2.62012 8.37012L0.120117 10.8701C0.0401172 10.6701 0 10.47 0 10.25V6.75C0 5.78 0.78 5 1.75 5H5.25977ZM5.25 6C4.84 6 4.5 6.34 4.5 6.75C4.5 7.16 4.84 7.5 5.25 7.5C5.66 7.5 6 7.16 6 6.75C6 6.34 5.66 6 5.25 6Z"/></svg>