<svg width="18" height="18" viewBox="0 0 18 18" xmlns="http://www.w3.org/2000/svg" fill="currentColor"><path d="M14.5 8H14V6.414C14 6.016 13.842 5.635 13.561 5.353L10.647 2.439C10.366 2.158 9.984 2 9.586 2H6C4.895 2 4 2.895 4 4V8H3.5C2.673 8 2 8.673 2 9.5V14.5C2 15.327 2.673 16 3.5 16H14.5C15.327 16 16 15.327 16 14.5V9.5C16 8.673 15.327 8 14.5 8ZM10 3.207L12.793 6H10.5C10.224 6 10 5.776 10 5.5V3.207ZM5 4C5 3.448 5.448 3 6 3H9V5.5C9 6.328 9.672 7 10.5 7H13V8H5V4ZM15 14.5C15 14.775 14.775 15 14.5 15H3.5C3.224 15 3 14.775 3 14.5V9.5C3 9.225 3.224 9 3.5 9H14.5C14.775 9 15 9.225 15 9.5V14.5Z"/><path d="M5.5 10H4.5C4.224 10 4 10.224 4 10.5V13.5C4 13.776 4.224 14 4.5 14C4.776 14 5 13.776 5 13.5V13H5.5C6.327 13 7 12.327 7 11.5C7 10.673 6.327 10 5.5 10ZM5.5 12H5V11H5.5C5.776 11 6 11.225 6 11.5C6 11.775 5.776 12 5.5 12Z"/><path d="M9 10H8.5C8.224 10 8 10.224 8 10.5V13.5C8 13.776 8.224 14 8.5 14H9C10.103 14 11 13.103 11 12C11 10.897 10.103 10 9 10ZM9 13V11C9.552 11 10 11.448 10 12C10 12.552 9.552 13 9 13Z"/><path d="M14 10H12.5C12.224 10 12 10.224 12 10.5V13.5C12 13.776 12.224 14 12.5 14C12.776 14 13 13.776 13 13.5V13H13.5C13.776 13 14 12.776 14 12.5C14 12.224 13.776 12 13.5 12H13V11H14C14.276 11 14.5 10.776 14.5 10.5C14.5 10.224 14.276 10 14 10Z"/></svg>