<svg width="24" height="25" viewBox="0 0 24 25" xmlns="http://www.w3.org/2000/svg" fill="currentColor"><path d="M3 3.56775C3 1.91075 4.343 0.567749 6 0.567749H11.379C11.976 0.567749 12.548 0.804749 12.97 1.22675L18.841 7.09775C19.263 7.51975 19.5 8.09175 19.5 8.68875V18.5677C19.5 20.2247 18.157 21.5677 16.5 21.5677H6C4.343 21.5677 3 20.2247 3 18.5677V3.56775ZM6 2.06775C5.172 2.06775 4.5 2.73975 4.5 3.56775V18.5677C4.5 19.3957 5.172 20.0677 6 20.0677H16.5C17.328 20.0677 18 19.3957 18 18.5677V9.56775H12.75C11.507 9.56775 10.5 8.56075 10.5 7.31775V2.06775H6ZM12 2.37875V7.31775C12 7.73175 12.336 8.06775 12.75 8.06775H17.689L12 2.37875ZM22.5 11.0677C22.5 10.2397 21.828 9.56775 21 9.56775V18.5677C21 21.0527 18.985 23.0677 16.5 23.0677H6C6 23.8957 6.672 24.5677 7.5 24.5677H16.591C19.855 24.5677 22.5 21.9217 22.5 18.6587V11.0677Z"/></svg>