<svg width="26" height="26" viewBox="0 0 26 26" xmlns="http://www.w3.org/2000/svg" fill="currentColor"><path d="M4 19C4.00001 21.49 6.01001 23.5 8.5 23.5H18.5957C18.0707 24.4 17.11 25 16 25H8.41064C5.14064 25 2.5 22.3594 2.5 19.0894V7C2.5 5.89 3.1 4.9293 4 4.4043V19Z"/><path fill-rule="evenodd" clip-rule="evenodd" d="M13.8789 1C14.4759 1 15.0497 1.23768 15.4712 1.65918L21.3408 7.52881C21.7623 7.95181 22 8.52409 22 9.12109V19C22 20.6575 20.6575 22 19 22H8.5C6.8425 22 5.5 20.6575 5.5 19V4C5.5 2.3425 6.8425 1 8.5 1H13.8789ZM8.47363 2.5C7.64563 2.5 6.97363 3.172 6.97363 4V19C6.97363 19.828 7.64563 20.5 8.47363 20.5H18.9736C19.8013 20.4997 20.4736 19.8278 20.4736 19V10H15.2236C13.9801 10 12.9736 8.9935 12.9736 7.75V2.5H8.47363ZM14.4736 7.75C14.4736 8.164 14.8096 8.5 15.2236 8.5H20.1631L14.4736 2.81055V7.75Z"/></svg>