<svg width="16" height="16" viewBox="0 0 16 16" fill="none" xmlns="http://www.w3.org/2000/svg">
<path fill-rule="evenodd" clip-rule="evenodd" d="M2.5 1H13.5L14 1.5V6.5L13.85 6.85L13 7.71V14.5L12.5 15H2.5L2 14.5V1.5L2.5 1ZM6 2H5V4H6V2ZM6 14H10V7.68L9.15 6.83L9 6.47V2H7V4.5L6.5 5H6V6H5V5H4.5L4 4.5V2H3V14H5V13H6V14ZM6 12V13H7V12H6ZM6 11V12H5V11H6ZM6 10H7V11H6V10ZM6 9V10H5V9H6ZM6 8H7V9H6V8ZM6 7V8H5V7H6ZM6 7H7V6H6V7ZM12.15 7.15L13 6.29V2H10V6.27L10.85 7.12L11 7.47V14H12V7.5L12.15 7.15Z" fill="white"/>
</svg>
