<svg width="16" height="16" viewBox="0 0 16 16" xmlns="http://www.w3.org/2000/svg" fill="currentColor"><path d="M13.56 4.35L10.65 1.44C10.368 1.16009 9.98732 1.00208 9.58998 1H5.99998C5.47003 1.00158 4.96224 1.2128 4.58751 1.58753C4.21278 1.96227 4.00156 2.47005 3.99998 3V8.83C4.28127 8.9031 4.53719 9.05181 4.73998 9.26C4.84686 9.3602 4.93492 9.47874 4.99998 9.61V3C4.99998 2.73478 5.10534 2.48043 5.29287 2.29289C5.48041 2.10536 5.73476 2 5.99998 2H8.99998V4.5C8.99998 4.89782 9.15801 5.27936 9.43932 5.56066C9.72062 5.84196 10.1022 6 10.5 6H13V13C13 13.2652 12.8946 13.5196 12.7071 13.7071C12.5195 13.8946 12.2652 14 12 14H10.48L9.46998 15H12C12.5299 14.9984 13.0377 14.7872 13.4124 14.4125C13.7872 14.0377 13.9984 13.5299 14 13V5.41C13.9979 5.01266 13.8399 4.63202 13.56 4.35ZM10.5 5C10.3674 5 10.2402 4.94732 10.1464 4.85355C10.0527 4.75979 9.99998 4.63261 9.99998 4.5V2.21L12.79 5H10.5Z"/><path d="M3.47798 14.978C3.34548 14.9777 3.21852 14.9248 3.12498 14.831L1.14598 12.854C1.09942 12.8076 1.06247 12.7524 1.03727 12.6916C1.01206 12.6309 0.999084 12.5658 0.999084 12.5C0.999084 12.4342 1.01206 12.3691 1.03727 12.3084C1.06247 12.2476 1.09942 12.1924 1.14598 12.146L3.14598 10.146C3.23986 10.0521 3.3672 9.99937 3.49998 9.99937C3.63275 9.99937 3.76009 10.0521 3.85398 10.146C3.94787 10.2399 4.00061 10.3672 4.00061 10.5C4.00061 10.6328 3.94787 10.7601 3.85398 10.854L2.20698 12.5L3.83198 14.124C3.90209 14.1939 3.94985 14.2831 3.96922 14.3802C3.98858 14.4773 3.97868 14.578 3.94076 14.6695C3.90284 14.7609 3.83862 14.8391 3.75623 14.894C3.67384 14.9489 3.577 14.9782 3.47798 14.978Z"/><path d="M7.52198 14.978C7.42296 14.9782 7.32611 14.9489 7.24372 14.894C7.16134 14.8391 7.09711 14.7609 7.05919 14.6695C7.02128 14.578 7.01137 14.4773 7.03074 14.3802C7.05011 14.2831 7.09787 14.1939 7.16798 14.124L8.79298 12.5L7.14598 10.854C7.05209 10.7601 6.99935 10.6328 6.99935 10.5C6.99935 10.3672 7.05209 10.2399 7.14598 10.146C7.23986 10.0521 7.3672 9.99937 7.49998 9.99937C7.63275 9.99937 7.76009 10.0521 7.85398 10.146L9.85398 12.146C9.90054 12.1924 9.93748 12.2476 9.96269 12.3084C9.9879 12.3691 10.0009 12.4342 10.0009 12.5C10.0009 12.5658 9.9879 12.6309 9.96269 12.6916C9.93748 12.7524 9.90054 12.8076 9.85398 12.854L7.87498 14.831C7.78144 14.9248 7.65447 14.9777 7.52198 14.978Z"/></svg>