<svg width="16" height="16" viewBox="0 0 16 16" xmlns="http://www.w3.org/2000/svg" fill="currentColor"><path d="M9.5 14H6.5C6.224 14 6 13.776 6 13.5V9.329C6 8.928 5.844 8.552 5.561 8.268L1.561 4.268C1.205 3.911 1 3.418 1 2.914C1 1.858 1.858 1 2.914 1H13.086C14.142 1 15 1.858 15 2.914C15 3.417 14.796 3.911 14.439 4.267L10.439 8.267C10.156 8.551 10 8.927 10 9.328V13.499C10 13.775 9.776 13.999 9.5 13.999V14ZM7 13H9V9.329C9 8.661 9.26 8.033 9.732 7.561L13.732 3.561C13.902 3.391 14 3.155 14 2.915C14 2.411 13.59 2.001 13.086 2.001H2.914C2.41 2.001 2 2.411 2 2.915C2 3.155 2.098 3.391 2.268 3.562L6.268 7.562C6.741 8.034 7 8.662 7 9.33V13.001V13Z"/></svg>