<svg xmlns="http://www.w3.org/2000/svg" width="12" height="12" viewBox="0 0 12 12" fill="currentColor"><path d="M11 4.5C11 3.12 9.88 2 8.5 2H5.21L4.79 1.59C4.42 1.21 3.91 1 3.38 1H2.5C1.12 1 0 2.12 0 3.5V8.5C0 9.88 1.12 11 2.5 11H8C8.79 11 9.54 10.62 10 10L10.99 8.68L11.5 8C11.83 7.55 12 7.04 12 6.5C12 5.68 11.61 4.96 11 4.5ZM1 3.5C1 2.67 1.67 2 2.5 2H3.38C3.64 2 3.9 2.11 4.09 2.29L4.79 3H8.5C9.17 3 9.73 3.44 9.92 4.04C9.78 4.01 9.64 4 9.5 4H4C3.21 4 2.46 4.38 2 5L1 6.33V3.5ZM10.7 7.4L10 8.33L9.2 9.4C8.92 9.78 8.48 10 8 10H2.5C1.67 10 1 9.33 1 8.5C1 8.18 1.1 7.87 1.3 7.6L2.8 5.6C3.08 5.22 3.52 5 4 5H9.5C9.68 5 9.84 5.03 10 5.09C10.58 5.29 11 5.85 11 6.5C11 6.82 10.9 7.13 10.7 7.4Z"/></svg>