<svg xmlns="http://www.w3.org/2000/svg" width="12" height="12" viewBox="0 0 12 12" fill="currentColor"><path d="M9.5 2H5.707L5.293 1.586C4.921 1.213 4.405 1 3.879 1H2.5C1.122 1 0 2.122 0 3.5V8.5C0 9.878 1.122 11 2.5 11H9.5C10.878 11 12 9.878 12 8.5V4.5C12 3.122 10.878 2 9.5 2ZM2.5 2H3.879C4.142 2 4.4 2.107 4.586 2.293L5.293 3L4.586 3.707C4.4 3.893 4.142 4 3.879 4H1V3.5C1 2.673 1.673 2 2.5 2ZM11 8.5C11 9.327 10.327 10 9.5 10H2.5C1.673 10 1 9.327 1 8.5V5H3.879C4.405 5 4.921 4.787 5.293 4.414L6.707 3H9.5C10.327 3 11 3.673 11 4.5V8.5Z"/></svg>