<svg width="18" height="18" viewBox="0 0 18 18" xmlns="http://www.w3.org/2000/svg" fill="currentColor"><path d="M6.5 7C6.776 7 7 7.224 7 7.5V9H8.5C8.776 9 9 9.224 9 9.5C9 9.776 8.776 10 8.5 10H7V11.5C7 11.776 6.776 12 6.5 12C6.224 12 6 11.776 6 11.5V10H4.5C4.224 10 4 9.776 4 9.5C4 9.224 4.224 9 4.5 9H6V7.5C6 7.224 6.224 7 6.5 7Z"/><path d="M12 10C12.552 10 13 10.448 13 11C13 11.552 12.552 12 12 12C11.448 12 11 11.552 11 11C11 10.448 11.448 10 12 10Z"/><path d="M13 7C13.552 7 14 7.448 14 8C14 8.552 13.552 9 13 9C12.448 9 12 8.552 12 8C12 7.448 12.448 7 13 7Z"/><path fill-rule="evenodd" clip-rule="evenodd" d="M13 4C15.209 4 17 5.791 17 8V11C17 13.209 15.209 15 13 15H5C2.791 15 1 13.209 1 11V8C1 5.791 2.791 4 5 4H13ZM5 5C3.343 5 2 6.343 2 8V11C2 12.657 3.343 14 5 14H13C14.657 14 16 12.657 16 11V8C16 6.343 14.657 5 13 5H5Z"/></svg>