<svg width="18" height="18" viewBox="0 0 18 18" xmlns="http://www.w3.org/2000/svg" fill="currentColor"><path d="M8.99997 7C7.89497 7 6.99997 7.895 6.99997 9C6.99997 10.105 7.89497 11 8.99997 11C10.105 11 11 10.105 11 9C11 7.895 10.105 7 8.99997 7ZM8.99997 10C8.44797 10 7.99997 9.552 7.99997 9C7.99997 8.448 8.44797 8 8.99997 8C9.55197 8 9.99997 8.448 9.99997 9C9.99997 9.552 9.55197 10 8.99997 10ZM15.565 10.715L14.279 9.628C14.245 9.599 14.213 9.567 14.184 9.533C13.888 9.186 13.931 8.667 14.279 8.372L15.565 7.285C15.693 7.177 15.742 7.003 15.691 6.844C15.386 5.903 14.882 5.04 14.219 4.308C14.139 4.22 14.027 4.172 13.912 4.172C13.865 4.172 13.818 4.18 13.773 4.196L12.186 4.761C12.144 4.776 12.1 4.788 12.056 4.796C12.006 4.805 11.956 4.81 11.907 4.81C11.515 4.81 11.167 4.532 11.094 4.134L10.791 2.482C10.761 2.318 10.634 2.188 10.47 2.153C9.98997 2.051 9.49897 2 9.00097 2C8.50297 2 8.01097 2.052 7.53097 2.153C7.36697 2.188 7.23997 2.318 7.20997 2.482L6.90797 4.134C6.89997 4.178 6.88797 4.221 6.87297 4.263C6.75197 4.6 6.43397 4.81 6.09397 4.81C6.00197 4.81 5.90797 4.794 5.81597 4.762L4.22897 4.197C4.18397 4.181 4.13597 4.173 4.08997 4.173C3.97497 4.173 3.86297 4.221 3.78297 4.309C3.11897 5.041 2.61597 5.904 2.30997 6.845C2.25797 7.004 2.30797 7.178 2.43597 7.286L3.72197 8.373C3.75597 8.402 3.78797 8.434 3.81697 8.468C4.11297 8.815 4.06997 9.334 3.72197 9.629L2.43597 10.716C2.30797 10.824 2.25897 10.998 2.30997 11.157C2.61497 12.098 3.11897 12.961 3.78297 13.693C3.86297 13.781 3.97497 13.829 4.08997 13.829C4.13697 13.829 4.18397 13.821 4.22897 13.805L5.81597 13.24C5.85797 13.225 5.90197 13.213 5.94597 13.205C5.99597 13.196 6.04597 13.192 6.09497 13.192C6.48697 13.192 6.83497 13.47 6.90797 13.868L7.20997 15.52C7.23997 15.684 7.36697 15.814 7.53097 15.849C8.01097 15.951 8.50297 16.002 9.00097 16.002C9.49897 16.002 9.99097 15.95 10.47 15.849C10.634 15.814 10.761 15.684 10.791 15.52L11.094 13.868C11.102 13.824 11.114 13.781 11.129 13.739C11.25 13.402 11.568 13.192 11.908 13.192C12 13.192 12.094 13.208 12.186 13.24L13.772 13.805C13.818 13.821 13.865 13.829 13.911 13.829C14.026 13.829 14.138 13.781 14.218 13.693C14.882 12.961 15.385 12.098 15.69 11.157C15.742 10.998 15.692 10.824 15.564 10.716L15.565 10.715ZM13.728 12.726L12.521 12.296C12.323 12.226 12.117 12.19 11.908 12.19C11.139 12.19 10.447 12.676 10.188 13.399C10.154 13.492 10.129 13.588 10.111 13.686L9.88097 14.937C9.59097 14.979 9.29597 15 9.00097 15C8.70597 15 8.41097 14.979 8.11997 14.936L7.89097 13.685C7.73197 12.818 6.97697 12.189 6.09497 12.189C5.98697 12.189 5.87697 12.199 5.76597 12.219C5.66897 12.237 5.57397 12.262 5.47997 12.295L4.27297 12.725C3.90497 12.264 3.61097 11.759 3.39397 11.214L4.36797 10.391C4.74097 10.076 4.96797 9.634 5.00797 9.148C5.04797 8.662 4.89497 8.19 4.57797 7.818C4.51397 7.743 4.44297 7.672 4.36797 7.608L3.39397 6.785C3.61097 6.24 3.90497 5.734 4.27297 5.274L5.47997 5.704C5.67797 5.774 5.88397 5.81 6.09397 5.81C6.86297 5.81 7.55497 5.324 7.81397 4.601C7.84797 4.507 7.87297 4.411 7.89097 4.314L8.11997 3.063C8.41097 3.021 8.70597 2.999 9.00097 2.999C9.29597 2.999 9.59097 3.02 9.88097 3.062L10.11 4.313C10.269 5.18 11.024 5.809 11.906 5.809C12.014 5.809 12.124 5.799 12.234 5.779C12.331 5.761 12.427 5.736 12.521 5.703L13.728 5.273C14.096 5.733 14.39 6.239 14.607 6.784L13.634 7.607C13.261 7.922 13.033 8.364 12.994 8.85C12.954 9.336 13.107 9.809 13.424 10.18C13.489 10.256 13.559 10.326 13.635 10.39L14.609 11.213C14.392 11.758 14.098 12.264 13.73 12.724L13.728 12.726Z"/></svg>