<svg width="16" height="16" viewBox="0 0 16 16" xmlns="http://www.w3.org/2000/svg" fill="currentColor"><path d="M8.79389 4L9.09924 5.37405L10.2901 4.61069L11.4504 5.77099L10.626 6.96183L12 7.20611V8H9.5C9.5 7.17157 8.82843 6.5 8 6.5C7.17157 6.5 6.5 7.17157 6.5 8H4V7.20611L5.37405 6.90076L4.61069 5.70992L5.77099 4.54962L6.96183 5.37405L7.20611 4H8.79389Z"/><path d="M8.79389 12L9.09924 10.626L10.2901 11.3893L11.4504 10.229L10.626 9.03816L12 8.79389V8H9.5C9.5 8.82842 8.82843 9.5 8 9.5C7.17157 9.5 6.5 8.82842 6.5 8H4V8.79389L5.37405 9.09923L4.61069 10.2901L5.77099 11.4504L6.96183 10.626L7.20611 12H8.79389Z"/></svg>