<svg width="16" height="16" viewBox="0 0 16 16" xmlns="http://www.w3.org/2000/svg" fill="currentColor"><path d="M7.99995 10.5C9.38068 10.5 10.4999 9.38073 10.4999 8H9.49995C9.49995 8.82844 8.82839 9.5 7.99995 9.5V10.5ZM10.4999 8C10.4999 6.61927 9.38068 5.5 7.99995 5.5V6.5C8.82839 6.5 9.49995 7.17156 9.49995 8H10.4999ZM7.99995 5.5C6.61922 5.5 5.49995 6.61927 5.49995 8H6.49995C6.49995 7.17156 7.17151 6.5 7.99995 6.5V5.5ZM5.49995 8C5.49995 9.38073 6.61922 10.5 7.99995 10.5V9.5C7.17151 9.5 6.49995 8.82844 6.49995 8H5.49995ZM14.3118 4.933L13.8118 4.06699L12.9457 4.56682L13.4458 5.43301L14.3118 4.933ZM13.8118 4.06699C13.3976 3.34883 12.4803 3.10418 11.763 3.51788L12.2627 4.38411C12.5025 4.24581 12.808 4.328 12.9457 4.56682L13.8118 4.06699ZM11.763 3.51788L11.4997 3.67011L11.9998 4.53608L12.2627 4.38411L11.763 3.51788ZM11.4997 3.67011C10.8328 4.0549 9.99989 3.57341 9.99989 2.804H8.99989C8.99989 4.34359 10.6666 5.30529 11.9998 4.53608L11.4997 3.67011ZM9.99989 2.804V2.5H8.99989V2.804H9.99989ZM9.99989 2.5C9.99989 1.67135 9.32851 1 8.49989 1V2C8.77624 2 8.99989 2.22365 8.99989 2.5H9.99989ZM8.49989 1H7.49989V2H8.49989V1ZM7.49989 1C6.67128 1 5.99989 1.67135 5.99989 2.5H6.99989C6.99989 2.22365 7.22355 2 7.49989 2V1ZM5.99989 2.5V2.804H6.99989V2.5H5.99989ZM5.99989 2.804C5.99989 3.57373 5.16648 4.05494 4.49995 3.67002L3.9997 4.5359C5.33317 5.30597 6.99989 4.34327 6.99989 2.804H5.99989ZM4.49995 3.67002L4.2371 3.5181L3.7367 4.3839L3.9997 4.5359L4.49995 3.67002ZM4.2371 3.5181C3.51987 3.1044 2.60203 3.349 2.18778 4.06717L3.05391 4.567C3.19166 4.32818 3.49692 4.2456 3.7367 4.3839L4.2371 3.5181ZM2.18778 4.06717L1.68789 4.933L2.55391 5.43301L3.05391 4.567L2.18778 4.06717ZM1.68789 4.933C1.27419 5.65021 1.51889 6.56788 2.23708 6.98213L2.73709 6.11611C2.49827 5.97836 2.41561 5.67277 2.55391 5.43301L1.68789 4.933ZM2.23708 6.98213L2.49971 7.13392L3.00009 6.26811L2.73709 6.11611L2.23708 6.98213ZM2.49971 7.13392C3.16644 7.51895 3.16658 8.48097 2.49985 8.866L2.99995 9.73197C4.33322 8.96202 4.33336 7.03806 3.00009 6.26811L2.49971 7.13392ZM2.49985 8.866L2.23671 9.01809L2.73672 9.8841L2.99995 9.73197L2.49985 8.866ZM2.23671 9.01809C1.51852 9.43234 1.27409 10.3496 1.68778 11.0668L2.55401 10.5672C2.4157 10.3274 2.49791 10.0219 2.73672 9.8841L2.23671 9.01809ZM1.68778 11.0668L2.18789 11.933L3.05401 11.4332L2.55401 10.5672L1.68778 11.0668ZM2.18789 11.933C2.60213 12.6512 3.51948 12.8958 4.23672 12.4821L3.73708 11.6159C3.49732 11.7542 3.19177 11.672 3.05401 11.4332L2.18789 11.933ZM4.23672 12.4821L4.50009 12.3299L3.99985 11.464L3.73708 11.6159L4.23672 12.4821ZM4.50009 12.3299C5.16663 11.945 5.99989 12.4263 5.99989 13.196H6.99989C6.99989 11.6567 5.33331 10.694 3.99985 11.464L4.50009 12.3299ZM5.99989 13.196V13.5H6.99989V13.196H5.99989ZM5.99989 13.5C5.99989 14.3286 6.67127 15 7.49989 15V14C7.22356 14 6.99989 13.7763 6.99989 13.5H5.99989ZM7.49989 15H8.49989V14H7.49989V15ZM8.49989 15C9.32852 15 9.99989 14.3286 9.99989 13.5H8.99989C8.99989 13.7763 8.77623 14 8.49989 14V15ZM9.99989 13.5V13.196H8.99989V13.5H9.99989ZM9.99989 13.196C9.99989 12.4263 10.8333 11.9451 11.4998 12.33L12.0001 11.4641C10.6667 10.6941 8.99989 11.6567 8.99989 13.196H9.99989ZM11.4998 12.33L11.7627 12.4819L12.2631 11.6161L12.0001 11.4641L11.4998 12.33ZM11.7627 12.4819C12.48 12.8956 13.3977 12.651 13.8119 11.9328L12.9458 11.433C12.808 11.6718 12.5028 11.7544 12.2631 11.6161L11.7627 12.4819ZM13.8119 11.9328L14.3118 11.067L13.4458 10.567L12.9458 11.433L13.8119 11.9328ZM14.3118 11.067C14.7255 10.3498 14.4809 9.43214 13.7627 9.01787L13.2627 9.88388C13.5015 10.0216 13.5841 10.3272 13.4458 10.567L14.3118 11.067ZM13.7627 9.01787L13.5001 8.86609L12.9997 9.73188L13.2627 9.88388L13.7627 9.01787ZM13.5001 8.86609C12.8334 8.48106 12.8332 7.51903 13.4999 7.134L12.9998 6.26803C11.6666 7.03798 11.6665 8.96193 12.9997 9.73188L13.5001 8.86609ZM13.4999 7.134L13.7631 6.98191L13.263 6.1159L12.9998 6.26803L13.4999 7.134ZM13.7631 6.98191C14.4809 6.56788 14.7267 5.65076 14.3118 4.933L13.4458 5.43301C13.5841 5.67223 13.5022 5.97793 13.263 6.1159L13.7631 6.98191Z"/></svg>