<svg width="16" height="16" viewBox="0 0 16 16" xmlns="http://www.w3.org/2000/svg" fill="currentColor"><path d="M7.99997 6C6.89497 6 5.99997 6.895 5.99997 8C5.99997 9.105 6.89497 10 7.99997 10C9.10497 10 9.99997 9.105 9.99997 8C9.99997 6.895 9.10497 6 7.99997 6ZM7.99997 9C7.44797 9 6.99997 8.552 6.99997 8C6.99997 7.448 7.44797 7 7.99997 7C8.55197 7 8.99997 7.448 8.99997 8C8.99997 8.552 8.55197 9 7.99997 9ZM14.565 9.715L13.279 8.628C13.245 8.599 13.213 8.567 13.184 8.533C12.888 8.186 12.931 7.667 13.279 7.372L14.565 6.285C14.693 6.177 14.742 6.003 14.691 5.844C14.386 4.903 13.882 4.04 13.219 3.308C13.139 3.22 13.027 3.172 12.912 3.172C12.865 3.172 12.818 3.18 12.773 3.196L11.186 3.761C11.144 3.776 11.1 3.788 11.056 3.796C11.006 3.805 10.956 3.81 10.907 3.81C10.515 3.81 10.167 3.532 10.094 3.134L9.79097 1.482C9.76097 1.318 9.63397 1.188 9.46997 1.153C8.98997 1.051 8.49897 1 8.00097 1C7.50297 1 7.01097 1.052 6.53097 1.153C6.36697 1.188 6.23997 1.318 6.20997 1.482L5.90797 3.134C5.89997 3.178 5.88797 3.221 5.87297 3.263C5.75197 3.6 5.43397 3.81 5.09397 3.81C5.00197 3.81 4.90797 3.794 4.81597 3.762L3.22897 3.197C3.18397 3.181 3.13597 3.173 3.08997 3.173C2.97497 3.173 2.86297 3.221 2.78297 3.309C2.11897 4.041 1.61597 4.904 1.30997 5.845C1.25797 6.004 1.30797 6.178 1.43597 6.286L2.72197 7.373C2.75597 7.402 2.78797 7.434 2.81697 7.468C3.11297 7.815 3.06997 8.334 2.72197 8.629L1.43597 9.716C1.30797 9.824 1.25897 9.998 1.30997 10.157C1.61497 11.098 2.11897 11.961 2.78297 12.693C2.86297 12.781 2.97497 12.829 3.08997 12.829C3.13697 12.829 3.18397 12.821 3.22897 12.805L4.81597 12.24C4.85797 12.225 4.90197 12.213 4.94597 12.205C4.99597 12.196 5.04597 12.192 5.09497 12.192C5.48697 12.192 5.83497 12.47 5.90797 12.868L6.20997 14.52C6.23997 14.684 6.36697 14.814 6.53097 14.849C7.01097 14.951 7.50297 15.002 8.00097 15.002C8.49897 15.002 8.99097 14.95 9.46997 14.849C9.63397 14.814 9.76097 14.684 9.79097 14.52L10.094 12.868C10.102 12.824 10.114 12.781 10.129 12.739C10.25 12.402 10.568 12.192 10.908 12.192C11 12.192 11.094 12.208 11.186 12.24L12.772 12.805C12.818 12.821 12.865 12.829 12.911 12.829C13.026 12.829 13.138 12.781 13.218 12.693C13.882 11.961 14.385 11.098 14.69 10.157C14.742 9.998 14.692 9.824 14.564 9.716L14.565 9.715ZM12.728 11.726L11.521 11.296C11.323 11.226 11.117 11.19 10.908 11.19C10.139 11.19 9.44697 11.676 9.18797 12.399C9.15397 12.492 9.12897 12.588 9.11097 12.686L8.88097 13.937C8.59097 13.979 8.29597 14 8.00097 14C7.70597 14 7.41097 13.979 7.11997 13.936L6.89097 12.685C6.73197 11.818 5.97697 11.189 5.09497 11.189C4.98697 11.189 4.87697 11.199 4.76597 11.219C4.66897 11.237 4.57397 11.262 4.47997 11.295L3.27297 11.725C2.90497 11.264 2.61097 10.759 2.39397 10.214L3.36797 9.391C3.74097 9.076 3.96797 8.634 4.00797 8.148C4.04797 7.662 3.89497 7.19 3.57797 6.818C3.51397 6.743 3.44297 6.672 3.36797 6.608L2.39397 5.785C2.61097 5.24 2.90497 4.734 3.27297 4.274L4.47997 4.704C4.67797 4.774 4.88397 4.81 5.09397 4.81C5.86297 4.81 6.55497 4.324 6.81397 3.601C6.84797 3.507 6.87297 3.411 6.89097 3.314L7.11997 2.063C7.41097 2.021 7.70597 1.999 8.00097 1.999C8.29597 1.999 8.59097 2.02 8.88097 2.062L9.10997 3.313C9.26897 4.18 10.024 4.809 10.906 4.809C11.014 4.809 11.124 4.799 11.234 4.779C11.331 4.761 11.427 4.736 11.521 4.703L12.728 4.273C13.096 4.733 13.39 5.239 13.607 5.784L12.634 6.607C12.261 6.922 12.033 7.364 11.994 7.85C11.954 8.336 12.107 8.809 12.424 9.18C12.489 9.256 12.559 9.326 12.635 9.39L13.609 10.213C13.392 10.758 13.098 11.264 12.73 11.724L12.728 11.726Z"/></svg>