<svg width="16" height="16" viewBox="0 0 16 16" xmlns="http://www.w3.org/2000/svg" fill="currentColor"><path d="M9.09924 5.37405L10.2901 4.61069L11.4504 5.77099L10.626 6.96183L12 7.20611V8.79389L10.626 9.03816L11.4504 10.229L10.2901 11.3893L9.09924 10.626L8.79389 12H7.20611L6.96183 10.626L5.77099 11.4504L4.61069 10.2901L5.37405 9.09923L4 8.79389V7.20611L5.37405 6.90076L4.61069 5.70992L5.77099 4.54962L6.96183 5.37405L7.20611 4H8.79389L9.09924 5.37405ZM8 6.5C7.17157 6.5 6.5 7.17157 6.5 8C6.5 8.82843 7.17157 9.5 8 9.5C8.82843 9.5 9.5 8.82843 9.5 8C9.5 7.17157 8.82843 6.5 8 6.5Z"/></svg>