<svg width="18" height="18" viewBox="0 0 18 18" xmlns="http://www.w3.org/2000/svg" fill="currentColor"><path d="M7 2C7.59735 2 8.13353 2.26188 8.5 2.67709C8.86647 2.26188 9.40265 2 10 2C11.1046 2 12 2.89543 12 4C12 4.36429 11.9026 4.70583 11.7324 5H14C14.5523 5 15 5.44772 15 6V8C15 8.55229 14.5523 9 14 9L13.9998 13C13.9998 14.1046 13.1044 15 11.9998 15H4.99978C3.89521 15 2.99978 14.1046 2.99978 13V9C2.4476 8.99988 2 8.55221 2 8V6C2 5.44772 2.44772 5 3 5H5.26756C5.09739 4.70583 5 4.36429 5 4C5 2.89543 5.89543 2 7 2ZM6 4C6 4.55228 6.44772 5 7 5H8V4C8 3.44772 7.55228 3 7 3C6.44772 3 6 3.44772 6 4ZM9 6L8.99961 8H14V6H9ZM7.99961 6H3V8H3.49978H7.99961V6ZM3.99978 9V13C3.99978 13.5523 4.4475 14 4.99978 14H7.99961V9H3.99978ZM8.99961 14H11.9998C12.5521 14 12.9998 13.5523 12.9998 13V9H8.99961V14ZM11 4C11 3.44772 10.5523 3 10 3C9.44772 3 9 3.44772 9 4V5H10C10.5523 5 11 4.55228 11 4Z"/></svg>