<svg width="16" height="16" viewBox="0 0 16 16" fill="none" xmlns="http://www.w3.org/2000/svg">
<path fill-rule="evenodd" clip-rule="evenodd" d="M3 14H7V14.91L7.09003 15H2.5L2 14.5V1.5L2.5 1H10.22L10.57 1.14001L13.85 4.43994L14 4.80005V7.33997C13.7411 6.95585 13.3994 6.63471 13 6.40002V6H9.5L9 5.5V2H3V14ZM13 5L10 2V5H13ZM13.5 9V10H14.5L15 10.5V14.5L14.5 15H8.5L8 14.5V10.5L8.5 10H9.5V9C9.5 8.46957 9.71074 7.96089 10.0858 7.58582C10.4609 7.21074 10.9696 7 11.5 7C12.0304 7 12.5391 7.21074 12.9142 7.58582C13.2893 7.96089 13.5 8.46957 13.5 9ZM10.7929 8.29285C10.6054 8.48038 10.5 8.73478 10.5 9V10H12.5V9C12.5 8.73478 12.3946 8.48038 12.2071 8.29285C12.0196 8.10531 11.7652 8 11.5 8C11.2348 8 10.9804 8.10531 10.7929 8.29285ZM9 11V14H14V11H9Z" fill="white"/>
</svg>
