<svg width="16" height="16" viewBox="0 0 16 16" xmlns="http://www.w3.org/2000/svg" fill="currentColor"><path d="M5.06998 11.072C5.22698 10.55 5.66298 10.163 6.20098 10.05C6.30098 9.683 6.43798 9.332 6.60798 9H6.50098C5.93598 9 5.41998 9.195 5.00098 9.512V4.949C6.14098 4.717 7.00098 3.707 7.00098 2.5C7.00098 1.121 5.87998 0 4.50098 0C3.12198 0 2.00098 1.121 2.00098 2.5C2.00098 3.708 2.86098 4.717 4.00098 4.949V11.05C2.86098 11.282 2.00098 12.292 2.00098 13.499C2.00098 14.878 3.12198 15.999 4.50098 15.999C5.56598 15.999 6.46998 15.328 6.82998 14.388C6.31098 13.552 6.00498 12.57 6.00198 11.516C5.72798 11.309 5.41598 11.151 5.07098 11.07L5.06998 11.072ZM2.99998 2.501C2.99998 1.674 3.67298 1.001 4.49998 1.001C5.32698 1.001 5.99998 1.674 5.99998 2.501C5.99998 3.328 5.32698 4.001 4.49998 4.001C3.67298 4.001 2.99998 3.328 2.99998 2.501ZM4.49998 15.001C3.67298 15.001 2.99998 14.328 2.99998 13.501C2.99998 12.674 3.67298 12.001 4.49998 12.001C5.32698 12.001 5.99998 12.674 5.99998 13.501C5.99998 14.328 5.32698 15.001 4.49998 15.001ZM9.21998 6.502C9.08398 6.195 8.99998 5.859 8.99998 5.501C8.99998 4.122 10.121 3.001 11.5 3.001C12.879 3.001 14 4.122 14 5.501C14 5.859 13.917 6.195 13.781 6.503C13.479 6.365 13.163 6.254 12.835 6.172C12.937 5.969 13.001 5.744 13.001 5.501C13.001 4.674 12.328 4.001 11.501 4.001C10.674 4.001 10.001 4.674 10.001 5.501C10.001 5.743 10.064 5.969 10.167 6.172C9.83898 6.254 9.52298 6.365 9.22098 6.503L9.21998 6.502ZM11.5 7.001C9.01498 7.001 6.99998 9.016 6.99998 11.501C6.99998 13.986 9.01498 16.001 11.5 16.001C13.985 16.001 16 13.986 16 11.501C16 9.016 13.985 7.001 11.5 7.001ZM11 9.501C11 9.368 11.053 9.241 11.146 9.147C11.24 9.053 11.367 9.001 11.5 9.001C11.633 9.001 11.76 9.054 11.854 9.147C11.948 9.241 12 9.368 12 9.501V11.501C12 11.634 11.947 11.761 11.854 11.855C11.761 11.949 11.633 12.001 11.5 12.001C11.367 12.001 11.24 11.948 11.146 11.855C11.052 11.762 11 11.634 11 11.501V9.501ZM11.5 14.126C11.155 14.126 10.875 13.846 10.875 13.501C10.875 13.156 11.155 12.876 11.5 12.876C11.845 12.876 12.125 13.156 12.125 13.501C12.125 13.846 11.845 14.126 11.5 14.126Z"/></svg>