<svg width="16" height="16" viewBox="0 0 16 16" fill="none" xmlns="http://www.w3.org/2000/svg">
<path fill-rule="evenodd" clip-rule="evenodd" d="M4.49892 5.85054C4.35057 5.91224 4.03893 5.99056 4.03893 5.99056V11C4.19649 11.0314 4.35057 11.0783 4.49892 11.14C4.95516 11.3298 5.34497 11.6504 5.61906 12.0615C5.89316 12.4727 6.03926 12.9558 6.03893 13.45C6.0463 13.7929 5.98157 14.1336 5.84892 14.45C5.72425 14.753 5.54075 15.0284 5.30904 15.2601C5.07732 15.4919 4.80197 15.6754 4.49892 15.8001C4.18256 15.9327 3.84188 15.9974 3.49892 15.99C3.00479 15.9903 2.52166 15.8442 2.11052 15.5701C1.69938 15.296 1.37867 14.9062 1.18892 14.45C1.00092 13.9922 0.951864 13.4891 1.0479 13.0037C1.14393 12.5182 1.3808 12.0717 1.72893 11.72C2.07944 11.3778 2.5198 11.142 2.99892 11.04V5.95052C2.5198 5.84851 2.07944 5.61279 1.72893 5.27059C1.3808 4.91884 1.14393 4.47238 1.0479 3.98689C0.951864 3.50141 1.00092 2.9984 1.18892 2.54061C1.37867 2.08436 1.69938 1.69458 2.11052 1.42049C2.52166 1.14639 3.00479 1.00024 3.49892 1.00057C3.84188 0.993194 4.18256 1.05787 4.49892 1.19051C4.80197 1.31518 5.07732 1.49871 5.30904 1.73043C5.54075 1.96214 5.72425 2.23755 5.84892 2.54061C5.98157 2.85696 6.0463 3.19765 6.03893 3.54061C6.03926 4.03474 5.89316 4.51789 5.61906 4.92903C5.34497 5.34017 4.95516 5.6608 4.49892 5.85054ZM3.53893 4.99056C3.24368 4.99072 2.95497 4.90376 2.70894 4.74056C2.46043 4.57282 2.26588 4.33656 2.14891 4.0605C2.03792 3.78802 2.0101 3.4888 2.06892 3.20052C2.12539 2.90853 2.26793 2.64018 2.47823 2.42989C2.68852 2.2196 2.95693 2.07705 3.24892 2.02059C3.53719 1.96176 3.83645 1.98955 4.10893 2.10054C4.38499 2.21751 4.62119 2.4121 4.78893 2.6606C4.93907 2.88661 5.02508 3.14908 5.03783 3.42012C5.05057 3.69116 4.98956 3.96056 4.86128 4.19966C4.73301 4.43877 4.54227 4.63864 4.3094 4.77791C4.07654 4.91718 3.81026 4.99066 3.53893 4.99056ZM3.53893 12C3.24368 11.9998 2.95497 12.0868 2.70894 12.25C2.46043 12.4177 2.26588 12.654 2.14891 12.9301C2.03792 13.2025 2.0101 13.5018 2.06892 13.79C2.12539 14.082 2.26793 14.3504 2.47823 14.5607C2.68852 14.771 2.95693 14.9135 3.24892 14.97C3.53719 15.0288 3.83645 15.001 4.10893 14.89C4.38499 14.7731 4.62119 14.5785 4.78893 14.33C4.93907 14.1039 5.02508 13.8415 5.03783 13.5704C5.05057 13.2994 4.98956 13.03 4.86128 12.7909C4.73301 12.5518 4.54227 12.3519 4.3094 12.2127C4.07654 12.0734 3.81026 11.9999 3.53893 12ZM13.0389 11.0406C13.5196 11.1384 13.9612 11.3747 14.309 11.7206C14.7766 12.191 15.039 12.8273 15.0389 13.4906C15.0393 13.9847 14.8932 14.4679 14.6191 14.879C14.345 15.2902 13.9552 15.6109 13.499 15.8007C13.0416 15.9915 12.5378 16.0421 12.0516 15.946C11.5654 15.85 11.1187 15.6117 10.7683 15.2612C10.4179 14.9108 10.1795 14.4641 10.0835 13.9779C9.98749 13.4917 10.0381 12.988 10.2289 12.5306C10.4218 12.0768 10.7412 11.688 11.1489 11.4106C11.4177 11.2286 11.7204 11.1028 12.0389 11.0406V5.4906C12.0389 5.09278 11.8809 4.71124 11.5996 4.42993C11.3183 4.14863 10.9368 3.9906 10.5389 3.9906H8.68899L9.95895 5.26062L9.24899 5.97058L7.11896 3.84058V3.14062L9.24899 1.01062L9.95895 1.72058L8.68899 2.9906H10.5389C10.8676 2.98928 11.1933 3.05305 11.4972 3.17822C11.8011 3.30339 12.0772 3.48744 12.3096 3.71985C12.542 3.95226 12.7262 4.22844 12.8513 4.53235C12.9765 4.83626 13.0403 5.16193 13.0389 5.4906V11.0406ZM12.6879 14.9829C13.0324 14.9483 13.3542 14.7956 13.5989 14.5507C13.8439 14.306 13.9966 13.984 14.0312 13.6395C14.0659 13.295 13.9803 12.9492 13.7889 12.6606C13.6212 12.4121 13.385 12.2176 13.1089 12.1006C12.8365 11.9896 12.5372 11.9618 12.249 12.0206C11.957 12.0771 11.6886 12.2196 11.4783 12.4299C11.268 12.6402 11.1254 12.9086 11.069 13.2006C11.0101 13.4888 11.0379 13.7881 11.1489 14.0605C11.2659 14.3366 11.4604 14.5729 11.7089 14.7406C11.9975 14.9319 12.3434 15.0175 12.6879 14.9829Z" fill="#C5C5C5"/>
</svg>
