<svg width="16" height="16" viewBox="0 0 16 16" xmlns="http://www.w3.org/2000/svg" fill="currentColor"><path d="M5.146 3.85398C4.951 3.65898 4.951 3.34198 5.146 3.14698L7.146 1.14698C7.341 0.951982 7.658 0.951982 7.853 1.14698L9.853 3.14698C10.048 3.34198 10.048 3.65898 9.853 3.85398C9.755 3.95198 9.627 3.99998 9.499 3.99998C9.371 3.99998 9.243 3.95098 9.145 3.85398L7.999 2.70798V3.50098C7.999 3.77698 7.775 4.00098 7.499 4.00098C7.223 4.00098 6.999 3.77698 6.999 3.50098V2.70798L5.853 3.85398C5.658 4.04898 5.341 4.04898 5.146 3.85398ZM7.5 4.99998C7.224 4.99998 7 5.22398 7 5.49998C7 5.77598 7.224 5.99998 7.5 5.99998C7.776 5.99998 8 5.77598 8 5.49998C8 5.22398 7.776 4.99998 7.5 4.99998ZM7.5 6.99998C7.224 6.99998 7 7.22398 7 7.49998C7 7.77598 7.224 7.99998 7.5 7.99998C7.776 7.99998 8 7.77598 8 7.49998C8 7.22398 7.776 6.99998 7.5 6.99998ZM14 8.49998V11.5C14 12.879 12.878 14 11.5 14H3.5C2.122 14 1 12.879 1 11.5V8.49998C1 8.22398 1.224 7.99998 1.5 7.99998H5.5C5.776 7.99998 6 8.22398 6 8.49998V8.99998C6 9.82698 6.673 10.5 7.5 10.5C8.327 10.5 9 9.82698 9 8.99998V8.49998C9 8.22398 9.224 7.99998 9.5 7.99998H13.5C13.776 7.99998 14 8.22398 14 8.49998ZM13 8.99998H10C10 10.379 8.878 11.5 7.5 11.5C6.122 11.5 5 10.379 5 8.99998H2V11.5C2 12.327 2.673 13 3.5 13H11.5C12.327 13 13 12.327 13 11.5V8.99998Z"/></svg>