<svg xmlns="http://www.w3.org/2000/svg" width="16" height="16" viewBox="0 0 16 16" fill="currentColor"><path d="M6 3.5C6 2.12 4.88 1 3.5 1C2.12 1 1 2.12 1 3.5C1 4.71 1.86 5.72 3 5.95V10.05C1.86 10.28 1 11.29 1 12.5C1 13.88 2.12 15 3.5 15C4.88 15 6 13.88 6 12.5C6 11.29 5.14 10.28 4 10.05V5.95C5.14 5.72 6 4.71 6 3.5ZM5 12.5C5 13.33 4.33 14 3.5 14C2.67 14 2 13.33 2 12.5C2 11.67 2.67 11 3.5 11C4.33 11 5 11.67 5 12.5ZM3.5 5C2.67 5 2 4.33 2 3.5C2 2.67 2.67 2 3.5 2C4.33 2 5 2.67 5 3.5C5 4.33 4.33 5 3.5 5ZM7.15 3.85C6.95 3.66 6.95 3.34 7.15 3.15L9.15 1.15C9.34 0.95 9.66 0.95 9.85 1.15C10.05 1.34 10.05 1.66 9.85 1.85L8.71 3H10.5C11.88 3 13 4.12 13 5.5V6.21C12.68 6.12 12.34 6.05 12 6.02V5.49C12 4.66 11.33 3.99 10.5 3.99H8.71L9.85 5.14C10.05 5.33 10.05 5.65 9.85 5.84C9.66 6.04 9.34 6.04 9.15 5.84L7.15 3.84V3.85ZM11.5 7C9.02 7 7 9.02 7 11.5C7 13.98 9.02 16 11.5 16C13.98 16 16 13.98 16 11.5C16 9.02 13.98 7 11.5 7ZM13.5 13.5C13.3 13.7 12.99 13.7 12.79 13.5L11.5 12.21L10.21 13.5C10.01 13.7 9.7 13.7 9.5 13.5C9.3 13.3 9.3 12.99 9.5 12.79L10.79 11.5L9.5 10.21C9.3 10.02 9.3 9.7 9.5 9.5C9.7 9.3 10.01 9.3 10.21 9.5L11.5 10.79L12.73 9.5C12.93 9.3 13.24 9.3 13.44 9.5C13.64 9.7 13.64 10.01 13.44 10.21L12.21 11.5L13.5 12.79C13.7 12.99 13.7 13.3 13.5 13.5Z"/></svg>