<svg xmlns="http://www.w3.org/2000/svg" width="16" height="16" viewBox="0 0 16 16" fill="currentColor"><path fill-rule="evenodd" clip-rule="evenodd" d="M14.4902 7C15.3201 7.00013 15.9902 7.67008 15.9902 8.5V12.5C15.9902 13.3299 15.3201 13.9999 14.4902 14H13.9902V15.5C13.9902 15.7 13.8697 15.88 13.6797 15.96C13.6198 15.9898 13.5501 16 13.4902 16C13.3602 16 13.2396 15.9496 13.1396 15.8496L11.29 14H8.5C7.67 14 7 13.33 7 12.5V8.5C7 7.67 7.67 7 8.5 7H14.4902ZM9.5 11C9.22 11 9 11.22 9 11.5C9 11.78 9.22 12 9.5 12H13.5C13.78 12 14 11.78 14 11.5C14 11.22 13.78 11 13.5 11H9.5ZM9.5 9C9.22 9 9 9.22 9 9.5C9 9.78 9.22 10 9.5 10H13.5C13.78 10 14 9.78 14 9.5C14 9.22 13.78 9 13.5 9H9.5Z"/><path fill-rule="evenodd" clip-rule="evenodd" d="M3.5 1C4.88 1 6 2.12 6 3.5C6 4.71 5.14 5.7202 4 5.9502V10.0498C5.14 10.2798 6 11.29 6 12.5C6 13.88 4.88 15 3.5 15C2.12 15 1 13.88 1 12.5C1 11.29 1.86 10.2798 3 10.0498V5.9502C1.86 5.7202 1 4.71 1 3.5C1 2.12 2.12 1 3.5 1ZM3.5 11C2.67 11 2 11.67 2 12.5C2 13.33 2.67 14 3.5 14C4.33 14 5 13.33 5 12.5C5 11.67 4.33 11 3.5 11ZM3.5 2C2.67 2 2 2.67 2 3.5C2 4.33 2.67 5 3.5 5C4.33 5 5 4.33 5 3.5C5 2.67 4.33 2 3.5 2Z"/><path d="M9.15039 1.15039C9.34039 0.950391 9.65961 0.950391 9.84961 1.15039C10.0496 1.34039 10.0496 1.65961 9.84961 1.84961L8.70996 3H10.5C11.88 3 13 4.12 13 5.5V6H12V5.5C12 4.67 11.33 4 10.5 4H8.70996L9.84961 5.15039C10.0496 5.34039 10.0496 5.65961 9.84961 5.84961C9.65961 6.04961 9.34039 6.04961 9.15039 5.84961L7.15039 3.84961C6.95039 3.65961 6.95039 3.34039 7.15039 3.15039L9.15039 1.15039Z"/></svg>