<svg width="16" height="16" viewBox="0 0 16 16" xmlns="http://www.w3.org/2000/svg" fill="currentColor"><path d="M14 5.5C14 4.121 12.879 3 11.5 3C10.121 3 9 4.121 9 5.5C9 6.682 9.826 7.669 10.93 7.928C10.744 8.546 10.177 9 9.5 9H6.5C5.935 9 5.419 9.195 5 9.512V4.949C6.14 4.717 7 3.707 7 2.5C7 1.121 5.879 0 4.5 0C3.121 0 2 1.121 2 2.5C2 3.708 2.86 4.717 4 4.949V11.05C2.86 11.282 2 12.292 2 13.499C2 14.878 3.121 15.999 4.5 15.999C5.879 15.999 7 14.878 7 13.499C7 12.317 6.174 11.33 5.07 11.071C5.256 10.453 5.823 9.999 6.5 9.999H9.5C10.723 9.999 11.74 9.115 11.954 7.953C13.116 7.738 14 6.723 14 5.5ZM3 2.5C3 1.673 3.673 1 4.5 1C5.327 1 6 1.673 6 2.5C6 3.327 5.327 4 4.5 4C3.673 4 3 3.327 3 2.5ZM6 13.5C6 14.327 5.327 15 4.5 15C3.673 15 3 14.327 3 13.5C3 12.673 3.673 12 4.5 12C5.327 12 6 12.673 6 13.5ZM11.5 7C10.673 7 10 6.327 10 5.5C10 4.673 10.673 4 11.5 4C12.327 4 13 4.673 13 5.5C13 6.327 12.327 7 11.5 7Z"/></svg>