<svg width="16" height="16" viewBox="0 0 16 16" xmlns="http://www.w3.org/2000/svg" fill="currentColor"><path d="M5.854 5.146L7 6.292V1.5C7 1.224 7.224 1 7.5 1C7.776 1 8 1.224 8 1.5V6.292L9.146 5.146C9.341 4.951 9.658 4.951 9.853 5.146C10.048 5.341 10.048 5.658 9.853 5.853L7.854 7.853L7.851 7.856C7.804 7.903 7.749 7.938 7.691 7.962C7.633 7.986 7.57 8 7.503 8H7.497C7.431 8 7.367 7.986 7.309 7.962C7.25 7.937 7.195 7.901 7.147 7.853L5.147 5.853C4.952 5.658 4.952 5.341 5.147 5.146C5.342 4.951 5.659 4.951 5.854 5.146ZM14 8.5V11.5C14 12.879 12.878 14 11.5 14H3.5C2.122 14 1 12.879 1 11.5V8.5C1 8.224 1.224 8 1.5 8H5.5C5.776 8 6 8.224 6 8.5C6 9.327 6.673 10 7.5 10C8.327 10 9 9.327 9 8.5C9 8.224 9.224 8 9.5 8H13.5C13.776 8 14 8.224 14 8.5ZM13 9H9.95C9.718 10.14 8.708 11 7.5 11C6.292 11 5.283 10.14 5.05 9H2V11.5C2 12.327 2.673 13 3.5 13H11.5C12.327 13 13 12.327 13 11.5V9Z"/></svg>