<svg width="24" height="24" viewBox="0 0 24 24" xmlns="http://www.w3.org/2000/svg" fill="currentColor"><path fill-rule="evenodd" clip-rule="evenodd" d="M6.75 7.5C6.75 5.98122 7.98122 4.75 9.5 4.75C11.0188 4.75 12.25 5.98122 12.25 7.5C12.25 7.8533 12.1834 8.19104 12.062 8.50134L13.8139 10.2532C14.2621 9.93625 14.8093 9.75 15.4 9.75C16.9188 9.75 18.15 10.9812 18.15 12.5C18.15 14.0188 16.9188 15.25 15.4 15.25C13.8812 15.25 12.65 14.0188 12.65 12.5C12.65 12.1195 12.7273 11.7571 12.8669 11.4276L11.144 9.70468C10.8789 9.90272 10.5768 10.0541 10.25 10.1465V14.3535C11.4043 14.68 12.25 15.7412 12.25 17C12.25 18.5188 11.0188 19.75 9.5 19.75C7.98122 19.75 6.75 18.5188 6.75 17C6.75 15.7412 7.59575 14.68 8.75 14.3535V10.1465C7.59575 9.82002 6.75 8.75878 6.75 7.5ZM9.5 6.25C8.80964 6.25 8.25 6.80964 8.25 7.5C8.25 8.19036 8.80964 8.75 9.5 8.75C10.1904 8.75 10.75 8.19036 10.75 7.5C10.75 6.80964 10.1904 6.25 9.5 6.25ZM15.4 11.25C14.7096 11.25 14.15 11.8096 14.15 12.5C14.15 13.1904 14.7096 13.75 15.4 13.75C16.0904 13.75 16.65 13.1904 16.65 12.5C16.65 11.8096 16.0904 11.25 15.4 11.25ZM9.5 15.75C8.80964 15.75 8.25 16.3096 8.25 17C8.25 17.6904 8.80964 18.25 9.5 18.25C10.1904 18.25 10.75 17.6904 10.75 17C10.75 16.3096 10.1904 15.75 9.5 15.75Z"/><path fill-rule="evenodd" clip-rule="evenodd" d="M24 12C24 18.6274 18.6274 24 12 24C5.37258 24 0 18.6274 0 12C0 5.37258 5.37258 0 12 0C18.6274 0 24 5.37258 24 12ZM22.5 12C22.5 17.799 17.799 22.5 12 22.5C6.20101 22.5 1.5 17.799 1.5 12C1.5 6.20101 6.20101 1.5 12 1.5C17.799 1.5 22.5 6.20101 22.5 12Z"/></svg>