<svg width="16" height="16" viewBox="0 0 16 16" xmlns="http://www.w3.org/2000/svg" fill="currentColor"><path d="M13.854 8.854L8.85401 13.854C8.75601 13.952 8.62801 14 8.50001 14C8.37201 14 8.24401 13.951 8.14601 13.854L3.14601 8.854C2.95101 8.659 2.95101 8.342 3.14601 8.147C3.34101 7.952 3.65801 7.952 3.85301 8.147L7.99901 12.293V10.427C7.99901 10.151 8.22301 9.927 8.49901 9.927C8.77501 9.927 8.99901 10.151 8.99901 10.427V12.293L13.145 8.147C13.34 7.952 13.657 7.952 13.852 8.147C14.047 8.342 14.047 8.659 13.852 8.854H13.854ZM8.50001 9C8.77601 9 9.00001 8.776 9.00001 8.5V6.5C9.00001 6.224 8.77601 6 8.50001 6C8.22401 6 8.00001 6.224 8.00001 6.5V8.5C8.00001 8.776 8.22401 9 8.50001 9ZM8.50001 5C8.77601 5 9.00001 4.776 9.00001 4.5V2.5C9.00001 2.224 8.77601 2 8.50001 2C8.22401 2 8.00001 2.224 8.00001 2.5V4.5C8.00001 4.776 8.22401 5 8.50001 5Z"/></svg>