<svg width="16" height="16" viewBox="0 0 16 16" xmlns="http://www.w3.org/2000/svg" fill="currentColor"><path d="M13 5.5C13 4.121 11.879 3 10.5 3C9.121 3 8 4.121 8 5.5C8 6.682 8.826 7.669 9.93 7.928C9.744 8.546 9.177 9 8.5 9H5.5C4.935 9 4.419 9.195 4 9.512V4.949C5.14 4.717 6 3.707 6 2.5C6 1.121 4.879 0 3.5 0C2.121 0 1 1.121 1 2.5C1 3.708 1.86 4.717 3 4.949V11.05C1.86 11.282 1 12.292 1 13.499C1 14.878 2.121 15.999 3.5 15.999C4.879 15.999 6 14.878 6 13.499C6 12.317 5.174 11.33 4.07 11.071C4.256 10.453 4.823 9.999 5.5 9.999H8.5C9.723 9.999 10.74 9.115 10.954 7.953C12.116 7.738 13 6.723 13 5.5ZM2 2.5C2 1.673 2.673 1 3.5 1C4.327 1 5 1.673 5 2.5C5 3.327 4.327 4 3.5 4C2.673 4 2 3.327 2 2.5ZM5 13.5C5 14.327 4.327 15 3.5 15C2.673 15 2 14.327 2 13.5C2 12.673 2.673 12 3.5 12C4.327 12 5 12.673 5 13.5ZM10.5 7C9.673 7 9 6.327 9 5.5C9 4.673 9.673 4 10.5 4C11.327 4 12 4.673 12 5.5C12 6.327 11.327 7 10.5 7Z"/></svg>