<svg width="16" height="16" viewBox="0 0 16 16" xmlns="http://www.w3.org/2000/svg" fill="currentColor"><path d="M9.22 6.50099C9.084 6.19399 9 5.85799 9 5.49999C9 4.12099 10.121 2.99999 11.5 2.99999C12.879 2.99999 14 4.12099 14 5.49999C14 5.85799 13.917 6.19399 13.781 6.50199C13.479 6.36399 13.163 6.25299 12.835 6.17099C12.937 5.96799 13.001 5.74299 13.001 5.49999C13.001 4.67299 12.328 3.99999 11.501 3.99999C10.674 3.99999 10.001 4.67299 10.001 5.49999C10.001 5.74199 10.064 5.96799 10.167 6.17099C9.839 6.25299 9.523 6.36399 9.221 6.50199L9.22 6.50099ZM6.001 11.517C6.004 12.571 6.31 13.552 6.829 14.389C6.469 15.328 5.565 16 4.5 16C3.121 16 2 14.879 2 13.5C2 12.292 2.86 11.283 4 11.051V4.94999C2.86 4.71799 2 3.70799 2 2.50099C2 1.12199 3.121 0.000991821 4.5 0.000991821C5.879 0.000991821 7 1.12199 7 2.50099C7 3.70899 6.14 4.71799 5 4.94999V9.51299C5.419 9.19599 5.935 9.00099 6.5 9.00099H6.607C6.437 9.33299 6.301 9.68399 6.2 10.051C5.662 10.164 5.226 10.551 5.069 11.073C5.414 11.154 5.726 11.313 6 11.519L6.001 11.517ZM4.5 3.99999C5.327 3.99999 6 3.32699 6 2.49999C6 1.67299 5.327 0.999992 4.5 0.999992C3.673 0.999992 3 1.67299 3 2.49999C3 3.32699 3.673 3.99999 4.5 3.99999ZM6 13.5C6 12.673 5.327 12 4.5 12C3.673 12 3 12.673 3 13.5C3 14.327 3.673 15 4.5 15C5.327 15 6 14.327 6 13.5ZM16 11.5C16 13.985 13.985 16 11.5 16C9.015 16 7 13.985 7 11.5C7 9.01499 9.015 6.99999 11.5 6.99999C13.985 6.99999 16 9.01499 16 11.5ZM14 11.5C14 11.224 13.776 11 13.5 11H12V9.49999C12 9.22399 11.776 8.99999 11.5 8.99999C11.224 8.99999 11 9.22399 11 9.49999V11H9.5C9.224 11 9 11.224 9 11.5C9 11.776 9.224 12 9.5 12H11V13.5C11 13.776 11.224 14 11.5 14C11.776 14 12 13.776 12 13.5V12H13.5C13.776 12 14 11.776 14 11.5Z"/></svg>