<svg width="24" height="25" viewBox="0 0 24 25" xmlns="http://www.w3.org/2000/svg" fill="currentColor"><path fill-rule="evenodd" clip-rule="evenodd" d="M6.75 8.06775C6.75 6.54897 7.98122 5.31775 9.5 5.31775C11.0188 5.31775 12.25 6.54897 12.25 8.06775C12.25 8.42105 12.1834 8.75879 12.062 9.06909L13.8139 10.821C14.2621 10.504 14.8093 10.3177 15.4 10.3177C16.9188 10.3177 18.15 11.549 18.15 13.0677C18.15 14.5865 16.9188 15.8177 15.4 15.8177C13.8812 15.8177 12.65 14.5865 12.65 13.0677C12.65 12.6873 12.7273 12.3249 12.8669 11.9954L11.144 10.2724C10.8789 10.4705 10.5768 10.6218 10.25 10.7142V14.9213C11.4043 15.2477 12.25 16.309 12.25 17.5677C12.25 19.0865 11.0188 20.3177 9.5 20.3177C7.98122 20.3177 6.75 19.0865 6.75 17.5677C6.75 16.309 7.59575 15.2477 8.75 14.9213V10.7142C7.59575 10.3878 6.75 9.32653 6.75 8.06775ZM9.5 6.81775C8.80964 6.81775 8.25 7.37739 8.25 8.06775C8.25 8.75811 8.80964 9.31775 9.5 9.31775C10.1904 9.31775 10.75 8.7581 10.75 8.06775C10.75 7.37739 10.1904 6.81775 9.5 6.81775ZM15.4 11.8177C14.7096 11.8177 14.15 12.3774 14.15 13.0677C14.15 13.7581 14.7096 14.3177 15.4 14.3177C16.0904 14.3177 16.65 13.7581 16.65 13.0677C16.65 12.3774 16.0904 11.8177 15.4 11.8177ZM9.5 16.3177C8.80964 16.3177 8.25 16.8774 8.25 17.5677C8.25 18.2581 8.80964 18.8177 9.5 18.8177C10.1904 18.8177 10.75 18.2581 10.75 17.5677C10.75 16.8774 10.1904 16.3177 9.5 16.3177Z"/><path fill-rule="evenodd" clip-rule="evenodd" d="M24 12.5677C24 19.1952 18.6274 24.5677 12 24.5677C5.37258 24.5677 0 19.1952 0 12.5677C0 5.94033 5.37258 0.567749 12 0.567749C18.6274 0.567749 24 5.94033 24 12.5677ZM22.5 12.5677C22.5 18.3667 17.799 23.0677 12 23.0677C6.20101 23.0677 1.5 18.3667 1.5 12.5677C1.5 6.76876 6.20101 2.06775 12 2.06775C17.799 2.06775 22.5 6.76876 22.5 12.5677Z"/></svg>