<svg width="24" height="24" viewBox="0 0 24 24" xmlns="http://www.w3.org/2000/svg" fill="currentColor"><path fill-rule="evenodd" clip-rule="evenodd" d="M15.4 9.75C14.809 9.75 14.262 9.936 13.814 10.253L12.062 8.501C12.183 8.191 12.25 7.853 12.25 7.5C12.25 5.981 11.019 4.75 9.5 4.75C7.981 4.75 6.75 5.981 6.75 7.5C6.75 8.759 7.596 9.82 8.75 10.146V14.353C7.596 14.679 6.75 15.741 6.75 16.999C6.75 18.518 7.981 19.749 9.5 19.749C11.019 19.749 12.25 18.518 12.25 16.999C12.25 15.74 11.404 14.679 10.25 14.353V10.146C10.577 10.054 10.879 9.902 11.144 9.704L12.867 11.427C12.727 11.756 12.65 12.119 12.65 12.499C12.65 14.018 13.881 15.249 15.4 15.249C16.919 15.249 18.15 14.018 18.15 12.499C18.15 10.98 16.919 9.749 15.4 9.749V9.75ZM10.75 17C10.75 17.69 10.19 18.25 9.5 18.25C8.81 18.25 8.25 17.69 8.25 17C8.25 16.31 8.81 15.75 9.5 15.75C10.19 15.75 10.75 16.31 10.75 17ZM9.5 8.75C8.81 8.75 8.25 8.19 8.25 7.5C8.25 6.81 8.81 6.25 9.5 6.25C10.19 6.25 10.75 6.81 10.75 7.5C10.75 8.19 10.19 8.75 9.5 8.75ZM15.4 13.75C14.71 13.75 14.15 13.19 14.15 12.5C14.15 11.81 14.71 11.25 15.4 11.25C16.09 11.25 16.65 11.81 16.65 12.5C16.65 13.19 16.09 13.75 15.4 13.75ZM12 0C5.373 0 0 5.373 0 12C0 18.627 5.373 24 12 24C18.627 24 24 18.627 24 12C24 5.373 18.627 0 12 0ZM12 22.5C6.201 22.5 1.5 17.799 1.5 12C1.5 6.201 6.201 1.5 12 1.5C17.799 1.5 22.5 6.201 22.5 12C22.5 17.799 17.799 22.5 12 22.5Z"/></svg>