<svg width="16" height="16" viewBox="0 0 16 16" xmlns="http://www.w3.org/2000/svg" fill="currentColor"><path fill-rule="evenodd" clip-rule="evenodd" d="M6 3.5C6 2.12 4.88 1 3.5 1C2.12 1 1 2.12 1 3.5C1 4.71 1.86 5.72 3 5.95V10.051C1.86 10.283 1 11.293 1 12.5C1 13.879 2.122 15 3.5 15C4.878 15 6 13.879 6 12.5C6 11.292 5.14 10.283 4 10.051V5.95C5.14 5.72 6 4.71 6 3.5ZM5 12.5C5 13.327 4.327 14 3.5 14C2.673 14 2 13.327 2 12.5C2 11.673 2.673 11 3.5 11C4.327 11 5 11.673 5 12.5ZM3.5 5C2.67 5 2 4.33 2 3.5C2 2.67 2.67 2 3.5 2C4.33 2 5 2.67 5 3.5C5 4.33 4.33 5 3.5 5ZM7.15 3.85C6.95 3.66 6.95 3.34 7.15 3.15L9.15 1.15C9.34 0.95 9.66 0.95 9.85 1.15C10.05 1.34 10.05 1.66 9.85 1.85L8.71 3H10.5C11.88 3 13 4.12 13 5.5V6.213C12.677 6.121 12.344 6.056 12 6.025V5.5C12 4.67 11.33 4 10.5 4H8.71L9.85 5.15C10.05 5.34 10.05 5.66 9.85 5.85C9.66 6.05 9.34 6.05 9.15 5.85L7.15 3.85ZM11.5 7C9.015 7 7 9.015 7 11.5C7 13.985 9.015 16 11.5 16C13.985 16 16 13.985 16 11.5C16 9.015 13.985 7 11.5 7ZM13.854 10.353L10.854 13.353C10.659 13.548 10.342 13.548 10.147 13.353L9.147 12.353C8.952 12.158 8.952 11.841 9.147 11.646C9.342 11.451 9.659 11.451 9.854 11.646L10.5 12.292L13.146 9.646C13.341 9.451 13.658 9.451 13.853 9.646C14.048 9.841 14.048 10.158 13.853 10.353H13.854Z"/></svg>