<svg width="16" height="16" viewBox="0 0 16 16" xmlns="http://www.w3.org/2000/svg" fill="currentColor"><path d="M5.147 3.854C4.952 3.659 4.952 3.342 5.147 3.147L7.147 1.147C7.195 1.099 7.25 1.063 7.309 1.038C7.367 1.014 7.431 1 7.497 1H7.503C7.57 1 7.633 1.014 7.691 1.038C7.749 1.062 7.804 1.097 7.851 1.144L7.854 1.147L9.853 3.147C10.048 3.342 10.048 3.659 9.853 3.854C9.658 4.049 9.341 4.049 9.146 3.854L8 2.708V7.5C8 7.776 7.776 8 7.5 8C7.224 8 7 7.776 7 7.5V2.708L5.854 3.854C5.659 4.049 5.342 4.049 5.147 3.854ZM14 8.5V11.5C14 12.879 12.878 14 11.5 14H3.5C2.122 14 1 12.879 1 11.5V8.5C1 8.224 1.224 8 1.5 8H5.5C5.776 8 6 8.224 6 8.5C6 9.327 6.673 10 7.5 10C8.327 10 9 9.327 9 8.5C9 8.224 9.224 8 9.5 8H13.5C13.776 8 14 8.224 14 8.5ZM13 9H9.95C9.718 10.14 8.708 11 7.5 11C6.292 11 5.283 10.14 5.05 9H2V11.5C2 12.327 2.673 13 3.5 13H11.5C12.327 13 13 12.327 13 11.5V9Z"/></svg>