<svg width="16" height="16" viewBox="0 0 16 16" xmlns="http://www.w3.org/2000/svg" fill="currentColor"><path d="M12.872 8.834L8.37196 13.834C8.27596 13.939 8.14196 14 7.99996 14C7.85796 14 7.72396 13.94 7.62796 13.834L3.12796 8.834C2.94296 8.629 2.95996 8.313 3.16496 8.128C3.36996 7.943 3.68596 7.959 3.87196 8.165L7.49996 12.196V10.499C7.49996 10.223 7.72396 9.999 7.99996 9.999C8.27596 9.999 8.49996 10.223 8.49996 10.499V12.196L12.128 8.165C12.315 7.96 12.63 7.944 12.835 8.128C13.04 8.313 13.057 8.629 12.872 8.834ZM7.99996 5C8.27596 5 8.49996 4.776 8.49996 4.5V2.5C8.49996 2.224 8.27596 2 7.99996 2C7.72396 2 7.49996 2.224 7.49996 2.5V4.5C7.49996 4.776 7.72396 5 7.99996 5ZM7.99996 9C8.27596 9 8.49996 8.776 8.49996 8.5V6.5C8.49996 6.224 8.27596 6 7.99996 6C7.72396 6 7.49996 6.224 7.49996 6.5V8.5C7.49996 8.776 7.72396 9 7.99996 9Z"/></svg>