<svg width="16" height="16" viewBox="0 0 16 16" xmlns="http://www.w3.org/2000/svg" fill="currentColor"><path fill-rule="evenodd" clip-rule="evenodd" d="M5.5 8.00025C5.776 8.00025 6 8.22425 6 8.50025C6.00013 9.32714 6.67308 10.0003 7.5 10.0003C8.32692 10.0003 8.99987 9.32714 9 8.50025C9 8.22425 9.224 8.00025 9.5 8.00025H13.5C13.776 8.00025 14 8.22425 14 8.50025V11.5003C13.9999 12.8791 12.8779 14.0003 11.5 14.0003H3.5C2.12208 14.0003 1.00013 12.8791 1 11.5003V8.50025C1 8.22425 1.224 8.00025 1.5 8.00025H5.5ZM2 11.5003C2.00013 12.3271 2.67308 13.0003 3.5 13.0003H11.5C12.3269 13.0003 12.9999 12.3271 13 11.5003V9.00025H9.9502C9.71812 10.1402 8.70793 11.0003 7.5 11.0003C6.29207 11.0003 5.28288 10.1402 5.0498 9.00025H2V11.5003Z"/><path d="M7.5 7.00025C7.776 7.00025 8 7.22425 8 7.50025C7.99986 7.77614 7.77592 8.00025 7.5 8.00025C7.22409 8.00025 7.00014 7.77613 7 7.50025C7 7.22425 7.224 7.00026 7.5 7.00025Z"/><path d="M7.5 5.00025C7.776 5.00025 8 5.22425 8 5.50025C7.99986 5.77614 7.77592 6.00025 7.5 6.00025C7.22409 6.00025 7.00014 5.77613 7 5.50025C7 5.22425 7.224 5.00026 7.5 5.00025Z"/><path d="M7.14648 1.14674C7.34139 0.952229 7.65763 0.952225 7.85254 1.14674L9.85254 3.14674C10.0475 3.34174 10.0475 3.65877 9.85254 3.85377C9.75456 3.95168 9.62697 4.00025 9.49902 4.00025C9.37102 4.00025 9.24253 3.95077 9.14453 3.85377L7.99902 2.70826V3.50123C7.9989 3.77712 7.77494 4.00122 7.49902 4.00123C7.2231 4.00123 6.99915 3.77712 6.99902 3.50123V2.70826L5.85254 3.85377C5.65757 4.04861 5.34146 4.04861 5.14648 3.85377C4.95148 3.65877 4.95148 3.34174 5.14648 3.14674L7.14648 1.14674Z"/></svg>