<svg width="18" height="18" viewBox="0 0 18 18" xmlns="http://www.w3.org/2000/svg" fill="currentColor"><path d="M13.872 9.834L9.37196 14.834C9.27596 14.939 9.14196 15 8.99996 15C8.85796 15 8.72396 14.94 8.62796 14.834L4.12796 9.834C3.94296 9.629 3.95996 9.313 4.16496 9.128C4.36996 8.943 4.68596 8.959 4.87196 9.165L8.49996 13.196V11.499C8.49996 11.223 8.72396 10.999 8.99996 10.999C9.27596 10.999 9.49996 11.223 9.49996 11.499V13.196L13.128 9.165C13.315 8.96 13.63 8.944 13.835 9.128C14.04 9.313 14.057 9.629 13.872 9.834ZM8.99996 6C9.27596 6 9.49996 5.776 9.49996 5.5V3.5C9.49996 3.224 9.27596 3 8.99996 3C8.72396 3 8.49996 3.224 8.49996 3.5V5.5C8.49996 5.776 8.72396 6 8.99996 6ZM8.99996 10C9.27596 10 9.49996 9.776 9.49996 9.5V7.5C9.49996 7.224 9.27596 7 8.99996 7C8.72396 7 8.49996 7.224 8.49996 7.5V9.5C8.49996 9.776 8.72396 10 8.99996 10Z"/></svg>