<svg width="24" height="25" viewBox="0 0 24 25" xmlns="http://www.w3.org/2000/svg" fill="currentColor"><path d="M21.0346 5.82524C21.9445 6.91709 22.3994 8.19091 22.3994 9.64671C22.3994 14.924 19.3969 16.4707 16.5763 16.9257C16.9402 17.5626 17.0312 18.2905 17.0312 19.0184V22.7489C17.0312 23.2038 16.7582 23.4768 16.3943 23.4768C16.0303 23.4768 15.6664 23.2038 15.6664 22.7489V19.0184C15.7574 18.1995 15.4844 17.4716 14.9385 16.9257L15.3934 15.7428C18.214 15.3789 21.1256 14.469 21.1256 9.55572C21.1256 8.37289 20.6707 7.28104 19.8518 6.37117L19.6698 5.64327C20.0338 4.7334 20.0338 3.73254 19.7608 2.91365C19.3059 3.00464 18.396 3.18661 16.8492 4.27846L16.3033 4.36945C14.1196 3.82352 11.9359 3.82352 9.75222 4.36945L9.2063 4.27846C7.56853 3.2776 6.65866 3.00464 6.20372 3.00464C5.93076 3.91451 5.93076 4.91537 6.29471 5.73426L6.11274 6.46215C5.20286 7.37203 4.74793 8.55486 4.74793 9.64671C4.74793 14.469 7.47754 15.4699 10.4801 15.8338L10.8441 17.0167C10.2981 17.5626 10.0252 18.2905 10.1162 19.0184V19.9283V20.0192V22.8399C10.1162 23.2038 9.84321 23.5677 9.38828 23.5677C9.02433 23.5677 8.66038 23.2948 8.66038 22.8399V20.7471C5.6578 21.3841 4.47497 19.8373 3.5651 18.6544C3.11016 18.1085 2.74621 17.6536 2.29127 17.5626C2.20029 17.4716 1.92733 17.1077 2.01831 16.7437C2.1093 16.3798 2.47325 16.1068 2.8372 16.2888C3.74707 16.4707 4.29299 17.1986 4.83892 17.8356C5.6578 18.9274 6.47669 19.9283 8.93334 19.3823V19.0184C8.84235 18.2905 9.02433 17.5626 9.38828 16.9257C6.65866 16.3798 3.47411 14.833 3.47411 9.64671C3.47411 8.19091 3.92904 6.91709 4.83892 5.82524C4.56595 4.55142 4.65694 3.18661 5.11188 2.09477L5.56681 1.73082C5.74879 1.63983 7.02261 1.36687 9.66124 3.00464C11.8449 2.45872 14.1196 2.45872 16.3033 3.00464C18.8509 1.27588 20.2158 1.54884 20.3977 1.63983L20.8527 2.00378C21.3076 3.2776 21.3986 4.55142 21.0346 5.82524Z"/></svg>