<svg width="24" height="25" viewBox="0 0 24 25" xmlns="http://www.w3.org/2000/svg" fill="currentColor"><path d="M12 0.567749C9.62663 0.567749 7.30656 1.27154 5.33316 2.59011C3.35977 3.90869 1.8217 5.78284 0.913451 7.97555C0.00519944 10.1683 -0.232441 12.5811 0.230582 14.9088C0.693605 17.2366 1.83649 19.3748 3.51473 21.053C5.19296 22.7313 7.33115 23.8742 9.65893 24.3372C11.9867 24.8002 14.3995 24.5626 16.5922 23.6543C18.7849 22.7461 20.6591 21.208 21.9776 19.2346C23.2962 17.2612 24 14.9411 24 12.5678C24 9.38516 22.7357 6.33291 20.4853 4.08247C18.2349 1.83203 15.1826 0.567749 12 0.567749ZM15.1629 22.3512H15.0703C15.0004 22.355 14.9304 22.3445 14.8646 22.3204C14.7989 22.2962 14.7388 22.2588 14.688 22.2106C14.6411 22.161 14.6044 22.1026 14.5803 22.0388C14.5562 21.9749 14.545 21.9069 14.5474 21.8386V20.4329C14.5543 19.9655 14.5577 19.4935 14.5577 19.0169C14.5562 18.6686 14.5055 18.3223 14.4069 17.9883C14.3135 17.6511 14.1256 17.3477 13.8652 17.114C14.5623 17.0467 15.2475 16.8882 15.9034 16.6426C16.4565 16.4323 16.9568 16.1035 17.3692 15.6792C17.7759 15.2516 18.0786 14.7359 18.2537 14.1723C18.4668 13.4832 18.5681 12.7644 18.5537 12.0432C18.5574 11.5394 18.4691 11.0392 18.2932 10.5672C18.1149 10.0915 17.8452 9.6553 17.4994 9.28318C17.5737 9.09515 17.6277 8.89977 17.6606 8.70032C17.6942 8.50094 17.7108 8.29908 17.7103 8.0969C17.7106 7.8366 17.6807 7.57715 17.6212 7.32375C17.5666 7.06431 17.4927 6.80931 17.4 6.56089C17.3646 6.54686 17.3267 6.53987 17.2886 6.54032H17.1789C16.9499 6.54299 16.7228 6.58056 16.5052 6.65175C16.2649 6.72144 16.0299 6.80852 15.8023 6.91232C15.5754 7.01389 15.3544 7.12836 15.1406 7.25518C14.9263 7.38204 14.736 7.50375 14.568 7.6169C12.8858 7.14804 11.1074 7.14804 9.42515 7.6169C9.25372 7.50375 9.06687 7.38204 8.85258 7.25518C8.63597 7.12696 8.41153 7.01245 8.18058 6.91232C7.95337 6.80605 7.7177 6.71889 7.47601 6.65175C7.26242 6.58104 7.03926 6.54346 6.81429 6.54032H6.70458C6.66702 6.54 6.62976 6.54699 6.59486 6.56089C6.50045 6.80962 6.42313 7.0645 6.36344 7.32375C6.31009 7.57802 6.28309 7.8371 6.28287 8.0969C6.28296 8.29913 6.30016 8.50099 6.33429 8.70032C6.36662 8.89971 6.42007 9.0951 6.49372 9.28318C6.14842 9.65537 5.87936 10.0916 5.70172 10.5672C5.52524 11.0391 5.43635 11.5393 5.43944 12.0432C5.42538 12.7604 5.52371 13.4753 5.73086 14.162C5.91225 14.7259 6.21408 15.2436 6.61544 15.6792C7.03026 16.1005 7.52986 16.4289 8.08115 16.6426C8.73413 16.8929 9.41811 17.0532 10.1143 17.1192C9.91979 17.2951 9.76544 17.5109 9.66172 17.7518C9.56305 17.9901 9.49564 18.2401 9.46115 18.4958C9.09453 18.6717 8.69349 18.7642 8.28687 18.7666C7.90903 18.7811 7.53632 18.6755 7.22229 18.4649C6.92064 18.2418 6.66507 17.9624 6.46972 17.642C6.38262 17.5073 6.28519 17.3794 6.17829 17.2598C6.06536 17.134 5.94081 17.0192 5.80629 16.9169C5.67374 16.8178 5.52843 16.7371 5.37429 16.6769C5.22244 16.6103 5.05841 16.5758 4.89258 16.5758C4.85241 16.5768 4.81234 16.5802 4.77258 16.586C4.71822 16.5861 4.66408 16.593 4.61144 16.6066C4.56482 16.6188 4.52071 16.6391 4.48115 16.6666C4.46333 16.6765 4.44842 16.6909 4.43789 16.7083C4.42736 16.7258 4.42159 16.7457 4.42115 16.766C4.42551 16.8142 4.44036 16.8607 4.46465 16.9025C4.48893 16.9442 4.52207 16.9802 4.56172 17.0078C4.65429 17.082 4.73144 17.1392 4.79315 17.1792L4.82229 17.1998C4.95641 17.3027 5.08408 17.4137 5.20458 17.5323C5.31733 17.6303 5.41804 17.7414 5.50458 17.8632C5.5951 17.9814 5.67269 18.109 5.73601 18.2438C5.80915 18.3775 5.88629 18.5318 5.96744 18.7066C6.15489 19.1802 6.48887 19.5815 6.92058 19.8518C7.37379 20.0949 7.88243 20.216 8.39658 20.2032C8.57132 20.2032 8.74591 20.1929 8.91944 20.1723C9.09087 20.1449 9.26229 20.1158 9.43372 20.0815V21.8249C9.43682 21.8954 9.42498 21.9657 9.39898 22.0313C9.37298 22.0969 9.33341 22.1563 9.28287 22.2055C9.23208 22.2537 9.17197 22.291 9.10623 22.3152C9.0405 22.3394 8.97052 22.3499 8.90058 22.346H8.83887C6.50699 21.5927 4.52068 20.0316 3.23764 17.9437C1.95459 15.8559 1.45912 13.3786 1.84043 10.9579C2.22175 8.53721 3.4548 6.33219 5.31754 4.7399C7.18028 3.14761 9.55032 2.27269 12.0009 2.27269C14.4514 2.27269 16.8215 3.14761 18.6842 4.7399C20.5469 6.33219 21.78 8.53721 22.1613 10.9579C22.5426 13.3786 22.0471 15.8559 20.7641 17.9437C19.4811 20.0316 17.4948 21.5927 15.1629 22.346V22.3512Z"/></svg>