<svg width="18" height="18" viewBox="0 0 18 18" xmlns="http://www.w3.org/2000/svg" fill="currentColor"><path d="M9 2C5.141 2 2 5.141 2 9C2 12.859 5.141 16 9 16C12.859 16 16 12.859 16 9C16 5.141 12.859 2 9 2ZM9 15C8.422 15 7.686 13.906 7.288 12H10.713C10.315 13.906 9.579 15 9.001 15H9ZM7.121 11C7.044 10.392 7 9.723 7 9C7 8.277 7.044 7.608 7.121 7H10.878C10.955 7.608 10.999 8.277 10.999 9C10.999 9.723 10.955 10.392 10.878 11H7.121ZM3 9C3 8.299 3.121 7.626 3.343 7H6.121C6.041 7.656 6 8.332 6 9C6 9.668 6.041 10.344 6.121 11H3.343C3.121 10.374 3 9.701 3 9ZM9 3C9.578 3 10.314 4.094 10.712 6H7.287C7.685 4.094 8.422 3 9 3ZM11.879 7H14.657C14.879 7.626 15 8.299 15 9C15 9.701 14.879 10.374 14.657 11H11.879C11.959 10.344 12 9.668 12 9C12 8.332 11.959 7.656 11.879 7ZM14.195 6H11.722C11.516 4.938 11.199 3.98 10.775 3.268C12.228 3.719 13.446 4.707 14.195 6ZM7.226 3.268C6.802 3.98 6.484 4.938 6.279 6H3.806C4.556 4.707 5.774 3.718 7.226 3.268ZM3.805 12H6.278C6.484 13.062 6.801 14.02 7.225 14.732C5.772 14.281 4.554 13.293 3.805 12ZM10.774 14.732C11.198 14.02 11.516 13.062 11.721 12H14.194C13.444 13.293 12.226 14.282 10.774 14.732Z"/></svg>