<svg width="16" height="16" viewBox="0 0 16 16" xmlns="http://www.w3.org/2000/svg" fill="currentColor"><path fill-rule="evenodd" clip-rule="evenodd" d="M10.5703 1.13965L13.8496 4.44043L14 4.7998V14.5L13.5 15H2.5L2 14.5V8.96387C2.16465 8.98763 2.33168 9 2.5 9H3V14H13V6H9.5L9 5.5V2H7.32812L6.32812 1H10.2197L10.5703 1.13965ZM10 5H13L10 2V5Z"/><path d="M4.91406 1L7.06055 3.14648V3.85352L4.91406 6L4.20703 5.29297L5.5 4H2.5C2.10218 4 1.72076 4.15815 1.43945 4.43945C1.15815 4.72076 1 5.10218 1 5.5C1 5.89782 1.15815 6.27924 1.43945 6.56055C1.59898 6.72007 1.79135 6.83818 2 6.91211C2.07523 6.93875 2.1527 6.9588 2.23145 6.97363C2.31957 6.9897 2.40917 7 2.5 7H3V8H2.5C2.36515 8 2.23202 7.98524 2.10059 7.96387C2.06867 7.95869 2.03651 7.95562 2.00488 7.94922C2.00332 7.9489 2.00156 7.94954 2 7.94922C1.52343 7.85181 1.08155 7.6167 0.732422 7.26758C0.263582 6.79874 0 6.16304 0 5.5C1.13653e-06 4.83696 0.263582 4.20126 0.732422 3.73242C1.10593 3.35891 1.58582 3.11863 2.10059 3.03516C2.23197 3.01379 2.36518 3 2.5 3H5.5L4.20703 1.70703L4.91406 1Z"/></svg>