<svg width="16" height="16" viewBox="0 0 16 16" xmlns="http://www.w3.org/2000/svg" fill="currentColor"><path d="M4.80005 10.15L1 13.84L1.75 14.5L5.53003 10.83L4.80005 10.15Z"/><path d="M5.91418 6L8.06063 3.85356L8.06063 3.14645L5.91419 1L5.20708 1.70711L6.49997 3H3C1.61929 3 0.5 4.11929 0.5 5.5C0.5 6.76271 1.43615 7.80678 2.65227 7.97601C2.58806 7.66959 2.53498 7.31409 2.51211 6.91887C1.9232 6.71641 1.5 6.15763 1.5 5.5C1.5 4.67157 2.17157 4 3 4L6.49997 4L5.20708 5.29289L5.91418 6Z"/><path d="M8.23663 2.02947L7.41223 1.20507C7.70346 1.12323 7.99962 1.06592 8.2977 1.03308C9.1038 0.944267 9.9239 1.03438 10.6981 1.30221C11.791 1.68027 12.7369 2.39318 13.4014 3.33962C14.0659 4.28606 14.4152 5.41787 14.3996 6.57418C14.384 7.73049 14.0043 8.85247 13.3145 9.78064C12.6248 10.7088 11.66 11.396 10.5573 11.7444C9.45461 12.0928 8.27017 12.0848 7.17229 11.7216C6.07442 11.3583 5.11898 10.6582 4.44178 9.7208C3.96202 9.05671 3.63921 8.29746 3.49175 7.5C3.4612 7.3348 3.43818 7.16797 3.42285 7H4.40833C4.49429 7.7722 4.7783 8.51224 5.23659 9.14662C5.79306 9.91689 6.57816 10.4922 7.48031 10.7907C8.38246 11.0892 9.35576 11.0958 10.2619 10.8095C11.1679 10.5231 11.9607 9.95849 12.5275 9.19579C13.0944 8.43308 13.4063 7.51113 13.4192 6.56096C13.432 5.61079 13.145 4.68075 12.5989 3.90304C12.0529 3.12532 11.2756 2.53951 10.3776 2.22885C9.68735 1.99008 8.95277 1.92319 8.23663 2.02947Z"/></svg>