<svg width="16" height="16" viewBox="0 0 16 16" xmlns="http://www.w3.org/2000/svg" fill="currentColor"><path d="M4.80005 10.1501L1 13.84L1.75 14.5L5.53003 10.83L4.80005 10.1501Z"/><path d="M3.99982 9C4.91017 10.7808 6.76276 12 8.90011 12C11.9377 12 14.4001 9.53757 14.4001 6.5C14.4001 3.46243 11.9377 1 8.90011 1C8.468 1 8.04754 1.04983 7.64414 1.14406L8.51623 2.01614C8.64277 2.00545 8.7708 2 8.90011 2C11.3854 2 13.4001 4.01472 13.4001 6.5C13.4001 8.98528 11.3854 11 8.90011 11C7.3399 11 5.96514 10.206 5.15788 9H3.99982Z"/><path d="M8.06075 3.8535L5.91431 5.99994L5.2072 5.29283L6.50009 3.99994H3.50012C3.1023 3.99994 2.72077 4.15798 2.43946 4.43928C2.15816 4.72059 2.00012 5.10212 2.00012 5.49994C2.00012 5.89777 2.15816 6.2793 2.43946 6.5606C2.72077 6.84191 3.1023 6.99994 3.50012 6.99994H4.00012V7.99994H3.50012C2.83708 7.99994 2.2012 7.73655 1.73236 7.26771C1.26351 6.79887 1.00012 6.16298 1.00012 5.49994C1.00012 4.8369 1.26351 4.20102 1.73236 3.73218C2.2012 3.26334 2.83708 2.99994 3.50012 2.99994H6.50009L5.2072 1.70705L5.91431 0.999939L8.06075 3.14639L8.06075 3.8535Z"/></svg>