<svg width="16" height="16" viewBox="0 0 16 16" xmlns="http://www.w3.org/2000/svg" fill="currentColor"><path d="M6.854 2.14827L4.854 0.148272C4.76011 0.0543854 4.63278 0.00164032 4.5 0.00164032C4.36722 0.00164031 4.23989 0.0543854 4.146 0.148272C4.05211 0.242159 3.99937 0.369496 3.99937 0.502272C3.99937 0.635048 4.05211 0.762386 4.146 0.856272L5.293 2.00227L2.5 2.00227C1.83696 2.00227 1.20107 2.26566 0.732233 2.7345C0.263392 3.20335 0 3.83923 0 4.50227V5.50227C0 5.63488 0.052678 5.76206 0.146446 5.85583C0.240214 5.94959 0.367392 6.00227 0.5 6.00227C0.632608 6.00227 0.759786 5.94959 0.853554 5.85583C0.947322 5.76206 1 5.63488 1 5.50227L1 4.50227C1 4.10445 1.15804 3.72292 1.43934 3.44161C1.72064 3.16031 2.10218 3.00227 2.5 3.00227L5.293 3.00227L4.146 4.14827C4.05211 4.24216 3.99937 4.3695 3.99937 4.50227C3.99937 4.63505 4.05211 4.76239 4.146 4.85627C4.23989 4.95016 4.36722 5.0029 4.5 5.0029C4.63278 5.0029 4.76011 4.95016 4.854 4.85627L6.854 2.85627C6.90056 2.80983 6.93751 2.75465 6.96271 2.69391C6.98792 2.63316 7.00089 2.56804 7.00089 2.50227C7.00089 2.4365 6.98792 2.37138 6.96271 2.31064C6.93751 2.24989 6.90056 2.19472 6.854 2.14827Z"/><path fill-rule="evenodd" clip-rule="evenodd" d="M8 4.5V2H7.91417C7.90558 1.97576 7.89635 1.95173 7.8865 1.92791C7.81116 1.74582 7.70053 1.58043 7.561 1.44127L7.11973 0.999998H8.58579C8.98361 0.999998 9.36514 1.15803 9.64645 1.43934L12.5607 4.35355C12.842 4.63486 13 5.01639 13 5.41421V13C13 14.1046 12.1046 15 11 15H5C3.89543 15 3 14.1046 3 13V4.57367C3.00658 4.71644 3.03358 4.85852 3.08101 4.99546C3.19251 5.31737 3.41026 5.59174 3.69844 5.77343C3.79381 5.83355 3.895 5.88234 4 5.91933V13C4 13.5523 4.44772 14 5 14H11C11.5523 14 12 13.5523 12 13V6H9.5C8.67157 6 8 5.32843 8 4.5ZM11.7929 5H9.5C9.22386 5 9 4.77614 9 4.5V2.20711L11.7929 5Z"/><path d="M3.085 4.00227C3.03511 4.14267 3.00677 4.28866 3 4.43543V4.00227H3.085Z"/></svg>