<svg width="16" height="16" viewBox="0 0 16 16" xmlns="http://www.w3.org/2000/svg" fill="currentColor"><path d="M8 1.00006H3L2 2.00006V14.0001L3 15.0001H12L13 14.0001V6.81723H12V14.0001H3V2.00006H8V1.00006Z"/><path d="M8 4.00006H7.00006V6.00006H5.00006V7.00006H7.00006V9.00006H8.00006V7.00006H10.0001V6.00008L8.00006 6.00006L8 4.00006Z"/><path d="M5.00006 11.0001H10.0001V12.0001H5.00006V11.0001Z"/><path d="M13.8703 0.482666L14.3724 0.984712V4.52025H13.3683V2.18679L10.2287 5.32635L9.5216 4.61924L12.6682 1.47262L10.3348 1.47262L10.3348 0.482666L13.8703 0.482666Z"/></svg>