<svg width="16" height="16" viewBox="0 0 16 16" xmlns="http://www.w3.org/2000/svg" fill="currentColor"><path d="M7 4C7 4.552 6.552 5 6 5C5.448 5 5 4.552 5 4C5 3.448 5.448 3 6 3C6.552 3 7 3.448 7 4ZM10 3C9.448 3 9 3.448 9 4C9 4.552 9.448 5 10 5C10.552 5 11 4.552 11 4C11 3.448 10.552 3 10 3ZM6 7C5.448 7 5 7.448 5 8C5 8.552 5.448 9 6 9C6.552 9 7 8.552 7 8C7 7.448 6.552 7 6 7ZM10 7C9.448 7 9 7.448 9 8C9 8.552 9.448 9 10 9C10.552 9 11 8.552 11 8C11 7.448 10.552 7 10 7ZM6 11C5.448 11 5 11.448 5 12C5 12.552 5.448 13 6 13C6.552 13 7 12.552 7 12C7 11.448 6.552 11 6 11ZM10 11C9.448 11 9 11.448 9 12C9 12.552 9.448 13 10 13C10.552 13 11 12.552 11 12C11 11.448 10.552 11 10 11Z"/></svg>