<svg width="18" height="18" viewBox="0 0 18 18" xmlns="http://www.w3.org/2000/svg" fill="currentColor"><path d="M15 3.00001H12C11.448 3.00001 11 3.44801 11 4.00001V5.00001H9V4.75001C9 4.33701 8.663 4.00001 8.25 4.00001H6.75C6.337 4.00001 6 4.33701 6 4.75001V6.25001C6 6.66301 6.337 7.00001 6.75 7.00001H8.25C8.663 7.00001 9 6.66301 9 6.25001V6.00001H11V7.00001C11 7.55201 11.448 8.00001 12 8.00001H15C15.552 8.00001 16 7.55201 16 7.00001V4.00001C16 3.44801 15.552 3.00001 15 3.00001ZM8 6.00001H7V5.00001H8V6.00001ZM15 7.00001H12V4.00001H15V7.00001ZM15 9.00001H12C11.448 9.00001 11 9.44801 11 10V11H9V10.75C9 10.337 8.663 10 8.25 10H6.75C6.337 10 6 10.337 6 10.75V12.25C6 12.663 6.337 13 6.75 13H8.25C8.663 13 9 12.663 9 12.25V12H11V13C11 13.552 11.448 14 12 14H15C15.552 14 16 13.552 16 13V10C16 9.44801 15.552 9.00001 15 9.00001ZM8 12H7V11H8V12ZM15 13H12V10H15V13ZM5.501 14.501C5.501 14.777 5.277 15.001 5.001 15.001C3.896 15.001 3.001 14.106 3.001 13.001V11.001C3.001 10.468 2.992 9.70301 2.91 9.49901C2.848 9.34201 2.715 9.16801 2.276 8.94801C2.107 8.86401 2 8.69001 2 8.50101C2 8.31201 2.107 8.13901 2.276 8.05401C2.715 7.83401 2.847 7.65901 2.91 7.50301C2.991 7.30001 2.999 7.03601 2.999 6.50601V4.00101C2.999 2.89601 3.895 2.00101 5 2.00101C5.276 2.00101 5.5 2.22401 5.5 2.50001C5.5 2.77601 5.276 3.00001 5 3.00001C4.448 3.00001 4 3.44801 4 4.00001L3.998 6.57101C3.998 7.01501 3.998 7.47301 3.837 7.87401C3.74 8.11601 3.595 8.32101 3.399 8.50001C3.595 8.68001 3.741 8.88401 3.838 9.12701C3.999 9.53101 4.001 10.493 4.001 10.942V13.001C4.001 13.553 4.449 14.001 5.001 14.001C5.277 14.001 5.501 14.225 5.501 14.501Z"/></svg>