<svg width="16" height="16" viewBox="0 0 16 16" xmlns="http://www.w3.org/2000/svg" fill="currentColor"><path d="M7.54118 3.94749C6.26949 2.6758 4.21213 2.66962 2.94594 3.93581C1.67975 5.202 1.68593 7.25936 2.95762 8.53105L7.66511 13.2385C7.86038 13.4338 8.17696 13.4338 8.37222 13.2385L13.0553 8.55827C14.3185 7.28796 14.3145 5.23637 13.0426 3.96446C11.7686 2.69048 9.7103 2.6843 8.44184 3.95276L7.99458 4.40088L7.54118 3.94749ZM12.3462 7.85314L8.01867 12.1779L3.66473 7.82395C2.78261 6.94183 2.77833 5.51763 3.65305 4.64292C4.52776 3.7682 5.95196 3.77248 6.83408 4.65459L7.64343 5.46395C7.84203 5.66255 8.1652 5.65865 8.35895 5.45533L9.14895 4.65987C10.0259 3.78289 11.4511 3.78717 12.3355 4.67156C13.2178 5.5539 13.2206 6.97385 12.3462 7.85314Z"/></svg>