<svg width="18" height="18" viewBox="0 0 18 18" xmlns="http://www.w3.org/2000/svg" fill="currentColor"><path d="M9.02199 15.072C8.89399 15.072 8.76599 15.023 8.66799 14.926L3.10399 9.36098C2.53799 8.79698 1.99799 7.89098 1.99799 6.69898C1.99799 4.94498 3.32599 3.00098 5.72799 3.00098C6.70299 3.00098 7.67899 3.35798 8.39299 4.07098L8.99499 4.67198L9.58699 4.07698C10.305 3.35998 11.266 3.00298 12.229 3.00298C15.204 3.00298 15.998 5.68498 15.998 6.75298C15.998 7.70998 15.636 8.66598 14.912 9.39398L9.37599 14.927C9.27799 15.025 9.14999 15.073 9.02199 15.073V15.072ZM5.72799 3.96498C4.21699 3.96498 2.99799 5.18398 2.99799 6.69598C2.99799 7.57198 3.39499 8.23698 3.81099 8.65298L9.02199 13.866L14.204 8.68698C14.734 8.15398 14.998 7.45398 14.998 6.75298C14.998 5.27398 13.819 3.99298 12.229 3.99298C11.525 3.99298 10.823 4.25598 10.295 4.78398L9.35099 5.73298C9.25699 5.82698 9.12999 5.87998 8.99699 5.87998C8.86399 5.87998 8.73699 5.82698 8.64299 5.73398L7.68699 4.77898C7.16299 4.25498 6.46699 3.96598 5.72899 3.96598L5.72799 3.96498Z"/></svg>