<svg width="18" height="18" viewBox="0 0 18 18" xmlns="http://www.w3.org/2000/svg" fill="currentColor"><path d="M9.02199 15.072C8.89399 15.072 8.76599 15.023 8.66799 14.926L3.10399 9.36098C2.53799 8.79698 1.99799 7.89098 1.99799 6.69898C1.99799 4.94498 3.32599 3.00098 5.72799 3.00098C6.70299 3.00098 7.67899 3.35798 8.39299 4.07098L8.99499 4.67198L9.58699 4.07698C10.305 3.35998 11.266 3.00298 12.229 3.00298C15.204 3.00298 15.998 5.68498 15.998 6.75298C15.998 7.70998 15.636 8.66598 14.912 9.39398L9.37599 14.927C9.27799 15.025 9.14999 15.073 9.02199 15.073V15.072Z"/></svg>