<svg width="16" height="16" viewBox="0 0 16 16" fill="none" xmlns="http://www.w3.org/2000/svg">
<path fill-rule="evenodd" clip-rule="evenodd" d="M8.48 4H12.48L12.98 4.5V6.53H13.5L14 7.03V8L13.5 8.5H12.98V11.5L12.48 12H9.36L6.86 14.76L6 14.4V12H3.5L3 11.36V8.5H2.5L2 8V7.03L2.5 6.53H3V4.36L3.53 4H7.53V2.86C7.37327 2.7766 7.24157 2.65299 7.14842 2.50184C7.05528 2.3507 7.00405 2.17749 7 2C7 1.73478 7.10536 1.48043 7.29289 1.29289C7.48043 1.10536 7.73478 1 8 1C8.26522 1 8.51957 1.10536 8.70711 1.29289C8.89464 1.48043 9 1.73478 9 2C8.99178 2.17133 8.93964 2.33767 8.84857 2.48302C8.75751 2.62838 8.63058 2.74786 8.48 2.83V4ZM12 8V7.03V5H4V7.03V8V10.86L6.5 11H7V13.19L8.8 11.15L9.15 11H12V8ZM9.88001 8.51C9.50557 8.88537 9.02924 9.14266 8.51001 9.25V9.24C8.07687 9.32287 7.63005 9.29878 7.20833 9.16982C6.78661 9.04086 6.40274 8.81094 6.09001 8.5L5.39001 9.21C5.73061 9.54934 6.13507 9.81784 6.58001 10C7.03006 10.1878 7.51235 10.2863 8.00001 10.29C8.96678 10.2841 9.89283 9.90004 10.58 9.22L9.88001 8.51ZM6.48999 6.5H5.48999V7.5H6.48999V6.5ZM9.48999 6.5H10.49V7.5H9.48999V6.5Z" fill="white"/>
</svg>
