<svg width="18" height="18" viewBox="0 0 18 18" xmlns="http://www.w3.org/2000/svg" fill="currentColor"><path d="M4.5 2C3.11929 2 2 3.11929 2 4.5V13.5C2 14.8807 3.11929 16 4.5 16H13.5C14.8807 16 16 14.8807 16 13.5V4.5C16 3.11929 14.8807 2 13.5 2H4.5ZM15 9H11.5L11.4101 9.00806C11.1769 9.05039 11 9.25454 11 9.5C11 9.55217 10.9922 9.66189 10.9677 9.80843C10.9266 10.0554 10.8528 10.3015 10.7403 10.5264C10.4316 11.1439 9.89734 11.5 9 11.5C8.10266 11.5 7.56844 11.1439 7.25971 10.5264C7.14724 10.3015 7.07341 10.0554 7.03226 9.80843C7.00784 9.66189 7 9.55217 7 9.5C7 9.22386 6.77614 9 6.5 9H3V4.5C3 3.67157 3.67157 3 4.5 3H13.5C14.3284 3 15 3.67157 15 4.5V9ZM3 10H6.044L6.0794 10.174C6.1363 10.4257 6.22762 10.6983 6.36529 10.9736C6.83781 11.9186 7.70984 12.5 9 12.5C10.2902 12.5 11.1622 11.9186 11.6347 10.9736L11.7295 10.7679C11.8159 10.5633 11.8779 10.3628 11.9206 10.174L11.955 10H15V13.5C15 14.3284 14.3284 15 13.5 15H4.5C3.67157 15 3 14.3284 3 13.5V10Z"/></svg>