<svg width="16" height="16" viewBox="0 0 16 16" fill="none" xmlns="http://www.w3.org/2000/svg"><path fill-rule="evenodd" clip-rule="evenodd" d="M4 3.5V12.5C4 12.776 4.225 13 4.5 13H5C5.276 13 5.5 13.224 5.5 13.5C5.5 13.776 5.276 14 5 14H4.5C3.673 14 3 13.327 3 12.5V3.5C3 2.673 3.673 2 4.5 2H5C5.276 2 5.5 2.224 5.5 2.5C5.5 2.776 5.276 3 5 3H4.5C4.225 3 4 3.224 4 3.5ZM11.5 2H11C10.724 2 10.5 2.224 10.5 2.5C10.5 2.776 10.724 3 11 3H11.5C11.775 3 12 3.224 12 3.5V12.5C12 12.776 11.775 13 11.5 13H11C10.724 13 10.5 13.224 10.5 13.5C10.5 13.776 10.724 14 11 14H11.5C12.327 14 13 13.327 13 12.5V3.5C13 2.673 12.327 2 11.5 2ZM10 7V9C10 10.105 9.105 11 8 11C6.895 11 6 10.105 6 9V7C6 5.895 6.895 5 8 5C9.105 5 10 5.895 10 7ZM9 7C9 6.448 8.552 6 8 6C7.448 6 7 6.448 7 7V9C7 9.552 7.448 10 8 10C8.552 10 9 9.552 9 9V7Z" fill="currentColor"/></svg>