<svg width="16" height="16" viewBox="0 0 16 16" xmlns="http://www.w3.org/2000/svg" fill="currentColor"><path d="M2.50002 3C2.77602 3 3.00002 3.224 3.00002 3.5V6.5C3.00002 7.327 3.67302 8 4.50002 8H12.293L9.64702 5.354C9.45202 5.159 9.45202 4.842 9.64702 4.647C9.84202 4.452 10.159 4.452 10.354 4.647L13.854 8.147C14.049 8.342 14.049 8.659 13.854 8.854L10.354 12.354C10.256 12.452 10.128 12.5 10 12.5C9.87202 12.5 9.74402 12.451 9.64602 12.354C9.45102 12.159 9.45102 11.842 9.64602 11.647L12.292 9.001H4.49902C3.12002 9.001 1.99902 7.88 1.99902 6.501V3.501C1.99902 3.225 2.22302 3.001 2.49902 3.001L2.50002 3Z"/></svg>