<svg width="18" height="18" viewBox="0 0 18 18" xmlns="http://www.w3.org/2000/svg" fill="currentColor"><path d="M9.49902 8.49998C9.49902 8.22384 9.27517 7.99998 8.99902 7.99998C8.72288 7.99998 8.49902 8.22384 8.49902 8.49998V11.5C8.49902 11.7761 8.72288 12 8.99902 12C9.27517 12 9.49902 11.7761 9.49902 11.5V8.49998ZM9.74807 6.50001C9.74807 6.91369 9.41271 7.24905 8.99903 7.24905C8.58535 7.24905 8.25 6.91369 8.25 6.50001C8.25 6.08633 8.58535 5.75098 8.99903 5.75098C9.41271 5.75098 9.74807 6.08633 9.74807 6.50001ZM9 2C5.13401 2 2 5.13401 2 9C2 12.866 5.13401 16 9 16C12.866 16 16 12.866 16 9C16 5.13401 12.866 2 9 2ZM3 9C3 5.68629 5.68629 3 9 3C12.3137 3 15 5.68629 15 9C15 12.3137 12.3137 15 9 15C5.68629 15 3 12.3137 3 9Z"/></svg>