<svg width="16" height="16" viewBox="0 0 16 16" fill="none" xmlns="http://www.w3.org/2000/svg">
<path fill-rule="evenodd" clip-rule="evenodd" d="M8.56838 1.03128C10.1595 1.19039 11.6436 1.90518 12.76 3.04996C13.9763 4.28555 14.6955 5.92552 14.7803 7.65726C14.8651 9.38899 14.3098 11.0913 13.2201 12.4398C12.2178 13.6857 10.8113 14.5416 9.24429 14.8594C7.67727 15.1772 6.04844 14.9369 4.64004 14.18C3.22861 13.4066 2.12677 12.1706 1.52004 10.68C0.910598 9.18166 0.829469 7.52043 1.29003 5.96988C1.7496 4.42537 2.72797 3.0868 4.06002 2.17996C5.38101 1.27892 6.97729 0.87217 8.56838 1.03128ZM9.04006 13.8799C10.3829 13.6075 11.5887 12.8756 12.45 11.81C13.3826 10.6509 13.8571 9.18961 13.7834 7.70377C13.7097 6.21792 13.0928 4.81093 12.05 3.74991C11.0949 2.77492 9.82747 2.16667 8.46932 2.0314C7.11117 1.89614 5.74869 2.24247 4.62002 3.00992C3.77045 3.59531 3.08444 4.38792 2.62691 5.31265C2.16939 6.23738 1.95553 7.26359 2.00561 8.2941C2.05568 9.3246 2.36803 10.3253 2.91305 11.2013C3.45807 12.0773 4.2177 12.7997 5.12002 13.3C6.31834 13.9467 7.7058 14.1519 9.04006 13.8799ZM7.375 6L8.625 6L8.625 5L7.375 5L7.375 6ZM8.625 7L8.625 11L7.375 11L7.375 7L8.625 7Z" fill="#75BEFF"/>
</svg>
