<svg width="16" height="16" viewBox="0 0 16 16" xmlns="http://www.w3.org/2000/svg" fill="currentColor"><path fill-rule="evenodd" clip-rule="evenodd" d="M11 6H14C14.551 6 15 5.551 15 5V2C15 1.449 14.551 1 14 1H11C10.449 1 10 1.449 10 2V5C10 5.551 10.449 6 11 6ZM11 5V2H14V5H11Z"/><path fill-rule="evenodd" clip-rule="evenodd" d="M11 14H14C14.551 14 15 13.551 15 13V10C15 9.449 14.551 9 14 9H11C10.449 9 10 9.449 10 10V13C10 13.551 10.449 14 11 14ZM11 13V10H14V13H11Z"/><path d="M7.854 5.14602L9.854 7.14602L9.855 7.14502C10.05 7.34002 10.05 7.65702 9.855 7.85202L7.855 9.85202C7.757 9.94902 7.629 9.99802 7.501 9.99802C7.373 9.99802 7.245 9.95002 7.147 9.85202C6.952 9.65702 6.952 9.34002 7.147 9.14502L8.293 7.99902H4V8.99902C4 9.55002 3.551 9.99902 3 9.99902H1C0.724 9.99902 0.5 9.77502 0.5 9.49902C0.5 9.22302 0.724 8.99902 1 8.99902H3V5.99902H1C0.724 5.99902 0.5 5.77502 0.5 5.49902C0.5 5.22302 0.724 4.99902 1 4.99902H3C3.551 4.99902 4 5.44802 4 5.99902V6.99902H8.293L7.147 5.85302C6.952 5.65802 6.952 5.34102 7.147 5.14602C7.342 4.95102 7.659 4.95102 7.854 5.14602Z"/></svg>