<svg width="18" height="18" viewBox="0 0 18 18" xmlns="http://www.w3.org/2000/svg" fill="currentColor"><path d="M2 5C2 3.89543 2.89543 3 4 3H14C15.1046 3 16 3.89543 16 5L16 11C16 11.8062 15.523 12.501 14.8358 12.8175C14.7656 12.6802 14.6736 12.5523 14.5607 12.4394L14.1148 11.9935C14.613 11.9366 15 11.5135 15 11L15 5C15 4.44772 14.5523 4 14 4H4C3.44772 4 3 4.44772 3 5L3 11C3 11.5523 3.44772 12 4 12H8V13H4C2.89543 13 2 12.1046 2 11L2 5ZM9.85356 9.14645C9.71056 9.00345 9.4955 8.96067 9.30866 9.03806C9.12182 9.11545 9 9.29777 9 9.5V15.5C9 15.7152 9.13772 15.9063 9.34189 15.9743C9.54606 16.0424 9.77087 15.9722 9.9 15.8L11.25 14H13.5C13.7022 14 13.8846 13.8782 13.9619 13.6913C14.0393 13.5045 13.9966 13.2894 13.8536 13.1464L9.85356 9.14645ZM10 14V10.7071L12.2929 13H11C10.8426 13 10.6944 13.0741 10.6 13.2L10 14Z"/></svg>