<svg width="16" height="16" viewBox="0 0 16 16" xmlns="http://www.w3.org/2000/svg" fill="currentColor"><path d="M9.31105 2.132C9.27805 2.132 9.24505 2.129 9.21105 2.122C8.41505 1.96 7.58605 1.96 6.79005 2.122C6.51805 2.18 6.25505 2.002 6.20005 1.731C6.14505 1.46 6.32005 1.196 6.59105 1.141C7.51905 0.953 8.48305 0.953 9.41005 1.141C9.68105 1.196 9.85505 1.46 9.80105 1.731C9.75305 1.968 9.54405 2.132 9.31105 2.132Z"/><path d="M12.976 4.64496C13.073 4.78896 13.23 4.86596 13.391 4.86596C13.487 4.86596 13.584 4.83896 13.67 4.77996C13.899 4.62596 13.959 4.31596 13.805 4.08696C13.557 3.71896 13.269 3.36996 12.95 3.04996C12.634 2.73396 12.286 2.44596 11.914 2.19596C11.684 2.03996 11.374 2.10196 11.22 2.33096C11.066 2.55896 11.126 2.86996 11.355 3.02396C11.674 3.23896 11.973 3.48496 12.243 3.75496C12.517 4.03096 12.763 4.32996 12.976 4.64496Z"/><path d="M2.60896 4.86596C2.51296 4.86596 2.41596 4.83896 2.32996 4.77996C2.10096 4.62596 2.04096 4.31496 2.19496 4.08696C2.44296 3.71896 2.73096 3.36996 3.04896 3.05096C3.36496 2.73496 3.71396 2.44696 4.08496 2.19696C4.31396 2.04096 4.62496 2.10196 4.77896 2.33196C4.93296 2.56096 4.87296 2.87096 4.64396 3.02496C4.32496 3.24096 4.02596 3.48696 3.75596 3.75696C3.48296 4.03096 3.23596 4.32996 3.02296 4.64596C2.92596 4.78996 2.76896 4.86696 2.60796 4.86696L2.60896 4.86596Z"/><path d="M1.631 9.80994C1.399 9.80994 1.19 9.64694 1.142 9.41094C1.048 8.94994 1 8.47495 1 8.00094C1 7.52694 1.048 7.05194 1.142 6.59094C1.198 6.31994 1.461 6.14594 1.732 6.20094C2.003 6.25694 2.177 6.51994 2.122 6.79194C2.041 7.18694 2 7.59394 2 8.00094C2 8.40794 2.041 8.81494 2.122 9.20994C2.178 9.48094 2.003 9.74494 1.732 9.80094C1.698 9.80794 1.665 9.80994 1.631 9.80994Z"/><path d="M4.08596 13.804C4.17196 13.863 4.26896 13.89 4.36496 13.89C4.52596 13.89 4.68296 13.813 4.77996 13.669C4.93396 13.441 4.87396 13.13 4.64496 12.976C4.32596 12.761 4.02696 12.515 3.75696 12.245C3.48296 11.969 3.23696 11.67 3.02396 11.355C2.86996 11.125 2.55896 11.064 2.32996 11.22C2.10096 11.374 2.04096 11.684 2.19496 11.913C2.44296 12.281 2.73096 12.63 3.04996 12.95C3.36596 13.266 3.71396 13.554 4.08596 13.804Z"/><path d="M8.00003 15C7.52803 15 7.05403 14.952 6.59003 14.858C6.31903 14.803 6.14503 14.539 6.19903 14.268C6.25303 13.997 6.51303 13.82 6.78903 13.877C7.58503 14.039 8.41403 14.039 9.21003 13.877C9.48603 13.822 9.74503 13.997 9.80003 14.268C9.85503 14.539 9.68003 14.803 9.40903 14.858C8.94503 14.952 8.47203 15 8.00003 15Z"/><path d="M11.22 13.669C11.317 13.813 11.474 13.89 11.635 13.89L11.636 13.889C11.732 13.889 11.829 13.862 11.915 13.803C12.286 13.553 12.635 13.265 12.951 12.949C13.269 12.63 13.557 12.281 13.805 11.913C13.959 11.685 13.899 11.374 13.67 11.22C13.441 11.064 13.131 11.126 12.976 11.355C12.763 11.671 12.516 11.97 12.243 12.244C11.973 12.514 11.674 12.76 11.355 12.976C11.126 13.13 11.066 13.44 11.22 13.669Z"/><path d="M14.369 9.81001C14.336 9.81001 14.302 9.80701 14.268 9.80001C13.997 9.74401 13.823 9.48101 13.878 9.20901C13.959 8.81401 14 8.40701 14 8.00001C14 7.59301 13.959 7.18601 13.878 6.79101C13.822 6.52001 13.997 6.25601 14.268 6.20001C14.539 6.14401 14.802 6.31901 14.858 6.59001C14.952 7.05101 15 7.52601 15 8.00001C15 8.47401 14.952 8.94901 14.858 9.41001C14.81 9.64601 14.601 9.80901 14.369 9.80901V9.81001Z"/><path d="M9 8C9 8.55228 8.55228 9 8 9C7.44772 9 7 8.55228 7 8C7 7.44772 7.44772 7 8 7C8.55228 7 9 7.44772 9 8Z"/></svg>