<svg width="16" height="16" viewBox="0 0 16 16" fill="none" xmlns="http://www.w3.org/2000/svg">
<path d="M11.91 14.22H4.06L3.56 13.72V7.06H2.15L1.67 6.68L1 4L1.33 3.4L5.59 2L6.23 2.32C6.24566 2.37163 6.26573 2.42181 6.29 2.47C6.3341 2.5696 6.3842 2.66645 6.44 2.76C6.51145 2.86344 6.59175 2.96047 6.68 3.05C6.84789 3.21902 7.04871 3.35176 7.27 3.44C7.49601 3.53655 7.73923 3.58633 7.985 3.58633C8.23077 3.58633 8.47399 3.53655 8.7 3.44C8.92129 3.35176 9.12211 3.21902 9.29 3.05C9.37916 2.95501 9.46264 2.85483 9.54 2.75L9.69 2.46C9.70952 2.4144 9.72622 2.36765 9.74 2.32L10.38 2L14.64 3.42L15 4L14.34 6.66L13.85 7.04H12.41V13.7L11.91 14.22ZM4.56 13.22H11.41V6.56L11.91 6.06H13.43L13.89 4.23L10.49 3.09C10.4576 3.16409 10.4174 3.23449 10.37 3.3C10.2608 3.46107 10.1369 3.61171 10 3.75C9.74065 4.01231 9.43118 4.21976 9.09 4.36C8.73878 4.50852 8.36133 4.58504 7.98 4.58504C7.59867 4.58504 7.22122 4.50852 6.87 4.36C6.54513 4.21159 6.25025 4.00483 6 3.75C5.86122 3.61976 5.74019 3.47182 5.64 3.31L5.51 3.09L2.08 4.23L2.54 6.06H4.06L4.56 6.56V13.22Z" fill="white"/>
</svg>
