<svg width="16" height="16" viewBox="0 0 16 16" fill="none" xmlns="http://www.w3.org/2000/svg">
<path fill-rule="evenodd" clip-rule="evenodd" d="M7.44443 13.8315C7.60888 13.9414 7.80222 14 8 14C8.26521 14 8.51957 13.8946 8.7071 13.7071C8.89464 13.5196 9 13.2652 9 13C9 12.8022 8.94135 12.6089 8.83147 12.4444C8.72158 12.28 8.56541 12.1518 8.38268 12.0761C8.19995 12.0004 7.99889 11.9806 7.80491 12.0192C7.61093 12.0578 7.43274 12.153 7.29289 12.2929C7.15304 12.4327 7.0578 12.6109 7.01921 12.8049C6.98063 12.9989 7.00043 13.2 7.07612 13.3827C7.1518 13.5654 7.27998 13.7216 7.44443 13.8315ZM8 9C7.80221 9 7.60887 8.94135 7.44443 8.83147C7.27998 8.72159 7.1518 8.56541 7.07612 8.38268C7.00043 8.19996 6.98063 7.99889 7.01921 7.80491C7.0578 7.61093 7.15304 7.43275 7.29289 7.29289C7.43274 7.15304 7.61093 7.0578 7.80491 7.01921C7.99889 6.98063 8.19995 7.00043 8.38268 7.07612C8.56541 7.15181 8.72158 7.27998 8.83147 7.44443C8.94135 7.60888 9 7.80222 9 8C9 8.26522 8.89464 8.51957 8.7071 8.70711C8.51957 8.89464 8.26521 9 8 9ZM8 4C7.80222 4 7.60888 3.94135 7.44443 3.83147C7.27998 3.72159 7.15181 3.56541 7.07612 3.38268C7.00043 3.19996 6.98063 2.99889 7.01922 2.80491C7.0578 2.61093 7.15304 2.43274 7.29289 2.29289C7.43275 2.15304 7.61093 2.0578 7.80491 2.01921C7.99889 1.98063 8.19996 2.00043 8.38268 2.07612C8.56541 2.15181 8.72159 2.27998 8.83147 2.44443C8.94135 2.60888 9 2.80222 9 3C9 3.26522 8.89464 3.51957 8.70711 3.70711C8.51957 3.89464 8.26522 4 8 4Z" fill="white"/>
</svg>
