<svg width="18" height="18" viewBox="0 0 18 18" xmlns="http://www.w3.org/2000/svg" fill="currentColor"><path d="M13 6C13 6.552 12.552 7 12 7C11.448 7 11 6.552 11 6C11 5.448 11.448 5 12 5C12.552 5 13 5.448 13 6ZM16 6.5C16 8.981 13.981 11 11.5 11H10.186L9.389 11.775C9.349 11.814 9.302 11.846 9.251 11.87L9.072 11.953C9.006 11.983 8.934 11.999 8.861 11.999H8V13.292C8 13.425 7.947 13.552 7.854 13.646L7.647 13.853C7.553 13.947 7.426 13.999 7.293 13.999H6V15.292C6 15.424 5.947 15.551 5.854 15.645L5.648 15.852C5.554 15.946 5.426 15.999 5.294 15.999H3C2.448 15.997 2 15.548 2 14.998V13.405C2 13.142 2.106 12.884 2.293 12.698L7.19 7.801C7.064 7.381 7 6.945 7 6.5C7 4.019 9.019 2 11.5 2C13.981 2 16 4.019 16 6.5ZM15 6.5C15 4.57 13.43 3 11.5 3C9.57 3 8 4.57 8 6.5C8 6.933 8.078 7.355 8.231 7.755C8.301 7.94 8.257 8.148 8.118 8.288L3 13.406V14.999H5V13.5C5 13.224 5.224 13 5.5 13H7V11.5C7 11.224 7.224 11 7.5 11H8.752L9.634 10.142C9.728 10.051 9.853 10 9.983 10H11.501C13.431 10 15.001 8.43 15.001 6.5H15Z"/></svg>