<svg width="16" height="16" viewBox="0 0 16 16" fill="none" xmlns="http://www.w3.org/2000/svg">
<path fill-rule="evenodd" clip-rule="evenodd" d="M11.351 1.09104C12.2239 1.26878 13.025 1.70005 13.654 2.33088C14.1858 2.86724 14.5765 3.52697 14.7911 4.25113C15.0057 4.9753 15.0376 5.74136 14.884 6.48088C14.6614 7.49472 14.1012 8.40297 13.2952 9.05696C12.4891 9.71096 11.485 10.072 10.447 10.0809C10.0091 10.0816 9.5734 10.0179 9.154 9.89188L8.354 10.8289L7.975 11.0039H7V12.5039L6.5 13.0039H5V14.5039L4.5 15.0039H1.5L1 14.5039V12.1969L1.146 11.8439L6.12 6.87088C5.97884 6.4162 5.91132 5.94188 5.92 5.46588C5.93222 4.57514 6.20692 3.70779 6.70969 2.97241C7.21247 2.23704 7.92099 1.6663 8.74657 1.33165C9.57215 0.997 10.4781 0.913306 11.351 1.09104ZM12.6693 8.29061C13.2973 7.78194 13.7341 7.07512 13.908 6.28588L13.912 6.29088C14.0355 5.71382 14.0129 5.11505 13.8463 4.54894C13.6796 3.98283 13.3742 3.46731 12.9578 3.04919C12.5414 2.63106 12.0271 2.32358 11.4617 2.15465C10.8962 1.98572 10.2976 1.96071 9.72 2.08188C8.94078 2.25482 8.24183 2.68349 7.73442 3.29963C7.22701 3.91577 6.94032 4.68396 6.92 5.48188C6.90919 5.93679 6.99049 6.38919 7.159 6.81188L7.049 7.35388L2 12.4039V14.0039H4V12.5039L4.5 12.0039H6V10.5039L6.5 10.0039H7.745L8.621 8.98788L9.182 8.84788C9.58639 9.0059 10.0168 9.08663 10.451 9.08588C11.2592 9.07967 12.0413 8.79928 12.6693 8.29061ZM11.8315 5.55948C11.9414 5.39503 12 5.20169 12 5.00391C12 4.73869 11.8946 4.48434 11.7071 4.2968C11.5196 4.10926 11.2652 4.00391 11 4.00391C10.8022 4.00391 10.6089 4.06256 10.4444 4.17244C10.28 4.28232 10.1518 4.4385 10.0761 4.62122C10.0004 4.80395 9.98063 5.00502 10.0192 5.199C10.0578 5.39298 10.153 5.57116 10.2929 5.71101C10.4327 5.85087 10.6109 5.94611 10.8049 5.98469C10.9989 6.02328 11.2 6.00347 11.3827 5.92779C11.5654 5.8521 11.7216 5.72393 11.8315 5.55948Z" fill="#C5C5C5"/>
</svg>
