<svg width="16" height="16" viewBox="0 0 16 16" xmlns="http://www.w3.org/2000/svg" fill="currentColor"><path d="M1.501 2C1.777 2 2.001 2.224 2.001 2.5V5.5C2.001 6.327 2.674 7 3.501 7H11.294L8.648 4.354C8.453 4.159 8.453 3.842 8.648 3.647C8.843 3.452 9.16 3.452 9.355 3.647L12.855 7.147C13.05 7.342 13.05 7.659 12.855 7.854L9.355 11.354C9.257 11.452 9.129 11.5 9.001 11.5C8.873 11.5 8.745 11.451 8.647 11.354C8.452 11.159 8.452 10.842 8.647 10.647L11.293 8.001H3.5C2.121 8.001 1 6.88 1 5.501V2.501C1 2.225 1.224 2.001 1.5 2.001L1.501 2Z"/><path d="M14 3.00093V12.0009L14.008 12.0909C14.0303 12.2139 14.0977 12.324 14.1972 12.3997C14.2966 12.4754 14.4207 12.5111 14.5452 12.4998C14.6696 12.4885 14.7853 12.431 14.8695 12.3387C14.9537 12.2464 15.0002 12.1259 15 12.0009V3.00093L14.992 2.91093C14.9697 2.78798 14.9023 2.67782 14.8028 2.60215C14.7034 2.52647 14.5793 2.49076 14.4548 2.50205C14.3304 2.51334 14.2147 2.57081 14.1305 2.66314C14.0463 2.75548 13.9998 2.87598 14 3.00093Z"/></svg>