<svg width="18" height="18" viewBox="0 0 18 18" xmlns="http://www.w3.org/2000/svg" fill="currentColor"><path d="M2.501 3C2.777 3 3.001 3.224 3.001 3.5V6.5C3.001 7.327 3.674 8 4.501 8H12.294L9.648 5.354C9.453 5.159 9.453 4.842 9.648 4.647C9.843 4.452 10.16 4.452 10.355 4.647L13.855 8.147C14.05 8.342 14.05 8.659 13.855 8.854L10.355 12.354C10.257 12.452 10.129 12.5 10.001 12.5C9.873 12.5 9.745 12.451 9.647 12.354C9.452 12.159 9.452 11.842 9.647 11.647L12.293 9.001H4.5C3.121 9.001 2 7.88 2 6.501V3.501C2 3.225 2.224 3.001 2.5 3.001L2.501 3Z"/><path d="M15 4.00093V13.0009L15.008 13.0909C15.0303 13.2139 15.0977 13.324 15.1972 13.3997C15.2966 13.4754 15.4207 13.5111 15.5452 13.4998C15.6696 13.4885 15.7853 13.431 15.8695 13.3387C15.9537 13.2464 16.0002 13.1259 16 13.0009V4.00093L15.992 3.91093C15.9697 3.78798 15.9023 3.67782 15.8028 3.60215C15.7034 3.52647 15.5793 3.49076 15.4548 3.50205C15.3304 3.51334 15.2147 3.57081 15.1305 3.66314C15.0463 3.75548 14.9998 3.87598 15 4.00093Z"/></svg>