<svg width="18" height="18" viewBox="0 0 18 18" xmlns="http://www.w3.org/2000/svg" fill="currentColor"><path d="M2.501 14C2.777 14 3.001 13.776 3.001 13.5V10.5C3.001 9.673 3.674 9 4.501 9H12.294L9.648 11.646C9.453 11.841 9.453 12.158 9.648 12.353C9.843 12.548 10.16 12.548 10.355 12.353L13.855 8.853C14.05 8.658 14.05 8.341 13.855 8.146L10.355 4.646C10.257 4.548 10.129 4.5 10.001 4.5C9.873 4.5 9.745 4.549 9.647 4.646C9.452 4.841 9.452 5.158 9.647 5.353L12.293 7.999H4.5C3.121 7.999 2 9.12 2 10.499V13.499C2 13.775 2.224 13.999 2.5 13.999L2.501 14Z"/><path d="M15 4.00093V13.0009L15.008 13.0909C15.0303 13.2139 15.0977 13.324 15.1972 13.3997C15.2966 13.4754 15.4207 13.5111 15.5452 13.4998C15.6696 13.4885 15.7853 13.431 15.8695 13.3387C15.9537 13.2464 16.0002 13.1259 16 13.0009V4.00093L15.992 3.91093C15.9697 3.78798 15.9023 3.67782 15.8028 3.60215C15.7034 3.52647 15.5793 3.49076 15.4548 3.50205C15.3304 3.51334 15.2147 3.57081 15.1305 3.66314C15.0463 3.75548 14.9998 3.87598 15 4.00093Z"/></svg>