<svg width="18" height="18" viewBox="0 0 18 18" xmlns="http://www.w3.org/2000/svg" fill="currentColor"><path d="M14 13.5V4.50001C13.9998 4.37506 14.0463 4.25456 14.1305 4.16222C14.2147 4.06989 14.3304 4.01242 14.4548 4.00113C14.5793 3.98984 14.7034 4.02555 14.8028 4.10123C14.9023 4.1769 14.9697 4.28706 14.992 4.41001L15 4.50001V13.5C15.0002 13.625 14.9537 13.7455 14.8695 13.8378C14.7853 13.9301 14.6696 13.9876 14.5452 13.9989C14.4207 14.0102 14.2966 13.9745 14.1972 13.8988C14.0977 13.8231 14.0303 13.713 14.008 13.59L14 13.5ZM2.008 9.09001L2 9.00001C1.99996 8.88298 2.04097 8.76965 2.11589 8.67975C2.19081 8.58985 2.29489 8.52907 2.41 8.50801L2.5 8.50001H11.292L8.611 5.81801C8.52817 5.73527 8.477 5.6261 8.4664 5.50952C8.4558 5.39293 8.48645 5.27632 8.553 5.18001L8.611 5.11101C8.69373 5.02818 8.8029 4.97701 8.91949 4.96641C9.03608 4.95581 9.15269 4.98645 9.249 5.05301L9.318 5.11101L12.854 8.64601C12.9367 8.72886 12.9877 8.8381 12.9981 8.95468C13.0085 9.07126 12.9777 9.18781 12.911 9.28401L12.854 9.35401L9.318 12.889C9.22981 12.9776 9.11164 13.0299 8.98678 13.0357C8.86191 13.0415 8.73941 13.0003 8.64342 12.9202C8.54742 12.8402 8.4849 12.7271 8.46816 12.6032C8.45142 12.4793 8.48169 12.3537 8.553 12.251L8.611 12.182L11.292 9.50001H2.5C2.38297 9.50005 2.26964 9.45903 2.17974 9.38412C2.08984 9.3092 2.02906 9.20512 2.008 9.09001Z"/></svg>