<svg width="16" height="16" viewBox="0 0 16 16" xmlns="http://www.w3.org/2000/svg" fill="currentColor"><path d="M10.039 7.30702L10.036 7.31402C10.036 7.31402 10.033 7.32202 10.032 7.32602C10.028 7.33602 10.024 7.34702 10.021 7.35702C10.02 7.36102 10.019 7.36502 10.018 7.36902C10.015 7.38002 10.012 7.39202 10.01 7.40402C10.009 7.40902 10.008 7.41502 10.007 7.42102C10.005 7.43102 10.004 7.44102 10.003 7.45102C10.001 7.46702 10.001 7.48302 10.001 7.50002C10.001 8.87802 11.123 10 12.501 10C13.879 10 15.001 8.87802 15.001 7.50002C15.001 7.48402 15.001 7.46702 14.999 7.45102C14.998 7.44102 14.996 7.43102 14.995 7.42102C14.995 7.41502 14.994 7.41002 14.992 7.40402C14.99 7.39202 14.987 7.38102 14.984 7.36902C14.983 7.36502 14.982 7.36102 14.981 7.35702C14.978 7.34602 14.974 7.33602 14.97 7.32602C14.969 7.32202 14.967 7.31802 14.966 7.31402L14.963 7.30702C14.963 7.30702 14.963 7.30502 14.963 7.30402L13.241 2.99902H14.002C14.278 2.99902 14.502 2.77502 14.502 2.49902C14.502 2.22302 14.278 1.99902 14.002 1.99902H2.99998C2.72398 1.99902 2.49998 2.22302 2.49998 2.49902C2.49998 2.77502 2.72398 2.99902 2.99998 2.99902H3.76098L2.03898 7.30402C2.03898 7.30402 2.03898 7.30602 2.03898 7.30702L2.03598 7.31402C2.03598 7.31402 2.03298 7.32202 2.03198 7.32602C2.02798 7.33602 2.02398 7.34702 2.02098 7.35702C2.01998 7.36102 2.01898 7.36502 2.01798 7.36902C2.01498 7.38002 2.01198 7.39202 2.00998 7.40402C2.00898 7.40902 2.00798 7.41502 2.00698 7.42102C2.00498 7.43102 2.00398 7.44102 2.00298 7.45102C2.00098 7.46702 2.00098 7.48302 2.00098 7.50002C2.00098 8.87802 3.12298 10 4.50098 10C5.87898 10 7.00098 8.87802 7.00098 7.50002C7.00098 7.48402 7.00098 7.46702 6.99898 7.45102C6.99798 7.44102 6.99598 7.43102 6.99498 7.42102C6.99498 7.41502 6.99398 7.41002 6.99198 7.40402C6.98998 7.39202 6.98698 7.38102 6.98398 7.36902C6.98298 7.36502 6.98198 7.36102 6.98098 7.35702C6.97798 7.34602 6.97398 7.33602 6.96998 7.32602C6.96898 7.32202 6.96698 7.31802 6.96598 7.31402L6.96298 7.30702C6.96298 7.30702 6.96298 7.30502 6.96298 7.30402L5.24098 2.99902H8.00198V10.999H5.50198C4.67498 10.999 4.00198 11.672 4.00198 12.499C4.00198 13.326 4.67498 13.999 5.50198 13.999H11.502C12.329 13.999 13.002 13.326 13.002 12.499C13.002 11.672 12.329 10.999 11.502 10.999H9.00198V3.00002H11.763L10.041 7.30502C10.041 7.30502 10.041 7.30702 10.041 7.30802L10.039 7.30702ZM4.49998 3.84602L5.76198 7.00002H3.23898L4.49998 3.84602ZM4.49998 9.00002C3.84798 9.00002 3.29198 8.58202 3.08598 8.00002H5.91398C5.70698 8.58202 5.15198 9.00002 4.49998 9.00002ZM12 12.5C12 12.775 11.776 13 11.5 13H5.49998C5.22398 13 4.99998 12.775 4.99998 12.5C4.99998 12.225 5.22398 12 5.49998 12H11.5C11.776 12 12 12.225 12 12.5ZM12.5 9.00002C11.848 9.00002 11.292 8.58202 11.086 8.00002H13.914C13.707 8.58202 13.152 9.00002 12.5 9.00002ZM11.238 7.00002L12.5 3.84602L13.762 7.00002H11.239H11.238Z"/></svg>