<svg width="16" height="16" viewBox="0 0 16 16" xmlns="http://www.w3.org/2000/svg" fill="currentColor"><path d="M8 8.99993C7.819 8.99993 7.643 8.95093 7.486 8.85793L2.486 5.85693C2.186 5.67793 2 5.34893 2 4.99993C2 4.65093 2.187 4.32093 2.486 4.14193L7.486 1.14293C7.789 0.95693 8.207 0.95493 8.517 1.14493L13.513 4.14293C13.813 4.32293 13.999 4.65093 13.999 4.99993C13.999 5.34893 13.812 5.67893 13.513 5.85793L8.513 8.85693C8.357 8.95093 8.181 8.99993 8 8.99993ZM8 1.99993L3 4.99993L8 7.99993L13 4.99993L8 1.99993Z"/><path d="M2.146 6.9873L8 10.5003L13.854 6.9873C13.946 7.1413 14 7.3173 14 7.5003C14 7.8493 13.814 8.1783 13.514 8.3583L8.514 11.3573C8.357 11.4513 8.181 11.5003 8 11.5003C7.819 11.5003 7.642 11.4513 7.486 11.3583L2.486 8.35731C2.187 8.17931 2 7.8503 2 7.5003C2 7.3163 2.054 7.1403 2.146 6.9873Z"/><path d="M2.146 9.4873L8 13.0003L13.854 9.4873C13.946 9.6413 14 9.8173 14 10.0003C14 10.3493 13.814 10.6783 13.514 10.8583L8.514 13.8573C8.357 13.9513 8.181 14.0003 8 14.0003C7.819 14.0003 7.642 13.9513 7.486 13.8583L2.486 10.8573C2.187 10.6793 2 10.3503 2 10.0003C2 9.8163 2.054 9.6403 2.146 9.4873Z"/></svg>