<svg width="18" height="18" viewBox="0 0 18 18" xmlns="http://www.w3.org/2000/svg" fill="currentColor"><path fill-rule="evenodd" clip-rule="evenodd" d="M14 3H11C10.448 3 10 3.448 10 4V7C10 7.552 10.448 8 11 8H14C14.552 8 15 7.552 15 7V4C15 3.448 14.552 3 14 3ZM14 7H11V4H14V7ZM14 10H11C10.448 10 10 10.448 10 11V14C10 14.552 10.448 15 11 15H14C14.552 15 15 14.552 15 14V11C15 10.448 14.552 10 14 10ZM14 14H11V11H14V14ZM7 3H3C2.448 3 2 3.448 2 4V14C2 14.552 2.448 15 3 15H7C7.552 15 8 14.552 8 14V4C8 3.448 7.552 3 7 3ZM7 14H3V4H7V14Z"/></svg>