<svg width="18" height="18" viewBox="0 0 18 18" xmlns="http://www.w3.org/2000/svg" fill="currentColor"><path d="M9.00098 4C9.27697 4.00001 9.50098 4.22401 9.50098 4.5V8.29297L10.1465 7.64746C10.3415 7.45246 10.6585 7.45246 10.8535 7.64746C10.9515 7.74545 11 7.87299 11 8.00098C11 8.12898 10.9505 8.25747 10.8535 8.35547L9.35352 9.85547C9.15848 10.05 8.84133 10.0503 8.64648 9.85547L8.64844 9.85352L7.14844 8.35352C6.95344 8.15852 6.95344 7.84246 7.14844 7.64746C7.34344 7.45247 7.65949 7.45247 7.85449 7.64746L8.50098 8.29297V4.5C8.50098 4.224 8.72498 4 9.00098 4Z"/><path fill-rule="evenodd" clip-rule="evenodd" d="M13.5 2C14.881 2 16 3.119 16 4.5V13.5C16 14.881 14.881 16 13.5 16H4.5C3.119 16 2 14.881 2 13.5L2 4.5C2 3.119 3.119 2 4.5 2L13.5 2ZM4.5 3C3.672 3 3 3.672 3 4.5V11H15V4.5C15 3.672 14.328 3 13.5 3H4.5Z"/></svg>