<svg width="18" height="18" viewBox="0 0 18 18" xmlns="http://www.w3.org/2000/svg" fill="currentColor"><path d="M10.6465 7.14844C10.8415 6.95344 11.1585 6.95344 11.3535 7.14844C11.5479 7.34332 11.5479 7.65961 11.3535 7.85449L10.707 8.50098H12.5C12.776 8.50098 13 8.72498 13 9.00098C13 9.27697 12.776 9.50098 12.5 9.50098H10.707L11.3535 10.1465C11.5484 10.3413 11.548 10.6585 11.3535 10.8535C11.2555 10.9515 11.127 11 10.999 11C10.871 11 10.7435 10.9505 10.6455 10.8535L9.14551 9.35352C8.95051 9.15852 8.95051 8.84148 9.14551 8.64648L9.14648 8.64844L10.6465 7.14844Z"/><path fill-rule="evenodd" clip-rule="evenodd" d="M12.5 3C13.881 3 15 4.119 15 5.5V12.5C15 13.881 13.881 15 12.5 15H5.5C4.119 15 3 13.881 3 12.5V5.5C3 4.119 4.119 3 5.5 3H12.5ZM8 14H12.5C13.328 14 14 13.328 14 12.5V5.5C14 4.672 13.328 4 12.5 4H8V14Z"/></svg>