<svg width="18" height="18" viewBox="0 0 18 18" xmlns="http://www.w3.org/2000/svg" fill="currentColor"><path d="M5.5 4C5.776 4 6 4.224 6 4.5C6 4.776 5.776 5 5.5 5H4.5C4.224 5 4 4.776 4 4.5C4 4.224 4.224 4 4.5 4H5.5Z"/><path d="M8.5 4C8.776 4 9 4.224 9 4.5C9 4.776 8.776 5 8.5 5H7.5C7.224 5 7 4.776 7 4.5C7 4.224 7.224 4 7.5 4H8.5Z"/><path d="M11.5 4C11.776 4 12 4.224 12 4.5C12 4.776 11.776 5 11.5 5H10.5C10.224 5 10 4.776 10 4.5C10 4.224 10.224 4 10.5 4H11.5Z"/><path fill-rule="evenodd" clip-rule="evenodd" d="M13.5 2C14.881 2 16 3.119 16 4.5V13.5C16 14.881 14.881 16 13.5 16H4.5C3.119 16 2 14.881 2 13.5V4.5C2 3.119 3.119 2 4.5 2H13.5ZM4.5 3C3.672 3 3 3.672 3 4.5V13.5C3 14.328 3.672 15 4.5 15H13.5C14.328 15 15 14.328 15 13.5V4.5C15 3.672 14.328 3 13.5 3H4.5Z"/></svg>