<svg width="16" height="16" viewBox="0 0 16 16" xmlns="http://www.w3.org/2000/svg" fill="currentColor"><path fill-rule="evenodd" clip-rule="evenodd" d="M5.5 1C6.327 1 7 1.673 7 2.5V13.5C7 14.327 6.327 15 5.5 15H2.5C1.673 15 1 14.327 1 13.5V2.5C1 1.673 1.673 1 2.5 1H5.5ZM2.5 2C2.225 2 2 2.225 2 2.5V13.5C2 13.775 2.225 14 2.5 14H5.5C5.775 14 6 13.775 6 13.5V2.5C6 2.225 5.775 2 5.5 2H2.5Z"/><path fill-rule="evenodd" clip-rule="evenodd" d="M13.5 9C14.327 9 15 9.673 15 10.5V13.5C15 14.327 14.327 15 13.5 15H10.5C9.673 15 9 14.327 9 13.5V10.5C9 9.673 9.673 9 10.5 9H13.5ZM10.5 10C10.225 10 10 10.225 10 10.5V13.5C10 13.775 10.225 14 10.5 14H13.5C13.775 14 14 13.775 14 13.5V10.5C14 10.225 13.775 10 13.5 10H10.5Z"/><path fill-rule="evenodd" clip-rule="evenodd" d="M13.5 1C14.327 1 15 1.673 15 2.5V5.5C15 6.327 14.327 7 13.5 7H10.5C9.673 7 9 6.327 9 5.5V2.5C9 1.673 9.673 1 10.5 1H13.5ZM10.5 2C10.225 2 10 2.225 10 2.5V5.5C10 5.775 10.225 6 10.5 6H13.5C13.775 6 14 5.775 14 5.5V2.5C14 2.225 13.775 2 13.5 2H10.5Z"/></svg>