<svg width="18" height="18" viewBox="0 0 18 18" xmlns="http://www.w3.org/2000/svg" fill="currentColor"><path d="M7.64746 7.14844C7.84246 6.95344 8.15852 6.95344 8.35352 7.14844L9.85352 8.64844L9.85547 8.64648C10.0503 8.84133 10.05 9.15848 9.85547 9.35352L8.35547 10.8535C8.25747 10.9505 8.12898 11 8.00098 11C7.87299 11 7.74546 10.9515 7.64746 10.8535C7.45246 10.6585 7.45246 10.3415 7.64746 10.1465L8.29297 9.50098H4.5C4.22401 9.50098 4.00001 9.27697 4 9.00098C4 8.72498 4.224 8.50098 4.5 8.50098H8.29297L7.64746 7.85449C7.45247 7.65949 7.45247 7.34344 7.64746 7.14844Z"/><path fill-rule="evenodd" clip-rule="evenodd" d="M13.5 2C14.881 2 16 3.119 16 4.5L16 13.5C16 14.881 14.881 16 13.5 16H4.5C3.119 16 2 14.881 2 13.5L2 4.5C2 3.119 3.119 2 4.5 2L13.5 2ZM4.5 3C3.672 3 3 3.672 3 4.5L3 13.5C3 14.328 3.672 15 4.5 15H11L11 3H4.5Z"/></svg>