<svg width="18" height="18" viewBox="0 0 18 18" xmlns="http://www.w3.org/2000/svg" fill="currentColor"><path d="M6.64746 7.14844C6.84246 6.95344 7.15852 6.95344 7.35352 7.14844L8.85352 8.64844L8.85547 8.64648C9.05032 8.84133 9.05001 9.15848 8.85547 9.35352L7.35547 10.8535C7.25747 10.9505 7.12898 11 7.00098 11C6.87299 11 6.74545 10.9515 6.64746 10.8535C6.45246 10.6585 6.45246 10.3415 6.64746 10.1465L7.29297 9.50098H5.5C5.22401 9.50098 5.00001 9.27697 5 9.00098C5 8.72498 5.224 8.50098 5.5 8.50098H7.29297L6.64746 7.85449C6.45247 7.65949 6.45247 7.34344 6.64746 7.14844Z"/><path fill-rule="evenodd" clip-rule="evenodd" d="M12.5 3C13.881 3 15 4.119 15 5.5V12.5C15 13.881 13.881 15 12.5 15H5.5C4.119 15 3 13.881 3 12.5V5.5C3 4.119 4.119 3 5.5 3H12.5ZM5.5 4C4.672 4 4 4.672 4 5.5V12.5C4 13.328 4.672 14 5.5 14H10V4H5.5Z"/></svg>