<svg width="18" height="18" viewBox="0 0 18 18" xmlns="http://www.w3.org/2000/svg" fill="currentColor"><path d="M9.00098 5C9.27697 5.00001 9.50098 5.22401 9.50098 5.5V7.29297L10.1465 6.64746C10.3415 6.45246 10.6585 6.45246 10.8535 6.64746C10.9515 6.74545 11 6.87299 11 7.00098C11 7.12898 10.9505 7.25747 10.8535 7.35547L9.35352 8.85547C9.15848 9.05001 8.84133 9.05032 8.64648 8.85547L8.64844 8.85352L7.14844 7.35352C6.95344 7.15852 6.95344 6.84246 7.14844 6.64746C7.34344 6.45247 7.65949 6.45247 7.85449 6.64746L8.50098 7.29297V5.5C8.50098 5.224 8.72498 5 9.00098 5Z"/><path fill-rule="evenodd" clip-rule="evenodd" d="M12.5 3C13.881 3 15 4.119 15 5.5V12.5C15 13.881 13.881 15 12.5 15H5.5C4.119 15 3 13.881 3 12.5V5.5C3 4.119 4.119 3 5.5 3H12.5ZM5.5 4C4.672 4 4 4.672 4 5.5V10H14V5.5C14 4.672 13.328 4 12.5 4H5.5Z"/></svg>