<svg width="18" height="18" viewBox="0 0 18 18" xmlns="http://www.w3.org/2000/svg" fill="currentColor"><path d="M10.3525 7.14844C10.1575 6.95344 9.84148 6.95344 9.64648 7.14844L8.14648 8.64844L8.14453 8.64648C7.94968 8.84133 7.94999 9.15848 8.14453 9.35352L9.64453 10.8535C9.74253 10.9505 9.87102 11 9.99902 11C10.127 11 10.2545 10.9515 10.3525 10.8535C10.5475 10.6585 10.5475 10.3415 10.3525 10.1465L9.70703 9.50098H13.5C13.776 9.50098 14 9.27697 14 9.00098C14 8.72498 13.776 8.50098 13.5 8.50098H9.70703L10.3525 7.85449C10.5475 7.65949 10.5475 7.34344 10.3525 7.14844Z"/><path fill-rule="evenodd" clip-rule="evenodd" d="M4.5 2C3.119 2 2 3.119 2 4.5L2 13.5C2 14.881 3.119 16 4.5 16H13.5C14.881 16 16 14.881 16 13.5L16 4.5C16 3.119 14.881 2 13.5 2L4.5 2ZM13.5 3C14.328 3 15 3.672 15 4.5L15 13.5C15 14.328 14.328 15 13.5 15H7L7 3H13.5Z"/></svg>