<svg width="16" height="16" viewBox="0 0 16 16" xmlns="http://www.w3.org/2000/svg" fill="currentColor"><path fill-rule="evenodd" clip-rule="evenodd" d="M8.96712 9.60787C9.14342 9.26307 9.37775 8.94649 9.67076 8.65806C9.85736 8.47395 10.0257 8.28064 10.1757 8.07816C10.2158 7.96017 10.2532 7.8333 10.2873 7.69683C10.3615 7.40021 10.5382 7.15079 10.7739 6.98253C10.945 6.51978 11.0303 6.0252 11.0303 5.49953C11.0303 5.08664 10.9769 4.68802 10.8698 4.30397C10.763 3.92088 10.6112 3.56285 10.4143 3.23016C10.2177 2.89376 9.98251 2.5891 9.70882 2.31641C9.43513 2.0437 9.12939 1.80938 8.79183 1.61351C8.45803 1.41739 8.09883 1.2662 7.71451 1.15983C7.32923 1.0532 6.92934 1 6.51514 1C6.10094 1 5.70106 1.0532 5.31578 1.15983C4.93146 1.2662 4.56979 1.41764 4.23195 1.61364C3.89858 1.80953 3.59503 2.04383 3.32146 2.31641C3.04777 2.58911 2.81257 2.89377 2.61595 3.23018C2.41907 3.56286 2.26728 3.92089 2.16048 4.30397C2.05342 4.68802 2 5.08664 2 5.49953C2 6.11672 2.11756 6.69107 2.35361 7.22134C2.58896 7.75003 2.92468 8.22903 3.35953 8.65806C3.69832 8.99156 3.95683 9.36336 4.13553 9.77209C4.31772 10.1795 4.40927 10.622 4.40927 11.1009V12.7012C4.40927 12.8807 4.44311 13.0503 4.51141 13.2091C4.57895 13.3661 4.67168 13.5038 4.78961 13.6213C4.90753 13.7388 5.04564 13.8311 5.20306 13.8984C5.36223 13.9663 5.53223 14 5.71205 14H7.31823C7.49806 14 7.66806 13.9663 7.82723 13.8984C7.98464 13.8311 8.12275 13.7388 8.24068 13.6213C8.35861 13.5038 8.45134 13.3661 8.51887 13.2091C8.58718 13.0503 8.62102 12.8807 8.62102 12.7012V12.2734C8.61586 12.2723 8.61079 12.2712 8.60581 12.2701C8.54613 12.2576 8.50299 12.2525 8.48241 12.2506L8.47329 12.2498C8.1415 12.2429 7.8415 12.1066 7.62162 11.8894V12.7012C7.62162 12.7823 7.59309 12.8512 7.5314 12.9127C7.46971 12.9741 7.40022 13.0028 7.31823 13.0028H5.71205C5.63007 13.0028 5.56058 12.9741 5.49888 12.9127C5.4372 12.8512 5.40867 12.7823 5.40867 12.7012V10.5H7.35405C7.54359 10.0663 7.97213 9.76091 8.4732 9.75037L8.48232 9.7496C8.50289 9.74769 8.54604 9.74259 8.60572 9.73002C8.69843 9.7105 8.82494 9.67428 8.96712 9.60787Z"/><path d="M11.5 14C12.25 11.0001 14.5 11.0001 14.5 11.0001C14.5 11.0001 12.25 11 11.5 8C10.75 11 8.5 11.0001 8.5 11.0001C8.5 11.0001 10.75 11 11.5 14Z" stroke="#FFCC00" stroke-width="0.75" stroke-linejoin="round"/><path d="M12.926 13.2393C13.2849 12.977 13.5538 12.6663 13.7328 12.4216C13.8545 12.2553 14.1455 12.2553 14.2672 12.4216C14.4462 12.6663 14.7151 12.977 15.074 13.2393C15.2403 13.3609 15.2403 13.6393 15.074 13.7609C14.7151 14.0231 14.4462 14.3337 14.2672 14.5784C14.1455 14.7447 13.8545 14.7447 13.7328 14.5784C13.5538 14.3337 13.2849 14.0231 12.926 13.7609C12.7597 13.6393 12.7597 13.3609 12.926 13.2393Z"/></svg>