<svg width="18" height="18" viewBox="0 0 18 18" xmlns="http://www.w3.org/2000/svg" fill="currentColor"><path d="M5.5 7.5C5.5 5.567 7.067 4 9 4C10.933 4 12.5 5.567 12.5 7.5C12.5 8.47709 12.1003 9.35991 11.4542 9.99541C11.2612 10.1852 11.0912 10.4319 11.0095 10.7314L10.6636 12H7.33644L6.99046 10.7314C6.90878 10.4319 6.73883 10.1852 6.54584 9.99541C5.89973 9.35991 5.5 8.47709 5.5 7.5ZM7.60917 13H10.3908L10.2186 13.6316C10.1593 13.8491 9.96168 14 9.7362 14H8.2638C8.03832 14 7.84074 13.8491 7.78141 13.6316L7.60917 13ZM9 3C6.51472 3 4.5 5.01472 4.5 7.5C4.5 8.75601 5.01523 9.89258 5.8446 10.7083C5.94136 10.8035 6.00044 10.9019 6.02569 10.9945L6.81665 13.8947C6.99463 14.5473 7.58737 15 8.2638 15H9.7362C10.4126 15 11.0054 14.5473 11.1834 13.8947L11.9743 10.9945C11.9996 10.9019 12.0586 10.8035 12.1554 10.7083C12.9848 9.89258 13.5 8.75601 13.5 7.5C13.5 5.01472 11.4853 3 9 3Z"/></svg>