<svg width="16" height="16" viewBox="0 0 16 16" xmlns="http://www.w3.org/2000/svg" fill="currentColor"><path d="M12.5 6.38698C12.484 7.04198 12.333 7.68598 12.055 8.27898C11.778 8.87198 11.38 9.40098 10.887 9.83198L10.581 11H9.543L9.992 9.29198L10.1 9.19198C10.52 8.85098 10.862 8.42498 11.104 7.94098C11.345 7.45698 11.48 6.92698 11.5 6.38698C11.5 5.94098 11.41 5.49998 11.236 5.08998C11.062 4.67998 10.807 4.30898 10.486 3.99998C9.82 3.35398 8.927 2.99598 8 2.99998C7.544 2.99598 7.091 3.08398 6.669 3.25798C6.247 3.43198 5.864 3.68798 5.543 4.01298C4.887 4.69898 4.514 5.60698 4.5 6.55598C4.633 7.67698 5.185 8.70598 6.045 9.43598L6.145 9.53598L6.494 11H5.466L5.237 10.037C4.245 9.14398 3.625 7.91098 3.5 6.58198V6.54398C3.518 5.33598 3.995 4.17998 4.833 3.30998C5.247 2.89198 5.74 2.55998 6.284 2.33498C6.828 2.10998 7.411 1.99598 8 1.99998C9.188 1.99698 10.33 2.45798 11.182 3.28498C11.598 3.68698 11.93 4.16898 12.156 4.70198C12.383 5.23498 12.5 5.80798 12.5 6.38698Z"/><path fill-rule="evenodd" clip-rule="evenodd" d="M9.984 6.23998C10.045 6.72298 9.928 7.21198 9.655 7.61498C9.382 8.01798 8.971 8.30698 8.5 8.42898V11H7.5V8.42898C7.029 8.30698 6.618 8.01798 6.345 7.61498C6.072 7.21198 5.955 6.72298 6.016 6.23998C6.077 5.75698 6.313 5.31298 6.678 4.99098C7.043 4.66998 7.513 4.49198 8 4.49198C8.487 4.49198 8.957 4.66898 9.322 4.99098C9.687 5.31298 9.923 5.75698 9.984 6.23998ZM7.076 6.88198C7.151 7.06498 7.28 7.22098 7.444 7.33098L7.445 7.32998C7.61 7.43998 7.803 7.49898 8.001 7.49898C8.266 7.49898 8.52 7.39398 8.708 7.20598C8.896 7.01898 9.001 6.76398 9.001 6.49898C9.001 6.30098 8.942 6.10698 8.832 5.94298C8.722 5.77898 8.566 5.65098 8.383 5.57498C8.2 5.49898 7.999 5.47898 7.805 5.51798C7.611 5.55698 7.433 5.65198 7.293 5.79198C7.153 5.93198 7.057 6.10998 7.019 6.30398C6.981 6.49798 7 6.69898 7.076 6.88198Z"/><path fill-rule="evenodd" clip-rule="evenodd" d="M8.5 11H9.543H10.581L10.0871 12.882C10.0141 13.185 9.84506 13.456 9.60606 13.655C9.36806 13.854 9.07506 13.974 8.76606 14H7.36206C7.04506 14 6.73606 13.901 6.47906 13.717C6.23006 13.54 6.04306 13.289 5.94506 13L5.93706 12.978L5.466 11H6.494H7.5H8.5ZM9.11806 12.641V12.628L9.28206 12H6.73306L6.90006 12.7C6.93306 12.781 6.98906 12.85 7.06106 12.9C7.14806 12.964 7.25306 12.999 7.36106 13H8.70006C8.79906 12.988 8.89306 12.947 8.96807 12.881C9.04307 12.82 9.09606 12.735 9.11806 12.641Z"/></svg>