<svg width="18" height="18" viewBox="0 0 18 18" xmlns="http://www.w3.org/2000/svg" fill="currentColor"><path fill-rule="evenodd" clip-rule="evenodd" d="M13.156 5.70198C12.93 5.16898 12.598 4.68698 12.182 4.28498C11.33 3.45798 10.188 2.99698 9 2.99998C8.411 2.99598 7.828 3.10998 7.284 3.33498C6.74 3.55998 6.247 3.89198 5.833 4.30998C4.995 5.17998 4.518 6.33598 4.5 7.54398V7.58198C4.625 8.91098 5.245 10.144 6.237 11.037L6.466 12L6.937 13.978L6.945 14C7.043 14.289 7.23 14.54 7.479 14.717C7.736 14.901 8.045 15 8.362 15H9.766C10.075 14.974 10.368 14.854 10.606 14.655C10.845 14.456 11.014 14.185 11.087 13.882L11.581 12L11.887 10.832C12.38 10.401 12.778 9.87198 13.055 9.27898C13.333 8.68598 13.484 8.04198 13.5 7.38698C13.5 6.80798 13.383 6.23498 13.156 5.70198ZM10.118 13.628V13.641C10.096 13.735 10.043 13.82 9.968 13.881C9.893 13.947 9.799 13.988 9.7 14H8.361C8.253 13.999 8.148 13.964 8.061 13.9C7.989 13.85 7.933 13.781 7.9 13.7L7.733 13H10.282L10.118 13.628ZM12.104 8.94098C11.862 9.42498 11.52 9.85098 11.1 10.192L10.992 10.292L10.543 12H7.494L7.145 10.536L7.045 10.436C6.185 9.70598 5.633 8.67698 5.5 7.55598C5.514 6.60698 5.887 5.69898 6.543 5.01298C6.864 4.68798 7.247 4.43198 7.669 4.25798C8.091 4.08398 8.544 3.99598 9 3.99998C9.927 3.99598 10.82 4.35398 11.486 4.99998C11.807 5.30898 12.062 5.67998 12.236 6.08998C12.41 6.49998 12.5 6.94098 12.5 7.38698C12.48 7.92698 12.345 8.45698 12.104 8.94098Z"/></svg>