<svg width="16" height="16" viewBox="0 0 16 16" xmlns="http://www.w3.org/2000/svg" fill="currentColor"><path d="M8.19905 2.782L8.96605 3.031L9.04905 3.061C9.04905 3.061 9.05405 3.063 9.05605 3.064C9.11905 3.089 9.18105 3.119 9.24005 3.152C9.36605 3.223 9.48105 3.311 9.58405 3.413C9.73805 3.566 9.85805 3.75 9.93605 3.952C9.94605 3.979 9.95605 4.006 9.96505 4.033L10.214 4.798C10.235 4.857 10.273 4.908 10.325 4.944C10.376 4.98 10.437 5 10.5 5H10.504C10.565 5 10.625 4.98 10.675 4.944C10.709 4.92 10.737 4.889 10.759 4.854C10.77 4.836 10.779 4.817 10.786 4.798L11.035 4.033C11.112 3.8 11.243 3.589 11.416 3.416C11.589 3.243 11.801 3.112 12.034 3.035L12.799 2.786C12.858 2.765 12.909 2.727 12.945 2.676C12.981 2.625 13.001 2.564 13.001 2.501C13.001 2.438 12.982 2.378 12.945 2.326C12.909 2.275 12.858 2.237 12.799 2.217L12.784 2.213L12.019 1.964C11.86 1.911 11.711 1.834 11.577 1.735C11.515 1.689 11.456 1.638 11.401 1.583C11.228 1.41 11.097 1.198 11.02 0.966L10.771 0.201C10.75 0.142 10.712 0.091 10.66 0.055C10.613 0.022 10.558 0.003 10.501 0H10.486C10.423 0 10.362 0.019 10.311 0.055C10.26 0.091 10.221 0.142 10.201 0.201L9.95205 0.966C9.87605 1.197 9.74805 1.407 9.57705 1.58C9.55205 1.605 9.52705 1.629 9.50105 1.652C9.34605 1.79 9.16505 1.896 8.96805 1.964L8.37305 2.157H8.37105L8.19905 2.212C8.14005 2.233 8.08905 2.272 8.05305 2.323C8.01705 2.374 7.99705 2.435 7.99705 2.498C7.99705 2.561 8.01705 2.622 8.05305 2.672C8.08905 2.723 8.14005 2.761 8.19905 2.782ZM11.62 7.538C11.609 7.503 11.588 7.468 11.558 7.439C11.528 7.41 11.493 7.388 11.455 7.375L11.341 7.337C11.279 7.544 11.199 7.746 11.102 7.941C10.86 8.425 10.518 8.851 10.098 9.192L9.99005 9.292L9.54105 11H6.49205L6.14305 9.536L6.04305 9.436C5.18305 8.706 4.63105 7.677 4.49805 6.556C4.51205 5.607 4.88505 4.699 5.54105 4.013C5.86205 3.688 6.24505 3.432 6.66705 3.258C6.82305 3.194 6.98305 3.141 7.14505 3.101C7.05005 2.921 6.99805 2.713 6.99805 2.497C6.99805 2.358 7.02005 2.223 7.06205 2.094C6.79605 2.15 6.53505 2.23 6.28205 2.335C5.73805 2.56 5.24505 2.892 4.83105 3.31C3.99305 4.18 3.51605 5.336 3.49805 6.544V6.582C3.62305 7.911 4.24305 9.144 5.23505 10.037L5.93505 12.978L5.94305 13C6.04105 13.289 6.22805 13.54 6.47705 13.717C6.73405 13.901 7.04305 14 7.36005 14H8.76405C9.07305 13.974 9.36605 13.854 9.60405 13.655C9.84305 13.456 10.012 13.185 10.085 12.882L10.885 9.832C11.33 9.443 11.697 8.975 11.968 8.452C11.91 8.365 11.862 8.27 11.827 8.169L11.62 7.538ZM9.11605 12.628V12.641C9.09405 12.735 9.04105 12.82 8.96605 12.881C8.89105 12.947 8.79705 12.988 8.69805 13H7.35905C7.25105 12.999 7.14605 12.964 7.05905 12.9C6.98705 12.85 6.93105 12.781 6.89805 12.7L6.73105 12H9.28005L9.11605 12.628ZM14.956 5.862C14.927 5.822 14.886 5.791 14.839 5.774L14.827 5.771L14.215 5.572V5.574C14.029 5.512 13.86 5.408 13.721 5.269C13.582 5.13 13.478 4.961 13.416 4.775L13.217 4.163C13.201 4.116 13.17 4.075 13.129 4.046C13.088 4.018 13.039 4.002 12.989 4.002C12.939 4.002 12.89 4.017 12.849 4.046C12.809 4.075 12.778 4.116 12.761 4.163L12.562 4.775C12.501 4.959 12.399 5.127 12.262 5.266C12.126 5.404 11.959 5.51 11.775 5.573L11.163 5.772C11.116 5.788 11.074 5.819 11.046 5.86C11.018 5.901 11.002 5.95 11.002 6C11.002 6.05 11.017 6.099 11.046 6.14C11.075 6.18 11.116 6.211 11.163 6.228L11.746 6.417V6.42L11.77 6.428C11.957 6.49 12.126 6.594 12.265 6.733C12.403 6.872 12.508 7.042 12.57 7.228L12.77 7.84C12.786 7.887 12.817 7.928 12.858 7.957C12.898 7.985 12.945 8.001 12.994 8.001H13.001C13.051 8.001 13.1 7.986 13.141 7.957C13.182 7.928 13.212 7.887 13.229 7.84L13.428 7.228C13.49 7.042 13.594 6.873 13.733 6.734C13.872 6.595 14.041 6.491 14.227 6.429L14.839 6.23C14.886 6.214 14.928 6.183 14.956 6.142C14.984 6.101 15 6.052 15 6.002C15 5.952 14.985 5.903 14.956 5.862Z"/></svg>