<svg xmlns="http://www.w3.org/2000/svg" width="12" height="12" viewBox="0 0 12 12" fill="currentColor"><path d="M2.5 4.5C2.5 2.57 4.07 1 6 1C7.93 1 9.5 2.57 9.5 4.5C9.5 5.48 9.1 6.36 8.45 7C8.26 7.19 8.09 7.44 8.01 7.74L7.66 9.01H4.33L3.98 7.74C3.9 7.44 3.73 7.19 3.54 7C2.89 6.36 2.49 5.48 2.49 4.5H2.5ZM4.61 10H7.39L7.22 10.63C7.16 10.85 6.96 11 6.74 11H5.27C5.04 11 4.85 10.85 4.79 10.63L4.62 10H4.61ZM6 0C3.51 0 1.5 2.01 1.5 4.5C1.5 5.76 2.02 6.89 2.84 7.71C2.94 7.81 3 7.9 3.02 8L3.81 10.9C3.99 11.55 4.58 12.01 5.26 12.01H6.73C7.41 12.01 8 11.56 8.18 10.9L8.97 8C9 7.91 9.05 7.81 9.15 7.71C9.98 6.89 10.49 5.76 10.49 4.5C10.49 2.01 8.48 0 5.99 0H6Z"/></svg>