<svg width="16" height="16" viewBox="0 0 16 16" xmlns="http://www.w3.org/2000/svg" fill="currentColor"><path d="M11.827 8.174L11.81 8.122C11.576 8.56 11.285 8.899 11.022 9.199C10.741 9.522 10.497 9.802 10.407 10.137L10.175 10.999H5.82598L5.59398 10.138C5.50298 9.801 5.25998 9.522 4.97698 9.199C4.42998 8.572 3.74998 7.792 3.74998 6.25C3.74998 3.993 5.30798 2.518 7.05598 2.119C7.09598 1.986 7.15598 1.859 7.23898 1.743C7.39298 1.524 7.61098 1.358 7.86798 1.268L8.53298 1.053C8.35598 1.035 8.18298 0.999 8.00098 0.999C5.41998 0.999 2.75098 2.963 2.75098 6.249C2.75098 8.166 3.63798 9.183 4.22498 9.855C4.40898 10.066 4.59898 10.284 4.62898 10.397L5.56898 13.888C5.74498 14.542 6.34098 14.998 7.01798 14.998H8.98498C9.66298 14.998 10.258 14.541 10.433 13.888L11.373 10.396C11.403 10.284 11.594 10.066 11.777 9.855C12.003 9.596 12.273 9.284 12.52 8.891C12.441 8.857 12.36 8.827 12.288 8.776C12.069 8.62 11.913 8.413 11.828 8.172L11.827 8.174ZM9.46698 13.63C9.40798 13.848 9.20898 14 8.98398 14H7.01698C6.79098 14 6.59298 13.848 6.53398 13.63L6.09498 12H9.90598L9.46698 13.63ZM8.37298 2.157L8.96798 1.964C9.16498 1.896 9.34598 1.79 9.50098 1.652C9.52698 1.629 9.55198 1.605 9.57698 1.58C9.74798 1.407 9.87598 1.197 9.95198 0.966L10.201 0.201C10.221 0.142 10.26 0.091 10.311 0.055C10.362 0.019 10.423 0 10.486 0H10.501C10.558 0.003 10.613 0.022 10.66 0.055C10.712 0.091 10.75 0.142 10.771 0.201L11.02 0.966C11.097 1.198 11.228 1.41 11.401 1.583C11.456 1.638 11.515 1.689 11.577 1.735C11.711 1.834 11.86 1.911 12.019 1.964L12.784 2.213L12.799 2.217C12.858 2.237 12.909 2.275 12.945 2.326C12.982 2.378 13.001 2.438 13.001 2.501C13.001 2.564 12.981 2.625 12.945 2.676C12.909 2.727 12.858 2.765 12.799 2.786L12.034 3.035C11.801 3.112 11.589 3.243 11.416 3.416C11.243 3.589 11.112 3.8 11.035 4.033L10.786 4.798C10.779 4.817 10.77 4.836 10.759 4.854C10.737 4.889 10.709 4.92 10.675 4.944C10.625 4.98 10.565 5 10.504 5H10.5C10.437 5 10.376 4.98 10.325 4.944C10.273 4.908 10.235 4.857 10.214 4.798L9.96498 4.033C9.95598 4.006 9.94598 3.979 9.93598 3.952C9.85798 3.75 9.73798 3.566 9.58398 3.413C9.48098 3.311 9.36598 3.223 9.23998 3.152C9.18098 3.119 9.11898 3.089 9.05598 3.064C9.05398 3.064 9.04898 3.061 9.04898 3.061L8.96598 3.031L8.19898 2.782C8.13998 2.761 8.08898 2.723 8.05298 2.672C8.01698 2.622 7.99698 2.561 7.99698 2.498C7.99698 2.435 8.01698 2.374 8.05298 2.323C8.08898 2.272 8.13998 2.233 8.19898 2.212L8.37098 2.157H8.37298ZM15 6.002C15 6.052 14.984 6.101 14.956 6.142C14.928 6.183 14.886 6.214 14.839 6.23L14.227 6.429C14.041 6.491 13.872 6.595 13.733 6.734C13.594 6.873 13.49 7.042 13.428 7.228L13.229 7.84C13.212 7.887 13.182 7.928 13.141 7.957C13.1 7.986 13.051 8.001 13.001 8.001H12.994C12.945 8.001 12.898 7.985 12.858 7.957C12.817 7.928 12.786 7.887 12.77 7.84L12.57 7.228C12.508 7.042 12.403 6.872 12.265 6.733C12.126 6.594 11.957 6.49 11.77 6.428L11.746 6.42V6.417L11.163 6.228C11.116 6.211 11.075 6.18 11.046 6.14C11.017 6.099 11.002 6.05 11.002 6C11.002 5.95 11.018 5.901 11.046 5.86C11.074 5.819 11.116 5.788 11.163 5.772L11.775 5.573C11.959 5.51 12.126 5.404 12.262 5.266C12.399 5.127 12.501 4.959 12.562 4.775L12.761 4.163C12.778 4.116 12.809 4.075 12.849 4.046C12.89 4.017 12.939 4.002 12.989 4.002C13.039 4.002 13.088 4.018 13.129 4.046C13.17 4.075 13.201 4.116 13.217 4.163L13.416 4.775C13.478 4.961 13.582 5.13 13.721 5.269C13.86 5.408 14.029 5.512 14.215 5.574V5.572L14.827 5.771L14.839 5.774C14.886 5.791 14.927 5.822 14.956 5.862C14.985 5.903 15 5.952 15 6.002Z"/></svg>