<svg width="16" height="16" viewBox="0 0 16 16" xmlns="http://www.w3.org/2000/svg" fill="currentColor"><path d="M6.607 14C6.79 14.357 7.007 14.693 7.261 15H6.017C5.34 15 4.745 14.544 4.568 13.89L3.628 10.399C3.598 10.286 3.407 10.068 3.224 9.857C2.637 9.184 1.75 8.168 1.75 6.251C1.75 2.964 4.419 1 7 1C9.828 1 12.125 3.252 12.23 6.054C11.99 6.022 11.748 6 11.5 6C11.408 6 11.317 6.009 11.226 6.014C11.101 3.782 9.263 2 7 2C4.911 2 2.75 3.59 2.75 6.25C2.75 7.792 3.43 8.572 3.977 9.199C4.259 9.522 4.503 9.802 4.594 10.138L4.826 10.999H6.026C6.011 11.164 6.001 11.33 6.001 11.499C6.001 11.668 6.011 11.834 6.026 11.999H5.096L5.535 13.629C5.594 13.847 5.792 13.999 6.018 13.999H6.609L6.607 14ZM16 11.5C16 13.985 13.985 16 11.5 16C9.015 16 7 13.985 7 11.5C7 9.015 9.015 7 11.5 7C13.985 7 16 9.015 16 11.5ZM13.997 10.392H12.452L11.975 8.86C11.825 8.379 11.173 8.379 11.023 8.86L10.546 10.392H9.001C8.516 10.392 8.315 11.039 8.707 11.336L9.957 12.283L9.48 13.815C9.33 14.295 9.858 14.695 10.25 14.398L11.5 13.451L12.75 14.398C13.142 14.695 13.67 14.296 13.52 13.815L13.043 12.283L14.293 11.336H14.291C14.684 11.039 14.482 10.392 13.997 10.392Z"/></svg>