<svg width="18" height="18" viewBox="0 0 18 18" xmlns="http://www.w3.org/2000/svg" fill="currentColor"><path d="M12.5 7.99998C10.015 7.99998 8 10.015 8 12.5C8 14.985 10.015 17 12.5 17C14.985 17 17 14.985 17 12.5C17 10.015 14.985 7.99998 12.5 7.99998ZM15.293 12.336L14.043 13.283L14.52 14.815C14.67 15.296 14.142 15.695 13.75 15.398L12.5 14.451L11.25 15.398C10.858 15.695 10.33 15.295 10.48 14.815L10.957 13.283L9.707 12.336C9.315 12.039 9.516 11.392 10.001 11.392H11.546L12.023 9.85998C12.173 9.37898 12.825 9.37898 12.975 9.85998L13.452 11.392H14.997C15.482 11.392 15.684 12.039 15.291 12.336H15.293ZM6.361 14C6.253 13.999 6.148 13.964 6.061 13.9C5.989 13.85 5.933 13.781 5.9 13.7L5.733 13H7.022C7.007 12.835 7 12.669 7 12.5C7 12.331 7.012 12.165 7.027 12H5.494L5.145 10.536L5.045 10.436C4.185 9.70598 3.633 8.67698 3.5 7.55598C3.514 6.60698 3.887 5.69898 4.543 5.01298C4.864 4.68798 5.247 4.43198 5.669 4.25798C6.091 4.08398 6.544 3.99598 7 3.99998C7.927 3.99598 8.82 4.35398 9.486 4.99998C9.807 5.30898 10.062 5.67998 10.236 6.08998C10.408 6.49598 10.498 6.93298 10.5 7.37498C10.817 7.25098 11.148 7.15598 11.49 7.09298C11.457 6.61498 11.344 6.14498 11.156 5.70198C10.93 5.16898 10.598 4.68698 10.182 4.28498C9.33 3.45798 8.188 2.99698 7 2.99998C6.411 2.99598 5.828 3.10998 5.284 3.33498C4.74 3.55998 4.247 3.89198 3.833 4.30998C2.995 5.17998 2.518 6.33598 2.5 7.54398V7.58198C2.625 8.91098 3.245 10.144 4.237 11.037L4.937 13.978L4.945 14C5.043 14.289 5.23 14.54 5.479 14.717C5.736 14.901 6.045 15 6.362 15H7.6C7.438 14.683 7.306 14.349 7.207 14H6.361Z"/></svg>