<svg width="16" height="16" viewBox="0 0 16 16" xmlns="http://www.w3.org/2000/svg" fill="currentColor"><path d="M8 1C5.419 1 2.75 2.964 2.75 6.25C2.75 8.167 3.637 9.184 4.224 9.856C4.408 10.067 4.598 10.285 4.628 10.398L5.568 13.889C5.744 14.543 6.34 14.999 7.017 14.999H8.984C9.662 14.999 10.257 14.542 10.432 13.889L11.372 10.397C11.402 10.285 11.593 10.067 11.776 9.856C12.363 9.183 13.25 8.167 13.25 6.25C13.25 3.355 10.895 1 8 1ZM9.467 13.63C9.408 13.848 9.209 14 8.984 14H7.017C6.791 14 6.593 13.848 6.534 13.63L6.095 12H9.906L9.467 13.63ZM11.022 9.199C10.741 9.522 10.497 9.802 10.407 10.137L10.175 10.999H5.826L5.594 10.138C5.503 9.801 5.26 9.522 4.977 9.199C4.43 8.572 3.75 7.792 3.75 6.25C3.75 3.59 5.911 2 8 2C10.344 2 12.25 3.907 12.25 6.25C12.25 7.792 11.569 8.572 11.022 9.199Z"/></svg>