<svg width="16" height="16" viewBox="0 0 16 16" xmlns="http://www.w3.org/2000/svg" fill="currentColor"><path fill-rule="evenodd" clip-rule="evenodd" d="M4.96036 8.21586C5.1264 8.28964 5.30939 8.33017 5.50003 8.33017C6.11032 8.33016 6.64229 7.91481 6.79031 7.32274C7.07964 6.16542 7.60767 5.72051 7.94111 5.52999C8.12739 5.42355 8.29677 5.37258 8.41069 5.3486C8.46706 5.33673 8.50715 5.33206 8.52501 5.3304L8.53064 5.32991C9.25101 5.31364 9.82999 4.7246 9.83002 4.00031C9.83005 3.27602 9.25112 2.68694 8.53075 2.6706L8.52511 2.67011C8.50726 2.66845 8.46716 2.66378 8.41078 2.65191C8.29685 2.62792 8.12747 2.57693 7.94116 2.47046C7.67148 2.31635 7.27453 1.99584 6.97951 1.26672C7.08958 1.22721 7.20169 1.19166 7.31579 1.16008C7.70106 1.05344 8.10095 1.00024 8.51515 1.00024C8.92935 1.00024 9.32924 1.05344 9.71451 1.16008C10.0988 1.26645 10.458 1.41763 10.7918 1.61375C11.1294 1.80962 11.4351 2.04395 11.7088 2.31665C11.9825 2.58935 12.2177 2.894 12.4143 3.23041C12.6112 3.56309 12.763 3.92112 12.8698 4.30421C12.9215 4.48978 12.9607 4.67873 12.9875 4.87106C12.721 4.63817 12.3735 4.50021 12 4.50021C11.3117 4.50021 10.7117 4.96866 10.5448 5.63641C10.3914 6.24994 10.1417 6.40591 10.0683 6.44789C10.0095 6.4815 9.95894 6.49576 9.93313 6.5012L9.92975 6.50189C9.13393 6.53858 8.49999 7.19541 8.50001 8.0003C8.50002 8.80519 9.13399 9.46199 9.92981 9.49866L9.93319 9.49935C9.959 9.50478 10.0095 9.51904 10.0683 9.55264C10.1418 9.59461 10.3914 9.75054 10.5448 10.364C10.57 10.4647 10.605 10.5608 10.6486 10.6515C10.6302 10.7976 10.621 10.9475 10.621 11.1011V12.7015C10.621 12.8809 10.5872 13.0506 10.5189 13.2094C10.4513 13.3664 10.3586 13.5041 10.2407 13.6216C10.1228 13.7391 9.98465 13.8314 9.82724 13.8986C9.66806 13.9666 9.49807 14.0002 9.31824 14.0002H7.71206C7.53224 14.0002 7.36224 13.9666 7.20306 13.8986C7.04565 13.8314 6.90754 13.7391 6.78962 13.6216C6.67169 13.5041 6.57895 13.3664 6.51142 13.2094C6.44312 13.0506 6.40927 12.8809 6.40927 12.7015V11.1011C6.40927 10.6223 6.31772 10.1798 6.13554 9.77234C5.95684 9.3636 5.69833 8.9918 5.35954 8.6583C5.2156 8.51629 5.08253 8.36881 4.96036 8.21586ZM9.62163 10.5002H7.40867V12.7015C7.40867 12.7825 7.43721 12.8514 7.49889 12.9129C7.56059 12.9744 7.63008 13.0031 7.71206 13.0031H9.31824C9.40023 13.0031 9.46971 12.9744 9.53141 12.9129C9.5931 12.8514 9.62163 12.7825 9.62163 12.7015V10.5002Z"/><path d="M12 10.0002C11.5 8.0003 10 8.0003 10 8.0003C10 8.0003 11.5 8.00024 12 6.00024C12.5 8.00024 14 8.0003 14 8.0003C14 8.0003 12.5 8.00024 12 10.0002Z" stroke="#FFCC00" stroke-linejoin="round"/><path d="M5.5 7.00024C4.75 4.00033 2.5 4.00033 2.5 4.00033C2.5 4.00033 4.75 4.00024 5.5 1.00024C6.25 4.00024 8.5 4.00033 8.5 4.00033C8.5 4.00033 6.25 4.00024 5.5 7.00024Z" stroke="#FFCC00" stroke-width="0.75" stroke-linejoin="round"/></svg>