<svg width="16" height="16" viewBox="0 0 16 16" xmlns="http://www.w3.org/2000/svg" fill="currentColor"><path fill-rule="evenodd" clip-rule="evenodd" d="M6.59971 14H5.36206C5.04506 14 4.73606 13.901 4.47906 13.717C4.23006 13.54 4.04306 13.289 3.94506 13L3.93706 12.978L3.237 10.037C2.245 9.14398 1.625 7.91098 1.5 6.58198V6.54398C1.518 5.33598 1.995 4.17998 2.833 3.30998C3.247 2.89198 3.74 2.55998 4.284 2.33498C4.828 2.10998 5.411 1.99598 6 1.99998C7.188 1.99698 8.33 2.45798 9.182 3.28498C9.598 3.68698 9.93 4.16898 10.156 4.70198C10.3444 5.14442 10.4571 5.61443 10.4899 6.09255C10.1478 6.15607 9.81672 6.25125 9.49998 6.37495C9.49837 5.93305 9.40844 5.49629 9.236 5.08998C9.062 4.67998 8.807 4.30898 8.486 3.99998C7.82 3.35398 6.927 2.99598 6 2.99998C5.544 2.99598 5.091 3.08398 4.669 3.25798C4.247 3.43198 3.864 3.68798 3.543 4.01298C2.887 4.69898 2.514 5.60698 2.5 6.55598C2.633 7.67698 3.185 8.70598 4.045 9.43598L4.145 9.53598L4.494 11H5.5V8.42898C5.029 8.30698 4.618 8.01798 4.345 7.61498C4.072 7.21198 3.955 6.72298 4.016 6.23998C4.077 5.75698 4.313 5.31298 4.678 4.99098C5.043 4.66998 5.513 4.49198 6 4.49198C6.487 4.49198 6.957 4.66898 7.322 4.99098C7.687 5.31298 7.923 5.75698 7.984 6.23998C8.03908 6.6761 7.94904 7.11711 7.73007 7.49528C7.5242 7.68915 7.33329 7.89871 7.15923 8.12206C6.96163 8.2626 6.73851 8.3672 6.5 8.42898V9.20551C6.179 9.90388 6 10.681 6 11.5C6 11.6685 6.00758 11.8353 6.02242 12H4.73306L4.90006 12.7C4.93306 12.781 4.98906 12.85 5.06106 12.9C5.14806 12.964 5.25306 12.999 5.36106 13H6.20703C6.30564 13.3486 6.43777 13.6832 6.59971 14ZM5.076 6.88198C5.151 7.06498 5.28 7.22098 5.444 7.33098L5.445 7.32998C5.61 7.43998 5.803 7.49898 6.001 7.49898C6.266 7.49898 6.52 7.39398 6.708 7.20598C6.896 7.01898 7.001 6.76398 7.001 6.49898C7.001 6.30098 6.942 6.10698 6.832 5.94298C6.722 5.77898 6.566 5.65098 6.383 5.57498C6.2 5.49898 5.999 5.47898 5.805 5.51798C5.611 5.55698 5.433 5.65198 5.293 5.79198C5.153 5.93198 5.057 6.10998 5.019 6.30398C4.981 6.49798 5 6.69898 5.076 6.88198Z"/><path d="M11.5 7C9.015 7 7 9.015 7 11.5C7 13.985 9.015 16 11.5 16C13.985 16 16 13.985 16 11.5C16 9.015 13.985 7 11.5 7ZM14.293 11.336L13.043 12.283L13.52 13.815C13.67 14.296 13.142 14.695 12.75 14.398L11.5 13.451L10.25 14.398C9.858 14.695 9.33 14.295 9.48 13.815L9.957 12.283L8.707 11.336C8.315 11.039 8.516 10.392 9.001 10.392H10.546L11.023 8.86C11.173 8.379 11.825 8.379 11.975 8.86L12.452 10.392H13.997C14.482 10.392 14.684 11.039 14.291 11.336H14.293Z"/></svg>