<svg width="16" height="16" viewBox="0 0 16 16" xmlns="http://www.w3.org/2000/svg" fill="currentColor"><path fill-rule="evenodd" clip-rule="evenodd" d="M7.06359 2.09408C6.79752 2.14999 6.53656 2.23052 6.284 2.33498C5.74 2.55998 5.247 2.89198 4.833 3.30998C3.995 4.17998 3.518 5.33598 3.5 6.54398V6.58198C3.625 7.91098 4.245 9.14398 5.237 10.037L5.93706 12.978L5.94506 13C6.04306 13.289 6.23006 13.54 6.47906 13.717C6.73606 13.901 7.04506 14 7.36206 14H8.76606C9.07506 13.974 9.36806 13.854 9.60606 13.655C9.84506 13.456 10.0141 13.185 10.0871 12.882L10.887 9.83198C11.3316 9.44333 11.6989 8.97499 11.9699 8.45189C11.9115 8.36488 11.8642 8.27012 11.829 8.169L11.622 7.538C11.611 7.503 11.59 7.468 11.56 7.439C11.53 7.41 11.495 7.388 11.457 7.375L11.3426 7.33739C11.2806 7.54446 11.2009 7.74644 11.104 7.94098C10.862 8.42498 10.52 8.85098 10.1 9.19198L9.992 9.29198L9.543 11H8.5V8.42898C8.971 8.30698 9.382 8.01798 9.655 7.61498C9.928 7.21198 10.045 6.72298 9.984 6.23998C9.96663 6.10244 9.93507 5.96807 9.89038 5.83877C9.84114 5.81578 9.79326 5.78979 9.748 5.758C9.526 5.6 9.362 5.381 9.273 5.125L9.19563 4.88836C8.85159 4.63158 8.4325 4.49198 8 4.49198C7.513 4.49198 7.043 4.66998 6.678 4.99098C6.313 5.31298 6.077 5.75698 6.016 6.23998C5.955 6.72298 6.072 7.21198 6.345 7.61498C6.618 8.01798 7.029 8.30698 7.5 8.42898V11H6.494L6.145 9.53598L6.045 9.43598C5.185 8.70598 4.633 7.67698 4.5 6.55598C4.514 5.60698 4.887 4.69898 5.543 4.01298C5.864 3.68798 6.247 3.43198 6.669 3.25798C6.8247 3.19378 6.98462 3.14129 7.14736 3.10081C7.05211 2.92096 7 2.71261 7 2.497C7 2.35826 7.02157 2.22278 7.06359 2.09408ZM7.076 6.88198C7.151 7.06498 7.28 7.22098 7.444 7.33098L7.445 7.32998C7.61 7.43998 7.803 7.49898 8.001 7.49898C8.266 7.49898 8.52 7.39398 8.708 7.20598C8.896 7.01898 9.001 6.76398 9.001 6.49898C9.001 6.30098 8.942 6.10698 8.832 5.94298C8.722 5.77898 8.566 5.65098 8.383 5.57498C8.2 5.49898 7.999 5.47898 7.805 5.51798C7.611 5.55698 7.433 5.65198 7.293 5.79198C7.153 5.93198 7.057 6.10998 7.019 6.30398C6.981 6.49798 7 6.69898 7.076 6.88198ZM9.11806 12.628V12.641C9.09606 12.735 9.04307 12.82 8.96807 12.881C8.89306 12.947 8.79906 12.988 8.70006 13H7.36106C7.25306 12.999 7.14806 12.964 7.06106 12.9C6.98906 12.85 6.93306 12.781 6.90006 12.7L6.73306 12H9.28206L9.11806 12.628Z"/><path d="M12.801 2.217L12.786 2.213L12.021 1.964C11.862 1.911 11.713 1.834 11.579 1.735C11.517 1.689 11.458 1.638 11.403 1.583C11.23 1.41 11.099 1.198 11.022 0.966L10.773 0.201C10.752 0.142 10.714 0.091 10.662 0.055C10.615 0.022 10.56 0.003 10.503 0C10.498 0 10.493 0 10.488 0C10.425 0 10.364 0.019 10.313 0.055C10.262 0.091 10.223 0.142 10.203 0.201L9.95402 0.966C9.87802 1.197 9.75002 1.407 9.57902 1.58C9.55402 1.605 9.52902 1.629 9.50302 1.652C9.34802 1.79 9.16702 1.896 8.97002 1.964L8.37502 2.157H8.37302L8.20102 2.212C8.14202 2.233 8.09102 2.272 8.05502 2.323C8.01902 2.374 7.99902 2.435 7.99902 2.498C7.99902 2.561 8.01902 2.622 8.05502 2.672C8.09102 2.723 8.14202 2.761 8.20102 2.782L8.96802 3.031L9.05102 3.061C9.05102 3.061 9.05602 3.063 9.05802 3.064C9.12102 3.089 9.18302 3.119 9.24202 3.152C9.36802 3.223 9.48302 3.311 9.58602 3.413C9.74002 3.566 9.86002 3.75 9.93802 3.952C9.94802 3.979 9.95802 4.006 9.96702 4.033L10.216 4.798C10.237 4.857 10.275 4.908 10.327 4.944C10.378 4.98 10.439 5 10.502 5H10.506C10.567 5 10.627 4.98 10.677 4.944C10.711 4.92 10.739 4.889 10.761 4.854C10.772 4.836 10.781 4.817 10.788 4.798L11.037 4.033C11.114 3.8 11.245 3.589 11.418 3.416C11.591 3.243 11.803 3.112 12.036 3.035L12.801 2.786C12.86 2.765 12.911 2.727 12.947 2.676C12.983 2.625 13.003 2.564 13.003 2.501C13.003 2.438 12.984 2.378 12.947 2.326C12.911 2.275 12.86 2.237 12.801 2.217ZM14.217 5.572L14.829 5.771L14.841 5.774C14.888 5.791 14.929 5.822 14.958 5.862C14.987 5.903 15.002 5.952 15.002 6.002C15.002 6.052 14.986 6.101 14.958 6.142C14.93 6.183 14.888 6.214 14.841 6.23L14.229 6.429C14.043 6.491 13.874 6.595 13.735 6.734C13.596 6.873 13.492 7.042 13.43 7.228L13.231 7.84C13.214 7.887 13.184 7.928 13.143 7.957C13.102 7.986 13.053 8.001 13.003 8.001C13.001 8.001 12.998 8.001 12.996 8.001C12.947 8.001 12.9 7.985 12.86 7.957C12.819 7.928 12.788 7.887 12.772 7.84L12.572 7.228C12.51 7.042 12.405 6.872 12.267 6.733C12.128 6.594 11.959 6.49 11.772 6.428L11.748 6.42V6.417L11.165 6.228C11.118 6.211 11.077 6.18 11.048 6.14C11.019 6.099 11.004 6.05 11.004 6C11.004 5.95 11.02 5.901 11.048 5.86C11.076 5.819 11.118 5.788 11.165 5.772L11.777 5.573C11.961 5.51 12.128 5.404 12.264 5.266C12.401 5.127 12.503 4.959 12.564 4.775L12.763 4.163C12.78 4.116 12.811 4.075 12.851 4.046C12.892 4.017 12.941 4.002 12.991 4.002C13.041 4.002 13.09 4.018 13.131 4.046C13.172 4.075 13.203 4.116 13.219 4.163L13.418 4.775C13.48 4.961 13.584 5.13 13.723 5.269C13.862 5.408 14.031 5.512 14.217 5.574V5.572Z"/></svg>