<svg width="18" height="18" viewBox="0 0 18 18" xmlns="http://www.w3.org/2000/svg" fill="currentColor"><path d="M9.19905 3.782L9.96605 4.031L10.049 4.061C10.049 4.061 10.054 4.063 10.056 4.064C10.119 4.089 10.181 4.119 10.24 4.152C10.366 4.223 10.481 4.311 10.584 4.413C10.738 4.566 10.858 4.75 10.936 4.952C10.946 4.979 10.956 5.006 10.965 5.033L11.214 5.798C11.235 5.857 11.273 5.908 11.325 5.944C11.376 5.98 11.437 6 11.5 6H11.504C11.565 6 11.625 5.98 11.675 5.944C11.709 5.92 11.737 5.889 11.759 5.854C11.77 5.836 11.779 5.817 11.786 5.798L12.035 5.033C12.112 4.8 12.243 4.589 12.416 4.416C12.589 4.243 12.801 4.112 13.034 4.035L13.799 3.786C13.858 3.765 13.909 3.727 13.945 3.676C13.981 3.625 14.001 3.564 14.001 3.501C14.001 3.438 13.982 3.378 13.945 3.326C13.909 3.275 13.858 3.237 13.799 3.217L13.784 3.213L13.019 2.964C12.86 2.911 12.711 2.834 12.577 2.735C12.515 2.689 12.456 2.638 12.401 2.583C12.228 2.41 12.097 2.198 12.02 1.966L11.771 1.201C11.75 1.142 11.712 1.091 11.66 1.055C11.613 1.022 11.558 1.003 11.501 1H11.486C11.423 1 11.362 1.019 11.311 1.055C11.26 1.091 11.221 1.142 11.201 1.201L10.952 1.966C10.876 2.197 10.748 2.407 10.577 2.58C10.552 2.605 10.527 2.629 10.501 2.652C10.346 2.79 10.165 2.896 9.96805 2.964L9.37305 3.157H9.37105L9.19905 3.212C9.14005 3.233 9.08905 3.272 9.05305 3.323C9.01705 3.374 8.99705 3.435 8.99705 3.498C8.99705 3.561 9.01705 3.622 9.05305 3.672C9.08905 3.723 9.14005 3.761 9.19905 3.782ZM12.62 8.538C12.609 8.503 12.588 8.468 12.558 8.439C12.528 8.41 12.493 8.388 12.455 8.375L12.341 8.337C12.279 8.544 12.199 8.746 12.102 8.941C11.86 9.425 11.518 9.851 11.098 10.192L10.99 10.292L10.541 12H7.49205L7.14305 10.536L7.04305 10.436C6.18305 9.706 5.63105 8.677 5.49805 7.556C5.51205 6.607 5.88505 5.699 6.54105 5.013C6.86205 4.688 7.24505 4.432 7.66705 4.258C7.82305 4.194 7.98305 4.141 8.14505 4.101C8.05005 3.921 7.99805 3.713 7.99805 3.497C7.99805 3.358 8.02005 3.223 8.06205 3.094C7.79605 3.15 7.53505 3.23 7.28205 3.335C6.73805 3.56 6.24505 3.892 5.83105 4.31C4.99305 5.18 4.51605 6.336 4.49805 7.544V7.582C4.62305 8.911 5.24305 10.144 6.23505 11.037L6.93505 13.978L6.94305 14C7.04105 14.289 7.22805 14.54 7.47705 14.717C7.73405 14.901 8.04305 15 8.36005 15H9.76405C10.073 14.974 10.366 14.854 10.604 14.655C10.843 14.456 11.012 14.185 11.085 13.882L11.885 10.832C12.33 10.443 12.697 9.975 12.968 9.452C12.91 9.365 12.862 9.27 12.827 9.169L12.62 8.538ZM10.116 13.628V13.641C10.094 13.735 10.041 13.82 9.96605 13.881C9.89105 13.947 9.79705 13.988 9.69805 14H8.35905C8.25105 13.999 8.14605 13.964 8.05905 13.9C7.98705 13.85 7.93105 13.781 7.89805 13.7L7.73105 13H10.28L10.116 13.628ZM15.956 6.862C15.927 6.822 15.886 6.791 15.839 6.774L15.827 6.771L15.215 6.572V6.574C15.029 6.512 14.86 6.408 14.721 6.269C14.582 6.13 14.478 5.961 14.416 5.775L14.217 5.163C14.201 5.116 14.17 5.075 14.129 5.046C14.088 5.018 14.039 5.002 13.989 5.002C13.939 5.002 13.89 5.017 13.849 5.046C13.809 5.075 13.778 5.116 13.761 5.163L13.562 5.775C13.501 5.959 13.399 6.127 13.262 6.266C13.126 6.404 12.959 6.51 12.775 6.573L12.163 6.772C12.116 6.788 12.074 6.819 12.046 6.86C12.018 6.901 12.002 6.95 12.002 7C12.002 7.05 12.017 7.099 12.046 7.14C12.075 7.18 12.116 7.211 12.163 7.228L12.746 7.417V7.42L12.77 7.428C12.957 7.49 13.126 7.594 13.265 7.733C13.403 7.872 13.508 8.042 13.57 8.228L13.77 8.84C13.786 8.887 13.817 8.928 13.858 8.957C13.898 8.985 13.945 9.001 13.994 9.001H14.001C14.051 9.001 14.1 8.986 14.141 8.957C14.182 8.928 14.212 8.887 14.229 8.84L14.428 8.228C14.49 8.042 14.594 7.873 14.733 7.734C14.872 7.595 15.041 7.491 15.227 7.429L15.839 7.23C15.886 7.214 15.928 7.183 15.956 7.142C15.984 7.101 16 7.052 16 7.002C16 6.952 15.985 6.903 15.956 6.862Z"/></svg>