<svg width="16" height="16" viewBox="0 0 16 16" xmlns="http://www.w3.org/2000/svg" fill="currentColor"><path d="M15 9.5V12.5C15 13.879 13.879 15 12.5 15H3.5C2.121 15 1 13.879 1 12.5V3.5C1 2.121 2.121 1 3.5 1H6.5C6.776 1 7 1.224 7 1.5C7 1.776 6.776 2 6.5 2H3.5C2.673 2 2 2.673 2 3.5V12.5C2 13.327 2.673 14 3.5 14H12.5C13.327 14 14 13.327 14 12.5V9.5C14 9.224 14.224 9 14.5 9C14.776 9 15 9.224 15 9.5ZM14.5 1H9.5C9.224 1 9 1.224 9 1.5C9 1.776 9.224 2 9.5 2H13.293L9.147 6.146C8.952 6.341 8.952 6.658 9.147 6.853C9.245 6.951 9.373 6.999 9.501 6.999C9.629 6.999 9.757 6.95 9.855 6.853L14.001 2.707V6.5C14.001 6.776 14.225 7 14.501 7C14.777 7 15.001 6.776 15.001 6.5V1.5C15.001 1.224 14.777 1 14.501 1H14.5Z"/></svg>