<svg width="16" height="16" viewBox="0 0 16 16" xmlns="http://www.w3.org/2000/svg" fill="currentColor"><path d="M3.49999 2C2.67157 2 2 2.67157 2 3.5V12.5C2 13.3284 2.67157 14 3.49999 14H12.5C13.3284 14 13.9999 13.3284 13.9999 12.5V9.26923C13.9999 8.99309 14.2238 8.76923 14.4999 8.76923C14.7761 8.76923 14.9999 8.99309 14.9999 9.26923V12.5C14.9999 13.8807 13.8807 15 12.5 15H3.49999C2.11928 15 1 13.8807 1 12.5V3.5C1 2.11929 2.11928 1 3.49999 1H6.73075C7.00689 1 7.23074 1.22386 7.23074 1.5C7.23074 1.77614 7.00689 2 6.73075 2H3.49999ZM8.76925 1.5C8.76925 1.22386 8.99311 1 9.26925 1H14.5C14.7761 1 15 1.22386 15 1.5V6.73077C15 7.00691 14.7761 7.23077 14.5 7.23077C14.2239 7.23077 14 7.00691 14 6.73077V2.70711L9.6228 7.08433C9.42754 7.27959 9.11096 7.27959 8.9157 7.08433C8.72044 6.88906 8.72044 6.57248 8.9157 6.37722L13.2929 2H9.26925C8.99311 2 8.76925 1.77614 8.76925 1.5Z"/></svg>