<svg width="18" height="18" viewBox="0 0 18 18" xmlns="http://www.w3.org/2000/svg" fill="currentColor"><path d="M4.49999 3C3.67157 3 3 3.67157 3 4.5V13.5C3 14.3284 3.67157 15 4.49999 15H13.5C14.3284 15 14.9999 14.3284 14.9999 13.5V10.2692C14.9999 9.99309 15.2238 9.76923 15.4999 9.76923C15.7761 9.76923 15.9999 9.99309 15.9999 10.2692V13.5C15.9999 14.8807 14.8807 16 13.5 16H4.49999C3.11928 16 2 14.8807 2 13.5V4.5C2 3.11929 3.11928 2 4.49999 2H7.73075C8.00689 2 8.23074 2.22386 8.23074 2.5C8.23074 2.77614 8.00689 3 7.73075 3H4.49999ZM9.76925 2.5C9.76925 2.22386 9.99311 2 10.2693 2H15.5C15.7761 2 16 2.22386 16 2.5V7.73077C16 8.00691 15.7761 8.23077 15.5 8.23077C15.2239 8.23077 15 8.00691 15 7.73077V3.70711L10.6228 8.08433C10.4275 8.27959 10.111 8.27959 9.9157 8.08433C9.72044 7.88906 9.72044 7.57248 9.9157 7.37722L14.2929 3H10.2693C9.99311 3 9.76925 2.77614 9.76925 2.5Z"/></svg>