<svg width="24" height="24" viewBox="0 0 24 24" xmlns="http://www.w3.org/2000/svg" fill="currentColor"><path d="M6.7467 4H10.2109C10.6251 4 10.9609 4.33579 10.9609 4.75C10.9609 5.12969 10.6788 5.44349 10.3127 5.49315L10.2109 5.5H6.7467C5.55584 5.5 4.58106 6.42516 4.50189 7.59595L4.4967 7.75V17.25C4.4967 18.4409 5.42187 19.4156 6.59266 19.4948L6.7467 19.5H16.2474C17.4383 19.5 18.4131 18.5748 18.4922 17.404L18.4974 17.25V16.7522C18.4974 16.338 18.8332 16.0022 19.2474 16.0022C19.6271 16.0022 19.9409 16.2844 19.9906 16.6504L19.9974 16.7522V17.25C19.9974 19.2543 18.4251 20.8913 16.4466 20.9948L16.2474 21H6.7467C4.74244 21 3.10543 19.4276 3.0019 17.4492L2.9967 17.25V7.75C2.9967 5.74574 4.56907 4.10873 6.54755 4.0052L6.7467 4H10.2109H6.7467ZM14.5007 6.51985V3.75C14.5007 3.12603 15.2075 2.78995 15.6877 3.1398L15.7699 3.20874L21.7645 8.95874C22.0442 9.22709 22.0697 9.65811 21.8408 9.95607L21.7646 10.0412L15.77 15.793C15.3197 16.2251 14.5878 15.9477 14.5078 15.3589L14.5007 15.2519V12.5265L14.1572 12.5566C11.7575 12.807 9.45748 13.8879 7.24265 15.8174C6.72354 16.2696 5.92041 15.842 6.00579 15.1588C6.67058 9.8393 9.45245 6.9073 14.2013 6.5395L14.5007 6.51985V3.75V6.51985ZM16.0007 5.50864V7.25C16.0007 7.66421 15.6649 8 15.2507 8C11.3773 8 8.97667 9.67613 7.93943 13.1572L7.86037 13.4358L8.21256 13.1989C10.449 11.7372 12.7985 11 15.2507 11C15.6304 11 15.9442 11.2822 15.9939 11.6482L16.0007 11.75V13.4928L20.1619 9.50009L16.0007 5.50864Z"/></svg>