<svg width="18" height="18" viewBox="0 0 18 18" xmlns="http://www.w3.org/2000/svg" fill="currentColor"><path d="M12 8V6C12 4.346 10.654 3 9 3C7.346 3 6 4.346 6 6V8C4.897 8 4 8.897 4 10V13C4 14.103 4.897 15 6 15H12C13.103 15 14 14.103 14 13V10C14 8.897 13.103 8 12 8ZM7 6C7 4.897 7.897 4 9 4C10.103 4 11 4.897 11 6V8H7V6ZM13 13C13 13.551 12.551 14 12 14H6C5.449 14 5 13.551 5 13V10C5 9.449 5.449 9 6 9H12C12.551 9 13 9.449 13 10V13ZM10 11C10 11.552 9.552 12 9 12C8.448 12 8 11.552 8 11C8 10.448 8.448 10 9 10C9.552 10 10 10.448 10 11Z"/></svg>