<svg width="16" height="16" viewBox="0 0 16 16" xmlns="http://www.w3.org/2000/svg" fill="currentColor"><path d="M8 9C8.55228 9 9 9.44771 9 10C9 10.5523 8.55228 11 8 11C7.44772 11 7 10.5523 7 10C7 9.44771 7.44772 9 8 9Z"/><path fill-rule="evenodd" clip-rule="evenodd" d="M8 1C9.654 1 11 2.346 11 4V6H12C13.103 6 14 6.897 14 8V13C14 14.103 13.103 15 12 15H4C2.897 15 2 14.103 2 13V8C2 6.897 2.897 6 4 6H5V4C5 2.346 6.346 1 8 1ZM4 7C3.449 7 3 7.449 3 8V13C3 13.551 3.449 14 4 14H12C12.551 14 13 13.551 13 13V8C13 7.449 12.551 7 12 7H4ZM8 2C6.897 2 6 2.897 6 4V6H10V4C10 2.897 9.103 2 8 2Z"/></svg>