<svg width="16" height="16" viewBox="0 0 16 16" xmlns="http://www.w3.org/2000/svg" fill="currentColor"><mask id="mask0" mask-type="alpha" maskUnits="userSpaceOnUse" x="0" y="0" width="16" height="16"><path fill-rule="evenodd" clip-rule="evenodd" d="M11.3459 15.8907C11.5979 15.9889 11.8853 15.9826 12.1396 15.8602L15.4337 14.2752C15.7799 14.1086 16 13.7583 16 13.374V2.62613C16 2.24181 15.7799 1.89149 15.4337 1.72492L12.1396 0.139801C11.8058 -0.0208207 11.4151 0.0185215 11.1222 0.231511C11.0803 0.261937 11.0405 0.295909 11.003 0.333346L4.69681 6.08664L1.94995 4.00154C1.69425 3.80744 1.33658 3.82335 1.09909 4.03938L0.218085 4.84078C-0.0724084 5.10503 -0.0727413 5.56204 0.217366 5.82671L2.59954 8.00001L0.217366 10.1733C-0.0727413 10.438 -0.0724084 10.895 0.218085 11.1592L1.09909 11.9607C1.33658 12.1767 1.69425 12.1926 1.94995 11.9985L4.69681 9.91339L11.003 15.6667C11.1028 15.7665 11.2199 15.8417 11.3459 15.8907ZM12.0024 4.36783L7.21746 8.00001L12.0024 11.6322V4.36783Z"/></mask><g mask="url(#mask0)"><path fill-rule="evenodd" clip-rule="evenodd" d="M11.3362 15.8907C11.5882 15.9889 11.8756 15.9826 12.1299 15.8602L15.424 14.2752C15.7702 14.1086 15.9903 13.7583 15.9903 13.374V2.62613C15.9903 2.24181 15.7702 1.89149 15.424 1.72492L12.1299 0.139801C11.7961 -0.0208207 11.4054 0.0185215 11.1125 0.231511C11.0706 0.261937 11.0307 0.295909 10.9933 0.333346L4.68711 6.08664L1.94025 4.00154C1.68454 3.80744 1.32688 3.82335 1.08939 4.03938L0.20838 4.84078C-0.0821129 5.10503 -0.0824459 5.56204 0.207661 5.82671L2.58983 8.00001L0.207661 10.1733C-0.0824459 10.438 -0.0821129 10.895 0.20838 11.1592L1.08939 11.9607C1.32688 12.1767 1.68454 12.1926 1.94025 11.9985L4.68711 9.91339L10.9933 15.6667C11.0931 15.7665 11.2102 15.8417 11.3362 15.8907ZM11.9927 4.36783L7.20775 8.00001L11.9927 11.6322V4.36783Z"/></g></svg>