<svg width="18" height="18" viewBox="0 0 18 18" xmlns="http://www.w3.org/2000/svg" fill="currentColor"><path d="M14.839 4.64402L9.419 2.14302C9.153 2.02002 8.848 2.02102 8.58 2.14302L3.161 4.64402C2.456 4.97002 2 5.68302 2 6.46002V12C2 13.103 2.897 14 4 14H14C15.103 14 16 13.103 16 12V6.46002C16 5.68202 15.544 4.96902 14.839 4.64402ZM3.581 5.55202L9 3.05102L14.419 5.55202C14.697 5.68002 14.897 5.92802 14.969 6.21802L9 9.43302L3.031 6.21802C3.104 5.92802 3.303 5.68002 3.581 5.55202ZM14 13H4C3.448 13 3 12.552 3 12V7.33702L8.763 10.44C8.837 10.48 8.919 10.5 9 10.5C9.081 10.5 9.163 10.48 9.237 10.44L15 7.33702V12C15 12.552 14.552 13 14 13Z"/></svg>