<svg width="16" height="16" viewBox="0 0 16 16" xmlns="http://www.w3.org/2000/svg" fill="currentColor"><path d="M8.26844 1.07817C8.10465 0.973944 7.89535 0.973944 7.73156 1.07817L2.92625 4.1361C2.34935 4.50321 2 5.13962 2 5.82342V11C2 12.1046 2.89543 13 4 13H12C13.1046 13 14 12.1046 14 11V5.82342C14 5.13962 13.6506 4.50321 13.0738 4.1361L8.26844 1.07817ZM3.46313 4.97976L8 2.09265L12.5369 4.97976C12.8023 5.14868 12.9714 5.43163 12.9967 5.74214L7.99974 8.43209L3.00351 5.73967C3.02948 5.43013 3.19838 5.14823 3.46313 4.97976ZM3 6.87374L7.76242 9.44016C7.91042 9.51991 8.08859 9.51995 8.23662 9.44026L13 6.87606V11C13 11.5523 12.5523 12 12 12H4C3.44772 12 3 11.5523 3 11V6.87374Z"/></svg>