<svg width="16" height="16" viewBox="0 0 16 16" xmlns="http://www.w3.org/2000/svg" fill="currentColor"><path d="M9 3.5V11.5C9 11.776 8.776 12 8.5 12C8.224 12 8 11.776 8 11.5V4.831L5.376 7.83C5.187 8.048 4.814 8.048 4.624 7.83L2 4.831V11.5C2 11.776 1.776 12 1.5 12C1.224 12 1 11.776 1 11.5V3.5C1 3.292 1.129 3.105 1.324 3.032C1.521 2.96 1.74 3.014 1.876 3.171L5 6.741L8.124 3.171C8.261 3.014 8.478 2.959 8.676 3.032C8.871 3.105 9 3.292 9 3.5ZM14.854 9.146C14.659 8.951 14.342 8.951 14.147 9.146L13.001 10.292V3.5C13.001 3.224 12.777 3 12.501 3C12.225 3 12.001 3.224 12.001 3.5V10.293L10.855 9.147C10.66 8.952 10.343 8.952 10.148 9.147C9.953 9.342 9.953 9.659 10.148 9.854L12.148 11.854C12.246 11.952 12.757 11.952 12.855 11.854L14.855 9.854C15.05 9.659 15.05 9.342 14.855 9.147L14.854 9.146Z"/></svg>