<svg width="16" height="16" viewBox="0 0 16 16" xmlns="http://www.w3.org/2000/svg" fill="currentColor"><path fill-rule="evenodd" clip-rule="evenodd" d="M14.5565 7.87462C14.5385 7.89312 14.5205 7.91112 14.5025 7.92862L8.69849 13.6201C8.62599 13.6906 8.62449 13.8061 8.69499 13.8786C8.69599 13.8801 8.69749 13.8811 8.69849 13.8821L9.89049 15.0516C10.1075 15.2626 10.1125 15.6101 9.90149 15.8276C9.89799 15.8311 9.89449 15.8351 9.89049 15.8386C9.66699 16.0556 9.31199 16.0556 9.08849 15.8386L7.89649 14.6701C7.38949 14.1776 7.37799 13.3671 7.87049 12.8601C7.87899 12.8511 7.88749 12.8426 7.89649 12.8341L13.7005 7.14212C14.352 6.50762 14.3665 5.46512 13.732 4.81362C13.7215 4.80312 13.711 4.79262 13.7005 4.78212L13.667 4.74962C12.998 4.09862 11.9325 4.09762 11.2625 4.74762L6.48099 9.43712L6.47949 9.43862L6.41399 9.50312C6.19049 9.72062 5.83449 9.72062 5.61149 9.50312C5.39449 9.29162 5.38949 8.94462 5.60049 8.72712C5.60399 8.72362 5.60749 8.71962 5.61149 8.71612L10.46 3.96062C11.1105 3.32512 11.123 2.28262 10.4875 1.63212C10.478 1.62212 10.468 1.61262 10.458 1.60262C9.78799 0.950619 8.72099 0.950619 8.05149 1.60262L1.63499 7.89512C1.41149 8.11212 1.05649 8.11212 0.832987 7.89512C0.615987 7.68412 0.610987 7.33662 0.821987 7.11912C0.825487 7.11562 0.828987 7.11162 0.832987 7.10812L7.24999 0.815119C8.36599 -0.271381 10.1445 -0.271381 11.2605 0.815119C11.8905 1.42762 12.189 2.30512 12.063 3.17512C12.9435 3.05012 13.8325 3.34062 14.469 3.96162L14.5025 3.99512C15.5885 5.05162 15.613 6.78812 14.5565 7.87412V7.87462ZM12.8655 6.32212C13.083 6.11062 13.0875 5.76362 12.8765 5.54612C12.873 5.54262 12.8695 5.53862 12.8655 5.53512C12.642 5.31762 12.286 5.31762 12.063 5.53512L7.31699 10.1896C6.64699 10.8416 5.57999 10.8416 4.91049 10.1896C4.25899 9.55512 4.24449 8.51262 4.87899 7.86112C4.88949 7.85062 4.89999 7.84012 4.91049 7.82962L9.65699 3.17512C9.87399 2.96362 9.87899 2.61662 9.66799 2.39912C9.66449 2.39562 9.66099 2.39162 9.65699 2.38812C9.43349 2.17062 9.07749 2.17062 8.85449 2.38812L4.10849 7.04262C3.02249 8.09912 2.99799 9.83562 4.05449 10.9216C4.07249 10.9401 4.09049 10.9581 4.10849 10.9756C5.22499 12.0616 7.00299 12.0616 8.11899 10.9756L12.8655 6.32112V6.32212Z"/></svg>