<svg width="16" height="16" viewBox="0 0 16 16" xmlns="http://www.w3.org/2000/svg" fill="currentColor"><path d="M8.00049 1.5C11.5903 1.5 14.5005 4.41015 14.5005 8C14.5005 9.81693 13.2721 11.25 11.7922 11.25C10.9775 11.25 10.4006 10.865 10.048 10.1825C9.57809 10.8322 8.87321 11.25 8.00049 11.25C6.34397 11.25 5.29215 9.74463 5.29215 8C5.29215 6.25537 6.34397 4.75 8.00049 4.75C8.64176 4.75 9.1924 4.97559 9.62649 5.35333L9.62549 5.29167C9.62549 4.99251 9.868 4.75 10.1672 4.75C10.4331 4.75 10.6542 4.94162 10.7 5.1943L10.7088 5.29167V8C10.7088 9.47641 11.0917 10.1667 11.7922 10.1667C12.6336 10.1667 13.4172 9.25251 13.4172 8C13.4172 5.00846 10.992 2.58333 8.00049 2.58333C5.00895 2.58333 2.58382 5.00846 2.58382 8C2.58382 10.9915 5.00895 13.4167 8.00049 13.4167C8.45122 13.4167 8.89412 13.3617 9.32234 13.2544L9.64064 13.164L9.86279 13.0882C10.1437 12.9854 10.4548 13.1297 10.5577 13.4106C10.6605 13.6915 10.5162 14.0026 10.2352 14.1055C10.147 14.1378 10.058 14.1682 9.96828 14.1967C9.33707 14.397 8.67541 14.5 8.00049 14.5C4.41064 14.5 1.50049 11.5898 1.50049 8C1.50049 4.41015 4.41064 1.5 8.00049 1.5ZM8.00049 5.83333C7.04243 5.83333 6.37549 6.78786 6.37549 8C6.37549 9.21214 7.04243 10.1667 8.00049 10.1667C8.95855 10.1667 9.62549 9.21214 9.62549 8C9.62549 6.78786 8.95855 5.83333 8.00049 5.83333Z"/></svg>