<svg width="16" height="16" viewBox="0 0 16 16" fill="none" xmlns="http://www.w3.org/2000/svg">
<path d="M10.4655 12.36C9.54067 12.896 8.47999 13.1517 7.41251 13.096C6.80294 13.1419 6.19062 13.0561 5.61715 12.8445C5.04367 12.6328 4.52247 12.3002 4.08894 11.8692C3.65541 11.4382 3.31971 10.919 3.10464 10.3468C2.88957 9.77457 2.80017 9.16278 2.84251 8.55295C2.81695 7.82964 2.93757 7.10861 3.19715 6.433C3.45674 5.75739 3.84995 5.14109 4.35325 4.62098C4.85656 4.10086 5.45961 3.68763 6.12634 3.40601C6.79306 3.12438 7.50975 2.98015 8.23351 2.98195C10.6105 2.98195 12.6465 4.35695 12.6465 6.98795C12.6465 9.16995 11.3545 10.648 9.74651 10.648C9.07051 10.648 8.64651 10.374 8.62051 9.73095C8.4313 10.0216 8.1702 10.2583 7.86253 10.4183C7.55486 10.5783 7.21107 10.656 6.86451 10.644C5.89551 10.644 5.23551 9.99895 5.23551 8.72095C5.23551 6.95795 6.38351 5.32095 7.85551 5.32095C8.16506 5.28125 8.47864 5.35303 8.7401 5.52343C9.00156 5.69383 9.19384 5.95172 9.28251 6.25095L9.49351 5.44195H10.3935L9.60051 8.64595C9.37451 9.56195 9.47051 9.86095 9.94251 9.86095C10.9265 9.86095 11.7755 8.65095 11.7755 7.03595C11.7755 4.96795 10.3305 3.77095 8.16451 3.77095C5.52251 3.77095 3.79151 5.90295 3.78351 8.55695C3.74255 9.05277 3.80954 9.55158 3.97985 10.019C4.15016 10.4865 4.41976 10.9115 4.77008 11.2647C5.1204 11.618 5.54311 11.8911 6.00912 12.0654C6.47513 12.2396 6.97336 12.3108 7.46951 12.274C8.44251 12.3142 9.40876 12.0954 10.2695 11.64L10.4655 12.36ZM6.21751 8.63895C6.21751 9.42695 6.52451 9.84495 7.13051 9.84495C7.88851 9.84495 8.51051 9.24495 8.81351 8.01395C9.13651 6.74595 8.84951 6.09995 7.94051 6.09995C6.90051 6.09995 6.21751 7.43895 6.21751 8.63895Z" fill="white"/>
</svg>
