<svg width="16" height="16" viewBox="0 0 16 16" xmlns="http://www.w3.org/2000/svg" fill="currentColor"><path d="M5.00012 4.5C5.00012 2.84315 6.34327 1.5 8.00012 1.5C9.65698 1.5 11.0001 2.84315 11.0001 4.5V8.5C11.0001 10.1569 9.65698 11.5 8.00012 11.5C6.34327 11.5 5.00012 10.1569 5.00012 8.5V4.5Z" stroke="#C5C5C5"/><path fill-rule="evenodd" clip-rule="evenodd" d="M7.50012 16V14H8.50012V16H7.50012Z"/><path fill-rule="evenodd" clip-rule="evenodd" d="M7.50012 14C4.7387 14 2.50012 11.7614 2.50012 9H3.50012C3.50012 11.2091 5.29098 13 7.50012 13H8.50012C10.7093 13 12.5001 11.2091 12.5001 9H13.5001C13.5001 11.7614 11.2615 14 8.50012 14H7.50012Z"/></svg>