<svg width="16" height="16" viewBox="0 0 16 16" xmlns="http://www.w3.org/2000/svg" fill="currentColor"><path d="M8 1C6.34315 1 5 2.34315 5 4V8C5 9.65685 6.34315 11 8 11C9.65685 11 11 9.65685 11 8V4C11 2.34315 9.65685 1 8 1Z"/><path d="M11.6955 9.53073C11.8965 9.04543 12 8.52529 12 8H13C13 8.33669 12.966 8.67169 12.899 9C12.8353 9.31195 12.7418 9.61785 12.6194 9.91342C12.3681 10.52 11.9998 11.0712 11.5355 11.5355C11.0712 11.9998 10.52 12.3681 9.91342 12.6194C9.46134 12.8067 8.98508 12.9262 8.5 12.9749V15H7.5V12.9749C7.01492 12.9262 6.53866 12.8067 6.08658 12.6194C5.47995 12.3681 4.92876 11.9998 4.46447 11.5355C4.00017 11.0712 3.63188 10.52 3.3806 9.91342C3.25818 9.61785 3.1647 9.31195 3.10102 9C3.03401 8.67169 3 8.33669 3 8H4C4.00006 8.52512 4.10353 9.04558 4.30448 9.53073C4.5055 10.016 4.80014 10.457 5.17157 10.8284C5.54301 11.1999 5.98396 11.4945 6.46927 11.6955C6.95457 11.8965 7.47471 12 8 12C8.52529 12 9.04543 11.8965 9.53073 11.6955C10.016 11.4945 10.457 11.1999 10.8284 10.8284C11.1999 10.457 11.4945 10.016 11.6955 9.53073Z"/></svg>