<svg width="16" height="16" viewBox="0 0 16 16" xmlns="http://www.w3.org/2000/svg" fill="currentColor"><path d="M8 2.00049C6.61929 2.00049 5.5 3.11978 5.5 4.50049V8.00049C5.5 9.3812 6.61929 10.5005 8 10.5005C9.38071 10.5005 10.5 9.3812 10.5 8.00049V4.50049C10.5 3.11978 9.38071 2.00049 8 2.00049ZM4 7.50049C4.27614 7.50049 4.5 7.72435 4.5 8.00049C4.5 9.93349 6.067 11.5005 8 11.5005C9.933 11.5005 11.5 9.93349 11.5 8.00049C11.5 7.72435 11.7239 7.50049 12 7.50049C12.2761 7.50049 12.5 7.72435 12.5 8.00049C12.5 10.3168 10.75 12.2243 8.5 12.473V13.5005C8.5 13.7766 8.27614 14.0005 8 14.0005C7.72386 14.0005 7.5 13.7766 7.5 13.5005V12.473C5.25002 12.2243 3.5 10.3168 3.5 8.00049C3.5 7.72435 3.72386 7.50049 4 7.50049Z"/></svg>