<svg width="16" height="16" viewBox="0 0 16 16" xmlns="http://www.w3.org/2000/svg" fill="currentColor"><path d="M10.5001 4.5V8.5C10.5001 10.1569 9.15698 11.5 7.50012 11.5C5.84327 11.5 4.50012 10.1569 4.50012 8.5V4.5C4.50012 2.84315 5.84327 1.5 7.50012 1.5C9.15698 1.5 10.5001 2.84315 10.5001 4.5Z" stroke="#C5C5C5"/><path fill-rule="evenodd" clip-rule="evenodd" d="M7.00012 16V14H8.00012V16H7.00012Z"/><path fill-rule="evenodd" clip-rule="evenodd" d="M7.00012 14C4.2387 14 2.00012 11.7614 2.00012 9H3.00012C3.00012 11.2091 4.79098 13 7.00012 13H8.00012C10.2093 13 12.0001 11.2091 12.0001 9H13.0001C13.0001 11.7614 10.7615 14 8.00012 14H7.00012Z"/></svg>