<svg width="16" height="16" viewBox="0 0 16 16" xmlns="http://www.w3.org/2000/svg" fill="currentColor"><path d="M5.5 4.5C5.5 3.119 6.619 2 8 2C9.381 2 10.5 3.119 10.5 4.5V8.5C10.5 9.881 9.381 11 8 11C6.619 11 5.5 9.881 5.5 8.5V4.5ZM4 8C4.276 8 4.5 8.224 4.5 8.5C4.5 10.433 6.067 12 8 12C9.933 12 11.5 10.433 11.5 8.5C11.5 8.224 11.724 8 12 8C12.276 8 12.5 8.224 12.5 8.5C12.5 10.816 10.75 12.724 8.5 12.973V14.501C8.5 14.777 8.276 15.001 8 15.001C7.724 15.001 7.5 14.777 7.5 14.501V12.973C5.25 12.724 3.5 10.817 3.5 8.5C3.5 8.224 3.724 8 4 8Z"/></svg>