<svg width="16" height="16" viewBox="0 0 16 16" xmlns="http://www.w3.org/2000/svg" fill="currentColor"><path fill-rule="evenodd" clip-rule="evenodd" d="M5.00012 8.5V4.5C5.00012 3.11929 6.11941 2 7.50012 2C8.88083 2 10.0001 3.11929 10.0001 4.5V8.5C10.0001 9.88071 8.88083 11 7.50012 11C6.11941 11 5.00012 9.88071 5.00012 8.5ZM7.50012 1C5.56713 1 4.00012 2.567 4.00012 4.5V8.5C4.00012 10.433 5.56713 12 7.50012 12C9.43312 12 11.0001 10.433 11.0001 8.5V4.5C11.0001 2.567 9.43312 1 7.50012 1Z"/><path fill-rule="evenodd" clip-rule="evenodd" d="M7.00012 16V14H8.00012V16H7.00012Z"/><path fill-rule="evenodd" clip-rule="evenodd" d="M7.00012 14C4.2387 14 2.00012 11.7614 2.00012 9H3.00012C3.00012 11.2091 4.79098 13 7.00012 13H8.00012C10.2093 13 12.0001 11.2091 12.0001 9H13.0001C13.0001 11.7614 10.7615 14 8.00012 14H7.00012Z"/></svg>