<svg width="16" height="16" viewBox="0 0 16 16" xmlns="http://www.w3.org/2000/svg" fill="currentColor"><path d="M8 11C9.654 11 11 9.654 11 8V4C11 2.346 9.654 1 8 1C6.346 1 5 2.346 5 4V8C5 9.654 6.346 11 8 11ZM6 4C6 2.897 6.897 2 8 2C9.103 2 10 2.897 10 4V8C10 9.103 9.103 10 8 10C6.897 10 6 9.103 6 8V4ZM13 7.5V8C13 10.586 11.02 12.694 8.5 12.949V14.5C8.5 14.776 8.276 15 8 15C7.724 15 7.5 14.776 7.5 14.5V12.949C4.98 12.694 3 10.585 3 8V7.5C3 7.224 3.224 7 3.5 7C3.776 7 4 7.224 4 7.5V8C4 10.206 5.794 12 8 12C10.206 12 12 10.206 12 8V7.5C12 7.224 12.224 7 12.5 7C12.776 7 13 7.224 13 7.5Z"/></svg>