<svg width="18" height="18" viewBox="0 0 18 18" xmlns="http://www.w3.org/2000/svg" fill="currentColor"><path d="M6.5 5.5C6.5 4.119 7.619 3 9 3C10.381 3 11.5 4.119 11.5 5.5V9.5C11.5 10.881 10.381 12 9 12C7.619 12 6.5 10.881 6.5 9.5V5.5ZM9 4C8.172 4 7.5 4.672 7.5 5.5V9.5C7.5 10.328 8.172 11 9 11C9.828 11 10.5 10.328 10.5 9.5V5.5C10.5 4.672 9.828 4 9 4ZM5 9C5.276 9 5.5 9.224 5.5 9.5C5.5 11.433 7.067 13 9 13C10.933 13 12.5 11.433 12.5 9.5C12.5 9.224 12.724 9 13 9C13.276 9 13.5 9.224 13.5 9.5C13.5 11.816 11.75 13.724 9.5 13.973V15.501C9.5 15.777 9.276 16.001 9 16.001C8.724 16.001 8.5 15.777 8.5 15.501V13.973C6.25 13.724 4.5 11.817 4.5 9.5C4.5 9.224 4.724 9 5 9Z"/></svg>