<svg width="16" height="16" viewBox="0 0 16 16" xmlns="http://www.w3.org/2000/svg" fill="currentColor"><path fill-rule="evenodd" clip-rule="evenodd" d="M5.50012 8.5V4.5C5.50012 3.11929 6.61941 2 8.00012 2C9.38083 2 10.5001 3.11929 10.5001 4.5V8.5C10.5001 9.88071 9.38083 11 8.00012 11C6.61941 11 5.50012 9.88071 5.50012 8.5ZM8.00012 1C6.06713 1 4.50012 2.567 4.50012 4.5V8.5C4.50012 10.433 6.06713 12 8.00012 12C9.93312 12 11.5001 10.433 11.5001 8.5V4.5C11.5001 2.567 9.93312 1 8.00012 1Z"/><path fill-rule="evenodd" clip-rule="evenodd" d="M7.50012 16V14H8.50012V16H7.50012Z"/><path fill-rule="evenodd" clip-rule="evenodd" d="M7.50012 14C4.7387 14 2.50012 11.7614 2.50012 9H3.50012C3.50012 11.2091 5.29098 13 7.50012 13H8.50012C10.7093 13 12.5001 11.2091 12.5001 9H13.5001C13.5001 11.7614 11.2615 14 8.50012 14H7.50012Z"/></svg>