<svg width="16" height="16" viewBox="0 0 16 16" fill="none" xmlns="http://www.w3.org/2000/svg">
<path fill-rule="evenodd" clip-rule="evenodd" d="M8.57 1L14.77 5L15 5.38V14.58L14.24 15L8 11L1.76 15L1 14.58V5.38L1.23 5L7.43 1H8.57ZM8.51 10.13L14 13.67V5.65L8.51 2.15V5H7.51V2.13L2 5.67V13.67L7.51 10.11V10.13H8.51ZM9.41 5.35002L10.12 4.65002L12.59 7.13002V7.84002L10.13 10.3L9.43 9.60003L11.02 8.00002H8.95H7.08H5.02L6.6 9.60003L5.9 10.3L3.44 7.84002V7.13002L5.92 4.65002L6.62 5.35002L4.98 7.00002H7.08H8.95H11.06L9.41 5.35002Z" fill="white"/>
</svg>
