<svg width="16" height="16" viewBox="0 0 16 16" fill="none" xmlns="http://www.w3.org/2000/svg">
<path d="M15 5.66L8.18 3H7.82L1 5.66V12H2V7L4.31 7.9C3.79973 8.62666 3.52405 9.49208 3.52 10.38C3.51012 10.4898 3.51012 10.6002 3.52 10.71V10.82L3.8 11.22L7.78 13H8.19L12.13 11.19L12.41 10.79V10.67C12.41 10.57 12.41 10.46 12.41 10.35C12.4043 9.46696 12.1325 8.60614 11.63 7.88L15 6.57V5.66ZM11.48 10.34V10.41L8 12L4.5 10.4C4.49532 10.3803 4.49532 10.3597 4.5 10.34C4.50544 9.56927 4.76956 8.82269 5.25 8.22L7.83 9.22H8.19L10.75 8.22C11.226 8.8238 11.4834 9.57112 11.48 10.34ZM8 8.25L2.52 6.12L8 4L13.48 6.14L8 8.25Z" fill="white"/>
</svg>
