<svg width="16" height="16" viewBox="0 0 16 16" fill="none" xmlns="http://www.w3.org/2000/svg">
<path fill-rule="evenodd" clip-rule="evenodd" d="M10.2322 10.7071L8.5 12.4393L8.5 9.00001H7.5L7.5 12.4393L5.76777 10.7071L5.06066 11.4142L7.64644 14H8.35355L10.9393 11.4142L10.2322 10.7071ZM5.06066 3.58579L5.76777 4.29289L7.5 2.56066V5.99999L8.5 5.99999L8.5 2.56066L10.2322 4.29289L10.9393 3.58578L8.35355 1H7.64644L5.06066 3.58578L5.06066 3.58579ZM4.79289 5.26776L3.06066 6.99999H6.49999V7.99999H3.06066L4.79289 9.73222L4.08579 10.4393L1.5 7.85355V7.14644L4.08579 4.56065L4.79289 5.26776ZM9.50001 6.99999L12.9393 6.99999L11.2071 5.26776L11.9142 4.56065L14.5 7.14644L14.5 7.85354L11.9142 10.4393L11.2071 9.73222L12.9393 7.99999L9.50001 7.99999V6.99999Z" fill="#C5C5C5"/>
</svg>
