<svg width="16" height="16" viewBox="0 0 16 16" fill="none" xmlns="http://www.w3.org/2000/svg">
<path fill-rule="evenodd" clip-rule="evenodd" d="M1.5 5.00004H4.29L8.15 1.17004L9 1.52004V14.52L8.15 14.85L4.29 11H1.5L1 10.5V5.50004L1.5 5.00004ZM4.85 10.17L8 13.31V2.73004L4.85 5.85004L4.5 6.00004H2V10H4.5L4.85 10.17ZM14.2314 6.06152L14.9385 6.76861L13.2071 8.50006L14.9386 10.2315L14.2314 10.9386L12.5 9.20716L10.7685 10.9386L10.0614 10.2315L11.7929 8.50007L10.0615 6.76864L10.7686 6.06153L12.5 7.79297L14.2314 6.06152Z" fill="white"/>
</svg>
