<svg width="16" height="16" viewBox="0 0 16 16" xmlns="http://www.w3.org/2000/svg" fill="currentColor"><path d="M5 14C4.448 14 4 13.552 4 13V3C4 2.448 4.448 2 5 2H8V4.5C8 5.328 8.672 6 9.5 6H12V6.025C12.344 6.056 12.677 6.121 13 6.213V5.414C13 5.016 12.842 4.635 12.561 4.353L9.647 1.439C9.366 1.158 8.984 1 8.586 1H5C3.895 1 3 1.895 3 3V13C3 14.105 3.895 15 5 15H7.261C7.008 14.693 6.791 14.357 6.607 14H5ZM9 2.207L11.793 5H9.5C9.224 5 9 4.776 9 4.5V2.207ZM11.5 7C9.015 7 7 9.015 7 11.5C7 13.985 9.015 16 11.5 16C13.985 16 16 13.985 16 11.5C16 9.015 13.985 7 11.5 7ZM13.5 12H12V13.5C12 13.776 11.776 14 11.5 14C11.224 14 11 13.776 11 13.5V12H9.5C9.224 12 9 11.776 9 11.5C9 11.224 9.224 11 9.5 11H11V9.5C11 9.224 11.224 9 11.5 9C11.776 9 12 9.224 12 9.5V11H13.5C13.776 11 14 11.224 14 11.5C14 11.776 13.776 12 13.5 12Z"/></svg>