<svg width="16" height="16" viewBox="0 0 16 16" xmlns="http://www.w3.org/2000/svg" fill="currentColor"><path d="M2 4.5V6H5.58579C5.71839 6 5.84557 5.94732 5.93934 5.85355L7.29289 4.5L5.93934 3.14645C5.84557 3.05268 5.71839 3 5.58579 3H3.5C2.67157 3 2 3.67157 2 4.5ZM1 4.5C1 3.11929 2.11929 2 3.5 2H5.58579C5.98361 2 6.36514 2.15804 6.64645 2.43934L8.20711 4H12.5C13.8807 4 15 5.11929 15 6.5V7.25716C14.6929 7.00353 14.3578 6.78261 14 6.59971V6.5C14 5.67157 13.3284 5 12.5 5H8.20711L6.64645 6.56066C6.36514 6.84197 5.98361 7 5.58579 7H2V11.5C2 12.3284 2.67157 13 3.5 13H6.20703C6.30564 13.3486 6.43777 13.6832 6.59971 14H3.5C2.11929 14 1 12.8807 1 11.5V4.5ZM16 11.5C16 13.9853 13.9853 16 11.5 16C9.01472 16 7 13.9853 7 11.5C7 9.01472 9.01472 7 11.5 7C13.9853 7 16 9.01472 16 11.5ZM12 9C12 8.72386 11.7761 8.5 11.5 8.5C11.2239 8.5 11 8.72386 11 9V11H9C8.72386 11 8.5 11.2239 8.5 11.5C8.5 11.7761 8.72386 12 9 12H11V14C11 14.2761 11.2239 14.5 11.5 14.5C11.7761 14.5 12 14.2761 12 14V12H14C14.2761 12 14.5 11.7761 14.5 11.5C14.5 11.2239 14.2761 11 14 11H12V9Z"/></svg>