<svg width="16" height="16" viewBox="0 0 16 16" xmlns="http://www.w3.org/2000/svg" fill="currentColor"><path d="M14 3.49999V6.49999C14 7.87899 12.879 8.99999 11.5 8.99999H3.70703L6.35303 11.646C6.54803 11.841 6.54803 12.158 6.35303 12.353C6.25503 12.451 6.12703 12.499 5.99903 12.499C5.87103 12.499 5.74303 12.45 5.64503 12.353L2.14503 8.85299C1.95003 8.65799 1.95003 8.34099 2.14503 8.14599L5.64503 4.64599C5.84003 4.45099 6.15703 4.45099 6.35203 4.64599C6.54703 4.84099 6.54703 5.15799 6.35203 5.35299L3.70603 7.99899H11.499C12.326 7.99899 12.999 7.32599 12.999 6.49899V3.49899C12.999 3.22299 13.223 2.99899 13.499 2.99899C13.775 2.99899 13.999 3.22299 13.999 3.49899L14 3.49999Z"/></svg>