<svg width="16" height="16" xmlns="http://www.w3.org/2000/svg"><path fill-rule="evenodd" clip-rule="evenodd" d="M13.863 5.673c.114-.28.482-1.392-.113-2.897 0 0-.92-.288-3.01 1.138-.875-.245-1.812-.28-2.74-.28-.927 0-1.863.035-2.738.28-2.091-1.435-3.01-1.138-3.01-1.138-.595 1.505-.227 2.617-.114 2.897-.708.76-1.137 1.74-1.137 2.93 0 4.507 2.914 5.522 6.982 5.522 4.07 0 7.018-1.015 7.018-5.521 0-1.19-.429-2.17-1.138-2.931zm-5.862 7.595c-2.888 0-5.233-.132-5.233-2.932 0-.665.333-1.295.893-1.811.936-.857 2.537-.402 4.34-.402 1.811 0 3.395-.455 4.34.402.569.516.892 1.138.892 1.811 0 2.791-2.345 2.931-5.232 2.931zM5.805 8.883c-.578 0-1.05.7-1.05 1.557 0 .858.472 1.566 1.05 1.566.577 0 1.05-.7 1.05-1.566 0-.866-.473-1.557-1.05-1.557zm4.392 0c-.577 0-1.05.691-1.05 1.557s.473 1.566 1.05 1.566c.578 0 1.05-.7 1.05-1.566 0-.866-.464-1.557-1.05-1.557z"/></svg>