<svg width="16" height="16" viewBox="0 0 16 16" xmlns="http://www.w3.org/2000/svg" fill="currentColor"><path d="M15 4V8.5C15 8.776 14.776 9 14.5 9C14.224 9 14 8.776 14 8.5V4C14 2.895 13.105 2 12 2H4C2.895 2 2 2.895 2 4V12C2 13.105 2.895 14 4 14H8.5C8.776 14 9 14.224 9 14.5C9 14.776 8.776 15 8.5 15H4C2.343 15 1 13.657 1 12V4C1 2.343 2.343 1 4 1H12C13.657 1 15 2.343 15 4ZM7.707 7H11.5C11.776 7 12 6.776 12 6.5C12 6.224 11.776 6 11.5 6H6.507C6.377 5.998 6.246 6.047 6.147 6.146C6.094 6.199 6.055 6.261 6.031 6.327C6.012 6.379 6.001 6.435 6.001 6.493V6.499V11.499C6.001 11.775 6.225 11.999 6.501 11.999C6.777 11.999 7.001 11.775 7.001 11.499V7.706L13.147 13.852C13.342 14.047 13.659 14.047 13.854 13.852C14.049 13.657 14.049 13.34 13.854 13.145L7.708 6.999L7.707 7Z"/></svg>