<svg width="18" height="18" viewBox="0 0 18 18" xmlns="http://www.w3.org/2000/svg" fill="currentColor"><path d="M9.85399 16.146L7.29299 13.586C7.74899 12.986 7.99699 12.253 7.99999 11.499C7.99999 10.807 7.79499 10.13 7.40999 9.555C7.02499 8.979 6.47899 8.531 5.83899 8.266C5.19899 8.001 4.49599 7.932 3.81699 8.067C3.13799 8.202 2.51399 8.535 2.02499 9.025C1.53599 9.514 1.20199 10.138 1.06699 10.817C0.931991 11.496 1.00099 12.2 1.26599 12.839C1.53099 13.479 1.97999 14.025 2.55499 14.41C3.13099 14.795 3.80699 15 4.49899 15C5.25299 14.998 5.98499 14.75 6.58499 14.294L9.14499 16.854C9.23899 16.948 9.36599 17.001 9.49899 17.001C9.63199 17.001 9.75899 16.948 9.85299 16.855C9.94699 16.761 9.99999 16.634 9.99999 16.501C9.99999 16.368 9.94699 16.241 9.85399 16.147V16.146ZM6.80899 12.455C6.61999 12.912 6.29899 13.302 5.88799 13.577C5.47699 13.852 4.99399 13.998 4.49899 13.998C3.83599 13.998 3.19999 13.735 2.73099 13.266C2.26199 12.797 1.99899 12.161 1.99899 11.498C1.99899 11.005 2.14699 10.521 2.42099 10.11C2.69599 9.699 3.08599 9.378 3.54299 9.189C3.99999 9 4.50199 8.95 4.98699 9.047C5.47199 9.143 5.91699 9.382 6.26699 9.731C6.61699 10.081 6.85499 10.526 6.95099 11.011C7.04699 11.496 6.99799 11.999 6.80899 12.455ZM13.5 3H6.49999C5.11899 3 3.99999 4.119 3.99999 5.5V7.05C4.16699 7.031 4.33299 7 4.50099 7C4.66899 7 4.83399 7.03 4.99999 7.049V5.5C4.99999 4.672 5.67199 4 6.49999 4H9.49999V14.378L10.122 15H13.5C14.881 15 16 13.881 16 12.5V5.5C16 4.119 14.881 3 13.5 3ZM15 12.5C15 13.328 14.328 14 13.5 14H10.5V4H13.5C14.328 4 15 4.672 15 5.5V12.5Z"/></svg>