<svg width="18" height="18" viewBox="0 0 18 18" xmlns="http://www.w3.org/2000/svg" fill="currentColor"><path d="M16 5V9.5C16 9.776 15.776 10 15.5 10C15.224 10 15 9.776 15 9.5V5C15 3.895 14.105 3 13 3H5C3.895 3 3 3.895 3 5V13C3 14.105 3.895 15 5 15H9.5C9.776 15 10 15.224 10 15.5C10 15.776 9.776 16 9.5 16H5C3.343 16 2 14.657 2 13V5C2 3.343 3.343 2 5 2H13C14.657 2 16 3.343 16 5ZM8.707 8H12.5C12.776 8 13 7.776 13 7.5C13 7.224 12.776 7 12.5 7H7.507C7.377 6.998 7.246 7.047 7.147 7.146C7.094 7.199 7.055 7.261 7.031 7.327C7.012 7.379 7.001 7.435 7.001 7.493V7.499V12.499C7.001 12.775 7.225 12.999 7.501 12.999C7.777 12.999 8.001 12.775 8.001 12.499V8.706L14.147 14.852C14.342 15.047 14.659 15.047 14.854 14.852C15.049 14.657 15.049 14.34 14.854 14.145L8.708 7.999L8.707 8Z"/></svg>