<svg width="16" height="16" viewBox="0 0 16 16" xmlns="http://www.w3.org/2000/svg" fill="currentColor"><path d="M15 3.5V6.5C15 6.776 14.776 7 14.5 7C14.224 7 14 6.776 14 6.5V3.5C14 2.673 13.327 2 12.5 2H3.5C2.673 2 2 2.673 2 3.5V12.5C2 13.327 2.673 14 3.5 14H6.5C6.776 14 7 14.224 7 14.5C7 14.776 6.776 15 6.5 15H3.5C2.121 15 1 13.879 1 12.5V3.5C1 2.121 2.121 1 3.5 1H12.5C13.879 1 15 2.121 15 3.5ZM15 9.5C15 9.224 14.776 9 14.5 9H9.5C9.224 9 9 9.224 9 9.5V14.5C9 14.776 9.224 15 9.5 15C9.776 15 10 14.776 10 14.5V10.707L14.146 14.853C14.244 14.951 14.372 14.999 14.5 14.999C14.628 14.999 14.756 14.95 14.854 14.853C15.049 14.658 15.049 14.341 14.854 14.146L10.708 10H14.501C14.777 10 15.001 9.776 15.001 9.5H15Z"/></svg>