<svg width="18" height="18" viewBox="0 0 18 18" xmlns="http://www.w3.org/2000/svg" fill="currentColor"><path fill-rule="evenodd" clip-rule="evenodd" d="M3.81729 8.06641C4.49612 7.93148 5.19893 7.99979 5.83878 8.26465C6.47871 8.52962 7.02507 8.9778 7.41007 9.55371C7.79507 10.1287 7.99991 10.806 7.99991 11.498C7.9969 12.252 7.74887 12.985 7.29288 13.585L9.8544 16.1445C9.9474 16.2385 9.99991 16.367 9.99991 16.5C9.99991 16.633 9.94743 16.7605 9.85343 16.8545C9.75943 16.9475 9.63192 17 9.49893 17C9.36596 17 9.2394 16.9465 9.14542 16.8525L6.58487 14.293C5.98488 14.7489 5.25291 14.997 4.49893 14.999C3.80696 14.999 3.13058 14.7942 2.5546 14.4092C1.9797 14.0242 1.5305 13.4778 1.26554 12.8379C1.00067 12.1991 0.932399 11.4952 1.06729 10.8164C1.20229 10.1374 1.53633 9.51341 2.0253 9.02441C2.5143 8.53441 3.13829 8.20141 3.81729 8.06641ZM4.98722 9.0459C4.50222 8.9489 3.99988 8.99948 3.54288 9.18848C3.086 9.37749 2.69575 9.69846 2.42081 10.1094C2.14696 10.5203 1.99893 11.0042 1.99893 11.4971C1.99895 12.16 2.26238 12.7957 2.73136 13.2646C3.20034 13.7336 3.83596 13.9971 4.49893 13.9971C4.99379 13.9971 5.47668 13.851 5.88761 13.5762C6.29861 13.3012 6.62048 12.9111 6.80948 12.4541C6.99845 11.9981 7.04708 11.4947 6.95108 11.0098C6.8551 10.5251 6.61718 10.0803 6.26749 9.73047C5.91753 9.38151 5.47215 9.14192 4.98722 9.0459Z"/><path fill-rule="evenodd" clip-rule="evenodd" d="M13.4999 2C14.8809 2 15.9999 3.119 15.9999 4.5V12.5C15.9999 13.881 14.8809 15 13.4999 15H10.1239L8.99991 13.877V3H5.49991C4.67196 3.00006 3.99991 3.67204 3.99991 4.5V7.04883C3.87494 7.06282 3.74693 7.06094 3.62296 7.08594C3.40997 7.12894 3.2019 7.18682 2.99991 7.25781V4.5C2.99991 3.11904 4.11896 2.00006 5.49991 2H13.4999ZM9.99991 3V14H13.4999C14.3279 14 14.9999 13.328 14.9999 12.5V4.5C14.9999 3.672 14.3279 3 13.4999 3H9.99991Z"/></svg>