<svg width="16" height="16" viewBox="0 0 16 16" xmlns="http://www.w3.org/2000/svg" fill="currentColor"><path d="M6.13671 5.82399V4.30398C6.13671 4.17596 6.18431 4.07991 6.29527 4.01598L9.32406 2.256C9.73637 2.01602 10.228 1.90406 10.7353 1.90406C12.6382 1.90406 13.8434 3.3921 13.8434 4.97604C13.8434 5.088 13.8434 5.21602 13.8274 5.34404L10.6877 3.488C10.4975 3.37605 10.3071 3.37605 10.1168 3.488L6.13671 5.82399ZM13.209 11.7441V8.11195C13.209 7.88789 13.1138 7.72791 12.9236 7.61594L8.94344 5.27995L10.2437 4.5279C10.3547 4.46397 10.4499 4.46397 10.5609 4.5279L13.5896 6.28789C14.4619 6.79996 15.0484 7.88789 15.0484 8.94385C15.0484 10.1598 14.335 11.28 13.209 11.7441ZM5.20114 8.54404L3.90086 7.77608C3.78989 7.71215 3.7423 7.6161 3.7423 7.48808V3.96811C3.7423 2.25615 5.04259 0.960061 6.80278 0.960061C7.46883 0.960061 8.08714 1.18413 8.61056 1.58409L5.48672 3.40816C5.29649 3.52012 5.20129 3.68011 5.20129 3.90418L5.20114 8.54404ZM7.99999 10.176L6.13671 9.12005V6.8801L7.99999 5.82414L9.8631 6.8801V9.12005L7.99999 10.176ZM9.19719 15.0401C8.53113 15.0401 7.91282 14.816 7.3894 14.4161L10.5132 12.5919C10.7034 12.48 10.7987 12.3201 10.7987 12.096V7.45596L12.1149 8.22392C12.2258 8.28785 12.2734 8.3839 12.2734 8.51192V12.0319C12.2734 13.7438 10.9572 15.0401 9.19719 15.0401ZM5.43898 11.4721L2.41018 9.71211C1.53796 9.20003 0.95134 8.11211 0.95134 7.05615C0.95134 5.82414 1.68077 4.72016 2.80657 4.25611V7.9041C2.80657 8.12817 2.90177 8.28815 3.092 8.40012L7.05637 10.72L5.75609 11.4721C5.64513 11.5361 5.54993 11.5361 5.43898 11.4721ZM5.26465 14.0961C3.47278 14.0961 2.15658 12.736 2.15658 11.056C2.15658 10.928 2.17249 10.8 2.18826 10.672L5.3121 12.4961C5.50234 12.608 5.69273 12.608 5.88297 12.4961L9.8631 10.1762V11.6962C9.8631 11.8242 9.8155 11.9202 9.70454 11.9841L6.67574 13.7441C6.26344 13.9841 5.77199 14.0961 5.26465 14.0961ZM9.19719 16C11.1159 16 12.7174 14.624 13.0823 12.8C14.8582 12.3359 16 10.6559 16 8.944C16 7.82396 15.5243 6.73603 14.668 5.95201C14.7473 5.61598 14.7949 5.27995 14.7949 4.94407C14.7949 2.65612 12.9554 0.944002 10.8305 0.944002C10.4025 0.944002 9.99013 1.00794 9.57782 1.15201C8.86416 0.447988 7.88099 0 6.80278 0C4.88403 0 3.28254 1.37593 2.91768 3.19999C1.14173 3.66404 0 5.34404 0 7.056C0 8.17604 0.475669 9.26397 1.33197 10.048C1.25269 10.384 1.20509 10.72 1.20509 11.0559C1.20509 13.3438 3.04456 15.0559 5.16946 15.0559C5.59753 15.0559 6.00984 14.9921 6.42215 14.848C7.13565 15.552 8.11882 16 9.19719 16Z"/></svg>