<svg width="16" height="16" viewBox="0 0 16 16" fill="none" xmlns="http://www.w3.org/2000/svg">
<path fill-rule="evenodd" clip-rule="evenodd" d="M9.11115 4.66295C8.78225 4.88272 8.39556 4.99999 8 4.99999C7.46957 4.99999 6.96089 4.78925 6.58582 4.41417C6.21074 4.0391 6 3.53042 6 2.99999C6 2.60443 6.11727 2.2178 6.33704 1.88891C6.5568 1.56001 6.86917 1.30359 7.23462 1.15221C7.60007 1.00084 8.00224 0.961271 8.3902 1.03844C8.77816 1.11561 9.13448 1.3061 9.41418 1.5858C9.69389 1.86551 9.88438 2.22189 9.96155 2.60985C10.0387 2.99781 9.99915 3.39992 9.84778 3.76537C9.6964 4.13082 9.44004 4.44319 9.11115 4.66295ZM8.55554 2.16857C8.39109 2.05869 8.19778 1.99999 8 1.99999C7.73478 1.99999 7.48044 2.1053 7.29291 2.29284C7.10537 2.48037 7 2.73477 7 2.99999C7 3.19777 7.05864 3.39108 7.16852 3.55553C7.2784 3.71998 7.43458 3.84813 7.61731 3.92382C7.80004 3.9995 8.00109 4.01941 8.19507 3.98082C8.38905 3.94224 8.56724 3.84699 8.70709 3.70714C8.84694 3.56729 8.94219 3.38904 8.98077 3.19506C9.01936 3.00108 8.99958 2.80002 8.92389 2.6173C8.8482 2.43457 8.71999 2.27845 8.55554 2.16857ZM11.1666 2.19968C11.4133 2.03391 11.7033 1.94543 12 1.94543C12.3978 1.94543 12.7794 2.10438 13.0607 2.3873C13.342 2.67022 13.5 3.05394 13.5 3.45406C13.5 3.75243 13.412 4.04411 13.2472 4.2922C13.0824 4.54029 12.8481 4.73366 12.574 4.84784C12.2999 4.96202 11.9983 4.9919 11.7074 4.93369C11.4164 4.87548 11.1491 4.7318 10.9393 4.52081C10.7296 4.30983 10.5867 4.04102 10.5288 3.74837C10.4709 3.45573 10.5007 3.1524 10.6142 2.87673C10.7277 2.60107 10.92 2.36545 11.1666 2.19968ZM11.6464 3.80964C11.7402 3.90395 11.8674 3.95693 12 3.95693C12.1326 3.95693 12.2598 3.90395 12.3536 3.80964C12.4473 3.71533 12.5 3.58743 12.5 3.45406C12.4974 3.32149 12.4439 3.19507 12.3507 3.10132C12.2575 3.00756 12.1318 2.95376 12 2.95118C11.8674 2.95118 11.7402 3.00416 11.6464 3.09847C11.5527 3.19278 11.5 3.32068 11.5 3.45406C11.5 3.58743 11.5527 3.71533 11.6464 3.80964ZM3.19002 12.4857H5.00002V13.4914H3.19002C2.8735 13.4888 2.57083 13.3604 2.34795 13.1344C2.12506 12.9083 2.00001 12.6029 2.00002 12.2845V10.4742C1.86556 10.4697 1.73338 10.438 1.61138 10.381C1.48938 10.324 1.38008 10.2428 1.29002 10.1423C1.19491 10.0459 1.12018 9.93119 1.07034 9.80501C1.0205 9.67883 0.996581 9.54381 1.00002 9.40808V7.22561C1.00302 6.75424 1.18972 6.30286 1.52002 5.96842C1.84886 5.63683 2.29438 5.44893 2.76002 5.44543H4.60002C4.35204 5.74058 4.16506 6.0825 4.05002 6.45118H2.76002C2.55738 6.4567 2.36438 6.53937 2.22002 6.6825C2.07873 6.82753 1.99973 7.02257 2.00002 7.22561V9.45836H3.00002V12.2845C2.99772 12.3118 3.00097 12.3392 3.00957 12.3651C3.01816 12.3911 3.03193 12.415 3.05002 12.4354C3.09022 12.4666 3.13924 12.4842 3.19002 12.4857ZM10.49 5.96842C10.1587 5.63438 9.70913 5.44628 9.24001 5.44543H6.76001C6.29437 5.44893 5.84885 5.63683 5.52001 5.96842C5.18972 6.30286 5.00302 6.75424 5.00001 7.22561V10.4038C4.99859 10.677 5.10254 10.9402 5.29001 11.138C5.38008 11.2385 5.48938 11.3197 5.61138 11.3767C5.73337 11.4337 5.86556 11.4654 6.00001 11.4699V13.7931C5.99908 13.9519 6.02954 14.1092 6.08963 14.2559C6.14971 14.4027 6.23823 14.536 6.35001 14.648C6.52983 14.8164 6.75672 14.9253 7.00001 14.9598H9.00001C9.28097 14.9249 9.53898 14.7862 9.72382 14.5705C9.90866 14.3549 10.0071 14.0778 10 13.7931V11.4699C10.1345 11.4654 10.2667 11.4337 10.3887 11.3767C10.5106 11.3197 10.62 11.2385 10.71 11.138C10.8051 11.0416 10.8799 10.9269 10.9297 10.8007C10.9795 10.6745 11.0035 10.5395 11 10.4038V7.22561C11.0007 6.75545 10.8176 6.30387 10.49 5.96842ZM10 10.4541H9.00001V13.7931C8.99926 13.8462 8.9777 13.8968 8.94001 13.9339C8.92295 13.9543 8.90141 13.9703 8.87711 13.9808C8.85281 13.9912 8.82641 13.9959 8.80001 13.9943H7.19001C7.13776 13.9918 7.08829 13.9699 7.05129 13.9327C7.0143 13.8954 6.99245 13.8457 6.99001 13.7931V10.4541H6.00001V7.22561C5.99972 7.02257 6.07873 6.82753 6.22001 6.6825C6.36437 6.53937 6.55738 6.4567 6.76001 6.45118H9.24001C9.44309 6.45464 9.63682 6.53763 9.78001 6.6825C9.85134 6.75333 9.90763 6.83798 9.94544 6.93134C9.98326 7.0247 10.0018 7.12481 10 7.22561V10.4541ZM12.81 13.4914H11V12.4857H12.8C12.8508 12.4842 12.8998 12.4666 12.94 12.4354C12.9599 12.4158 12.9755 12.3923 12.9858 12.3663C12.9962 12.3403 13.001 12.3125 13 12.2845V9.45836H14V7.22561C14.0003 7.02257 13.9213 6.82753 13.78 6.6825C13.6356 6.53937 13.4426 6.4567 13.24 6.45118H11.95C11.835 6.0825 11.648 5.74058 11.4 5.44543H13.24C13.7056 5.44893 14.1512 5.63683 14.48 5.96842C14.8103 6.30286 14.997 6.75424 15 7.22561V9.40808C15.0004 9.68067 14.897 9.94308 14.711 10.1414C14.525 10.3396 14.2706 10.4587 14 10.4742V12.2845C14 12.6029 13.875 12.9083 13.6521 13.1344C13.4292 13.3604 13.1265 13.4888 12.81 13.4914ZM4 1.94543C3.70333 1.94543 3.41332 2.03391 3.16665 2.19968C2.91997 2.36545 2.72771 2.60107 2.61418 2.87673C2.50065 3.1524 2.47094 3.45573 2.52882 3.74837C2.5867 4.04102 2.72956 4.30983 2.93934 4.52081C3.14912 4.7318 3.41639 4.87548 3.70737 4.93369C3.99834 4.9919 4.29994 4.96202 4.57403 4.84784C4.84811 4.73366 5.08238 4.54029 5.2472 4.2922C5.41203 4.04411 5.5 3.75243 5.5 3.45406C5.5 3.05394 5.34197 2.67022 5.06066 2.3873C4.77936 2.10438 4.39783 1.94543 4 1.94543ZM4 3.95693C3.86739 3.95693 3.74022 3.90395 3.64645 3.80964C3.55268 3.71533 3.5 3.58743 3.5 3.45406C3.5 3.32068 3.55268 3.19278 3.64645 3.09847C3.74022 3.00416 3.86739 2.95118 4 2.95118C4.13181 2.95376 4.2575 3.00756 4.35072 3.10132C4.44394 3.19507 4.49744 3.32149 4.5 3.45406C4.5 3.58743 4.44732 3.71533 4.35355 3.80964C4.25979 3.90395 4.13261 3.95693 4 3.95693Z" fill="white"/>
</svg>
