<svg width="16" height="16" viewBox="0 0 16 16" xmlns="http://www.w3.org/2000/svg" fill="currentColor"><path fill-rule="evenodd" clip-rule="evenodd" d="M11.5 7.00049C13.9853 7.00049 16 9.01521 16 11.5005C16 13.9858 13.9853 16.0005 11.5 16.0005C9.01472 16.0005 7 13.9858 7 11.5005C7 9.01521 9.01472 7.00049 11.5 7.00049ZM11.5 9.00049C11.2239 9.00049 11 9.22435 11 9.50049V11.0005H9.5C9.22386 11.0005 9 11.2243 9 11.5005C9 11.7766 9.22386 12.0005 9.5 12.0005H11V13.5005C11 13.7766 11.2239 14.0005 11.5 14.0005C11.7761 14.0005 12 13.7766 12 13.5005V12.0005H13.5C13.7761 12.0005 14 11.7766 14 11.5005C14 11.2243 13.7761 11.0005 13.5 11.0005H12V9.50049C12 9.22435 11.7761 9.00049 11.5 9.00049Z"/><path fill-rule="evenodd" clip-rule="evenodd" d="M7.5 1.00049C8.74 1.00049 9.75 2.00949 9.75 3.25049C9.75 3.72849 9.5968 4.17064 9.3418 4.53564C10.1263 4.67168 10.7545 5.26288 10.9414 6.02783C10.6039 6.06187 10.2757 6.12794 9.95898 6.22021C9.8375 5.80514 9.45448 5.50049 9 5.50049H6C5.448 5.50049 5 5.94949 5 6.50049V9.50049H6V13.5005C6 13.7765 6.225 14.0005 6.5 14.0005H6.60156C6.78445 14.3581 7.00425 14.6935 7.25781 15.0005H6.5C5.673 15.0005 5 14.3275 5 13.5005V10.5005C4.448 10.5005 4 10.0515 4 9.50049V6.50049C4 5.51549 4.7192 4.69964 5.6582 4.53564C5.4022 4.17064 5.25 3.72849 5.25 3.25049C5.25 2.00949 6.26 1.00049 7.5 1.00049ZM7.5 2.00049C6.811 2.00049 6.25 2.56149 6.25 3.25049C6.25 3.93949 6.811 4.50049 7.5 4.50049C8.189 4.50049 8.75 3.93949 8.75 3.25049C8.75 2.56149 8.189 2.00049 7.5 2.00049Z"/></svg>