<svg width="16" height="16" viewBox="0 0 16 16" fill="none" xmlns="http://www.w3.org/2000/svg">
<path d="M8 2C8.19778 2 8.39112 2.05865 8.55557 2.16853C8.72001 2.27841 8.84819 2.43459 8.92388 2.61732C8.99956 2.80004 9.01937 3.00111 8.98078 3.19509C8.9422 3.38907 8.84695 3.56725 8.7071 3.70711C8.56725 3.84696 8.38907 3.9422 8.19509 3.98079C8.0011 4.01937 7.80004 3.99957 7.61731 3.92388C7.43459 3.84819 7.27841 3.72002 7.16853 3.55557C7.05864 3.39112 7 3.19778 7 3C7 2.73478 7.10535 2.48043 7.29289 2.29289C7.48043 2.10536 7.73478 2 8 2ZM8 1C7.60443 1 7.21775 1.1173 6.88886 1.33706C6.55996 1.55682 6.30361 1.86918 6.15224 2.23463C6.00086 2.60009 5.96125 3.00222 6.03843 3.39018C6.1156 3.77814 6.30608 4.13451 6.58578 4.41421C6.86549 4.69392 7.22185 4.8844 7.60981 4.96157C7.99778 5.03874 8.39991 4.99913 8.76536 4.84776C9.13081 4.69638 9.44317 4.44004 9.66293 4.11114C9.8827 3.78224 10 3.39556 10 3C10 2.46957 9.78928 1.96086 9.41421 1.58579C9.03914 1.21071 8.53043 1 8 1V1ZM9.23 5.49H6.77C6.30056 5.49 5.85036 5.67648 5.51842 6.00842C5.18648 6.34036 5 6.79057 5 7.26V9.9C4.98907 10.1779 5.08778 10.4489 5.27484 10.6547C5.4619 10.8605 5.72234 10.9845 6 11V13.33C6 13.6483 6.12642 13.9535 6.35147 14.1785C6.57651 14.4036 6.88174 14.53 7.2 14.53H8.8C8.961 14.5301 9.12039 14.4978 9.26865 14.435C9.41691 14.3722 9.55102 14.2802 9.66299 14.1645C9.77495 14.0488 9.86249 13.9118 9.92039 13.7615C9.97829 13.6113 10.0054 13.4509 10 13.29V11C10.2777 10.9845 10.5381 10.8605 10.7252 10.6547C10.9122 10.4489 11.0109 10.1779 11 9.9V7.26C11 6.79057 10.8135 6.34036 10.4816 6.00842C10.1496 5.67648 9.69943 5.49 9.23 5.49ZM6 10V7.26C5.99865 7.15851 6.01765 7.05778 6.05587 6.96375C6.09409 6.86972 6.15076 6.7843 6.22253 6.71253C6.2943 6.64076 6.37972 6.58409 6.47375 6.54587C6.56777 6.50765 6.66851 6.48866 6.77 6.49H9.23C9.33149 6.48866 9.43222 6.50765 9.52625 6.54587C9.62027 6.58409 9.70569 6.64076 9.77746 6.71253C9.84923 6.7843 9.9059 6.86972 9.94412 6.96375C9.98234 7.05778 10.0013 7.15851 10 7.26V10H9V13.31C9 13.363 8.97892 13.4139 8.94142 13.4514C8.90391 13.4889 8.85304 13.51 8.8 13.51H7.2C7.14695 13.51 7.09608 13.4889 7.05857 13.4514C7.02107 13.4139 7 13.363 7 13.31V10H6Z" fill="white"/>
</svg>
