<svg width="18" height="18" viewBox="0 0 18 18" xmlns="http://www.w3.org/2000/svg" fill="currentColor"><path d="M14.5 3H2.5C1.673 3 1 3.673 1 4.5V13.5C1 14.327 1.673 15 2.5 15H14.5C15.327 15 16 14.327 16 13.5V4.5C16 3.673 15.327 3 14.5 3ZM12 14H9V10C9.552 10 10 9.552 10 9V4H11V9C11 9.552 11.448 10 12 10V14ZM6 9V4H7V9C7 9.552 7.448 10 8 10V14H5V10C5.552 10 6 9.552 6 9ZM2 13.5V4.5C2 4.225 2.225 4 2.5 4H3V9C3 9.552 3.448 10 4 10V14H2.5C2.225 14 2 13.775 2 13.5ZM15 13.5C15 13.775 14.775 14 14.5 14H13V10C13.552 10 14 9.552 14 9V4H14.5C14.775 4 15 4.225 15 4.5V13.5Z"/></svg>