<svg width="16" height="16" viewBox="0 0 16 16" fill="none" xmlns="http://www.w3.org/2000/svg">
<path d="M15.4181 4.50005L14.5522 4.12501L13.0931 5.58411L9.07726 4.93638C8.89254 4.41665 8.56673 3.95859 8.13635 3.61361C7.70885 3.2727 7.19349 3.05996 6.65 3L6.1522 3.4978L6.20684 7.31591L0.5 7.30913L1.53633 8.34546L6.22719 8.3455L6.26814 11.7L6.78633 12.2182C7.32017 12.1748 7.82916 11.9743 8.24904 11.6418C8.66893 11.3093 8.98088 10.8597 9.14543 10.35L13.1477 9.82499L14.6477 11.325L15.5 10.9773L15.4181 4.50005ZM13.6931 8.95233L13.2568 8.80226L8.74314 9.40226L8.3545 9.70909C8.17577 10.2805 7.79848 10.769 7.29086 11.0864V8.35915L7.23631 4.17275C7.74931 4.50768 8.13571 5.00445 8.33406 5.58411L8.73631 5.90463L13.2704 6.63413L13.6931 6.49772L14.4772 5.71362L14.5317 9.75L13.6931 8.95233Z" fill="#C5C5C5"/>
</svg>
