<svg width="16" height="16" viewBox="0 0 16 16" xmlns="http://www.w3.org/2000/svg" fill="currentColor"><path d="M15.418 4.5l-.866-.375-1.459 1.46-4.016-.649a2.97 2.97 0 0 0-.94-1.322A2.893 2.893 0 0 0 6.65 3l-.498.498.055 3.818L.5 7.309l1.036 1.036h4.691l.041 3.355.518.518a2.71 2.71 0 0 0 2.36-1.868l4.002-.525 1.5 1.5.852-.348-.082-6.477zm-1.725 4.452l-.436-.15-4.514.6-.389.307a2.507 2.507 0 0 1-1.063 1.377V8.36l-.055-4.186c.513.335.9.831 1.098 1.411l.402.32 4.534.73.423-.136.784-.784.055 4.036-.839-.798z"/></svg>