<svg width="16" height="16" viewBox="0 0 16 16" xmlns="http://www.w3.org/2000/svg" fill="currentColor"><path d="M13.5 3C13.303 3 13.109 3.038 12.923 3.114L8.481 4.967L5.659 4.026C5.505 3.976 5.339 4.001 5.209 4.095C5.078 4.189 5.001 4.339 5.001 4.5V7H1.257L0.5 7.5L1.257 8H5V10.5C5 10.661 5.077 10.812 5.208 10.905C5.338 11 5.504 11.023 5.658 10.974L8.48 10.033L12.925 11.887C13.109 11.962 13.302 12 13.499 12C14.326 12 14.999 11.327 14.999 10.5V4.5C14.999 3.673 14.326 3 13.499 3H13.5ZM14 10.5C14 10.843 13.615 11.09 13.308 10.962L8.693 9.038C8.631 9.013 8.566 9 8.501 9C8.447 9 8.395 9.009 8.343 9.025L6.001 9.806V5.193L8.343 5.974C8.457 6.011 8.581 6.007 8.694 5.961L13.306 4.038C13.629 3.902 14.001 4.156 14.001 4.499V10.499L14 10.5Z"/></svg>