<svg width="18" height="18" viewBox="0 0 18 18" xmlns="http://www.w3.org/2000/svg" fill="currentColor"><path d="M14.5 4C14.303 4 14.109 4.038 13.923 4.114L9.481 5.967L6.659 5.026C6.505 4.976 6.339 5.001 6.209 5.095C6.078 5.189 6.001 5.339 6.001 5.5V8H2.257L1.5 8.5L2.257 9H6V11.5C6 11.661 6.077 11.812 6.208 11.905C6.338 12 6.504 12.023 6.658 11.974L9.48 11.033L13.925 12.887C14.109 12.962 14.302 13 14.499 13C15.326 13 15.999 12.327 15.999 11.5V5.5C15.999 4.673 15.326 4 14.499 4H14.5ZM15 11.5C15 11.843 14.615 12.09 14.308 11.962L9.693 10.038C9.631 10.013 9.566 10 9.501 10C9.447 10 9.395 10.009 9.343 10.025L7.001 10.806V6.193L9.343 6.974C9.457 7.011 9.581 7.007 9.694 6.961L14.306 5.038C14.629 4.902 15.001 5.156 15.001 5.499V11.499L15 11.5Z"/></svg>