<svg width="16" height="16" viewBox="0 0 16 16" xmlns="http://www.w3.org/2000/svg" fill="currentColor"><path d="M5 3L10 3L10 3.27783C10 3.68408 9.91406 4.05648 9.74219 4.39502C9.57031 4.73356 9.32292 5.02523 9 5.27002L9 7.1294C9.30729 7.27523 9.58333 7.45752 9.82812 7.67627C10.0729 7.89502 10.2839 8.13981 10.4609 8.41065C10.638 8.68148 10.7708 8.97575 10.8594 9.29346C10.9479 9.61117 10.9948 9.93929 11 10.2778L11 10.7778L8 10.7778L8 13L7.5 14L7 13L7 10.7778L4 10.7778L4 10.2778C4 9.93929 4.04687 9.61377 4.14062 9.30127C4.23437 8.98877 4.36719 8.6945 4.53906 8.41846C4.71094 8.14242 4.91927 7.89502 5.16406 7.67627C5.40885 7.45752 5.6875 7.27523 6 7.1294L6 5.27002C5.68229 5.02523 5.4375 4.73356 5.26562 4.39502C5.09375 4.05648 5.00521 3.68408 5 3.27783L5 3ZM6.08594 3.77783C6.1276 3.90283 6.17969 4.0096 6.24219 4.09815C6.30469 4.18669 6.3724 4.26481 6.44531 4.33252C6.51823 4.40023 6.60417 4.46533 6.70312 4.52783C6.80208 4.59033 6.90104 4.65283 7 4.71533L7 7.8169L6.66406 7.93408C6.2526 8.07992 5.90365 8.3169 5.61719 8.64502C5.33073 8.97315 5.08854 9.57292 5 10L10 10C9.91146 9.57292 9.66927 8.97315 9.38281 8.64502C9.09635 8.3169 8.7474 8.07992 8.33594 7.93408L8 7.8169L8 4.71533C8.10417 4.65283 8.20312 4.59294 8.29687 4.53565C8.39062 4.47835 8.47396 4.41325 8.54687 4.34033C8.61979 4.26742 8.6901 4.18669 8.75781 4.09815C8.82552 4.0096 8.8776 3.90283 8.91406 3.77783L6.08594 3.77783Z"/></svg>