<svg width="16" height="16" viewBox="0 0 16 16" xmlns="http://www.w3.org/2000/svg" fill="currentColor"><path d="M12 15C13.6569 15 15 13.6569 15 12C15 10.3431 13.6569 9 12 9C10.3431 9 9 10.3431 9 12C9 13.6569 10.3431 15 12 15Z"/><path d="M8 12V11.444L7.791 12.072L3.935 8.216L6.168 7.472C6.29 7.431 6.391 7.346 6.451 7.233L8.565 3.267C8.723 2.97 9.123 2.911 9.36 3.149L12.845 6.647C13.082 6.884 13.022 7.283 12.727 7.441L11.682 8H12C12.463 8 12.902 8.095 13.316 8.24C14.092 7.724 14.228 6.618 13.553 5.941L10.068 2.443C9.356 1.729 8.156 1.906 7.682 2.796L5.662 6.586L2.851 7.523C2.687 7.578 2.562 7.714 2.522 7.882C2.482 8.051 2.533 8.228 2.655 8.35L4.801 10.496L2.155 13.142L2.009 13.996L2.863 13.85L5.509 11.204L7.655 13.35C7.777 13.472 7.955 13.523 8.123 13.483C8.178 13.47 8.222 13.436 8.268 13.406C8.101 12.966 7.999 12.495 7.999 11.998L8 12Z"/></svg>