<svg width="16" height="16" viewBox="0 0 16 16" xmlns="http://www.w3.org/2000/svg" fill="currentColor"><path fill-rule="evenodd" clip-rule="evenodd" d="M5 3L10 3V3.27783C10 3.68408 9.91406 4.05648 9.74219 4.39502C9.57031 4.73356 9.32292 5.02523 9 5.27002V7.1294C9.30729 7.27523 9.58333 7.45752 9.82812 7.67627C10.0729 7.89502 10.2839 8.13981 10.4609 8.41065C10.5057 8.4791 10.5476 8.54906 10.5867 8.62052C10.5482 8.64176 10.51 8.66356 10.472 8.6859L10.472 8.68589L10.4653 8.68982C10.2054 8.84392 9.96156 9.0199 9.7345 9.21648C9.63311 8.9978 9.5125 8.79357 9.38281 8.64502C9.09635 8.3169 8.7474 8.07992 8.33594 7.93408L8 7.8169V4.71533C8.10417 4.65283 8.20312 4.59294 8.29687 4.53565C8.39062 4.47835 8.47396 4.41325 8.54687 4.34033C8.61979 4.26742 8.6901 4.18669 8.75781 4.09815C8.82552 4.0096 8.8776 3.90283 8.91406 3.77783L6.08594 3.77783C6.1276 3.90283 6.17969 4.0096 6.24219 4.09815C6.30469 4.18669 6.3724 4.26481 6.44531 4.33252C6.51823 4.40023 6.60417 4.46533 6.70312 4.52783L7 4.71533L7 7.8169L6.66406 7.93408C6.2526 8.07992 5.90365 8.3169 5.61719 8.64502C5.33073 8.97315 5.08854 9.57292 5 10L9.00235 10C8.88896 10.1508 8.78407 10.3081 8.68785 10.4716C8.62842 10.572 8.57283 10.6741 8.52103 10.7778H8V13L7.5 14L7 13L7 10.7778H4L4 10.2778C4 9.93929 4.04687 9.61377 4.14062 9.30127C4.23437 8.98877 4.36719 8.6945 4.53906 8.41846C4.71094 8.14242 4.91927 7.89502 5.16406 7.67627C5.40885 7.45752 5.6875 7.27523 6 7.1294L6 5.27002C5.68229 5.02523 5.4375 4.73356 5.26562 4.39502C5.09375 4.05648 5.00521 3.68408 5 3.27783L5 3ZM13.7969 10.1084C13.541 10.0361 13.2754 10 13 10C12.7246 10 12.459 10.0361 12.2031 10.1084C11.9473 10.1787 11.708 10.2793 11.4854 10.4102C11.3121 10.5129 11.1504 10.6318 11 10.767C10.9588 10.804 10.9184 10.8423 10.8789 10.8818C10.6973 11.0635 10.541 11.2656 10.4102 11.4883C10.2793 11.709 10.1777 11.9473 10.1055 12.2031C10.0352 12.459 10 12.7246 10 13C10 13.2754 10.0352 13.541 10.1055 13.7969C10.1777 14.0527 10.2793 14.292 10.4102 14.5146C10.541 14.7354 10.6973 14.9375 10.8789 15.1211C11.0625 15.3027 11.2646 15.459 11.4854 15.5898C11.708 15.7207 11.9473 15.8223 12.2031 15.8945C12.459 15.9648 12.7246 16 13 16C13.2754 16 13.541 15.9648 13.7969 15.8945C14.0527 15.8223 14.291 15.7207 14.5117 15.5898C14.7344 15.459 14.9365 15.3027 15.1182 15.1211C15.3018 14.9375 15.459 14.7354 15.5898 14.5146C15.7207 14.292 15.8213 14.0527 15.8916 13.7969C15.9639 13.541 16 13.2754 16 13C16 12.7246 15.9639 12.459 15.8916 12.2031C15.8213 11.9473 15.7207 11.709 15.5898 11.4883C15.459 11.2656 15.3018 11.0635 15.1182 10.8818C14.9365 10.6982 14.7344 10.541 14.5117 10.4102C14.291 10.2793 14.0527 10.1787 13.7969 10.1084Z"/></svg>