<svg width="16" height="16" viewBox="0 0 16 16" xmlns="http://www.w3.org/2000/svg" fill="currentColor"><path fill-rule="evenodd" clip-rule="evenodd" d="M3.5 1.082l-.375.866 1.46 1.459-.649 4.016a2.97 2.97 0 0 0-1.322.94A2.898 2.898 0 0 0 2 9.85l.498.498 3.818-.055L6.309 16l1.036-1.036v-.135a5.144 5.144 0 0 1-.164-.489l-.002-.006-.002-.007A4.993 4.993 0 0 1 7 13c0-.448.057-.892.177-1.327l.002-.007.002-.007c.047-.165.101-.328.164-.488v-.898l.47-.006a5.006 5.006 0 0 1 .928-1.058H7.359l-4.186.055c.335-.513.831-.9 1.411-1.098l.32-.402.73-4.534-.136-.423-.784-.784 4.036-.055-.798.839-.15.436.6 4.514.307.389c.322.1.617.264.87.478a5.01 5.01 0 0 1 1.022-.424 2.71 2.71 0 0 0-1.251-.845l-.525-4.003 1.5-1.5L9.977 1 3.5 1.082zm9.297 9.026A2.917 2.917 0 0 0 12 10c-.275 0-.541.036-.797.108a2.953 2.953 0 0 0-1.324.774 3.014 3.014 0 0 0-.774 1.321C9.035 12.46 9 12.725 9 13s.035.541.105.797a3.04 3.04 0 0 0 .774 1.324 3.037 3.037 0 0 0 1.324.773c.256.07.522.106.797.106s.541-.035.797-.105a3.013 3.013 0 0 0 1.321-.773 2.953 2.953 0 0 0 .773-1.324c.073-.257.109-.523.109-.798s-.036-.541-.108-.797a2.956 2.956 0 0 0-.773-1.321 2.956 2.956 0 0 0-1.322-.774z"/></svg>