<svg width="16" height="16" viewBox="0 0 16 16" xmlns="http://www.w3.org/2000/svg" fill="currentColor"><path d="M10.723 4H10V1.5C10 1.224 9.776 1 9.5 1C9.224 1 9 1.224 9 1.5V4H7V1.5C7 1.224 6.776 1 6.5 1C6.224 1 6 1.224 6 1.5V4H5.277C4.573 4 4 4.573 4 5.278V8C4 10.036 5.529 11.722 7.5 11.969V14.5C7.5 14.776 7.724 15 8 15C8.276 15 8.5 14.776 8.5 14.5V11.969C10.471 11.722 12 10.037 12 8V5.278C12 4.573 11.427 4 10.723 4ZM11 8C11 9.654 9.654 11 8 11C6.346 11 5 9.654 5 8V5.278C5 5.125 5.124 5 5.277 5H10.722C10.875 5 10.999 5.125 10.999 5.278V8H11Z"/></svg>