<svg width="18" height="18" viewBox="0 0 18 18" xmlns="http://www.w3.org/2000/svg" fill="currentColor"><path d="M11.723 5H11V2.5C11 2.224 10.776 2 10.5 2C10.224 2 10 2.224 10 2.5V5H8V2.5C8 2.224 7.776 2 7.5 2C7.224 2 7 2.224 7 2.5V5H6.277C5.573 5 5 5.573 5 6.278V9C5 11.036 6.529 12.722 8.5 12.969V15.5C8.5 15.776 8.724 16 9 16C9.276 16 9.5 15.776 9.5 15.5V12.969C11.471 12.722 13 11.037 13 9V6.278C13 5.573 12.427 5 11.723 5ZM12 9C12 10.654 10.654 12 9 12C7.346 12 6 10.654 6 9V6.278C6 6.125 6.124 6 6.277 6H11.722C11.875 6 11.999 6.125 11.999 6.278V9H12Z"/></svg>