<svg width="16" height="16" viewBox="0 0 16 16" xmlns="http://www.w3.org/2000/svg" fill="currentColor"><path d="M6.978 9.35501C6.978 9.35501 6.975 9.34701 6.974 9.34301L4.974 3.34201C4.838 2.93401 4.162 2.93401 4.026 3.34201L2.026 9.34301C2.026 9.34301 2.023 9.35101 2.022 9.35501L1.026 12.342C0.939001 12.604 1.08 12.887 1.342 12.975C1.606 13.064 1.887 12.919 1.974 12.659L2.86 10.001H6.14L7.026 12.659C7.096 12.868 7.291 13.001 7.5 13.001C7.552 13.001 7.605 12.993 7.658 12.976C7.92 12.888 8.061 12.605 7.974 12.343L6.978 9.35601V9.35501ZM3.194 9.00001L4.5 5.08101L5.806 9.00001H3.194Z"/><path d="M13.257 7.277C13.716 6.824 14 6.195 14 5.5C14 4.121 12.878 3 11.5 3H9.5C9.224 3 9 3.224 9 3.5V12.5C9 12.776 9.224 13 9.5 13H12C13.654 13 15 11.654 15 10C15 8.794 14.285 7.753 13.257 7.277ZM13 5.5C13 6.327 12.327 7 11.5 7H10V4H11.5C12.327 4 13 4.673 13 5.5ZM12 12H10V8H12C13.103 8 14 8.897 14 10C14 11.103 13.103 12 12 12Z"/></svg>