<svg width="18" height="18" viewBox="0 0 18 18" xmlns="http://www.w3.org/2000/svg" fill="currentColor"><path d="M5.97099 5.332C5.82899 4.934 5.17099 4.934 5.02999 5.332L2.52999 12.332C2.43699 12.592 2.57199 12.878 2.83299 12.971C3.09099 13.064 3.37899 12.928 3.47199 12.668L4.06799 11H6.93499L7.53099 12.668C7.60399 12.873 7.79599 13 8.00199 13C8.05799 13 8.11499 12.991 8.16999 12.971C8.42999 12.878 8.56599 12.592 8.47299 12.332L5.97299 5.332H5.97099ZM4.42399 10L5.49999 6.987L6.57599 10H4.42399ZM14.279 8.899C14.722 8.488 15 7.9 15 7.25C15 6.009 13.991 5 12.75 5H10.5C10.224 5 9.99999 5.224 9.99999 5.5V12.5C9.99999 12.776 10.224 13 10.5 13H13C14.241 13 15.25 11.991 15.25 10.75C15.25 9.984 14.865 9.306 14.279 8.899ZM11 6H12.75C13.439 6 14 6.561 14 7.25C14 7.939 13.439 8.5 12.75 8.5H11V6ZM13 12H11V9.5H12.75C12.807 9.5 12.864 9.498 12.92 9.494C12.946 9.498 12.973 9.5 13 9.5C13.689 9.5 14.25 10.061 14.25 10.75C14.25 11.439 13.689 12 13 12Z"/></svg>