<svg width="18" height="18" viewBox="0 0 18 18" xmlns="http://www.w3.org/2000/svg" fill="currentColor"><path d="M4.5 3C3.11929 3 2 4.11929 2 5.5V12.5C2 13.8807 3.11929 15 4.5 15H13.5C14.8807 15 16 13.8807 16 12.5V5.5C16 4.11929 14.8807 3 13.5 3H4.5ZM3 5.5C3 4.67157 3.67157 4 4.5 4H13.5C14.3284 4 15 4.67157 15 5.5V12.5C15 13.3284 14.3284 14 13.5 14H4.5C3.67157 14 3 13.3284 3 12.5V5.5ZM4 6C4 5.44772 4.44772 5 5 5H13C13.5523 5 14 5.44772 14 6V7C14 7.55228 13.5523 8 13 8H5C4.44772 8 4 7.55229 4 7V6ZM13 6H5V7H13V6ZM9 10C9 9.44772 9.44772 9 10 9H13C13.5523 9 14 9.44772 14 10V12C14 12.5523 13.5523 13 13 13H10C9.44772 13 9 12.5523 9 12V10ZM13 10H10V12H13V10ZM4.5 9C4.22386 9 4 9.22386 4 9.5C4 9.77614 4.22386 10 4.5 10H7.5C7.77614 10 8 9.77614 8 9.5C8 9.22386 7.77614 9 7.5 9H4.5ZM4 11.5C4 11.2239 4.22386 11 4.5 11H7.5C7.77614 11 8 11.2239 8 11.5C8 11.7761 7.77614 12 7.5 12H4.5C4.22386 12 4 11.7761 4 11.5Z"/></svg>