<svg width="16" height="16" viewBox="0 0 16 16" xmlns="http://www.w3.org/2000/svg" fill="currentColor"><path d="M12.5 1H3.5C2.122 1 1 2.122 1 3.5V12.5C1 13.878 2.122 15 3.5 15H12.5C13.878 15 15 13.878 15 12.5V3.5C15 2.122 13.878 1 12.5 1ZM14 12.5C14 13.327 13.327 14 12.5 14H3.5C2.673 14 2 13.327 2 12.5V3.5C2 2.673 2.673 2 3.5 2H12.5C13.327 2 14 2.673 14 3.5V12.5ZM12 3H4C3.448 3 3 3.448 3 4V6C3 6.552 3.448 7 4 7H12C12.552 7 13 6.552 13 6V4C13 3.448 12.552 3 12 3ZM12 6H4V4H12V6ZM12 8H9C8.448 8 8 8.448 8 9V12C8 12.552 8.448 13 9 13H12C12.552 13 13 12.552 13 12V9C13 8.448 12.552 8 12 8ZM12 12H9V9H12V12ZM7 8.5C7 8.776 6.776 9 6.5 9H3.5C3.224 9 3 8.776 3 8.5C3 8.224 3.224 8 3.5 8H6.5C6.776 8 7 8.224 7 8.5ZM7 10.5C7 10.776 6.776 11 6.5 11H3.5C3.224 11 3 10.776 3 10.5C3 10.224 3.224 10 3.5 10H6.5C6.776 10 7 10.224 7 10.5ZM7 12.5C7 12.776 6.776 13 6.5 13H3.5C3.224 13 3 12.776 3 12.5C3 12.224 3.224 12 3.5 12H6.5C6.776 12 7 12.224 7 12.5Z"/></svg>