<svg width="16" height="16" viewBox="0 0 16 16" xmlns="http://www.w3.org/2000/svg" fill="currentColor"><path fill-rule="evenodd" clip-rule="evenodd" d="M3,1 2,2v11l1,1h2.881l1,-1H6 3V2h9v5c0.347,0.045 0.685,0.147 1,0.301V2L12,1Zm8.379,7.002c-0.419,0.016 -0.828,0.135 -1.189,0.348h-0.031C8.938,9.086 8.575,10.691 9.359,11.881L7,14.23 7.711,14.939 10.061,12.58c0.325,0.22 0.7,0.358 1.09,0.4 0.385,0.047 0.774,0.001 1.139,-0.131 0.379,-0.127 0.722,-0.342 1,-0.629 0.27,-0.283 0.469,-0.625 0.58,-1 0.108,-0.373 0.132,-0.767 0.07,-1.15C13.799,9.288 13.299,8.618 12.59,8.26 12.214,8.075 11.798,7.986 11.379,8.002Zm0.236,1.004c0.145,0.013 0.288,0.048 0.424,0.104 0.276,0.117 0.514,0.312 0.682,0.561 0.627,0.942 0.024,2.212 -1.102,2.324 -0.345,0.034 -0.69,-0.052 -0.979,-0.244 -0.249,-0.168 -0.444,-0.404 -0.561,-0.68 -0.111,-0.272 -0.139,-0.571 -0.08,-0.859 0.116,-0.597 0.582,-1.066 1.18,-1.182 0.144,-0.029 0.291,-0.037 0.436,-0.023z"/></svg>