<svg width="16" height="16" viewBox="0 0 16 16" xmlns="http://www.w3.org/2000/svg" fill="currentColor"><path fill-rule="evenodd" clip-rule="evenodd" d="M3 1L2 2v11l1 1h2.881l1-1H3V2h9v5c.347.045.685.147 1 .301V2l-1-1zm8.379 7.002a2.53 2.53 0 0 0-1.189.348h-.031a2.51 2.51 0 0 0-.8 3.531L7 14.23l.711.709 2.35-2.359c.325.22.7.358 1.09.4.385.047.774.001 1.139-.131a2.494 2.494 0 0 0 1-.629 2.46 2.46 0 0 0 .58-1 2.63 2.63 0 0 0 .07-1.15 2.53 2.53 0 0 0-1.35-1.81 2.525 2.525 0 0 0-1.211-.258zm.236 1.004c.145.013.288.048.424.104a1.5 1.5 0 1 1-1.399 2.641 1.55 1.55 0 0 1-.561-.68 1.485 1.485 0 0 1-.08-.859 1.493 1.493 0 0 1 1.18-1.182c.144-.029.291-.037.436-.023z"/></svg>