<svg width="16" height="16" viewBox="0 0 16 16" xmlns="http://www.w3.org/2000/svg" fill="currentColor"><path d="M4.5 2.00049C3.11929 2.00049 2 3.11978 2 4.50049V11.5005C2 12.8812 3.11929 14.0005 4.5 14.0005H11.5C12.8807 14.0005 14 12.8812 14 11.5005V4.50049C14 3.11978 12.8807 2.00049 11.5 2.00049H4.5ZM13 5.00049H3V4.50049C3 3.67206 3.67157 3.00049 4.5 3.00049H11.5C12.3284 3.00049 13 3.67206 13 4.50049V5.00049ZM3 6.00049H13V11.5005C13 12.3289 12.3284 13.0005 11.5 13.0005H4.5C3.67157 13.0005 3 12.3289 3 11.5005V6.00049Z"/></svg>