<svg width="16" height="16" viewBox="0 0 16 16" xmlns="http://www.w3.org/2000/svg" fill="currentColor"><path d="M5.76002 2.49999C5.98102 2.50399 6.17302 2.65399 6.23202 2.86699L8.52102 11.19L10.271 5.35599C10.332 5.15399 10.513 5.01099 10.724 4.99999C10.935 4.98899 11.13 5.11199 11.211 5.30699L12.333 7.99899H14C14.276 7.99899 14.5 8.22299 14.5 8.49899C14.5 8.77499 14.276 8.99899 14 8.99899H12C11.798 8.99899 11.616 8.87799 11.538 8.69099L10.826 6.98299L8.97802 13.142C8.91402 13.356 8.71602 13.501 8.49302 13.498C8.27002 13.495 8.07602 13.346 8.01702 13.131L5.71402 4.75699L4.47502 8.64999C4.40902 8.85799 4.21602 8.99799 3.99902 8.99799H1.99902C1.72302 8.99799 1.49902 8.77399 1.49902 8.49799C1.49902 8.22199 1.72302 7.99799 1.99902 7.99799H3.63302L5.27202 2.84599C5.33902 2.63499 5.53702 2.49299 5.75802 2.49799L5.76002 2.49999Z"/></svg>