<svg width="16" height="16" viewBox="0 0 16 16" xmlns="http://www.w3.org/2000/svg" fill="currentColor"><path d="M1.77271 11.9495C1.00605 11.6811 0.468525 10.8864 0.144223 9.54179C0.0148117 9.00501 -0.0286598 8.35763 0.0184704 7.66607C0.0875802 6.65067 0.221613 6.06957 0.535575 5.42397C0.703349 5.07901 0.771564 4.98022 1.01009 4.73652C1.31116 4.42903 1.62137 4.2479 1.99818 4.1594C2.14059 4.12647 2.92959 4.11 5.13044 4.09491L8.07234 4.07433V3.61877L4.22119 3.59133L4.20032 3.51312C4.16685 3.38688 4.17674 2.16759 4.21401 1.80808C4.27092 1.26114 4.38353 0.970933 4.65144 0.680861C4.84375 0.472706 5.2571 0.261257 5.66678 0.161639C6.25699 0.0179752 6.52366 0 8.0549 0C9.60363 0 9.99533 0.0274431 10.4419 0.163972C11.0523 0.351408 11.6768 0.926613 11.8622 1.47232C11.9821 1.82523 12.0005 2.18597 12 4.16955C11.9994 6.27196 11.9919 6.36362 11.8006 6.72546C11.5976 7.10856 11.2179 7.26918 10.7523 7.44523C10.5585 7.51795 10.4932 7.49314 8.5 7.5C6.3518 7.51372 4.56014 7.49028 4.08708 7.65923C3.54742 7.82896 3.34616 8.01397 3.10719 8.50396C2.87963 8.97036 3.01645 9.75752 3 11V11.5V12C2.07433 12.0329 1.96691 12.0078 1.77263 11.9406L1.77271 11.9495ZM6.27517 2.46754C6.50561 2.31194 6.58403 2.15853 6.58403 1.86352C6.58403 1.63752 6.57319 1.59334 6.4786 1.45791C6.26246 1.14629 5.87266 1.04956 5.53708 1.22437C5.00628 1.50099 5.03139 2.26089 5.5799 2.52201C5.77731 2.61532 6.09171 2.5924 6.27517 2.46754Z"/><path d="M14.2273 4.0505C14.994 4.31889 15.5315 5.11364 15.8558 6.45821C15.9852 6.99499 16.0287 7.64237 15.9815 8.33393C15.9124 9.34933 15.7784 9.93043 15.4644 10.576C15.2967 10.921 15.2284 11.0198 14.9899 11.2635C14.6888 11.571 14.3786 11.7521 14.0018 11.8406C13.8594 11.8735 13.0704 11.89 10.8696 11.9051L7.92766 11.9257V12.3812L11.7788 12.4087L11.7997 12.4869C11.8332 12.6131 11.8233 13.8324 11.786 14.1919C11.7291 14.7389 11.6165 15.0291 11.3486 15.3191C11.1563 15.5273 10.7429 15.7387 10.3332 15.8384C9.74301 15.982 9.47634 16 7.9451 16C6.39637 16 6.00467 15.9726 5.5581 15.836C4.94771 15.6486 4.3232 15.0734 4.1378 14.5277C4.01787 14.1748 3.99948 13.814 4.00001 11.8304C4.00057 9.72804 3.95612 9.46366 4.1474 9.10183C4.35038 8.71872 4.38422 8.73755 4.84982 8.56151C5.04361 8.48878 5.50675 8.50686 7.5 8.5C9.6482 8.48628 11.0803 8.52597 11.4433 8.41222C11.9829 8.24249 12.5602 8.00178 12.7992 7.51179C13.0268 7.0454 12.9835 6.74248 13 5.5V4.5V4C13.9257 3.96707 14.0331 3.99218 14.2274 4.05941L14.2273 4.0505ZM9.72483 13.5325C9.49439 13.6881 9.41597 13.8415 9.41597 14.1365C9.41597 14.3625 9.42681 14.4067 9.5214 14.5421C9.73754 14.8537 10.1273 14.9504 10.4629 14.7756C10.9937 14.499 10.9686 13.7391 10.4201 13.478C10.2227 13.3847 9.90829 13.4076 9.72483 13.5325Z"/></svg>