<svg width="18" height="18" viewBox="0 0 18 18" xmlns="http://www.w3.org/2000/svg" fill="currentColor"><path fill-rule="evenodd" clip-rule="evenodd" d="M13.3753 5.50061C14.1843 5.47184 14.2789 5.49367 14.4486 5.55237V5.54456C15.1194 5.77941 15.5896 6.47548 15.8734 7.65198C15.9865 8.12155 16.025 8.6877 15.9837 9.2926C15.9233 10.181 15.8062 10.6897 15.5316 11.2545C15.3848 11.5563 15.3251 11.643 15.1165 11.8561C14.853 12.1252 14.581 12.2836 14.2513 12.361C14.126 12.3897 13.4354 12.4043 11.5111 12.4176L8.93686 12.4352V12.8346L12.307 12.858L12.3246 12.9264C12.3539 13.0369 12.3455 14.1041 12.3128 14.4186C12.263 14.8972 12.1644 15.1511 11.93 15.4049C11.7617 15.5871 11.3997 15.7718 11.0414 15.859C10.525 15.9847 10.2912 16.0006 8.95151 16.0006C7.59702 16.0006 7.25423 15.9765 6.86362 15.8571C6.32957 15.6931 5.78274 15.19 5.62045 14.7125C5.51552 14.4037 5.49987 14.0879 5.50033 12.3522C5.50082 10.5127 5.46186 10.2811 5.62924 9.96448C5.80669 9.62958 5.83627 9.6458 6.2435 9.49182C6.41307 9.42819 6.81874 9.44411 8.56283 9.43811C10.4423 9.42611 11.6953 9.46049 12.013 9.36096C12.4851 9.21247 12.9904 9.00238 13.1996 8.57385C13.3987 8.16575 13.3609 7.90028 13.3753 6.81311V5.50061ZM11.1175 13.7936C10.9448 13.7121 10.6696 13.7322 10.5091 13.8414C10.3076 13.9776 10.2387 14.1118 10.2386 14.3698C10.2386 14.5676 10.2486 14.6067 10.3314 14.7252C10.5205 14.9976 10.8611 15.0819 11.1546 14.9293C11.619 14.6872 11.5974 14.0221 11.1175 13.7936Z"/><path fill-rule="evenodd" clip-rule="evenodd" d="M9.04819 2.00061C10.4032 2.00061 10.7463 2.0247 11.1371 2.14417C11.671 2.30826 12.217 2.81138 12.3792 3.2887C12.4842 3.5975 12.5008 3.91342 12.5003 5.64905C12.4998 7.48854 12.4929 7.5688 12.3255 7.88538C12.148 8.22052 11.8158 8.36126 11.4085 8.51526C11.239 8.57889 11.1816 8.55711 9.43783 8.56311C7.55843 8.57512 5.99071 8.55501 5.57651 8.70276C5.1043 8.85128 4.92818 9.01327 4.71908 9.44202C4.54503 9.79906 4.61477 10.3706 4.62533 11.236V12.5006C3.81561 12.5294 3.72101 12.5076 3.55112 12.4489V12.4567C2.88029 12.2219 2.41007 11.5258 2.12631 10.3492C2.01316 9.87968 1.97475 9.3135 2.01596 8.70862C2.07643 7.82015 2.19436 7.31159 2.46908 6.7467C2.61585 6.44494 2.67544 6.35835 2.88412 6.14514C3.14751 5.87617 3.41874 5.71769 3.74838 5.64026C3.87299 5.61145 4.56384 5.59683 6.48959 5.58362L9.06283 5.56604V5.16663L5.69369 5.14319L5.67514 5.07483C5.64585 4.96437 5.65425 3.89721 5.68686 3.58264C5.73665 3.10416 5.83534 2.85009 6.06967 2.59631C6.23792 2.4142 6.59992 2.22939 6.95834 2.14221C7.47478 2.01651 7.70835 2.00061 9.04819 2.00061ZM7.6683 3.276C7.47915 3.0037 7.13851 2.9191 6.84506 3.0719C6.38063 3.31394 6.40229 3.97913 6.88217 4.20764C7.05485 4.28925 7.33 4.26894 7.49057 4.15979C7.69213 4.02368 7.76103 3.88942 7.76108 3.63147C7.76108 3.43372 7.75106 3.3945 7.6683 3.276Z"/></svg>