<svg width="16" height="16" viewBox="0 0 16 16" xmlns="http://www.w3.org/2000/svg" fill="currentColor"><path d="M8 11C8.41421 11 8.75 11.3358 8.75 11.75C8.75 12.1642 8.41421 12.5 8 12.5C7.58579 12.5 7.25 12.1642 7.25 11.75C7.25 11.3358 7.58579 11 8 11Z"/><path d="M8 4C9.262 4 10.25 4.988 10.25 6.25C10.25 7.333 9.68352 7.89852 9.22852 8.35352C8.82052 8.76052 8.5 9.082 8.5 9.75C8.5 10.026 8.276 10.25 8 10.25C7.724 10.25 7.5 10.026 7.5 9.75C7.5 8.667 8.06648 8.10148 8.52148 7.64648C8.92948 7.23948 9.25 6.918 9.25 6.25C9.25 5.538 8.712 5 8 5C7.288 5 6.75 5.538 6.75 6.25C6.75 6.526 6.526 6.75 6.25 6.75C5.974 6.75 5.75 6.526 5.75 6.25C5.75 4.988 6.738 4 8 4Z"/><path fill-rule="evenodd" clip-rule="evenodd" d="M8 1C11.86 1 15 4.14 15 8C15 11.86 11.86 15 8 15C4.14 15 1 11.86 1 8C1 4.14 4.14 1 8 1ZM8 2C4.691 2 2 4.691 2 8C2 11.309 4.691 14 8 14C11.309 14 14 11.309 14 8C14 4.691 11.309 2 8 2Z"/></svg>