<svg width="16" height="16" viewBox="0 0 16 16" xmlns="http://www.w3.org/2000/svg" fill="currentColor"><path fill-rule="evenodd" clip-rule="evenodd" d="M8 1.5C6.27609 1.5 4.62279 2.18482 3.40381 3.40381C2.18482 4.62279 1.5 6.27609 1.5 8C1.5 9.72391 2.18482 11.3772 3.40381 12.5962C4.62279 13.8152 6.27609 14.5 8 14.5C9.72391 14.5 11.3772 13.8152 12.5962 12.5962C13.8152 11.3772 14.5 9.72391 14.5 8C14.5 6.27609 13.8152 4.62279 12.5962 3.40381C11.3772 2.18482 9.72391 1.5 8 1.5ZM8 13.5C6.54131 13.5 5.14236 12.9205 4.11091 11.8891C3.07946 10.8576 2.5 9.45869 2.5 8C2.5 6.54131 3.07946 5.14236 4.11091 4.11091C5.14236 3.07946 6.54131 2.5 8 2.5C9.45869 2.5 10.8576 3.07946 11.8891 4.11091C12.9205 5.14236 13.5 6.54131 13.5 8C13.5 9.45869 12.9205 10.8576 11.8891 11.8891C10.8576 12.9205 9.45869 13.5 8 13.5ZM9.55 5.08C9.37724 4.9001 9.1697 4.75721 8.94 4.66C8.651 4.54429 8.34114 4.48981 8.03 4.5C7.72801 4.49452 7.42822 4.55243 7.15 4.67C6.911 4.77 6.7 4.924 6.53 5.12C6.36439 5.30012 6.23534 5.51068 6.15 5.74C6.07066 5.97294 6.02028 6.21476 6 6.46H7.23C7.23567 6.30129 7.28621 6.14743 7.37577 6.01628C7.46533 5.88512 7.59024 5.78205 7.736 5.719C7.83261 5.68094 7.93632 5.66422 8.04 5.67C8.12944 5.65578 8.22056 5.65578 8.31 5.67C8.39216 5.70107 8.46705 5.74873 8.53 5.81C8.59947 5.87012 8.65421 5.94538 8.69 6.03C8.73097 6.12464 8.75141 6.22688 8.75 6.33C8.75 6.503 8.713 6.673 8.64 6.83C8.56737 6.99289 8.47681 7.14717 8.37 7.29L8.02 7.71C7.9 7.84 7.78 7.98 7.67 8.12C7.56334 8.25935 7.47277 8.41031 7.4 8.57C7.33062 8.72739 7.29649 8.89804 7.3 9.07V9.73H8.5V9.24C8.50339 9.09333 8.54106 8.9495 8.61 8.82C8.69218 8.67604 8.78582 8.53893 8.89 8.41L9.25 7.97C9.38106 7.8186 9.50135 7.65821 9.61 7.49C9.72492 7.31848 9.81892 7.13384 9.89 6.94C9.96293 6.73451 10.0001 6.51805 10 6.3C10.0018 6.07282 9.96804 5.84676 9.9 5.63C9.82448 5.42351 9.70507 5.23586 9.55 5.08ZM7.3 10.33H8.47V11.5H7.3V10.33Z"/></svg>