<svg width="18" height="18" viewBox="0 0 18 18" xmlns="http://www.w3.org/2000/svg" fill="currentColor"><path d="M9 12C9.41421 12 9.75 12.3358 9.75 12.75C9.75 13.1642 9.41421 13.5 9 13.5C8.58579 13.5 8.25 13.1642 8.25 12.75C8.25 12.3358 8.58579 12 9 12Z"/><path d="M9 5C10.262 5 11.25 5.988 11.25 7.25C11.25 8.333 10.6835 8.89852 10.2285 9.35352C9.82052 9.76052 9.5 10.082 9.5 10.75C9.5 11.026 9.276 11.25 9 11.25C8.724 11.25 8.5 11.026 8.5 10.75C8.5 9.667 9.06648 9.10148 9.52148 8.64648C9.92948 8.23948 10.25 7.918 10.25 7.25C10.25 6.538 9.712 6 9 6C8.288 6 7.75 6.538 7.75 7.25C7.75 7.526 7.526 7.75 7.25 7.75C6.974 7.75 6.75 7.526 6.75 7.25C6.75 5.988 7.738 5 9 5Z"/><path fill-rule="evenodd" clip-rule="evenodd" d="M9 2C12.86 2 16 5.14 16 9C16 12.86 12.86 16 9 16C5.14 16 2 12.86 2 9C2 5.14 5.14 2 9 2ZM9 3C5.691 3 3 5.691 3 9C3 12.309 5.691 15 9 15C12.309 15 15 12.309 15 9C15 5.691 12.309 3 9 3Z"/></svg>