<svg width="16" height="16" viewBox="0 0 16 16" fill="none" xmlns="http://www.w3.org/2000/svg">
<path fill-rule="evenodd" clip-rule="evenodd" d="M7.16 3.50003C4.73 5.06003 3.55 6.67003 3.55 9.36003C3.71 9.31003 3.85 9.31003 3.99 9.31003C5.26 9.31003 6.49 10.17 6.49 11.72C6.49 13.33 5.46 14.33 3.99 14.33C2.09 14.33 1 12.81 1 10.08C1 6.28003 2.75 3.55003 6.02 1.66003L7.16 3.50003ZM14.16 3.50003C11.73 5.06003 10.55 6.67003 10.55 9.36003C10.71 9.31003 10.85 9.31003 10.99 9.31003C12.26 9.31003 13.49 10.17 13.49 11.72C13.49 13.33 12.46 14.33 10.99 14.33C9.1 14.33 8.01 12.81 8.01 10.08C8.01 6.28003 9.76 3.55003 13.03 1.66003L14.17 3.50003H14.16Z" fill="white"/>
</svg>
