<svg width="16" height="16" viewBox="0 0 16 16" fill="none" xmlns="http://www.w3.org/2000/svg">
<path fill-rule="evenodd" clip-rule="evenodd" d="M2.99841 5.57996C3.00865 4.12421 3.59044 2.73077 4.61841 1.69995L3.90839 1C3.30369 1.59963 2.82376 2.31304 2.49622 3.09912C2.16867 3.88521 2 4.72836 2 5.57996C2 6.43155 2.16867 7.27471 2.49622 8.06079C2.82376 8.84688 3.30369 9.56028 3.90839 10.1599L4.61841 9.45996C3.59044 8.42915 3.00865 7.0357 2.99841 5.57996ZM4.05839 5.57996C4.05581 6.16968 4.17129 6.75392 4.39799 7.29834C4.62469 7.84276 4.95803 8.33639 5.3784 8.75L6.08842 8.03992C5.75975 7.72367 5.50086 7.34217 5.32841 6.91992C5.14994 6.49573 5.05812 6.04016 5.05839 5.57996C5.05699 5.12287 5.14888 4.67035 5.32841 4.25C5.49829 3.82346 5.75742 3.43817 6.08842 3.12L5.3784 2.40991C4.95983 2.82487 4.62767 3.31868 4.4011 3.86279C4.17453 4.4069 4.05804 4.99056 4.05839 5.57996ZM11.7084 8.78992L10.9984 8.07996C11.3282 7.7608 11.5872 7.37578 11.7584 6.94995C11.9369 6.52576 12.0287 6.07019 12.0284 5.60999C12.0298 5.1529 11.938 4.70026 11.7584 4.27991C11.5885 3.85337 11.3294 3.46808 10.9984 3.1499L11.7084 2.44995C12.1263 2.86536 12.4579 3.35929 12.6841 3.90332C12.9104 4.44735 13.0269 5.03079 13.0269 5.62C13.0269 6.2092 12.9104 6.79252 12.6841 7.33655C12.4579 7.88058 12.1263 8.3745 11.7084 8.78992ZM13.0684 1L12.3584 1.70996C12.8718 2.21526 13.2796 2.81765 13.5579 3.48206C13.8362 4.14647 13.9795 4.85961 13.9795 5.57996C13.9795 6.3003 13.8362 7.01345 13.5579 7.67786C13.2796 8.34227 12.8718 8.94466 12.3584 9.44995L13.0684 10.1599C13.6731 9.56028 14.1531 8.84688 14.4807 8.06079C14.8082 7.27471 14.9768 6.43155 14.9768 5.57996C14.9768 4.72836 14.8082 3.88521 14.4807 3.09912C14.1531 2.31304 13.6731 1.59963 13.0684 1ZM9.99274 5.4303C10.027 5.77529 9.94063 6.12139 9.74841 6.40991C9.6654 6.49442 9.57503 6.57149 9.47839 6.64001L12.9184 14.37L11.9984 14.7699L11.2284 13.0399H5.68842L4.9184 14.7699L3.99841 14.37L7.43842 6.64001C7.22945 6.42892 7.08694 6.16121 7.02844 5.86999C6.96962 5.58172 6.99741 5.28249 7.1084 5.01001C7.22537 4.73395 7.41989 4.49769 7.6684 4.32995C7.95691 4.13773 8.30314 4.05136 8.64813 4.08557C8.99313 4.11978 9.31559 4.27243 9.56073 4.51758C9.80587 4.76272 9.95852 5.0853 9.99274 5.4303ZM8.39844 5.08996C8.30364 5.1123 8.21702 5.16082 8.14844 5.22998C8.0947 5.29346 8.05694 5.36888 8.03839 5.44995C8.00849 5.5443 8.00849 5.64563 8.03839 5.73999C8.07779 5.83075 8.13975 5.90991 8.21838 5.96997C8.30263 6.02177 8.39952 6.0494 8.49841 6.04993C8.63022 6.04737 8.7559 5.99385 8.84912 5.90063C8.94234 5.80741 8.99585 5.68173 8.99841 5.54993C8.99789 5.45103 8.9702 5.35414 8.9184 5.2699C8.85834 5.19126 8.77918 5.12936 8.68842 5.08996C8.59406 5.06006 8.49279 5.06006 8.39844 5.08996ZM8.62842 7.14001H8.3584L7.4884 9.07995H9.4884L8.62842 7.14001ZM10.8284 12.08L9.93842 10.08H7.05841L6.1684 12.08H10.8284Z" fill="white"/>
</svg>
