<svg width="16" height="16" viewBox="0 0 16 16" fill="none" xmlns="http://www.w3.org/2000/svg">
<path fill-rule="evenodd" clip-rule="evenodd" d="M12 1H11V4H8V5H11V8H12V5H15V4H12V1ZM6 4.02242C3.19675 4.27504 1 6.63098 1 9.5C1 12.5376 3.46243 15 6.5 15C9.36902 15 11.725 12.8033 11.9776 10H10.9725C10.7238 12.25 8.81628 14 6.5 14C4.01472 14 2 11.9853 2 9.5C2 7.18372 3.75002 5.27619 6 5.02747V4.02242ZM4.5 9C5.05228 9 5.5 8.55229 5.5 8C5.5 7.44772 5.05228 7 4.5 7C3.94771 7 3.5 7.44772 3.5 8C3.5 8.55229 3.94771 9 4.5 9ZM6.5 11.5C7.21218 11.5 7.8548 11.2022 8.31014 10.7244L9.0174 11.4316C8.38096 12.0904 7.48832 12.5 6.5 12.5C5.49196 12.5 4.58345 12.0739 3.9448 11.3919L4.65244 10.6842C5.10965 11.1855 5.76809 11.5 6.5 11.5ZM8.5 9C9.05229 9 9.5 8.55228 9.5 8C9.5 7.44771 9.05229 7 8.5 7C7.94772 7 7.5 7.44771 7.5 8C7.5 8.55228 7.94772 9 8.5 9Z" fill="#C5C5C5"/>
</svg>
