<svg xmlns="http://www.w3.org/2000/svg" width="12" height="12" viewBox="0 0 12 12" fill="currentColor"><path d="M10.5 1H1.5C0.673 1 0 1.673 0 2.5V8.5C0 9.327 0.673 10 1.5 10H10.5C11.327 10 12 9.327 12 8.5V2.5C12 1.673 11.327 1 10.5 1ZM11 8.5C11 8.776 10.775 9 10.5 9H1.5C1.225 9 1 8.776 1 8.5V2.5C1 2.224 1.225 2 1.5 2H10.5C10.775 2 11 2.224 11 2.5V8.5ZM10 7.5C10 7.776 9.776 8 9.5 8H2.5C2.224 8 2 7.776 2 7.5C2 7.224 2.224 7 2.5 7H9.5C9.776 7 10 7.224 10 7.5ZM4.3 3.4C4.3 3.069 4.569 2.8 4.9 2.8C5.231 2.8 5.5 3.069 5.5 3.4C5.5 3.731 5.231 4 4.9 4C4.569 4 4.3 3.731 4.3 3.4ZM2.3 3.4C2.3 3.069 2.569 2.8 2.9 2.8C3.231 2.8 3.5 3.069 3.5 3.4C3.5 3.731 3.231 4 2.9 4C2.569 4 2.3 3.731 2.3 3.4ZM6.3 3.4C6.3 3.069 6.569 2.8 6.9 2.8C7.231 2.8 7.5 3.069 7.5 3.4C7.5 3.731 7.231 4 6.9 4C6.569 4 6.3 3.731 6.3 3.4ZM8.3 3.4C8.3 3.069 8.569 2.8 8.9 2.8C9.231 2.8 9.5 3.069 9.5 3.4C9.5 3.731 9.231 4 8.9 4C8.569 4 8.3 3.731 8.3 3.4ZM3.9 4.8C4.231 4.8 4.5 5.069 4.5 5.4C4.5 5.731 4.231 6 3.9 6C3.569 6 3.3 5.731 3.3 5.4C3.3 5.069 3.569 4.8 3.9 4.8ZM5.9 4.8C6.231 4.8 6.5 5.069 6.5 5.4C6.5 5.731 6.231 6 5.9 6C5.569 6 5.3 5.731 5.3 5.4C5.3 5.069 5.569 4.8 5.9 4.8ZM7.9 4.8C8.231 4.8 8.5 5.069 8.5 5.4C8.5 5.731 8.231 6 7.9 6C7.569 6 7.3 5.731 7.3 5.4C7.3 5.069 7.569 4.8 7.9 4.8Z"/></svg>