<svg width="24" height="24" viewBox="0 0 24 24" xmlns="http://www.w3.org/2000/svg" fill="currentColor"><path d="M5.4705 0.97084C5.763 0.67834 6.2385 0.67834 6.531 0.97084L8.781 3.21934C9.0735 3.51184 9.0735 3.98734 8.781 4.27984L6.531 6.52984C6.2385 6.82234 5.763 6.82234 5.4705 6.52984C5.178 6.23734 5.178 5.76184 5.4705 5.46934L6.4395 4.50034H3.375C3.2745 4.50034 3.18 4.53934 3.1095 4.60984C3.039 4.68034 3 4.77634 3 4.87534V6.75034C3 7.16434 2.664 7.50034 2.25 7.50034C1.836 7.50034 1.5 7.16434 1.5 6.75034V4.87534C1.5 4.37734 1.698 3.90034 2.049 3.54934C2.4015 3.19834 2.877 3.00034 3.375 3.00034H6.4395L5.4705 2.03134C5.178 1.73884 5.178 1.26334 5.4705 0.97084Z"/><path d="M10.5 18.75C10.5 19.164 10.164 19.5 9.75 19.5H5.25C4.836 19.5 4.5 19.164 4.5 18.75C4.5 18.336 4.836 18 5.25 18H9.75C10.164 18 10.5 18.336 10.5 18.75ZM13.5 10.5V21C13.5 21.8265 12.828 22.5 12 22.5H3C2.172 22.5 1.5 21.8265 1.5 21V10.5C1.5 9.6735 2.172 9 3 9H12C12.828 9 13.5 9.6735 13.5 10.5ZM12.0015 21V10.5H3V21H12.0015ZM9.75 12H5.25C4.836 12 4.5 12.336 4.5 12.75C4.5 13.164 4.836 13.5 5.25 13.5H9.75C10.164 13.5 10.5 13.164 10.5 12.75C10.5 12.336 10.164 12 9.75 12ZM9.75 15H5.25C4.836 15 4.5 15.336 4.5 15.75C4.5 16.164 4.836 16.5 5.25 16.5H9.75C10.164 16.5 10.5 16.164 10.5 15.75C10.5 15.336 10.164 15 9.75 15ZM14.25 6H18.75C19.164 6 19.5 5.664 19.5 5.25C19.5 4.836 19.164 4.5 18.75 4.5H14.25C13.836 4.5 13.5 4.836 13.5 5.25C13.5 5.664 13.836 6 14.25 6ZM21 1.5H12C11.172 1.5 10.5 2.1735 10.5 3V7.5H12V3H21V13.5H15V15H21C21.828 15 22.5 14.3265 22.5 13.5V3C22.5 2.1735 21.828 1.5 21 1.5ZM18.75 10.5H15V12H18.75C19.164 12 19.5 11.664 19.5 11.25C19.5 10.836 19.164 10.5 18.75 10.5ZM19.5 8.25C19.5 7.836 19.164 7.5 18.75 7.5H14.25C13.9425 7.5 13.6785 7.686 13.563 7.9515C13.9845 8.211 14.3325 8.571 14.583 9H18.75C19.164 9 19.5 8.664 19.5 8.25Z"/></svg>