<svg width="18" height="18" viewBox="0 0 18 18" xmlns="http://www.w3.org/2000/svg" fill="currentColor"><path d="M4 9C4 6.23858 6.23858 4 9 4C10.6353 4 12.0878 4.78495 13.0005 6H11C10.7239 6 10.5 6.22386 10.5 6.5C10.5 6.77614 10.7239 7 11 7H13.8904C13.8973 7.00014 13.9041 7.00014 13.911 7H14C14.2761 7 14.5 6.77614 14.5 6.5V3.5C14.5 3.22386 14.2761 3 14 3C13.7239 3 13.5 3.22386 13.5 3.5V5.03138C12.4009 3.78613 10.7925 3 9 3C5.68629 3 3 5.68629 3 9C3 12.3137 5.68629 15 9 15C12.1301 15 14.6999 12.6035 14.9756 9.54488C15.0003 9.26985 14.7975 9.0268 14.5225 9.00202C14.2474 8.97723 14.0044 9.1801 13.9796 9.45512C13.75 12.003 11.6079 14 9 14C6.23858 14 4 11.7614 4 9Z"/></svg>