<svg width="16" height="16" viewBox="0 0 16 16" xmlns="http://www.w3.org/2000/svg" fill="currentColor"><path d="M14.519 8.001C14.237 7.976 14.003 8.187 13.982 8.461C13.746 11.566 11.118 13.999 8 13.999C4.691 13.999 2 11.308 2 7.999C2 4.69 4.691 1.999 8 1.999C10.104 1.999 12.08 3.123 13.158 4.933C13.172 4.957 13.189 4.979 13.206 4.999H10C9.724 4.999 9.5 5.223 9.5 5.499C9.5 5.775 9.724 5.999 10 5.999H14C14.276 5.999 14.5 5.775 14.5 5.499V1.5C14.5 1.224 14.276 1 14 1C13.724 1 13.5 1.224 13.5 1.5V3.671C12.182 2.005 10.148 1 8 1C4.14 1 1 4.14 1 8C1 11.86 4.14 15 8 15C11.638 15 14.704 12.162 14.979 8.538C15 8.263 14.794 8.022 14.519 8.001Z"/></svg>