<svg xmlns="http://www.w3.org/2000/svg" width="12" height="12" viewBox="0 0 12 12" fill="currentColor"><path d="M6 12H5.99023L5.99512 11.999L6 12Z"/><path d="M11 0C11.28 0 11.5 0.22 11.5 0.5V3.5C11.5 3.78 11.28 4 11 4H8C7.72 4 7.5 3.78 7.5 3.5C7.5 3.22 7.72 3 8 3H10.0078C9.0725 1.74663 7.60227 0.990234 6 0.990234C3.24 0.990234 1 3.23023 1 5.99023C1.00013 8.75013 3.24008 10.9902 6 10.9902C8.60995 10.9902 10.7504 9.04012 10.9805 6.4502C11.0005 6.17036 11.2497 5.98025 11.5195 6C11.7995 6.02 11.9997 6.27004 11.9697 6.54004C11.6899 9.64831 9.12278 11.9965 5.99512 11.999C2.68736 11.9964 0 9.30837 0 6C0 2.69 2.69 0 6 0C7.75773 0 9.37558 0.751228 10.5 2.02734V0.5C10.5 0.22 10.72 0 11 0Z"/></svg>