<svg width="16" height="16" viewBox="0 0 16 16" xmlns="http://www.w3.org/2000/svg" fill="currentColor"><path d="M11.498 5H9.705L10.973 3.732C11.168 3.537 11.168 3.22 10.973 3.025C10.778 2.83 10.461 2.83 10.266 3.025L8.998 4.293V2.5C8.998 2.224 8.774 2 8.498 2C8.222 2 7.998 2.224 7.998 2.5V4.293L6.73 3.025C6.535 2.83 6.218 2.83 6.023 3.025C5.828 3.22 5.828 3.537 6.023 3.732L7.291 5H5.498C5.222 5 4.998 5.224 4.998 5.5C4.998 5.776 5.222 6 5.498 6H7.291L6.023 7.268C5.828 7.463 5.828 7.78 6.023 7.975C6.121 8.073 6.249 8.121 6.377 8.121C6.505 8.121 6.633 8.072 6.731 7.975L7.999 6.707V8.5C7.999 8.776 8.223 9 8.499 9C8.775 9 8.999 8.776 8.999 8.5V6.707L10.267 7.975C10.365 8.073 10.493 8.121 10.621 8.121C10.749 8.121 10.877 8.072 10.975 7.975C11.17 7.78 11.17 7.463 10.975 7.268L9.707 6H11.5C11.776 6 12 5.776 12 5.5C12 5.224 11.776 5 11.5 5H11.498ZM5 12C5 12.552 4.552 13 4 13C3.448 13 3 12.552 3 12C3 11.448 3.448 11 4 11C4.552 11 5 11.448 5 12Z"/></svg>