<svg width="18" height="18" viewBox="0 0 18 18" xmlns="http://www.w3.org/2000/svg" fill="currentColor"><path d="M8.85401 10.646C9.04901 10.841 9.04901 11.158 8.85401 11.353L4.85401 15.353C4.75601 15.451 4.62801 15.499 4.50001 15.499C4.37201 15.499 4.24401 15.45 4.14601 15.353C3.95101 15.158 3.95101 14.841 4.14601 14.646L7.79201 11L4.14601 7.35398C3.95101 7.15898 3.95101 6.84198 4.14601 6.64698C4.34101 6.45198 4.65801 6.45198 4.85301 6.64698L8.85301 10.647L8.85401 10.646ZM10.207 6.99998L13.853 3.35398C14.048 3.15898 14.048 2.84198 13.853 2.64698C13.658 2.45198 13.341 2.45198 13.146 2.64698L9.14601 6.64698C8.95101 6.84198 8.95101 7.15898 9.14601 7.35398L13.146 11.354C13.244 11.452 13.372 11.5 13.5 11.5C13.628 11.5 13.756 11.451 13.854 11.354C14.049 11.159 14.049 10.842 13.854 10.647L10.208 7.00098L10.207 6.99998Z"/></svg>