<svg width="24" height="24" viewBox="0 0 24 24" fill="none" xmlns="http://www.w3.org/2000/svg">
<path fill-rule="evenodd" clip-rule="evenodd" d="M1.34375 2.125H21.6562L22.4375 2.90625V11.5048C21.9519 11.1401 21.4272 10.8346 20.875 10.593V3.6875H2.125V17.75H9.9375C9.9375 18.2593 9.9873 18.7698 10.0876 19.2741C10.3167 20.4256 10.8012 21.5058 11.5 22.4375H5.25V20.875H9.9375V19.3125H1.34375L0.5625 18.5312V2.90625L1.34375 2.125ZM17.75 11.5C16.5138 11.5 15.3054 11.8665 14.2776 12.5532C13.2498 13.24 12.4487 14.2161 11.9757 15.3582C11.5026 16.5002 11.379 17.757 11.6201 18.9694C11.8613 20.1817 12.4566 21.2952 13.3306 22.1693C14.2047 23.0434 15.3182 23.6387 16.5306 23.8798C17.743 24.121 18.9997 23.9974 20.1418 23.5243C21.2838 23.0513 22.26 22.2501 22.9467 21.2223C23.6335 20.1945 24 18.9861 24 17.75C24 16.0924 23.3414 14.5028 22.1693 13.3307C20.9972 12.1586 19.4076 11.5 17.75 11.5ZM17.75 22.4375C16.8229 22.4375 15.9165 22.1625 15.1457 21.6475C14.3748 21.1324 13.7741 20.4004 13.4193 19.5439C13.0645 18.6873 12.9716 17.7447 13.1525 16.8354C13.3334 15.9261 13.7798 15.091 14.4354 14.4354C15.0909 13.7799 15.9261 13.3334 16.8354 13.1525C17.7447 12.9717 18.6873 13.0646 19.5438 13.4194C20.4004 13.7742 21.1324 14.3749 21.6474 15.1457C22.1625 15.9166 22.4375 16.8229 22.4375 17.75C22.4375 18.9932 21.9436 20.1855 21.0646 21.0646C20.1855 21.9437 18.9932 22.4375 17.75 22.4375ZM20.3527 19.3056L18.1998 17.1526L20.3527 15L21 15.6465L19.4935 17.1526L21 18.6591L20.3527 19.3056ZM15 17.2463L16.5065 18.7528L15 20.2593L15.6473 20.9061L17.7999 18.7528L15.6473 16.5998L15 17.2463Z" fill="#C5C5C5"/>
</svg>
