<svg width="16" height="16" viewBox="0 0 16 16" xmlns="http://www.w3.org/2000/svg" fill="currentColor"><path d="M3.14573 5.14704C3.34064 4.95221 3.65776 4.95237 3.85277 5.14704L7.85277 9.14704L7.85374 9.14606C8.04873 9.34105 8.0487 9.65809 7.85374 9.8531L3.85374 13.8531C3.7558 13.951 3.62815 13.9995 3.50023 13.9996C3.37223 13.9996 3.24373 13.9501 3.14573 13.8531C2.95103 13.6581 2.95083 13.341 3.14573 13.1461L6.79222 9.50056L3.14573 5.85407C2.95104 5.65905 2.95084 5.34194 3.14573 5.14704Z"/><path d="M12.1457 1.14704C12.3406 0.952206 12.6578 0.952371 12.8528 1.14704C13.0477 1.34202 13.0477 1.65907 12.8528 1.85407L9.20726 5.50056L12.8537 9.14704C13.0487 9.34202 13.0487 9.65907 12.8537 9.85407C12.7558 9.95101 12.6282 10.0005 12.5002 10.0006C12.3722 10.0006 12.2437 9.95207 12.1457 9.85407L8.14573 5.85407C7.95104 5.65905 7.95084 5.34194 8.14573 5.14704L12.1457 1.14704Z"/></svg>