<svg xmlns="http://www.w3.org/2000/svg" width="12" height="12" viewBox="0 0 12 12" fill="currentColor"><path d="M6.35401 7.64623C6.54901 7.84123 6.54901 8.15823 6.35401 8.35323L2.85401 11.8532C2.75601 11.9512 2.62801 11.9992 2.50001 11.9992C2.37201 11.9992 2.24401 11.9502 2.14601 11.8532C1.95101 11.6582 1.95101 11.3412 2.14601 11.1462L5.29201 8.00023L2.14601 4.85423C1.95101 4.65923 1.95101 4.34223 2.14601 4.14723C2.34101 3.95223 2.65801 3.95223 2.85301 4.14723L6.35301 7.64723L6.35401 7.64623ZM6.70701 4.00023L9.85301 0.854226C10.048 0.659226 10.048 0.342227 9.85301 0.147227C9.65801 -0.0477734 9.34101 -0.0477734 9.14601 0.147227L5.64601 3.64723C5.45101 3.84223 5.45101 4.15923 5.64601 4.35423L9.14601 7.85423C9.24401 7.95223 9.37201 8.00023 9.50001 8.00023C9.62801 8.00023 9.75601 7.95123 9.85401 7.85423C10.049 7.65923 10.049 7.34223 9.85401 7.14723L6.70801 4.00123L6.70701 4.00023Z"/></svg>