<svg width="24" height="24" viewBox="0 0 24 24" xmlns="http://www.w3.org/2000/svg" fill="currentColor"><path d="M4.5 3C2.84315 3 1.5 4.34315 1.5 6V14.9959C1.5 16.6528 2.84315 17.9959 4.5 17.9959H7.50751V19.512L5.25897 19.512C4.84476 19.512 4.50897 19.8478 4.50898 20.262C4.50898 20.6762 4.84477 21.012 5.25898 21.012L9.90569 21.012C9.66184 20.5368 9.46273 20.035 9.31394 19.512L9.00751 19.512V17.9959H9.03327C9.01125 17.7502 9 17.5014 9 17.25C9 16.9958 9.0115 16.7443 9.034 16.4959H4.5C3.67157 16.4959 3 15.8244 3 14.9959V6C3 5.17157 3.67157 4.5 4.5 4.5H16.5C17.3284 4.5 18 5.17157 18 6V9.03363C18.5151 9.08005 19.0166 9.17382 19.5 9.31055V6C19.5 4.34315 18.1569 3 16.5 3H4.5Z"/><path fill-rule="evenodd" clip-rule="evenodd" d="M17.25 24C20.9779 24 24 20.9779 24 17.25C24 13.5221 20.9779 10.5 17.25 10.5C13.5221 10.5 10.5 13.5221 10.5 17.25C10.5 20.9779 13.5221 24 17.25 24ZM17.0308 18.219C17.1007 18.2887 17.1561 18.3715 17.1939 18.4626C17.2317 18.5537 17.2512 18.6514 17.2512 18.75C17.2512 18.8487 17.2317 18.9464 17.1939 19.0375C17.1561 19.1286 17.1007 19.2114 17.0308 19.281L14.7808 21.531C14.64 21.6719 14.449 21.751 14.2498 21.751C14.0507 21.751 13.8597 21.6719 13.7188 21.531C13.578 21.3902 13.4989 21.1992 13.4989 21C13.4989 20.8009 13.578 20.6099 13.7188 20.469L15.4394 18.75L13.7188 17.031C13.578 16.8902 13.4989 16.6992 13.4989 16.5C13.4989 16.3009 13.578 16.1099 13.7188 15.969C13.8597 15.8282 14.0507 15.7491 14.2498 15.7491C14.449 15.7491 14.64 15.8282 14.7808 15.969L17.0308 18.219ZM19.0603 15.75L20.7808 14.031C20.9217 13.8902 21.0008 13.6992 21.0008 13.5C21.0008 13.3009 20.9217 13.1099 20.7808 12.969C20.64 12.8282 20.449 12.7491 20.2498 12.7491C20.0507 12.7491 19.8597 12.8282 19.7188 12.969L17.4688 15.219C17.399 15.2887 17.3436 15.3715 17.3058 15.4626C17.268 15.5537 17.2485 15.6514 17.2485 15.75C17.2485 15.8487 17.268 15.9464 17.3058 16.0375C17.3436 16.1286 17.399 16.2114 17.4688 16.281L19.7188 18.531C19.8597 18.6719 20.0507 18.751 20.2498 18.751C20.449 18.751 20.64 18.6719 20.7808 18.531C20.9217 18.3902 21.0008 18.1992 21.0008 18C21.0008 17.8009 20.9217 17.6099 20.7808 17.469L19.0603 15.75Z"/></svg>