<svg width="16" height="16" viewBox="0 0 16 16" xmlns="http://www.w3.org/2000/svg" fill="currentColor"><path d="M7.85401 9.64598C8.04901 9.84098 8.04901 10.158 7.85401 10.353L3.85401 14.353C3.75601 14.451 3.62801 14.499 3.50001 14.499C3.37201 14.499 3.24401 14.45 3.14601 14.353C2.95101 14.158 2.95101 13.841 3.14601 13.646L6.79201 9.99998L3.14601 6.35398C2.95101 6.15898 2.95101 5.84198 3.14601 5.64698C3.34101 5.45198 3.65801 5.45198 3.85301 5.64698L7.85301 9.64698L7.85401 9.64598ZM9.20701 5.99998L12.853 2.35398C13.048 2.15898 13.048 1.84198 12.853 1.64698C12.658 1.45198 12.341 1.45198 12.146 1.64698L8.14601 5.64698C7.95101 5.84198 7.95101 6.15898 8.14601 6.35398L12.146 10.354C12.244 10.452 12.372 10.5 12.5 10.5C12.628 10.5 12.756 10.451 12.854 10.354C13.049 10.159 13.049 9.84198 12.854 9.64698L9.20801 6.00098L9.20701 5.99998Z"/></svg>