<svg width="24" height="25" viewBox="0 0 24 25" xmlns="http://www.w3.org/2000/svg" fill="currentColor"><path fill-rule="evenodd" clip-rule="evenodd" d="M9.32 20.0677C9.469 20.5907 9.667 21.0917 9.911 21.5677H3.759C3.345 21.5677 3.009 21.2317 3.009 20.8177C3.009 20.4037 3.345 20.0677 3.759 20.0677H6.008V18.5517H3C1.343 18.5517 0 17.2087 0 15.5517V5.06775C0 3.41075 1.343 2.06775 3 2.06775H16.5C18.157 2.06775 19.5 3.41075 19.5 5.06775V9.88775C19.016 9.74975 18.516 9.65275 18 9.60575V5.06775C18 4.23975 17.328 3.56775 16.5 3.56775H3C2.172 3.56775 1.5 4.23975 1.5 5.06775V15.5517C1.5 16.3797 2.172 17.0517 3 17.0517H9.039C9.016 17.3047 9 17.5587 9 17.8177C9 18.0657 9.016 18.3097 9.037 18.5517H7.507V20.0677H9.32ZM24 17.8177C24 21.5457 20.978 24.5677 17.25 24.5677C13.522 24.5677 10.5 21.5457 10.5 17.8177C10.5 14.0897 13.522 11.0677 17.25 11.0677C20.978 11.0677 24 14.0897 24 17.8177ZM17.251 19.3177C17.251 19.2187 17.231 19.1217 17.194 19.0307C17.156 18.9397 17.101 18.8567 17.031 18.7867L14.781 16.5367C14.64 16.3957 14.449 16.3167 14.25 16.3167C14.051 16.3167 13.86 16.3957 13.719 16.5367C13.578 16.6777 13.499 16.8687 13.499 17.0677C13.499 17.2667 13.578 17.4577 13.719 17.5987L15.44 19.3177L13.719 21.0367C13.578 21.1777 13.499 21.3687 13.499 21.5677C13.499 21.7667 13.578 21.9577 13.719 22.0987C13.86 22.2397 14.051 22.3187 14.25 22.3187C14.449 22.3187 14.64 22.2397 14.781 22.0987L17.031 19.8487C17.101 19.7787 17.156 19.6967 17.194 19.6057C17.232 19.5147 17.251 19.4167 17.251 19.3177ZM19.06 16.3177L20.78 14.5987C20.921 14.4577 21 14.2667 21 14.0677C21 13.8687 20.921 13.6777 20.78 13.5367C20.639 13.3957 20.448 13.3167 20.249 13.3167C20.05 13.3167 19.859 13.3957 19.718 13.5367L17.468 15.7867C17.398 15.8567 17.343 15.9387 17.305 16.0307C17.267 16.1217 17.248 16.2197 17.248 16.3177C17.248 16.4157 17.268 16.5137 17.305 16.6057C17.343 16.6967 17.398 16.7797 17.468 16.8487L19.718 19.0987C19.859 19.2397 20.05 19.3187 20.249 19.3187C20.448 19.3187 20.639 19.2397 20.78 19.0987C20.921 18.9577 21 18.7667 21 18.5677C21 18.3687 20.921 18.1777 20.78 18.0367L19.06 16.3177Z"/></svg>