<svg width="16" height="16" viewBox="0 0 16 16" xmlns="http://www.w3.org/2000/svg" fill="currentColor"><path fill-rule="evenodd" clip-rule="evenodd" d="M10 2.813C10.295 2.619 10.634 2.5 11 2.5C12.103 2.5 13 3.509 13 4.75C13 5.991 12.103 7 11 7C10.62 7 10.269 6.873 9.966 6.666C9.897 6.86 9.717 7 9.5 7C9.224 7 9 6.776 9 6.5V1.5C9 1.224 9.224 1 9.5 1C9.776 1 10 1.224 10 1.5V2.813ZM10 4.75C10 5.439 10.448 6 11 6C11.552 6 12 5.439 12 4.75C12 4.061 11.552 3.5 11 3.5C10.448 3.5 10 4.061 10 4.75Z"/><path fill-rule="evenodd" clip-rule="evenodd" d="M2 9H7C7.552 9 8 9.448 8 10V15C8 15.552 7.552 16 7 16H2C1.448 16 1 15.552 1 15V10C1 9.448 1.448 9 2 9ZM5.039 13.645C4.81 13.849 4.199 13.968 3.83 13.506C3.617 13.24 3.5 12.88 3.5 12.492C3.5 12.104 3.618 11.744 3.83 11.478C4.201 11.014 4.811 11.133 5.04 11.339C5.244 11.525 5.56 11.507 5.746 11.303C5.931 11.098 5.915 10.782 5.709 10.597C4.922 9.887 3.733 10.001 3.049 10.853C2.695 11.297 2.5 11.878 2.5 12.492C2.5 13.106 2.695 13.688 3.049 14.131C3.43 14.605 3.945 14.867 4.5 14.867C4.941 14.867 5.359 14.701 5.708 14.387C5.913 14.202 5.93 13.886 5.745 13.681C5.559 13.476 5.243 13.458 5.039 13.645Z"/><path d="M3.99998 4.5C3.99998 3.673 4.67298 3 5.49998 3H7.50198C7.77798 3 8.00198 3.224 8.00198 3.5C8.00198 3.776 7.77798 4 7.50198 4H5.50198C5.22598 4 5.00198 4.225 5.00198 4.5V6.293L6.14798 5.147C6.34298 4.952 6.65998 4.952 6.85498 5.147C7.04998 5.342 7.04998 5.659 6.85498 5.854L4.85498 7.854C4.75698 7.951 4.62898 8 4.50098 8C4.37298 8 4.24498 7.952 4.14698 7.854L2.14698 5.854C1.95198 5.659 1.95198 5.342 2.14698 5.147C2.34198 4.952 2.65898 4.952 2.85398 5.147L3.99998 6.293V4.5Z"/></svg>