<svg width="16" height="16" viewBox="0 0 16 16" xmlns="http://www.w3.org/2000/svg" fill="currentColor"><path d="M14 13V10C14 8.35 12.65 7 11 7H5.12L4.12 8H11C12.1 8 13 8.9 13 10V14C13.55 14 14 13.55 14 13Z"/><path fill-rule="evenodd" clip-rule="evenodd" d="M10.999 5.5V2.75C10.999 1.765 10.12 1.25 9.25 1.25C8.362 1.25 7.989 1.553 7.896 1.646C7.701 1.841 7.687 2.17 7.882 2.365C8.076 2.561 8.379 2.573 8.575 2.378C8.57462 2.37825 8.57506 2.37797 8.575 2.378C8.58734 2.36997 8.77165 2.25 9.249 2.25C9.279 2.25 9.999 2.256 9.999 2.75V3.056C9.795 3.023 9.551 3 9.249 3C7.936 3 7.249 3.754 7.249 4.5C7.249 5.246 7.936 6 9.249 6C9.621 6 9.91 5.937 10.144 5.851C10.235 5.943 10.36 6 10.499 6C10.775 6 10.999 5.776 10.999 5.5ZM9.25 4C9.622 4 9.856 4.038 10 4.074V4.811C9.907 4.885 9.697 5 9.25 5C8.601 5 8.25 4.742 8.25 4.5C8.25 4.258 8.601 4 9.25 4Z"/><path d="M5.001 13.074C4.857 13.038 4.623 13 4.251 13C3.602 13 3.251 13.258 3.251 13.5C3.251 13.742 3.602 14 4.251 14C4.698 14 4.908 13.885 5.001 13.811V13.074Z"/><path fill-rule="evenodd" clip-rule="evenodd" d="M12 15V10C12 9.448 11.552 9 11 9H2C1.448 9 1 9.448 1 10V15C1 15.552 1.448 16 2 16H11C11.552 16 12 15.552 12 15ZM4.251 10.25C5.121 10.25 6 10.765 6 11.75V14.5C6 14.776 5.776 15 5.5 15C5.361 15 5.236 14.943 5.145 14.851C4.911 14.937 4.622 15 4.25 15C2.937 15 2.25 14.246 2.25 13.5C2.25 12.754 2.937 12 4.25 12C4.552 12 4.796 12.023 5 12.056V11.75C5 11.256 4.28 11.25 4.25 11.25C3.78749 11.25 3.6007 11.3631 3.57831 11.3767C3.57688 11.3775 3.57612 11.378 3.576 11.378C3.38 11.573 3.077 11.561 2.883 11.365C2.688 11.17 2.702 10.841 2.897 10.646C2.99 10.553 3.363 10.25 4.251 10.25ZM8.33 11.611C8.117 11.877 8 12.237 8 12.625C8 13.013 8.117 13.373 8.33 13.639C8.699 14.101 9.31 13.982 9.539 13.778C9.743 13.591 10.059 13.609 10.245 13.814C10.43 14.019 10.414 14.335 10.208 14.52C9.86 14.834 9.442 15 9 15C8.445 15 7.929 14.739 7.549 14.264C7.195 13.82 7 13.239 7 12.625C7 12.011 7.195 11.429 7.549 10.986C8.233 10.134 9.422 10.02 10.209 10.73C10.414 10.915 10.431 11.231 10.246 11.436C10.06 11.64 9.744 11.658 9.54 11.472C9.311 11.266 8.701 11.147 8.33 11.611Z"/><path fill-rule="evenodd" clip-rule="evenodd" d="M14 6C15.103 6 16 4.991 16 3.75C16 2.509 15.103 1.5 14 1.5C13.634 1.5 13.295 1.619 13 1.813V0.5C13 0.224 12.776 0 12.5 0C12.224 0 12 0.224 12 0.5V5.5C12 5.776 12.224 6 12.5 6C12.717 6 12.897 5.86 12.966 5.666C13.269 5.873 13.62 6 14 6ZM14 2.5C14.552 2.5 15 3.061 15 3.75C15 4.439 14.552 5 14 5C13.448 5 13 4.439 13 3.75C13 3.061 13.448 2.5 14 2.5Z"/><path d="M1.99998 4.5C1.99998 3.673 2.67298 3 3.49998 3H5.50198C5.77798 3 6.00198 3.224 6.00198 3.5C6.00198 3.776 5.77798 4 5.50198 4H3.50198C3.22598 4 3.00198 4.225 3.00198 4.5V6.293L4.14798 5.147C4.34298 4.952 4.65998 4.952 4.85498 5.147C5.04998 5.342 5.04998 5.659 4.85498 5.854L2.85498 7.854C2.75698 7.951 2.62898 8 2.50098 8C2.37298 8 2.24498 7.952 2.14698 7.854L0.146982 5.854C-0.0480176 5.659 -0.0480176 5.342 0.146982 5.147C0.341982 4.952 0.658982 4.952 0.853982 5.147L1.99998 6.293V4.5Z"/></svg>