<svg width="16" height="16" viewBox="0 0 16 16" xmlns="http://www.w3.org/2000/svg" fill="currentColor"><path d="M4.85 6.15C4.755 6.05 4.627 6 4.5 6C4.372 6 4.245 6.05 4.15 6.15C4.05 6.245 4 6.373 4 6.5C4 6.627 4.05 6.755 4.15 6.85L7.15 9.85C7.245 9.95 7.372 10 7.5 10C7.628 10 7.755 9.95 7.85 9.85L10.85 6.85C10.95 6.755 11 6.628 11 6.5C11 6.372 10.95 6.245 10.85 6.15C10.755 6.05 10.627 6 10.5 6C10.373 6 10.245 6.05 10.15 6.15L8 8.29V1.5C8 1.22 7.78 1 7.5 1C7.22 1 7 1.22 7 1.5V8.29L4.85 6.15Z"/><path fill-rule="evenodd" clip-rule="evenodd" d="M9.95 13H12.5C12.78 13 13 13.22 13 13.5C13 13.78 12.78 14 12.5 14H9.95C9.72 15.14 8.71 16 7.5 16C6.29 16 5.28 15.14 5.05 14H2.5C2.22 14 2 13.78 2 13.5C2 13.22 2.22 13 2.5 13H5.05C5.28 11.86 6.29 11 7.5 11C8.71 11 9.72 11.86 9.95 13ZM6.09 14C6.29 14.58 6.85 15 7.5 15C8.15 15 8.71 14.58 8.91 14C8.97 13.84 9 13.68 9 13.5C9 13.32 8.97 13.16 8.91 13C8.71 12.42 8.15 12 7.5 12C6.85 12 6.29 12.42 6.09 13C6.03 13.16 6 13.32 6 13.5C6 13.68 6.03 13.84 6.09 14Z"/></svg>