<svg width="16" height="16" viewBox="0 0 16 16" xmlns="http://www.w3.org/2000/svg" fill="currentColor"><path d="M7.5 3C7.776 3 8 2.776 8 2.5V1.5C8 1.224 7.776 1 7.5 1C7.224 1 7 1.224 7 1.5V2.5C7 2.776 7.224 3 7.5 3Z"/><path d="M7.5 10C7.372 10 7.245 9.95 7.15 9.85L4.15 6.85C4.05 6.755 4 6.628 4 6.5C4 6.372 4.05 6.245 4.15 6.15C4.245 6.05 4.373 6 4.5 6C4.627 6 4.755 6.05 4.85 6.15L7 8.29V7.5C7 7.22 7.22 7 7.5 7C7.78 7 8 7.22 8 7.5V8.29L10.15 6.15C10.245 6.05 10.372 6 10.5 6C10.628 6 10.755 6.05 10.85 6.15C10.95 6.245 11 6.373 11 6.5C11 6.627 10.95 6.755 10.85 6.85L7.85 9.85C7.755 9.95 7.628 10 7.5 10Z"/><path fill-rule="evenodd" clip-rule="evenodd" d="M9.95 13H12.5C12.78 13 13 13.22 13 13.5C13 13.78 12.78 14 12.5 14H9.95C9.72 15.14 8.71 16 7.5 16C6.29 16 5.28 15.14 5.05 14H2.5C2.22 14 2 13.78 2 13.5C2 13.22 2.22 13 2.5 13H5.05C5.28 11.86 6.29 11 7.5 11C8.71 11 9.72 11.86 9.95 13ZM7.5 15C8.15 15 8.71 14.58 8.91 14C8.97 13.84 9 13.68 9 13.5C9 13.32 8.97 13.16 8.91 13C8.71 12.42 8.15 12 7.5 12C6.85 12 6.29 12.42 6.09 13C6.03 13.16 6 13.32 6 13.5C6 13.68 6.03 13.84 6.09 14C6.29 14.58 6.85 15 7.5 15Z"/><path d="M8 5.5C8 5.776 7.776 6 7.5 6C7.224 6 7 5.776 7 5.5V4.5C7 4.224 7.224 4 7.5 4C7.776 4 8 4.224 8 4.5V5.5Z"/></svg>