<svg width="16" height="16" viewBox="0 0 16 16" fill="none" xmlns="http://www.w3.org/2000/svg">
<path fill-rule="evenodd" clip-rule="evenodd" d="M3.74002 1H13.5L14 1.5V13.5L13.5 14H10V13H13V11H10V10H13V2H4.00003V10H7.00003V11H4.00003H3.74002C3.642 11 3.54495 11.0194 3.4545 11.0573C3.40451 11.0781 3.35709 11.1045 3.31302 11.1356C3.27743 11.1608 3.24399 11.1891 3.21323 11.2202C3.14438 11.29 3.09006 11.3728 3.05344 11.4637C3.01688 11.5547 2.99869 11.652 3.00003 11.75V12.25C2.99869 12.348 3.01688 12.4453 3.05344 12.5363C3.09006 12.6272 3.14438 12.71 3.21323 12.7798C3.28207 12.8495 3.3641 12.9049 3.4545 12.9427C3.49515 12.9597 3.53714 12.973 3.57999 12.9825C3.60794 12.9888 3.63626 12.9933 3.66476 12.9962C3.68973 12.9988 3.71487 13 3.74002 13H7.00003V14H3.74002C3.51071 14 3.2836 13.9547 3.07187 13.8666C2.86008 13.7786 2.66782 13.6494 2.50613 13.4868C2.34439 13.3242 2.21646 13.1312 2.12961 12.9189C2.04275 12.7067 1.99869 12.4794 2.00003 12.25V2.75C1.99869 2.52063 2.04275 2.29333 2.12961 2.08105C2.21646 1.86877 2.34439 1.67578 2.50613 1.51318C2.66782 1.35059 2.86008 1.22144 3.07187 1.13342C3.2836 1.04529 3.51071 1 3.74002 1ZM5.34006 5.82996L6.05002 6.53003L8.00003 4.58008V6.03003L5.38003 8.65002L6.09006 9.34998L8.01004 7.42993V15H9.01004V7.32825L11.04 9.34998L11.74 8.65002L9.00003 5.90027V4.53809L11 6.53003L11.7 5.82996L8.88003 3H8.17001L5.34006 5.82996Z" fill="white"/>
</svg>
