<svg width="16" height="16" viewBox="0 0 16 16" xmlns="http://www.w3.org/2000/svg" fill="currentColor"><path d="M13 11.5C13 11.776 12.776 12 12.5 12H4V13C4 13.552 4.448 14 5 14V13.5C5 13.224 5.224 13 5.5 13H7.5C7.776 13 8 13.224 8 13.5V14H12.5C12.776 14 13 14.224 13 14.5C13 14.776 12.776 15 12.5 15H8V15.5C8 15.702 7.878 15.885 7.691 15.962C7.63 15.987 7.564 16 7.5 16C7.37 16 7.242 15.95 7.146 15.854L6.5 15.208L5.854 15.854C5.711 15.997 5.495 16.039 5.309 15.962C5.122 15.885 5 15.702 5 15.5V15C3.895 15 3 14.105 3 13V3C3 1.895 3.895 1 5 1H9.513C9.292 1.292 9.127 1.628 9.051 2H5C4.448 2 4 2.448 4 3V11H12V9.91C12.157 9.966 12.324 10 12.5 10C12.676 10 12.843 9.965 13 9.909V11.5Z"/><path fill-rule="evenodd" clip-rule="evenodd" d="M16 5.5C16 5.776 15.776 6 15.5 6H13V7H15.5C15.776 7 16 7.224 16 7.5C16 7.776 15.776 8 15.5 8H13V8.5C13 8.776 12.776 9 12.5 9C12.224 9 12 8.776 12 8.5V8H11.5C10.673 8 10 7.327 10 6.5V2.5C10 1.673 10.673 1 11.5 1H14.5C15.327 1 16 1.673 16 2.5V5.5ZM11.5 2C11.225 2 11 2.224 11 2.5V5.085C11.156 5.03 11.325 5 11.5 5H15V2.5C15 2.224 14.775 2 14.5 2H11.5ZM11.5 7H12V6H11.5C11.225 6 11 6.224 11 6.5C11 6.776 11.225 7 11.5 7Z"/></svg>