<svg width="16" height="16" viewBox="0 0 16 16" xmlns="http://www.w3.org/2000/svg" fill="currentColor"><path d="M12.5 2.00002H3.5C2.119 2.00002 1 3.11902 1 4.50002V9.50002C1 10.881 2.119 12 3.5 12H4V13.942C4 14.784 4.992 15.234 5.625 14.679L8.688 11.999H12.5C13.881 11.999 15 10.88 15 9.49902V4.49902C15 3.11802 13.881 1.99902 12.5 1.99902V2.00002ZM14 9.50002C14 10.328 13.328 11 12.5 11H8.312L5 13.898V11H3.5C2.672 11 2 10.328 2 9.50002V4.50002C2 3.67202 2.672 3.00002 3.5 3.00002H12.5C13.328 3.00002 14 3.67202 14 4.50002V9.50002ZM7.508 7.09002L7.5 7.00002V4.50002L7.508 4.41002C7.55 4.17702 7.754 4.00002 8 4.00002C8.246 4.00002 8.45 4.17702 8.492 4.41002L8.5 4.50002V7.00002L8.492 7.09002C8.45 7.32302 8.246 7.50002 8 7.50002C7.754 7.50002 7.55 7.32302 7.508 7.09002ZM8.75 9.25002C8.75 9.66402 8.414 10 8 10C7.586 10 7.25 9.66402 7.25 9.25002C7.25 8.83602 7.586 8.50002 8 8.50002C8.414 8.50002 8.75 8.83602 8.75 9.25002Z"/></svg>