<svg width="16" height="16" viewBox="0 0 16 16" fill="none" xmlns="http://www.w3.org/2000/svg">
<path d="M14 3.99996C14.0007 3.62441 13.8957 3.25624 13.697 2.93758C13.4983 2.61893 13.2138 2.36267 12.8762 2.19813C12.5386 2.0336 12.1615 1.96744 11.7881 2.00723C11.4147 2.04702 11.06 2.19114 10.7646 2.42312C10.4693 2.65509 10.2452 2.96553 10.1181 3.3189C9.99096 3.67228 9.96588 4.05431 10.0457 4.42127C10.1256 4.78823 10.3072 5.12529 10.5697 5.39388C10.8322 5.66246 11.165 5.85171 11.53 5.93996V6.99996C11.5316 7.09141 11.507 7.1814 11.4592 7.25935C11.4114 7.3373 11.3422 7.39996 11.26 7.43996L8.49 8.87996L5.73 7.47996C5.64208 7.43622 5.56933 7.36707 5.52118 7.28148C5.47304 7.19589 5.45172 7.09781 5.46 6.99996V5.93996C5.93133 5.81827 6.34209 5.52885 6.6153 5.12596C6.8885 4.72307 7.00539 4.23437 6.94406 3.75146C6.88272 3.26856 6.64737 2.8246 6.28211 2.5028C5.91686 2.18101 5.44678 2.00347 4.96 2.00347C4.47321 2.00347 4.00313 2.18101 3.63788 2.5028C3.27263 2.8246 3.03727 3.26856 2.97594 3.75146C2.9146 4.23437 3.03149 4.72307 3.3047 5.12596C3.5779 5.52885 3.98867 5.81827 4.46 5.93996V6.99996C4.46057 7.27705 4.53738 7.54865 4.68201 7.785C4.82665 8.02135 5.03352 8.21334 5.28 8.33996L8 9.73996V11.06C7.52867 11.1817 7.1179 11.4711 6.8447 11.874C6.57149 12.2769 6.4546 12.7656 6.51594 13.2485C6.57727 13.7314 6.81263 14.1753 7.17788 14.4971C7.54313 14.8189 8.01321 14.9965 8.5 14.9965C8.98678 14.9965 9.45686 14.8189 9.82211 14.4971C10.1874 14.1753 10.4227 13.7314 10.4841 13.2485C10.5454 12.7656 10.4285 12.2769 10.1553 11.874C9.88209 11.4711 9.47133 11.1817 9 11.06V9.73996L11.7 8.37996C11.9541 8.25221 12.1664 8.05437 12.3117 7.80983C12.457 7.56529 12.5293 7.28426 12.52 6.99996V5.91996C12.9429 5.80611 13.3167 5.5566 13.584 5.20975C13.8514 4.8629 13.9975 4.43789 14 3.99996ZM4 3.99996C4 3.80218 4.05865 3.60884 4.16853 3.44439C4.27841 3.27994 4.43459 3.15177 4.61731 3.07608C4.80004 3.0004 5.00111 2.98059 5.19509 3.01918C5.38907 3.05776 5.56725 3.153 5.7071 3.29286C5.84696 3.43271 5.9422 3.61089 5.98078 3.80487C6.01937 3.99885 5.99956 4.19992 5.92388 4.38265C5.84819 4.56537 5.72002 4.72155 5.55557 4.83143C5.39112 4.94131 5.19778 4.99996 5 4.99996C4.73478 4.99996 4.48043 4.89461 4.29289 4.70707C4.10535 4.51953 4 4.26518 4 3.99996ZM9.47 13C9.47 13.1977 9.41135 13.3911 9.30147 13.5555C9.19158 13.72 9.03541 13.8482 8.85268 13.9238C8.66995 13.9995 8.46889 14.0193 8.27491 13.9807C8.08092 13.9422 7.90274 13.8469 7.76289 13.7071C7.62304 13.5672 7.5278 13.389 7.48921 13.1951C7.45063 13.0011 7.47043 12.8 7.54612 12.6173C7.6218 12.4346 7.74998 12.2784 7.91443 12.1685C8.07888 12.0586 8.27221 12 8.47 12C8.60132 12 8.73135 12.0258 8.85268 12.0761C8.97401 12.1263 9.08424 12.2 9.1771 12.2929C9.26996 12.3857 9.34362 12.496 9.39388 12.6173C9.44413 12.7386 9.47 12.8686 9.47 13ZM12 4.99996C11.8022 4.99996 11.6089 4.94131 11.4444 4.83143C11.28 4.72155 11.1518 4.56537 11.0761 4.38265C11.0004 4.19992 10.9806 3.99885 11.0192 3.80487C11.0578 3.61089 11.153 3.43271 11.2929 3.29286C11.4327 3.153 11.6109 3.05776 11.8049 3.01918C11.9989 2.98059 12.2 3.0004 12.3827 3.07608C12.5654 3.15177 12.7216 3.27994 12.8315 3.44439C12.9413 3.60884 13 3.80218 13 3.99996C13 4.26518 12.8946 4.51953 12.7071 4.70707C12.5196 4.89461 12.2652 4.99996 12 4.99996Z" fill="white"/>
</svg>
