<svg xmlns="http://www.w3.org/2000/svg" width="12" height="12" viewBox="0 0 12 12" fill="currentColor"><path d="M9 0C7.897 0 7 0.897 7 2C7 2.739 7.403 3.385 8 3.731V5C8 5.551 7.551 6 7 6H5C4.449 6 4 5.551 4 5V3.731C4.597 3.385 5 2.739 5 2C5 0.897 4.103 0 3 0C1.897 0 1 0.897 1 2C1 3.103 1.897 4 3 4V5C3 6.103 3.897 7 5 7H5.5V8.063C4.638 8.286 4 9.069 4 10C4 11.103 4.897 12 6 12C7.103 12 8 11.103 8 10C8 9.07 7.362 8.286 6.5 8.063V7H7C8.103 7 9 6.103 9 5V4C10.103 4 11 3.103 11 2C11 0.897 10.103 0 9 0ZM2 2C2 1.449 2.449 1 3 1C3.551 1 4 1.449 4 2C4 2.551 3.551 3 3 3C2.449 3 2 2.551 2 2ZM7 10C7 10.551 6.551 11 6 11C5.449 11 5 10.551 5 10C5 9.449 5.449 9 6 9C6.551 9 7 9.449 7 10ZM9 3C8.449 3 8 2.551 8 2C8 1.449 8.449 1 9 1C9.551 1 10 1.449 10 2C10 2.551 9.551 3 9 3Z"/></svg>