<svg width="16" height="16" viewBox="0 0 16 16" xmlns="http://www.w3.org/2000/svg" fill="currentColor"><path d="M7.508 4.41049L7.5 4.50049V7.00049L7.508 7.09049C7.55 7.32349 7.754 7.50049 8 7.50049C8.246 7.50049 8.45 7.32349 8.492 7.09049L8.5 7.00049V4.50049L8.492 4.41049C8.45 4.17749 8.246 4.00049 8 4.00049C7.754 4.00049 7.55 4.17749 7.508 4.41049Z"/><path d="M7.25 9.25049C7.25 9.66449 7.586 10.0005 8 10.0005C8.414 10.0005 8.75 9.66449 8.75 9.25049C8.75 8.83649 8.414 8.50049 8 8.50049C7.586 8.50049 7.25 8.83649 7.25 9.25049Z"/><path fill-rule="evenodd" clip-rule="evenodd" d="M2.5 2.00049H13.5C14.33 2.00049 15 2.67049 15 3.50049V10.5005C15 11.3305 14.33 12.0005 13.5 12.0005H8.69L5.63 14.6805C4.99 15.2305 4 14.7805 4 13.9405V12.0005H2.5C1.67 12.0005 1 11.3305 1 10.5005V3.50049C1 2.67049 1.67 2.00049 2.5 2.00049ZM13.5 11.0005C13.78 11.0005 14 10.7805 14 10.5005V3.50049C14 3.22049 13.78 3.00049 13.5 3.00049H2.5C2.22 3.00049 2 3.22049 2 3.50049V10.5005C2 10.7805 2.22 11.0005 2.5 11.0005H5V13.9005L8.31 11.0005H13.5Z"/></svg>