<svg xmlns="http://www.w3.org/2000/svg" width="16" height="16" viewBox="0 0 16 16" fill="currentColor"><path d="M12.5 1H3.5C2.12 1 1 2.12 1 3.5V12.5C1 13.88 2.12 15 3.5 15H12.5C13.88 15 15 13.88 15 12.5V3.5C15 2.12 13.88 1 12.5 1ZM6 14H3.5C2.67 14 2 13.33 2 12.5V3.5C2 2.67 2.67 2 3.5 2H6V14ZM14 12.5C14 13.33 13.33 14 12.5 14H7V2H12.5C13.33 2 14 2.67 14 3.5V12.5ZM12.35 5.35L9.7 8L12.35 10.65C12.55 10.85 12.55 11.16 12.35 11.36C12.25 11.46 12.12 11.51 12 11.51C11.88 11.51 11.74 11.46 11.65 11.36L8.65 8.36C8.45 8.16 8.45 7.85 8.65 7.65L11.65 4.65C11.85 4.45 12.16 4.45 12.36 4.65C12.56 4.85 12.56 5.16 12.36 5.36L12.35 5.35Z"/></svg>