<svg xmlns="http://www.w3.org/2000/svg" width="16" height="16" viewBox="0 0 16 16" fill="currentColor"><path d="M12.5 1H3.5C2.12 1 1 2.12 1 3.5V12.5C1 13.88 2.12 15 3.5 15H12.5C13.88 15 15 13.88 15 12.5V3.5C15 2.12 13.88 1 12.5 1ZM6 14H3.5C2.67 14 2 13.33 2 12.5V3.5C2 2.67 2.67 2 3.5 2H6V14ZM12.35 8.35L9.35 11.35C9.25 11.45 9.12 11.5 9 11.5C8.88 11.5 8.74 11.45 8.65 11.35C8.45 11.15 8.45 10.84 8.65 10.64L11.3 7.99L8.65 5.34C8.45 5.14 8.45 4.83 8.65 4.63C8.85 4.43 9.16 4.43 9.36 4.63L12.36 7.63C12.56 7.83 12.56 8.14 12.36 8.34L12.35 8.35Z"/></svg>