<svg width="16" height="16" viewBox="0 0 16 16" xmlns="http://www.w3.org/2000/svg" fill="currentColor"><path d="M12 9H4C3.173 9 2.5 9.673 2.5 10.5V11C2.5 11.123 2.562 14 8 14C13.438 14 13.5 11.123 13.5 11V10.5C13.5 9.673 12.827 9 12 9ZM12.5 10.991C12.497 11.073 12.372 13 8 13C3.628 13 3.503 11.073 3.5 11V10.5C3.5 10.224 3.724 10 4 10H12C12.276 10 12.5 10.224 12.5 10.5V10.991ZM5.5 8H10.5C11.327 8 12 7.327 12 6.5V3.5C12 2.673 11.327 2 10.5 2H8.5V1.5C8.5 1.224 8.276 1 8 1C7.724 1 7.5 1.224 7.5 1.5V2H5.5C4.673 2 4 2.673 4 3.5V6.5C4 7.327 4.673 8 5.5 8ZM5 3.5C5 3.224 5.224 3 5.5 3H10.5C10.776 3 11 3.224 11 3.5V6.5C11 6.776 10.776 7 10.5 7H5.5C5.224 7 5 6.776 5 6.5V3.5ZM5.75 5C5.75 4.586 6.086 4.25 6.5 4.25C6.914 4.25 7.25 4.586 7.25 5C7.25 5.414 6.914 5.75 6.5 5.75C6.086 5.75 5.75 5.414 5.75 5ZM8.75 5C8.75 4.586 9.086 4.25 9.5 4.25C9.914 4.25 10.25 4.586 10.25 5C10.25 5.414 9.914 5.75 9.5 5.75C9.086 5.75 8.75 5.414 8.75 5Z"/></svg>