<svg width="18" height="18" viewBox="0 0 18 18" xmlns="http://www.w3.org/2000/svg" fill="currentColor"><path d="M13 10H5C4.173 10 3.5 10.673 3.5 11.5V12C3.5 12.123 3.562 15 9 15C14.438 15 14.5 12.123 14.5 12V11.5C14.5 10.673 13.827 10 13 10ZM13.5 11.991C13.497 12.073 13.372 14 9 14C4.628 14 4.503 12.073 4.5 12V11.5C4.5 11.224 4.724 11 5 11H13C13.276 11 13.5 11.224 13.5 11.5V11.991ZM6.5 9H11.5C12.327 9 13 8.327 13 7.5V4.5C13 3.673 12.327 3 11.5 3H9.5V2.5C9.5 2.224 9.276 2 9 2C8.724 2 8.5 2.224 8.5 2.5V3H6.5C5.673 3 5 3.673 5 4.5V7.5C5 8.327 5.673 9 6.5 9ZM6 4.5C6 4.224 6.224 4 6.5 4H11.5C11.776 4 12 4.224 12 4.5V7.5C12 7.776 11.776 8 11.5 8H6.5C6.224 8 6 7.776 6 7.5V4.5ZM6.75 6C6.75 5.586 7.086 5.25 7.5 5.25C7.914 5.25 8.25 5.586 8.25 6C8.25 6.414 7.914 6.75 7.5 6.75C7.086 6.75 6.75 6.414 6.75 6ZM9.75 6C9.75 5.586 10.086 5.25 10.5 5.25C10.914 5.25 11.25 5.586 11.25 6C11.25 6.414 10.914 6.75 10.5 6.75C10.086 6.75 9.75 6.414 9.75 6Z"/></svg>