<svg width="16" height="16" viewBox="0 0 16 16" fill="none" xmlns="http://www.w3.org/2000/svg">
<path fill-rule="evenodd" clip-rule="evenodd" d="M14.491 1C10.8926 1.0045 7.83732 2.98269 5.65635 5H1.5L1 5.5V8.5L1.147 8.854L2.13796 9.84496L2.13899 9.854L6.13899 13.854L6.148 13.855L7.147 14.854L7.5 15H10.5L11 14.5V10.346C13.019 8.16839 14.996 5.11301 14.992 1.5L14.491 1ZM2 6H4.64307C3.59247 7.10401 2.8317 8.11996 2.41843 8.71094L2 8.293V6ZM7.7 14L7.28049 13.5766C7.87261 13.1655 8.88995 12.4085 9.995 11.3611V14H7.7ZM6.55699 12.856L3.13599 9.437C4.12799 8 8.37899 2.355 13.978 2.016C13.652 7.628 7.99099 11.869 6.55699 12.856ZM4 15V14H2V12H1V15H4ZM10.7475 7.33284C10.9122 7.08628 11 6.79647 11 6.50001C11 6.3026 10.961 6.10714 10.8853 5.92483C10.8096 5.74251 10.6987 5.57693 10.5589 5.43758C10.4191 5.29822 10.2531 5.18784 10.0706 5.11275C9.888 5.03766 9.6924 4.99935 9.495 5.00001C9.19854 5.001 8.90903 5.08981 8.66301 5.25523C8.417 5.42065 8.22552 5.65526 8.11275 5.92944C7.99999 6.20361 7.97099 6.50506 8.02943 6.7957C8.08788 7.08634 8.23113 7.35314 8.44111 7.56242C8.65108 7.7717 8.91837 7.91407 9.2092 7.97154C9.50003 8.02902 9.80138 7.99902 10.0752 7.88534C10.349 7.77167 10.5829 7.57941 10.7475 7.33284Z" fill="white"/>
</svg>
