<svg xmlns="http://www.w3.org/2000/svg" width="12" height="12" viewBox="0 0 12 12" fill="currentColor"><path d="M7.5 3C6.67 3 6 3.67 6 4.5C6 5.33 6.67 6 7.5 6C8.33 6 9 5.33 9 4.5C9 3.67 8.33 3 7.5 3ZM7.5 5C7.22 5 7 4.78 7 4.5C7 4.22 7.22 4 7.5 4C7.78 4 8 4.22 8 4.5C8 4.78 7.78 5 7.5 5ZM12 2.71V2.33C12 1.04 10.95 0 9.67 0H9.29C7.97 0 6.69 0.53 5.75 1.46L5.46 1.75C4.79 1.09 3.7 1.09 3.03 1.76L1.9 2.89C1.7 3.09 1.7 3.4 1.9 3.6L2.77 4.47C2.37 5.03 2.42 5.82 2.93 6.33L3.1 6.5L2.48 6.91C2.29 7.03 2.17 7.23 2.15 7.46C2.13 7.68 2.21 7.91 2.37 8.07L3.94 9.64C4.08 9.78 4.27 9.86 4.47 9.86C4.5 9.86 4.52 9.86 4.55 9.86C4.78 9.84 4.98 9.72 5.1 9.53L5.51 8.91L5.68 9.08C5.95 9.35 6.32 9.5 6.7 9.5C7 9.5 7.3 9.41 7.54 9.23L8.41 10.1C8.51 10.2 8.64 10.25 8.76 10.25C8.88 10.25 9.02 10.2 9.11 10.1L10.24 8.97C10.91 8.3 10.91 7.21 10.25 6.54L10.54 6.25C11.47 5.32 12 4.03 12 2.71ZM3.73 2.47C4 2.2 4.47 2.2 4.75 2.46L3.46 3.75L2.96 3.25L3.74 2.47H3.73ZM4.42 8.71L3.28 7.57L3.81 7.22L4.77 8.18L4.42 8.71ZM6.37 8.37L3.63 5.63C3.46 5.46 3.46 5.17 3.63 5L6.46 2.17C7.21 1.43 8.24 1 9.29 1H9.67C10.41 1 11 1.6 11 2.33V2.71C11 3.76 10.57 4.79 9.83 5.54L7 8.37C6.83 8.54 6.54 8.54 6.37 8.37ZM9.74 7.75C9.74 7.95 9.66 8.13 9.53 8.27L8.75 9.05L8.25 8.55L9.54 7.26C9.67 7.4 9.74 7.57 9.74 7.76V7.75ZM2.6 10.1L0.85 11.85C0.75 11.95 0.62 12 0.5 12C0.38 12 0.24 11.95 0.15 11.85C-0.05 11.65 -0.05 11.34 0.15 11.14L1.9 9.39C2.1 9.19 2.41 9.19 2.61 9.39C2.81 9.59 2.81 9.9 2.61 10.1H2.6ZM0.15 9.35C-0.05 9.15 -0.05 8.84 0.15 8.64L0.65 8.14C0.85 7.94 1.16 7.94 1.36 8.14C1.56 8.34 1.56 8.65 1.36 8.85L0.86 9.35C0.76 9.45 0.63 9.5 0.51 9.5C0.39 9.5 0.25 9.45 0.16 9.35H0.15ZM3.85 10.65C4.05 10.85 4.05 11.16 3.85 11.36L3.35 11.86C3.25 11.96 3.12 12.01 3 12.01C2.88 12.01 2.74 11.96 2.65 11.86C2.45 11.66 2.45 11.35 2.65 11.15L3.15 10.65C3.35 10.45 3.66 10.45 3.86 10.65H3.85Z"/></svg>