<svg width="16" height="16" xmlns="http://www.w3.org/2000/svg"><path fill-rule="evenodd" clip-rule="evenodd" d="M1.51 2l-.5.5v3.748a5.507 5.507 0 0 1 1-.654V3H6.3l.853.853.353.146h6.495v1.004h-6.5l-.354.147-.351.35c.315.146.615.32.895.52l.017-.017h6.282v7H9.4a5.509 5.509 0 0 1-.659 1h5.75l.5-.5V9.005l.01-.01V3.498l-.5-.5H7.714l-.853-.853L6.507 2H1.511z"/><path d="M6 10.5a1.5 1.5 0 1 1-3 0 1.5 1.5 0 0 1 3 0z"/><path fill-rule="evenodd" clip-rule="evenodd" d="M8 10.5a3.5 3.5 0 1 1-7 0 3.5 3.5 0 0 1 7 0zM4.5 13a2.5 2.5 0 1 0 0-5 2.5 2.5 0 0 0 0 5z"/></svg>