<svg width="16" height="16" viewBox="0 0 16 16" xmlns="http://www.w3.org/2000/svg" fill="currentColor"><path d="M4.5 7C2.019 7 0 9.019 0 11.5C0 13.981 2.019 16 4.5 16C6.981 16 9 13.981 9 11.5C9 9.019 6.981 7 4.5 7ZM4.5 15C2.57 15 1 13.43 1 11.5C1 9.57 2.57 8 4.5 8C6.43 8 8 9.57 8 11.5C8 13.43 6.43 15 4.5 15ZM7 11.5C7 12.881 5.881 14 4.5 14C3.119 14 2 12.881 2 11.5C2 10.119 3.119 9 4.5 9C5.881 9 7 10.119 7 11.5Z"/><path fill-rule="evenodd" clip-rule="evenodd" d="M6.73432 6.47278C6.0516 6.1689 5.29552 6 4.5 6C3.17037 6 1.95094 6.47182 1 7.25716V4.5C1 3.11929 2.11929 2 3.5 2H5.58579C5.98361 2 6.36514 2.15804 6.64645 2.43934L8.20711 4H12.5C13.8807 4 15 5.11929 15 6.5V11.5C15 12.8807 13.8807 14 12.5 14H9.40029C9.56223 13.6832 9.69436 13.3486 9.79297 13H12.5C13.3284 13 14 12.3284 14 11.5V6.5C14 5.67157 13.3284 5 12.5 5H8.20711L6.73432 6.47278ZM2 6V4.5C2 3.67157 2.67157 3 3.5 3H5.58579C5.71839 3 5.84557 3.05268 5.93934 3.14645L7.29289 4.5L5.93934 5.85355C5.84557 5.94732 5.71839 6 5.58579 6H4.5H2Z"/></svg>