<svg width="16" height="16" xmlns="http://www.w3.org/2000/svg"><path fill-rule="evenodd" clip-rule="evenodd" d="M13 3.5V6h2.151l.483.629-2.634 7-.484.371H8.743c.253-.307.474-.642.657-1h2.733L14.5 7H8.743a5.534 5.534 0 0 0-.724-.727l.127-.127L8.5 6H12V4H6.5l-.354-.146L5.293 3H1v3.257a5.54 5.54 0 0 0-1 1.08V2.5L.5 2h5l.354.146.853.854H12.5l.5.5z"/><path d="M6 10.5a1.5 1.5 0 1 1-3 0 1.5 1.5 0 0 1 3 0z"/><path fill-rule="evenodd" clip-rule="evenodd" d="M8 10.5a3.5 3.5 0 1 1-7 0 3.5 3.5 0 0 1 7 0zM4.5 13a2.5 2.5 0 1 0 0-5 2.5 2.5 0 0 0 0 5z"/></svg>