<svg width="18" height="18" viewBox="0 0 18 18" xmlns="http://www.w3.org/2000/svg" fill="currentColor"><path d="M2 5.5C2 4.119 3.119 3 4.5 3H12.5C13.881 3 15 4.119 15 5.5V13.5C15 14.881 13.881 16 12.5 16H4.5C3.119 16 2 14.881 2 13.5V5.5ZM4.5 4C3.672 4 3 4.672 3 5.5V13.5C3 14.328 3.672 15 4.5 15H12.5C13.328 15 14 14.328 14 13.5V5.5C14 4.672 13.328 4 12.5 4H4.5ZM5.5 13.25C5.914 13.25 6.25 12.914 6.25 12.5C6.25 12.086 5.914 11.75 5.5 11.75C5.086 11.75 4.75 12.086 4.75 12.5C4.75 12.914 5.086 13.25 5.5 13.25ZM9 12.5C9 10.57 7.43 9 5.5 9C5.224 9 5 9.224 5 9.5C5 9.776 5.224 10 5.5 10C6.879 10 8 11.121 8 12.5C8 12.776 8.224 13 8.5 13C8.776 13 9 12.776 9 12.5ZM12 12.5C12 8.916 9.084 6 5.5 6C5.224 6 5 6.224 5 6.5C5 6.776 5.224 7 5.5 7C8.532 7 11 9.468 11 12.5C11 12.776 11.224 13 11.5 13C11.776 13 12 12.776 12 12.5Z"/></svg>