<svg width="16" height="16" viewBox="0 0 16 16" xmlns="http://www.w3.org/2000/svg" fill="currentColor"><path d="M3.43934 13.5569C3.72064 13.8382 4.10218 13.9962 4.5 13.9962C4.75753 13.9943 5.01038 13.9272 5.235 13.8012L13.235 9.30123C13.4661 9.17048 13.6583 8.98073 13.7921 8.75136C13.9258 8.522 13.9963 8.26125 13.9963 7.99573C13.9963 7.73022 13.9258 7.46946 13.7921 7.2401C13.6583 7.01074 13.4661 6.82099 13.235 6.69023L5.225 2.18423C4.99595 2.06392 4.73997 2.00411 4.48133 2.01047C4.22269 2.01682 3.96996 2.08914 3.7471 2.22055C3.52423 2.35196 3.33863 2.53812 3.20789 2.76137C3.07714 2.98462 3.00558 3.23757 3 3.49623V12.4962C3 12.8941 3.15804 13.2756 3.43934 13.5569ZM4.14645 3.14268C4.24021 3.04891 4.36739 2.99623 4.5 2.99623C4.58579 2.99723 4.66999 3.01957 4.745 3.06123L12.745 7.56123C12.8219 7.60484 12.886 7.66808 12.9305 7.7445C12.975 7.82092 12.9985 7.90779 12.9985 7.99623C12.9985 8.08468 12.975 8.17154 12.9305 8.24796C12.886 8.32438 12.8219 8.38762 12.745 8.43123L4.755 12.9252C4.67964 12.9729 4.59272 12.9993 4.50355 13.0014C4.41438 13.0035 4.32631 12.9814 4.24876 12.9373C4.17121 12.8932 4.10709 12.8289 4.06328 12.7512C4.01946 12.6735 3.99759 12.5854 4 12.4962V3.49623C4 3.36362 4.05268 3.23645 4.14645 3.14268ZM10.76 11.8362L11.98 11.1562C11.992 11.2391 11.9987 11.3226 12 11.4062C11.9997 11.6721 11.9293 11.9333 11.7958 12.1632C11.6624 12.3932 11.4707 12.584 11.24 12.7162L6.16 15.5762C5.64826 15.8471 5.07898 15.9911 4.5 15.9962C4.19188 15.9987 3.88513 15.9548 3.59 15.8662C2.98312 15.7119 2.43205 15.3895 2 14.9362C1.35803 14.2865 0.99862 13.4096 1 12.4962V6.90624C1.00252 6.59959 1.10003 6.30126 1.27912 6.05233C1.45821 5.80339 1.71006 5.6161 2 5.51624V12.4962C2.00429 12.9285 2.12001 13.3523 2.33598 13.7268C2.55195 14.1013 2.86087 14.4137 3.23287 14.6339C3.60487 14.8541 4.02738 14.9746 4.45957 14.9837C4.89175 14.9929 5.319 14.8904 5.7 14.6862L10.75 11.8462C10.7527 11.8462 10.7552 11.8452 10.7571 11.8433C10.759 11.8414 10.76 11.8389 10.76 11.8362Z"/></svg>