<svg width="16" height="16" viewBox="0 0 16 16" xmlns="http://www.w3.org/2000/svg" fill="currentColor"><path d="M4.5 7.00001C2.015 7.00001 0 9.01501 0 11.5C0 13.985 2.015 16 4.5 16C6.985 16 9 13.985 9 11.5C9 9.01501 6.985 7.00001 4.5 7.00001ZM6.854 10.354L3.854 13.354C3.659 13.549 3.342 13.549 3.147 13.354L2.147 12.354C1.952 12.159 1.952 11.842 2.147 11.647C2.342 11.452 2.659 11.452 2.854 11.647L3.5 12.293L6.146 9.64701C6.341 9.45201 6.658 9.45201 6.853 9.64701C7.048 9.84201 7.049 10.159 6.854 10.354ZM12.98 10.153C12.992 10.236 12.999 10.319 13 10.403C13 10.669 12.929 10.93 12.796 11.16C12.663 11.39 12.471 11.581 12.24 11.713L9.758 13.11C9.883 12.704 9.956 12.276 9.983 11.837L11.75 10.843C11.75 10.843 11.755 10.843 11.757 10.84C11.759 10.837 11.76 10.836 11.76 10.833L12.98 10.153ZM3 6.21301C2.651 6.31201 2.317 6.44401 2 6.60701V5.90301C2.003 5.59601 2.1 5.29801 2.279 5.04901C2.458 4.80001 2.71 4.61301 3 4.51301V6.21301ZM14.996 6.99301C14.996 7.25901 14.926 7.51901 14.792 7.74901C14.658 7.97801 14.466 8.16801 14.235 8.29901L9.937 10.716C9.887 10.368 9.805 10.031 9.693 9.70701L13.744 7.42801C13.821 7.38401 13.885 7.32101 13.929 7.24501C13.973 7.16901 13.997 7.08201 13.997 6.99301C13.997 6.90401 13.974 6.81801 13.929 6.74101C13.884 6.66401 13.82 6.60101 13.744 6.55801L5.745 2.05801C5.67 2.01601 5.586 1.99401 5.5 1.99301C5.367 1.99301 5.24 2.04601 5.146 2.13901C5.052 2.23201 5 2.36001 5 2.49301V6.02501C4.835 6.01001 4.669 6.00001 4.5 6.00001C4.331 6.00001 4.165 6.01001 4 6.02501V2.49301C4.006 2.23401 4.077 1.98101 4.208 1.75801C4.339 1.53501 4.524 1.34901 4.747 1.21701C4.97 1.08601 5.223 1.01301 5.481 1.00701C5.74 1.00101 5.996 1.06001 6.225 1.18101L14.235 5.68701C14.466 5.81801 14.658 6.00701 14.792 6.23701C14.926 6.46601 14.996 6.72701 14.996 6.99301Z"/></svg>