<svg width="16" height="16" viewBox="0 0 16 16" xmlns="http://www.w3.org/2000/svg" fill="currentColor"><path d="M6.212 12.4999C6.165 12.3939 6.137 12.2819 6.105 12.1709L4.745 12.9359C4.412 13.1239 4 12.8829 4 12.4999V3.49995C4 3.11795 4.412 2.87695 4.745 3.06395L12.745 7.56395C12.915 7.65995 13 7.82995 13 7.99995H14C14 7.48995 13.745 6.97895 13.235 6.69295L5.235 2.19295C4.235 1.63095 3 2.35295 3 3.49995V12.4999C3 13.6469 4.235 14.3699 5.235 13.8069L6.013 13.3689C6.029 13.0679 6.09 12.7729 6.212 12.4989V12.4999Z"/><path d="M16 10.4999C16 9.67295 15.327 8.99995 14.5 8.99995H8.5C7.673 8.99995 7 9.67295 7 10.4999V11.4999C7 11.8859 7.15 12.2339 7.39 12.4999C7.15 12.7659 7 13.1139 7 13.4999V14.4999C7 15.3269 7.673 15.9999 8.5 15.9999H10.5C10.886 15.9999 11.234 15.8499 11.5 15.6099C11.766 15.8499 12.114 15.9999 12.5 15.9999H14.5C15.327 15.9999 16 15.3269 16 14.4999V13.4999C16 13.1139 15.85 12.7659 15.61 12.4999C15.85 12.2339 16 11.8859 16 11.4999V10.4999ZM8 10.4999C8 10.2249 8.224 9.99995 8.5 9.99995H14.5C14.776 9.99995 15 10.2249 15 10.4999V11.4999C15 11.7749 14.776 11.9999 14.5 11.9999H8.5C8.224 11.9999 8 11.7749 8 11.4999V10.4999ZM10.5 14.9999H8.5C8.224 14.9999 8 14.7749 8 14.4999V13.4999C8 13.2249 8.224 12.9999 8.5 12.9999H11V14.4999C11 14.7749 10.776 14.9999 10.5 14.9999ZM15 14.4999C15 14.7749 14.776 14.9999 14.5 14.9999H12.5C12.224 14.9999 12 14.7749 12 14.4999V12.9999H14.5C14.776 12.9999 15 13.2249 15 13.4999V14.4999Z"/></svg>