<svg width="16" height="16" viewBox="0 0 16 16" xmlns="http://www.w3.org/2000/svg" fill="currentColor"><path d="M2 6.60701C1.643 6.79001 1.307 7.00701 1 7.26101V6.89601C1.003 6.58901 1.1 6.29101 1.279 6.04201C1.458 5.79301 1.71 5.60601 2 5.50601V6.60701ZM10.76 11.826C10.76 11.826 10.759 11.831 10.757 11.833C10.755 11.835 10.753 11.836 10.75 11.836L9.936 12.294C9.867 12.768 9.743 13.224 9.561 13.651L11.24 12.706C11.471 12.574 11.662 12.383 11.796 12.153C11.93 11.923 12 11.662 12 11.396C11.999 11.312 11.992 11.229 11.98 11.146L10.76 11.826ZM13.792 7.23001C13.658 7.00101 13.466 6.81101 13.235 6.68001L5.225 2.17401C4.996 2.05401 4.74 1.99401 4.481 2.00001C4.222 2.00601 3.97 2.07901 3.747 2.21001C3.524 2.34101 3.339 2.52801 3.208 2.75101C3.077 2.97401 3.006 3.22701 3 3.48601V6.21301C3.323 6.12101 3.656 6.05601 4 6.02501V3.48501C4 3.35201 4.053 3.22501 4.146 3.13101C4.239 3.03701 4.367 2.98501 4.5 2.98501C4.586 2.98501 4.67 3.00801 4.745 3.05001L12.745 7.55001C12.822 7.59401 12.886 7.65701 12.93 7.73301C12.974 7.80901 12.998 7.89601 12.998 7.98501C12.998 8.07401 12.975 8.16001 12.93 8.23701C12.885 8.31401 12.821 8.37701 12.745 8.42001L9.806 10.073C9.897 10.411 9.956 10.76 9.981 11.12L13.235 9.29001C13.466 9.15901 13.658 8.96901 13.792 8.74001C13.926 8.51101 13.996 8.25001 13.996 7.98401C13.996 7.71801 13.926 7.45801 13.792 7.22801V7.23001ZM9 11.5C9 13.985 6.985 16 4.5 16C2.015 16 0 13.985 0 11.5C0 9.01501 2.015 7.00001 4.5 7.00001C6.985 7.00001 9 9.01501 9 11.5ZM6.854 9.64601C6.659 9.45101 6.342 9.45101 6.147 9.64601L3.501 12.292L2.855 11.646C2.66 11.451 2.343 11.451 2.148 11.646C1.953 11.841 1.953 12.158 2.148 12.353L3.148 13.353C3.343 13.548 3.66 13.548 3.855 13.353L6.855 10.353C7.05 10.158 7.049 9.84101 6.854 9.64601Z"/></svg>