<svg width="16" height="16" viewBox="0 0 16 16" xmlns="http://www.w3.org/2000/svg" fill="currentColor"><path fill-rule="evenodd" clip-rule="evenodd" d="M14.236 9.307L9.991 11.695C9.993 11.63 10.001 11.565 10.001 11.5C10.001 11.189 9.969 10.886 9.919 10.589L13.746 8.436C14.086 8.245 14.086 7.756 13.746 7.564L5.745 3.064C5.412 2.876 5 3.117 5 3.5V6.025C4.835 6.01 4.669 6 4.5 6C4.331 6 4.165 6.01 4 6.025V3.5C4 2.353 5.235 1.63 6.235 2.193L14.235 6.693C15.254 7.266 15.254 8.73399 14.235 9.30799L14.236 9.307ZM9 11.5C9 13.985 6.985 16 4.5 16C2.015 16 0 13.985 0 11.5C0 9.015 2.015 7 4.5 7C6.985 7 9 9.015 9 11.5ZM6.854 9.646C6.659 9.45099 6.342 9.45099 6.147 9.646L3.501 12.292L2.855 11.646C2.66 11.451 2.343 11.451 2.148 11.646C1.953 11.841 1.953 12.158 2.148 12.353L3.148 13.353C3.343 13.548 3.66 13.548 3.855 13.353L6.855 10.353C7.05 10.158 7.049 9.841 6.854 9.646Z"/></svg>