<svg width="16" height="16" viewBox="0 0 16 16" xmlns="http://www.w3.org/2000/svg" fill="currentColor"><path fill-rule="evenodd" clip-rule="evenodd" d="M14 8C14 8.542 13.706 9.043 13.233 9.309L9.981 11.138C9.957 10.777 9.899 10.427 9.809 10.088L12.744 8.437C12.902 8.348 13 8.181 13 8C13 7.819 12.902 7.652 12.745 7.564L4.744 3.063C4.669 3.021 4.587 3 4.5 3C4.225 3 4 3.225 4 3.5V6.025C3.656 6.056 3.323 6.121 3 6.213V3.5C3 2.673 3.673 2 4.5 2C4.756 2 5.01 2.066 5.233 2.191L13.233 6.691C13.706 6.957 14 7.458 14 8ZM9 11.5C9 13.985 6.985 16 4.5 16C2.015 16 0 13.985 0 11.5C0 9.015 2.015 7 4.5 7C6.985 7 9 9.015 9 11.5ZM5.208 11.5L6.354 10.354C6.549 10.159 6.549 9.842 6.354 9.647C6.159 9.452 5.842 9.452 5.647 9.647L4.501 10.793L3.355 9.647C3.16 9.452 2.843 9.452 2.648 9.647C2.453 9.842 2.453 10.159 2.648 10.354L3.794 11.5L2.648 12.646C2.453 12.841 2.453 13.158 2.648 13.353C2.843 13.548 3.16 13.548 3.355 13.353L4.501 12.207L5.647 13.353C5.842 13.548 6.159 13.548 6.354 13.353C6.549 13.158 6.549 12.841 6.354 12.646L5.208 11.5Z"/></svg>