<svg width="16" height="16" viewBox="0 0 16 16" xmlns="http://www.w3.org/2000/svg" fill="currentColor"><path d="M5.74514 3.0642C5.41183 2.87671 5 3.11757 5 3.49999V12.5003C5 12.8827 5.41182 13.1235 5.74512 12.936L12.0022 9.41656C12.0007 9.44429 11.9999 9.47214 11.9999 9.50006V10.5652L6.23537 13.8076C5.23546 14.3701 4 13.6475 4 12.5003V3.49999C4 2.35274 5.2355 1.63017 6.23541 2.19263L14.2357 6.69292C15.0059 7.1262 15.1942 8.06998 14.8006 8.75285C14.7353 8.63922 14.6548 8.53368 14.5606 8.4394C14.3992 8.27805 14.2049 8.15725 13.9934 8.08357C14.0258 7.88792 13.9432 7.67573 13.7454 7.56449L5.74514 3.0642Z"/><path d="M15.85 13.85L13.85 15.85C13.8049 15.8974 13.7506 15.9352 13.6905 15.961C13.6303 15.9868 13.5655 16.0001 13.5 16.0001C13.4346 16.0002 13.3698 15.9868 13.3096 15.961C13.2494 15.9352 13.1951 15.8974 13.15 15.85L11.15 13.85C11.1026 13.8049 11.0648 13.7506 11.039 13.6904C11.0132 13.6303 10.9999 13.5655 10.9999 13.5C10.9999 13.4345 11.0132 13.3697 11.039 13.3096C11.0648 13.2494 11.1026 13.1951 11.15 13.15C11.1951 13.1026 11.2494 13.0648 11.3096 13.039C11.3698 13.0132 11.4346 12.9999 11.5 12.9998C11.5655 12.9998 11.6303 13.0132 11.6905 13.039C11.7506 13.0648 11.8049 13.1026 11.85 13.15L13 14.29L13 9.5C13 9.36739 13.0527 9.24021 13.1465 9.14645C13.2402 9.05268 13.3674 9 13.5 9C13.6326 9 13.7598 9.05268 13.8536 9.14645C13.9473 9.24021 14 9.36739 14 9.5L14 14.29L15.15 13.15C15.1951 13.1026 15.2494 13.0648 15.3096 13.039C15.3698 13.0132 15.4346 12.9999 15.5 12.9998C15.5655 12.9998 15.6303 13.0132 15.6905 13.039C15.7506 13.0648 15.8049 13.1026 15.85 13.15C15.8975 13.1951 15.9352 13.2494 15.9611 13.3096C15.9869 13.3697 16.0002 13.4345 16.0002 13.5C16.0002 13.5655 15.9869 13.6303 15.9611 13.6904C15.9352 13.7506 15.8975 13.8049 15.85 13.85Z"/></svg>