<svg width="16" height="16" viewBox="0 0 16 16" xmlns="http://www.w3.org/2000/svg" fill="currentColor"><path d="M5.745 12.936L10 10.543V11.5V11.501V11.69L6.235 13.807C5.235 14.369 4 13.647 4 12.5V3.5C4 2.353 5.235 1.63 6.235 2.193L14.235 6.693C14.744 6.979 14.977 7.49 14.978 8H13.982C13.982 7.83 13.914 7.66 13.745 7.564L5.745 3.064C5.412 2.876 5 3.117 5 3.5V12.5C5 12.882 5.412 13.123 5.745 12.936ZM15.854 11.146L13.854 9.146C13.659 8.95099 13.342 8.95099 13.147 9.146L11.147 11.146C10.952 11.341 10.952 11.658 11.147 11.853C11.342 12.048 11.659 12.048 11.854 11.853L13 10.707V15.5C13 15.776 13.224 16 13.5 16C13.776 16 14 15.776 14 15.5V10.707L15.146 11.853C15.244 11.951 15.372 11.999 15.5 11.999C15.628 11.999 15.756 11.95 15.854 11.853C16.049 11.658 16.049 11.341 15.854 11.146Z"/></svg>