<svg width="16" height="16" viewBox="0 0 16 16" xmlns="http://www.w3.org/2000/svg" fill="currentColor"><path d="M6.235 2.19301L14.236 6.69301L14.235 6.69201C15.255 7.26601 15.255 8.73401 14.235 9.30701L9.99 11.695C9.99085 11.6672 9.9928 11.6397 9.99476 11.612C9.99737 11.575 10 11.5378 10 11.5C10 11.189 9.968 10.886 9.918 10.589L13.745 8.43601C14.085 8.24401 14.085 7.75501 13.745 7.56401L5.745 3.06401C5.412 2.87701 5 3.11801 5 3.50001V6.02501C4.835 6.01001 4.669 6.00001 4.5 6.00001C4.331 6.00001 4.165 6.01001 4 6.02501V3.50001C4 2.35301 5.235 1.63101 6.235 2.19301Z"/><path fill-rule="evenodd" clip-rule="evenodd" d="M0 11.5C0 9.015 2.015 7 4.5 7C6.985 7 9 9.015 9 11.5C9 13.985 6.985 16 4.5 16C2.015 16 0 13.985 0 11.5ZM6.354 13.353C6.549 13.158 6.549 12.841 6.354 12.646L5.208 11.5L6.354 10.354C6.549 10.159 6.549 9.842 6.354 9.647C6.159 9.452 5.842 9.452 5.647 9.647L4.501 10.793L3.355 9.647C3.16 9.452 2.843 9.452 2.648 9.647C2.453 9.842 2.453 10.159 2.648 10.354L3.794 11.5L2.648 12.646C2.453 12.841 2.453 13.158 2.648 13.353C2.843 13.548 3.16 13.548 3.355 13.353L4.501 12.207L5.647 13.353C5.842 13.548 6.159 13.548 6.354 13.353Z"/></svg>