<svg width="16" height="16" viewBox="0 0 16 16" xmlns="http://www.w3.org/2000/svg" fill="currentColor"><path fill-rule="evenodd" clip-rule="evenodd" d="M14 8C14 8.542 13.706 9.043 13.233 9.309L9.981 11.138C9.957 10.777 9.899 10.427 9.809 10.088L12.744 8.437C12.902 8.348 13 8.181 13 8C13 7.819 12.902 7.652 12.745 7.564L4.744 3.063C4.669 3.021 4.587 3 4.5 3C4.225 3 4 3.225 4 3.5V6.025C3.656 6.056 3.323 6.121 3 6.213V3.5C3 2.673 3.673 2 4.5 2C4.756 2 5.01 2.066 5.233 2.191L13.233 6.691C13.706 6.957 14 7.458 14 8ZM9 11.5C9 13.985 6.985 16 4.5 16C2.015 16 0 13.985 0 11.5C0 9.015 2.015 7 4.5 7C6.985 7 9 9.015 9 11.5ZM6.854 9.646C6.659 9.451 6.342 9.451 6.147 9.646L3.501 12.292L2.855 11.646C2.66 11.451 2.343 11.451 2.148 11.646C1.953 11.841 1.953 12.158 2.148 12.353L3.148 13.353C3.343 13.548 3.66 13.548 3.855 13.353L6.855 10.353C7.05 10.158 7.048 9.841 6.854 9.646Z"/></svg>