<svg width="16" height="16" viewBox="0 0 16 16" xmlns="http://www.w3.org/2000/svg" fill="currentColor"><path d="M5.74514 3.0642C5.41183 2.87671 5 3.11757 5 3.49999V12.5003C5 12.8827 5.41182 13.1235 5.74512 12.936L10.7844 10.1015L10.4619 10.4241C10.3164 10.563 10.2004 10.73 10.121 10.9149C10.0416 11.0998 10.0004 11.2988 9.99991 11.5001C9.99951 11.5618 10.003 11.6233 10.0104 11.6843L6.23537 13.8076C5.23546 14.3701 4 13.6475 4 12.5003V3.49999C4 2.35274 5.2355 1.63017 6.23541 2.19263L14.2357 6.69292C14.99 7.11727 15.1862 8.0313 14.8242 8.71031L14.5749 8.46107C14.4362 8.3156 14.2694 8.19974 14.0846 8.12051C14.0545 8.1076 14.024 8.09571 13.9932 8.08484C14.0262 7.88884 13.9436 7.67597 13.7454 7.56449L5.74514 3.0642Z"/><path d="M15.85 11.15L13.85 9.15003C13.8049 9.10259 13.7506 9.06481 13.6905 9.039C13.6303 9.01319 13.5655 8.99988 13.5 8.99988C13.4346 8.99988 13.3698 9.01319 13.3096 9.039C13.2494 9.06481 13.1951 9.10259 13.15 9.15003L11.15 11.15C11.1026 11.1951 11.0648 11.2494 11.039 11.3096C11.0132 11.3698 10.9999 11.4346 10.9999 11.5C10.9999 11.5655 11.0132 11.6303 11.039 11.6905C11.0648 11.7506 11.1026 11.8049 11.15 11.85C11.1951 11.8975 11.2494 11.9352 11.3096 11.9611C11.3698 11.9869 11.4346 12.0002 11.5 12.0002C11.5655 12.0002 11.6303 11.9869 11.6905 11.9611C11.7506 11.9352 11.8049 11.8975 11.85 11.85L13 10.71L13 15.5C13 15.6326 13.0527 15.7598 13.1465 15.8536C13.2402 15.9473 13.3674 16 13.5 16C13.6326 16 13.7598 15.9473 13.8536 15.8536C13.9473 15.7598 14 15.6326 14 15.5L14 10.71L15.15 11.85C15.1951 11.8975 15.2494 11.9352 15.3096 11.9611C15.3698 11.9869 15.4346 12.0002 15.5 12.0002C15.5655 12.0002 15.6303 11.9869 15.6905 11.9611C15.7506 11.9352 15.8049 11.8975 15.85 11.85C15.8975 11.8049 15.9352 11.7506 15.9611 11.6905C15.9869 11.6303 16.0002 11.5655 16.0002 11.5C16.0002 11.4346 15.9869 11.3698 15.9611 11.3096C15.9352 11.2494 15.8975 11.1951 15.85 11.15Z"/></svg>