<svg width="18" height="18" viewBox="0 0 18 18" xmlns="http://www.w3.org/2000/svg" fill="currentColor"><path d="M6 10.5C6 10.224 6.224 10 6.5 10H11.5C11.738 10 11.929 10.171 11.979 10.394L12.729 9.644C12.458 9.256 12.009 9 11.5 9H6.5C5.673 9 5 9.673 5 10.5V15H4C3.449 15 3 14.551 3 14V4C3 3.449 3.449 3 4 3H6V4.5C6 5.327 6.673 6 7.5 6H9.5C10.327 6 11 5.327 11 4.5V3H12.379C12.642 3 12.9 3.107 13.086 3.293L14.707 4.914C14.893 5.1 15 5.358 15 5.621V8.04C15.143 8.015 15.289 7.997 15.437 7.997C15.629 7.997 15.817 8.023 16 8.064V5.62C16 5.094 15.787 4.578 15.414 4.206L13.793 2.585C13.421 2.212 12.905 1.999 12.379 1.999H4C2.897 2 2 2.897 2 4V14C2 15.103 2.897 16 4 16H8.045L8.293 15H6V10.5ZM7 3H10V4.5C10 4.776 9.776 5 9.5 5H7.5C7.224 5 7 4.776 7 4.5V3ZM17 10.559C17 10.764 16.96 10.967 16.882 11.157C16.803 11.346 16.688 11.519 16.543 11.664L12.254 15.951C11.898 16.307 11.452 16.56 10.964 16.682L9.753 16.982C9.651 17.008 9.544 17.006 9.443 16.978C9.342 16.95 9.249 16.896 9.175 16.822C9.101 16.748 9.047 16.655 9.019 16.554C8.991 16.453 8.99 16.346 9.015 16.244L9.315 15.033C9.437 14.544 9.689 14.098 10.045 13.742L14.333 9.455C14.626 9.162 15.023 8.998 15.437 8.998C15.851 8.998 16.248 9.163 16.541 9.455C16.687 9.599 16.802 9.772 16.881 9.961C16.96 10.151 17 10.354 17 10.559Z"/></svg>