<svg width="18" height="18" viewBox="0 0 18 18" xmlns="http://www.w3.org/2000/svg" fill="currentColor"><path d="M15.414 4.207L13.793 2.586C13.421 2.213 12.905 2 12.379 2H4C2.897 2 2 2.897 2 4V14C2 15.103 2.897 16 4 16H14C15.103 16 16 15.103 16 14V5.621C16 5.095 15.787 4.579 15.414 4.207ZM10 3V4.5C10 4.776 9.776 5 9.5 5H7.5C7.224 5 7 4.776 7 4.5V3H10ZM6 15V10.5C6 10.224 6.224 10 6.5 10H11.5C11.776 10 12 10.224 12 10.5V15H6ZM15 14C15 14.551 14.551 15 14 15H13V10.5C13 9.673 12.327 9 11.5 9H6.5C5.673 9 5 9.673 5 10.5V15H4C3.449 15 3 14.551 3 14V4C3 3.449 3.449 3 4 3H6V4.5C6 5.327 6.673 6 7.5 6H9.5C10.327 6 11 5.327 11 4.5V3H12.379C12.642 3 12.9 3.107 13.086 3.293L14.707 4.914C14.893 5.1 15 5.358 15 5.621V14Z"/></svg>