<svg width="18" height="18" viewBox="0 0 18 18" xmlns="http://www.w3.org/2000/svg" fill="currentColor"><path d="M15.4102 7.70996C15.6021 7.89195 15.7516 8.11437 15.8496 8.36035C15.9496 8.60131 16 8.85917 16 9.12012V12C16 13.06 15.5781 14.0781 14.8281 14.8281C14.0781 15.5791 13.061 16 12 16H6C5.64808 16.002 5.30295 15.9094 5 15.7305C4.69807 15.5535 4.4475 15.3019 4.27051 15H12C12.795 14.998 13.5571 14.6811 14.1191 14.1191C14.6811 13.5571 14.998 12.795 15 12V7.2998L15.4102 7.70996Z"/><path fill-rule="evenodd" clip-rule="evenodd" d="M10.8789 2C11.4049 2 11.921 2.21297 12.293 2.58594L13.4141 3.70703C13.787 4.07903 14 4.59512 14 5.12109V12C14 13.103 13.103 14 12 14H4C2.897 14 2 13.103 2 12V4C2 2.897 2.897 2 4 2H10.8789ZM4 3C3.449 3 3 3.449 3 4V12C3 12.551 3.449 13 4 13H5V9C5 8.449 5.449 8 6 8H10C10.551 8 11 8.449 11 9V13H12C12.551 13 13 12.551 13 12V5.12109C13 4.85812 12.893 4.60006 12.707 4.41406L11.5859 3.29297C11.3999 3.107 11.1419 3 10.8789 3H10V4C10 4.551 9.551 5 9 5H7C6.449 5 6 4.551 6 4V3H4ZM6 9V13H10V9H6ZM6.99902 3V4H9V3H6.99902Z"/></svg>