<svg width="16" height="16" viewBox="0 0 16 16" xmlns="http://www.w3.org/2000/svg" fill="currentColor"><path d="M7.34302 13.792C7.41202 13.515 7.51802 13.252 7.64602 13H5.00002V9.5C5.00002 9.224 5.22402 9 5.50002 9H10.5C10.738 9 10.928 9.17 10.978 9.393L11.728 8.643C11.457 8.255 11.008 8 10.499 8H5.49902C4.67102 8 3.99902 8.672 3.99902 9.5V13C3.44702 13 2.99902 12.552 2.99902 12V4C2.99902 3.448 3.44702 3 3.99902 3H4.99902V4.5C4.99902 5.328 5.67102 6 6.49902 6H8.49902C9.32702 6 9.99902 5.328 9.99902 4.5V3H10.378C10.643 3 10.897 3.105 11.085 3.293L12.706 4.914C12.894 5.102 12.999 5.356 12.999 5.621V7.439C13.3 7.234 13.64 7.101 13.999 7.039V5.621C13.999 5.091 13.788 4.582 13.413 4.207L11.792 2.586C11.417 2.211 10.908 2 10.378 2H3.99902C2.89402 2 1.99902 2.895 1.99902 4V12C1.99902 13.104 2.89402 14 3.99902 14H7.29102L7.34302 13.792ZM6.00002 3H9.00002V4.5C9.00002 4.776 8.77602 5 8.50002 5H6.50002C6.22402 5 6.00002 4.776 6.00002 4.5V3Z"/><path d="M15.54 8.454C15.247 8.162 14.85 7.997 14.436 7.997C14.022 7.997 13.625 8.161 13.332 8.454L9.04402 12.741C8.68802 13.097 8.43602 13.543 8.31402 14.032L8.01402 15.243C7.98902 15.345 7.99002 15.452 8.01802 15.553C8.04602 15.654 8.10002 15.747 8.17402 15.821C8.24802 15.895 8.34102 15.949 8.44202 15.977C8.54302 16.005 8.65002 16.007 8.75202 15.981L9.96302 15.681C10.451 15.559 10.897 15.306 11.253 14.95L15.542 10.663C15.687 10.518 15.802 10.345 15.881 10.156C15.959 9.966 16 9.763 15.999 9.558C15.999 9.353 15.958 9.15 15.879 8.96C15.8 8.771 15.685 8.598 15.539 8.454H15.54Z"/></svg>