<svg width="16" height="16" viewBox="0 0 16 16" xmlns="http://www.w3.org/2000/svg" fill="currentColor"><path d="M4.00018 2.99995C3.4479 2.99995 3.00018 3.44767 3.00018 3.99995V12C3.00018 12.5522 3.4479 13 4.00018 13V9.49995C4.00018 8.67153 4.67176 7.99995 5.50018 7.99995H10.5002C11.3286 7.99995 12.0002 8.67153 12.0002 9.49995V13C12.5525 13 13.0002 12.5522 13.0002 12V5.62127C13.0002 5.35606 12.8948 5.1017 12.7073 4.91417L11.086 3.29285C10.8984 3.10531 10.6441 2.99995 10.3789 2.99995H10.0002V4.49995C10.0002 5.32838 9.32861 5.99995 8.50018 5.99995H6.50018C5.67176 5.99995 5.00018 5.32838 5.00018 4.49995V2.99995H4.00018ZM6.00018 2.99995V4.49995C6.00018 4.7761 6.22404 4.99995 6.50018 4.99995H8.50018C8.77633 4.99995 9.00018 4.7761 9.00018 4.49995V2.99995H6.00018ZM11.0002 13V9.49995C11.0002 9.22381 10.7763 8.99995 10.5002 8.99995H5.50018C5.22404 8.99995 5.00018 9.22381 5.00018 9.49995V13H11.0002ZM2.00018 3.99995C2.00018 2.89538 2.89561 1.99995 4.00018 1.99995H10.3789C10.9093 1.99995 11.418 2.21067 11.7931 2.58574L13.4144 4.20706C13.7895 4.58213 14.0002 5.09084 14.0002 5.62127V12C14.0002 13.1045 13.1048 14 12.0002 14H4.00018C2.89561 14 2.00018 13.1045 2.00018 12V3.99995Z"/></svg>