<svg width="18" height="18" viewBox="0 0 18 18" xmlns="http://www.w3.org/2000/svg" fill="currentColor"><path fill-rule="evenodd" clip-rule="evenodd" d="M16 7.12V12C16 13.06 15.58 14.08 14.83 14.83C14.08 15.58 13.06 16 12 16H6C5.91 16 5.82 15.99 5.74 15.98C5.66 15.97 5.58 15.96 5.5 15.93C5.32 15.89 5.15 15.82 5 15.73C4.92 15.68 4.85 15.64 4.78 15.58C4.64 15.48 4.52 15.36 4.42 15.22C4.36 15.15 4.32 15.08 4.27 15H12C12.35 15 12.69 14.94 13 14.82C13.42 14.68 13.8 14.44 14.12 14.12C14.68 13.56 15 12.8 15 12V5.3L15.41 5.71C15.79 6.08 16 6.6 16 7.12ZM12 14H4C2.897 14 2 13.103 2 12V4C2 2.897 2.897 2 4 2H10.879C11.405 2 11.921 2.213 12.293 2.586L13.414 3.707C13.787 4.079 14 4.595 14 5.121V12C14 13.103 13.103 14 12 14ZM6.999 4H9V3H6.999V4ZM10 9H6V13H10V9ZM11 9V13H12C12.551 13 13 12.551 13 12V5.121C13 4.858 12.893 4.6 12.707 4.414L11.586 3.293C11.4 3.107 11.142 3 10.879 3H10V4C10 4.551 9.551 5 9 5H7C6.449 5 6 4.551 6 4V3H4C3.449 3 3 3.449 3 4V12C3 12.551 3.449 13 4 13H5V9C5 8.449 5.449 8 6 8H10C10.551 8 11 8.449 11 9Z"/></svg>