<svg width="16" height="16" viewBox="0 0 16 16" xmlns="http://www.w3.org/2000/svg" fill="currentColor"><path d="M5 9.5C5 9.224 5.224 9 5.5 9H10.5C10.738 9 10.929 9.171 10.979 9.394L11.729 8.644C11.458 8.256 11.009 8 10.5 8H5.5C4.673 8 4 8.673 4 9.5V14H3C2.449 14 2 13.551 2 13V3C2 2.449 2.449 2 3 2H5V3.5C5 4.327 5.673 5 6.5 5H8.5C9.327 5 10 4.327 10 3.5V2H11.379C11.642 2 11.9 2.107 12.086 2.293L13.707 3.914C13.893 4.1 14 4.358 14 4.621V7.04C14.143 7.015 14.289 6.997 14.437 6.997C14.629 6.997 14.817 7.023 15 7.064V4.62C15 4.094 14.787 3.578 14.414 3.206L12.793 1.585C12.421 1.212 11.905 0.999001 11.379 0.999001H3C1.897 1 1 1.897 1 3V13C1 14.103 1.897 15 3 15H7.045L7.293 14H5V9.5ZM6 2H9V3.5C9 3.776 8.776 4 8.5 4H6.5C6.224 4 6 3.776 6 3.5V2ZM16 9.559C16 9.764 15.96 9.967 15.882 10.157C15.803 10.346 15.688 10.519 15.543 10.664L11.254 14.951C10.898 15.307 10.452 15.56 9.964 15.682L8.753 15.982C8.651 16.008 8.544 16.006 8.443 15.978C8.342 15.95 8.249 15.896 8.175 15.822C8.101 15.748 8.047 15.655 8.019 15.554C7.991 15.453 7.99 15.346 8.015 15.244L8.315 14.033C8.437 13.544 8.689 13.098 9.045 12.742L13.333 8.455C13.626 8.162 14.023 7.998 14.437 7.998C14.851 7.998 15.248 8.163 15.541 8.455C15.687 8.599 15.802 8.772 15.881 8.961C15.96 9.151 16 9.354 16 9.559Z"/></svg>