<svg width="24" height="24" viewBox="0 0 24 24" xmlns="http://www.w3.org/2000/svg" fill="currentColor"><path d="M22.281 21.219L16.0875 15.0255C17.2815 13.5945 18 11.754 18 9.74854C18 5.19904 14.298 1.49854 9.75 1.49854C5.202 1.49854 1.5 5.20054 1.5 9.75004C1.5 14.2995 5.202 18 9.75 18C11.7555 18 13.5945 17.28 15.027 16.0875L21.2205 22.281C21.3675 22.428 21.5595 22.5 21.7515 22.5C21.9435 22.5 22.1355 22.4265 22.2825 22.281C22.575 21.9885 22.575 21.513 22.2825 21.2205L22.281 21.219ZM9.75 16.5C6.0285 16.5 3 13.4715 3 9.75004C3 6.02853 6.0285 3.00004 9.75 3.00004C13.4715 3.00004 16.5 6.02853 16.5 9.75004C16.5 13.4715 13.4715 16.5 9.75 16.5Z"/></svg>