<svg width="16" height="16" viewBox="0 0 16 16" xmlns="http://www.w3.org/2000/svg" fill="currentColor"><path d="M14.854 14.146L10.725 10.017C11.521 9.06302 12 7.83602 12 6.49902C12 3.46602 9.532 0.999023 6.5 0.999023C3.468 0.999023 1 3.46702 1 6.50002C1 9.53302 3.468 12 6.5 12C7.837 12 9.063 11.52 10.018 10.725L14.147 14.854C14.245 14.952 14.373 15 14.501 15C14.629 15 14.757 14.951 14.855 14.854C15.05 14.659 15.05 14.342 14.855 14.147L14.854 14.146ZM6.5 11C4.019 11 2 8.98102 2 6.50002C2 4.01902 4.019 2.00002 6.5 2.00002C8.981 2.00002 11 4.01902 11 6.50002C11 8.98102 8.981 11 6.5 11Z"/></svg>