<svg width="16" height="16" viewBox="0 0 16 16" xmlns="http://www.w3.org/2000/svg" fill="currentColor"><path d="M10.8777 0.282739L11.226 1.35354C11.3343 1.67908 11.5171 1.9749 11.7599 2.21748C12.0026 2.46006 12.2987 2.64272 12.6245 2.75093L13.6961 3.09894L13.7175 3.1043C13.8001 3.13341 13.8716 3.18741 13.9222 3.25885C13.9728 3.33029 14 3.41565 14 3.50317C14 3.59069 13.9728 3.67605 13.9222 3.74749C13.8716 3.81893 13.8001 3.87293 13.7175 3.90204L12.6459 4.25005C12.3201 4.35827 12.0241 4.54093 11.7813 4.78351C11.5385 5.02609 11.3558 5.3219 11.2475 5.64745L10.8992 6.71824C10.87 6.80078 10.816 6.87224 10.7445 6.9228C10.673 6.97335 10.5876 7.0005 10.5 7.0005C10.4124 7.0005 10.327 6.97335 10.2555 6.9228C10.2484 6.91781 10.2416 6.91262 10.2349 6.90724C10.1736 6.85804 10.1271 6.79264 10.1008 6.71824L9.75255 5.64745C9.73383 5.59063 9.71284 5.53471 9.68966 5.47981C9.57963 5.21921 9.42023 4.98165 9.21968 4.78048C9.18154 4.74222 9.14208 4.70545 9.10139 4.67022C8.88302 4.48113 8.62919 4.33637 8.35408 4.2447L7.28247 3.89669C7.19987 3.86757 7.12835 3.81357 7.07776 3.74213C7.02717 3.67069 7 3.58533 7 3.49782C7 3.4103 7.02717 3.32494 7.07776 3.2535C7.12835 3.18206 7.19987 3.12806 7.28247 3.09894L8.35408 2.75093C8.67591 2.6399 8.96768 2.45598 9.20656 2.21356C9.44544 1.97114 9.62497 1.6768 9.73111 1.35354L10.0794 0.282739C10.1085 0.200208 10.1626 0.12874 10.2341 0.078188C10.3056 0.0276356 10.391 0.000488281 10.4786 0.000488281C10.5662 0.000488281 10.6516 0.0276356 10.7231 0.078188C10.7946 0.12874 10.8486 0.200208 10.8777 0.282739ZM15.7829 8.21368L15.0175 7.9651C14.7848 7.8878 14.5733 7.75733 14.3999 7.58406C14.2265 7.41079 14.0959 7.19949 14.0186 6.96696L13.7698 6.2021C13.749 6.14315 13.7104 6.0921 13.6593 6.056C13.6083 6.01989 13.5473 6.0005 13.4847 6.0005C13.4221 6.0005 13.3611 6.01989 13.31 6.056C13.259 6.0921 13.2204 6.14315 13.1996 6.2021L12.9508 6.96696C12.875 7.19786 12.7467 7.40811 12.5761 7.58126C12.4055 7.75441 12.1971 7.88579 11.9672 7.9651L11.2018 8.21368C11.1428 8.23447 11.0917 8.27304 11.0555 8.32407C11.0194 8.3751 11 8.43607 11 8.49859C11 8.5611 11.0194 8.62207 11.0555 8.6731C11.0917 8.72413 11.1428 8.7627 11.2018 8.7835L11.9672 9.03207C12.2003 9.10975 12.412 9.24081 12.5855 9.41477C12.7589 9.58873 12.8893 9.8008 12.9661 10.034L13.2149 10.7989C13.2357 10.8579 13.2743 10.9089 13.3254 10.945C13.3764 10.9811 13.4374 11.0005 13.5 11.0005C13.5626 11.0005 13.6236 10.9811 13.6746 10.945C13.7257 10.9089 13.7643 10.8579 13.7851 10.7989L14.0339 10.034C14.1113 9.8015 14.2418 9.59021 14.4152 9.41694C14.5886 9.24366 14.8001 9.1132 15.0328 9.0359L15.7982 8.78732C15.8572 8.76652 15.9083 8.72795 15.9445 8.67692C15.9806 8.6259 16 8.56492 16 8.50241C16 8.4399 15.9806 8.37893 15.9445 8.3279C15.9083 8.27687 15.8572 8.2383 15.7982 8.2175L15.7829 8.21368ZM6.5 2.00061C6.7523 2.00061 6.99974 2.02137 7.24073 2.06129L6.95086 2.15443C6.67061 2.25459 6.43039 2.43489 6.26024 2.67528C6.18297 2.78444 6.12221 2.90187 6.0789 3.02569C4.34446 3.23367 3 4.71014 3 6.50063C3 8.43363 4.567 10.0007 6.5 10.0007C7.9753 10.0007 9.23741 9.08785 9.75238 7.79622C9.86953 7.86871 9.99332 7.92127 10.1237 7.9539C10.0437 8.12418 10.0036 8.31449 10.0036 8.5048C10.0036 8.72197 10.0553 8.93267 10.1585 9.12136C10.1126 9.18533 10.0651 9.24805 10.016 9.30946L13.8536 13.1471C14.0488 13.3423 14.0488 13.6589 13.8536 13.8542C13.6583 14.0494 13.3417 14.0494 13.1464 13.8542L9.30887 10.0166C8.53903 10.6324 7.56252 11.0007 6.5 11.0007C4.01472 11.0007 2 8.98592 2 6.50063C2 4.01534 4.01472 2.00061 6.5 2.00061Z"/></svg>