<svg width="16" height="16" viewBox="0 0 16 16" xmlns="http://www.w3.org/2000/svg" fill="currentColor"><path d="M13.4854 11C13.5482 11.0001 13.6093 11.0188 13.6602 11.0547C13.7112 11.0907 13.7485 11.1422 13.7695 11.2012L14.0186 11.9658C14.0956 12.1978 14.2274 12.41 14.4004 12.583C14.5742 12.7558 14.7848 12.8869 15.0176 12.9639L15.7832 13.2129L15.7979 13.2168C15.8569 13.2368 15.9083 13.2761 15.9443 13.3271H15.9463C15.9832 13.3771 16.0019 13.4391 16.002 13.501C16.002 13.5629 15.9822 13.6239 15.9463 13.6748C15.9103 13.7258 15.8588 13.7642 15.7998 13.7852L15.0352 14.0342C14.8022 14.1112 14.59 14.242 14.417 14.415C14.244 14.588 14.1131 14.7992 14.0361 15.0322L13.7871 15.7969C13.7661 15.8559 13.7268 15.9074 13.6758 15.9434C13.6248 15.9802 13.5639 15.999 13.501 15.999C13.4381 15.999 13.3771 15.9792 13.3262 15.9434C13.2742 15.9074 13.2358 15.8559 13.2148 15.7969L12.9658 15.0322C12.8888 14.7992 12.7579 14.5871 12.585 14.4131C12.412 14.2391 12.1998 14.1083 11.9668 14.0303L11.2021 13.7812C11.1431 13.7613 11.0917 13.7219 11.0557 13.6709C11.0188 13.62 11 13.559 11 13.4971C11 13.4352 11.0198 13.3742 11.0557 13.3232C11.0917 13.2722 11.1431 13.2339 11.2021 13.2129L11.9668 12.9639C12.1968 12.8849 12.4052 12.7531 12.5762 12.5801C12.7471 12.4071 12.8752 12.1968 12.9512 11.9658L13.2002 11.2012C13.2202 11.1422 13.2586 11.0907 13.3096 11.0547C13.3606 11.0187 13.4224 11 13.4854 11Z"/><path d="M8.5 1C11.533 1 14 3.467 14 6.5C14 6.71394 13.9849 6.92487 13.9609 7.13281L12.9688 6.81055C12.9758 6.70571 13 6.60585 13 6.5C13 4.019 10.982 2 8.5 2C6.018 2 4 4.019 4 6.5C4 8.981 6.019 11 8.5 11C8.60489 11 8.70278 10.9758 8.80566 10.9688L9.12891 11.9609C8.92193 11.9849 8.71297 12 8.5 12C7.16303 12 5.93641 11.5206 4.98242 10.7246L1.35254 14.3535L0.645508 13.6475L4.27539 10.0176C3.48042 9.06259 3 7.83697 3 6.5C3 3.467 5.467 1 8.5 1Z"/><path d="M10.4775 4.99902C10.5655 4.99902 10.6507 5.02622 10.7227 5.07715C10.7937 5.12815 10.8489 5.19923 10.8779 5.28223L11.2256 6.35254C11.3336 6.67844 11.5169 6.97384 11.7598 7.2168C12.0028 7.4598 12.299 7.642 12.625 7.75L13.6973 8.09766L13.7178 8.10254C13.8007 8.13151 13.8719 8.18591 13.9229 8.25781C13.9738 8.3288 14.001 8.41497 14.001 8.50195C14.001 8.58895 13.9739 8.67509 13.9229 8.74609C13.8719 8.81703 13.8007 8.87138 13.7178 8.90137L12.6455 9.24902C12.3197 9.35704 12.0241 9.54034 11.7812 9.78223C11.5382 10.0252 11.3551 10.3205 11.2471 10.6465L10.8994 11.7178C10.8704 11.8007 10.8161 11.8719 10.7441 11.9229C10.6732 11.9738 10.587 12.001 10.499 12.001C10.411 12.001 10.3259 11.9739 10.2539 11.9229C10.2471 11.918 10.2402 11.9131 10.2334 11.9072C10.1724 11.8582 10.1246 11.7918 10.0986 11.7178L9.75098 10.6475C9.73198 10.5905 9.7105 10.5335 9.6875 10.4785C9.57751 10.2178 9.41861 9.98112 9.21777 9.78027C9.17977 9.74227 9.13961 9.70492 9.09961 9.66992C8.88167 9.48103 8.62743 9.3361 8.35254 9.24414L7.28125 8.89648C7.19834 8.86751 7.12716 8.8131 7.07617 8.74121C7.02519 8.67023 6.99806 8.58405 6.99805 8.49707C6.99805 8.41007 7.02517 8.32393 7.07617 8.25293C7.12716 8.182 7.1983 8.12764 7.28125 8.09766L8.35254 7.75C8.67454 7.639 8.96708 7.45489 9.20508 7.21289C9.44303 6.97091 9.62348 6.67549 9.73047 6.35254L10.0781 5.28223C10.1071 5.19923 10.1614 5.12815 10.2334 5.07715C10.3052 5.02633 10.3898 4.99911 10.4775 4.99902Z"/></svg>