<svg width="16" height="16" viewBox="0 0 16 16" fill="none" xmlns="http://www.w3.org/2000/svg">
<path fill-rule="evenodd" clip-rule="evenodd" d="M5.73804 3.31803C4.89412 4.16195 4.42004 5.30657 4.42004 6.50004C4.41962 7.17208 4.57039 7.83558 4.86121 8.44145C5.15202 9.04731 5.57536 9.58001 6.09998 10C6.03038 10.3287 5.99687 10.6641 6 11V11.1701C5.84 11.0601 5.68003 10.95 5.53003 10.83L1.75 14.5L1 13.84L4.80005 10.1501C4.21049 9.48341 3.79142 8.6836 3.57898 7.81938C3.36654 6.95515 3.36703 6.05229 3.58032 5.18827C3.79362 4.32426 4.21337 3.52488 4.80359 2.8588C5.39381 2.19273 6.1368 1.67988 6.96887 1.36418C7.80095 1.04847 8.6973 0.939388 9.58081 1.0463C10.4643 1.15322 11.3086 1.473 12.0414 1.97807C12.7741 2.48313 13.3734 3.15845 13.7877 3.94608C14.202 4.73372 14.419 5.61009 14.42 6.50004C14.4203 6.76784 14.4002 7.03533 14.36 7.30009C14.0728 7.03926 13.7576 6.81114 13.42 6.62003V6.50004C13.42 5.30657 12.9458 4.16195 12.1019 3.31803C11.258 2.47412 10.1135 2.00004 8.92004 2.00004C7.72657 2.00004 6.58195 2.47412 5.73804 3.31803ZM8.77769 7.67407C9.43548 7.23455 10.2089 7 11 7C12.0608 7 13.0782 7.42149 13.8283 8.17163C14.5785 8.92178 15 9.93913 15 11C15 11.7911 14.7654 12.5645 14.3259 13.2223C13.8864 13.8801 13.2616 14.3928 12.5307 14.6956C11.7998 14.9983 10.9955 15.0774 10.2196 14.9231C9.44366 14.7688 8.73102 14.3878 8.17161 13.8284C7.6122 13.269 7.23122 12.5563 7.07688 11.7804C6.92254 11.0045 7.00167 10.2001 7.30442 9.46924C7.60717 8.73833 8.11989 8.1136 8.77769 7.67407ZM8.87864 13.1213C9.44125 13.6839 10.2043 14 11 14C11.623 14.0018 12.2312 13.8095 12.74 13.45L8.55003 9.26001C8.19046 9.76883 7.99818 10.377 7.99998 11C7.99998 11.7956 8.31603 12.5587 8.87864 13.1213ZM9.25999 8.55005L13.4499 12.74C13.8095 12.2312 14.0018 11.623 14 11C14 10.2044 13.6839 9.44127 13.1213 8.87866C12.5587 8.31605 11.7956 8 11 8C10.3769 7.9982 9.7688 8.19048 9.25999 8.55005Z" fill="#C5C5C5"/>
</svg>
