<svg xmlns="http://www.w3.org/2000/svg" width="12" height="12" viewBox="0 0 12 12" fill="currentColor"><path fill-rule="evenodd" clip-rule="evenodd" d="M5 0C7.76 0 10 2.24 10 5C10 6.19675 9.57708 7.29428 8.875 8.15527L11.8604 11.1406C12.06 11.3406 12.0602 11.6507 11.8604 11.8506C11.7604 11.9506 11.6298 12 11.5098 12H11.5C11.3702 12 11.2404 11.9503 11.1504 11.8506L8.16699 8.86719C7.30439 9.57459 6.20178 10 5 10C2.24 10 0 7.76 0 5C0 2.24 2.24 0 5 0ZM5 1C2.79 1 1 2.79 1 5C1 7.21 2.79 9 5 9C7.21 9 9 7.21 9 5C9 2.79 7.21 1 5 1Z"/></svg>