<svg width="24" height="25" viewBox="0 0 24 25" xmlns="http://www.w3.org/2000/svg" fill="currentColor"><path d="M16.094 17.7217C14.389 19.1837 12.173 20.0677 9.75 20.0677C4.365 20.0677 0 15.7027 0 10.3177C0 4.93275 4.365 0.567749 9.75 0.567749C15.135 0.567749 19.5 4.93275 19.5 10.3177C19.5 12.7397 18.617 14.9567 17.154 16.6617L22.28 21.7877C22.573 22.0807 22.573 22.5557 22.28 22.8487C22.02 23.1087 21.615 23.1377 21.323 22.9357L21.219 22.8487L16.093 17.7227L16.094 17.7217ZM15.029 16.6577C15.414 16.3367 15.769 15.9817 16.089 15.5977C17.282 14.1667 17.999 12.3267 17.999 10.3177C17.999 5.76175 14.305 2.06775 9.749 2.06775C5.193 2.06775 1.5 5.76175 1.5 10.3177C1.5 14.8737 5.194 18.5677 9.75 18.5677C11.758 18.5677 13.599 17.8507 15.029 16.6577Z"/></svg>