<svg width="24" height="24" viewBox="0 0 24 24" xmlns="http://www.w3.org/2000/svg" fill="currentColor"><path d="M22.78 21.72L16.017 14.957C17.254 13.481 18 11.578 18 9.50098C18 4.80698 14.194 1.00098 9.5 1.00098C4.806 1.00098 1 4.80598 1 9.49998C1 14.194 4.806 18 9.5 18C11.577 18 13.48 17.255 14.956 16.017L21.719 22.78C21.865 22.926 22.057 23 22.249 23C22.441 23 22.633 22.927 22.779 22.78C23.072 22.487 23.072 22.012 22.779 21.719L22.78 21.72ZM2.5 9.49998C2.5 5.63998 5.64 2.49998 9.5 2.49998C13.36 2.49998 16.5 5.63998 16.5 9.49998C16.5 13.36 13.36 16.5 9.5 16.5C5.64 16.5 2.5 13.36 2.5 9.49998Z"/></svg>