<svg width="18" height="18" viewBox="0 0 18 18" xmlns="http://www.w3.org/2000/svg" fill="currentColor"><path d="M11.5 13.499C11.5 14.051 11.052 14.499 10.5 14.499C9.948 14.499 9.5 14.051 9.5 13.499C9.5 12.947 9.948 12.499 10.5 12.499C11.052 12.499 11.5 12.947 11.5 13.499ZM14.5 9C14.224 9 14 9.224 14 9.5C14 9.776 14.224 10 14.5 10C14.776 10 15 9.776 15 9.5C15 9.224 14.776 9 14.5 9ZM16.852 10.331L16.798 10.464C16.758 10.56 16.712 10.652 16.661 10.741C16.601 10.844 16.544 10.929 16.482 11.011L16.398 11.122C16.304 11.246 16.141 11.295 15.994 11.243L15.502 11.069C15.472 11.059 15.438 11.061 15.409 11.077L15.345 11.184L15.257 11.674C15.235 11.782 15.165 11.875 15.066 11.925C15.029 11.943 14.945 11.961 14.812 11.978C14.704 11.992 14.595 11.999 14.487 11.999C14.386 11.999 14.285 11.994 14.185 11.981L14.043 11.963C13.888 11.944 13.763 11.826 13.736 11.672L13.643 11.154C13.638 11.123 13.617 11.093 13.591 11.078C13.568 11.064 13.542 11.06 13.516 11.064L13.152 11.193C13.161 11.202 13.17 11.214 13.17 11.214L13.299 11.38C13.478 11.614 13.626 11.868 13.741 12.139L13.824 12.335C13.842 12.378 13.851 12.424 13.851 12.47C13.851 12.641 13.727 12.737 13.727 12.737L13.134 13.238C13.028 13.328 13.014 13.445 13.014 13.497C13.014 13.603 13.061 13.678 13.094 13.718V13.72L13.724 14.261C13.724 14.261 13.848 14.357 13.848 14.528C13.848 14.575 13.839 14.621 13.821 14.664L13.739 14.858C13.625 15.129 13.477 15.385 13.299 15.619L13.172 15.784C13.155 15.807 13.064 15.921 12.895 15.921C12.856 15.921 12.816 15.914 12.778 15.901L12.04 15.641C12.004 15.629 11.966 15.623 11.929 15.623C11.896 15.623 11.685 15.631 11.602 15.847L11.447 16.662C11.42 16.812 11.298 16.927 11.147 16.946L10.937 16.972C10.795 16.99 10.652 16.999 10.508 16.999H10.49C10.345 16.999 10.2 16.99 10.056 16.972L9.85 16.946C9.7 16.928 9.578 16.815 9.549 16.666L9.409 15.904C9.379 15.742 9.237 15.624 9.072 15.624L8.957 15.644L8.224 15.9C8.186 15.913 8.146 15.92 8.106 15.92C7.937 15.92 7.846 15.805 7.829 15.783L7.702 15.618C7.522 15.384 7.373 15.128 7.258 14.857L7.176 14.662C7.158 14.619 7.149 14.572 7.149 14.526C7.149 14.355 7.273 14.259 7.273 14.259L7.866 13.758C7.99 13.656 7.989 13.516 7.989 13.498C7.989 13.445 7.976 13.357 7.909 13.278L7.279 12.736C7.279 12.736 7.155 12.64 7.155 12.469C7.155 12.422 7.164 12.376 7.182 12.333L7.264 12.139C7.377 11.869 7.523 11.613 7.699 11.379L7.826 11.214C7.843 11.191 7.934 11.076 8.104 11.076C8.145 11.076 8.185 11.083 8.224 11.097L8.959 11.357C8.995 11.369 9.033 11.375 9.07 11.375C9.103 11.375 9.314 11.366 9.397 11.151L9.551 10.336C9.579 10.186 9.7 10.071 9.852 10.052L10.062 10.026C10.209 10.007 10.356 9.998 10.503 9.998C10.65 9.998 10.797 10.007 10.943 10.026L11.153 10.052C11.304 10.07 11.426 10.185 11.454 10.335L11.594 11.097C11.624 11.259 11.765 11.377 11.93 11.377L12.039 11.357L12.622 11.151C12.615 11.144 12.609 11.137 12.603 11.129L12.515 11.016C12.387 10.848 12.281 10.667 12.198 10.475L12.144 10.341C12.086 10.199 12.125 10.035 12.242 9.935L12.645 9.589C12.676 9.548 12.706 9.489 12.657 9.429L12.244 9.076C12.128 8.975 12.089 8.812 12.148 8.67L12.203 8.537C12.244 8.439 12.291 8.344 12.343 8.254C12.395 8.164 12.453 8.076 12.517 7.992L12.605 7.877C12.699 7.752 12.864 7.703 13.009 7.757L13.503 7.933C13.533 7.944 13.567 7.94 13.596 7.924L13.657 7.821L13.744 7.329C13.773 7.179 13.893 7.064 14.044 7.042L14.187 7.021C14.399 6.994 14.609 6.992 14.815 7.018L14.958 7.036C15.114 7.055 15.239 7.174 15.266 7.328L15.358 7.846C15.364 7.877 15.383 7.905 15.412 7.921C15.434 7.934 15.463 7.939 15.486 7.934L16.001 7.752C16.145 7.702 16.303 7.749 16.398 7.869L16.487 7.982C16.618 8.153 16.723 8.336 16.804 8.529L16.858 8.661C16.917 8.804 16.877 8.969 16.76 9.069L16.356 9.414C16.324 9.458 16.297 9.516 16.344 9.574L16.756 9.928C16.872 10.028 16.91 10.19 16.852 10.331ZM13.073 12.368C12.991 12.181 12.888 12.005 12.766 11.841L12.276 12.016H12.273C12.234 12.03 12.095 12.078 11.918 12.078C11.876 12.078 11.047 12.055 10.901 11.224L10.807 10.715C10.705 10.704 10.602 10.699 10.499 10.699C10.396 10.699 10.293 10.704 10.191 10.715L10.098 11.222C10.088 11.278 10.074 11.333 10.055 11.386C9.806 12.043 9.164 12.071 9.063 12.071C8.95 12.071 8.836 12.053 8.726 12.016L8.236 11.841C8.115 12.005 8.012 12.182 7.929 12.368L8.325 12.702C8.602 12.939 8.694 13.252 8.694 13.497C8.694 13.797 8.564 14.09 8.324 14.292L7.929 14.626C8.011 14.812 8.114 14.989 8.235 15.153L8.728 14.978C8.78 14.959 8.834 14.945 8.888 14.935C8.956 14.921 9.026 14.914 9.095 14.914C9.706 14.914 10.042 15.391 10.102 15.775L10.191 16.282C10.293 16.293 10.396 16.299 10.499 16.299C10.602 16.299 10.705 16.294 10.807 16.282L10.9 15.775C10.911 15.719 10.925 15.664 10.944 15.61C11.197 14.953 11.84 14.926 11.941 14.926C12.055 14.926 12.168 14.944 12.278 14.98L12.768 15.154L12.766 15.152C12.887 14.988 12.989 14.811 13.072 14.625L12.675 14.289C12.395 14.046 12.307 13.743 12.307 13.496C12.307 13.196 12.437 12.904 12.676 12.702L13.073 12.368ZM15.713 9.085C15.758 9.008 15.816 8.938 15.884 8.877L16.093 8.699C16.061 8.635 16.026 8.574 15.986 8.514L15.666 8.625C15.422 8.675 15.223 8.641 15.054 8.543C14.842 8.421 14.697 8.214 14.654 7.975L14.609 7.719C14.538 7.713 14.466 7.714 14.396 7.719L14.277 8.194C14.179 8.368 14.075 8.472 13.952 8.543C13.742 8.665 13.49 8.687 13.263 8.607L13.018 8.519C12.999 8.549 12.98 8.58 12.962 8.611C12.95 8.631 12.94 8.651 12.93 8.67L12.917 8.696L12.91 8.71L13.169 8.936C13.479 9.309 13.419 9.691 13.287 9.919C13.243 9.995 13.186 10.064 13.115 10.127L12.907 10.306C12.938 10.368 12.974 10.429 13.014 10.488L13.335 10.377C13.578 10.328 13.778 10.363 13.946 10.46C14.155 10.58 14.305 10.794 14.346 11.033L14.391 11.285C14.461 11.29 14.532 11.289 14.605 11.285L14.727 10.81C14.818 10.641 14.923 10.535 15.051 10.461C15.26 10.34 15.511 10.316 15.74 10.397L15.983 10.483C16.004 10.452 16.024 10.42 16.044 10.385C16.06 10.356 16.076 10.326 16.091 10.295L15.832 10.069H15.83C15.522 9.697 15.581 9.313 15.713 9.085ZM5 15H6V16H5C3.343 16 2 14.657 2 13V5C2 3.343 3.343 2 5 2H13C14.657 2 16 3.343 16 5V6H3V13C3 14.105 3.895 15 5 15ZM3 5H15C15 3.895 14.105 3 13 3H5C3.895 3 3 3.895 3 5Z"/></svg>