<svg width="16" height="16" viewBox="0 0 16 16" xmlns="http://www.w3.org/2000/svg" fill="currentColor"><path d="M12 11.5C12 11.5989 11.9707 11.6956 11.9157 11.7778C11.8608 11.86 11.7827 11.9241 11.6913 11.9619C11.6 11.9998 11.4994 12.0097 11.4025 11.9904C11.3055 11.9711 11.2164 11.9235 11.1464 11.8536C11.0765 11.7836 11.0289 11.6945 11.0096 11.5975C10.9903 11.5006 11.0002 11.4 11.0381 11.3087C11.0759 11.2173 11.14 11.1392 11.2222 11.0843C11.3044 11.0293 11.4011 11 11.5 11C11.6326 11 11.7598 11.0527 11.8536 11.1464C11.9473 11.2402 12 11.3674 12 11.5ZM11.5 8C11.5989 8 11.6956 7.97068 11.7778 7.91573C11.86 7.86079 11.9241 7.7827 11.9619 7.69134C11.9998 7.59998 12.0097 7.49945 11.9904 7.40245C11.9711 7.30546 11.9235 7.21637 11.8536 7.14645C11.7836 7.07652 11.6945 7.0289 11.5975 7.00961C11.5006 6.99031 11.4 7.00022 11.3087 7.03806C11.2173 7.0759 11.1392 7.13999 11.0843 7.22221C11.0293 7.30444 11 7.40111 11 7.5C11 7.63261 11.0527 7.75979 11.1464 7.85355C11.2402 7.94732 11.3674 8 11.5 8ZM14 4.5C13.999 4.87026 13.86 5.22685 13.61 5.5C13.86 5.77315 13.999 6.12974 14 6.5V8.5C13.999 8.87026 13.86 9.22685 13.61 9.5C13.86 9.77315 13.999 10.1297 14 10.5V12.5C14 12.8978 13.842 13.2794 13.5607 13.5607C13.2794 13.842 12.8978 14 12.5 14H3.5C3.10218 14 2.72064 13.842 2.43934 13.5607C2.15804 13.2794 2 12.8978 2 12.5V10.5C2.00097 10.1297 2.14003 9.77315 2.39 9.5C2.14003 9.22685 2.00097 8.87026 2 8.5V6.5C2.00097 6.12974 2.14003 5.77315 2.39 5.5C2.14003 5.22685 2.00097 4.87026 2 4.5V2.5C2 2.10218 2.15804 1.72064 2.43934 1.43934C2.72064 1.15804 3.10218 1 3.5 1H12.5C12.8978 1 13.2794 1.15804 13.5607 1.43934C13.842 1.72064 14 2.10218 14 2.5V4.5ZM3 4.5C3 4.63261 3.05268 4.75979 3.14645 4.85355C3.24021 4.94732 3.36739 5 3.5 5H12.5C12.6326 5 12.7598 4.94732 12.8536 4.85355C12.9473 4.75979 13 4.63261 13 4.5V2.5C13 2.36739 12.9473 2.24021 12.8536 2.14645C12.7598 2.05268 12.6326 2 12.5 2H3.5C3.36739 2 3.24021 2.05268 3.14645 2.14645C3.05268 2.24021 3 2.36739 3 2.5V4.5ZM12.5 6H3.5C3.36739 6 3.24021 6.05268 3.14645 6.14645C3.05268 6.24021 3 6.36739 3 6.5V8.5C3 8.63261 3.05268 8.75979 3.14645 8.85355C3.24021 8.94732 3.36739 9 3.5 9H12.5C12.6326 9 12.7598 8.94732 12.8536 8.85355C12.9473 8.75979 13 8.63261 13 8.5V6.5C13 6.36739 12.9473 6.24021 12.8536 6.14645C12.7598 6.05268 12.6326 6 12.5 6ZM13 10.5C13 10.3674 12.9473 10.2402 12.8536 10.1464C12.7598 10.0527 12.6326 10 12.5 10H3.5C3.36739 10 3.24021 10.0527 3.14645 10.1464C3.05268 10.2402 3 10.3674 3 10.5V12.5C3 12.6326 3.05268 12.7598 3.14645 12.8536C3.24021 12.9473 3.36739 13 3.5 13H12.5C12.6326 13 12.7598 12.9473 12.8536 12.8536C12.9473 12.7598 13 12.6326 13 12.5V10.5ZM11.5 4C11.5989 4 11.6956 3.97068 11.7778 3.91573C11.86 3.86079 11.9241 3.7827 11.9619 3.69134C11.9998 3.59998 12.0097 3.49945 11.9904 3.40245C11.9711 3.30546 11.9235 3.21637 11.8536 3.14645C11.7836 3.07652 11.6945 3.0289 11.5975 3.00961C11.5006 2.99031 11.4 3.00022 11.3087 3.03806C11.2173 3.0759 11.1392 3.13999 11.0843 3.22221C11.0293 3.30444 11 3.40111 11 3.5C11 3.63261 11.0527 3.75979 11.1464 3.85355C11.2402 3.94732 11.3674 4 11.5 4Z"/></svg>