<svg width="16" height="16" viewBox="0 0 16 16" xmlns="http://www.w3.org/2000/svg" fill="currentColor"><path d="M10.5 12.499C10.5 13.051 10.052 13.499 9.5 13.499C8.948 13.499 8.5 13.051 8.5 12.499C8.5 11.947 8.948 11.499 9.5 11.499C10.052 11.499 10.5 11.947 10.5 12.499ZM13.5 8C13.224 8 13 8.224 13 8.5C13 8.776 13.224 9 13.5 9C13.776 9 14 8.776 14 8.5C14 8.224 13.776 8 13.5 8ZM15.852 9.331L15.798 9.464C15.758 9.56 15.712 9.652 15.661 9.741C15.601 9.844 15.544 9.929 15.482 10.011L15.398 10.122C15.304 10.246 15.141 10.295 14.994 10.243L14.502 10.069C14.472 10.059 14.438 10.061 14.409 10.077L14.345 10.184L14.257 10.674C14.235 10.782 14.165 10.875 14.066 10.925C14.029 10.943 13.945 10.961 13.812 10.978C13.704 10.992 13.595 10.999 13.487 10.999C13.386 10.999 13.285 10.994 13.185 10.981L13.043 10.963C12.888 10.944 12.763 10.826 12.736 10.672L12.643 10.154C12.638 10.123 12.617 10.093 12.591 10.078C12.568 10.064 12.542 10.06 12.516 10.064L12.152 10.193C12.161 10.202 12.17 10.214 12.17 10.214L12.299 10.38C12.478 10.614 12.626 10.868 12.741 11.139L12.824 11.335C12.842 11.378 12.851 11.424 12.851 11.47C12.851 11.641 12.727 11.737 12.727 11.737L12.134 12.238C12.028 12.328 12.014 12.445 12.014 12.497C12.014 12.603 12.061 12.678 12.094 12.718V12.72L12.724 13.261C12.724 13.261 12.848 13.357 12.848 13.528C12.848 13.575 12.839 13.621 12.821 13.664L12.739 13.858C12.625 14.129 12.477 14.385 12.299 14.619L12.172 14.784C12.155 14.807 12.064 14.921 11.895 14.921C11.856 14.921 11.816 14.914 11.778 14.901L11.04 14.641C11.004 14.629 10.966 14.623 10.929 14.623C10.896 14.623 10.685 14.631 10.602 14.847L10.447 15.662C10.42 15.812 10.298 15.927 10.147 15.946L9.937 15.972C9.795 15.99 9.652 15.999 9.508 15.999H9.49C9.345 15.999 9.2 15.99 9.056 15.972L8.85 15.946C8.7 15.928 8.578 15.815 8.549 15.666L8.409 14.904C8.379 14.742 8.237 14.624 8.072 14.624L7.957 14.644L7.224 14.9C7.186 14.913 7.146 14.92 7.106 14.92C6.937 14.92 6.846 14.805 6.829 14.783L6.702 14.618C6.522 14.384 6.373 14.128 6.258 13.857L6.176 13.662C6.158 13.619 6.149 13.572 6.149 13.526C6.149 13.355 6.273 13.259 6.273 13.259L6.866 12.758C6.99 12.656 6.989 12.516 6.989 12.498C6.989 12.445 6.976 12.357 6.909 12.278L6.279 11.736C6.279 11.736 6.155 11.64 6.155 11.469C6.155 11.422 6.164 11.376 6.182 11.333L6.264 11.139C6.377 10.869 6.523 10.613 6.699 10.379L6.826 10.214C6.843 10.191 6.934 10.076 7.104 10.076C7.145 10.076 7.185 10.083 7.224 10.097L7.959 10.357C7.995 10.369 8.033 10.375 8.07 10.375C8.103 10.375 8.314 10.366 8.397 10.151L8.551 9.336C8.579 9.186 8.7 9.071 8.852 9.052L9.062 9.026C9.209 9.007 9.356 8.998 9.503 8.998C9.65 8.998 9.797 9.007 9.943 9.026L10.153 9.052C10.304 9.07 10.426 9.185 10.454 9.335L10.594 10.097C10.624 10.259 10.765 10.377 10.93 10.377L11.039 10.357L11.622 10.151C11.615 10.144 11.609 10.137 11.603 10.129L11.515 10.016C11.387 9.848 11.281 9.667 11.198 9.475L11.144 9.341C11.086 9.199 11.125 9.035 11.242 8.935L11.645 8.589C11.676 8.548 11.706 8.489 11.657 8.429L11.244 8.076C11.128 7.975 11.089 7.812 11.148 7.67L11.203 7.537C11.244 7.439 11.291 7.344 11.343 7.254C11.395 7.164 11.453 7.076 11.517 6.992L11.605 6.877C11.699 6.752 11.864 6.703 12.009 6.757L12.503 6.933C12.533 6.944 12.567 6.94 12.596 6.924L12.657 6.821L12.744 6.329C12.773 6.179 12.893 6.064 13.044 6.042L13.187 6.021C13.399 5.994 13.609 5.992 13.815 6.018L13.958 6.036C14.114 6.055 14.239 6.174 14.266 6.328L14.358 6.846C14.364 6.877 14.383 6.905 14.412 6.921C14.434 6.934 14.463 6.939 14.486 6.934L15.001 6.752C15.145 6.702 15.303 6.749 15.398 6.869L15.487 6.982C15.618 7.153 15.723 7.336 15.804 7.529L15.858 7.661C15.917 7.804 15.877 7.969 15.76 8.069L15.356 8.414C15.324 8.458 15.297 8.516 15.344 8.574L15.756 8.928C15.872 9.028 15.91 9.19 15.852 9.331ZM12.073 11.368C11.991 11.181 11.888 11.005 11.766 10.841L11.276 11.016H11.273C11.234 11.03 11.095 11.078 10.918 11.078C10.876 11.078 10.047 11.055 9.901 10.224L9.807 9.715C9.705 9.704 9.602 9.699 9.499 9.699C9.396 9.699 9.293 9.704 9.191 9.715L9.098 10.222C9.088 10.278 9.074 10.333 9.055 10.386C8.806 11.043 8.164 11.071 8.063 11.071C7.95 11.071 7.836 11.053 7.726 11.016L7.236 10.841C7.115 11.005 7.012 11.182 6.929 11.368L7.325 11.702C7.602 11.939 7.694 12.252 7.694 12.497C7.694 12.797 7.564 13.09 7.324 13.292L6.929 13.626C7.011 13.812 7.114 13.989 7.235 14.153L7.728 13.978C7.78 13.959 7.834 13.945 7.888 13.935C7.956 13.921 8.026 13.914 8.095 13.914C8.706 13.914 9.042 14.391 9.102 14.775L9.191 15.282C9.293 15.293 9.396 15.299 9.499 15.299C9.602 15.299 9.705 15.294 9.807 15.282L9.9 14.775C9.911 14.719 9.925 14.664 9.944 14.61C10.197 13.953 10.84 13.926 10.941 13.926C11.055 13.926 11.168 13.944 11.278 13.98L11.768 14.154L11.766 14.152C11.887 13.988 11.989 13.811 12.072 13.625L11.675 13.289C11.395 13.046 11.307 12.743 11.307 12.496C11.307 12.196 11.437 11.904 11.676 11.702L12.073 11.368ZM14.713 8.085C14.758 8.008 14.816 7.938 14.884 7.877L15.093 7.699C15.061 7.635 15.026 7.574 14.986 7.514L14.666 7.625C14.422 7.675 14.223 7.641 14.054 7.543C13.842 7.421 13.697 7.214 13.654 6.975L13.609 6.719C13.538 6.713 13.466 6.714 13.396 6.719L13.277 7.194C13.179 7.368 13.075 7.472 12.952 7.543C12.742 7.665 12.49 7.687 12.263 7.607L12.018 7.519C11.999 7.549 11.98 7.58 11.962 7.611C11.95 7.631 11.94 7.651 11.93 7.67L11.917 7.696L11.91 7.71L12.169 7.936C12.479 8.309 12.419 8.691 12.287 8.919C12.243 8.995 12.186 9.064 12.115 9.127L11.907 9.306C11.938 9.368 11.974 9.429 12.014 9.488L12.335 9.377C12.578 9.328 12.778 9.363 12.946 9.46C13.155 9.58 13.305 9.794 13.346 10.033L13.391 10.285C13.461 10.29 13.532 10.289 13.605 10.285L13.727 9.81C13.818 9.641 13.923 9.535 14.051 9.461C14.26 9.34 14.511 9.316 14.74 9.397L14.983 9.483C15.004 9.452 15.024 9.42 15.044 9.385C15.06 9.356 15.076 9.326 15.091 9.295L14.832 9.069H14.83C14.522 8.697 14.581 8.313 14.713 8.085ZM4 14H5V15H4C2.343 15 1 13.657 1 12V4C1 2.343 2.343 1 4 1H12C13.657 1 15 2.343 15 4V5H2V12C2 13.105 2.895 14 4 14ZM2 4H14C14 2.895 13.105 2 12 2H4C2.895 2 2 2.895 2 4Z"/></svg>