<svg width="16" height="16" viewBox="0 0 16 16" xmlns="http://www.w3.org/2000/svg" fill="currentColor"><path fill-rule="evenodd" clip-rule="evenodd" d="M4.5 2C3.11929 2 2 3.11929 2 4.5V11.5C2 12.8807 3.11929 14 4.5 14H5.08583C5.02861 13.8484 5 13.6895 5 13.525C5 13.3309 5.04165 13.1544 5.10741 13H4.5C3.67157 13 3 12.3284 3 11.5V6H10.9368C11.1664 5.8311 11.4489 5.735 11.74 5.735H11.765C11.968 5.37 12.328 5.114 12.75 5.052L12.897 5.031C13.066 5.01 13.219 5 13.371 5C13.513 5 13.655 5.008 13.795 5.026L13.933 5.044C13.9555 5.04674 13.9779 5.05001 14 5.05381V4.5C14 3.11929 12.8807 2 11.5 2H4.5ZM13 5H3V4.5C3 3.67157 3.67157 3 4.5 3H11.5C12.3284 3 13 3.67157 13 4.5V5Z"/><path d="M10.5 12.499C10.5 13.0513 10.0523 13.499 9.5 13.499C8.94771 13.499 8.5 13.0513 8.5 12.499C8.5 11.9467 8.94771 11.499 9.5 11.499C10.0523 11.499 10.5 11.9467 10.5 12.499Z"/><path d="M13.5 9C13.7761 9 14 8.77614 14 8.5C14 8.22386 13.7761 8 13.5 8C13.2239 8 13 8.22386 13 8.5C13 8.77614 13.2239 9 13.5 9Z"/><path fill-rule="evenodd" clip-rule="evenodd" d="M15.344 8.57405L15.756 8.92805C15.872 9.02805 15.91 9.19005 15.852 9.33105L15.798 9.46405C15.758 9.56005 15.712 9.65205 15.661 9.74105C15.601 9.84405 15.544 9.92905 15.482 10.0111L15.398 10.1221C15.304 10.2461 15.141 10.2951 14.994 10.2431L14.502 10.0691C14.472 10.0591 14.438 10.0611 14.409 10.0771L14.345 10.1841L14.257 10.6741C14.235 10.7821 14.165 10.8751 14.066 10.9251C14.029 10.9431 13.945 10.9611 13.812 10.9781C13.704 10.9921 13.595 10.9991 13.487 10.9991C13.386 10.9991 13.285 10.9941 13.185 10.9811L13.043 10.9631C12.888 10.9441 12.763 10.8261 12.736 10.6721L12.643 10.1541C12.638 10.1231 12.617 10.0931 12.591 10.0781C12.568 10.0641 12.542 10.0601 12.516 10.0641L12.152 10.1931C12.161 10.2021 12.17 10.2141 12.17 10.2141L12.299 10.3801C12.478 10.6141 12.626 10.8681 12.741 11.1391L12.824 11.3351C12.842 11.3781 12.851 11.4241 12.851 11.4701C12.851 11.6411 12.727 11.7371 12.727 11.7371L12.134 12.2381C12.028 12.3281 12.014 12.4451 12.014 12.4971C12.014 12.6031 12.061 12.6781 12.094 12.7181V12.7201L12.724 13.2611C12.728 13.2641 12.848 13.3571 12.848 13.5281C12.848 13.5751 12.839 13.6211 12.821 13.6641L12.739 13.8581C12.625 14.1291 12.477 14.3851 12.299 14.6191L12.172 14.7841C12.155 14.8071 12.064 14.9211 11.895 14.9211C11.856 14.9211 11.816 14.9141 11.778 14.9011L11.04 14.6411C11.004 14.6291 10.966 14.6231 10.929 14.6231C10.896 14.6231 10.685 14.6311 10.602 14.8471L10.447 15.6621C10.42 15.8121 10.298 15.9271 10.147 15.9461L9.93705 15.9721C9.79505 15.9901 9.65205 15.9991 9.50805 15.9991H9.49005C9.34505 15.9991 9.20005 15.9901 9.05605 15.9721L8.85005 15.9461C8.70005 15.9281 8.57805 15.8151 8.54905 15.6661L8.40905 14.9041C8.37905 14.7421 8.23705 14.6241 8.07205 14.6241L7.95705 14.6441L7.22405 14.9001C7.18605 14.9131 7.14605 14.9201 7.10605 14.9201C6.93705 14.9201 6.84605 14.8051 6.82905 14.7831L6.70205 14.6181C6.52205 14.3841 6.37305 14.1281 6.25805 13.8571L6.17605 13.6621C6.15805 13.6191 6.14905 13.5721 6.14905 13.5261C6.14905 13.3551 6.27305 13.2591 6.27305 13.2591L6.86605 12.7581C6.98963 12.656 6.98911 12.5156 6.98905 12.4981C6.98905 12.4451 6.97605 12.3571 6.90905 12.2781L6.27905 11.7361C6.27505 11.7331 6.15505 11.6401 6.15505 11.4691C6.15505 11.4221 6.16405 11.3761 6.18205 11.3331L6.26405 11.1391C6.37705 10.8691 6.52305 10.6131 6.69905 10.3791L6.82605 10.2141C6.84305 10.1911 6.93405 10.0761 7.10405 10.0761C7.14505 10.0761 7.18505 10.0831 7.22405 10.0971L7.95905 10.3571C7.99505 10.3691 8.03305 10.3751 8.07005 10.3751C8.10305 10.3751 8.31405 10.3661 8.39705 10.1511L8.55105 9.33605C8.57905 9.18605 8.70005 9.07105 8.85205 9.05205L9.06205 9.02605C9.20905 9.00705 9.35605 8.99805 9.50305 8.99805C9.65005 8.99805 9.79705 9.00705 9.94305 9.02605L10.153 9.05205C10.304 9.07005 10.426 9.18505 10.454 9.33505L10.594 10.0971C10.624 10.2591 10.765 10.3771 10.93 10.3771L11.039 10.3571L11.622 10.1511C11.615 10.1441 11.609 10.1371 11.603 10.1291L11.515 10.0161C11.387 9.84805 11.281 9.66705 11.198 9.47505L11.144 9.34105C11.086 9.19905 11.125 9.03505 11.242 8.93505L11.645 8.58905C11.676 8.54805 11.706 8.48905 11.657 8.42905L11.244 8.07605C11.128 7.97505 11.089 7.81205 11.148 7.67005L11.203 7.53705C11.244 7.43905 11.291 7.34405 11.343 7.25405C11.395 7.16405 11.453 7.07605 11.517 6.99205L11.605 6.87705C11.699 6.75205 11.864 6.70305 12.009 6.75705L12.503 6.93305C12.533 6.94405 12.567 6.94005 12.596 6.92405L12.657 6.82105L12.744 6.32905C12.773 6.17905 12.893 6.06405 13.044 6.04205L13.187 6.02105C13.399 5.99405 13.609 5.99205 13.815 6.01805L13.958 6.03605C14.114 6.05505 14.239 6.17405 14.266 6.32805L14.358 6.84605C14.364 6.87705 14.383 6.90505 14.412 6.92105C14.434 6.93405 14.463 6.93905 14.486 6.93405L15.001 6.75205C15.145 6.70205 15.303 6.74905 15.398 6.86905L15.487 6.98205C15.618 7.15305 15.723 7.33605 15.804 7.52905L15.858 7.66105C15.917 7.80405 15.877 7.96905 15.76 8.06905L15.356 8.41405C15.324 8.45805 15.297 8.51605 15.344 8.57405ZM11.307 12.4961C11.307 12.1961 11.437 11.9041 11.676 11.7021L12.073 11.3681C11.991 11.1811 11.888 11.0051 11.766 10.8411L11.276 11.0161L11.2734 11.017C11.2344 11.0304 11.0958 11.0781 10.918 11.0781C10.876 11.0781 10.047 11.0551 9.90105 10.2241L9.80705 9.71505C9.70505 9.70405 9.60205 9.69905 9.49905 9.69905C9.39605 9.69905 9.29305 9.70405 9.19105 9.71505L9.09805 10.2221C9.08805 10.2781 9.07405 10.3331 9.05505 10.3861C8.80605 11.0431 8.16405 11.0711 8.06305 11.0711C7.95005 11.0711 7.83605 11.0531 7.72605 11.0161L7.23605 10.8411C7.11505 11.0051 7.01205 11.1821 6.92905 11.3681L7.32505 11.7021C7.60205 11.9391 7.69405 12.2521 7.69405 12.4971C7.69405 12.7971 7.56405 13.0901 7.32405 13.2921L6.92905 13.6261C7.01105 13.8121 7.11405 13.9891 7.23505 14.1531L7.72805 13.9781C7.78005 13.9591 7.83405 13.9451 7.88805 13.9351C7.95605 13.9211 8.02605 13.9141 8.09505 13.9141C8.70605 13.9141 9.04205 14.3911 9.10205 14.7751L9.19105 15.2821C9.29305 15.2931 9.39605 15.2991 9.49905 15.2991C9.60205 15.2991 9.70505 15.2941 9.80705 15.2821L9.90005 14.7751C9.91105 14.7191 9.92505 14.6641 9.94405 14.6101C10.197 13.9531 10.84 13.9261 10.941 13.9261C11.055 13.9261 11.168 13.9441 11.278 13.9801L11.768 14.1541L11.766 14.1521C11.887 13.9881 11.989 13.8111 12.072 13.6251L11.675 13.2891C11.395 13.0461 11.307 12.7431 11.307 12.4961ZM14.831 9.06905H14.829C14.521 8.69705 14.581 8.31305 14.713 8.08505C14.758 8.00805 14.816 7.93805 14.884 7.87705L15.093 7.69905C15.061 7.63505 15.026 7.57405 14.986 7.51405L14.666 7.62505C14.422 7.67505 14.223 7.64105 14.054 7.54305C13.842 7.42105 13.697 7.21405 13.654 6.97505L13.609 6.71905C13.538 6.71305 13.466 6.71405 13.396 6.71905L13.277 7.19405C13.179 7.36805 13.075 7.47205 12.952 7.54305C12.742 7.66505 12.49 7.68705 12.263 7.60705L12.018 7.51905C11.999 7.54905 11.98 7.58005 11.962 7.61105C11.9502 7.6306 11.9398 7.65065 11.9295 7.67049L11.916 7.69605L11.909 7.71005L12.168 7.93605C12.478 8.30905 12.418 8.69105 12.286 8.91905C12.242 8.99505 12.185 9.06405 12.114 9.12705L11.906 9.30605C11.937 9.36805 11.973 9.42905 12.013 9.48805L12.334 9.37705C12.577 9.32805 12.777 9.36305 12.945 9.46005C13.154 9.58005 13.304 9.79405 13.345 10.0331L13.39 10.2851C13.46 10.2901 13.531 10.2891 13.604 10.2851L13.726 9.81005C13.817 9.64105 13.922 9.53505 14.05 9.46105C14.259 9.34005 14.51 9.31605 14.739 9.39705L14.982 9.48305C15.003 9.45205 15.023 9.42005 15.043 9.38505C15.059 9.35605 15.075 9.32605 15.09 9.29505L14.831 9.06905Z"/></svg>