<svg width="16" height="16" viewBox="0 0 16 16" fill="none" xmlns="http://www.w3.org/2000/svg">
<path fill-rule="evenodd" clip-rule="evenodd" d="M1.5 2H14.5L15 2.5V9H14V6H2V13H9V14H1.5L1 13.5V2.5L1.5 2ZM2 5H14V3H2V5ZM7 12V10.9062C6.83854 10.849 6.68229 10.7604 6.53125 10.6406L5.58594 11.1797L5.08594 10.3203L6.02344 9.77344C6.00781 9.6901 6 9.59896 6 9.5C6 9.40625 6.00781 9.3151 6.02344 9.22656L5.08594 8.67969L5.58594 7.82031L6.53125 8.35938C6.68229 8.23958 6.83854 8.15104 7 8.09375V7H8V8.09375C8.08854 8.125 8.16927 8.16146 8.24219 8.20312C8.3151 8.24479 8.39062 8.29688 8.46875 8.35938L9.41406 7.82031L9.91406 8.67969L8.97656 9.22656C8.99219 9.3151 9 9.40625 9 9.5C9 9.59896 8.99219 9.6901 8.97656 9.77344L9.91406 10.3203L9.41406 11.1797L8.46875 10.6406C8.39583 10.6979 8.32292 10.7474 8.25 10.7891C8.17708 10.8307 8.09375 10.8698 8 10.9062V12H7ZM6.75 9.5C6.75 9.70833 6.82292 9.88542 6.96875 10.0312C7.11458 10.1771 7.29167 10.25 7.5 10.25C7.70833 10.25 7.88542 10.1771 8.03125 10.0312C8.17708 9.88542 8.25 9.70833 8.25 9.5C8.25 9.29167 8.17708 9.11458 8.03125 8.96875C7.88542 8.82292 7.70833 8.75 7.5 8.75C7.29167 8.75 7.11458 8.82292 6.96875 8.96875C6.82292 9.11458 6.75 9.29167 6.75 9.5ZM12.0841 15V13.9062C11.9226 13.849 11.7664 13.7604 11.6153 13.6406L10.67 14.1797L10.17 13.3203L11.1075 12.7734C11.0919 12.6901 11.0841 12.599 11.0841 12.5C11.0841 12.4062 11.0919 12.3151 11.1075 12.2266L10.17 11.6797L10.67 10.8203L11.6153 11.3594C11.7664 11.2396 11.9226 11.151 12.0841 11.0938V10H13.0841V11.0938C13.1726 11.125 13.2533 11.1615 13.3263 11.2031C13.3992 11.2448 13.4747 11.2969 13.5528 11.3594L14.4981 10.8203L14.9981 11.6797L14.0606 12.2266C14.0763 12.3151 14.0841 12.4062 14.0841 12.5C14.0841 12.599 14.0763 12.6901 14.0606 12.7734L14.9981 13.3203L14.4981 14.1797L13.5528 13.6406C13.4799 13.6979 13.407 13.7474 13.3341 13.7891C13.2611 13.8307 13.1778 13.8698 13.0841 13.9062V15H12.0841ZM11.8341 12.5C11.8341 12.7083 11.907 12.8854 12.0528 13.0312C12.1986 13.1771 12.3757 13.25 12.5841 13.25C12.7924 13.25 12.9695 13.1771 13.1153 13.0312C13.2611 12.8854 13.3341 12.7083 13.3341 12.5C13.3341 12.2917 13.2611 12.1146 13.1153 11.9688C12.9695 11.8229 12.7924 11.75 12.5841 11.75C12.3757 11.75 12.1986 11.8229 12.0528 11.9688C11.907 12.1146 11.8341 12.2917 11.8341 12.5Z" fill="#C5C5C5"/>
</svg>
