<svg xmlns="http://www.w3.org/2000/svg" width="12" height="12" viewBox="0 0 12 12" fill="currentColor"><path d="M6 0C6.4599 0 6.88988 0.0496842 7.2998 0.139648C7.5698 0.199648 7.73969 0.470234 7.67969 0.740234C7.61957 1.01004 7.35994 1.18004 7.08008 1.12012C6.74008 1.04012 6.38 1 6 1C3.24 1 1 3.24 1 6C1 8.76 3.24 11 6 11C6.38 11 6.74008 10.9599 7.08008 10.8799C7.34995 10.82 7.61957 10.99 7.67969 11.2598C7.73969 11.5298 7.5698 11.8004 7.2998 11.8604C6.87989 11.9603 6.4599 12 6 12C2.69 12 0 9.31 0 6C0 2.69 2.69 0 6 0Z"/><path d="M10.1299 8.83008C10.2899 8.60008 10.6001 8.54996 10.8301 8.70996C11.0601 8.86997 11.1102 9.18016 10.9502 9.41016C10.5003 10.0499 9.9503 10.5996 9.31055 11.0195C9.23059 11.0795 9.13022 11.0996 9.03027 11.0996V11.0898C8.87038 11.0898 8.71037 11.0099 8.61035 10.8701C8.46035 10.6401 8.52 10.3297 8.75 10.1797C9.28992 9.81974 9.74992 9.36997 10.1299 8.83008Z"/><path d="M11.2998 4.39941C11.5698 4.34942 11.8296 4.51984 11.8896 4.7998C11.9696 5.20971 12.0097 5.61962 12.0098 6.01953C12.0098 6.49953 11.9498 6.96992 11.8398 7.41992C11.7798 7.64984 11.5796 7.7998 11.3496 7.7998V7.78027C11.3437 7.78026 11.269 7.77904 11.2305 7.76953C10.9605 7.69953 10.8004 7.42991 10.8604 7.16992C10.9504 6.79992 11 6.40977 11 6.00977C11 5.66994 10.9703 5.33006 10.9004 4.99023C10.8504 4.72026 11.0199 4.45945 11.2998 4.39941Z"/><path d="M8.62012 1.13965C8.77014 0.909837 9.07965 0.840132 9.30957 1C9.99947 1.45993 10.6096 2.06966 11.0596 2.76953C11.2095 2.9995 11.1401 3.30993 10.9102 3.45996C10.8302 3.50996 10.7296 3.54004 10.6396 3.54004L10.6299 3.5293C10.4699 3.5293 10.3 3.44976 10.21 3.2998C9.83998 2.71983 9.32974 2.21007 8.75977 1.83008C8.52977 1.68008 8.47012 1.36965 8.62012 1.13965Z"/></svg>