<svg width="24" height="25" viewBox="0 0 24 25" xmlns="http://www.w3.org/2000/svg" fill="currentColor"><path d="M23.206 15.5077L21.009 13.6427C20.95 13.5937 20.895 13.5377 20.848 13.4817C20.344 12.8877 20.417 11.9947 21.006 11.4957L23.187 9.67972C23.421 9.48372 23.515 9.16372 23.42 8.87272C22.904 7.28072 22.078 5.82472 20.962 4.54672C20.76 4.31372 20.435 4.23072 20.143 4.33472L17.439 5.30272C17.367 5.32872 17.293 5.34872 17.213 5.36272C16.438 5.51172 15.71 4.97972 15.574 4.23372L15.091 1.43772C15.038 1.13572 14.808 0.895719 14.508 0.831719C12.936 0.495719 11.31 0.482719 9.55198 0.789719C9.24298 0.843719 8.99998 1.08472 8.94298 1.39372L8.42598 4.22772C8.41298 4.30072 8.39498 4.37272 8.36698 4.44772C8.11098 5.16072 7.25098 5.54672 6.56998 5.30472L3.90998 4.32472C3.62298 4.21972 3.29898 4.29872 3.09398 4.52572C1.96998 5.76872 1.12098 7.21072 0.569983 8.81172C0.468983 9.10372 0.557983 9.42772 0.793983 9.62772L2.98798 11.4897C3.04798 11.5407 3.10398 11.5977 3.15198 11.6537C3.65598 12.2477 3.58298 13.1407 2.99498 13.6397L0.813983 15.4537C0.577983 15.6497 0.483983 15.9697 0.579983 16.2607C1.09398 17.8557 1.92198 19.3117 3.03898 20.5897C3.24298 20.8207 3.56498 20.9047 3.85598 20.8017L6.56198 19.8337C6.63698 19.8077 6.70998 19.7867 6.78298 19.7737C7.56398 19.6297 8.28898 20.1557 8.42498 20.9017L8.90698 23.6977C8.95998 23.9997 9.19098 24.2397 9.48998 24.3037C10.313 24.4777 11.157 24.5677 11.999 24.5677C12.786 24.5677 13.609 24.4927 14.447 24.3447C14.756 24.2907 14.998 24.0507 15.055 23.7407L15.574 20.9067C15.587 20.8337 15.605 20.7617 15.633 20.6867C15.888 19.9717 16.739 19.5827 17.43 19.8297L20.09 20.8097C20.382 20.9197 20.701 20.8377 20.906 20.6107C22.03 19.3667 22.879 17.9237 23.43 16.3217C23.531 16.0297 23.442 15.7067 23.206 15.5077ZM20.121 19.2237L17.944 18.4227C16.481 17.8937 14.745 18.7117 14.223 20.1747C14.172 20.3137 14.131 20.4677 14.098 20.6307L13.675 22.9497C12.494 23.1127 11.391 23.1077 10.297 22.9307L9.90298 20.6387C9.61698 19.0877 8.14798 18.0167 6.51498 18.2977C6.36398 18.3257 6.20898 18.3667 6.05498 18.4227L3.84298 19.2147C3.12998 18.3197 2.56998 17.3357 2.17198 16.2767L3.95898 14.7887C5.18198 13.7517 5.33398 11.9107 4.29198 10.6797C4.18498 10.5557 4.07398 10.4457 3.95698 10.3467L2.16398 8.82572C2.58398 7.76372 3.15898 6.78772 3.87898 5.91472L6.05698 6.71772C7.52498 7.24372 9.25598 6.42572 9.77598 4.96472C9.82698 4.82472 9.86798 4.67172 9.90098 4.50872L10.323 2.18972C11.517 2.02672 12.617 2.03272 13.701 2.20772L14.097 4.49972C14.384 6.05572 15.925 7.12172 17.482 6.84172C17.636 6.81372 17.784 6.77472 17.939 6.72072L20.157 5.92672C20.87 6.82072 21.43 7.80572 21.828 8.86272L20.041 10.3507C18.818 11.3887 18.666 13.2297 19.708 14.4607C19.816 14.5857 19.928 14.6977 20.043 14.7937L21.836 16.3157C21.416 17.3777 20.841 18.3547 20.121 19.2277V19.2237ZM12 8.06772C9.51898 8.06772 7.49998 10.0867 7.49998 12.5677C7.49998 15.0487 9.51898 17.0677 12 17.0677C14.481 17.0677 16.5 15.0487 16.5 12.5677C16.5 10.0867 14.481 8.06772 12 8.06772ZM12 15.5677C10.346 15.5677 8.99998 14.2217 8.99998 12.5677C8.99998 10.9137 10.346 9.56772 12 9.56772C13.654 9.56772 15 10.9127 15 12.5677C15 14.2227 13.654 15.5677 12 15.5677Z"/></svg>