<svg xmlns="http://www.w3.org/2000/svg" width="12" height="12" viewBox="0 0 12 12" fill="currentColor"><path d="M1.5 4H6.09C6.3 4.58 6.85 5 7.5 5C8.15 5 8.71 4.58 8.91 4H10.5C10.78 4 11 3.78 11 3.5C11 3.22 10.78 3 10.5 3H8.91C8.7 2.42 8.15 2 7.5 2C6.85 2 6.29 2.42 6.09 3H1.5C1.22 3 1 3.22 1 3.5C1 3.78 1.22 4 1.5 4ZM7.5 3C7.78 3 8 3.22 8 3.5C8 3.78 7.78 4 7.5 4C7.22 4 7 3.78 7 3.5C7 3.22 7.22 3 7.5 3ZM10.5 8H5.91C5.7 7.42 5.15 7 4.5 7C3.85 7 3.29 7.42 3.09 8H1.5C1.22 8 1 8.22 1 8.5C1 8.78 1.22 9 1.5 9H3.09C3.3 9.58 3.85 10 4.5 10C5.15 10 5.71 9.58 5.91 9H10.5C10.78 9 11 8.78 11 8.5C11 8.22 10.78 8 10.5 8ZM4.5 9C4.22 9 4 8.78 4 8.5C4 8.22 4.22 8 4.5 8C4.78 8 5 8.22 5 8.5C5 8.78 4.78 9 4.5 9Z"/></svg>