<svg width="24" height="24" viewBox="0 0 24 24" xmlns="http://www.w3.org/2000/svg" fill="currentColor"><path d="M12.0125 2.25006C12.7465 2.25852 13.4776 2.34332 14.194 2.5031C14.5067 2.57285 14.7406 2.83357 14.7761 3.15202L14.9463 4.67887C15.0234 5.37992 15.6153 5.9109 16.3209 5.91164C16.5106 5.91194 16.6982 5.87244 16.8735 5.79489L18.2741 5.17962C18.5654 5.05165 18.9058 5.12142 19.1232 5.35368C20.1354 6.4347 20.8892 7.73121 21.328 9.14564C21.4226 9.45064 21.3137 9.78209 21.0567 9.97156L19.8152 10.8867C19.461 11.1469 19.2519 11.5601 19.2519 11.9995C19.2519 12.439 19.461 12.8522 19.816 13.113L21.0585 14.0284C21.3157 14.2178 21.4246 14.5493 21.33 14.8544C20.8914 16.2685 20.138 17.565 19.1264 18.6462C18.9092 18.8784 18.5691 18.9483 18.2778 18.8207L16.8715 18.2046C16.4691 18.0285 16.0071 18.0543 15.6268 18.274C15.2466 18.4938 14.9936 18.8813 14.9453 19.3178L14.7762 20.8445C14.7413 21.1593 14.5125 21.4182 14.2043 21.4916C12.7559 21.8362 11.2468 21.8362 9.79834 21.4916C9.49021 21.4182 9.26135 21.1593 9.22649 20.8445L9.05767 19.32C9.00808 18.8843 8.75465 18.498 8.37473 18.279C7.99481 18.06 7.53351 18.0344 7.13251 18.2094L5.72588 18.8257C5.43453 18.9534 5.09434 18.8833 4.87709 18.651C3.86493 17.5685 3.1115 16.2706 2.67351 14.8549C2.57917 14.5499 2.68817 14.2187 2.94515 14.0294L4.18848 13.1134C4.54262 12.8532 4.75178 12.44 4.75178 12.0005C4.75178 11.5611 4.54262 11.1479 4.18802 10.8873L2.94547 9.97291C2.6881 9.78351 2.579 9.45184 2.67367 9.14664C3.11242 7.73221 3.86625 6.4357 4.87843 5.35468C5.0959 5.12242 5.43624 5.05265 5.72755 5.18062L7.12793 5.79579C7.53087 5.97262 7.99411 5.94591 8.37608 5.72275C8.7564 5.50215 9.00959 5.11428 9.05847 4.6777L9.22855 3.15202C9.26407 2.83341 9.49817 2.5726 9.81111 2.503C10.5284 2.34348 11.2603 2.25871 12.0125 2.25006ZM12.0127 3.74996C11.5586 3.75531 11.1059 3.79449 10.6581 3.86708L10.5492 4.84425C10.4474 5.75374 9.92034 6.56108 9.13072 7.01909C8.33628 7.48323 7.36767 7.53909 6.52489 7.16923L5.6266 6.77462C5.05467 7.46879 4.59945 8.25141 4.27883 9.09174L5.07662 9.67885C5.81543 10.2217 6.25178 11.0837 6.25178 12.0005C6.25178 12.9173 5.81543 13.7794 5.0774 14.3216L4.27835 14.9103C4.59869 15.7521 5.05398 16.5362 5.62631 17.2317L6.53144 16.8351C7.36953 16.4692 8.33155 16.5228 9.12383 16.9795C9.91612 17.4362 10.4446 18.2418 10.5483 19.1527L10.6573 20.1366C11.5469 20.2878 12.4558 20.2878 13.3454 20.1366L13.4544 19.1527C13.5552 18.2421 14.0831 17.4337 14.8763 16.9753C15.6695 16.5169 16.6335 16.4631 17.4731 16.8305L18.3775 17.2268C18.9493 16.5323 19.4044 15.7495 19.725 14.909L18.927 14.3212C18.1882 13.7784 17.7519 12.9163 17.7519 11.9995C17.7519 11.0827 18.1882 10.2207 18.9261 9.67853L19.723 9.09116C19.4024 8.25067 18.9471 7.4679 18.3751 6.77362L17.4786 7.16743C17.1133 7.32907 16.7181 7.41226 16.319 7.41164C14.8493 7.4101 13.6158 6.30361 13.4554 4.84389L13.3465 3.86676C12.901 3.79426 12.4529 3.75518 12.0127 3.74996ZM12 8.25001C14.0711 8.25001 15.75 9.92894 15.75 12C15.75 14.0711 14.0711 15.75 12 15.75C9.92893 15.75 8.25 14.0711 8.25 12C8.25 9.92894 9.92893 8.25001 12 8.25001ZM12 9.75001C10.7574 9.75001 9.75 10.7574 9.75 12C9.75 13.2427 10.7574 14.25 12 14.25C13.2426 14.25 14.25 13.2427 14.25 12C14.25 10.7574 13.2426 9.75001 12 9.75001Z"/></svg>