<svg width="16" height="16" viewBox="0 0 16 16" xmlns="http://www.w3.org/2000/svg" fill="currentColor"><path fill-rule="evenodd" clip-rule="evenodd" d="M10.0001 5C10.5524 5 11.0001 4.55228 11.0001 4C11.0001 3.44772 10.5524 3 10.0001 3C9.44784 3 9.00012 3.44772 9.00012 4C9.00012 4.55228 9.44784 5 10.0001 5ZM10.0001 6C11.1047 6 12.0001 5.10457 12.0001 4C12.0001 2.89543 11.1047 2 10.0001 2C8.89555 2 8.00012 2.89543 8.00012 4C8.00012 5.10457 8.89555 6 10.0001 6Z"/><path fill-rule="evenodd" clip-rule="evenodd" d="M9.00012 4.5H1.00012V3.5H9.00012V4.5Z"/><path fill-rule="evenodd" clip-rule="evenodd" d="M15.0001 4.5H11.0001V3.5H15.0001V4.5Z"/><path fill-rule="evenodd" clip-rule="evenodd" d="M15.0001 12.5H7.00012V11.5H15.0001V12.5Z"/><path fill-rule="evenodd" clip-rule="evenodd" d="M6.00016 13C6.55244 13 7.00016 12.5523 7.00016 12C7.00016 11.4477 6.55244 11 6.00016 11C5.44788 11 5.00016 11.4477 5.00016 12C5.00016 12.5523 5.44788 13 6.00016 13ZM6.00016 14C7.10473 14 8.00016 13.1046 8.00016 12C8.00016 10.8954 7.10473 10 6.00016 10C4.89559 10 4.00016 10.8954 4.00016 12C4.00016 13.1046 4.89559 14 6.00016 14Z"/><path fill-rule="evenodd" clip-rule="evenodd" d="M5.00016 12.5H1.00016V11.5H5.00016V12.5Z"/></svg>