<svg width="18" height="18" viewBox="0 0 18 18" xmlns="http://www.w3.org/2000/svg" fill="currentColor"><path d="M12.307 2.10533C12.1562 1.98809 11.9519 1.96694 11.7803 2.05085C11.6088 2.13475 11.5 2.30904 11.5 2.5V4.49274C11.4571 4.49456 11.4122 4.49701 11.3654 4.5002C10.9625 4.52766 10.4113 4.61105 9.82119 4.83704C9.11343 5.10809 8.34877 5.58508 7.72601 6.41126C7.10338 7.23727 6.64499 8.38259 6.50206 9.95474C6.48301 10.1644 6.5973 10.3635 6.78793 10.4528C6.97857 10.5421 7.20471 10.5024 7.35356 10.3536C8.54248 9.16464 9.72298 8.57773 10.5956 8.28685C10.9558 8.16679 11.2643 8.09693 11.5 8.0563V10C11.5 10.1969 11.6156 10.3755 11.7952 10.4561C11.9748 10.5368 12.185 10.5045 12.3322 10.3737L16.8322 6.37371C16.9432 6.27502 17.0046 6.13207 16.9997 5.98361C16.9949 5.83514 16.9242 5.69653 16.807 5.60533L12.307 2.10533ZM11.9429 5.49679L11.9457 5.49705C12.0865 5.51223 12.2279 5.46706 12.3335 5.37257C12.4394 5.27772 12.5 5.14223 12.5 5V3.52232L15.7186 6.02564L12.5 8.88658V7.5C12.5 7.22386 12.2762 7 12 7L11.9989 7L11.9976 7.00001L11.9943 7.00003L11.9848 7.00014L11.9552 7.00087C11.9307 7.00166 11.897 7.00316 11.8544 7.00599C11.7695 7.01166 11.6495 7.02268 11.4996 7.04409C11.1999 7.08691 10.7797 7.17139 10.2794 7.33816C9.55493 7.57965 8.66479 7.99299 7.7319 8.69863C7.9264 7.98158 8.2077 7.43355 8.52456 7.01319C9.01593 6.36132 9.61523 5.98675 10.1788 5.7709C10.6537 5.58903 11.1025 5.52044 11.4334 5.49788C11.5981 5.48666 11.7314 5.48699 11.8211 5.48988C11.866 5.49133 11.8997 5.49341 11.9209 5.49498L11.9429 5.49679ZM4.5 3C3.11929 3 2 4.11929 2 5.5V13.5C2 14.8807 3.11929 16 4.5 16H12.5C13.8807 16 15 14.8807 15 13.5V10.5C15 10.2239 14.7761 10 14.5 10C14.2239 10 14 10.2239 14 10.5V13.5C14 14.3284 13.3284 15 12.5 15H4.5C3.67157 15 3 14.3284 3 13.5V5.5C3 4.67157 3.67157 4 4.5 4H8.5C8.77614 4 9 3.77614 9 3.5C9 3.22386 8.77614 3 8.5 3H4.5Z"/></svg>