<svg width="16" height="16" viewBox="0 0 16 16" xmlns="http://www.w3.org/2000/svg" fill="currentColor"><path d="M11.307 1.10533C11.1562 0.988085 10.9519 0.966945 10.7803 1.05085C10.6088 1.13475 10.5 1.30904 10.5 1.5V3.49274C10.4571 3.49456 10.4122 3.49701 10.3654 3.5002C9.96247 3.52766 9.41128 3.61105 8.82119 3.83704C8.11343 4.10809 7.34877 4.58508 6.72601 5.41126C6.10338 6.23727 5.64499 7.38259 5.50206 8.95474C5.48301 9.16438 5.5973 9.36351 5.78793 9.4528C5.97857 9.54209 6.20471 9.50241 6.35356 9.35356C7.54248 8.16464 8.72298 7.57773 9.59562 7.28685C9.9558 7.16679 10.2643 7.09693 10.5 7.0563V9C10.5 9.1969 10.6156 9.37546 10.7952 9.45612C10.9748 9.53678 11.185 9.50452 11.3322 9.37371L15.8322 5.37371C15.9432 5.27502 16.0046 5.13207 15.9997 4.98361C15.9949 4.83514 15.9242 4.69653 15.807 4.60533L11.307 1.10533ZM10.9429 4.49679L10.9457 4.49705C11.0865 4.51223 11.2279 4.46706 11.3335 4.37257C11.4394 4.27772 11.5 4.14223 11.5 4V2.52232L14.7186 5.02564L11.5 7.88658V6.5C11.5 6.22386 11.2762 6 11 6L10.9989 6L10.9976 6.00001L10.9943 6.00003L10.9848 6.00014L10.9552 6.00087C10.9307 6.00166 10.897 6.00316 10.8544 6.00599C10.7695 6.01166 10.6495 6.02268 10.4996 6.04409C10.1999 6.08691 9.77971 6.17139 9.2794 6.33816C8.55493 6.57965 7.66479 6.99299 6.7319 7.69863C6.9264 6.98158 7.2077 6.43355 7.52456 6.01319C8.01593 5.36132 8.61523 4.98675 9.17883 4.7709C9.65371 4.58903 10.1025 4.52044 10.4334 4.49788C10.5981 4.48666 10.7314 4.48699 10.8211 4.48988C10.866 4.49133 10.8997 4.49341 10.9209 4.49498L10.9429 4.49679ZM3.5 2C2.11929 2 1 3.11929 1 4.5V12.5C1 13.8807 2.11929 15 3.5 15H11.5C12.8807 15 14 13.8807 14 12.5V9.5C14 9.22386 13.7761 9 13.5 9C13.2239 9 13 9.22386 13 9.5V12.5C13 13.3284 12.3284 14 11.5 14H3.5C2.67157 14 2 13.3284 2 12.5V4.5C2 3.67157 2.67157 3 3.5 3H7.5C7.77614 3 8 2.77614 8 2.5C8 2.22386 7.77614 2 7.5 2H3.5Z"/></svg>