<svg width="16" height="16" viewBox="0 0 16 16" fill="none" xmlns="http://www.w3.org/2000/svg">
<path fill-rule="evenodd" clip-rule="evenodd" d="M8.24606 14.7126C7.74206 14.416 7.24039 14.0983 6.74106 13.7596C6.23968 13.4201 5.7576 13.0528 5.29706 12.6596C4.83895 12.2651 4.4086 11.8394 4.00906 11.3856C3.60819 10.9309 3.25594 10.4356 2.95806 9.90765C2.65925 9.37372 2.4243 8.80649 2.25806 8.21765C2.08428 7.59356 1.99746 6.94847 2.00006 6.30065V3.10065L2.50006 2.60065C2.83306 2.60065 3.15606 2.58965 3.46906 2.56465C3.76596 2.54212 4.06098 2.49936 4.35206 2.43665C4.63614 2.37502 4.91447 2.28938 5.18406 2.18065C5.46823 2.0629 5.74131 1.91999 6.00006 1.75365C6.3672 1.51235 6.76554 1.32227 7.18406 1.18865C7.83329 1.00105 8.51483 0.952661 9.18406 1.04665C9.40001 1.07645 9.61309 1.12429 9.82106 1.18965C10.0272 1.2534 10.2278 1.33366 10.4211 1.42965C10.6196 1.52668 10.8129 1.63416 11.0001 1.75165C11.2606 1.91872 11.5358 2.06197 11.8221 2.17965C12.0912 2.28878 12.3692 2.37444 12.6531 2.43565C12.9445 2.49842 13.2398 2.54152 13.5371 2.56465C13.8481 2.58865 14.1711 2.59965 14.5041 2.59965L15.0041 3.09965V6.30065C15.0074 6.94871 14.9213 7.59414 14.7481 8.21865C14.5818 8.80748 14.3469 9.37472 14.0481 9.90865C13.7502 10.4363 13.3983 10.9317 12.9981 11.3866C12.5989 11.8392 12.1692 12.2638 11.7121 12.6576C11.2505 13.0513 10.767 13.4185 10.2641 13.7576C9.76206 14.097 9.25872 14.4153 8.75406 14.7126H8.24606ZM3.00006 3.59065V6.30065C2.99643 6.85648 3.07014 7.41012 3.21906 7.94565C3.36304 8.45917 3.56782 8.95367 3.82906 9.41865C4.09327 9.8857 4.40528 10.3241 4.76006 10.7266C5.12934 11.1441 5.52623 11.5363 5.94806 11.9006C6.3796 12.2687 6.83094 12.6129 7.30006 12.9316C7.70006 13.1983 8.10006 13.4543 8.50006 13.6996C8.90006 13.4576 9.30006 13.2016 9.70006 12.9316C10.1704 12.6133 10.6228 12.2691 11.0551 11.9006C11.476 11.5368 11.8722 11.1452 12.2411 10.7286C12.5952 10.3258 12.9069 9.88746 13.1711 9.42065C13.4323 8.95568 13.6371 8.46117 13.7811 7.94765C13.9302 7.41147 14.0039 6.85715 14.0001 6.30065V3.59065C13.8425 3.59065 13.6885 3.57904 13.5363 3.56756L13.4571 3.56165C13.1149 3.53467 12.7749 3.48557 12.4391 3.41465C12.0998 3.33989 11.7674 3.23721 11.4451 3.10765C11.1031 2.96863 10.7744 2.79894 10.4631 2.60065C10.3073 2.50244 10.1464 2.41265 9.98106 2.33165C9.83281 2.25857 9.67899 2.19738 9.52106 2.14865C9.3635 2.09869 9.20189 2.06256 9.03806 2.04065C8.51711 1.9643 7.98586 2.00045 7.48006 2.14665C7.14761 2.2546 6.83112 2.40662 6.53906 2.59865C6.22786 2.7989 5.89919 2.9706 5.55706 3.11165C5.23266 3.2411 4.89821 3.34377 4.55706 3.41865C4.22162 3.48952 3.88189 3.53829 3.54006 3.56465C3.36606 3.57465 3.18506 3.58465 3.00006 3.59065ZM9.06498 7.88995C9.61338 7.66682 9.99999 7.12856 9.99999 6.5C9.99999 5.67157 9.32842 5 8.49999 5C7.67157 5 6.99999 5.67157 6.99999 6.5C6.99999 7.12856 7.3866 7.66682 7.935 7.88995L7.49999 10.5H9.49999L9.06498 7.88995Z" fill="white"/>
</svg>
