<svg width="16" height="16" viewBox="0 0 16 16" xmlns="http://www.w3.org/2000/svg" fill="currentColor"><path d="M4.5 2C3.119 2 2 3.119 2 4.5V11.5C2 12.881 3.119 14 4.5 14H9.5C9.776 14 10 13.776 10 13.5C10 13.224 9.776 13 9.5 13H4.5C3.672 13 3 12.328 3 11.5V4.5C3 3.672 3.672 3 4.5 3H9.5C9.776 3 10 2.776 10 2.5C10 2.224 9.776 2 9.5 2H4.5Z"/><path d="M13.854 7.646L10.854 4.646C10.659 4.451 10.342 4.451 10.147 4.646C9.952 4.841 9.952 5.158 10.147 5.353L12.293 7.499H5.5C5.224 7.499 5 7.723 5 7.999C5 8.275 5.224 8.499 5.5 8.499H12.293L10.147 10.645C9.952 10.84 9.952 11.157 10.147 11.352C10.342 11.547 10.659 11.547 10.854 11.352L13.854 8.352C14.049 8.157 14.049 7.841 13.854 7.646Z"/></svg>