<svg width="16" height="16" viewBox="0 0 16 16" xmlns="http://www.w3.org/2000/svg" fill="currentColor"><path d="M9.5 2C9.77614 2 10 2.22386 10 2.5C10 2.77614 9.77614 3 9.5 3H4.5C3.67157 3 3 3.67157 3 4.5V11.5C3 12.3284 3.67157 13 4.5 13H9.5C9.77614 13 10 13.2239 10 13.5C10 13.7761 9.77614 14 9.5 14H4.5C3.11929 14 2 12.8807 2 11.5V4.5C2 3.11929 3.11929 2 4.5 2H9.5ZM6.14645 7.64645L9.14645 4.64645C9.34171 4.45118 9.65829 4.45118 9.85355 4.64645C10.0488 4.84171 10.0488 5.15829 9.85355 5.35355L7.70711 7.5H14.5C14.7761 7.5 15 7.72386 15 8C15 8.27614 14.7761 8.5 14.5 8.5H7.70711L9.85355 10.6464C10.0488 10.8417 10.0488 11.1583 9.85355 11.3536C9.65829 11.5488 9.34171 11.5488 9.14645 11.3536L6.14645 8.35355C5.95118 8.15829 5.95118 7.84171 6.14645 7.64645Z"/></svg>