<svg width="16" height="16" viewBox="0 0 16 16" xmlns="http://www.w3.org/2000/svg" fill="currentColor"><path d="M10 13.5C10 13.776 9.776 14 9.5 14H4.5C3.119 14 2 12.881 2 11.5V3.5C2 2.119 3.119 1 4.5 1H9.5C9.776 1 10 1.224 10 1.5C10 1.776 9.776 2 9.5 2H4.5C3.672 2 3 2.672 3 3.5V11.5C3 12.328 3.672 13 4.5 13H9.5C9.776 13 10 13.224 10 13.5ZM14.5 6.999H7.707L9.853 4.853C10.048 4.658 10.048 4.341 9.853 4.146C9.658 3.951 9.341 3.951 9.146 4.146L6.146 7.146C5.951 7.341 5.951 7.657 6.146 7.852L9.146 10.852C9.341 11.047 9.658 11.047 9.853 10.852C10.048 10.657 10.048 10.34 9.853 10.145L7.707 7.999H14.5C14.776 7.999 15 7.775 15 7.499C15 7.223 14.776 6.999 14.5 6.999Z"/></svg>