<svg width="24" height="25" viewBox="0 0 24 25" xmlns="http://www.w3.org/2000/svg" fill="currentColor"><path d="M10.5 5.06775C10.5 2.58275 8.485 0.567749 6 0.567749C3.515 0.567749 1.5 2.58275 1.5 5.06775C1.5 7.29775 3.122 9.14875 5.25 9.50575V15.6297C3.122 15.9867 1.5 17.8377 1.5 20.0677C1.5 22.5527 3.515 24.5677 6 24.5677C8.485 24.5677 10.5 22.5527 10.5 20.0677C10.5 17.8377 8.878 15.9867 6.75 15.6297V14.0677H15C17.071 14.0677 18.75 12.3887 18.75 10.3177V9.50575C20.878 9.14875 22.5 7.29775 22.5 5.06775C22.5 2.58275 20.485 0.567749 18 0.567749C15.515 0.567749 13.5 2.58275 13.5 5.06775C13.5 7.29775 15.122 9.14875 17.25 9.50575V10.3177C17.25 11.5607 16.243 12.5677 15 12.5677H6.75V9.50575C8.878 9.14875 10.5 7.29775 10.5 5.06775ZM6 8.06775C4.343 8.06775 3 6.72475 3 5.06775C3 3.41075 4.343 2.06775 6 2.06775C7.657 2.06775 9 3.41075 9 5.06775C9 6.72475 7.657 8.06775 6 8.06775ZM6 23.0677C4.343 23.0677 3 21.7247 3 20.0677C3 18.4107 4.343 17.0677 6 17.0677C7.657 17.0677 9 18.4107 9 20.0677C9 21.7247 7.657 23.0677 6 23.0677ZM21 5.06775C21 6.72475 19.657 8.06775 18 8.06775C16.343 8.06775 15 6.72475 15 5.06775C15 3.41075 16.343 2.06775 18 2.06775C19.657 2.06775 21 3.41075 21 5.06775Z"/></svg>