<svg width="18" height="18" viewBox="0 0 18 18" fill="none" xmlns="http://www.w3.org/2000/svg"><path d="M14 6.5C14 5.121 12.879 4 11.5 4C10.121 4 9 5.121 9 6.5C9 7.682 9.826 8.669 10.93 8.928C10.744 9.546 10.177 10 9.5 10H6.5C5.935 10 5.419 10.195 5 10.512V5.949C6.14 5.717 7 4.707 7 3.5C7 2.121 5.879 1 4.5 1C3.121 1 2 2.121 2 3.5C2 4.708 2.86 5.717 4 5.949V12.05C2.86 12.282 2 13.292 2 14.499C2 15.878 3.121 16.999 4.5 16.999C5.879 16.999 7 15.878 7 14.499C7 13.317 6.174 12.33 5.07 12.071C5.256 11.453 5.823 10.999 6.5 10.999H9.5C10.723 10.999 11.74 10.115 11.954 8.953C13.116 8.738 14 7.723 14 6.5ZM3 3.5C3 2.673 3.673 2 4.5 2C5.327 2 6 2.673 6 3.5C6 4.327 5.327 5 4.5 5C3.673 5 3 4.327 3 3.5ZM6 14.5C6 15.327 5.327 16 4.5 16C3.673 16 3 15.327 3 14.5C3 13.673 3.673 13 4.5 13C5.327 13 6 13.673 6 14.5ZM11.5 8C10.673 8 10 7.327 10 6.5C10 5.673 10.673 5 11.5 5C12.327 5 13 5.673 13 6.5C13 7.327 12.327 8 11.5 8Z" fill="currentColor"/></svg>