<svg xmlns="http://www.w3.org/2000/svg" width="12" height="12" viewBox="0 0 12 12" fill="currentColor"><path d="M3.468 7.82988C3.624 7.94088 3.811 7.99988 4.002 7.99988C4.194 7.99988 4.382 7.94088 4.538 7.82988C4.695 7.71388 4.813 7.55388 4.879 7.37088L5.22601 6.30388C5.31001 6.05188 5.452 5.82388 5.639 5.63588C5.826 5.44888 6.053 5.30788 6.304 5.22488L7.39 4.87188C7.569 4.80788 7.724 4.68988 7.834 4.53488C7.944 4.37988 8.003 4.19388 8.003 4.00388C8.003 3.81388 7.944 3.62788 7.834 3.47288C7.715 3.30788 7.547 3.18488 7.353 3.12288L6.284 2.77688C6.032 2.69388 5.804 2.55288 5.616 2.36588C5.428 2.17888 5.287 1.94988 5.204 1.69888L4.85101 0.614883C4.788 0.435883 4.67 0.280883 4.515 0.170883C4.358 0.0628828 4.172 0.00488281 3.981 0.00488281C3.79 0.00488281 3.604 0.0628828 3.447 0.170883C3.287 0.282883 3.167 0.443883 3.105 0.628883L2.75 1.71888C2.666 1.96288 2.528 2.18488 2.347 2.36788C2.165 2.55088 1.945 2.69088 1.701 2.77688L0.617004 3.12788C0.436004 3.19188 0.279002 3.31088 0.169002 3.46788C0.0590022 3.62488 2.34949e-06 3.81288 0.00200235 4.00488C0.00300235 4.19688 0.0650016 4.38388 0.177002 4.53888C0.290002 4.69488 0.448005 4.81088 0.630005 4.87188L1.697 5.21888C1.949 5.30288 2.178 5.44588 2.366 5.63388C2.417 5.68388 2.464 5.73788 2.508 5.79388C2.626 5.94688 2.718 6.11788 2.778 6.30188L3.13 7.38188C3.193 7.56288 3.312 7.71888 3.468 7.82988ZM2.01 4.26488L1.155 3.99988L2.019 3.71888C2.413 3.58188 2.771 3.35688 3.064 3.05988C3.355 2.76088 3.575 2.39988 3.708 2.00388L3.973 1.14488L4.253 2.00688C4.386 2.40688 4.611 2.76988 4.909 3.06788C5.207 3.36588 5.571 3.58988 5.971 3.72188L6.85101 3.99088L5.99001 4.27088C5.59 4.40288 5.226 4.62688 4.928 4.92588C4.63 5.22388 4.406 5.58788 4.273 5.98788L4.008 6.84488L3.729 5.98588C3.633 5.69388 3.487 5.41988 3.299 5.17688C3.23 5.08788 3.155 5.00288 3.076 4.92288C2.776 4.62388 2.411 4.39888 2.01 4.26488ZM8.53701 11.8519C8.67301 11.9479 8.835 11.9999 9.002 11.9999C9.167 11.9989 9.327 11.9459 9.461 11.8499C9.601 11.7509 9.70601 11.6119 9.76101 11.4499L10.009 10.6879C10.062 10.5299 10.151 10.3849 10.269 10.2669C10.386 10.1489 10.53 10.0599 10.689 10.0079L11.461 9.75588C11.619 9.70088 11.755 9.59888 11.852 9.46288C11.925 9.35988 11.973 9.24088 11.992 9.11588C12.01 8.99088 11.999 8.86288 11.959 8.74288C11.919 8.62288 11.85 8.51488 11.76 8.42588C11.67 8.33788 11.559 8.27188 11.439 8.23388L10.675 7.98488C10.517 7.93188 10.373 7.84388 10.255 7.72588C10.137 7.60788 10.048 7.46488 9.99501 7.30688L9.743 6.53288C9.689 6.37588 9.586 6.23988 9.45 6.14388C9.348 6.07088 9.23001 6.02288 9.10601 6.00388C8.98201 5.98488 8.855 5.99488 8.736 6.03388C8.617 6.07288 8.508 6.13888 8.42 6.22788C8.331 6.31688 8.264 6.42488 8.225 6.54388L7.978 7.30588C7.926 7.46388 7.838 7.60688 7.722 7.72588C7.607 7.84188 7.468 7.93088 7.314 7.98488L6.538 8.23788C6.421 8.27888 6.314 8.34688 6.227 8.43588C6.14 8.52488 6.075 8.63288 6.038 8.75188C6 8.87088 5.991 8.99588 6.01 9.11888C6.029 9.24188 6.077 9.35788 6.149 9.45988C6.247 9.59988 6.387 9.70488 6.549 9.75988L7.312 10.0069C7.471 10.0599 7.615 10.1499 7.734 10.2679C7.852 10.3859 7.941 10.5309 7.992 10.6899L8.24501 11.4639C8.30001 11.6199 8.40201 11.7559 8.53701 11.8519ZM7.623 9.05888L7.445 8.99988L7.629 8.93588C7.93101 8.83088 8.204 8.65788 8.429 8.43088C8.655 8.20188 8.826 7.92388 8.929 7.61888L8.987 7.44088L9.046 7.62188C9.148 7.92888 9.32001 8.20688 9.54901 8.43588C9.77801 8.66388 10.057 8.83588 10.363 8.93788L10.558 9.00088L10.378 9.05988C10.071 9.16188 9.79101 9.33488 9.56301 9.56388C9.33401 9.79288 9.163 10.0729 9.061 10.3809L9.002 10.5619L8.944 10.3809C8.843 10.0729 8.67001 9.79188 8.44101 9.56288C8.21201 9.33388 7.931 9.16088 7.623 9.05888Z"/></svg>