<svg width="16" height="16" viewBox="0 0 16 16" xmlns="http://www.w3.org/2000/svg" fill="currentColor"><path d="M4.24025 5.00046C4.37271 5.00052 4.50007 5.05233 4.59377 5.14597C4.68753 5.23974 4.74025 5.36785 4.74025 5.50046C4.74012 5.63289 4.68742 5.76032 4.59377 5.85397C4.50007 5.94761 4.37271 6.0004 4.24025 6.00046C4.10781 6.00046 3.98047 5.94752 3.88673 5.85397C3.79308 5.76032 3.74038 5.63289 3.74025 5.50046C3.74025 5.36785 3.79297 5.23974 3.88673 5.14597C3.98047 5.05243 4.10781 5.00046 4.24025 5.00046Z"/><path fill-rule="evenodd" clip-rule="evenodd" d="M5.55763 1.51999C5.94379 1.52786 6.31169 1.68754 6.58107 1.96433C6.85046 2.2412 6.99979 2.61319 6.99709 2.99948V3.15964C7.23591 3.38349 7.44974 3.63278 7.63283 3.90476C7.78878 3.39944 8.05569 2.93515 8.4131 2.54538C8.86112 2.07939 9.44541 1.7678 10.082 1.65573C10.9814 1.48284 11.9129 1.62366 12.7207 2.05515C13.3495 2.45626 13.8811 2.99339 14.2754 3.62644C14.6696 4.25929 15.0057 4.99537 15 5.71335C15.0004 5.94257 14.9513 6.16971 14.8565 6.37839C14.7616 6.58702 14.6231 6.77291 14.4502 6.92331C14.2703 7.07969 14.0572 7.193 13.8272 7.25534C13.597 7.31765 13.3554 7.32695 13.1211 7.28269C12.8714 7.23198 12.6314 7.14117 12.4111 7.01315C12.1443 6.89458 11.9602 6.92266 11.9561 6.92331C11.9561 6.92331 11.7218 6.94337 11.5918 7.32272C11.4619 7.70257 11.7118 8.06299 12.1416 8.61276L12.251 8.75241C12.7117 9.35393 12.974 10.0841 13.001 10.8413C13.0596 11.382 12.9996 11.9293 12.8262 12.4448C12.6528 12.9603 12.3696 13.4323 11.9961 13.8276C11.6227 14.2229 11.1678 14.5324 10.6631 14.7348C10.1583 14.9372 9.61542 15.0272 9.07228 14.9995H2.39552C2.33752 14.9959 2.28022 14.9811 2.22853 14.9546C2.17694 14.928 2.13133 14.8902 2.09474 14.8452C2.05827 14.8002 2.03101 14.7477 2.01564 14.6919C2.00034 14.636 1.99749 14.5773 2.00588 14.52C2.00388 13.9084 2.22104 13.3162 2.61916 12.852C3.01737 12.3877 3.56999 12.0828 4.17482 11.9917H4.49416C4.55366 11.6397 4.67602 11.3008 4.85451 10.9917H2.79494C2.54302 11.0928 2.27672 11.1533 2.00588 11.1714C1.75246 11.172 1.50785 11.0764 1.32228 10.9038C1.13675 10.7312 1.02361 10.4944 1.00588 10.2417C1.00302 10.2168 0.792127 8.31043 3.19533 7.99265C3.23541 7.99122 1.51426 7.73024 1.00588 6.80319V6.41355C1.16683 5.61302 1.52534 4.86538 2.04884 4.23874C2.57135 3.61348 3.24183 3.12747 3.99904 2.82663V1.51999C4.19363 1.5187 4.38638 1.5565 4.56642 1.63034C4.74653 1.70423 4.9102 1.81302 5.04787 1.95065C5.18556 2.08835 5.29525 2.25194 5.36916 2.4321C5.39568 2.49676 5.41465 2.56385 5.43166 2.63132C5.47372 2.63393 5.51568 2.63801 5.55763 2.64206V1.51999ZM12.3311 2.9946C11.7681 2.67288 11.1059 2.57043 10.4717 2.70554C9.97978 2.78215 9.52502 3.01281 9.17287 3.36472C8.86635 3.68986 8.63567 4.0799 8.49904 4.50534C8.36254 4.93107 8.32295 5.95137 8.38283 6.39401C8.38283 6.37717 8.38283 6.37992 8.38283 6.46335H8.21291L8.15334 6.37351C8.15334 6.37351 6.93342 4.32473 6.00392 3.90476C5.62782 3.7349 5.45426 3.7459 5.14455 3.73483C4.40218 3.77242 3.69218 4.0532 3.12502 4.53366C2.55799 5.01411 2.16497 5.66803 2.00588 6.39401C2.3775 6.75671 2.82766 7.02877 3.32131 7.18991C3.81528 7.35111 4.34017 7.39657 4.85451 7.32272L4.57423 8.45261C4.57423 8.45261 4.49444 8.99244 4.0049 8.99265H3.0049C2.10587 8.99275 1.79588 9.98101 1.99513 10.1118C2.19505 10.2417 2.43538 10.0122 2.65529 10.0122H5.86427C5.97865 9.93187 6.2062 9.84695 6.4424 9.77976L7.06838 10.6675C6.8661 10.6827 6.66751 10.731 6.48146 10.813C6.26639 10.9077 6.07261 11.0445 5.91017 11.2143C5.74775 11.3842 5.62022 11.5841 5.53517 11.8032C5.45016 12.0222 5.40881 12.2558 5.41408 12.4907V12.9907H4.13478C3.88377 13.0108 3.64903 13.1247 3.47853 13.31C3.30804 13.4953 3.21405 13.7389 3.21486 13.9907H9.07228C9.3893 13.9835 9.70189 13.9229 10 13.8178C11.0798 13.1971 10.9714 12.1212 10.8604 11.3813L11.2295 11.0122C11.448 11.3311 11.5972 11.6939 11.6641 12.0776C11.678 12.1574 11.6867 12.2376 11.6934 12.3178C11.7357 12.2319 11.7746 12.1441 11.8086 12.0542C11.9489 11.6834 12.0143 11.2882 12.001 10.8921C11.9767 10.3382 11.7775 9.80585 11.4317 9.37253L11.3213 9.2319C11.0269 8.9483 10.8125 8.59177 10.7002 8.1987C10.588 7.80566 10.5815 7.38992 10.6817 6.99362C10.741 6.76128 10.8583 6.54729 11.0225 6.37253C11.1867 6.1978 11.3929 6.06727 11.6211 5.99362C11.8087 5.92885 12.0089 5.90668 12.2061 5.92917C12.4031 5.95166 12.5926 6.01826 12.7608 6.12351C12.9005 6.2064 13.0526 6.26686 13.211 6.30319C13.4323 6.35393 13.7531 6.25844 13.8799 6.12351C14.0623 5.92932 14.0003 5.59823 14.0059 5.49558C13.9466 4.95778 13.76 4.57881 13.4707 4.12155C13.1815 3.66428 12.7916 3.2786 12.3311 2.9946Z"/></svg>