<svg width="18" height="18" viewBox="0 0 18 18" xmlns="http://www.w3.org/2000/svg" fill="currentColor"><path d="M16.264 7.27501C16.149 6.92301 15.862 6.68101 15.494 6.62701L11.598 6.06101L9.85602 2.53001C9.52602 1.86501 8.47502 1.86401 8.14502 2.53001L6.40302 6.06001L2.50602 6.62601C2.14002 6.68001 1.85302 6.92201 1.73502 7.28001C1.62502 7.63301 1.71502 7.99701 1.97902 8.25301L4.79702 11.001L4.13102 14.881C4.08302 15.165 4.15702 15.439 4.33902 15.654C4.62702 15.993 5.12202 16.094 5.51602 15.886L9.00002 14.054L12.483 15.886C12.624 15.961 12.773 15.998 12.927 15.998C13.207 15.998 13.475 15.873 13.659 15.654C13.842 15.439 13.916 15.164 13.868 14.88L13.202 11L16.021 8.25201C16.284 7.99601 16.375 7.63201 16.262 7.27301L16.264 7.27501ZM12.317 10.47C12.199 10.585 12.145 10.75 12.172 10.912L12.891 14.972L9.23202 13.048C9.16002 13.009 9.08002 12.99 9.00002 12.99V3.05701L10.817 6.73901C10.889 6.88601 11.031 6.98901 11.193 7.01201L15.324 7.53801L12.317 10.469V10.47Z"/></svg>