<svg width="18" height="18" viewBox="0 0 18 18" xmlns="http://www.w3.org/2000/svg" fill="currentColor"><path d="M16.022 8.25497L13.203 11.003L13.869 14.883C13.917 15.165 13.844 15.438 13.664 15.654C13.479 15.872 13.205 16.001 12.929 16.001C12.775 16.001 12.626 15.963 12.485 15.89L9.00101 14.057L5.51701 15.889C5.13401 16.093 4.62401 15.991 4.34001 15.657C4.15801 15.439 4.08501 15.165 4.13201 14.884L4.79801 11.004L1.97901 8.25597C1.71401 7.99797 1.62401 7.63297 1.73701 7.27997C1.85301 6.92497 2.14001 6.68197 2.50701 6.62797L6.40301 6.06197L8.14501 2.53197C8.47301 1.86597 9.52801 1.86597 9.85601 2.53197L11.598 6.06197L15.494 6.62797C15.862 6.68197 16.149 6.92397 16.264 7.27597C16.378 7.63197 16.286 7.99697 16.022 8.25497Z"/></svg>