<svg width="18" height="18" viewBox="0 0 18 18" xmlns="http://www.w3.org/2000/svg" fill="currentColor"><path d="M12.928 16C12.774 16 12.625 15.962 12.484 15.889L9 14.056L5.516 15.888C5.132 16.092 4.623 15.99 4.339 15.656C4.157 15.438 4.084 15.164 4.131 14.883L4.797 11.003L1.978 8.25499C1.713 7.99699 1.623 7.63199 1.736 7.27899C1.852 6.92399 2.139 6.68099 2.506 6.62699L6.402 6.06099L8.144 2.53099C8.472 1.86499 9.527 1.86499 9.855 2.53099L11.597 6.06099L15.493 6.62699C15.861 6.68099 16.148 6.92299 16.263 7.27499C16.377 7.63099 16.286 7.99599 16.022 8.25399L13.203 11.002L13.869 14.882C13.917 15.164 13.844 15.437 13.664 15.653C13.479 15.871 13.204 16 12.928 16ZM8.959 2.97399L7.066 6.97499L2.65 7.61599L5.871 10.653L5.117 15.05L9 12.925L12.892 14.972L12.129 10.653L15.324 7.53799L10.934 6.97499L8.959 2.97399Z"/></svg>