<svg width="16" height="16" viewBox="0 0 16 16" xmlns="http://www.w3.org/2000/svg" fill="currentColor"><path d="M15.022 7.25497L12.203 10.003L12.869 13.883C12.917 14.165 12.844 14.438 12.664 14.654C12.479 14.872 12.205 15.001 11.929 15.001C11.775 15.001 11.626 14.963 11.485 14.89L8.00101 13.057L4.51701 14.889C4.13401 15.093 3.62401 14.991 3.34001 14.657C3.15801 14.439 3.08501 14.165 3.13201 13.884L3.79801 10.004L0.979007 7.25597C0.714007 6.99797 0.624007 6.63297 0.737007 6.27997C0.853007 5.92497 1.14001 5.68197 1.50701 5.62797L5.40301 5.06197L7.14501 1.53197C7.47301 0.865971 8.52801 0.865971 8.85601 1.53197L10.598 5.06197L14.494 5.62797C14.862 5.68197 15.149 5.92397 15.264 6.27597C15.378 6.63197 15.286 6.99697 15.022 7.25497Z"/></svg>