<svg width="16" height="16" viewBox="0 0 16 16" xmlns="http://www.w3.org/2000/svg" fill="currentColor"><path d="M11.928 15C11.774 15 11.625 14.962 11.484 14.889L8 13.056L4.516 14.888C4.132 15.092 3.623 14.99 3.339 14.656C3.157 14.438 3.084 14.164 3.131 13.883L3.797 10.003L0.978 7.25499C0.713 6.99699 0.623 6.63199 0.736 6.27899C0.852 5.92399 1.139 5.68099 1.506 5.62699L5.402 5.06099L7.144 1.53099C7.472 0.864994 8.527 0.864994 8.855 1.53099L10.597 5.06099L14.493 5.62699C14.861 5.68099 15.148 5.92299 15.263 6.27499C15.377 6.63099 15.286 6.99599 15.022 7.25399L12.203 10.002L12.869 13.882C12.917 14.164 12.844 14.437 12.664 14.653C12.479 14.871 12.204 15 11.928 15ZM7.959 1.97399L6.066 5.97499L1.65 6.61599L4.871 9.65299L4.117 14.05L8 11.925L11.892 13.972L11.129 9.65299L14.324 6.53799L9.934 5.97499L7.959 1.97399Z"/></svg>