<svg width="18" height="18" viewBox="0 0 18 18" xmlns="http://www.w3.org/2000/svg" fill="currentColor"><path d="M6 6.1C6 5.5456 6.29153 5.03507 6.83988 4.6449C7.39218 4.25191 8.18666 4 9.1 4C10.3979 4 11.4839 4.56064 11.8629 5.24282C11.997 5.48421 12.3014 5.57119 12.5428 5.43708C12.7842 5.30297 12.8712 4.99857 12.7371 4.75718C12.1161 3.63936 10.6021 3 9.1 3C8.01334 3 7.00782 3.29809 6.26012 3.8301C5.50847 4.36493 5 5.1544 5 6.1C5 6.8196 5.30015 7.47451 5.78915 8H7.51156C6.55248 7.59331 6 6.83014 6 6.1ZM14.5 9C14.7761 9 15 9.22386 15 9.5C15 9.77614 14.7761 10 14.5 10H12.1582C12.6751 10.5041 13 11.1489 13 11.9C13 12.8018 12.4854 13.5876 11.745 14.1287C11.0019 14.6717 9.99641 15 8.9 15C7.27633 15 5.89849 14.3491 5.18397 13.2774C5.0308 13.0476 5.09289 12.7372 5.32265 12.584C5.55241 12.4308 5.86285 12.4929 6.01603 12.7226C6.50151 13.4509 7.52367 14 8.9 14C9.80359 14 10.5981 13.7283 11.155 13.3213C11.7146 12.9124 12 12.3982 12 11.9C12 11.1248 11.3695 10.3745 10.2227 10H3.5C3.22386 10 3 9.77614 3 9.5C3 9.22386 3.22386 9 3.5 9H14.5Z"/></svg>