<svg width="16" height="16" viewBox="0 0 16 16" xmlns="http://www.w3.org/2000/svg" fill="currentColor"><path d="M6.99989 5C6.99989 2.79086 8.79075 1 10.9999 1C11.5087 1 11.9964 1.09524 12.4454 1.26931C12.603 1.3304 12.719 1.46698 12.7539 1.63235C12.7888 1.79773 12.7377 1.96953 12.6182 2.08904L10.7072 4.00012L12.0001 5.29302L13.911 3.38207C14.0305 3.26254 14.2023 3.2115 14.3677 3.24637C14.5331 3.28125 14.6697 3.39732 14.7307 3.55493C14.9047 4.0038 14.9999 4.49138 14.9999 5C14.9999 7.20914 13.209 9 10.9999 9C10.6198 9 10.2514 8.94684 9.90215 8.84736L4.89566 13.9192C4.18171 14.6425 3.03692 14.7101 2.24289 14.0757C1.32876 13.3455 1.24088 11.9872 2.05327 11.1453L7.10411 5.91061C7.03588 5.61771 6.99989 5.31279 6.99989 5ZM10.9999 2C9.34303 2 7.99989 3.34315 7.99989 5C7.99989 5.31548 8.04841 5.61868 8.13805 5.90305C8.19313 6.07781 8.14821 6.26869 8.02099 6.40054L2.7729 11.8396C2.3696 12.2576 2.41323 12.9319 2.86703 13.2944C3.26123 13.6093 3.82955 13.5758 4.18398 13.2167L9.40817 7.9243C9.54702 7.78364 9.75569 7.73797 9.9406 7.80777C10.2693 7.93186 10.6261 8 10.9999 8C12.6567 8 13.9999 6.65685 13.9999 5C13.9999 4.9056 13.9955 4.81228 13.987 4.72023L12.3537 6.35368C12.2599 6.44745 12.1327 6.50013 12.0001 6.50013C11.8675 6.50013 11.7403 6.44745 11.6466 6.35368L9.64655 4.35368C9.45129 4.15842 9.45129 3.84185 9.64655 3.64658L11.2802 2.01289C11.188 2.00436 11.0945 2 10.9999 2Z"/></svg>