<svg width="16" height="16" viewBox="0 0 16 16" xmlns="http://www.w3.org/2000/svg" fill="currentColor"><path fill-rule="evenodd" clip-rule="evenodd" d="M8.00098 5.5C7.63498 5.5 7.29598 5.619 7.00098 5.813V4.5C7.00098 4.224 6.77698 4 6.50098 4C6.22498 4 6.00098 4.224 6.00098 4.5V9.5C6.00098 9.776 6.22498 10 6.50098 10C6.71798 10 6.89798 9.86 6.96698 9.666C7.26998 9.873 7.62098 10 8.00098 10C9.10398 10 10.001 8.991 10.001 7.75C10.001 6.509 9.10398 5.5 8.00098 5.5ZM8.00098 9C7.44898 9 7.00098 8.439 7.00098 7.75C7.00098 7.061 7.44898 6.5 8.00098 6.5C8.55298 6.5 9.00098 7.061 9.00098 7.75C9.00098 8.439 8.55298 9 8.00098 9Z"/><path d="M12.749 10C11.646 10 10.749 8.991 10.749 7.75C10.749 6.509 11.646 5.5 12.749 5.5C12.892 5.5 14.001 5.605 14.001 6.236C14.001 6.511 13.777 6.736 13.5 6.736C13.3671 6.736 13.2817 6.68604 13.1896 6.6321C13.0814 6.5688 12.9639 6.5 12.749 6.5C12.197 6.5 11.749 7.061 11.749 7.75C11.749 8.439 12.197 9 12.749 9C12.9613 9 13.0789 8.93181 13.1874 8.8689C13.2804 8.81502 13.3667 8.765 13.5 8.765C13.779 8.765 14.001 8.992 14.001 9.264C14.001 9.897 12.887 10 12.749 10Z"/><path fill-rule="evenodd" clip-rule="evenodd" d="M1.89798 5.646C1.99098 5.553 2.36398 5.25 3.25198 5.25C4.12198 5.25 5.00098 5.765 5.00098 6.75V9.5C5.00098 9.776 4.77698 10 4.50098 10C4.36198 10 4.23698 9.943 4.14598 9.851C3.91198 9.937 3.62298 10 3.25098 10C1.93798 10 1.25098 9.246 1.25098 8.5C1.25098 7.754 1.93798 7 3.25098 7C3.55298 7 3.79698 7.023 4.00098 7.056V6.75C4.00098 6.256 3.28098 6.25 3.25098 6.25C2.78847 6.25 2.60167 6.36312 2.57928 6.37668L2.57698 6.378C2.38098 6.573 2.07798 6.561 1.88398 6.365C1.68898 6.17 1.70298 5.841 1.89798 5.646ZM3.25198 8C2.60298 8 2.25198 8.258 2.25198 8.5C2.25198 8.742 2.60298 9 3.25198 9C3.69898 9 3.90898 8.885 4.00198 8.811V8.074C3.85798 8.038 3.62398 8 3.25198 8Z"/></svg>