<svg width="18" height="18" viewBox="0 0 18 18" xmlns="http://www.w3.org/2000/svg" fill="currentColor"><path d="M16 4.5V8.5C16 8.9 15.85 9.28 15.56 9.56C15.28 9.84 14.9 10 14.5 10H12V9.5C12 9.33 11.98 9.16 11.95 9H14.5C14.63 9 14.76 8.95 14.85 8.85C14.95 8.76 15 8.63 15 8.5V4.5C15 4.37 14.95 4.24 14.85 4.15C14.76 4.05 14.63 4 14.5 4H8.5C8.37 4 8.24 4.05 8.15 4.15C8.05 4.24 8 4.37 8 4.5V7H7V4.5C7 4.1 7.16 3.72 7.44 3.44C7.72 3.16 8.1 3 8.5 3H14.5C14.9 3 15.28 3.16 15.56 3.44C15.84 3.72 16 4.1 16 4.5ZM13.5 6C13.776 6 14 5.776 14 5.5C14 5.224 13.776 5 13.5 5H9.5C9.224 5 9 5.224 9 5.5C9 5.776 9.224 6 9.5 6H13.5ZM14 7.5C14 7.22 13.78 7 13.5 7H9.5C10.32 7 11.04 7.39 11.5 8H13.5C13.78 8 14 7.78 14 7.5ZM8.5 11H4.5C4.224 11 4 11.224 4 11.5C4 11.776 4.224 12 4.5 12H8.5C8.776 12 9 11.776 9 11.5C9 11.224 8.776 11 8.5 11ZM11 9.5V13.5C11 14.327 10.327 15 9.5 15H3.5C2.673 15 2 14.327 2 13.5V9.5C2 8.673 2.673 8 3.5 8H9.5C10.327 8 11 8.673 11 9.5Z"/></svg>