<svg width="16" height="16" viewBox="0 0 16 16" xmlns="http://www.w3.org/2000/svg" fill="currentColor"><path fill-rule="evenodd" clip-rule="evenodd" d="M2 4C2 3.44772 2.44772 3 3 3H13C13.5523 3 14 3.44772 14 4V6C14 6.55228 13.5523 7 13 7H3C2.44772 7 2 6.55228 2 6V4ZM3 4H13V6H3L3 4Z"/><path fill-rule="evenodd" clip-rule="evenodd" d="M3 8C2.44772 8 2 8.44772 2 9V11C2 11.5523 2.44772 12 3 12H5C5.55228 12 6 11.5523 6 11V9C6 8.44772 5.55228 8 5 8H3ZM5 9H3V11H5V9Z"/><path fill-rule="evenodd" clip-rule="evenodd" d="M11 8C10.4477 8 10 8.44772 10 9V11C10 11.5523 10.4477 12 11 12H13C13.5523 12 14 11.5523 14 11V9C14 8.44772 13.5523 8 13 8H11ZM13 9H11V11H13V9Z"/></svg>