<svg width="16" height="16" viewBox="0 0 16 16" xmlns="http://www.w3.org/2000/svg" fill="currentColor"><path d="M11.279 5.78975L8.799 5.06575C8.59 5.00575 8.372 5.01475 8.168 5.08975L4.648 6.40975C4.26 6.55575 4 6.93175 4 7.34675V9.13975C4 9.57075 4.274 9.95175 4.684 10.0877L7.165 10.9147C7.268 10.9497 7.376 10.9667 7.483 10.9667C7.611 10.9667 7.739 10.9427 7.859 10.8937L11.376 9.46475C11.755 9.31175 12 8.94775 12 8.53875V6.74975C12 6.30775 11.703 5.91275 11.279 5.78975ZM11 8.53875L7.483 9.96775L5 9.13975V7.34675L8.521 6.02675L11 6.75075V8.53975V8.53875ZM7.48 7.46675L8.807 6.91375C9.06 6.80875 9.355 6.92775 9.461 7.18275C9.566 7.43775 9.446 7.73075 9.191 7.83675L7.999 8.33375V8.62575C7.999 8.90175 7.775 9.12575 7.499 9.12575C7.223 9.12575 6.999 8.90175 6.999 8.62575V8.36075L6.591 8.22475C6.329 8.13775 6.188 7.85475 6.275 7.59275C6.364 7.33075 6.647 7.19175 6.908 7.27675L7.48 7.46675Z"/><path d="M12.5 14H11.5C11.224 14 11 13.776 11 13.5C11 13.224 11.224 13 11.5 13H12.5C12.776 13 13 12.775 13 12.5V3.5C13 3.225 12.776 3 12.5 3H11.5C11.224 3 11 2.776 11 2.5C11 2.224 11.224 2 11.5 2H12.5C13.327 2 14 2.673 14 3.5V12.5C14 13.327 13.327 14 12.5 14ZM5 13.5C5 13.224 4.776 13 4.5 13H3.5C3.224 13 3 12.775 3 12.5V3.5C3 3.225 3.224 3 3.5 3H4.5C4.776 3 5 2.776 5 2.5C5 2.224 4.776 2 4.5 2H3.5C2.673 2 2 2.673 2 3.5V12.5C2 13.327 2.673 14 3.5 14H4.5C4.776 14 5 13.776 5 13.5Z"/></svg>