<svg width="16" height="16" viewBox="0 0 16 16" xmlns="http://www.w3.org/2000/svg" fill="currentColor"><path d="M13.2069 10.4999C13.0194 10.3125 12.7651 10.2072 12.4999 10.2072C12.2348 10.2072 11.9805 10.3125 11.7929 10.4999L11.2929 10.9999H8.99994V6.99994H10.3629C10.2479 7.1876 10.1989 7.40832 10.2238 7.62701C10.2486 7.84571 10.3458 8.04983 10.4999 8.20694L11.2929 8.99994C11.4805 9.18741 11.7348 9.29273 11.9999 9.29273C12.2651 9.29273 12.5194 9.18741 12.7069 8.99994L13.9999 7.70694C14.1874 7.51941 14.2927 7.2651 14.2927 6.99994C14.2927 6.73478 14.1874 6.48047 13.9999 6.29294L13.2069 5.49994C13.0194 5.31247 12.7651 5.20715 12.4999 5.20715C12.2348 5.20715 11.9805 5.31247 11.7929 5.49994L11.2929 5.99994H6.70694L7.49994 5.20694C7.68741 5.01941 7.79273 4.7651 7.79273 4.49994C7.79273 4.23478 7.68741 3.98047 7.49994 3.79294L6.20694 2.49994C6.01941 2.31247 5.7651 2.20715 5.49994 2.20715C5.23478 2.20715 4.98047 2.31247 4.79294 2.49994L1.49994 5.79294C1.31247 5.98047 1.20715 6.23478 1.20715 6.49994C1.20715 6.7651 1.31247 7.01941 1.49994 7.20694L2.79294 8.49994C2.98047 8.68741 3.23478 8.79273 3.49994 8.79273C3.7651 8.79273 4.01941 8.68741 4.20694 8.49994L5.70694 6.99994H7.99994V11.4999C7.99994 11.6325 8.05262 11.7597 8.14639 11.8535C8.24015 11.9473 8.36733 11.9999 8.49994 11.9999H10.3629C10.2479 12.1876 10.1989 12.4083 10.2238 12.627C10.2486 12.8457 10.3458 13.0498 10.4999 13.2069L11.2929 13.9999C11.4805 14.1874 11.7348 14.2927 11.9999 14.2927C12.2651 14.2927 12.5194 14.1874 12.7069 13.9999L13.9999 12.7069C14.1874 12.5194 14.2927 12.2651 14.2927 11.9999C14.2927 11.7348 14.1874 11.4805 13.9999 11.2929L13.2069 10.4999ZM3.49994 7.79294L2.20694 6.49994L5.49994 3.20694L6.79294 4.49994L3.49994 7.79294ZM13.2929 6.99994L11.9999 8.29294L11.2069 7.49994L12.4999 6.20694L13.2929 6.99994ZM11.9999 13.2929L11.2069 12.4999L12.4999 11.2069L13.2929 11.9999L11.9999 13.2929Z"/></svg>