<svg width="18" height="18" viewBox="0 0 18 18" xmlns="http://www.w3.org/2000/svg" fill="currentColor"><path d="M9.00101 2C5.13401 2 2.00101 4.8 2.00101 8.667C2.00101 9.956 3.04501 11 4.33401 11C5.75101 11 5.72101 10 7.00001 10C7.64401 10 8.00001 10.606 8.00001 11.25V12.5C8.00001 14.433 9.56701 16 11.5 16C14.653 16 15.999 12.215 15.999 9C15.999 5.134 12.866 2 9.00001 2H9.00101ZM11.5 15C10.122 15 9.00001 13.878 9.00001 12.5V11.25C9.00001 9.967 8.14001 9 7.00001 9C6.04001 9 5.49801 9.412 5.13901 9.685C4.85401 9.902 4.72401 10 4.33401 10C3.59901 10 3.00101 9.402 3.00101 8.667C3.00101 5.436 5.58001 3 9.00101 3C12.309 3 15 5.692 15 9C15 11.412 14.068 15 11.501 15H11.5ZM13 12C13 12.552 12.552 13 12 13C11.448 13 11 12.552 11 12C11 11.448 11.448 11 12 11C12.552 11 13 11.448 13 12ZM14 9C14 9.552 13.552 10 13 10C12.448 10 12 9.552 12 9C12 8.448 12.448 8 13 8C13.552 8 14 8.448 14 9ZM7.00001 6C7.00001 6.552 6.55201 7 6.00001 7C5.44801 7 5.00001 6.552 5.00001 6C5.00001 5.448 5.44801 5 6.00001 5C6.55201 5 7.00001 5.448 7.00001 6ZM11 6C11 5.448 11.448 5 12 5C12.552 5 13 5.448 13 6C13 6.552 12.552 7 12 7C11.448 7 11 6.552 11 6ZM10 5C10 5.552 9.55201 6 9.00001 6C8.44801 6 8.00001 5.552 8.00001 5C8.00001 4.448 8.44801 4 9.00001 4C9.55201 4 10 4.448 10 5Z"/></svg>