<svg xmlns="http://www.w3.org/2000/svg" width="12" height="12" viewBox="0 0 12 12" fill="currentColor"><path d="M6 0C2.686 0 0 2.4 0 5.715C0 6.82 0.895 7.715 2 7.715C3.215 7.715 3.046 6.858 4.142 6.858C4.694 6.858 4.99899 7.377 4.99899 7.929V9C4.99899 10.657 6.34199 12 7.99899 12C10.999 12 11.998 8.756 11.998 6C11.998 2.686 9.31299 0 5.99899 0H6ZM8 11C6.897 11 6 10.103 6 9V7.929C6 6.748 5.20201 5.858 4.14301 5.858C3.23501 5.858 2.762 6.27 2.479 6.516C2.28 6.689 2.25001 6.716 2.00101 6.716C1.45001 6.716 1.001 6.268 1.001 5.716C1.001 3.028 3.15001 1.002 6.00101 1.001C8.75701 1.001 11 3.244 11 6.001C11 6.836 10.855 11.001 8.00101 11.001L8 11ZM4.25 3.5C4.25 3.914 3.914 4.25 3.5 4.25C3.086 4.25 2.75 3.914 2.75 3.5C2.75 3.086 3.086 2.75 3.5 2.75C3.914 2.75 4.25 3.086 4.25 3.5ZM6.75 2.5C6.75 2.914 6.414 3.25 6 3.25C5.586 3.25 5.25 2.914 5.25 2.5C5.25 2.086 5.586 1.75 6 1.75C6.414 1.75 6.75 2.086 6.75 2.5ZM7.75 3.5C7.75 3.086 8.086 2.75 8.5 2.75C8.914 2.75 9.25 3.086 9.25 3.5C9.25 3.914 8.914 4.25 8.5 4.25C8.086 4.25 7.75 3.914 7.75 3.5ZM10.25 6C10.25 6.414 9.914 6.75 9.5 6.75C9.086 6.75 8.75 6.414 8.75 6C8.75 5.586 9.086 5.25 9.5 5.25C9.914 5.25 10.25 5.586 10.25 6ZM9.25 8.5C9.25 8.914 8.914 9.25 8.5 9.25C8.086 9.25 7.75 8.914 7.75 8.5C7.75 8.086 8.086 7.75 8.5 7.75C8.914 7.75 9.25 8.086 9.25 8.5Z"/></svg>