<svg width="16" height="16" viewBox="0 0 16 16" fill="none" xmlns="http://www.w3.org/2000/svg">
<path fill-rule="evenodd" clip-rule="evenodd" d="M11.351 1.09106C12.2239 1.26879 13.025 1.70007 13.654 2.33093C14.1858 2.86718 14.5765 3.52697 14.7911 4.25109C15.0057 4.97534 15.0377 5.74133 14.884 6.48083C14.6614 7.49475 14.1013 8.40295 13.2952 9.057C12.4891 9.71093 11.4849 10.0719 10.447 10.0809C10.0091 10.0817 9.57343 10.0179 9.15399 9.89184L8.354 10.8289L7.97498 11.0039H7V12.5039L6.5 13.0039H5V14.5039L4.5 15.0039H1.5L1 14.5039V12.1969L1.146 11.8439L6.12 6.87084C5.97882 6.41625 5.91132 5.94189 5.91998 5.46582C5.93225 4.57519 6.20691 3.70776 6.70972 2.97241C7.21246 2.23706 7.92102 1.66625 8.74658 1.33166C9.57214 0.996943 10.4781 0.913325 11.351 1.09106ZM12.6693 8.29064C13.2974 7.78198 13.7341 7.07507 13.908 6.28588L13.912 6.29089C14.0355 5.71386 14.0129 5.11511 13.8463 4.54894C13.6796 3.98278 13.3743 3.46728 12.9578 3.04919C12.5414 2.6311 12.0271 2.3236 11.4617 2.15466C10.8962 1.98571 10.2975 1.96069 9.71997 2.0819C8.9408 2.25488 8.24182 2.68347 7.73444 3.29968C7.22699 3.91577 6.94031 4.68395 6.91998 5.48193C6.90918 5.93676 6.99048 6.38915 7.159 6.81188L7.04901 7.35388L2 12.4039V14.0039H4V12.5039L4.5 12.0039H6V10.5039L6.5 10.0039H7.745L8.62097 8.98791L9.18201 8.8479C9.58636 9.00585 10.0168 9.08667 10.451 9.08581C11.2592 9.07971 12.0413 8.79931 12.6693 8.29064ZM11.8315 5.55944C11.9413 5.39501 12 5.20165 12 5.0039C12 4.73864 11.8947 4.48437 11.7071 4.29675C11.5196 4.10925 11.2652 4.0039 11 4.0039C10.8022 4.0039 10.6089 4.06249 10.4445 4.17248C10.28 4.28234 10.1518 4.43847 10.0761 4.62121C10.0004 4.80395 9.98065 5.005 10.0192 5.19897C10.0578 5.39294 10.153 5.57116 10.2929 5.71105C10.4327 5.85082 10.6109 5.94616 10.8049 5.98474C10.9989 6.02331 11.2 6.00341 11.3827 5.92773C11.5654 5.85205 11.7216 5.72387 11.8315 5.55944Z" fill="white"/>
</svg>
