<svg width="16" height="16" viewBox="0 0 16 16" xmlns="http://www.w3.org/2000/svg" fill="currentColor"><path d="M8.00101 1C4.13401 1 1.00101 3.8 1.00101 7.667C1.00101 8.956 2.04501 10 3.33401 10C4.75101 10 4.72101 9 6.00001 9C6.64401 9 7.00001 9.606 7.00001 10.25V11.5C7.00001 13.433 8.56701 15 10.5 15C13.653 15 14.999 11.215 14.999 8C14.999 4.134 11.866 1 8.00001 1H8.00101ZM10.5 14C9.12201 14 8.00001 12.878 8.00001 11.5V10.25C8.00001 8.967 7.14001 8 6.00001 8C5.04001 8 4.49801 8.412 4.13901 8.685C3.85401 8.902 3.72401 9 3.33401 9C2.59901 9 2.00101 8.402 2.00101 7.667C2.00101 4.436 4.58001 2 8.00101 2C11.309 2 14 4.692 14 8C14 10.412 13.068 14 10.501 14H10.5ZM12 11C12 11.552 11.552 12 11 12C10.448 12 10 11.552 10 11C10 10.448 10.448 10 11 10C11.552 10 12 10.448 12 11ZM13 8C13 8.552 12.552 9 12 9C11.448 9 11 8.552 11 8C11 7.448 11.448 7 12 7C12.552 7 13 7.448 13 8ZM6.00001 5C6.00001 5.552 5.55201 6 5.00001 6C4.44801 6 4.00001 5.552 4.00001 5C4.00001 4.448 4.44801 4 5.00001 4C5.55201 4 6.00001 4.448 6.00001 5ZM10 5C10 4.448 10.448 4 11 4C11.552 4 12 4.448 12 5C12 5.552 11.552 6 11 6C10.448 6 10 5.552 10 5ZM9.00001 4C9.00001 4.552 8.55201 5 8.00001 5C7.44801 5 7.00001 4.552 7.00001 4C7.00001 3.448 7.44801 3 8.00001 3C8.55201 3 9.00001 3.448 9.00001 4Z"/></svg>