<svg width="16" height="16" viewBox="0 0 16 16" xmlns="http://www.w3.org/2000/svg" fill="currentColor"><path d="M11.967 6.08899C11.9907 6.15031 12.0021 6.2157 12.0005 6.28143C11.9989 6.34715 11.9843 6.41191 11.9577 6.47201C11.931 6.5321 11.8928 6.58635 11.8451 6.63165C11.7975 6.67695 11.7414 6.7124 11.68 6.73599L7.5 8.34399V10.02C7.5 10.1526 7.44732 10.2798 7.35355 10.3735C7.25979 10.4673 7.13261 10.52 7 10.52C6.86739 10.52 6.74021 10.4673 6.64645 10.3735C6.55268 10.2798 6.5 10.1526 6.5 10.02V8.34299L4.32 7.50499C4.25874 7.48135 4.20273 7.44588 4.15518 7.40059C4.10763 7.35531 4.06946 7.30111 4.04286 7.24107C4.01625 7.18104 4.00173 7.11635 4.00013 7.05071C3.99852 6.98507 4.00986 6.91975 4.0335 6.85849C4.05714 6.79722 4.09261 6.74122 4.13789 6.69367C4.18318 6.64611 4.23738 6.60795 4.29741 6.58134C4.35745 6.55474 4.42213 6.54022 4.48778 6.53861C4.55342 6.53701 4.61874 6.54835 4.68 6.57199L7 7.46399L11.32 5.79999C11.3814 5.77634 11.447 5.76505 11.5128 5.76678C11.5786 5.76852 11.6434 5.78323 11.7035 5.81008C11.7636 5.83694 11.8179 5.8754 11.8631 5.92326C11.9083 5.97112 11.9436 6.02744 11.967 6.08899ZM15 5.79999V9.42899C14.9986 9.73191 14.9061 10.0274 14.7345 10.2771C14.563 10.5268 14.3203 10.7191 14.038 10.829L7.538 13.329C7.19108 13.4626 6.80692 13.4626 6.46 13.329L1.961 11.6C1.67891 11.4899 1.43643 11.2975 1.26506 11.0479C1.09369 10.7982 1.00134 10.5028 1 10.2V6.57099C1.00155 6.26809 1.0941 5.97265 1.26565 5.72301C1.43719 5.47336 1.6798 5.28104 1.962 5.17099L8.462 2.67099C8.80902 2.53798 9.19298 2.53798 9.54 2.67099L14.04 4.40199C14.3215 4.51223 14.5635 4.70438 14.7346 4.95361C14.9058 5.20283 14.9982 5.49766 15 5.79999ZM14 5.79999C14 5.69881 13.9694 5.6 13.912 5.51662C13.8547 5.43324 13.7735 5.36921 13.679 5.33299L9.179 3.60299C9.06398 3.55763 8.93602 3.55763 8.821 3.60299L2.321 6.10299C2.22637 6.13927 2.145 6.20345 2.08767 6.28703C2.03034 6.37061 1.99977 6.46964 2 6.57099V10.2C2.0001 10.3009 2.03071 10.3994 2.08782 10.4825C2.14494 10.5657 2.22587 10.6297 2.32 10.666L6.82 12.398C6.93524 12.4422 7.06276 12.4422 7.178 12.398L13.678 9.89799C13.773 9.8618 13.8547 9.79754 13.9122 9.71375C13.9697 9.62996 14.0004 9.53062 14 9.42899V5.79999Z"/></svg>