<svg width="16" height="16" viewBox="0 0 16 16" xmlns="http://www.w3.org/2000/svg" fill="currentColor"><path fill-rule="evenodd" clip-rule="evenodd" d="M8.00098 4.5C7.63498 4.5 7.29598 4.619 7.00098 4.813V3.5C7.00098 3.224 6.77698 3 6.50098 3C6.22498 3 6.00098 3.224 6.00098 3.5V8.5C6.00098 8.776 6.22498 9 6.50098 9C6.71798 9 6.89798 8.86 6.96698 8.666C7.26998 8.873 7.62098 9 8.00098 9C9.10398 9 10.001 7.991 10.001 6.75C10.001 5.509 9.10398 4.5 8.00098 4.5ZM8.00098 8C7.44898 8 7.00098 7.439 7.00098 6.75C7.00098 6.061 7.44898 5.5 8.00098 5.5C8.55298 5.5 9.00098 6.061 9.00098 6.75C9.00098 7.439 8.55298 8 8.00098 8Z"/><path d="M12.749 9C11.646 9 10.749 7.991 10.749 6.75C10.749 5.509 11.646 4.5 12.749 4.5C12.892 4.5 14.001 4.605 14.001 5.236C14.001 5.511 13.777 5.736 13.5 5.736C13.3671 5.736 13.2817 5.68604 13.1896 5.6321C13.0814 5.5688 12.9639 5.5 12.749 5.5C12.197 5.5 11.749 6.061 11.749 6.75C11.749 7.439 12.197 8 12.749 8C12.9613 8 13.0789 7.93181 13.1874 7.8689C13.2804 7.81502 13.3667 7.765 13.5 7.765C13.779 7.765 14.001 7.992 14.001 8.264C14.001 8.897 12.887 9 12.749 9Z"/><path fill-rule="evenodd" clip-rule="evenodd" d="M1.89798 4.646C1.99098 4.553 2.36398 4.25 3.25198 4.25C4.12198 4.25 5.00098 4.765 5.00098 5.75V8.5C5.00098 8.776 4.77698 9 4.50098 9C4.36198 9 4.23698 8.943 4.14598 8.851C3.91198 8.937 3.62298 9 3.25098 9C1.93798 9 1.25098 8.246 1.25098 7.5C1.25098 6.754 1.93798 6 3.25098 6C3.55298 6 3.79698 6.023 4.00098 6.056V5.75C4.00098 5.256 3.28098 5.25 3.25098 5.25C2.78847 5.25 2.60167 5.36312 2.57928 5.37668L2.57698 5.378C2.38098 5.573 2.07798 5.561 1.88398 5.365C1.68898 5.17 1.70298 4.841 1.89798 4.646ZM3.25198 7C2.60298 7 2.25198 7.258 2.25198 7.5C2.25198 7.742 2.60298 8 3.25198 8C3.69898 8 3.90898 7.885 4.00198 7.811V7.074C3.85798 7.038 3.62398 7 3.25198 7Z"/></svg>