<svg width="18" height="18" viewBox="0 0 18 18" xmlns="http://www.w3.org/2000/svg" fill="currentColor"><path fill-rule="evenodd" clip-rule="evenodd" d="M2 4C2 3.44772 2.44772 3 3 3H15C15.5523 3 16 3.44772 16 4V7C16 7.55228 15.5523 8 15 8H3C2.44772 8 2 7.55228 2 7V4ZM3 4H15V7H3L3 4Z"/><path fill-rule="evenodd" clip-rule="evenodd" d="M3 10C2.44772 10 2 10.4477 2 11V14C2 14.5523 2.44772 15 3 15H6C6.55228 15 7 14.5523 7 14V11C7 10.4477 6.55228 10 6 10H3ZM6 11H3V14H6V11Z"/><path fill-rule="evenodd" clip-rule="evenodd" d="M12 10C11.4477 10 11 10.4477 11 11V14C11 14.5523 11.4477 15 12 15H15C15.5523 15 16 14.5523 16 14V11C16 10.4477 15.5523 10 15 10H12ZM15 11H12V14H15V11Z"/></svg>