<svg width="16" height="16" viewBox="0 0 16 16" xmlns="http://www.w3.org/2000/svg" fill="currentColor"><path d="M11.9999 3C10.1399 3 8.56988 4.27 8.12988 6H9.17988C9.58988 4.84 10.6999 4 11.9999 4C13.6499 4 14.9999 5.35 14.9999 7C14.9999 8.3 14.1599 9.41 12.9999 9.82V10.87C14.7299 10.43 15.9999 8.86 15.9999 7C15.9999 4.79 14.2099 3 11.9999 3Z"/><path d="M10.5 15H5.5C4.673 15 4 14.327 4 13.5V8.5C4 7.673 4.673 7 5.5 7H10.5C11.327 7 12 7.673 12 8.5V13.5C12 14.327 11.327 15 10.5 15ZM5.5 8C5.224 8 5 8.225 5 8.5V13.5C5 13.775 5.224 14 5.5 14H10.5C10.776 14 11 13.775 11 13.5V8.5C11 8.225 10.776 8 10.5 8H5.5Z"/><path d="M4.42973 2.25008C4.24973 1.94008 3.74973 1.94008 3.56973 2.25008L0.0997266 8.25008C0.00972656 8.40008 0.00972656 8.60008 0.0997266 8.75008C0.189727 8.90008 0.359727 9.00008 0.539727 9.00008H2.99973V8.50008C2.99973 8.33008 3.01973 8.16008 3.04973 8.00008H1.39973L3.99973 3.50008L5.44973 6.00008H6.59973L4.42973 2.25008Z"/></svg>