<svg width="18" height="18" viewBox="0 0 18 18" xmlns="http://www.w3.org/2000/svg" fill="currentColor"><path d="M9.5 6C9.77614 6 10 5.77614 10 5.5C10 5.22386 9.77614 5 9.5 5C9.22386 5 9 5.22386 9 5.5C9 5.77614 9.22386 6 9.5 6Z"/><path d="M11.5 7C11.7761 7 12 6.77614 12 6.5C12 6.22386 11.7761 6 11.5 6C11.2239 6 11 6.22386 11 6.5C11 6.77614 11.2239 7 11.5 7Z"/><path d="M12.5 9C12.7761 9 13 8.77614 13 8.5C13 8.22386 12.7761 8 12.5 8C12.2239 8 12 8.22386 12 8.5C12 8.77614 12.2239 9 12.5 9Z"/><path d="M12.5 11C12.7761 11 13 10.7761 13 10.5C13 10.2239 12.7761 10 12.5 10C12.2239 10 12 10.2239 12 10.5C12 10.7761 12.2239 11 12.5 11Z"/><path d="M11.5 13C11.7761 13 12 12.7761 12 12.5C12 12.2239 11.7761 12 11.5 12C11.2239 12 11 12.2239 11 12.5C11 12.7761 11.2239 13 11.5 13Z"/><path d="M9 3C5.686 3 3 5.686 3 9C3 10.105 3.895 11 5 11C5.708 11 6.085 10.622 6.34 10.367L6.353 10.354C6.598 10.109 6.719 10 6.999 10C7.551 10 7.999 10.448 7.999 11V12C7.999 13.657 9.342 15 10.999 15C12.333 15 13.353 14.254 14.016 13.146C14.672 12.051 14.999 10.579 14.999 9C14.999 5.686 12.314 3 9 3ZM13.159 12.632C12.631 13.515 11.901 14 11 14C9.895 14 9 13.105 9 12V11C9 9.895 8.105 9 7 9C6.292 9 5.915 9.378 5.66 9.633L5.647 9.646C5.402 9.891 5.281 10 5.001 10C4.449 10 4.001 9.552 4.001 9C4.001 6.239 6.24 4 9.001 4C11.762 4 14.001 6.239 14.001 9C14.001 10.458 13.695 11.737 13.159 12.632Z"/></svg>