<svg width="18" height="18" viewBox="0 0 18 18" xmlns="http://www.w3.org/2000/svg" fill="currentColor"><path fill-rule="evenodd" clip-rule="evenodd" d="M9.00098 6.5C8.63498 6.5 8.29598 6.619 8.00098 6.813V5.5C8.00098 5.224 7.77698 5 7.50098 5C7.22498 5 7.00098 5.224 7.00098 5.5V10.5C7.00098 10.776 7.22498 11 7.50098 11C7.71798 11 7.89798 10.86 7.96698 10.666C8.26998 10.873 8.62098 11 9.00098 11C10.104 11 11.001 9.991 11.001 8.75C11.001 7.509 10.104 6.5 9.00098 6.5ZM9.00098 10C8.44898 10 8.00098 9.439 8.00098 8.75C8.00098 8.061 8.44898 7.5 9.00098 7.5C9.55298 7.5 10.001 8.061 10.001 8.75C10.001 9.439 9.55298 10 9.00098 10Z"/><path d="M13.749 11C12.646 11 11.749 9.991 11.749 8.75C11.749 7.509 12.646 6.5 13.749 6.5C13.892 6.5 15.001 6.605 15.001 7.236C15.001 7.511 14.777 7.736 14.5 7.736C14.3671 7.736 14.2817 7.68604 14.1896 7.6321C14.0814 7.5688 13.9639 7.5 13.749 7.5C13.197 7.5 12.749 8.061 12.749 8.75C12.749 9.439 13.197 10 13.749 10C13.9613 10 14.0789 9.93181 14.1874 9.8689C14.2804 9.81502 14.3667 9.765 14.5 9.765C14.779 9.765 15.001 9.992 15.001 10.264C15.001 10.897 13.887 11 13.749 11Z"/><path fill-rule="evenodd" clip-rule="evenodd" d="M2.89798 6.646C2.99098 6.553 3.36398 6.25 4.25198 6.25C5.12198 6.25 6.00098 6.765 6.00098 7.75V10.5C6.00098 10.776 5.77698 11 5.50098 11C5.36198 11 5.23698 10.943 5.14598 10.851C4.91198 10.937 4.62298 11 4.25098 11C2.93798 11 2.25098 10.246 2.25098 9.5C2.25098 8.754 2.93798 8 4.25098 8C4.55298 8 4.79698 8.023 5.00098 8.056V7.75C5.00098 7.256 4.28098 7.25 4.25098 7.25C3.78847 7.25 3.60167 7.36312 3.57928 7.37668L3.57698 7.378C3.38098 7.573 3.07798 7.561 2.88398 7.365C2.68898 7.17 2.70298 6.841 2.89798 6.646ZM4.25198 9C3.60298 9 3.25198 9.258 3.25198 9.5C3.25198 9.742 3.60298 10 4.25198 10C4.69898 10 4.90898 9.885 5.00198 9.811V9.074C4.85798 9.038 4.62398 9 4.25198 9Z"/></svg>