<svg width="18" height="18" viewBox="0 0 18 18" xmlns="http://www.w3.org/2000/svg" fill="currentColor"><path d="M14.502 12.0081C14.6318 12.0081 14.7576 12.0579 14.8506 12.1487L16.8506 14.1487C16.8975 14.1937 16.9359 14.2479 16.9619 14.3089C16.9879 14.3689 17.001 14.4343 17.001 14.4993C17.0009 14.5641 16.9878 14.6289 16.9619 14.6887C16.9359 14.7487 16.8976 14.8029 16.8506 14.8489L14.8496 16.8499C14.8047 16.8967 14.7513 16.9352 14.6904 16.9612C14.6304 16.9872 14.565 17.0003 14.5 17.0003C14.435 17.0003 14.3696 16.9872 14.3096 16.9612C14.2497 16.9352 14.1963 16.8967 14.1504 16.8499C14.1034 16.8049 14.0651 16.7507 14.0391 16.6897C14.0132 16.6299 14 16.5651 14 16.5003C14 16.4353 14.0131 16.3698 14.0391 16.3098C14.0651 16.2499 14.1034 16.1956 14.1504 16.1497L15.29 15.0003H10.5C10.3671 15.0003 10.2405 14.9467 10.1465 14.8538C10.0525 14.7608 10.0001 14.6332 10 14.5003C10 14.3673 10.0535 14.2398 10.1465 14.1458C10.2404 14.052 10.3672 14.0003 10.5 14.0003H15.29L14.1504 12.8499C14.0594 12.7569 14.0079 12.6311 14.0088 12.5012C14.0088 12.3712 14.0623 12.2456 14.1543 12.1526C14.2463 12.0608 14.3711 12.0091 14.502 12.0081Z"/><path d="M7.92285 2.37819C8.61606 2.11157 9.38394 2.11157 10.0771 2.37819L15.0381 4.28639C15.6173 4.50918 16 5.06616 16 5.68678V11.886L15.5762 11.4622C15.4372 11.3162 15.2699 11.2003 15.085 11.1214C15.0571 11.1094 15.0285 11.0993 15 11.0891V5.68678C15 5.47997 14.8727 5.29427 14.6797 5.21998L9.71777 3.31178C9.25576 3.13414 8.74424 3.13414 8.28223 3.31178L3.32031 5.21998C3.1273 5.29426 3.00004 5.47997 3 5.68678V12.3137C3.00019 12.5203 3.12753 12.7053 3.32031 12.7796L8.28223 14.6878C8.52443 14.7809 8.78001 14.8241 9.03516 14.8196C9.09589 15.098 9.23497 15.3556 9.43945 15.5608C9.50829 15.6294 9.58267 15.691 9.66211 15.7444C9.08569 15.875 8.48048 15.8358 7.92285 15.6214L2.96191 13.7131C2.38277 13.4904 2.00019 12.9342 2 12.3137V5.68678C2.00004 5.06616 2.38266 4.50918 2.96191 4.28639L7.92285 2.37819Z"/><path d="M5.04004 6.30299C5.14882 6.04918 5.44345 5.93152 5.69727 6.0403L9 7.45631L12.3027 6.0403C12.5565 5.93155 12.8501 6.04934 12.959 6.30299C13.0677 6.55664 12.9507 6.8503 12.6973 6.95924L9.5 8.32936V11.5003C9.49987 11.7763 9.27601 12.0002 9 12.0003C8.72394 12.0003 8.50013 11.7763 8.5 11.5003V8.32936L5.30273 6.95924C5.04913 6.85037 4.93133 6.5567 5.04004 6.30299Z"/></svg>