<svg width="16" height="16" viewBox="0 0 16 16" fill="none" xmlns="http://www.w3.org/2000/svg">
<path fill-rule="evenodd" clip-rule="evenodd" d="M2.00583 8.76691L0.78 10L0 9.23003L2.09 7.16003L2.85 7.17003L4.94 9.29003L4.18 10.05L3.01348 8.86995C3.20279 11.4587 5.363 13.5 8 13.5C9.91063 13.5 11.571 12.4283 12.4127 10.8533L13.226 11.45C12.1959 13.271 10.2415 14.5 8 14.5C4.77573 14.5 2.14547 11.9568 2.00583 8.76691ZM12.9961 8.30051L11.76 7.05005L11 7.81005L13.09 9.92005L13.85 9.93005L15.94 7.86005L15.19 7.10005L13.996 8.28004C13.8803 5.06822 11.2401 2.5 8 2.5C5.83726 2.5 3.94178 3.64429 2.88597 5.36047L3.69562 5.95435C4.56645 4.48499 6.16818 3.5 8 3.5C10.6946 3.5 12.8914 5.63152 12.9961 8.30051Z" fill="white"/>
</svg>
