<svg width="18" height="18" viewBox="0 0 18 18" xmlns="http://www.w3.org/2000/svg" fill="currentColor"><path d="M2 4.5C2 3.11929 3.11929 2 4.5 2H13.5C14.8807 2 16 3.11929 16 4.5V13.5C16 14.8807 14.8807 16 13.5 16H4.5C3.11929 16 2 14.8807 2 13.5V4.5ZM7 15H11V12L7 12V15ZM6 12H3V13.5C3 14.3284 3.67157 15 4.5 15H6V12ZM7 11L11 11V7L7 7V11ZM6 7H3V11H6V7ZM7 6L11 6V3H7V6ZM6 3H4.5C3.67157 3 3 3.67157 3 4.5V6H6V3ZM15 7H12V11H15V7ZM15 12H12V15H13.5C14.3284 15 15 14.3284 15 13.5V12ZM15 6V4.5C15 3.67157 14.3284 3 13.5 3H12V6H15Z"/></svg>