<svg width="16" height="16" viewBox="0 0 16 16" fill="none" xmlns="http://www.w3.org/2000/svg">
<path fill-rule="evenodd" clip-rule="evenodd" d="M13.2 2H8.017L7.664 2.146L1 8.81V9.517L6.183 14.7H6.89L9.10507 12.4853C9.65808 12.7768 10.2674 12.9502 10.8942 12.9923C11.6588 13.0437 12.4238 12.8981 13.116 12.5694C13.8082 12.2407 14.4046 11.74 14.8481 11.1151C15.2915 10.4902 15.5673 9.76192 15.649 9H15.649C15.6757 8.83446 15.6927 8.66751 15.7 8.5C15.6987 7.30693 15.2242 6.16311 14.3805 5.31948C14.1709 5.10988 13.9428 4.92307 13.7 4.76064V2.5L13.2 2ZM12.7 4.25881C12.2227 4.08965 11.716 4.00057 11.2 4C11.0674 4 10.9402 4.05268 10.8465 4.14645C10.7527 4.24021 10.7 4.36739 10.7 4.5C10.7 4.63261 10.7527 4.75979 10.8465 4.85355C10.9402 4.94732 11.0674 5 11.2 5C11.7238 5 12.2356 5.11743 12.7 5.33771V7.476L8.77481 11.4005C8.75743 11.4095 8.74054 11.4194 8.72425 11.4304C8.66826 11.468 8.62046 11.5166 8.58373 11.5731C8.5745 11.5874 8.56602 11.602 8.55831 11.617L6.536 13.639L2.061 9.163L8.224 3H12.7V4.25881ZM13.7 6.0505C14.3407 6.70435 14.7 7.58365 14.7 8.5C14.6952 8.66769 14.6782 8.8348 14.649 9H14.649C14.5673 9.58097 14.3404 10.1319 13.9892 10.6019C13.638 11.0719 13.174 11.4457 12.64 11.6888C12.1061 11.9319 11.5194 12.0363 10.9344 11.9925C10.562 11.9646 10.1979 11.8772 9.85564 11.7348L13.554 8.037L13.7 7.683V6.0505Z" fill="white"/>
</svg>
