<svg width="18" height="18" viewBox="0 0 18 18" xmlns="http://www.w3.org/2000/svg" fill="currentColor"><path d="M10 9C10 9.552 9.552 10 9 10C8.448 10 8 9.552 8 9C8 8.448 8.448 8 9 8C9.552 8 10 8.448 10 9ZM13 9C13 11.209 11.209 13 9 13C6.791 13 5 11.209 5 9C5 6.791 6.791 5 9 5C11.209 5 13 6.791 13 9ZM12 9C12 7.343 10.657 6 9 6C7.343 6 6 7.343 6 9C6 10.657 7.343 12 9 12C10.657 12 12 10.657 12 9ZM16 9C16 12.866 12.866 16 9 16C5.134 16 2 12.866 2 9C2 5.134 5.134 2 9 2C12.866 2 16 5.134 16 9ZM15 9C15 5.686 12.314 3 9 3C5.686 3 3 5.686 3 9C3 12.314 5.686 15 9 15C12.314 15 15 12.314 15 9Z"/></svg>