<svg width="16" height="16" viewBox="0 0 16 16" xmlns="http://www.w3.org/2000/svg" fill="currentColor"><path d="M9 8C9 8.552 8.552 9 8 9C7.448 9 7 8.552 7 8C7 7.448 7.448 7 8 7C8.552 7 9 7.448 9 8ZM12 8C12 10.209 10.209 12 8 12C5.791 12 4 10.209 4 8C4 5.791 5.791 4 8 4C10.209 4 12 5.791 12 8ZM11 8C11 6.343 9.657 5 8 5C6.343 5 5 6.343 5 8C5 9.657 6.343 11 8 11C9.657 11 11 9.657 11 8ZM15 8C15 11.866 11.866 15 8 15C4.134 15 1 11.866 1 8C1 4.134 4.134 1 8 1C11.866 1 15 4.134 15 8ZM14 8C14 4.686 11.314 2 8 2C4.686 2 2 4.686 2 8C2 11.314 4.686 14 8 14C11.314 14 14 11.314 14 8Z"/></svg>