<svg width="16" height="16" viewBox="0 0 16 16" xmlns="http://www.w3.org/2000/svg" fill="currentColor"><path d="M6.82499 8.882L4.46199 10.882C4.36799 10.961 4.25299 11 4.13899 11C3.99699 11 3.85599 10.939 3.75699 10.823C3.57799 10.612 3.60499 10.297 3.81599 10.118L5.80399 8.436L4.47899 6.817C4.30399 6.603 4.33499 6.288 4.54899 6.113C4.76199 5.938 5.07799 5.969 5.25199 6.183L6.88799 8.183C7.06099 8.394 7.03299 8.705 6.82499 8.882ZM11 10H7.49999C7.22399 10 6.99999 10.224 6.99999 10.5C6.99999 10.776 7.22399 11 7.49999 11H11C11.276 11 11.5 10.776 11.5 10.5C11.5 10.224 11.276 10 11 10ZM15.784 3.973L14.053 12.973C13.827 14.148 12.795 15 11.598 15H2.67099C1.92299 15 1.21999 14.669 0.742988 14.092C0.265988 13.515 0.0739875 12.763 0.215988 12.028L1.94699 3.027C2.17299 1.852 3.20499 1 4.40199 1H13.329C14.077 1 14.78 1.331 15.257 1.908C15.734 2.485 15.926 3.237 15.784 3.972V3.973ZM14.485 2.545C14.199 2.198 13.778 2 13.329 2H4.40199C3.68399 2 3.06399 2.512 2.92899 3.217L1.19799 12.217C1.11299 12.657 1.22799 13.11 1.51399 13.455C1.79999 13.802 2.22099 14 2.66999 14H11.597C12.315 14 12.935 13.488 13.07 12.783L14.801 3.783C14.886 3.343 14.771 2.89 14.485 2.545Z"/></svg>