<svg width="16" height="16" viewBox="0 0 16 16" xmlns="http://www.w3.org/2000/svg" fill="currentColor"><path d="M11.5 2H4.5C3.119 2 2 3.119 2 4.5V11.5C2 12.881 3.119 14 4.5 14H11.5C12.881 14 14 12.881 14 11.5V4.5C14 3.119 12.881 2 11.5 2ZM13 11.5C13 12.328 12.328 13 11.5 13H4.5C3.672 13 3 12.328 3 11.5V6H13V11.5ZM13 5H3V4.5C3 3.672 3.672 3 4.5 3H11.5C12.328 3 13 3.672 13 4.5V5ZM4 10.508V8.508C4 7.681 4.673 7.008 5.5 7.008C6.327 7.008 7 7.681 7 8.508C7 8.784 6.776 9.008 6.5 9.008C6.224 9.008 6 8.784 6 8.508C6 8.232 5.776 8.008 5.5 8.008C5.224 8.008 5 8.232 5 8.508V10.508C5 10.783 5.224 11.008 5.5 11.008C5.776 11.008 6 10.783 6 10.508C6 10.233 6.224 10.008 6.5 10.008C6.776 10.008 7 10.232 7 10.508C7 11.335 6.327 12.008 5.5 12.008C4.673 12.008 4 11.335 4 10.508ZM8 8.5C8 8.224 8.224 8 8.5 8C8.776 8 9 8.224 9 8.5C9 8.776 8.776 9 8.5 9C8.224 9 8 8.776 8 8.5ZM8 10.5C8 10.224 8.224 10 8.5 10C8.776 10 9 10.224 9 10.5C9 10.776 8.776 11 8.5 11C8.224 11 8 10.776 8 10.5ZM9.532 7.676C9.434 7.417 9.565 7.129 9.824 7.032C10.08 6.936 10.371 7.066 10.468 7.324L11.968 11.324C12.066 11.583 11.935 11.871 11.676 11.968C11.618 11.99 11.559 12 11.5 12C11.298 12 11.107 11.876 11.032 11.676L9.532 7.676Z"/></svg>