<svg width="24" height="24" viewBox="0 0 24 24" xmlns="http://www.w3.org/2000/svg" fill="currentColor"><path d="M9.53033 12.9697L7.28033 10.7197C6.98744 10.4268 6.51256 10.4268 6.21967 10.7197C5.92678 11.0126 5.92678 11.4874 6.21967 11.7803L7.93934 13.5L6.21967 15.2197C5.92678 15.5126 5.92678 15.9874 6.21967 16.2803C6.51256 16.5732 6.98744 16.5732 7.28033 16.2803L9.53033 14.0303C9.82322 13.7374 9.82322 13.2626 9.53033 12.9697Z"/><path d="M11.25 15C10.8358 15 10.5 15.3358 10.5 15.75C10.5 16.1642 10.8358 16.5 11.25 16.5H17.25C17.6642 16.5 18 16.1642 18 15.75C18 15.3358 17.6642 15 17.25 15H11.25Z"/><path fill-rule="evenodd" clip-rule="evenodd" d="M3 6.75C3 4.67893 4.67893 3 6.75 3H17.25C19.3211 3 21 4.67893 21 6.75V17.25C21 19.3211 19.3211 21 17.25 21H6.75C4.67893 21 3 19.3211 3 17.25V6.75ZM4.5 7.5H19.5V6.75C19.5 5.50736 18.4926 4.5 17.25 4.5H6.75C5.50736 4.5 4.5 5.50736 4.5 6.75V7.5ZM19.5 9H4.5V17.25C4.5 18.4926 5.50736 19.5 6.75 19.5H17.25C18.4926 19.5 19.5 18.4926 19.5 17.25V9Z"/></svg>