<svg width="16" height="16" viewBox="0 0 16 16" xmlns="http://www.w3.org/2000/svg" fill="currentColor"><path d="M14.237 2.718C13.856 2.262 13.297 2 12.702 2H5.16801C3.96001 2 2.92601 2.864 2.70901 4.053L1.32901 11.642C1.22301 12.228 1.38101 12.825 1.76201 13.282C2.14301 13.738 2.70201 14 3.29701 14H10.831C12.039 14 13.073 13.136 13.29 11.947L14.67 4.358C14.776 3.772 14.618 3.175 14.237 2.718ZM13.688 4.179L12.308 11.768C12.178 12.482 11.557 13 10.832 13H3.29901C3.00101 13 2.72101 12.869 2.53101 12.641C2.34001 12.413 2.26101 12.114 2.31401 11.821L3.69401 4.232C3.82401 3.518 4.44501 3 5.17001 3H12.704C13.002 3 13.282 3.131 13.472 3.359C13.663 3.587 13.742 3.886 13.689 4.179H13.688ZM6.88701 8.183C7.06001 8.394 7.03201 8.705 6.82401 8.882L4.46101 10.882C4.36701 10.961 4.25201 11 4.13801 11C3.99601 11 3.85501 10.939 3.75601 10.823C3.57701 10.612 3.60401 10.297 3.81501 10.118L5.80301 8.436L4.47801 6.817C4.30301 6.603 4.33401 6.288 4.54801 6.113C4.76101 5.938 5.07701 5.969 5.25101 6.183L6.88701 8.183ZM11.5 10.5C11.5 10.776 11.276 11 11 11H7.50001C7.22401 11 7.00001 10.776 7.00001 10.5C7.00001 10.224 7.22401 10 7.50001 10H11C11.276 10 11.5 10.224 11.5 10.5Z"/></svg>