<svg width="24" height="24" viewBox="0 0 24 24" xmlns="http://www.w3.org/2000/svg" fill="currentColor"><path d="M18.75 1.5H5.25C3.1815 1.5 1.5 3.183 1.5 5.25V18.75C1.5 20.8185 3.1815 22.5 5.25 22.5H18.75C20.8185 22.5 22.5 20.8185 22.5 18.75V5.25C22.5 3.183 20.8185 1.5 18.75 1.5ZM21 18.75C21 19.9905 19.9905 21 18.75 21H5.25C4.0095 21 3 19.9905 3 18.75V5.25C3 4.0095 4.0095 3 5.25 3H18.75C19.9905 3 21 4.0095 21 5.25V18.75ZM10.281 13.281L5.781 17.781C5.634 17.928 5.442 18 5.25 18C5.058 18 4.866 17.9265 4.719 17.781C4.4265 17.4885 4.4265 17.013 4.719 16.7205L8.688 12.7515L4.719 8.7825C4.4265 8.49 4.4265 8.0145 4.719 7.722C5.0115 7.4295 5.487 7.4295 5.7795 7.722L10.2795 12.222C10.572 12.5145 10.572 12.99 10.2795 13.2825L10.281 13.281ZM19.5 17.25C19.5 17.664 19.164 18 18.75 18H11.25C10.836 18 10.5 17.664 10.5 17.25C10.5 16.836 10.836 16.5 11.25 16.5H18.75C19.164 16.5 19.5 16.836 19.5 17.25Z"/></svg>