<svg width="16" height="16" viewBox="0 0 16 16" xmlns="http://www.w3.org/2000/svg" fill="currentColor"><path d="M8 3.00002C8.552 3.00002 9 3.44802 9 4.00002C9 4.09002 8.988 4.17602 8.966 4.25902L10 5.29302L11.35 3.94302L8.692 1.29102C8.511 1.11102 8.261 0.999023 7.986 0.999023C7.711 0.999023 7.459 1.11102 7.278 1.29302L6.64 1.93302L7.741 3.03402C7.824 3.01202 7.91 3.00002 8 3.00002ZM7.5 4.86602C7.201 4.69302 7 4.37002 7 4.00002C7 3.91002 7.012 3.82402 7.034 3.74102L5.933 2.64002L4.642 3.93502L7.5 6.79302V4.86602ZM8.5 6.79302L9.293 6.00002L8.5 5.20702V6.79302ZM14.706 7.29202L12.057 4.64902L10.706 6.00002L11.74 7.03402C11.823 7.01202 11.909 7.00002 11.999 7.00002C12.551 7.00002 12.999 7.44802 12.999 8.00002C12.999 8.55202 12.551 9.00002 11.999 9.00002C11.447 9.00002 10.999 8.55202 10.999 8.00002C10.999 7.91002 11.011 7.82402 11.033 7.74102L9.999 6.70702L8.706 8.00002L12.063 11.357L14.707 8.70602C14.887 8.52502 14.999 8.27602 14.999 8.00002C14.999 7.72402 14.887 7.47302 14.705 7.29202H14.706ZM3.936 4.64302L1.292 7.29402C1.112 7.47502 1 7.72502 1 8.00002C1 8.27502 1.112 8.52702 1.294 8.70802L3.943 11.351L7.294 8.00002L3.936 4.64302ZM8.5 11.134C8.799 11.307 9 11.63 9 12C9 12.552 8.552 13 8 13C7.448 13 7 12.552 7 12C7 11.63 7.201 11.307 7.5 11.134V9.20702L4.65 12.057L7.308 14.709C7.489 14.889 7.739 15.001 8.014 15.001C8.289 15.001 8.541 14.889 8.722 14.707L11.357 12.065L8.499 9.20702V11.134H8.5Z"/></svg>