<svg width="18" height="18" viewBox="0 0 18 18" xmlns="http://www.w3.org/2000/svg" fill="currentColor"><path d="M7.82499 9.882L5.46199 11.882C5.36799 11.961 5.25299 12 5.13899 12C4.99699 12 4.85599 11.939 4.75699 11.823C4.57799 11.612 4.60499 11.297 4.81599 11.118L6.80399 9.436L5.47899 7.817C5.30399 7.603 5.33499 7.288 5.54899 7.113C5.76199 6.938 6.07799 6.969 6.25199 7.183L7.88799 9.183C8.06099 9.394 8.03299 9.705 7.82499 9.882ZM12 11H8.49999C8.22399 11 7.99999 11.224 7.99999 11.5C7.99999 11.776 8.22399 12 8.49999 12H12C12.276 12 12.5 11.776 12.5 11.5C12.5 11.224 12.276 11 12 11ZM16.784 4.973L15.053 13.973C14.827 15.148 13.795 16 12.598 16H3.67099C2.92299 16 2.21999 15.669 1.74299 15.092C1.26599 14.515 1.07399 13.763 1.21599 13.028L2.94699 4.027C3.17299 2.852 4.20499 2 5.40199 2H14.329C15.077 2 15.78 2.331 16.257 2.908C16.734 3.485 16.926 4.237 16.784 4.972V4.973ZM15.485 3.545C15.199 3.198 14.778 3 14.329 3H5.40199C4.68399 3 4.06399 3.512 3.92899 4.217L2.19799 13.217C2.11299 13.657 2.22799 14.11 2.51399 14.455C2.79999 14.802 3.22099 15 3.66999 15H12.597C13.315 15 13.935 14.488 14.07 13.783L15.801 4.783C15.886 4.343 15.771 3.89 15.485 3.545Z"/></svg>