<svg width="24" height="25" viewBox="0 0 24 25" xmlns="http://www.w3.org/2000/svg" fill="currentColor"><path d="M5.47305 11.2877C5.76605 10.9947 6.24105 10.9947 6.53405 11.2877L9.53405 14.2877C9.67505 14.4287 9.75405 14.6187 9.75405 14.8177C9.75405 15.0167 9.67505 15.2077 9.53405 15.3477L6.53405 18.3477C6.24105 18.6407 5.76605 18.6407 5.47305 18.3477C5.18005 18.0547 5.18005 17.5797 5.47305 17.2867L7.94305 14.8167L5.47305 12.3467C5.18005 12.0537 5.18005 11.5787 5.47305 11.2857V11.2877ZM18.754 17.0677H11.254C10.84 17.0677 10.504 17.4037 10.504 17.8177C10.504 18.2317 10.84 18.5677 11.254 18.5677H18.754C19.168 18.5677 19.504 18.2317 19.504 17.8177C19.504 17.4037 19.168 17.0677 18.754 17.0677ZM1.49805 5.81775C1.49805 3.74675 3.17705 2.06775 5.24805 2.06775H18.748C20.819 2.06775 22.498 3.74675 22.498 5.81775V6.56775H22.502V8.06775H22.498V19.3177C22.498 21.3887 20.819 23.0677 18.748 23.0677H5.24805C3.17705 23.0677 1.49805 21.3887 1.49805 19.3177V5.81775ZM20.998 6.56775V5.81775C20.998 4.57475 19.991 3.56775 18.748 3.56775H5.24805C4.00505 3.56775 2.99805 4.57475 2.99805 5.81775V6.56775H20.998ZM2.99805 8.06775V19.3177C2.99805 20.5607 4.00505 21.5677 5.24805 21.5677H18.748C19.991 21.5677 20.998 20.5607 20.998 19.3177V8.06775H2.99805Z"/></svg>