<svg width="18" height="18" viewBox="0 0 18 18" xmlns="http://www.w3.org/2000/svg" fill="currentColor"><path d="M13.5 2H4.5C3.119 2 2 3.119 2 4.5V13.5C2 14.881 3.119 16 4.5 16H13.5C14.881 16 16 14.881 16 13.5V4.5C16 3.119 14.881 2 13.5 2ZM15 13.5C15 14.328 14.328 15 13.5 15H4.5C3.672 15 3 14.328 3 13.5V6H15V13.5ZM15 5H3V4.5C3 3.672 3.672 3 4.5 3H13.5C14.328 3 15 3.672 15 4.5V5ZM5 11.508V9.508C5 8.681 5.673 8.008 6.5 8.008C7.327 8.008 8 8.681 8 9.508C8 9.784 7.776 10.008 7.5 10.008C7.224 10.008 7 9.784 7 9.508C7 9.232 6.776 9.008 6.5 9.008C6.224 9.008 6 9.232 6 9.508V11.508C6 11.783 6.224 12.008 6.5 12.008C6.776 12.008 7 11.783 7 11.508C7 11.233 7.224 11.008 7.5 11.008C7.776 11.008 8 11.232 8 11.508C8 12.335 7.327 13.008 6.5 13.008C5.673 13.008 5 12.335 5 11.508ZM9 9.5C9 9.224 9.224 9 9.5 9C9.776 9 10 9.224 10 9.5C10 9.776 9.776 10 9.5 10C9.224 10 9 9.776 9 9.5ZM9 11.5C9 11.224 9.224 11 9.5 11C9.776 11 10 11.224 10 11.5C10 11.776 9.776 12 9.5 12C9.224 12 9 11.776 9 11.5ZM10.532 8.676C10.434 8.417 10.565 8.129 10.824 8.032C11.08 7.936 11.371 8.066 11.468 8.324L12.968 12.324C13.066 12.583 12.935 12.871 12.676 12.968C12.618 12.99 12.559 13 12.5 13C12.298 13 12.107 12.876 12.032 12.676L10.532 8.676Z"/></svg>