<svg width="16" height="16" viewBox="0 0 16 16" xmlns="http://www.w3.org/2000/svg" fill="currentColor"><path d="M9.813 1.00049C10.985 1.00049 11.952 1.87249 12.104 3.00249C13.437 3.05649 14.5 4.15449 14.5 5.50049C14.5 6.28549 14.137 6.98649 13.571 7.44449C14.428 7.97249 15 8.91949 15 10.0005V10.2505C15 11.6415 13.967 12.7905 12.625 12.9745L12.541 13.2465C12.215 14.2905 11.248 15.0005 10.155 15.0005H10C9.182 15.0005 8.456 14.6075 8 14.0005C7.544 14.6075 6.818 15.0005 6 15.0005H5.845C4.752 15.0005 3.785 14.2895 3.459 13.2465L3.375 12.9745C2.034 12.7915 1 11.6425 1 10.2505V10.0005C1 8.91949 1.572 7.97249 2.429 7.44449C1.863 6.98649 1.5 6.28649 1.5 5.50049C1.5 4.15449 2.564 3.05749 3.896 3.00249C4.048 1.87249 5.015 1.00049 6.187 1.00049C6.921 1.00049 7.576 1.34349 7.999 1.87649C8.423 1.34249 9.077 1.00049 9.811 1.00049H9.813ZM6.188 2.00049C5.463 2.00049 4.876 2.58849 4.876 3.31249V3.50049C4.876 3.77649 4.652 4.00049 4.376 4.00049H4.001C3.173 4.00049 2.501 4.67249 2.501 5.50049C2.501 6.30349 3.131 6.95849 3.924 6.99849L4.001 7.00049H4.501C4.777 7.00049 5.001 7.22449 5.001 7.50049C5.001 7.77649 4.777 8.00049 4.501 8.00049H4.001L3.898 8.00249C2.841 8.05649 2.001 8.93049 2.001 10.0005V10.2505C2.001 11.2175 2.784 12.0005 3.751 12.0005C3.943 12.0005 4.115 12.1095 4.198 12.2775L4.228 12.3515L4.415 12.9475C4.611 13.5735 5.191 14.0005 5.847 14.0005H6.002C6.83 14.0005 7.502 13.3285 7.502 12.5005V3.31249C7.502 2.58749 6.914 2.00049 6.19 2.00049H6.188ZM9.813 2.00049C9.088 2.00049 8.501 2.58849 8.501 3.31249V12.5005C8.501 13.3285 9.173 14.0005 10.001 14.0005H10.156C10.812 14.0005 11.392 13.5735 11.588 12.9475L11.775 12.3515L11.805 12.2775C11.888 12.1105 12.061 12.0005 12.252 12.0005C13.219 12.0005 14.002 11.2175 14.002 10.2505V10.0005C14.002 8.93049 13.162 8.05649 12.105 8.00249L12.002 8.00049H11.502C11.226 8.00049 11.002 7.77649 11.002 7.50049C11.002 7.22449 11.226 7.00049 11.502 7.00049H12.002L12.079 6.99849C12.872 6.95849 13.502 6.30249 13.502 5.50049C13.502 4.67249 12.83 4.00049 12.002 4.00049H11.627C11.351 4.00049 11.127 3.77649 11.127 3.50049V3.31249C11.127 2.58749 10.539 2.00049 9.815 2.00049H9.813Z"/></svg>