<svg width="16" height="16" viewBox="0 0 16 16" xmlns="http://www.w3.org/2000/svg" fill="currentColor"><path d="M13.569 7.444C14.136 6.986 14.5 6.284 14.5 5.5C14.5 4.122 13.379 3 12 3H11.986C11.861 1.876 10.906 1 9.75 1C9.044 1 8.413 1.327 8 1.838C7.587 1.327 6.956 1 6.25 1C5.094 1 4.139 1.876 4.014 3H4C2.621 3 1.5 4.122 1.5 5.5C1.5 6.284 1.863 6.986 2.431 7.444C1.574 7.973 1 8.921 1 10C1 11.499 2.105 12.745 3.543 12.965C3.762 14.122 4.78 15 6 15C6.817 15 7.544 14.606 8 13.999C8.456 14.607 9.183 15 10 15C11.22 15 12.238 14.122 12.457 12.965C13.895 12.745 15 11.499 15 10C15 8.921 14.427 7.973 13.569 7.444ZM6 14C5.173 14 4.5 13.327 4.5 12.5V12H4C2.897 12 2 11.103 2 10C2 8.897 2.897 8 4 8H5V7H4C3.173 7 2.5 6.327 2.5 5.5C2.5 4.673 3.173 4 4 4H5V3.25C5 2.561 5.561 2 6.25 2C6.939 2 7.5 2.561 7.5 3.25V12.5C7.5 13.327 6.827 14 6 14ZM12 12H11.5V12.5C11.5 13.327 10.827 14 10 14C9.173 14 8.5 13.327 8.5 12.5V3.25C8.5 2.561 9.061 2 9.75 2C10.439 2 11 2.561 11 3.25V4H12C12.827 4 13.5 4.673 13.5 5.5C13.5 6.327 12.827 7 12 7H11V8H12C13.103 8 14 8.897 14 10C14 11.103 13.103 12 12 12Z"/></svg>