<svg width="16" height="16" viewBox="0 0 16 16" fill="none" xmlns="http://www.w3.org/2000/svg">
<path d="M10.54 1.99999C10.8288 2.00138 11.1107 2.08838 11.35 2.24999C11.6087 2.43634 11.7949 2.70652 11.8769 3.0146C11.9589 3.32268 11.9318 3.64967 11.8 3.93998L10.83 6.10998L13.62 6.10999C13.8491 6.10572 14.0755 6.15939 14.2783 6.26604C14.4811 6.37268 14.6537 6.52883 14.78 6.71999C14.907 6.91379 14.982 7.13702 14.9978 7.3682C15.0136 7.59939 14.9695 7.83074 14.87 8.03999C14.2 9.48999 13 12.11 12.6 13.21C12.5022 13.4735 12.3263 13.7009 12.0958 13.8618C11.8652 14.0226 11.5911 14.1092 11.31 14.11L2.38 14.11C2.01217 14.1047 1.66119 13.9549 1.40295 13.6929C1.14471 13.4309 0.999959 13.0778 0.999996 12.71L0.999997 9.19998C0.999997 9.01876 1.03569 8.83931 1.10504 8.67188C1.17439 8.50445 1.27604 8.35232 1.40419 8.22418C1.53233 8.09603 1.68446 7.99438 1.85189 7.92503C2.01932 7.85568 2.19877 7.81998 2.38 7.81998L3.76 7.81998L9.6 2.35998C9.85837 2.12842 10.193 2.00025 10.54 1.99999ZM11.31 13.11C11.3881 13.1092 11.4642 13.0849 11.5284 13.0403C11.5926 12.9958 11.6419 12.9329 11.67 12.86C12.07 11.77 13.14 9.40999 14 7.61999C14.0289 7.56439 14.044 7.50265 14.044 7.43999C14.044 7.37732 14.0289 7.31558 14 7.25999C13.9584 7.20044 13.9002 7.15446 13.8326 7.12778C13.765 7.10111 13.6911 7.09492 13.62 7.10999L10.32 7.10998L9.8 6.42999L9.8 5.96998L10.89 3.52999C10.9262 3.45032 10.9331 3.36039 10.9093 3.27617C10.8855 3.19196 10.8326 3.1189 10.76 3.06999C10.6922 3.01476 10.6074 2.9846 10.52 2.9846C10.4326 2.9846 10.3478 3.01476 10.28 3.06998L4.22 8.65998L3.75 8.78998L2.38 8.78998C2.32747 8.78982 2.27547 8.80055 2.2273 8.82149C2.17912 8.84244 2.13582 8.87314 2.10011 8.91167C2.0644 8.9502 2.03707 8.99571 2.01983 9.04534C2.0026 9.09496 1.99585 9.14762 2 9.19998L2 12.71C1.99987 12.8127 2.03925 12.9115 2.11 12.986C2.18074 13.0604 2.27741 13.1048 2.38 13.11L11.31 13.11Z" fill="white"/>
</svg>
