<svg width="16" height="16" viewBox="0 0 16 16" xmlns="http://www.w3.org/2000/svg" fill="currentColor"><path d="M12.999 6.00002H10.672L11.207 4.21802C11.278 3.98102 11.314 3.73902 11.314 3.49602C11.314 2.12002 10.192 0.999023 8.81298 0.999023C8.42998 0.999023 8.08498 1.21202 7.91398 1.55402L5.82998 5.72202C5.74498 5.89202 5.57398 5.99802 5.38298 5.99802H3.00098C1.89798 5.99802 1.00098 6.89502 1.00098 7.99802V12.998C1.00098 14.101 1.89798 14.998 3.00098 14.998H11.163C12.727 14.998 13.283 13.796 13.565 12.893L14.908 8.59602C14.969 8.40102 15 8.19902 15 7.99602C15 6.89402 14.103 5.99802 12.999 5.99802V6.00002ZM1.99998 13V8.00002C1.99998 7.44902 2.44898 7.00002 2.99998 7.00002H3.99998V14H2.99998C2.44898 14 1.99998 13.551 1.99998 13ZM13.954 8.29802L12.611 12.596C12.247 13.761 11.769 13.999 11.163 13.999H5.00098V6.99902H5.38298C5.95498 6.99902 6.46898 6.68102 6.72498 6.17002L8.80898 2.00202C8.80898 2.00202 8.81098 2.00002 8.81298 2.00002C9.64098 2.00002 10.314 2.67102 10.314 3.49702C10.314 3.64202 10.292 3.78802 10.249 3.93202L9.52098 6.35702C9.47598 6.50802 9.50398 6.67202 9.59898 6.79902C9.69398 6.92602 9.84198 7.00102 9.99998 7.00102H12.999C13.551 7.00102 14 7.44802 14 7.99902C14 8.10002 13.984 8.20102 13.954 8.30002V8.29802Z"/></svg>