<svg width="16" height="16" viewBox="0 0 16 16" fill="none" xmlns="http://www.w3.org/2000/svg">
<path d="M5.46 14.11C5.17122 14.1086 4.88934 14.0216 4.65 13.86C4.39132 13.6736 4.20515 13.4035 4.12311 13.0954C4.04108 12.7873 4.06825 12.4603 4.2 12.17L5.17 10H2.38C2.15092 10.0043 1.92447 9.95059 1.72168 9.84395C1.51888 9.73731 1.34632 9.58116 1.22 9.39C1.09298 9.1962 1.01797 8.97296 1.00221 8.74178C0.986449 8.5106 1.03046 8.27925 1.13 8.07C1.8 6.62 3 4 3.4 2.9C3.49777 2.63646 3.67369 2.40906 3.90423 2.24822C4.13476 2.08738 4.40891 2.00078 4.69 2H13.62C13.9878 2.00526 14.3388 2.15507 14.597 2.41706C14.8553 2.67904 15 3.03214 15 3.4V6.91C15 7.09122 14.9643 7.27067 14.895 7.4381C14.8256 7.60553 14.724 7.75766 14.5958 7.88581C14.4677 8.01395 14.3155 8.1156 14.1481 8.18495C13.9807 8.25431 13.8012 8.29 13.62 8.29H12.24L6.4 13.75C6.14163 13.9816 5.80696 14.1097 5.46 14.11ZM4.69 3C4.61186 3.0008 4.53575 3.02507 4.47156 3.06965C4.40737 3.11422 4.35805 3.17706 4.33 3.25C3.93 4.34 2.86 6.7 2 8.49C1.97108 8.54559 1.95598 8.60733 1.95598 8.67C1.95598 8.73267 1.97108 8.79441 2 8.85C2.04162 8.90955 2.09985 8.95553 2.16742 8.9822C2.235 9.00888 2.30893 9.01507 2.38 9H5.68L6.2 9.68V10.14L5.11 12.58C5.07377 12.6597 5.06695 12.7496 5.09075 12.8338C5.11455 12.918 5.16743 12.9911 5.24 13.04C5.3078 13.0952 5.39256 13.1254 5.48 13.1254C5.56744 13.1254 5.65221 13.0952 5.72 13.04L11.78 7.45L12.25 7.32H13.62C13.6725 7.32016 13.7245 7.30943 13.7727 7.28849C13.8209 7.26755 13.8642 7.23684 13.8999 7.19831C13.9356 7.15978 13.9629 7.11427 13.9802 7.06465C13.9974 7.01502 14.0042 6.96237 14 6.91V3.4C14.0001 3.29729 13.9607 3.19847 13.89 3.124C13.8193 3.04953 13.7226 3.00514 13.62 3H4.69Z" fill="white"/>
</svg>
