<svg width="16" height="16" viewBox="0 0 16 16" xmlns="http://www.w3.org/2000/svg" fill="currentColor"><path d="M5.667 2.029C5.519 1.975 5.345 1.998 5.212 2.091C5.079 2.184 5 2.337 5 2.499V4.315C5 4.59 4.775 4.815 4.5 4.815C4.225 4.815 4 4.59 4 4.315V2.499C4 2.337 3.921 2.185 3.788 2.091C3.656 1.997 3.483 1.975 3.333 2.029C1.937 2.524 1 3.845 1 5.316C1 6.675 1.79 7.905 3 8.478V12.499C3 13.326 3.673 13.999 4.5 13.999C5.327 13.999 6 13.326 6 12.499V8.478C7.21 7.905 8 6.675 8 5.316C8 3.845 7.062 2.524 5.667 2.029ZM5.334 7.673C5.134 7.743 5 7.933 5 8.145V12.5C5 12.775 4.775 13 4.5 13C4.225 13 4 12.775 4 12.5V8.145C4 7.933 3.866 7.744 3.666 7.673C2.67 7.321 2 6.374 2 5.317C2 4.525 2.383 3.794 3 3.33V4.317C3 5.144 3.673 5.817 4.5 5.817C5.327 5.817 6 5.144 6 4.317V3.33C6.617 3.794 7 4.525 7 5.317C7 6.375 6.33 7.322 5.334 7.673Z"/><path d="M13.5 8H13V5.118L13.447 4.223C13.507 4.105 13.516 3.967 13.474 3.841L12.974 2.341C12.906 2.137 12.714 1.999 12.499 1.999H10.499C10.284 1.999 10.093 2.137 10.024 2.341L9.524 3.841C9.482 3.967 9.492 4.105 9.551 4.223L9.998 5.118V8H9.498C9.222 8 8.998 8.224 8.998 8.5V11.5C8.998 12.879 10.119 14 11.498 14C12.877 14 13.998 12.879 13.998 11.5V8.5C13.998 8.224 13.774 8 13.498 8H13.5ZM10.947 4.776L10.54 3.962L10.86 3H12.139L12.459 3.962L12.052 4.776C12.018 4.845 11.999 4.922 11.999 5V8H10.999V5C10.999 4.923 10.981 4.846 10.947 4.776ZM13 11.5C13 12.327 12.327 13 11.5 13C10.673 13 10 12.327 10 11.5V11H13V11.5ZM13 10H10V9H13V10Z"/></svg>