<svg width="16" height="16" viewBox="0 0 16 16" xmlns="http://www.w3.org/2000/svg" fill="currentColor"><path fill-rule="evenodd" clip-rule="evenodd" d="M5 2.5C5 2.224 5.224 2 5.5 2C5.669 2 8 2.747 8 5.329C8 6.726 7.182 7.931 6 8.492V12.5C6 13.328 5.328 14 4.5 14C3.672 14 3 13.328 3 12.5V8.492C1.818 7.931 1 6.726 1 5.329C1 2.756 3.358 2 3.5 2C3.776 2 4 2.224 4 2.5V4.829C4 5.105 4.224 5.329 4.5 5.329C4.776 5.329 5 5.105 5 4.829V2.5ZM5 8.158C5 7.946 5.133 7.758 5.333 7.687C6.305 7.343 7 6.417 7 5.329C7 4.512 6.607 3.785 6 3.329V4.829C6 5.657 5.328 6.329 4.5 6.329C3.672 6.329 3 5.657 3 4.829V3.329C2.393 3.785 2 4.512 2 5.329C2 6.417 2.695 7.344 3.667 7.687C3.866 7.757 4 7.946 4 8.158V12.499C4 12.775 4.224 12.999 4.5 12.999C4.776 12.999 5 12.775 5 12.499V8.158Z"/><path fill-rule="evenodd" clip-rule="evenodd" d="M13 8H13.5C13.776 8 14 8.224 14 8.5V11.5C14 12.878 12.879 14 11.5 14C10.121 14 9 12.878 9 11.5V8.5C9 8.224 9.224 8 9.5 8H10V5.096L9.536 3.935C9.488 3.816 9.488 3.683 9.536 3.564L10.036 2.314C10.112 2.124 10.296 2 10.5 2H12.5C12.704 2 12.888 2.124 12.964 2.314L13.464 3.564C13.512 3.683 13.512 3.816 13.464 3.935L13 5.096V8ZM12.162 3H10.839L10.538 3.75L10.964 4.814C10.988 4.873 11 4.936 11 5V8H12V5C12 4.936 12.012 4.873 12.036 4.814L12.462 3.75L12.162 3ZM13 9H10V10H13V9ZM11.5 13C12.327 13 13 12.327 13 11.5V11H10V11.5C10 12.327 10.673 13 11.5 13Z"/></svg>