<svg width="18" height="18" viewBox="0 0 18 18" xmlns="http://www.w3.org/2000/svg" fill="currentColor"><path d="M6.66901 2C6.52101 1.946 6.34701 1.969 6.21401 2.062C6.08101 2.155 6.00201 2.308 6.00201 2.47V4.286C6.00201 4.561 5.77701 4.786 5.50201 4.786C5.22701 4.786 5.00201 4.561 5.00201 4.286V2.47C5.00201 2.308 4.92301 2.156 4.79001 2.062C4.65801 1.968 4.48501 1.946 4.33501 2C2.93901 2.495 2.00201 3.816 2.00201 5.287C2.00201 6.646 2.79201 7.876 4.00201 8.449V14.5C4.00201 15.327 4.67501 16 5.50201 16C6.32901 16 7.00201 15.327 7.00201 14.5V8.449C8.21201 7.876 9.00201 6.646 9.00201 5.287C9.00201 3.816 8.06401 2.495 6.66901 2ZM6.33601 7.644C6.13601 7.714 6.00201 7.904 6.00201 8.116V14.501C6.00201 14.776 5.77701 15.001 5.50201 15.001C5.22701 15.001 5.00201 14.776 5.00201 14.501V8.116C5.00201 7.904 4.86801 7.715 4.66801 7.644C3.67201 7.292 3.00201 6.345 3.00201 5.288C3.00201 4.496 3.38501 3.765 4.00201 3.301V4.288C4.00201 5.115 4.67501 5.788 5.50201 5.788C6.32901 5.788 7.00201 5.115 7.00201 4.288V3.301C7.61901 3.765 8.00201 4.496 8.00201 5.288C8.00201 6.346 7.33201 7.293 6.33601 7.644ZM14.5 9H14.002V5.118L14.449 4.223C14.509 4.105 14.518 3.967 14.476 3.841L13.976 2.341C13.908 2.137 13.716 1.999 13.501 1.999H11.501C11.286 1.999 11.095 2.137 11.026 2.341L10.526 3.841C10.484 3.967 10.494 4.105 10.553 4.223L11 5.118V9H10.5C10.224 9 10 9.224 10 9.5V13.5C10 14.879 11.121 16 12.5 16C13.879 16 15 14.879 15 13.5V9.5C15 9.224 14.776 9 14.5 9ZM11.862 3.001H13.141L13.461 3.963L13.054 4.777C13.02 4.846 13.001 4.923 13.001 5.001V9.001H12.001V5.001C12.001 4.924 11.983 4.847 11.949 4.777L11.542 3.963L11.862 3.001ZM14.002 13.5C14.002 14.327 13.329 15 12.502 15C11.675 15 11.002 14.327 11.002 13.5V10H14.002V13.5Z"/></svg>