<svg width="16" height="16" viewBox="0 0 16 16" xmlns="http://www.w3.org/2000/svg" fill="currentColor"><path d="M5.66901 0.999997C5.52101 0.945997 5.34701 0.968997 5.21401 1.062C5.08101 1.155 5.00201 1.308 5.00201 1.47V3.286C5.00201 3.561 4.77701 3.786 4.50201 3.786C4.22701 3.786 4.00201 3.561 4.00201 3.286V1.47C4.00201 1.308 3.92301 1.156 3.79001 1.062C3.65801 0.967997 3.48501 0.945997 3.33501 0.999997C1.93901 1.495 1.00201 2.816 1.00201 4.287C1.00201 5.646 1.79201 6.876 3.00201 7.449V13.5C3.00201 14.327 3.67501 15 4.50201 15C5.32901 15 6.00201 14.327 6.00201 13.5V7.449C7.21201 6.876 8.00201 5.646 8.00201 4.287C8.00201 2.816 7.06401 1.495 5.66901 0.999997ZM5.33601 6.644C5.13601 6.714 5.00201 6.904 5.00201 7.116V13.501C5.00201 13.776 4.77701 14.001 4.50201 14.001C4.22701 14.001 4.00201 13.776 4.00201 13.501V7.116C4.00201 6.904 3.86801 6.715 3.66801 6.644C2.67201 6.292 2.00201 5.345 2.00201 4.288C2.00201 3.496 2.38501 2.765 3.00201 2.301V3.288C3.00201 4.115 3.67501 4.788 4.50201 4.788C5.32901 4.788 6.00201 4.115 6.00201 3.288V2.301C6.61901 2.765 7.00201 3.496 7.00201 4.288C7.00201 5.346 6.33201 6.293 5.33601 6.644ZM13.5 8H13.002V4.118L13.449 3.223C13.509 3.105 13.518 2.967 13.476 2.841L12.976 1.341C12.908 1.137 12.716 0.998997 12.501 0.998997H10.501C10.286 0.998997 10.095 1.137 10.026 1.341L9.52601 2.841C9.48401 2.967 9.49401 3.105 9.55301 3.223L10 4.118V8H9.50001C9.22401 8 9.00001 8.224 9.00001 8.5V12.5C9.00001 13.879 10.121 15 11.5 15C12.879 15 14 13.879 14 12.5V8.5C14 8.224 13.776 8 13.5 8ZM10.862 2.001H12.141L12.461 2.963L12.054 3.777C12.02 3.846 12.001 3.923 12.001 4.001V8.001H11.001V4.001C11.001 3.924 10.983 3.847 10.949 3.777L10.542 2.963L10.862 2.001ZM13.002 12.5C13.002 13.327 12.329 14 11.502 14C10.675 14 10.002 13.327 10.002 12.5V9H13.002V12.5Z"/></svg>