<svg width="16" height="16" viewBox="0 0 16 16" xmlns="http://www.w3.org/2000/svg" fill="currentColor"><path d="M11.854 10.146C12.049 10.341 12.049 10.658 11.854 10.853L8.35401 14.353C8.15901 14.548 7.84201 14.548 7.64701 14.353L4.14701 10.853C3.95201 10.658 3.95201 10.341 4.14701 10.146C4.34201 9.95098 4.65901 9.95098 4.85401 10.146L8.00001 13.293L11.146 10.146C11.341 9.95098 11.658 9.95098 11.853 10.146H11.854ZM4.85401 5.85398L8.00001 2.70798L11.146 5.85398C11.341 6.04898 11.658 6.04898 11.853 5.85398C12.048 5.65898 12.048 5.34198 11.853 5.14698L8.35301 1.64698C8.15801 1.45198 7.84101 1.45198 7.64601 1.64698L4.14601 5.14698C3.95101 5.34198 3.95101 5.65898 4.14601 5.85398C4.34101 6.04898 4.65901 6.04898 4.85401 5.85398Z"/></svg>