<svg width="16" height="16" viewBox="0 0 16 16" fill="none" xmlns="http://www.w3.org/2000/svg">
<path fill-rule="evenodd" clip-rule="evenodd" d="M7.53 6.51V2.51L6.53 3.51L5.82 2.8L7.65 1H8.36L10.2 2.83L9.49 3.53L8.49 2.53V6.51H7.53ZM7.53 9.48999V13.49L6.53 12.49L5.82 13.2L7.65 15H8.36L10.2 13.17L9.49 12.47L8.49 13.47V9.48999H7.53ZM13.73 4L14 5.02L10.32 7.95L14 10.98L13.73 12H9.53V11H12.53L9.55 8.57H6.54L3.45 11H6.53V12H2.27L2 10.98L5.68 8.06L2 5.02L2.27 4H6.53V5H3.45L6.45 7.42H9.46L12.53 5H9.53V4H13.73Z" fill="white"/>
</svg>
