<svg width="16" height="16" viewBox="0 0 16 16" xmlns="http://www.w3.org/2000/svg" fill="currentColor"><path d="M13.825 11.121C13.984 11.257 14.042 11.477 13.969 11.674C13.897 11.87 13.709 12.001 13.5 12.001H9V11.001H12.148L9.815 9.00098H5.184L2.851 11.001H5.999V12.001H1.5C1.291 12.001 1.104 11.871 1.031 11.674C0.958003 11.478 1.015 11.257 1.175 11.121L4.232 8.49998L1.175 5.87898C1.016 5.74298 0.958003 5.52298 1.031 5.32598C1.103 5.12998 1.291 4.99898 1.5 4.99898H6V5.99898H2.852L5.185 7.99898H9.816L12.149 5.99898H9.001V4.99898H13.501C13.71 4.99898 13.897 5.12898 13.97 5.32598C14.043 5.52198 13.986 5.74298 13.826 5.87898L10.769 8.49998L13.826 11.121H13.825ZM5.854 3.85398L7 2.70798V6.50098C7 6.77698 7.224 7.00098 7.5 7.00098C7.776 7.00098 8 6.77698 8 6.50098V2.70798L9.146 3.85398C9.244 3.95198 9.372 3.99998 9.5 3.99998C9.628 3.99998 9.756 3.95098 9.854 3.85398C10.049 3.65898 10.049 3.34198 9.854 3.14698L7.854 1.14698C7.659 0.951982 7.342 0.951982 7.147 1.14698L5.147 3.14698C4.952 3.34198 4.952 3.65898 5.147 3.85398C5.342 4.04898 5.659 4.04898 5.854 3.85398ZM9.146 13.146L8 14.292V10.499C8 10.223 7.776 9.99898 7.5 9.99898C7.224 9.99898 7 10.223 7 10.499V14.292L5.854 13.146C5.659 12.951 5.342 12.951 5.147 13.146C4.952 13.341 4.952 13.658 5.147 13.853L7.147 15.853C7.245 15.951 7.373 15.999 7.501 15.999C7.629 15.999 7.757 15.95 7.855 15.853L9.855 13.853C10.05 13.658 10.05 13.341 9.855 13.146C9.66 12.951 9.343 12.951 9.148 13.146H9.146Z"/></svg>