<svg width="18" height="18" viewBox="0 0 18 18" xmlns="http://www.w3.org/2000/svg" fill="currentColor"><path d="M9 10C9.55228 10 10 10.4477 10 11C10 11.5523 9.55228 12 9 12C8.44772 12 8 11.5523 8 11C8 10.4477 8.44772 10 9 10Z"/><path fill-rule="evenodd" clip-rule="evenodd" d="M14 2C15.654 2 17 3.346 17 5V5.5C17 5.776 16.776 6 16.5 6C16.224 6 16 5.776 16 5.5V5C16 3.897 15.103 3 14 3C12.897 3 12 3.897 12 5V7H13C14.103 7 15 7.897 15 9V14C15 15.103 14.103 16 13 16H5C3.897 16 3 15.103 3 14V9C3 7.897 3.897 7 5 7H11V5C11 3.346 12.346 2 14 2ZM5 8C4.449 8 4 8.449 4 9V14C4 14.551 4.449 15 5 15H13C13.551 15 14 14.551 14 14V9C14 8.449 13.551 8 13 8H5Z"/></svg>