<svg width="16" height="16" viewBox="0 0 16 16" xmlns="http://www.w3.org/2000/svg" fill="currentColor"><path d="M8.69398 2.03934C8.8792 2.11749 8.99961 2.29898 8.99961 2.50001V13.5C8.99961 13.7014 8.87875 13.8832 8.693 13.9611C8.50725 14.039 8.29289 13.9978 8.14921 13.8567L5.22278 10.9817H3.49963C2.67121 10.9817 1.99963 10.3101 1.99963 9.48172V6.49273C1.99963 5.66431 2.67121 4.99273 3.49963 4.99273H5.22402L8.15073 2.14185C8.29474 2.00157 8.50875 1.96119 8.69398 2.03934ZM7.99961 3.68507L5.77617 5.85089C5.68281 5.94184 5.55763 5.99273 5.42729 5.99273H3.49963C3.22349 5.99273 2.99963 6.21659 2.99963 6.49273V9.48172C2.99963 9.75786 3.22349 9.98172 3.49963 9.98172H5.42729C5.55836 9.98172 5.68419 10.0332 5.77769 10.125L7.99961 12.3079V3.68507ZM10.1109 5.18874C10.2828 4.97264 10.5973 4.93682 10.8135 5.10873L10.8143 5.1094L10.8152 5.11015L10.8174 5.11188L10.8228 5.11628L10.8377 5.12882C10.8495 5.13885 10.8648 5.15224 10.8831 5.16904C10.9197 5.20261 10.9685 5.2499 11.0254 5.31119C11.1389 5.43362 11.2853 5.61296 11.4303 5.85143C11.7218 6.33096 12.0039 7.04439 12.0039 7.99855C12.0039 8.95268 11.7218 9.66687 11.4305 10.1471C11.2857 10.3859 11.1393 10.5657 11.0259 10.6884C10.9692 10.7498 10.9204 10.7973 10.8839 10.8309C10.8642 10.849 10.8441 10.8666 10.8236 10.8838L10.8152 10.8907L10.8143 10.8914C10.8143 10.8914 10.368 11.1337 10.1116 10.8129C9.94006 10.5983 9.97396 10.2858 10.1868 10.1128L10.1883 10.1115L10.1876 10.1122L10.1892 10.1108L10.1883 10.1115C10.1912 10.109 10.1975 10.1036 10.2066 10.0952C10.2248 10.0784 10.2543 10.05 10.2914 10.0098C10.3659 9.92923 10.47 9.80248 10.5755 9.62847C10.7851 9.28301 11.0039 8.74609 11.0039 7.99855C11.0039 7.25106 10.7851 6.71522 10.5758 6.3709C10.4703 6.19744 10.3663 6.07121 10.292 5.99105C10.2549 5.95104 10.2255 5.92278 10.2073 5.90613C10.1982 5.89781 10.192 5.89242 10.1891 5.88995L10.1901 5.89071C9.97439 5.71873 9.93908 5.40472 10.1109 5.18874ZM11.8127 3.10886C11.5966 2.93686 11.2821 2.97255 11.1101 3.18858C10.9382 3.40451 10.9743 3.71932 11.19 3.89138L11.2011 3.9006C11.2119 3.90975 11.2295 3.92484 11.2528 3.94582C11.2994 3.98781 11.369 4.05318 11.4538 4.14133C11.6239 4.31792 11.8537 4.58411 12.0841 4.93509C12.5446 5.63643 13.0029 6.66847 13.0029 8.00405C13.0029 9.33953 12.5446 10.3694 12.0845 11.0685C11.8541 11.4184 11.6244 11.6835 11.4545 11.8593C11.3697 11.947 11.3002 12.0121 11.2536 12.0538C11.2303 12.0747 11.2128 12.0897 11.202 12.0988L11.1904 12.1083L11.1895 12.1091C10.9742 12.2808 10.9382 12.5945 11.1093 12.8105C11.2808 13.0269 11.596 13.0628 11.8125 12.8913L11.8455 12.8642C11.864 12.8487 11.8895 12.8268 11.9209 12.7986C11.9838 12.7423 12.0707 12.6607 12.1735 12.5543C12.3789 12.3418 12.6496 12.0286 12.9197 11.6183C13.4604 10.797 14.0029 9.57884 14.0029 8.00405C14.0029 6.42934 13.4605 5.20938 12.9201 4.38627C12.6501 3.97503 12.3795 3.66089 12.1742 3.4477C12.0714 3.34097 11.9846 3.25908 11.9217 3.20255C11.8903 3.17426 11.8649 3.15228 11.8464 3.13665L11.8239 3.11798L11.8169 3.11222L11.8144 3.11024L11.8127 3.10886ZM10.1891 5.88995L10.1877 5.88874L10.1891 5.88995Z"/></svg>