<svg width="16" height="16" viewBox="0 0 16 16" fill="none" xmlns="http://www.w3.org/2000/svg">
<path fill-rule="evenodd" clip-rule="evenodd" d="M1.5 4.83H4.29L8.15 1L9 1.35V14.35L8.15 14.68L4.29 10.83H1.5L1 10.33V5.33L1.5 4.83ZM4.85 10L8 13.14V2.56L4.85 5.68L4.5 5.83H2V9.83H4.5L4.85 10ZM15.0002 7.83C15.0002 9.51007 14.4084 11.0519 13.4217 12.2583L12.7105 11.5471C13.5181 10.525 14.0002 9.2338 14.0002 7.83C14.0002 6.42969 13.5205 5.14143 12.7165 4.12057L13.4279 3.40918C14.4108 4.61451 15.0002 6.15342 15.0002 7.83ZM13.0002 7.83C13.0002 8.95745 12.6271 9.99774 11.9975 10.8341L11.2816 10.1182C11.7345 9.46979 12.0002 8.68092 12.0002 7.83C12.0002 6.98259 11.7367 6.19673 11.2872 5.54989L12.0034 4.83369C12.6294 5.66872 13.0002 6.70605 13.0002 7.83ZM11.0002 7.83C11.0002 8.40394 10.8391 8.94024 10.5595 9.3961L9.82135 8.65795C9.93624 8.40565 10.0002 8.1253 10.0002 7.83C10.0002 7.53836 9.93781 7.26131 9.82561 7.01146L10.5647 6.27238C10.8411 6.72641 11.0002 7.25961 11.0002 7.83Z" fill="white"/>
</svg>
