<svg width="16" height="16" viewBox="0 0 16 16" xmlns="http://www.w3.org/2000/svg" fill="currentColor"><path d="M4.311 7.35698C4.39 7.09298 4.666 6.94098 4.933 7.02098V7.02298C5.198 7.10198 5.348 7.37998 5.269 7.64498C5.09 8.24398 5 8.86898 5 9.50198C5 10.135 5.09 10.76 5.269 11.359C5.348 11.624 5.198 11.902 4.933 11.981C4.885 11.995 4.837 12.002 4.79 12.002C4.574 12.002 4.375 11.862 4.311 11.645C4.104 10.953 4 10.232 4 9.50098C4 8.76998 4.104 8.04898 4.311 7.35698Z"/><path d="M11.689 7.35601C11.61 7.09201 11.334 6.94001 11.067 7.02001C10.802 7.09901 10.652 7.37701 10.731 7.64201C10.91 8.24101 11 8.86601 11 9.49901C11 10.132 10.91 10.757 10.731 11.356C10.652 11.621 10.802 11.899 11.067 11.978C11.115 11.992 11.163 11.999 11.21 11.999C11.426 11.999 11.625 11.859 11.689 11.642C11.896 10.95 12 10.229 12 9.49801C12 8.76701 11.896 8.04601 11.689 7.35401V7.35601Z"/><path d="M9.14701 7.64601C9.34201 7.45101 9.65901 7.45101 9.85401 7.64601C10.049 7.84101 10.05 8.15801 9.85501 8.35301L8.64501 9.56301L9.07901 10.215L9.14801 10.146C9.34301 9.95101 9.66001 9.95101 9.85501 10.146C10.05 10.341 10.05 10.658 9.85501 10.853L9.35501 11.353C9.26001 11.447 9.13301 11.499 9.00101 11.499C8.98588 11.499 8.97076 11.4981 8.9548 11.4972L8.95201 11.497C8.80301 11.483 8.66801 11.402 8.58501 11.277L7.92301 10.284L6.85401 11.353C6.75601 11.45 6.62801 11.499 6.50001 11.499C6.37201 11.499 6.24401 11.451 6.14601 11.353C5.95101 11.158 5.95101 10.841 6.14601 10.646L7.35601 9.43601L6.92201 8.78401L6.85301 8.85301C6.65801 9.04801 6.34101 9.04801 6.14601 8.85301C5.95101 8.65801 5.95101 8.34101 6.14601 8.14601L6.64601 7.64601C6.75201 7.54001 6.89701 7.49101 7.04901 7.50201C7.19801 7.51601 7.33301 7.59701 7.41601 7.72201L8.07801 8.71501L9.14701 7.64601Z"/><path fill-rule="evenodd" clip-rule="evenodd" d="M2 4.5C2 3.119 3.119 2 4.5 2H11.5C12.881 2 14 3.119 14 4.5V11.5C14 12.881 12.881 14 11.5 14H4.5C3.119 14 2 12.881 2 11.5V4.5ZM3 5H13V4.5C13 3.672 12.328 3 11.5 3H4.5C3.672 3 3 3.672 3 4.5V5ZM13 6H3V11.5C3 12.328 3.672 13 4.5 13H11.5C12.328 13 13 12.328 13 11.5V6Z"/></svg>