<svg width="18" height="18" viewBox="0 0 18 18" xmlns="http://www.w3.org/2000/svg" fill="currentColor"><path d="M5.93262 8.02051V8.02344C6.19752 8.10241 6.34736 8.37962 6.26855 8.64453C6.08956 9.24352 6 9.86896 6 10.502C6 11.135 6.08955 11.7604 6.26855 12.3594C6.34739 12.6243 6.19754 12.9025 5.93262 12.9814C5.88479 12.9953 5.83687 13.0019 5.79004 13.002C5.57404 13.002 5.37455 12.8615 5.31055 12.6445C5.10365 11.9527 5 11.2318 5 10.501C5 9.77016 5.10365 9.04926 5.31055 8.35742C5.3895 8.09358 5.66577 7.94083 5.93262 8.02051Z"/><path d="M12.0674 8.01953C12.3342 7.93984 12.6105 8.0926 12.6895 8.35645V8.35449C12.8963 9.04632 13 9.76724 13 10.498C13 11.2289 12.8964 11.9498 12.6895 12.6416C12.6255 12.8586 12.426 12.999 12.21 12.999C12.163 12.999 12.1153 12.9915 12.0674 12.9775C11.8025 12.8986 11.6526 12.6214 11.7314 12.3564C11.9104 11.7575 12 11.132 12 10.499C12 9.86602 11.9104 9.2406 11.7314 8.6416C11.6526 8.37668 11.8025 8.09851 12.0674 8.01953Z"/><path d="M10.1484 8.64648C10.3434 8.45148 10.6615 8.45148 10.8555 8.64648C11.0488 8.84137 11.0498 9.15766 10.8555 9.35254L9.64453 10.5635L10.0791 11.2148L10.1484 11.1465C10.3434 10.9515 10.6605 10.9515 10.8555 11.1465C11.0498 11.3414 11.0498 11.6577 10.8555 11.8525L10.3555 12.3525C10.2605 12.4465 10.133 12.499 10.001 12.499C9.98601 12.499 9.97104 12.4981 9.95508 12.4971H9.95215C9.80324 12.4831 9.66797 12.4022 9.58496 12.2773L8.92285 11.2842L7.85352 12.3525C7.75552 12.4495 7.62799 12.499 7.5 12.499C7.372 12.499 7.24351 12.4505 7.14551 12.3525C6.95098 12.1575 6.95262 11.8413 7.14746 11.6465L8.35742 10.4355L7.92285 9.78418L7.85352 9.85254C7.65852 10.0475 7.34246 10.0475 7.14746 9.85254C6.95246 9.65754 6.95246 9.34148 7.14746 9.14648L7.64746 8.64648C7.75342 8.54053 7.89787 8.491 8.0498 8.50195C8.19872 8.51594 8.33398 8.59681 8.41699 8.72168L9.0791 9.71484L10.1484 8.64648Z"/><path fill-rule="evenodd" clip-rule="evenodd" d="M13 2C14.657 2 16 3.343 16 5V13C16 14.657 14.657 16 13 16H5C3.343 16 2 14.657 2 13V5C2 3.343 3.343 2 5 2H13ZM3 6V13C3 14.105 3.895 15 5 15H13C14.105 15 15 14.105 15 13V6H3ZM5 3C3.895 3 3 3.895 3 5H15C15 3.895 14.105 3 13 3H5Z"/></svg>