<svg width="13" height="14" viewBox="0 0 13 14" fill="none" xmlns="http://www.w3.org/2000/svg">
<path d="M12.5406 10.8111L11.4006 7.69097V7.63103L6.4906 2.721V1.48101C6.48888 1.28265 6.45164 1.08626 6.38062 0.901051C6.30282 0.718961 6.18926 0.554336 6.04669 0.41692C5.90412 0.279505 5.73543 0.172045 5.5506 0.101002C5.36637 0.0275289 5.16878 -0.00651164 4.97058 0.00102663C4.77493 -0.00313664 4.58063 0.0343449 4.40057 0.111012C4.221 0.184909 4.05784 0.293647 3.92053 0.430958C3.78322 0.56827 3.67448 0.731483 3.60059 0.911061C3.52392 1.09111 3.48644 1.28536 3.4906 1.48101V4.74102L0.430603 7.74102C0.154495 8.02478 0 8.40515 0 8.80107C0 9.197 0.154495 9.57724 0.430603 9.86101L4.06061 13.491C4.20062 13.6322 4.36713 13.7443 4.5506 13.821C4.91641 13.9678 5.3248 13.9678 5.69061 13.821C5.87408 13.7443 6.04059 13.6322 6.1806 13.491L11.1106 8.57097L10.4506 10.771C10.4207 10.9229 10.4207 11.0791 10.4506 11.231C10.4827 11.3831 10.5475 11.5265 10.6406 11.6511C10.7375 11.772 10.8562 11.8737 10.9906 11.951C11.1309 12.021 11.284 12.0618 11.4406 12.071C11.6056 12.0811 11.7705 12.0502 11.9206 11.981C12.0699 11.9135 12.203 11.8145 12.3106 11.691C12.4194 11.5649 12.495 11.4137 12.5306 11.251C12.562 11.1063 12.5654 10.957 12.5406 10.8111ZM4.54059 1.48101C4.52592 1.41515 4.52592 1.34692 4.54059 1.28106C4.56873 1.21688 4.60954 1.15901 4.66058 1.11101C4.71479 1.06818 4.77557 1.03444 4.84058 1.01104C4.90979 0.996171 4.98139 0.996171 5.0506 1.01104C5.17197 1.02042 5.28576 1.07377 5.37061 1.16106C5.44919 1.25294 5.49181 1.37013 5.4906 1.49102V2.75103L4.4906 3.75103L4.54059 1.48101ZM5.54059 12.831C5.49834 12.8816 5.44302 12.9196 5.38062 12.941C5.32077 12.9674 5.25605 12.9811 5.19061 12.9811C5.12518 12.9811 5.06046 12.9674 5.00061 12.941C4.93821 12.9196 4.88283 12.8816 4.84058 12.831L1.21057 9.21099C1.16502 9.16434 1.12783 9.11031 1.10059 9.05107C1.07446 8.98938 1.06104 8.923 1.06104 8.85601C1.06104 8.78901 1.07446 8.72275 1.10059 8.66106C1.12783 8.60183 1.16502 8.54768 1.21057 8.50103L5.56061 4.15105V7.00103C5.48441 7.07086 5.42366 7.15593 5.38232 7.25066C5.34099 7.34539 5.31999 7.44772 5.32062 7.55108C5.30842 7.68269 5.33123 7.81515 5.38672 7.93511C5.44221 8.05507 5.5284 8.15826 5.6366 8.23418C5.74479 8.3101 5.87112 8.3561 6.00281 8.36748C6.13449 8.37886 6.26686 8.35523 6.38647 8.299C6.50609 8.24277 6.60871 8.15595 6.68396 8.04729C6.75921 7.93863 6.80443 7.81198 6.815 7.68023C6.82557 7.54847 6.80111 7.41619 6.74414 7.29693C6.68717 7.17766 6.59972 7.07561 6.4906 7.00103V4.17107L10.3406 8.04107L5.54059 12.831Z" fill="white"/>
</svg>
