<svg width="16" height="16" viewBox="0 0 16 16" xmlns="http://www.w3.org/2000/svg" fill="currentColor"><path d="M11.335 2.06526L11.4114 2.21783L11.9879 3.75081C12.0332 3.87153 12.1284 3.96679 12.2492 4.01208L13.7292 4.56735C14.3787 4.81102 14.7278 5.50506 14.5547 6.16172L14.5131 6.2924L13.8245 7.81523C13.7712 7.93262 13.7712 8.06733 13.8245 8.18472L14.4784 9.62393C14.7654 10.2555 14.5214 10.9931 13.9347 11.335L13.7822 11.4114L12.2492 11.9879C12.1284 12.0332 12.0332 12.1284 11.9879 12.2491L11.4326 13.7292C11.189 14.3787 10.4949 14.7277 9.83826 14.5547L9.70758 14.513L8.18475 13.8245C8.06736 13.7711 7.93265 13.7711 7.81526 13.8245L6.37605 14.4784C5.74448 14.7654 5.00693 14.5214 4.66498 13.9347L4.58856 13.7821L4.01211 12.2491C3.96682 12.1284 3.87156 12.0332 3.75084 11.9879L2.27076 11.4326C1.62126 11.1889 1.27224 10.4949 1.44531 9.83823L1.48695 9.70755L2.17552 8.18472C2.22886 8.06733 2.22886 7.93262 2.17552 7.81523L1.52159 6.37602C1.23462 5.74445 1.47858 5.0069 2.06529 4.66495L2.21786 4.58853L3.75084 4.01208C3.87156 3.96679 3.96682 3.87153 4.01211 3.75081L4.56738 2.27073C4.81105 1.62123 5.50509 1.27221 6.16175 1.44528L6.29243 1.48692L7.81526 2.17549C7.93265 2.22883 8.06736 2.22883 8.18475 2.17549L9.62396 1.52156C10.2555 1.23459 10.9931 1.47855 11.335 2.06526ZM5.40367 2.58448L4.84839 4.06455C4.71252 4.42672 4.42675 4.71249 4.06458 4.84836L2.58451 5.40364L2.48653 5.45494C2.31249 5.57555 2.24409 5.80692 2.33479 6.00653L2.98872 7.44574C3.14873 7.7979 3.14873 8.20204 2.98872 8.55421L2.32878 10.0073L2.30178 10.099C2.264 10.3073 2.37924 10.5193 2.58451 10.5963L4.06458 11.1516C4.42675 11.2875 4.71252 11.5732 4.84839 11.9354L5.40367 13.4155L5.45497 13.5135C5.57558 13.6875 5.80695 13.7559 6.00656 13.6652L7.44577 13.0113C7.79793 12.8512 8.20207 12.8512 8.55424 13.0113L10.0073 13.6712L10.099 13.6982C10.3074 13.736 10.5193 13.6207 10.5963 13.4155L11.1516 11.9354C11.2875 11.5732 11.5733 11.2875 11.9354 11.1516L13.4155 10.5963L13.5135 10.545C13.6875 10.4244 13.7559 10.193 13.6652 9.99342L13.0113 8.55421C12.8513 8.20204 12.8513 7.7979 13.0113 7.44574L13.6712 5.99269L13.6982 5.90097C13.736 5.69262 13.6208 5.48065 13.4155 5.40364L11.9354 4.84836C11.5733 4.71249 11.2875 4.42672 11.1516 4.06455L10.5963 2.58448L10.545 2.4865C10.4244 2.31246 10.1931 2.24406 9.99345 2.33476L8.55424 2.98869C8.20207 3.1487 7.79793 3.1487 7.44577 2.98869L6.00656 2.33476L5.97869 2.32321C5.74775 2.23657 5.49031 2.35355 5.40367 2.58448ZM6.97825 9.34663L10.1639 5.70588C10.3263 5.52026 10.6085 5.50145 10.7941 5.66387C10.9565 5.80599 10.9912 6.03977 10.8885 6.22035L10.8361 6.29406L7.33611 10.2941C7.18725 10.4642 6.93964 10.4931 6.75769 10.3753L6.68421 10.3158L5.18421 8.81577C5.0098 8.64136 5.0098 8.35859 5.18421 8.18418C5.33682 8.03157 5.57239 8.0125 5.74574 8.12695L5.8158 8.18418L6.97825 9.34663L10.1639 5.70588L6.97825 9.34663Z"/></svg>