<svg width="18" height="18" viewBox="0 0 18 18" xmlns="http://www.w3.org/2000/svg" fill="currentColor"><path d="M11.5 16C12.878 16 14 14.879 14 13.5V6.5C14 5.121 12.878 4 11.5 4H4.5C3.122 4 2 5.121 2 6.5V13.5C2 14.879 3.122 16 4.5 16H11.5ZM4.5 5H11.5C12.327 5 13 5.673 13 6.5V7H3V6.5C3 5.673 3.673 5 4.5 5ZM3 13.5V8H13V13.5C13 14.327 12.327 15 11.5 15H4.5C3.673 15 3 14.327 3 13.5ZM6.5 2H11.5C13.98 2 16 4.02 16 6.5V11.5C16 12.32 15.61 13.04 15 13.5V6.5C15 4.57 13.43 3 11.5 3H4.5C4.96 2.39 5.68 2 6.5 2Z"/></svg>