<svg width="16" height="16" viewBox="0 0 16 16" xmlns="http://www.w3.org/2000/svg" fill="currentColor"><path d="M4.5 4C3.119 4 2 5.119 2 6.5V11.5C2 12.881 3.119 14 4.5 14H9.5C10.881 14 12 12.881 12 11.5V6.5C12 5.119 10.881 4 9.5 4H4.5ZM10.915 6H3.085C3.291 5.417 3.847 5 4.5 5H9.5C10.153 5 10.709 5.417 10.915 6ZM3 7H11V11.5C11 12.328 10.328 13 9.5 13H4.5C3.672 13 3 12.328 3 11.5V7Z"/><path d="M14 9.5C14 10.318 13.607 11.044 13 11.5V6C13 4.343 11.657 3 10 3H4.5C4.956 2.393 5.682 2 6.5 2H10C12.209 2 14 3.791 14 6V9.5Z"/></svg>