<svg width="18" height="18" viewBox="0 0 18 18" xmlns="http://www.w3.org/2000/svg" fill="currentColor"><path d="M11.5 14C12.878 14 14 12.879 14 11.5V4.5C14 3.121 12.878 2 11.5 2H4.5C3.122 2 2 3.121 2 4.5V11.5C2 12.879 3.122 14 4.5 14H11.5ZM4.5 3H11.5C12.327 3 13 3.673 13 4.5V5H3V4.5C3 3.673 3.673 3 4.5 3ZM3 11.5V6H13V11.5C13 12.327 12.327 13 11.5 13H4.5C3.673 13 3 12.327 3 11.5ZM16 6.5V11.5C16 13.98 13.98 16 11.5 16H6.5C5.68 16 4.96 15.61 4.5 15H11.5C13.43 15 15 13.43 15 11.5V4.5C15.61 4.96 16 5.68 16 6.5Z"/></svg>