<svg width="16" height="16" viewBox="0 0 16 16" xmlns="http://www.w3.org/2000/svg" fill="currentColor"><path fill-rule="evenodd" clip-rule="evenodd" d="M11.5 16C13.985 16 16 13.985 16 11.5C16 9.015 13.985 7 11.5 7C9.015 7 7 9.015 7 11.5C7 13.985 9.015 16 11.5 16ZM13.854 10.353C14.049 10.158 14.049 9.841 13.854 9.646C13.659 9.451 13.342 9.451 13.147 9.646L10.501 12.292L9.855 11.646C9.66 11.451 9.343 11.451 9.148 11.646C8.953 11.841 8.953 12.158 9.148 12.353L10.148 13.353C10.343 13.548 10.66 13.548 10.855 13.353L13.855 10.353H13.854Z"/><path d="M6.607 14H6V12H6.025C6.01 11.835 6 11.669 6 11.5C6 11.331 6.01 11.165 6.025 11H3C2.448 11 2 10.552 2 10V3C2 2.448 2.448 2 3 2H13C13.552 2 14 2.448 14 3V6.607C14.357 6.79 14.693 7.007 15 7.261V3C15 1.895 14.105 1 13 1H3C1.895 1 1 1.895 1 3V10C1 11.105 1.895 12 3 12H5V14H3.5C3.224 14 3 14.224 3 14.5C3 14.776 3.224 15 3.5 15H7.261C7.007 14.693 6.79 14.357 6.607 14Z"/></svg>