<svg width="16" height="16" viewBox="0 0 16 16" xmlns="http://www.w3.org/2000/svg" fill="currentColor"><path d="M1 4C1 2.895 1.895 2 3 2H11.001C12.106 2 13.001 2.895 13.001 4V6.207C12.679 6.115 12.344 6.053 12.001 6.022V4C12.001 3.448 11.553 3 11.001 3H3.001C2.449 3 2.001 3.448 2.001 4V9.997C2.001 10.549 2.449 10.997 3.001 10.997H6.024C6.009 11.163 6.001 11.331 6.001 11.5C6.001 11.667 6.008 11.833 6.023 11.997H6.006V13.008H6.21C6.309 13.357 6.441 13.691 6.604 14.008H3.506C3.23 14.008 3.006 13.784 3.006 13.508C3.006 13.232 3.23 13.008 3.506 13.008H5.005V11.997H3C1.895 11.997 1 11.102 1 9.997V4Z"/><path fill-rule="evenodd" clip-rule="evenodd" d="M11.5 16C13.985 16 16 13.985 16 11.5C16 9.015 13.985 7 11.5 7C9.015 7 7 9.015 7 11.5C7 13.985 9.015 16 11.5 16ZM13.854 10.353C14.049 10.158 14.049 9.841 13.854 9.646H13.853C13.658 9.451 13.341 9.451 13.146 9.646L10.5 12.292L9.854 11.646C9.659 11.451 9.342 11.451 9.147 11.646C8.952 11.841 8.952 12.158 9.147 12.353L10.147 13.353C10.342 13.548 10.659 13.548 10.854 13.353L13.854 10.353Z"/></svg>