<svg width="18" height="18" viewBox="0 0 18 18" xmlns="http://www.w3.org/2000/svg" fill="currentColor"><path fill-rule="evenodd" clip-rule="evenodd" d="M12.5 17C14.985 17 17 14.985 17 12.5C17 10.015 14.985 8 12.5 8C10.015 8 8 10.015 8 12.5C8 14.985 10.015 17 12.5 17ZM14.854 11.353C15.049 11.158 15.049 10.841 14.854 10.646C14.659 10.451 14.342 10.451 14.147 10.646L11.501 13.292L10.855 12.646C10.66 12.451 10.343 12.451 10.148 12.646C9.953 12.841 9.953 13.158 10.148 13.353L11.148 14.353C11.343 14.548 11.66 14.548 11.855 14.353L14.855 11.353H14.854Z"/><path d="M7.607 15H7V13H7.025C7.01 12.835 7 12.669 7 12.5C7 12.331 7.01 12.165 7.025 12H4C3.448 12 3 11.552 3 11V4C3 3.448 3.448 3 4 3H14C14.552 3 15 3.448 15 4V7.607C15.357 7.79 15.693 8.007 16 8.261V4C16 2.895 15.105 2 14 2H4C2.895 2 2 2.895 2 4V11C2 12.105 2.895 13 4 13H6V15H4.5C4.224 15 4 15.224 4 15.5C4 15.776 4.224 16 4.5 16H8.261C8.007 15.693 7.79 15.357 7.607 15Z"/></svg>