<svg width="18" height="18" viewBox="0 0 18 18" xmlns="http://www.w3.org/2000/svg" fill="currentColor"><path fill-rule="evenodd" clip-rule="evenodd" d="M7.607 15C7.79 15.357 8.007 15.693 8.261 16H4.5C4.224 16 4 15.776 4 15.5C4 15.224 4.224 15 4.5 15H6V13H4C2.895 13 2 12.105 2 11V4C2 2.895 2.895 2 4 2H14C15.105 2 16 2.895 16 4V8.261C15.693 8.008 15.357 7.791 15 7.607V4C15 3.448 14.552 3 14 3H4C3.448 3 3 3.448 3 4V11C3 11.552 3.448 12 4 12H7.025C7.01 12.165 7 12.331 7 12.5C7 12.669 7.01 12.835 7.025 13H7V15H7.607ZM17 12.5C17 14.985 14.985 17 12.5 17C10.015 17 8 14.985 8 12.5C8 10.015 10.015 8 12.5 8C14.985 8 17 10.015 17 12.5ZM12.501 13.5C12.501 13.434 12.488 13.369 12.463 13.308C12.438 13.247 12.401 13.192 12.354 13.146L10.854 11.646C10.76 11.552 10.633 11.499 10.5 11.499C10.367 11.499 10.24 11.552 10.146 11.646C10.052 11.74 9.999 11.867 9.999 12C9.999 12.133 10.052 12.26 10.146 12.354L11.293 13.5L10.146 14.646C10.052 14.74 9.999 14.867 9.999 15C9.999 15.133 10.052 15.26 10.146 15.354C10.24 15.448 10.367 15.501 10.5 15.501C10.633 15.501 10.76 15.448 10.854 15.354L12.354 13.854C12.401 13.808 12.437 13.752 12.463 13.692C12.488 13.631 12.501 13.566 12.501 13.5ZM13.707 11.5L14.854 10.354C14.948 10.26 15.001 10.133 15.001 10C15.001 9.867 14.948 9.74 14.854 9.646C14.76 9.552 14.633 9.499 14.5 9.499C14.367 9.499 14.24 9.552 14.146 9.646L12.646 11.146C12.599 11.192 12.563 11.248 12.537 11.308C12.512 11.369 12.499 11.434 12.499 11.5C12.499 11.566 12.512 11.631 12.537 11.692C12.562 11.753 12.599 11.808 12.646 11.854L14.146 13.354C14.24 13.448 14.367 13.501 14.5 13.501C14.633 13.501 14.76 13.448 14.854 13.354C14.948 13.26 15.001 13.133 15.001 13C15.001 12.867 14.948 12.74 14.854 12.646L13.707 11.5Z"/></svg>