<svg width="16" height="16" viewBox="0 0 16 16" xmlns="http://www.w3.org/2000/svg" fill="currentColor"><path d="M3 2C1.89543 2 1 2.89543 1 4V9.99729C1 11.1019 1.89543 11.9973 3 11.9973H5.005V13.008L3.50598 13.008C3.22984 13.008 3.00598 13.2319 3.00599 13.508C3.00599 13.7841 3.22985 14.008 3.50599 14.008L6.60379 14.008C6.44122 13.6912 6.30849 13.3567 6.20929 13.008L6.005 13.008V11.9973H6.02218C6.0075 11.8335 6 11.6676 6 11.5C6 11.3305 6.00766 11.1628 6.02267 10.9973H3C2.44772 10.9973 2 10.5496 2 9.99729V4C2 3.44772 2.44772 3 3 3H11C11.5523 3 12 3.44772 12 4V6.02242C12.3434 6.05337 12.6777 6.11588 13 6.20703V4C13 2.89543 12.1046 2 11 2H3Z"/><path fill-rule="evenodd" d="M11.5 16C13.9853 16 16 13.9853 16 11.5C16 9.01472 13.9853 7 11.5 7C9.01472 7 7 9.01472 7 11.5C7 13.9853 9.01472 16 11.5 16ZM11.3539 12.146C11.4005 12.1925 11.4374 12.2476 11.4626 12.3084C11.4878 12.3691 11.5008 12.4343 11.5008 12.5C11.5008 12.5658 11.4878 12.6309 11.4626 12.6917C11.4374 12.7524 11.4005 12.8076 11.3539 12.854L9.8539 14.354C9.76001 14.4479 9.63268 14.5007 9.4999 14.5007C9.36712 14.5007 9.23979 14.4479 9.1459 14.354C9.05201 14.2601 8.99927 14.1328 8.99927 14C8.99927 13.8672 9.05201 13.7399 9.1459 13.646L10.2929 12.5L9.1459 11.354C9.05201 11.2601 8.99927 11.1328 8.99927 11C8.99927 10.8672 9.05201 10.7399 9.1459 10.646C9.23979 10.5521 9.36712 10.4994 9.4999 10.4994C9.63268 10.4994 9.76001 10.5521 9.8539 10.646L11.3539 12.146ZM12.7069 10.5L13.8539 9.35402C13.9478 9.26013 14.0005 9.1328 14.0005 9.00002C14.0005 8.86725 13.9478 8.73991 13.8539 8.64602C13.76 8.55213 13.6327 8.49939 13.4999 8.49939C13.3671 8.49939 13.2398 8.55213 13.1459 8.64602L11.6459 10.146C11.5993 10.1925 11.5624 10.2476 11.5372 10.3084C11.512 10.3691 11.499 10.4343 11.499 10.5C11.499 10.5658 11.512 10.6309 11.5372 10.6917C11.5624 10.7524 11.5993 10.8076 11.6459 10.854L13.1459 12.354C13.2398 12.4479 13.3671 12.5007 13.4999 12.5007C13.6327 12.5007 13.76 12.4479 13.8539 12.354C13.9478 12.2601 14.0005 12.1328 14.0005 12C14.0005 11.8672 13.9478 11.7399 13.8539 11.646L12.7069 10.5Z"/></svg>