<svg width="16" height="16" viewBox="0 0 16 16" xmlns="http://www.w3.org/2000/svg" fill="currentColor"><path d="M3 2C1.895 2 1 2.895 1 4V9.997C1 11.102 1.895 11.997 3 11.997H5.005V13.008H3.506C3.23 13.008 3.006 13.232 3.006 13.508C3.006 13.784 3.23 14.008 3.506 14.008H6.604C6.441 13.691 6.309 13.357 6.21 13.008H6.006V11.997H6.023C6.008 11.833 6.001 11.667 6.001 11.5C6.001 11.331 6.009 11.163 6.024 10.997H3.001C2.449 10.997 2.001 10.549 2.001 9.997V4C2.001 3.448 2.449 3 3.001 3H11.001C11.553 3 12.001 3.448 12.001 4V6.022C12.344 6.053 12.679 6.115 13.001 6.207V4C13.001 2.895 12.106 2 11.001 2H3Z"/><path d="M11.5 16C9.019 16 7 13.981 7 11.5C7 9.019 9.019 7 11.5 7C13.981 7 16 9.019 16 11.5C16 13.981 13.981 16 11.5 16ZM11.5 8C9.57 8 8 9.57 8 11.5C8 13.43 9.57 15 11.5 15C13.43 15 15 13.43 15 11.5C15 9.57 13.43 8 11.5 8Z"/></svg>