<svg width="18" height="18" viewBox="0 0 18 18" xmlns="http://www.w3.org/2000/svg" fill="currentColor"><path d="M7.607 15C7.79 15.357 8.007 15.693 8.261 16H4.5C4.224 16 4 15.776 4 15.5C4 15.224 4.224 15 4.5 15H6V13H4C2.895 13 2 12.105 2 11V4C2 2.895 2.895 2 4 2H14C15.105 2 16 2.895 16 4V8.261C15.693 8.008 15.357 7.791 15 7.607V4C15 3.448 14.552 3 14 3H4C3.448 3 3 3.448 3 4V11C3 11.552 3.448 12 4 12H7.025C7.01 12.165 7 12.331 7 12.5C7 12.669 7.01 12.835 7.025 13H7V15H7.607ZM17 12.5C17 14.981 14.981 17 12.5 17C10.019 17 8 14.981 8 12.5C8 10.019 10.019 8 12.5 8C14.981 8 17 10.019 17 12.5ZM16 12.5C16 10.57 14.43 9 12.5 9C10.57 9 9 10.57 9 12.5C9 14.43 10.57 16 12.5 16C14.43 16 16 14.43 16 12.5Z"/></svg>