<svg width="18" height="18" viewBox="0 0 18 18" xmlns="http://www.w3.org/2000/svg" fill="currentColor"><path d="M7.607 15C7.79 15.357 8.007 15.693 8.261 16H4.5C4.224 16 4 15.776 4 15.5C4 15.224 4.224 15 4.5 15H6V13H4C2.895 13 2 12.105 2 11V4C2 2.895 2.895 2 4 2H14C15.105 2 16 2.895 16 4V8.261C15.693 8.008 15.357 7.791 15 7.607V4C15 3.448 14.552 3 14 3H4C3.448 3 3 3.448 3 4V11C3 11.552 3.448 12 4 12H7.025C7.01 12.165 7 12.331 7 12.5C7 12.669 7.01 12.835 7.025 13H7V15H7.607ZM17 12.5C17 14.985 14.985 17 12.5 17C10.015 17 8 14.985 8 12.5C8 10.015 10.015 8 12.5 8C14.985 8 17 10.015 17 12.5ZM14.5 12.5C14.5 12.224 14.276 12 14 12H13V10.5C13 10.224 12.776 10 12.5 10C12.224 10 12 10.224 12 10.5V12.5C12 12.776 12.224 13 12.5 13H14C14.276 13 14.5 12.776 14.5 12.5Z"/></svg>