<svg width="16" height="16" viewBox="0 0 16 16" xmlns="http://www.w3.org/2000/svg" fill="currentColor"><path d="M3 2C1.895 2 1 2.895 1 4V9.997C1 11.102 1.895 11.997 3 11.997H5.005V13.008H3.506C3.23 13.008 3.006 13.232 3.006 13.508C3.006 13.784 3.23 14.008 3.506 14.008H6.604C6.441 13.691 6.309 13.357 6.21 13.008H6.006V11.997H6.023C6.008 11.833 6.001 11.667 6.001 11.5C6.001 11.331 6.009 11.163 6.024 10.997H3.001C2.449 10.997 2.001 10.549 2.001 9.997V4C2.001 3.448 2.449 3 3.001 3H11.001C11.553 3 12.001 3.448 12.001 4V6.022C12.344 6.053 12.679 6.115 13.001 6.207V4C13.001 2.895 12.106 2 11.001 2H3Z"/><path d="M16 11.5C16 13.985 13.985 16 11.5 16C9.015 16 7 13.985 7 11.5C7 9.015 9.015 7 11.5 7C13.985 7 16 9.015 16 11.5ZM11.5 9C11.224 9 11 9.224 11 9.5V11.5C11 11.776 11.224 12 11.5 12H13C13.276 12 13.5 11.776 13.5 11.5C13.5 11.224 13.276 11 13 11H12V9.5C12 9.224 11.776 9 11.5 9Z"/></svg>