<svg width="16" height="16" viewBox="0 0 16 16" xmlns="http://www.w3.org/2000/svg" fill="currentColor"><path fill-rule="evenodd" clip-rule="evenodd" d="M6.607 14C6.79 14.357 7.017 14.689 7.275 15H3.5C3.224 15 3 14.776 3 14.5C3 14.224 3.224 14 3.5 14H5V12H3C1.895 12 1 11.105 1 10V3C1 1.895 1.895 1 3 1H13C14.105 1 15 1.895 15 3V7.293C14.69 7.036 14.357 6.816 14 6.633V3C14 2.448 13.552 2 13 2H3C2.448 2 2 2.448 2 3V10C2 10.552 2.448 11 3 11H6.024C5.994 11.332 6.004 11.666 6.034 12H6V14H6.607ZM16 11.5C16 12.39 15.736 13.26 15.242 14C14.748 14.74 14.045 15.317 13.222 15.657C12.4 15.998 11.495 16.087 10.622 15.913C9.749 15.739 8.947 15.311 8.318 14.681C7.689 14.052 7.26 13.25 7.086 12.377C6.912 11.504 7.001 10.599 7.342 9.777C7.683 8.955 8.259 8.252 8.999 7.757C9.739 7.264 10.609 7 11.499 7C12.692 7 13.837 7.474 14.681 8.318C15.525 9.162 16 10.307 16 11.5ZM13.97 11.499C13.97 11.41 13.946 11.323 13.901 11.246C13.856 11.17 13.791 11.106 13.713 11.063L10.743 9.413C10.667 9.371 10.581 9.349 10.494 9.35C10.407 9.351 10.322 9.375 10.247 9.419C10.171 9.463 10.109 9.526 10.066 9.602C10.023 9.677 10 9.763 10 9.85V13.15C10 13.237 10.023 13.322 10.066 13.398C10.11 13.474 10.172 13.537 10.247 13.581C10.322 13.625 10.407 13.649 10.494 13.65C10.581 13.65 10.667 13.629 10.743 13.587L13.713 11.937C13.791 11.892 13.856 11.829 13.901 11.752C13.946 11.676 13.97 11.588 13.97 11.499Z"/></svg>