<svg width="16" height="16" viewBox="0 0 16 16" xmlns="http://www.w3.org/2000/svg" fill="currentColor"><path d="M3 2C1.895 2 1 2.895 1 4V9.997C1 11.102 1.895 11.997 3 11.997H5.005V13.008H3.506C3.23 13.008 3.006 13.232 3.006 13.508C3.006 13.784 3.23 14.008 3.506 14.008H6.604C6.441 13.691 6.309 13.357 6.21 13.008H6.006V11.997H6.023C6.008 11.833 6.001 11.667 6.001 11.5C6.001 11.331 6.009 11.163 6.024 10.997H3.001C2.449 10.997 2.001 10.549 2.001 9.997V4C2.001 3.448 2.449 3 3.001 3H11.001C11.553 3 12.001 3.448 12.001 4V6.022C12.344 6.053 12.679 6.115 13.001 6.207V4C13.001 2.895 12.106 2 11.001 2H3Z"/><path fill-rule="evenodd" clip-rule="evenodd" d="M9 7.758C9.74 7.264 10.61 7 11.5 7C12.693 7 13.838 7.474 14.682 8.318C15.526 9.162 16 10.307 16 11.5C16 12.39 15.736 13.26 15.242 14C14.748 14.74 14.045 15.317 13.222 15.657C12.4 15.998 11.495 16.087 10.622 15.913C9.749 15.739 8.947 15.311 8.318 14.681C7.689 14.052 7.26 13.25 7.086 12.377C6.912 11.504 7.001 10.599 7.342 9.777C7.683 8.955 8.259 8.252 8.999 7.757L9 7.758ZM13.713 11.937L10.743 13.587C10.667 13.629 10.581 13.651 10.494 13.65C10.407 13.649 10.322 13.625 10.247 13.581C10.172 13.537 10.11 13.474 10.066 13.398C10.023 13.322 10 13.237 10 13.15V9.85C10 9.763 10.023 9.677 10.066 9.602C10.109 9.526 10.171 9.463 10.247 9.419C10.322 9.375 10.407 9.351 10.494 9.35C10.581 9.349 10.667 9.371 10.743 9.413L13.713 11.063C13.791 11.106 13.856 11.17 13.901 11.246C13.946 11.323 13.97 11.41 13.97 11.499C13.97 11.588 13.946 11.676 13.901 11.752C13.856 11.829 13.791 11.892 13.713 11.936V11.937Z"/></svg>