<svg width="18" height="18" viewBox="0 0 18 18" xmlns="http://www.w3.org/2000/svg" fill="currentColor"><path fill-rule="evenodd" clip-rule="evenodd" d="M7.607 15C7.79 15.357 8.017 15.689 8.275 16H4.5C4.224 16 4 15.776 4 15.5C4 15.224 4.224 15 4.5 15H6V13H4C2.895 13 2 12.105 2 11V4C2 2.895 2.895 2 4 2H14C15.105 2 16 2.895 16 4V8.293C15.69 8.036 15.357 7.816 15 7.633V4C15 3.448 14.552 3 14 3H4C3.448 3 3 3.448 3 4V11C3 11.552 3.448 12 4 12H7.024C6.994 12.332 7.004 12.666 7.034 13H7V15H7.607ZM17 12.5C17 13.39 16.736 14.26 16.242 15C15.748 15.74 15.045 16.317 14.222 16.657C13.4 16.998 12.495 17.087 11.622 16.913C10.749 16.739 9.947 16.311 9.318 15.681C8.689 15.052 8.26 14.25 8.086 13.377C7.912 12.504 8.001 11.599 8.342 10.777C8.683 9.955 9.259 9.252 9.999 8.757C10.739 8.264 11.609 8 12.499 8C13.692 8 14.837 8.474 15.681 9.318C16.525 10.162 17 11.307 17 12.5ZM14.97 12.499C14.97 12.41 14.946 12.323 14.901 12.246C14.856 12.17 14.791 12.106 14.713 12.063L11.743 10.413C11.667 10.371 11.581 10.349 11.494 10.35C11.407 10.351 11.322 10.375 11.247 10.419C11.171 10.463 11.109 10.526 11.066 10.602C11.023 10.677 11 10.763 11 10.85V14.15C11 14.237 11.023 14.322 11.066 14.398C11.11 14.474 11.172 14.537 11.247 14.581C11.322 14.625 11.407 14.649 11.494 14.65C11.581 14.65 11.667 14.629 11.743 14.587L14.713 12.937C14.791 12.892 14.856 12.829 14.901 12.752C14.946 12.676 14.97 12.588 14.97 12.499Z"/></svg>