<svg xmlns="http://www.w3.org/2000/svg" width="12" height="12" viewBox="0 0 12 12" fill="currentColor"><path d="M5 0.5V11.5C5 11.78 4.78 12 4.5 12C4.22 12 4 11.78 4 11.5V0.5C4 0.22 4.22 0 4.5 0C4.78 0 5 0.22 5 0.5ZM7.5 2C7.22 2 7 2.22 7 2.5V9.5C7 9.78 7.22 10 7.5 10C7.78 10 8 9.78 8 9.5V2.5C8 2.22 7.78 2 7.5 2ZM10.5 4C10.22 4 10 4.22 10 4.5V7.5C10 7.78 10.22 8 10.5 8C10.78 8 11 7.78 11 7.5V4.5C11 4.22 10.78 4 10.5 4ZM1.5 3C1.22 3 1 3.22 1 3.5V8.5C1 8.78 1.22 9 1.5 9C1.78 9 2 8.78 2 8.5V3.5C2 3.22 1.78 3 1.5 3Z"/></svg>