<svg xmlns="http://www.w3.org/2000/svg" width="16" height="16" viewBox="0 0 16 16" fill="currentColor"><path d="M7 2.5V13.5C7 13.78 6.78 14 6.5 14C6.22 14 6 13.78 6 13.5V2.5C6 2.22 6.22 2 6.5 2C6.78 2 7 2.22 7 2.5ZM9.5 4C9.22 4 9 4.22 9 4.5V11.5C9 11.78 9.22 12 9.5 12C9.78 12 10 11.78 10 11.5V4.5C10 4.22 9.78 4 9.5 4ZM12.5 6C12.22 6 12 6.22 12 6.5V9.5C12 9.78 12.22 10 12.5 10C12.78 10 13 9.78 13 9.5V6.5C13 6.22 12.78 6 12.5 6ZM3.5 5C3.22 5 3 5.22 3 5.5V10.5C3 10.78 3.22 11 3.5 11C3.78 11 4 10.78 4 10.5V5.5C4 5.22 3.78 5 3.5 5Z"/></svg>