<svg width="18" height="18" viewBox="0 0 18 18" xmlns="http://www.w3.org/2000/svg" fill="currentColor"><path d="M7.5 8.5C7.5 8.776 7.276 9 7 9H5C4.724 9 4.5 8.776 4.5 8.5C4.5 8.224 4.724 8 5 8H7C7.276 8 7.5 8.224 7.5 8.5ZM13 8H11C10.724 8 10.5 8.224 10.5 8.5C10.5 8.776 10.724 9 11 9H13C13.276 9 13.5 8.776 13.5 8.5C13.5 8.224 13.276 8 13 8ZM17 7.5V9.5C17 9.776 16.776 10 16.5 10H16V11.295C16 12.787 14.786 14 13.295 14H11.705C10.773 14 9.922 13.524 9.427 12.727C9.253 12.448 8.747 12.448 8.573 12.727C8.078 13.524 7.226 14 6.295 14H4.705C3.214 14 2 12.787 2 11.295V10H1.5C1.224 10 1 9.776 1 9.5V7.5C1 7.224 1.224 7 1.5 7H2V6.705C2 5.213 3.214 4 4.705 4H7V3.5C7 3.224 7.224 3 7.5 3H10.5C10.776 3 11 3.224 11 3.5V4H13.295C14.786 4 16 5.213 16 6.705V7H16.5C16.776 7 17 7.224 17 7.5ZM15 6.705C15 5.765 14.235 5 13.295 5H4.705C3.765 5 3 5.765 3 6.705V11.295C3 12.235 3.765 13 4.705 13H6.295C6.878 13 7.412 12.701 7.724 12.199C7.992 11.768 8.481 11.5 9 11.5C9.519 11.5 10.009 11.768 10.276 12.199C10.588 12.7 11.122 13 11.705 13H13.295C14.235 13 15 12.235 15 11.295V6.705Z"/></svg>