<svg width="18" height="18" viewBox="0 0 18 18" xmlns="http://www.w3.org/2000/svg" fill="currentColor"><path d="M7.5 8.5C7.5 8.776 7.276 9 7 9H6C5.724 9 5.5 8.776 5.5 8.5C5.5 8.224 5.724 8 6 8H7C7.276 8 7.5 8.224 7.5 8.5ZM12 8H11C10.724 8 10.5 8.224 10.5 8.5C10.5 8.776 10.724 9 11 9H12C12.276 9 12.5 8.776 12.5 8.5C12.5 8.224 12.276 8 12 8ZM16 7.5V9.5C16 9.776 15.776 10 15.5 10H15V11.295C15 12.787 13.786 14 12.295 14H11.705C10.773 14 9.922 13.524 9.427 12.727C9.253 12.448 8.747 12.448 8.573 12.727C8.078 13.524 7.226 14 6.295 14H5.705C4.214 14 3 12.787 3 11.295V10H2.5C2.224 10 2 9.776 2 9.5V7.5C2 7.224 2.224 7 2.5 7H3V6.705C3 5.213 4.214 4 5.705 4H7V3.5C7 3.224 7.224 3 7.5 3H10.5C10.776 3 11 3.224 11 3.5V4H12.295C13.786 4 15 5.213 15 6.705V7H15.5C15.776 7 16 7.224 16 7.5ZM14 6.705C14 5.765 13.235 5 12.295 5H5.705C4.765 5 4 5.765 4 6.705V11.295C4 12.235 4.765 13 5.705 13H6.295C6.878 13 7.412 12.701 7.724 12.199C7.992 11.768 8.481 11.5 9 11.5C9.519 11.5 10.009 11.768 10.276 12.199C10.588 12.7 11.122 13 11.705 13H12.295C13.235 13 14 12.235 14 11.295V6.705Z"/></svg>