<svg width="16" height="16" viewBox="0 0 16 16" xmlns="http://www.w3.org/2000/svg" fill="currentColor"><path d="M8.045 7.37722L5.449 5.40722L10.636 0.676223C10.685 0.631223 10.735 0.617223 10.778 0.617223C10.786 0.617223 10.999 0.627223 10.999 0.837223V5.13222L8.044 7.37622L8.045 7.37722ZM0.217 10.1762C0.072 10.3082 0 10.4882 0 10.6682C0 10.8482 0.073 11.0292 0.218 11.1612L1.099 11.9622C1.226 12.0772 1.386 12.1352 1.547 12.1352C1.688 12.1352 1.83 12.0902 1.95 12.0002L3.887 10.5312L1.858 8.68122L0.218 10.1762H0.217ZM1.95 4.00822C1.83 3.91722 1.689 3.87322 1.547 3.87322C1.386 3.87322 1.225 3.93122 1.099 4.04622L0.218 4.84722C0.073 4.97922 0 5.16022 0 5.34022C0 5.52022 0.072 5.70022 0.217 5.83222L2.202 7.64222L10.634 15.3332C10.684 15.3792 10.735 15.3922 10.779 15.3922C10.888 15.3922 11 15.3142 11 15.1752V10.8762L1.95 4.00822ZM15.434 1.73322L12.14 0.149223C12.002 0.0832227 11.855 0.0532227 11.709 0.0532227H11.704C11.888 0.268223 12.003 0.537223 12.003 0.837223V15.1752C12.004 15.4702 11.894 15.7342 11.716 15.9472H11.734C11.748 15.9472 11.761 15.9472 11.775 15.9472C11.962 15.9472 12.123 15.8682 12.14 15.8602L15.434 14.2762C15.78 14.1102 16 13.7592 16 13.3752V2.63422C16 2.25022 15.78 1.90022 15.434 1.73322Z"/></svg>