<svg width="16" height="16" viewBox="0 0 16 16" xmlns="http://www.w3.org/2000/svg" fill="currentColor"><path d="M9.7851 1.38063L5.56484 5.25081L7.68844 6.87114L10 5.10739V2.00006C10 1.76613 9.91968 1.55096 9.7851 1.38063Z"/><path d="M10 9.89274L2.58433 4.23448C2.37657 4.07596 2.08597 4.08895 1.89301 4.26538L1.17719 4.9199C1.08223 5.00673 1.02543 5.11904 1.00681 5.23635C0.979153 5.41062 1.03574 5.59591 1.17661 5.7251L9.7851 13.6195C9.91968 13.4492 10 13.234 10 13.0001V9.89274Z"/><path d="M10.7532 1.03687C10.9105 1.32257 11 1.65087 11 2.00006V13.0001C11 13.3493 10.9105 13.6775 10.7532 13.9633C10.7906 13.9515 10.8274 13.937 10.8634 13.9196L13.5399 12.625C13.8211 12.489 14 12.2029 14 11.889V3.11115C14 2.79727 13.8212 2.51116 13.5399 2.37513L10.8634 1.08054C10.8274 1.06312 10.7906 1.04858 10.7532 1.03687Z"/><path d="M1.17661 9.27502L2.37233 8.17848L4.00854 9.67896L2.58433 10.7657C2.37657 10.9242 2.08597 10.9112 1.89301 10.7348L1.17719 10.0802C0.941168 9.86443 0.940898 9.49118 1.17661 9.27502Z"/></svg>