<svg width="16" height="16" viewBox="0 0 16 16" xmlns="http://www.w3.org/2000/svg" fill="currentColor"><path d="M10.8635 13.9195C10.6568 14.0195 10.4234 14.0246 10.2186 13.9444C10.1163 13.9044 10.0211 13.843 9.94003 13.7614L4.81622 9.06268L2.5844 10.7656C2.37664 10.9241 2.08603 10.9111 1.89307 10.7347L1.17725 10.0802C0.941229 9.86437 0.940959 9.49112 1.17667 9.27496L3.11219 7.5L1.17667 5.72504C0.940959 5.50888 0.941229 5.13563 1.17725 4.91982L1.89307 4.2653C2.08603 4.08887 2.37664 4.07588 2.5844 4.2344L4.81622 5.93732L9.94003 1.23855C9.97043 1.20797 10.0028 1.18023 10.0368 1.15538C10.2749 0.981429 10.5923 0.949298 10.8635 1.08048L13.54 2.37507C13.8212 2.5111 14.0001 2.79721 14.0001 3.11109V8H10.752V4.53356L6.86425 7.5L10.752 10.4664V8H14.0001V11.8889C14.0001 12.2028 13.8212 12.4889 13.54 12.625L10.8635 13.9195Z"/></svg>