<svg width="16" height="16" viewBox="0 0 16 16" fill="none" xmlns="http://www.w3.org/2000/svg">
<path d="M7.5 9H9.5V8H8V5.5H7V8.5L7.5 9Z" fill="white"/>
<path fill-rule="evenodd" clip-rule="evenodd" d="M5.5 3.66895C4.00549 4.53345 3 6.14929 3 8C3 9.85071 4.00549 11.4666 5.5 12.3311V14.5L6 15H10L10.5 14.5V12.3311C11.9945 11.4666 13 9.85071 13 8C13 6.14929 11.9945 4.53345 10.5 3.66895V1.5L10 1H6L5.5 1.5V3.66895ZM12 8C12 10.2091 10.2092 12 8 12C5.79083 12 4 10.2091 4 8C4 5.79089 5.79083 4 8 4C10.2092 4 12 5.79089 12 8Z" fill="white"/>
</svg>
