<svg width="16" height="16" viewBox="0 0 16 16" xmlns="http://www.w3.org/2000/svg" fill="currentColor"><path d="M15.5 12.5C15.776 12.5 16 12.724 16 13V13.5C16 14.327 15.327 15 14.5 15H1.5C0.673 15 0 14.327 0 13.5V13C0 12.724 0.224 12.5 0.5 12.5C0.776 12.5 1 12.724 1 13V13.5C1 13.775 1.224 14 1.5 14H14.5C14.776 14 15 13.775 15 13.5V13C15 12.724 15.224 12.5 15.5 12.5Z"/><path fill-rule="evenodd" clip-rule="evenodd" d="M4.8584 5.6709C6.16516 5.73603 6.94308 6.48734 6.99707 7.69922L7 7.83594V11.5107C6.996 11.7596 6.80919 11.9649 6.56836 11.998L6.5 12.0029C6.24709 12.0029 6.038 11.8152 6.00488 11.5713L6 11.5029V11.4326C5.341 11.8096 4.73199 12.0029 4.16699 12.0029C2.941 12.0029 2 11.1399 2 9.83594C2.00003 8.68597 2.79247 7.83185 4.10645 7.67285C4.7283 7.59793 5.35918 7.64552 5.99902 7.81348C5.99202 7.07548 5.62762 6.70995 4.80762 6.66895C4.16686 6.637 3.7161 6.72717 3.45215 6.91211C3.22615 7.07111 2.91386 7.01604 2.75586 6.79004C2.5969 6.56404 2.65194 6.25174 2.87793 6.09375C3.31692 5.78579 3.91404 5.65006 4.66699 5.66406L4.8584 5.6709ZM5.79688 8.81836C5.25888 8.67037 4.73558 8.62843 4.22559 8.69043C3.40389 8.79054 2.99902 9.22747 2.99902 9.86035C2.99917 10.5911 3.47413 11.0273 4.16602 11.0273C4.62001 11.0273 5.17799 10.8168 5.83398 10.3848L5.99902 10.2725V8.87891L5.79688 8.81836Z"/><path fill-rule="evenodd" clip-rule="evenodd" d="M9.55078 2.00586C9.78578 2.02986 9.97307 2.21715 9.99707 2.45215C10 2.46907 10 2.48601 10 2.50293V6.60254C10.418 6.22566 10.9371 6.00293 11.5 6.00293C12.881 6.00293 14 7.34596 14 9.00293C14 10.6599 12.881 12.0029 11.5 12.0029C10.9371 12.0029 10.418 11.7802 10 11.4033V11.5029C10 11.7619 9.80278 11.974 9.55078 12C9.53385 12.003 9.51693 12.0029 9.5 12.0029C9.224 12.0029 9 11.7789 9 11.5029V2.50293C9 2.486 9.00095 2.46907 9.00293 2.45215C9.02793 2.20015 9.241 2.00293 9.5 2.00293C9.51692 2.00293 9.53386 2.00388 9.55078 2.00586ZM11.4355 7.00391C11.0307 7.03208 10.5769 7.31545 10.29 7.82227C10.1232 8.12611 10.018 8.49479 10.002 8.89453C9.99995 8.92952 10 8.96597 10 9.00195C10 9.03795 10.001 9.07438 10.002 9.10938C10.018 9.50814 10.1222 9.87582 10.2891 10.1797C10.576 10.6875 11.0307 10.9728 11.4355 11C11.4565 11.002 11.478 11.002 11.5 11.002C11.522 11.002 11.5435 11.001 11.5645 11C11.9693 10.9728 12.424 10.6875 12.7109 10.1797C12.8778 9.87582 12.982 9.50814 12.998 9.10938C13 9.07438 13 9.03795 13 9.00195C13 8.96597 12.999 8.92952 12.998 8.89453C12.982 8.49479 12.8768 8.12611 12.71 7.82227C12.4231 7.31545 11.9693 7.03109 11.5645 7.00391C11.5435 7.00191 11.522 7.00195 11.5 7.00195C11.478 7.00195 11.4565 7.00291 11.4355 7.00391Z"/></svg>