<svg width="16" height="16" viewBox="0 0 16 16" xmlns="http://www.w3.org/2000/svg" fill="currentColor"><path fill-rule="evenodd" clip-rule="evenodd" d="M9.7492 10.3477H9.77068C10.1359 10.9635 10.6766 11.2715 11.3928 11.2715C12.1554 11.2715 12.757 10.9958 13.1974 10.4443C13.6379 9.88932 13.8581 9.15169 13.8581 8.23145C13.8581 7.4043 13.6611 6.74544 13.2673 6.25488C12.877 5.76074 12.3345 5.51367 11.6398 5.51367C10.8198 5.51367 10.1968 5.87891 9.77068 6.60938H9.7492V3H8.50311V11.1426H9.7492V10.3477ZM9.73846 8.84375V8.16162C9.73846 7.68896 9.87273 7.29508 10.1413 6.97998C10.4134 6.66488 10.7715 6.50732 11.2155 6.50732C11.6345 6.50732 11.9657 6.6613 12.2092 6.96924C12.4562 7.2736 12.5798 7.69613 12.5798 8.23682C12.5798 8.88135 12.4473 9.38444 12.1823 9.74609C11.9209 10.1042 11.5593 10.2832 11.0973 10.2832C10.7035 10.2832 10.3776 10.1436 10.1198 9.86426C9.86557 9.58496 9.73846 9.24479 9.73846 8.84375ZM5.82422 11.1426H7.03271V7.56543C7.03271 6.19759 6.33805 5.51367 4.94873 5.51367C4.18962 5.51367 3.52002 5.68555 2.93994 6.0293V7.11963C3.46631 6.66846 4.05713 6.44287 4.7124 6.44287C5.45719 6.44287 5.82959 6.83496 5.82959 7.61914L4.19678 7.8501C3.00081 8.02197 2.40283 8.62712 2.40283 9.66553C2.40283 10.1489 2.55501 10.5374 2.85938 10.8311C3.16732 11.1247 3.59163 11.2715 4.13232 11.2715C4.86637 11.2715 5.42318 10.9421 5.80273 10.2832H5.82422V11.1426ZM4.6748 8.60205L5.82959 8.44092V8.91895C5.82959 9.32357 5.70426 9.66016 5.45361 9.92871C5.20654 10.1937 4.89323 10.3262 4.51367 10.3262C4.23438 10.3262 4.01058 10.2528 3.84229 10.106C3.67757 9.95557 3.59521 9.764 3.59521 9.53125C3.59521 9.21256 3.68473 8.99056 3.86377 8.86523C4.04639 8.73633 4.31673 8.6486 4.6748 8.60205ZM1 13.1426H15V11.1426H16V14.1426H15H1H0V11.1426H1V13.1426Z"/></svg>