<svg width="16" height="16" viewBox="0 0 16 16" xmlns="http://www.w3.org/2000/svg" fill="currentColor"><path d="M6.997 7.699C6.943 6.487 6.165 5.736 4.858 5.671L4.667 5.664C3.914 5.65 3.317 5.786 2.878 6.094C2.652 6.252 2.597 6.564 2.756 6.79C2.914 7.016 3.226 7.071 3.452 6.912C3.716 6.727 4.167 6.637 4.808 6.669C5.628 6.71 5.992 7.075 5.999 7.813C5.359 7.645 4.728 7.598 4.106 7.673C2.792 7.832 2 8.686 2 9.836C2 11.14 2.941 12.003 4.167 12.003C4.732 12.003 5.341 11.81 6 11.433V11.503L6.005 11.571C6.038 11.815 6.247 12.003 6.5 12.003L6.568 11.998C6.809 11.965 6.996 11.76 7 11.511V7.836L6.997 7.699ZM5.999 10.272L5.834 10.385C5.178 10.817 4.62 11.027 4.166 11.027C3.474 11.027 2.999 10.591 2.999 9.86C2.999 9.227 3.404 8.79 4.226 8.69C4.736 8.628 5.259 8.67 5.797 8.818L5.999 8.879V10.272Z"/><path d="M14.5 15H1.5C0.673 15 0 14.327 0 13.5V13C0 12.724 0.224 12.5 0.5 12.5C0.776 12.5 1 12.724 1 13V13.5C1 13.775 1.224 14 1.5 14H14.5C14.776 14 15 13.775 15 13.5V13C15 12.724 15.224 12.5 15.5 12.5C15.776 12.5 16 12.724 16 13V13.5C16 14.327 15.327 15 14.5 15Z"/><path d="M11.5 6.00299C10.937 6.00299 10.418 6.22599 10 6.60299V2.50299C10 2.48599 10 2.46899 9.997 2.45199C9.973 2.21699 9.786 2.02999 9.551 2.00599C9.534 2.00399 9.517 2.00299 9.5 2.00299C9.241 2.00299 9.028 2.19999 9.003 2.45199C9.001 2.46899 9 2.48599 9 2.50299V11.503C9 11.779 9.224 12.003 9.5 12.003C9.517 12.003 9.534 12.003 9.551 12C9.803 11.974 10 11.762 10 11.503V11.403C10.418 11.78 10.937 12.003 11.5 12.003C12.881 12.003 14 10.66 14 9.00299C14 7.34599 12.881 6.00299 11.5 6.00299ZM10.002 8.89499C10.018 8.49499 10.123 8.12599 10.29 7.82199C10.577 7.31499 11.031 7.03199 11.436 7.00399C11.457 7.00299 11.478 7.00199 11.5 7.00199C11.522 7.00199 11.543 7.00199 11.564 7.00399C11.969 7.03099 12.423 7.31499 12.71 7.82199C12.877 8.12599 12.982 8.49499 12.998 8.89499C12.999 8.92999 13 8.96599 13 9.00199C13 9.03799 13 9.07399 12.998 9.10899C12.982 9.50799 12.878 9.87599 12.711 10.18C12.424 10.688 11.969 10.973 11.564 11C11.543 11.001 11.522 11.002 11.5 11.002C11.478 11.002 11.457 11.002 11.436 11C11.031 10.973 10.576 10.688 10.289 10.18C10.122 9.87599 10.018 9.50799 10.002 9.10899C10.001 9.07399 10 9.03799 10 9.00199C10 8.96599 10 8.92999 10.002 8.89499Z"/></svg>