<svg width="18" height="18" viewBox="0 0 18 18" xmlns="http://www.w3.org/2000/svg" fill="currentColor"><path d="M6 8C4.551 8 3.5 8.841 3.5 10C3.5 10.967 4.091 12 5.75 12C6.141 12 6.569 11.887 7.029 11.665C7.097 11.86 7.282 12 7.5 12C7.776 12 8 11.776 8 11.5V8C8 6.785 7.117 6 5.75 6C4.906 6 4.338 6.272 4.276 6.303C4.03 6.426 3.931 6.723 4.052 6.97C4.174 7.218 4.475 7.319 4.719 7.199C4.723 7.197 5.138 7 5.749 7C6.216 7 6.999 7.13 6.999 8V8.126C6.676 8.044 6.337 8 6 8ZM7 10.54C6.519 10.838 6.082 11 5.75 11C4.92 11 4.5 10.664 4.5 10C4.5 9.411 5.117 9 6 9C6.345 9 6.691 9.06 7 9.17V10.54ZM10.5 12C10.776 12 11 11.776 11 11.5V11.4C11.418 11.777 11.937 12 12.5 12C13.881 12 15 10.657 15 9C15 7.343 13.881 6 12.5 6C11.937 6 11.418 6.223 11 6.6V4.5C11 4.224 10.776 4 10.5 4C10.224 4 10 4.224 10 4.5V11.5C10 11.776 10.224 12 10.5 12ZM12.5 7C13.165 7 14 7.717 14 9C14 10.283 13.165 11 12.5 11C11.835 11 11 10.283 11 9C11 7.717 11.835 7 12.5 7ZM17 13V13.5C17 13.898 16.842 14.279 16.561 14.561C16.28 14.843 15.898 15 15.5 15H2.5C2.102 15 1.721 14.842 1.439 14.561C1.158 14.28 1 13.898 1 13.5V13C1 12.867 1.053 12.74 1.146 12.646C1.24 12.552 1.367 12.5 1.5 12.5C1.633 12.5 1.76 12.553 1.854 12.646C1.948 12.74 2 12.867 2 13V13.5C2 13.633 2.053 13.76 2.146 13.854C2.24 13.948 2.367 14 2.5 14H15.5C15.633 14 15.76 13.947 15.854 13.854C15.948 13.76 16 13.633 16 13.5V13C16 12.867 16.053 12.74 16.146 12.646C16.24 12.552 16.367 12.5 16.5 12.5C16.633 12.5 16.76 12.553 16.854 12.646C16.948 12.74 17 12.867 17 13Z"/></svg>