<svg width="16" height="16" viewBox="0 0 16 16" xmlns="http://www.w3.org/2000/svg" fill="currentColor"><path fill-rule="evenodd" clip-rule="evenodd" d="M11.5 7C13.985 7 16 9.015 16 11.5C16 13.985 13.985 16 11.5 16C9.015 16 7 13.985 7 11.5C7 9.015 9.015 7 11.5 7ZM13.8525 9.64844C13.6575 9.45346 13.3415 9.45346 13.1465 9.64844L10.5 12.2939L9.85352 11.6475C9.65851 11.4525 9.34246 11.4525 9.14746 11.6475C8.95247 11.8425 8.95247 12.1585 9.14746 12.3535L10.1475 13.3535C10.3425 13.5485 10.6585 13.5485 10.8535 13.3535L13.8535 10.3535L13.8525 10.3555C14.0475 10.1605 14.0475 9.84344 13.8525 9.64844Z"/><path fill-rule="evenodd" clip-rule="evenodd" d="M12 1C13.657 1 15 2.343 15 4V7H14.6006C14.4027 6.86509 14.2138 6.71736 14 6.60742V5H2V12C2 13.105 2.895 14 4 14H6.60742C6.71736 14.2148 6.86509 14.4027 7 14.6006V15H4C2.343 15 1 13.657 1 12V4C1 2.343 2.343 1 4 1H12ZM4 2C2.895 2 2 2.895 2 4H14C14 2.895 13.105 2 12 2H4Z"/></svg>