<svg width="10" height="10" viewBox="0 0 10 10" xmlns="http://www.w3.org/2000/svg" fill="currentColor"><path d="M8.854 6.14578C8.659 5.95078 8.342 5.95078 8.147 6.14578C7.952 6.34079 7.952 6.65778 8.147 6.85279L8.293 6.99879H5.75C5.337 6.99879 5 6.66279 5 6.24879V2.74879C5 2.33479 5.337 1.99879 5.75 1.99879H8.293L8.147 2.14479C7.952 2.33979 7.952 2.65679 8.147 2.85179C8.245 2.94979 8.373 2.99779 8.501 2.99779C8.629 2.99779 8.757 2.94879 8.855 2.85179L9.855 1.85179C10.05 1.65679 10.05 1.33979 9.855 1.14479L8.855 0.144785C8.66 -0.0502148 8.343 -0.0502148 8.148 0.144785C7.953 0.339785 7.953 0.656785 8.148 0.851785L8.294 0.997785H5.751C4.786 0.997785 4.001 1.78279 4.001 2.74779V3.99779H0.5C0.224 3.99779 0 4.22179 0 4.49779C0 4.77379 0.224 4.99779 0.5 4.99779H4V6.24779C4 7.21279 4.785 7.99779 5.75 7.99779H8.293L8.147 8.14379C7.952 8.33879 7.952 8.65579 8.147 8.85079C8.245 8.94878 8.373 8.99679 8.501 8.99679C8.629 8.99679 8.757 8.94779 8.855 8.85079L9.855 7.85078C10.05 7.65578 10.05 7.33879 9.855 7.14378L8.855 6.14378L8.854 6.14578Z"/></svg>