<svg width="18" height="18" viewBox="0 0 18 18" xmlns="http://www.w3.org/2000/svg" fill="currentColor"><path d="M7.855 7.146L9.001 8.292L10.148 7.145C10.322 6.971 10.591 6.952 10.786 7.087L10.855 7.145C11.029 7.319 11.048 7.588 10.913 7.783L10.855 7.852L9.707 8.997L10.854 10.145C11.028 10.319 11.047 10.588 10.912 10.783L10.854 10.852C10.68 11.026 10.411 11.045 10.216 10.91L10.147 10.852L9.001 9.706L7.854 10.853C7.68 11.027 7.411 11.046 7.216 10.911L7.147 10.853C6.973 10.679 6.954 10.41 7.089 10.215L7.147 10.146L8.293 9L7.148 7.853C6.974 7.679 6.955 7.41 7.09 7.215L7.148 7.146C7.322 6.972 7.591 6.953 7.786 7.088L7.855 7.146ZM15 4.6V8.202C15 12.064 13.03 14.689 9.19 15.97C9.128 15.991 9.064 16.001 9 16.001C8.936 16.001 8.872 15.991 8.81 15.97C4.969 14.69 3 12.064 3 8.202V4.6C3 4.269 3.269 4 3.6 4C5.435 4 7.085 3.667 8.577 2.176C8.694 2.059 8.847 2.001 9 2C9.154 2 9.307 2.059 9.425 2.176C10.913 3.667 12.562 4 14.399 4C14.73 4 15 4.269 15 4.6ZM14 4.995C12.42 4.955 10.646 4.646 9.001 3.152C7.353 4.645 5.579 4.955 4 4.995V8.201C4 11.597 5.636 13.815 9 14.977C12.364 13.815 14 11.597 14 8.201V4.995Z"/></svg>