<svg width="18" height="18" viewBox="0 0 18 18" xmlns="http://www.w3.org/2000/svg" fill="currentColor"><path d="M14.4 4C12.563 4 10.914 3.667 9.42601 2.176C9.30901 2.059 9.15501 2 9.00101 2C8.84801 2 8.69501 2.059 8.57801 2.176C7.08601 3.667 5.43601 4 3.60101 4C3.27001 4 3.00101 4.269 3.00101 4.6V8.202C3.00101 12.064 4.97101 14.689 8.81101 15.97C8.87301 15.991 8.93701 16.001 9.00101 16.001C9.06501 16.001 9.12901 15.991 9.19101 15.97C13.032 14.69 15.001 12.064 15.001 8.202V4.6C15.001 4.269 14.731 4 14.4 4ZM14 8.201C14 11.597 12.364 13.815 9.00001 14.977C5.63601 13.815 4.00001 11.597 4.00001 8.201V4.995C5.57901 4.956 7.35201 4.646 9.00101 3.152C10.647 4.645 12.421 4.955 14 4.995V8.201ZM8.49901 9.793L11.145 7.147C11.243 7.049 11.371 7.001 11.499 7.001C11.775 7.001 11.999 7.225 11.999 7.501C11.999 7.629 11.95 7.757 11.853 7.855L8.85301 10.855C8.75501 10.953 8.62701 11.001 8.49901 11.001C8.37101 11.001 8.24301 10.952 8.14501 10.855L6.64501 9.355C6.54701 9.257 6.49901 9.129 6.49901 9.001C6.49901 8.725 6.72301 8.501 6.99901 8.501C7.12701 8.501 7.25501 8.55 7.35301 8.647L8.49901 9.793Z"/></svg>