<svg width="16" height="16" viewBox="0 0 16 16" xmlns="http://www.w3.org/2000/svg" fill="currentColor"><path d="M4.5 0C3.122 0 2 1.122 2 2.5C2 3.707 2.86 4.717 4 4.949V11.05C2.86 11.282 2 12.292 2 13.499C2 14.877 3.122 15.999 4.5 15.999C5.878 15.999 7 14.877 7 13.499C7 12.292 6.14 11.282 5 11.05V4.949C6.14 4.717 7 3.707 7 2.5C7 1.122 5.878 0 4.5 0ZM6 13.5C6 14.327 5.327 15 4.5 15C3.673 15 3 14.327 3 13.5C3 12.673 3.673 12 4.5 12C5.327 12 6 12.673 6 13.5ZM4.5 4C3.673 4 3 3.327 3 2.5C3 1.673 3.673 1 4.5 1C5.327 1 6 1.673 6 2.5C6 3.327 5.327 4 4.5 4ZM14 5.5C14 4.122 12.878 3 11.5 3C10.122 3 9 4.122 9 5.5C9 6.699 9.849 7.701 10.977 7.943C10.921 8.407 10.661 8.829 10.25 9.066C10.23 9.077 10.218 9.096 10.201 9.11C10.175 9.13 10.15 9.15 10.128 9.175C10.106 9.2 10.09 9.227 10.074 9.255C10.058 9.282 10.043 9.309 10.033 9.34C10.022 9.372 10.018 9.404 10.013 9.438C10.01 9.46 10 9.479 10 9.502C10 9.513 10.006 9.522 10.006 9.533C10.008 9.563 10.016 9.592 10.024 9.622C10.033 9.658 10.042 9.693 10.059 9.726C10.063 9.734 10.063 9.743 10.067 9.751C10.076 9.767 10.092 9.777 10.103 9.792C10.126 9.823 10.149 9.852 10.178 9.877C10.2 9.896 10.224 9.91 10.249 9.925C10.278 9.942 10.307 9.958 10.34 9.969C10.372 9.98 10.404 9.984 10.437 9.989C10.458 9.992 10.477 10.002 10.499 10.002C10.51 10.002 10.519 9.997 10.53 9.996C10.562 9.994 10.592 9.985 10.624 9.977C10.659 9.968 10.692 9.959 10.724 9.943C10.733 9.939 10.742 9.939 10.751 9.934C10.785 9.914 10.81 9.885 10.842 9.864C10.846 9.86 10.851 9.858 10.855 9.854C11.506 9.43 11.916 8.728 11.975 7.955C13.127 7.732 14 6.719 14 5.503V5.5ZM11.5 7C10.673 7 10 6.327 10 5.5C10 4.673 10.673 4 11.5 4C12.327 4 13 4.673 13 5.5C13 6.327 12.327 7 11.5 7ZM6.5 9C6.776 9 7 9.224 7 9.5C7 9.776 6.776 10 6.5 10C6.224 10 6 9.776 6 9.5C6 9.224 6.224 9 6.5 9ZM9 9.5C9 9.776 8.776 10 8.5 10C8.224 10 8 9.776 8 9.5C8 9.224 8.224 9 8.5 9C8.776 9 9 9.224 9 9.5Z"/></svg>