<svg width="16" height="16" viewBox="0 0 16 16" xmlns="http://www.w3.org/2000/svg" fill="currentColor"><path d="M12.854 13.8542L14.854 11.8542C15.049 11.6592 15.049 11.3422 14.854 11.1472L12.854 9.14723C12.659 8.95223 12.342 8.95223 12.147 9.14723C11.952 9.34223 11.952 9.65923 12.147 9.85423L13.293 11.0002H8.5C8.225 11.0002 8 10.7752 8 10.5002V4.50023C8 4.22523 8.225 4.00023 8.5 4.00023H13.293L12.147 5.14623C12.049 5.24423 12.001 5.37223 12.001 5.50023C12.001 5.62823 12.05 5.75623 12.147 5.85423C12.342 6.04923 12.659 6.04923 12.854 5.85423L14.854 3.85423C15.049 3.65923 15.049 3.34223 14.854 3.14723L12.854 1.14723C12.659 0.952227 12.342 0.952227 12.147 1.14723C11.952 1.34223 11.952 1.65923 12.147 1.85423L13.293 3.00023H8.5C7.673 3.00023 7 3.67323 7 4.50023V7.00023H1.5C1.224 7.00023 1 7.22423 1 7.50023C1 7.77623 1.224 8.00023 1.5 8.00023H7V10.5002C7 11.3272 7.673 12.0002 8.5 12.0002H13.293L12.147 13.1462C12.049 13.2442 12.001 13.3722 12.001 13.5002C12.001 13.6282 12.05 13.7562 12.147 13.8542C12.342 14.0492 12.659 14.0492 12.854 13.8542Z"/></svg>