<svg width="10" height="10" viewBox="0 0 10 10" xmlns="http://www.w3.org/2000/svg" fill="currentColor"><path fill-rule="evenodd" clip-rule="evenodd" d="M2.5 0C3.327 0 4 0.673 4 1.5C4 2.152 3.582 2.70806 3 2.91406V6.08594C3.15599 6.03094 3.32501 6 3.5 6C3.776 6 4 6.224 4 6.5C4 6.74158 3.82847 6.94367 3.60059 6.99023L3.39941 7.00977C3.30203 7.02977 3.21573 7.07919 3.14746 7.14746C3.65116 7.38957 4 7.90422 4 8.5C4 9.327 3.327 10 2.5 10C1.673 10 1 9.327 1 8.5C1 7.848 1.418 7.29194 2 7.08594V2.91406C1.418 2.70806 1 2.152 1 1.5C1 0.673 1.673 0 2.5 0ZM2.5 8C2.224 8 2 8.225 2 8.5C2 8.775 2.224 9 2.5 9C2.776 9 3 8.775 3 8.5C3 8.225 2.776 8 2.5 8ZM2.5 1C2.224 1 2 1.225 2 1.5C2 1.775 2.224 2 2.5 2C2.776 2 3 1.775 3 1.5C3 1.225 2.776 1 2.5 1Z"/><path d="M5.5 6C5.776 6 6 6.224 6 6.5C6 6.776 5.776 7 5.5 7C5.224 7 5 6.776 5 6.5C5 6.224 5.224 6 5.5 6Z"/><path d="M7.5 6C7.776 6 8 6.224 8 6.5C8 6.776 7.776 7 7.5 7C7.224 7 7 6.776 7 6.5C7 6.224 7.224 6 7.5 6Z"/><path fill-rule="evenodd" clip-rule="evenodd" d="M7.5 2C8.327 2 9 2.673 9 3.5C9 4.15687 8.57224 4.71099 7.98242 4.91309C7.98843 4.94302 8 4.96906 8 5C8 5.276 7.776 5.5 7.5 5.5C7.224 5.5 7 5.276 7 5C7 4.96906 7.01256 4.94203 7.01758 4.91309C6.42776 4.71099 6 4.15687 6 3.5C6 2.673 6.673 2 7.5 2ZM7.5 3C7.224 3 7 3.225 7 3.5C7 3.775 7.224 4 7.5 4C7.776 4 8 3.775 8 3.5C8 3.225 7.776 3 7.5 3Z"/></svg>