<svg width="10" height="10" viewBox="0 0 10 10" xmlns="http://www.w3.org/2000/svg" fill="currentColor"><path d="M8.707 8.90959L8.85403 8.80278L9.85403 7.80278C10.049 7.60778 10.049 7.29077 9.85403 7.09577L8.707 5.94874C8.512 5.75374 8.195 5.75374 8 5.94874C7.805 6.14374 7.805 6.46074 8 6.65574L8.29303 6.94877H5.63636C5.33636 6.94877 5.09091 6.72377 5.09091 6.44877V2.65847C5.09091 2.38347 5.33636 2.15847 5.63636 2.15847H8.29303L8.00796 2.43805C7.90996 2.53605 7.86196 2.66405 7.86196 2.79205C7.86196 2.92005 7.91096 3.04805 8.00796 3.14605C8.20296 3.34105 8.51996 3.34105 8.71496 3.14605L9.85403 2.01247C10.049 1.81747 10.049 1.50047 9.85403 1.30547L8.69461 0.14625C8.49961 -0.04875 8.18261 -0.04875 7.98761 0.14625C7.79261 0.34125 7.79261 0.65825 7.98761 0.85325L8.29303 1.15847H5.63636C4.73418 1.15847 4 1.83147 4 2.65847V4L0.545455 4.00038C0.244364 4.00038 0 4.22438 0 4.50038C0 4.77638 0.244364 5.00038 0.545455 5.00038L4 5.00025V6.44877C4 7.27577 4.73418 7.94878 5.63636 7.94878H8.29303L8 8.20159C7.902 8.29959 7.854 8.42759 7.854 8.55559C7.854 8.68359 7.903 8.81159 8 8.90959C8.195 9.10459 8.512 9.10459 8.707 8.90959Z"/></svg>