<svg width="18" height="18" viewBox="0 0 18 18" xmlns="http://www.w3.org/2000/svg" fill="currentColor"><path d="M9.75 11.75C9.75 12.164 9.414 12.5 9 12.5C8.586 12.5 8.25 12.164 8.25 11.75C8.25 11.336 8.586 11 9 11C9.414 11 9.75 11.336 9.75 11.75ZM7.25 7.75C7.25 8.026 7.474 8.25 7.75 8.25C8.026 8.25 8.25 8.026 8.25 7.75C8.25 7.336 8.586 7 9 7C9.414 7 9.75 7.336 9.75 7.75C9.75 8.015 9.606 8.187 9.272 8.52L9.241 8.551C8.947 8.843 8.5 9.288 8.5 10C8.5 10.276 8.724 10.5 9 10.5C9.276 10.5 9.5 10.276 9.5 10C9.5 9.734 9.645 9.56 9.978 9.228L10.01 9.196C10.303 8.904 10.75 8.46 10.75 7.75C10.75 6.783 9.966 6 9 6C8.034 6 7.25 6.783 7.25 7.75ZM15 4.6V8.202C15 12.064 13.03 14.689 9.19 15.97C9.128 15.991 9.064 16.001 9 16.001C8.936 16.001 8.872 15.991 8.81 15.97C4.969 14.69 3 12.064 3 8.202V4.6C3 4.269 3.269 4 3.6 4C5.435 4 7.085 3.667 8.577 2.176C8.694 2.059 8.847 2.001 9 2C9.154 2 9.307 2.059 9.425 2.176C10.913 3.667 12.562 4 14.399 4C14.73 4 15 4.269 15 4.6ZM14 4.995C12.42 4.955 10.646 4.646 9.001 3.152C7.353 4.645 5.579 4.955 4 4.995V8.201C4 11.597 5.636 13.815 9 14.977C12.364 13.815 14 11.597 14 8.201V4.995Z"/></svg>